M48
;Layer_Color=9474304
;FILE_FORMAT=2:5
INCH
;TYPE=PLATED
T1F00S00C0.01200
T2F00S00C0.01299
T3F00S00C0.03346
T4F00S00C0.03543
T5F00S00C0.03701
T6F00S00C0.06299
T7F00S00C0.12441
T8F00S00C0.12598
T9F00S00C0.14331
;TYPE=NON_PLATED
T10F00S00C0.14000
%
T01
X0898969Y0064723
X0893498Y0068940
X0895967Y0057042
X0897167Y0047742
X0897126Y0043559
X0879109Y0050518
Y0056218
X0860507Y0056187
X0856290Y0050716
X0848609Y0053718
X0839309Y0052518
X0841055Y0061572
X0840963Y0078264
X0839309Y0087518
X0848609Y0088718
X0856290Y0085716
X0860507Y0091187
X0879109Y0091218
Y0085518
X0841055Y0096572
X0819109Y0091218
Y0085518
X0796290Y0085716
X0800507Y0091187
X0788609Y0088718
X0779309Y0087518
X0781054Y0096572
X0780963Y0078264
X0781054Y0061572
X0779309Y0052518
X0788609Y0053718
X0796290Y0050716
X0800507Y0056187
X0819109Y0056218
Y0050518
X0840963Y0043264
X0780963
X0759109Y0050518
Y0056218
Y0085518
Y0091218
X0740507Y0091187
X0736290Y0085716
X0728609Y0088718
X0719309Y0087518
X0721055Y0096572
X0720963Y0078264
X0721055Y0061572
X0719309Y0052518
X0728609Y0053718
X0736290Y0050716
X0740507Y0056187
X0720963Y0043264
X0697126Y0043559
X0697167Y0047742
X0695967Y0057042
X0698969Y0064723
X0693498Y0068940
X0679109Y0055218
Y0049518
X0656290Y0049716
X0660507Y0055187
X0648609Y0052718
X0639309Y0051518
X0641054Y0060572
X0640963Y0078264
X0639309Y0087518
X0648609Y0088718
X0656290Y0085716
X0660507Y0091187
X0679109Y0091218
Y0085518
X0641054Y0096572
X0619109Y0091218
Y0085518
X0596290Y0085716
X0600507Y0091187
X0588609Y0088718
Y0053718
X0596290Y0050716
X0600507Y0056187
X0619109Y0056218
Y0050518
X0640963Y0042264
X0580963Y0043264
X0579309Y0052518
X0581054Y0061572
X0580963Y0078264
X0579309Y0087518
X0581054Y0096572
X0559109Y0091218
Y0085518
X0536290Y0085716
X0540507Y0091187
X0528609Y0088718
X0519309Y0087518
X0521055Y0096572
X0520963Y0078264
X0521055Y0061572
X0519309Y0052518
X0528609Y0053718
X0536290Y0050716
X0540507Y0056187
X0559109Y0056218
Y0050518
X0520963Y0043264
X0498126Y0043559
X0497167Y0047742
X0495967Y0057042
X0498969Y0064723
X0493498Y0068940
X0479109Y0056218
Y0050518
X0456290Y0050716
X0460507Y0056187
X0448609Y0053718
X0439309Y0052518
X0441054Y0061572
X0440963Y0078264
X0439309Y0087518
X0448609Y0088718
X0456290Y0085716
X0460507Y0091187
X0479109Y0091218
Y0085518
X0441054Y0096572
X0440963Y0043264
X0419109Y0050518
Y0056218
X0400507Y0056187
X0396290Y0050716
X0388609Y0053718
X0379309Y0052518
X0381054Y0061572
X0380963Y0078264
X0379309Y0087518
X0388609Y0088718
X0396290Y0085716
X0400507Y0091187
X0419109Y0091218
Y0085518
X0381054Y0096572
X0359109Y0091218
Y0085518
X0336290Y0085716
X0340507Y0091187
X0328609Y0088718
X0319309Y0087518
X0321055Y0096572
X0320963Y0078264
X0321055Y0061572
X0319309Y0052518
X0328609Y0053718
X0336290Y0050716
X0340507Y0056187
X0359109Y0056218
Y0050518
X0380963Y0043264
X0320963
X0297126Y0045559
X0297167Y0049742
X0295967Y0059042
X0298970Y0066723
X0293498Y0070940
X0279109Y0085518
Y0091218
Y0056218
Y0050518
X0256290Y0050716
X0260507Y0056187
X0248609Y0053718
X0239309Y0052518
X0241055Y0061572
X0240963Y0078264
X0239309Y0087518
X0248609Y0088718
X0256290Y0085716
X0260507Y0091187
X0241055Y0096572
X0219109Y0091218
Y0085518
X0196290Y0085716
X0200507Y0091187
X0188609Y0088718
X0179309Y0087518
X0181054Y0096572
X0180963Y0078264
X0181054Y0061572
X0179309Y0052518
X0188609Y0053718
X0196290Y0050716
X0200507Y0056187
X0219109Y0056218
Y0050518
X0240963Y0043264
X0180963
X0159109Y0050518
Y0056218
X0140507Y0056187
X0136290Y0050716
X0128609Y0053718
X0119309Y0052518
X0121054Y0061572
X0120963Y0078264
X0119309Y0087518
X0128609Y0088718
X0136290Y0085716
X0140507Y0091187
X0159109Y0091218
Y0085518
X0121054Y0096572
X0120963Y0043264
X0094576Y0073538
X0096126Y0081559
X0097876Y0088699
X0088206Y0093474
X0084976Y0093399
X0079421Y0101199
X0086736Y0080589
X0041431Y0079901
X0045576Y0073799
X0031676Y0078899
X0037276Y0112999
X0046476Y0119799
X0027176Y0120699
X0019276Y0113599
X0019206Y0144289
X0008026
X0008086Y0158659
X0019016Y0158529
X0031286Y0158659
Y0144609
X0049556
X0045736Y0151379
X0049556Y0158659
X0057096Y0151509
X0057201Y0131430
X0064629Y0131479
X0068126Y0140559
X0073376Y0142459
X0084056Y0144959
X0084126Y0139829
Y0136759
X0087576Y0126099
X0079576
X0083948Y0119799
X0079421Y0113499
X0088476
X0095139Y0113547
X0092176Y0107999
X0098261Y0107998
X0083948Y0106899
X0064856Y0106709
X0100146Y0137369
X0103978Y0139855
X0100116Y0145029
X0100968Y0152234
X0108719Y0154299
X0101126Y0163559
X0104343Y0168334
X0112126Y0172559
X0108855Y0189210
X0104655Y0186953
X0100777Y0189370
X0100897Y0201006
X0107126Y0196559
X0099076Y0211169
X0086244Y0210559
X0081126
X0083492Y0224035
X0088610
X0100394Y0224237
X0102126Y0243559
X0101267Y0251154
X0101176Y0257469
X0114415Y0257834
X0114575Y0251581
X0081036Y0250809
X0085876Y0258799
X0087296Y0238835
X0043050Y0243017
X0037110Y0245577
X0032310Y0243017
X0033144Y0248972
X0040750Y0253607
X0055111Y0256304
X0047506Y0224069
X0015897Y0220543
X0015597Y0206043
X0026197Y0202943
X0006097Y0200143
X0005797Y0212443
X0005597Y0230743
X0007080Y0241067
X0014990Y0248037
X0015140Y0253657
X0005997Y0186943
X0060506Y0197149
X0068456
X0107126Y0131559
X0121054Y0131572
X0119309Y0122518
X0128609Y0123718
X0136290Y0120716
X0140507Y0126187
X0159109Y0126218
Y0120518
X0179309Y0122518
X0188609Y0123718
X0196290Y0120716
X0200507Y0126187
X0219109Y0126218
Y0120518
X0239426Y0122159
X0248726Y0123359
X0256407Y0120357
X0260625Y0125828
X0241055Y0131572
X0241080Y0112905
X0240548Y0168704
X0241088Y0174182
X0240536Y0179399
X0235946Y0178629
X0230146Y0180929
X0226191Y0178981
X0220205Y0179073
X0224916Y0186879
X0233766Y0188199
X0239534Y0187932
X0240394Y0198752
X0233776Y0197529
X0232346Y0201629
X0233536Y0220309
X0240151Y0222410
X0237646Y0225029
X0238906Y0234279
X0239770Y0240123
X0237492Y0242867
X0237176Y0246790
X0234706Y0249349
X0239544Y0252225
X0247026Y0254159
X0248306Y0258559
X0258756Y0254329
X0258816Y0249099
X0258926Y0241979
X0268886Y0244649
X0268496Y0248989
X0271105Y0254513
X0270126Y0235559
X0260244Y0224956
X0255726Y0228349
X0226378Y0228379
X0227926Y0238969
X0225646Y0244029
X0227366Y0247449
X0227292Y0252932
X0219741Y0252141
X0219636Y0243529
X0218466Y0238709
X0210585Y0244587
X0210363Y0253834
X0206425
X0200520
X0195014Y0250740
X0195276Y0245149
X0200376
X0190677Y0253834
X0182803
X0178867
X0178896Y0245409
X0173546Y0248029
X0173366Y0241989
X0167223Y0242919
X0166876Y0248983
X0170178Y0253182
X0165426Y0255059
X0167022Y0258739
X0161136Y0253292
X0157316Y0254909
X0155676Y0251169
X0155646Y0247429
X0145076Y0249279
X0140994Y0256006
X0149281Y0257607
X0167546Y0235329
X0173706Y0233889
X0175434Y0225173
X0169267Y0224407
X0168976Y0215939
X0175076Y0215479
X0181126Y0218559
X0183365Y0223589
X0185126Y0211559
X0181946Y0203929
X0173816Y0207559
X0166092Y0207595
X0169046Y0197429
X0168511Y0191641
X0167946Y0187829
X0174276Y0186299
X0177052Y0182949
X0178867Y0179073
X0184766Y0181449
X0192746Y0180429
X0196470Y0180968
X0200520Y0179073
X0196276Y0189719
X0191486Y0189319
X0184536Y0190519
X0178896Y0190739
X0174336Y0192449
X0174676Y0199409
X0169766Y0180709
X0167045Y0174157
X0160996Y0173299
X0161065Y0179400
X0151156Y0177889
X0151546Y0174079
X0146656Y0170769
X0143976Y0180699
X0141846Y0184629
X0146296Y0186209
X0146256Y0191039
X0141806Y0190669
X0151946Y0190329
X0155511Y0192709
X0151646Y0184029
X0137346Y0199729
X0137646Y0208429
X0136126Y0228559
X0127126Y0227559
X0129126Y0235559
X0234206Y0236799
X0216268Y0195351
X0255146Y0197629
X0259796Y0193758
X0258596Y0178679
X0249636Y0177629
X0249466Y0170301
X0261919Y0170272
X0192126Y0166559
X0181054Y0131572
X0180963Y0113264
X0120963
X0279226Y0120159
Y0125859
X0319309Y0122518
X0328609Y0123718
X0336290Y0120716
X0340507Y0126187
X0359109Y0126218
Y0120518
X0379309Y0122518
X0388609Y0123718
X0396290Y0120716
X0400507Y0126187
X0419109Y0126218
Y0120518
X0380963Y0113264
X0381054Y0131572
X0378976Y0178813
X0377162Y0182688
X0374296Y0186039
X0374466Y0192149
X0379267Y0190580
X0384786Y0190369
X0391416Y0189049
X0396766Y0189219
X0396580Y0180708
X0392856Y0180169
X0400630Y0178813
X0384536Y0181139
X0369756Y0180509
X0368056Y0187569
X0368736Y0191219
X0369156Y0197169
X0374296Y0199289
X0373816Y0207329
X0366202Y0207335
X0369086Y0215749
X0374156
X0373898Y0222898
X0367656Y0223258
Y0235069
X0373286Y0233969
X0373136Y0241629
X0373656Y0247769
X0378686Y0245539
X0378976Y0253574
X0382913
X0390788
X0395640Y0253516
X0400630Y0253574
X0406535
X0410472
X0410625Y0244668
X0419636Y0243589
X0418676Y0238529
X0428036Y0238709
X0425756Y0243769
X0429011Y0247335
X0427402Y0252672
X0419851Y0251881
X0400256Y0244839
X0395094Y0244835
X0367333Y0242659
X0366986Y0248723
X0365126Y0253559
X0361246Y0253032
X0357316Y0255049
X0355676Y0250659
X0355756Y0247169
X0344976Y0248839
X0348585Y0257283
X0339739Y0255779
X0367132Y0258479
X0370288Y0252922
X0381126Y0221559
X0380126Y0217559
X0385126Y0215559
X0385429Y0211087
X0382056Y0203669
X0416378Y0195091
X0424946Y0186299
X0426301Y0178721
X0420315Y0178813
X0426607Y0229884
X0337756Y0208169
X0337456Y0199469
X0341916Y0190409
X0346366Y0190779
X0346406Y0185949
X0341956Y0184369
X0343876Y0180939
X0351756Y0183769
X0352056Y0190069
X0351186Y0177449
X0351146Y0174139
X0347026Y0170659
X0358746Y0174819
X0361175Y0179140
X0367156Y0173897
X0321055Y0131572
X0320963Y0113264
X0440963
X0439309Y0122518
X0448609Y0123718
X0456290Y0120716
X0460507Y0126187
X0479109Y0126218
Y0120518
X0519309Y0122518
X0528609Y0123718
X0536290Y0120716
X0540507Y0126187
X0559109Y0126218
Y0120518
X0579309Y0122518
X0581054Y0131572
X0580963Y0113264
X0520963
X0521055Y0131572
X0546526Y0171109
X0551086Y0174529
X0550906Y0178249
X0551446Y0184114
X0551746Y0190414
X0546056Y0191124
X0541606Y0190754
X0541646Y0184714
X0546096Y0186294
X0543726Y0180569
X0560865Y0179485
X0560846Y0173589
X0566846Y0174241
X0569476Y0180789
X0567746Y0187914
X0568366Y0191709
X0574306Y0192349
X0578786Y0190759
X0584316
X0584356Y0181529
X0578666Y0179157
X0576852Y0183034
X0574306Y0186269
X0574656Y0199319
X0568647Y0199378
X0565892Y0207680
X0573606Y0207439
X0575046Y0215759
X0568826Y0216059
X0567346Y0223603
X0575144Y0225538
X0584126Y0224559
X0585126Y0220559
X0581746Y0204014
X0573506Y0234045
X0567346Y0235414
X0567023Y0243004
X0566676Y0249068
X0569978Y0253267
X0564966Y0255399
X0560936Y0253377
X0557000Y0255821
X0555663Y0251756
X0555446Y0247514
X0544886Y0249179
X0548423Y0257728
X0539599Y0256205
X0578666Y0253919
X0582604
X0578526Y0245609
X0573346Y0248114
X0573106Y0242319
X0537446Y0208514
X0537146Y0199814
X0459074Y0193081
X0458786Y0178489
X0449646Y0177469
X0443126Y0177559
X0441198Y0173922
X0440126Y0168559
X0449486Y0170509
X0462066Y0170279
X0436056Y0178369
X0430256Y0180669
X0433856Y0187939
X0439644Y0187672
X0440504Y0198492
X0434483Y0197397
X0432456Y0201369
X0433466Y0219909
X0440261Y0222150
X0437756Y0224769
X0439176Y0234129
X0439880Y0239863
X0437602Y0242607
X0437286Y0246530
X0439654Y0251965
X0440194Y0258636
X0444956Y0255779
X0448546Y0258509
X0458236Y0258279
X0458631Y0254604
X0459176Y0248979
X0458946Y0241709
X0469103Y0238739
X0468556Y0248899
X0470738Y0254666
X0462126Y0231559
X0460062Y0223983
X0455836Y0228089
X0434016Y0236629
X0441054Y0131572
X0588609Y0123718
X0596290Y0120716
X0600507Y0126187
X0619109Y0126218
Y0120518
X0639309Y0122518
X0648609Y0123718
X0656290Y0120716
X0660507Y0126187
X0679109Y0126218
Y0120518
X0719309Y0122518
X0728609Y0123718
X0736290Y0120716
X0740507Y0126187
X0721055Y0131572
X0720963Y0113264
X0640963
X0641054Y0131572
X0640888Y0174267
X0640406Y0179399
X0635746Y0178714
X0629946Y0181014
X0625991Y0179066
X0620005Y0179157
X0624666Y0186619
X0633486Y0187969
X0639334Y0188017
X0640194Y0198837
X0633876Y0197839
X0632146Y0201714
X0633366Y0220469
X0639951Y0222495
X0637446Y0225114
X0638676Y0234199
X0639570Y0240208
X0637292Y0242952
X0636976Y0246875
X0634376Y0249349
X0639344Y0252310
X0644816Y0256149
X0647996Y0258669
X0658546Y0254729
X0658500Y0249331
X0658756Y0241959
X0668686Y0244269
X0668209Y0249083
X0668445Y0254766
X0661126Y0231559
X0660315Y0224090
X0655526Y0228434
X0627921Y0230895
X0627726Y0239054
X0625446Y0244114
X0627136Y0247499
X0627092Y0253017
X0619541Y0252226
X0619336Y0243919
X0618066Y0238939
X0610166Y0245029
X0610162Y0253919
X0606225
X0600320
X0595206Y0253729
X0590478Y0253919
X0595036Y0245009
X0600086Y0245059
X0587126Y0216559
X0590241Y0211418
X0590996Y0189559
X0596426Y0189609
X0596270Y0181053
X0592546Y0180514
X0600320Y0179157
X0616068Y0195436
X0629182Y0168801
X0649576Y0170829
X0649176Y0177999
X0658754Y0177547
X0661836Y0170679
X0660068Y0193783
X0633906Y0236909
X0739864Y0256277
X0736750Y0208191
X0737446Y0199829
X0741906Y0190769
X0741946Y0184729
X0746396Y0186309
X0746356Y0191139
X0752046Y0190429
X0751746Y0184129
X0751546Y0177729
X0751746Y0174529
X0745546Y0171229
X0760946Y0173329
X0761165Y0179500
X0769946Y0180629
X0767145Y0174257
X0768046Y0187929
X0768646Y0191229
X0774346Y0192629
X0778946Y0190829
X0784746Y0191029
X0790815Y0189562
X0796946Y0189829
X0796570Y0181068
X0792846Y0180529
X0800620Y0179173
X0784546Y0181729
X0778966Y0179173
X0777152Y0183048
X0774446Y0186229
Y0199429
X0769347Y0199425
X0766192Y0207695
X0774146Y0208029
X0775646Y0215429
X0767446Y0215629
X0767646Y0223618
X0773888Y0223258
X0781762Y0224438
X0786126Y0219559
Y0212559
X0790126Y0215559
X0782046Y0204029
X0773846Y0234329
X0767646Y0235429
X0767323Y0243019
X0766976Y0249083
X0765066Y0254039
X0761236Y0253392
X0757046Y0255129
X0755346Y0251229
X0755746Y0247529
X0745246Y0249729
X0748585Y0257283
X0770278Y0253282
X0773646Y0248129
Y0242129
X0779046Y0245429
X0778966Y0253934
X0782903
X0790777
X0795746Y0253829
X0800620Y0253934
X0806526
X0810462
X0811591Y0244736
X0819646Y0243629
X0818246Y0239129
X0828026Y0239069
X0825746Y0244129
X0827546Y0247629
X0827392Y0253032
X0819841Y0252241
X0839644Y0252325
X0837276Y0246890
X0837592Y0242967
X0839869Y0240223
X0838846Y0234229
X0833946Y0237029
X0832345Y0227380
X0837746Y0225129
X0840251Y0222510
X0833546Y0220429
X0832446Y0201729
X0833946Y0198029
X0840494Y0198852
X0839634Y0188032
X0833746Y0188129
X0825146Y0187029
X0826291Y0179081
X0830246Y0181029
X0836046Y0178729
X0841188Y0174282
X0838446Y0169229
X0849746Y0170529
X0849646Y0177729
X0845346Y0179529
X0859046Y0178029
X0862395Y0170586
X0861553Y0195293
X0861046Y0224843
X0855826Y0228449
X0867126Y0233559
X0871346Y0242229
X0868746Y0249529
X0871117Y0254654
X0859006Y0254229
X0859146Y0249629
Y0241829
X0858246Y0258629
X0847246Y0254229
X0800346Y0245129
X0795346Y0245029
X0816368Y0195451
X0820305Y0179173
X0819109Y0126218
Y0120518
X0839309Y0122518
X0848609Y0123718
X0856290Y0120716
X0860507Y0126187
X0879109Y0126218
Y0120518
X0840963Y0113264
X0841055Y0131572
X0800507Y0126187
X0796290Y0120716
X0788609Y0123718
X0779309Y0122518
X0781054Y0131572
X0780963Y0113264
X0759109Y0120518
Y0126218
X0900754Y0366178
X0895282Y0370395
X0898285Y0378076
X0897085Y0387376
X0896126Y0392559
X0887831Y0385722
X0879109Y0386218
Y0380518
X0856290Y0380716
X0860507Y0386187
X0848609Y0383718
X0839309Y0382518
X0841055Y0391572
X0840963Y0373264
X0841055Y0356572
X0839309Y0347518
X0848609Y0348718
X0856290Y0345716
X0860507Y0351187
X0879109Y0351218
Y0345518
Y0316218
Y0310518
X0856290Y0310716
X0860507Y0316187
X0848609Y0313718
X0839309Y0312518
X0841055Y0321572
X0840963Y0338264
X0819109Y0345518
Y0351218
X0800507Y0351187
X0796290Y0345716
X0788609Y0348718
X0779309Y0347518
X0781054Y0356572
X0780963Y0373264
X0779309Y0382518
X0788609Y0383718
X0796290Y0380716
X0800507Y0386187
X0819109Y0386218
Y0380518
X0781054Y0391572
X0759109Y0386218
Y0380518
Y0351218
Y0345518
X0780963Y0338264
X0781054Y0321572
X0779309Y0312518
X0788609Y0313718
X0796290Y0310716
X0800507Y0316187
X0819109Y0316218
Y0310518
X0840963Y0303264
X0820875Y0281185
X0815846Y0281029
X0806446Y0280729
X0800346Y0280829
X0790346Y0280529
X0782346
X0776446
X0771146Y0264929
X0767122Y0258839
X0761346Y0261929
X0753346Y0263929
X0748643Y0264880
X0748345Y0261141
X0759109Y0310518
Y0316218
X0780963Y0303264
X0840184Y0258996
X0848546Y0258929
X0848246Y0264729
X0858333Y0264434
X0739605Y0263337
X0739719Y0259817
X0736290Y0310716
X0740507Y0316187
X0728609Y0313718
X0719309Y0312518
X0721055Y0321572
X0720963Y0338264
X0719309Y0347518
X0728609Y0348718
X0736290Y0345716
X0740507Y0351187
X0721055Y0356572
X0720963Y0373264
X0719309Y0382518
X0728609Y0383718
X0736290Y0380716
X0740507Y0386187
X0721055Y0391572
X0694736Y0393258
X0697085Y0387376
X0698285Y0378076
X0695283Y0370395
X0700754Y0366178
X0687831Y0385722
X0679109Y0386218
Y0380518
X0656290Y0380716
X0660507Y0386187
X0648609Y0383718
X0639309Y0382518
X0641054Y0391572
X0640963Y0373264
X0641054Y0356572
X0639309Y0347518
X0648609Y0348718
X0656290Y0345716
X0660507Y0351187
X0679109Y0351218
Y0345518
Y0316218
Y0310518
X0656290Y0310716
X0660507Y0316187
X0648609Y0313718
X0639309Y0312518
X0641054Y0321572
X0640963Y0338264
X0619109Y0345518
Y0351218
X0600507Y0351187
X0596290Y0345716
X0588609Y0348718
Y0313718
X0596290Y0310716
X0600507Y0316187
X0619109Y0316218
Y0310518
X0640963Y0303264
X0620575Y0281170
X0615546Y0281014
X0606146Y0280714
X0600046Y0280814
X0590046Y0280514
X0639884Y0258981
X0648556Y0264529
X0657995Y0264427
X0658096Y0258873
X0720963Y0303264
X0619109Y0380518
Y0386218
X0600507Y0386187
X0596290Y0380716
X0588609Y0383718
X0579309Y0382518
X0581054Y0391572
X0580963Y0373264
X0581054Y0356572
X0579309Y0347518
X0580963Y0338264
X0581054Y0321572
X0579309Y0312518
X0580963Y0303264
X0582046Y0280514
X0576146
X0570846Y0264914
X0566822Y0258824
X0560926Y0262289
X0553096Y0264279
X0548482Y0265325
X0548296Y0261349
X0539558Y0260262
X0539350Y0264185
X0536290Y0310716
X0540507Y0316187
X0528609Y0313718
X0519309Y0312518
X0521055Y0321572
X0520963Y0338264
X0519309Y0347518
X0528609Y0348718
X0536290Y0345716
X0540507Y0351187
X0559109Y0351218
Y0345518
Y0316218
Y0310518
X0520963Y0303264
X0479109Y0310518
Y0316218
X0460507Y0316187
X0456290Y0310716
X0448609Y0313718
X0439309Y0312518
X0441054Y0321572
X0440963Y0338264
X0439309Y0347518
X0448609Y0348718
X0456290Y0345716
X0460507Y0351187
X0479109Y0351218
Y0345518
Y0380518
Y0386218
X0487831Y0385722
X0497085Y0387376
X0495061Y0392473
X0498285Y0378076
X0495283Y0370395
X0500754Y0366178
X0520963Y0373264
X0519309Y0382518
X0528609Y0383718
X0536290Y0380716
X0540507Y0386187
X0559109Y0386218
Y0380518
X0521055Y0391572
Y0356572
X0441054
X0440963Y0373264
X0439309Y0382518
X0448609Y0383718
X0456290Y0380716
X0460507Y0386187
X0441054Y0391572
X0440963Y0303264
X0448476Y0264139
X0458318Y0264060
X0420885Y0280825
X0415856Y0280669
X0406456Y0280369
X0400356Y0280469
X0390356Y0280169
X0382356
X0376456
X0371156Y0264569
X0361256Y0261849
X0353366Y0263589
X0348643Y0264880
X0348509Y0260771
X0339719Y0259817
X0339609Y0264152
X0336290Y0310716
X0340507Y0316187
X0328609Y0313718
X0319309Y0312518
X0321055Y0321572
X0320963Y0338264
X0319309Y0347518
X0328609Y0348718
X0336290Y0345716
X0340507Y0351187
X0359109Y0351218
Y0345518
X0379309Y0347518
X0388609Y0348718
X0396290Y0345716
X0400507Y0351187
X0419109Y0351218
Y0345518
Y0316218
Y0310518
X0396290Y0310716
X0400507Y0316187
X0388609Y0313718
X0379309Y0312518
X0381054Y0321572
X0380963Y0338264
X0381054Y0356572
X0380963Y0373264
X0379309Y0382518
X0388609Y0383718
X0396290Y0380716
X0400507Y0386187
X0419109Y0386218
Y0380518
X0381054Y0391572
X0359109Y0386218
Y0380518
X0336290Y0380716
X0340507Y0386187
X0328609Y0383718
X0319309Y0382518
X0321055Y0391572
X0320963Y0373264
X0321055Y0356572
X0295126Y0366559
X0298388Y0370208
X0295893Y0380867
X0297126Y0387559
X0295126Y0392559
X0287831Y0385722
X0279109Y0386218
Y0380518
Y0351218
Y0345518
Y0316218
Y0310518
X0320963Y0303264
X0359109Y0310518
Y0316218
X0380963Y0303264
X0256290Y0310716
X0260507Y0316187
X0248609Y0313718
X0239309Y0312518
X0241055Y0321572
X0240963Y0338264
X0239309Y0347518
X0248609Y0348718
X0256290Y0345716
X0260507Y0351187
X0241055Y0356572
X0240963Y0373264
X0239309Y0382518
X0248609Y0383718
X0256290Y0380716
X0260507Y0386187
X0241055Y0391572
X0219109Y0386218
Y0380518
X0196290Y0380716
X0200507Y0386187
X0188609Y0383718
X0179309Y0382518
X0181054Y0391572
X0180963Y0373264
X0181054Y0356572
X0179309Y0347518
X0188609Y0348718
X0196290Y0345716
X0200507Y0351187
X0219109Y0351218
Y0345518
Y0316218
Y0310518
X0196290Y0310716
X0200507Y0316187
X0188609Y0313718
X0179309Y0312518
X0181054Y0321572
X0180963Y0338264
X0159109Y0345518
Y0351218
X0140507Y0351187
X0136290Y0345716
X0128609Y0348718
X0119309Y0347518
X0121054Y0356572
X0120963Y0373264
X0119309Y0382518
X0128609Y0383718
X0136290Y0380716
X0140507Y0386187
X0159109Y0386218
Y0380518
X0121054Y0391572
X0120963Y0338264
X0121054Y0321572
X0119476Y0312330
X0128609Y0313718
X0136365Y0310640
X0140553Y0316183
X0159109Y0316218
Y0310518
X0180963Y0303264
X0182246Y0280429
X0176346
X0190246
X0200246Y0280729
X0206346Y0280629
X0215746Y0280929
X0220775Y0281085
X0240084Y0258896
X0248586Y0264619
X0258206Y0264449
X0258260Y0258945
X0240963Y0303264
X0171046Y0264829
X0161161Y0261889
X0153066Y0264159
X0149340Y0265204
X0149400Y0261167
X0140416Y0260140
X0140527Y0263934
X0120963Y0303264
X0109536Y0301459
X0103726Y0301509
X0098366Y0301299
X0092666Y0301329
X0092356Y0285659
X0083686Y0285509
Y0289829
X0076376Y0287059
Y0276839
X0083826Y0278559
Y0274339
X0089996Y0271359
X0090596Y0278509
X0099429Y0274407
X0102386Y0269879
X0096276Y0268679
X0106968Y0277244
X0113553Y0282085
X0109506Y0290849
X0060586Y0287059
Y0276839
X0040944Y0263804
X0040750Y0259036
X0028066Y0262652
X0015124Y0263090
X0015120Y0259176
X0006081Y0273048
X0015226Y0291549
X0045126Y0296559
X0045129Y0320109
X0058696Y0317919
X0056188Y0314639
X0062946Y0311589
X0063096Y0320609
X0073226Y0320429
X0073176Y0311559
X0065688Y0335252
X0060437Y0335096
X0061158Y0348937
X0068158
Y0356737
X0061158
Y0364537
X0068158
Y0372337
X0061158
Y0380137
X0068158
Y0387937
X0061158
X0081945Y0382512
X0088945
Y0371512
X0081945
X0015157Y0382937
X0007158
X0011157Y0389937
X0020157
X0020173Y0353291
X0012173
X0016173Y0346291
X0007173
T02
X0065214Y0079580
Y0085485
Y0091391
X0071119
Y0085485
Y0079580
T03
X0747874Y0012559
Y0020433
X0755748
X0763622
Y0012559
X0755748
X0771496
X0779370
Y0020433
X0771496
X0787244
Y0012559
X0795118
X0802992
Y0020433
X0795118
X0810866
X0818740
Y0012559
X0810866
X0826614
X0834488
Y0020433
X0826614
X0842362
Y0012559
X0850236
X0858110
Y0020433
X0850236
X0865984
X0873858
Y0012559
X0865984
X0881732
Y0020433
X0740000
X0732126
Y0012559
X0740000
X0681732
Y0020433
X0673858
X0665984
Y0012559
X0673858
X0658110
X0650236
Y0020433
X0658110
X0642362
Y0012559
X0634488
X0626614
Y0020433
X0634488
X0618740
X0610866
Y0012559
X0618740
X0602992
X0595118
Y0020433
X0602992
X0587244
Y0012559
X0579370
X0571496
Y0020433
X0579370
X0563622
X0555748
Y0012559
X0563622
X0547874
X0540000
Y0020433
X0547874
X0532126
Y0012559
X0481732
X0473858
X0465984
X0458110
X0450236
X0442362
X0434488
Y0020433
X0442362
X0450236
X0458110
X0465984
X0473858
X0481732
X0426614
X0418740
X0410866
X0402992
X0395118
X0387244
X0379370
X0371496
X0363622
X0355748
X0347874
X0340000
X0332126
Y0012559
X0340000
X0347874
X0355748
X0363622
X0371496
X0379370
X0387244
X0395118
X0402992
X0410866
X0418740
X0426614
X0281732
X0273858
Y0020433
X0281732
X0265984
X0258110
X0250236
X0242362
X0234488
X0226614
X0218740
X0210866
X0202992
X0195118
X0187244
X0179370
X0171496
X0163622
X0155748
X0147874
X0140000
X0132126
Y0012559
X0140000
X0147874
X0155748
X0163622
X0171496
X0179370
X0187244
X0195118
X0202992
X0210866
X0218740
X0226614
X0234488
X0242362
X0250236
X0258110
X0265984
X0747874Y0414685
X0755748
X0763622
X0771496
X0779370
X0787244
X0795118
X0802992
X0810866
X0818740
X0826614
X0834488
X0842362
X0850236
X0858110
X0865984
X0873858
X0881732
X0740000
X0732126
X0681732
X0673858
X0665984
X0658110
X0650236
X0642362
X0634488
X0626614
X0618740
X0610866
X0602992
X0595118
X0587244
X0579370
X0571496
X0563622
X0555748
X0547874
X0540000
X0532126
X0481732
X0473858
X0465984
X0458110
X0450236
X0442362
X0434488
X0426614
X0418740
X0410866
X0402992
X0395118
X0387244
X0379370
X0371496
X0363622
X0355748
X0347874
X0340000
X0332126
X0281732
X0273858
X0265984
X0258110
X0250236
X0242362
X0234488
X0226614
X0218740
X0210866
X0202992
X0195118
X0187244
X0179370
X0171496
X0163622
X0155748
X0147874
X0140000
X0132126
Y0422559
X0140000
X0147874
X0155748
X0163622
X0171496
X0179370
X0187244
X0195118
X0202992
X0210866
X0218740
X0226614
X0234488
X0242362
X0250236
X0258110
X0265984
X0273858
X0281732
X0332126
X0340000
X0347874
X0355748
X0363622
X0371496
X0379370
X0387244
X0395118
X0402992
X0410866
X0418740
X0426614
X0434488
X0442362
X0450236
X0458110
X0465984
X0473858
X0481732
X0532126
X0540000
X0547874
X0555748
X0563622
X0571496
X0579370
X0587244
X0595118
X0602992
X0610866
X0618740
X0626614
X0634488
X0642362
X0650236
X0658110
X0665984
X0673858
X0681732
X0732126
X0740000
X0747874
X0755748
X0763622
X0771496
X0779370
X0787244
X0795118
X0802992
X0810866
X0818740
X0826614
X0834488
X0842362
X0850236
X0858110
X0865984
X0873858
X0881732
T04
X0081886Y0159009
X0091886
Y0169009
Y0179009
X0081886
Y0189009
X0091886
Y0199009
X0081886
Y0169009
T05
X0022868Y0292133
Y0300165
Y0308196
Y0316228
X0029876Y0312212
Y0320244
Y0304181
Y0296149
X0048892Y0288157
Y0279141
Y0324220
Y0333236
T06
X0026372Y0274181
Y0338196
T07
X0030286Y0177509
X0018475Y0196013
T08
X0907874Y0012205
X0012205
Y0422835
X0907874
T09
X0042097Y0196013
T10
X0012868Y0281188
Y0331188
M30
