G04*
G04 #@! TF.GenerationSoftware,Altium Limited,Altium Designer,18.1.7 (191)*
G04*
G04 Layer_Color=16711935*
%FSLAX25Y25*%
%MOIN*%
G70*
G01*
G75*
%ADD10C,0.00787*%
%ADD16C,0.00500*%
D10*
X52025Y93202D02*
G03*
X52025Y93202I-394J0D01*
G01*
D02*
G03*
X52025Y93202I-394J0D01*
G01*
D16*
X102926Y296599D02*
X104926D01*
X103926Y295599D02*
Y297599D01*
X742376Y184619D02*
X744376D01*
X743376Y183619D02*
Y185619D01*
X542076Y184604D02*
X544076D01*
X543076Y183604D02*
Y185604D01*
X343386Y183259D02*
Y185259D01*
X342386Y184259D02*
X344386D01*
X46306Y228669D02*
X48306D01*
X47306Y227669D02*
Y229669D01*
X62356Y337549D02*
X64356D01*
X63356Y336549D02*
Y338549D01*
X124009Y381418D02*
Y383418D01*
X123009Y382418D02*
X125009D01*
X826546Y252185D02*
X828546D01*
X827546Y251185D02*
Y253185D01*
X862583Y249129D02*
X864583D01*
X863583Y248129D02*
Y250129D01*
X795312Y248687D02*
Y250687D01*
X794312Y249687D02*
X796312D01*
X784746Y185273D02*
Y187273D01*
X783746Y186273D02*
X785746D01*
X837246Y220429D02*
X839246D01*
X838246Y219429D02*
Y221429D01*
X824946Y181273D02*
Y183273D01*
X823946Y182273D02*
X825946D01*
X837696Y197720D02*
X839696D01*
X838696Y196720D02*
Y198720D01*
X819746Y247329D02*
Y249329D01*
X818746Y248329D02*
X820746D01*
X800346Y248829D02*
Y250829D01*
X799346Y249829D02*
X801346D01*
X778946Y249129D02*
Y251129D01*
X777946Y250129D02*
X779946D01*
X768146Y234129D02*
X770146D01*
X769146Y233129D02*
Y235129D01*
X768146Y207629D02*
X770146D01*
X769146Y206629D02*
Y208629D01*
X779046Y185229D02*
Y187229D01*
X778046Y186229D02*
X780046D01*
X791346Y183929D02*
Y185929D01*
X790346Y184929D02*
X792346D01*
X747390Y173229D02*
X749390D01*
X748390Y172229D02*
Y174229D01*
X834946Y175273D02*
Y177273D01*
X833946Y176273D02*
X835946D01*
X768846Y186329D02*
X770846D01*
X769846Y185329D02*
Y187329D01*
X768946Y192429D02*
X770946D01*
X769946Y191429D02*
Y193429D01*
X767946Y247829D02*
X769946D01*
X768946Y246829D02*
Y248829D01*
X767846Y242129D02*
X769846D01*
X768846Y241129D02*
Y243129D01*
X747346Y179329D02*
X749346D01*
X748346Y178329D02*
Y180329D01*
X841346Y254229D02*
X843346D01*
X842346Y253229D02*
Y255229D01*
X837446Y188229D02*
X839446D01*
X838446Y187229D02*
Y189229D01*
X842946Y175773D02*
Y177773D01*
X841946Y176773D02*
X843946D01*
X795746Y185029D02*
X797746D01*
X796746Y184029D02*
Y186029D01*
X767746Y177029D02*
Y179029D01*
X766746Y178029D02*
X768746D01*
X769046Y199629D02*
X771046D01*
X770046Y198629D02*
Y200629D01*
X841246Y236029D02*
Y238029D01*
X840246Y237029D02*
X842246D01*
X761146Y176929D02*
Y178929D01*
X760146Y177929D02*
X762146D01*
X763946Y252829D02*
Y254829D01*
X762946Y253829D02*
X764946D01*
X853146Y257729D02*
Y259729D01*
X852146Y258729D02*
X854146D01*
X772528Y255797D02*
Y257797D01*
X771528Y256797D02*
X773528D01*
X854446Y176829D02*
Y178829D01*
X853446Y177829D02*
X855446D01*
X763046Y260029D02*
X765046D01*
X764046Y259029D02*
Y261029D01*
X749546Y262029D02*
X751546D01*
X750546Y261029D02*
Y263029D01*
X852146Y264529D02*
X854146D01*
X853146Y263529D02*
Y265529D01*
X749546Y256529D02*
X751546D01*
X750546Y255529D02*
Y257529D01*
X543076Y189534D02*
Y191534D01*
X542076Y190534D02*
X544076D01*
X536946Y203070D02*
Y205070D01*
X535946Y204070D02*
X537946D01*
X109516Y295569D02*
Y297569D01*
X108516Y296569D02*
X110516D01*
X91877Y296599D02*
X93877D01*
X92877Y295599D02*
Y297599D01*
X89496Y283279D02*
X91496D01*
X90496Y282279D02*
Y284279D01*
X92752Y273319D02*
Y275319D01*
X91752Y274319D02*
X93752D01*
X35898Y251973D02*
Y253973D01*
X34898Y252973D02*
X36898D01*
X124009Y311418D02*
Y313418D01*
X123009Y312418D02*
X125009D01*
X724009Y121418D02*
Y123418D01*
X723009Y122418D02*
X725009D01*
X723009D02*
X725009D01*
X724009Y121418D02*
Y123418D01*
X342386Y190189D02*
X344386D01*
X343386Y189189D02*
Y191189D01*
X347356Y178969D02*
X349356D01*
X348356Y177969D02*
Y179969D01*
X368856Y185969D02*
X370856D01*
X369856Y184969D02*
Y186969D01*
X368956Y192069D02*
X370956D01*
X369956Y191069D02*
Y193069D01*
X368156Y233769D02*
X370156D01*
X369156Y232769D02*
Y234769D01*
X367856Y241769D02*
X369856D01*
X368856Y240769D02*
Y242769D01*
X391356Y183569D02*
Y185569D01*
X390356Y184569D02*
X392356D01*
X453456Y177469D02*
X455456D01*
X454456Y176469D02*
Y178469D01*
X452156Y258369D02*
X454156D01*
X453156Y257369D02*
Y259369D01*
X452156Y264169D02*
X454156D01*
X453156Y263169D02*
Y265169D01*
X347400Y172869D02*
X349400D01*
X348400Y171869D02*
Y173869D01*
X362956Y253469D02*
X364956D01*
X363956Y252469D02*
Y254469D01*
X367756Y176669D02*
Y178669D01*
X366756Y177669D02*
X368756D01*
X368156Y207269D02*
X370156D01*
X369156Y206269D02*
Y208269D01*
X369056Y199269D02*
X371056D01*
X370056Y198269D02*
Y200269D01*
X363056Y259669D02*
X365056D01*
X364056Y258669D02*
Y260669D01*
X384756Y184913D02*
Y186913D01*
X383756Y185913D02*
X385756D01*
X400356Y248469D02*
Y250469D01*
X399356Y249469D02*
X401356D01*
X437456Y187869D02*
X439456D01*
X438456Y186869D02*
Y188869D01*
X437256Y220069D02*
X439256D01*
X438256Y219069D02*
Y221069D01*
X441356Y253869D02*
X443356D01*
X442356Y252869D02*
Y254869D01*
X367956Y247469D02*
X369956D01*
X368956Y246469D02*
Y248469D01*
X336256Y203725D02*
X338256D01*
X337256Y202725D02*
Y204725D01*
X349556Y256169D02*
X351556D01*
X350556Y255169D02*
Y257169D01*
X372538Y255437D02*
Y257437D01*
X371538Y256437D02*
X373538D01*
X396756Y183669D02*
Y185669D01*
X395756Y184669D02*
X397756D01*
X424956Y180913D02*
Y182913D01*
X423956Y181913D02*
X425956D01*
X434956Y174913D02*
Y176913D01*
X433956Y175913D02*
X435956D01*
X442956Y175413D02*
Y177413D01*
X441956Y176413D02*
X443956D01*
X441256Y235669D02*
Y237669D01*
X440256Y236669D02*
X442256D01*
X419756Y246969D02*
Y248969D01*
X418756Y247969D02*
X420756D01*
X427556Y250825D02*
Y252825D01*
X426556Y251825D02*
X428556D01*
X462593Y248769D02*
X464593D01*
X463593Y247769D02*
Y249769D01*
X349556Y261669D02*
X351556D01*
X350556Y260669D02*
Y262669D01*
X379056Y184869D02*
Y186869D01*
X378056Y185869D02*
X380056D01*
X361156Y176569D02*
Y178569D01*
X360156Y177569D02*
X362156D01*
X378956Y248769D02*
Y250769D01*
X377956Y249769D02*
X379956D01*
X395322Y248327D02*
Y250327D01*
X394322Y249327D02*
X396322D01*
X437706Y197360D02*
X439706D01*
X438706Y196360D02*
Y198360D01*
X495985Y382676D02*
X497985D01*
X496985Y381676D02*
Y383676D01*
X324009Y311418D02*
Y313418D01*
X323009Y312418D02*
X325009D01*
X724009Y311418D02*
Y313418D01*
X723009Y312418D02*
X725009D01*
X324009Y346418D02*
Y348418D01*
X323009Y347418D02*
X325009D01*
X524009Y346418D02*
Y348418D01*
X523009Y347418D02*
X525009D01*
X724009Y346418D02*
Y348418D01*
X723009Y347418D02*
X725009D01*
X324009Y381418D02*
Y383418D01*
X323009Y382418D02*
X325009D01*
X524009Y381418D02*
Y383418D01*
X523009Y382418D02*
X525009D01*
X724009Y381418D02*
Y383418D01*
X723009Y382418D02*
X725009D01*
X384009Y311418D02*
Y313418D01*
X383009Y312418D02*
X385009D01*
X584009Y311418D02*
Y313418D01*
X583009Y312418D02*
X585009D01*
X784009Y311418D02*
Y313418D01*
X783009Y312418D02*
X785009D01*
X384009Y346418D02*
Y348418D01*
X383009Y347418D02*
X385009D01*
X584009Y346418D02*
Y348418D01*
X583009Y347418D02*
X585009D01*
X784009Y346418D02*
Y348418D01*
X783009Y347418D02*
X785009D01*
X384009Y381418D02*
Y383418D01*
X383009Y382418D02*
X385009D01*
X584009Y381418D02*
Y383418D01*
X583009Y382418D02*
X585009D01*
X784009Y381418D02*
Y383418D01*
X783009Y382418D02*
X785009D01*
X444009Y311418D02*
Y313418D01*
X443009Y312418D02*
X445009D01*
X644009Y311418D02*
Y313418D01*
X643009Y312418D02*
X645009D01*
X844009Y311418D02*
Y313418D01*
X843009Y312418D02*
X845009D01*
X444009Y346418D02*
Y348418D01*
X443009Y347418D02*
X445009D01*
X644009Y346418D02*
Y348418D01*
X643009Y347418D02*
X645009D01*
X844009Y346418D02*
Y348418D01*
X843009Y347418D02*
X845009D01*
X444009Y381418D02*
Y383418D01*
X443009Y382418D02*
X445009D01*
X644009Y381418D02*
Y383418D01*
X643009Y382418D02*
X645009D01*
X844009Y381418D02*
Y383418D01*
X843009Y382418D02*
X845009D01*
X324009Y121418D02*
Y123418D01*
X323009Y122418D02*
X325009D01*
X524009Y121418D02*
Y123418D01*
X523009Y122418D02*
X525009D01*
X324009Y86418D02*
Y88418D01*
X323009Y87418D02*
X325009D01*
X524009Y86418D02*
Y88418D01*
X523009Y87418D02*
X525009D01*
X724009Y86418D02*
Y88418D01*
X723009Y87418D02*
X725009D01*
X323009Y52418D02*
X325009D01*
X324009Y51418D02*
Y53418D01*
X523009Y52418D02*
X525009D01*
X524009Y51418D02*
Y53418D01*
X723009Y52418D02*
X725009D01*
X724009Y51418D02*
Y53418D01*
X384009Y121418D02*
Y123418D01*
X383009Y122418D02*
X385009D01*
X584009Y121418D02*
Y123418D01*
X583009Y122418D02*
X585009D01*
X784009Y121418D02*
Y123418D01*
X783009Y122418D02*
X785009D01*
X384009Y86418D02*
Y88418D01*
X383009Y87418D02*
X385009D01*
X584009Y86418D02*
Y88418D01*
X583009Y87418D02*
X585009D01*
X784009Y86418D02*
Y88418D01*
X783009Y87418D02*
X785009D01*
X384009Y51418D02*
Y53418D01*
X383009Y52418D02*
X385009D01*
X584009Y51418D02*
Y53418D01*
X583009Y52418D02*
X585009D01*
X784009Y51418D02*
Y53418D01*
X783009Y52418D02*
X785009D01*
X444009Y121418D02*
Y123418D01*
X443009Y122418D02*
X445009D01*
X644009Y121418D02*
Y123418D01*
X643009Y122418D02*
X645009D01*
X844009Y121418D02*
Y123418D01*
X843009Y122418D02*
X845009D01*
X444009Y86418D02*
Y88418D01*
X443009Y87418D02*
X445009D01*
X644009Y86418D02*
Y88418D01*
X643009Y87418D02*
X645009D01*
X844009Y86418D02*
Y88418D01*
X843009Y87418D02*
X845009D01*
X444009Y51418D02*
Y53418D01*
X443009Y52418D02*
X445009D01*
X644009Y50418D02*
Y52418D01*
X643009Y51418D02*
X645009D01*
X844009D02*
Y53418D01*
X843009Y52418D02*
X845009D01*
X524009Y311418D02*
Y313418D01*
X523009Y312418D02*
X525009D01*
X143276Y183519D02*
Y185519D01*
X142276Y184519D02*
X144276D01*
X143276Y189449D02*
Y191449D01*
X142276Y190449D02*
X144276D01*
X137146Y202985D02*
Y204985D01*
X136146Y203985D02*
X138146D01*
X123009Y87418D02*
X125009D01*
X124009Y86418D02*
Y88418D01*
X123009Y122418D02*
X125009D01*
X124009Y121418D02*
Y123418D01*
X123009Y52418D02*
X125009D01*
X124009Y51418D02*
Y53418D01*
X183009Y122418D02*
X185009D01*
X184009Y121418D02*
Y123418D01*
X183009Y87418D02*
X185009D01*
X184009Y86418D02*
Y88418D01*
X183009Y52418D02*
X185009D01*
X184009Y51418D02*
Y53418D01*
X243126Y122059D02*
X245126D01*
X244126Y121059D02*
Y123059D01*
X243009Y87418D02*
X245009D01*
X244009Y86418D02*
Y88418D01*
X243009Y52418D02*
X245009D01*
X244009Y51418D02*
Y53418D01*
X123009Y122418D02*
X125009D01*
X124009Y121418D02*
Y123418D01*
X297267Y53442D02*
Y55442D01*
X296267Y54442D02*
X298267D01*
X243009Y52418D02*
X245009D01*
X244009Y51418D02*
Y53418D01*
X243009Y87418D02*
X245009D01*
X244009Y86418D02*
Y88418D01*
X243126Y122059D02*
X245126D01*
X244126Y121059D02*
Y123059D01*
X183009Y52418D02*
X185009D01*
X184009Y51418D02*
Y53418D01*
X183009Y87418D02*
X185009D01*
X184009Y86418D02*
Y88418D01*
X183009Y122418D02*
X185009D01*
X184009Y121418D02*
Y123418D01*
X123009Y52418D02*
X125009D01*
X124009Y51418D02*
Y53418D01*
X123009Y87418D02*
X125009D01*
X124009Y86418D02*
Y88418D01*
X184009Y381418D02*
Y383418D01*
X183009Y382418D02*
X185009D01*
X123009Y312418D02*
X125009D01*
X124009Y311418D02*
Y313418D01*
X243009Y312418D02*
X245009D01*
X244009Y311418D02*
Y313418D01*
X123009Y382418D02*
X125009D01*
X124009Y381418D02*
Y383418D01*
X243009Y382418D02*
X245009D01*
X244009Y381418D02*
Y383418D01*
X123009Y347418D02*
X125009D01*
X124009Y346418D02*
Y348418D01*
X243009Y347418D02*
X245009D01*
X244009Y346418D02*
Y348418D01*
X183009Y312418D02*
X185009D01*
X184009Y311418D02*
Y313418D01*
X183009Y382418D02*
X185009D01*
X184009Y381418D02*
Y383418D01*
X183009Y347418D02*
X185009D01*
X184009Y346418D02*
Y348418D01*
X243009Y312418D02*
X245009D01*
X244009Y311418D02*
Y313418D01*
X243009Y382418D02*
X245009D01*
X244009Y381418D02*
Y383418D01*
X123009Y347418D02*
X125009D01*
X124009Y346418D02*
Y348418D01*
X243009Y347418D02*
X245009D01*
X244009Y346418D02*
Y348418D01*
X183009Y312418D02*
X185009D01*
X184009Y311418D02*
Y313418D01*
X296985Y381676D02*
Y383676D01*
X295985Y382676D02*
X297985D01*
X183009Y347418D02*
X185009D01*
X184009Y346418D02*
Y348418D01*
X723009Y312418D02*
X725009D01*
X724009Y311418D02*
Y313418D01*
X523009Y312418D02*
X525009D01*
X524009Y311418D02*
Y313418D01*
X323009Y312418D02*
X325009D01*
X324009Y311418D02*
Y313418D01*
X897267Y51442D02*
Y53442D01*
X896267Y52442D02*
X898267D01*
X697267Y51442D02*
Y53442D01*
X696267Y52442D02*
X698267D01*
X497267Y51442D02*
Y53442D01*
X496267Y52442D02*
X498267D01*
X843009Y52418D02*
X845009D01*
X844009Y51418D02*
Y53418D01*
X643009Y51418D02*
X645009D01*
X644009Y50418D02*
Y52418D01*
X443009D02*
X445009D01*
X444009Y51418D02*
Y53418D01*
X843009Y87418D02*
X845009D01*
X844009Y86418D02*
Y88418D01*
X643009Y87418D02*
X645009D01*
X644009Y86418D02*
Y88418D01*
X443009Y87418D02*
X445009D01*
X444009Y86418D02*
Y88418D01*
X843009Y122418D02*
X845009D01*
X844009Y121418D02*
Y123418D01*
X643009Y122418D02*
X645009D01*
X644009Y121418D02*
Y123418D01*
X443009Y122418D02*
X445009D01*
X444009Y121418D02*
Y123418D01*
X783009Y52418D02*
X785009D01*
X784009Y51418D02*
Y53418D01*
X583009Y52418D02*
X585009D01*
X584009Y51418D02*
Y53418D01*
X383009Y52418D02*
X385009D01*
X384009Y51418D02*
Y53418D01*
X783009Y87418D02*
X785009D01*
X784009Y86418D02*
Y88418D01*
X583009Y87418D02*
X585009D01*
X584009Y86418D02*
Y88418D01*
X383009Y87418D02*
X385009D01*
X384009Y86418D02*
Y88418D01*
X783009Y122418D02*
X785009D01*
X784009Y121418D02*
Y123418D01*
X583009Y122418D02*
X585009D01*
X584009Y121418D02*
Y123418D01*
X383009Y122418D02*
X385009D01*
X384009Y121418D02*
Y123418D01*
X723009Y52418D02*
X725009D01*
X724009Y51418D02*
Y53418D01*
X523009Y52418D02*
X525009D01*
X524009Y51418D02*
Y53418D01*
X323009Y52418D02*
X325009D01*
X324009Y51418D02*
Y53418D01*
X723009Y87418D02*
X725009D01*
X724009Y86418D02*
Y88418D01*
X523009Y87418D02*
X525009D01*
X524009Y86418D02*
Y88418D01*
X323009Y87418D02*
X325009D01*
X324009Y86418D02*
Y88418D01*
X523009Y122418D02*
X525009D01*
X524009Y121418D02*
Y123418D01*
X323009Y122418D02*
X325009D01*
X324009Y121418D02*
Y123418D01*
X896985Y381676D02*
Y383676D01*
X895985Y382676D02*
X897985D01*
X696985Y381676D02*
Y383676D01*
X695985Y382676D02*
X697985D01*
X843009Y382418D02*
X845009D01*
X844009Y381418D02*
Y383418D01*
X643009Y382418D02*
X645009D01*
X644009Y381418D02*
Y383418D01*
X443009Y382418D02*
X445009D01*
X444009Y381418D02*
Y383418D01*
X843009Y347418D02*
X845009D01*
X844009Y346418D02*
Y348418D01*
X643009Y347418D02*
X645009D01*
X644009Y346418D02*
Y348418D01*
X443009Y347418D02*
X445009D01*
X444009Y346418D02*
Y348418D01*
X843009Y312418D02*
X845009D01*
X844009Y311418D02*
Y313418D01*
X643009Y312418D02*
X645009D01*
X644009Y311418D02*
Y313418D01*
X443009Y312418D02*
X445009D01*
X444009Y311418D02*
Y313418D01*
X783009Y382418D02*
X785009D01*
X784009Y381418D02*
Y383418D01*
X583009Y382418D02*
X585009D01*
X584009Y381418D02*
Y383418D01*
X383009Y382418D02*
X385009D01*
X384009Y381418D02*
Y383418D01*
X783009Y347418D02*
X785009D01*
X784009Y346418D02*
Y348418D01*
X583009Y347418D02*
X585009D01*
X584009Y346418D02*
Y348418D01*
X383009Y347418D02*
X385009D01*
X384009Y346418D02*
Y348418D01*
X783009Y312418D02*
X785009D01*
X784009Y311418D02*
Y313418D01*
X583009Y312418D02*
X585009D01*
X584009Y311418D02*
Y313418D01*
X383009Y312418D02*
X385009D01*
X384009Y311418D02*
Y313418D01*
X723009Y382418D02*
X725009D01*
X724009Y381418D02*
Y383418D01*
X523009Y382418D02*
X525009D01*
X524009Y381418D02*
Y383418D01*
X323009Y382418D02*
X325009D01*
X324009Y381418D02*
Y383418D01*
X723009Y347418D02*
X725009D01*
X724009Y346418D02*
Y348418D01*
X523009Y347418D02*
X525009D01*
X524009Y346418D02*
Y348418D01*
X323009Y347418D02*
X325009D01*
X324009Y346418D02*
Y348418D01*
X100836Y158093D02*
Y160093D01*
X99836Y159093D02*
X101836D01*
X100846Y192625D02*
Y194625D01*
X99846Y193625D02*
X101846D01*
X108806Y157849D02*
Y159849D01*
X107806Y158849D02*
X109806D01*
X108706Y192839D02*
Y194839D01*
X107706Y193839D02*
X109706D01*
X262483Y249029D02*
X264483D01*
X263483Y248029D02*
Y250029D01*
X195212Y248587D02*
Y250587D01*
X194212Y249587D02*
X196212D01*
X184646Y185173D02*
Y187173D01*
X183646Y186173D02*
X185646D01*
X237146Y220329D02*
X239146D01*
X238146Y219329D02*
Y221329D01*
X224846Y181173D02*
Y183173D01*
X223846Y182173D02*
X225846D01*
X237596Y197620D02*
X239596D01*
X238596Y196620D02*
Y198620D01*
X219646Y247229D02*
Y249229D01*
X218646Y248229D02*
X220646D01*
X200246Y248729D02*
Y250729D01*
X199246Y249729D02*
X201246D01*
X178846Y249029D02*
Y251029D01*
X177846Y250029D02*
X179846D01*
X168046Y234029D02*
X170046D01*
X169046Y233029D02*
Y235029D01*
X168046Y207529D02*
X170046D01*
X169046Y206529D02*
Y208529D01*
X178946Y185129D02*
Y187129D01*
X177946Y186129D02*
X179946D01*
X191246Y183829D02*
Y185829D01*
X190246Y184829D02*
X192246D01*
X147290Y173129D02*
X149290D01*
X148290Y172129D02*
Y174129D01*
X234846Y175173D02*
Y177173D01*
X233846Y176173D02*
X235846D01*
X168746Y186229D02*
X170746D01*
X169746Y185229D02*
Y187229D01*
X168846Y192329D02*
X170846D01*
X169846Y191329D02*
Y193329D01*
X167846Y247729D02*
X169846D01*
X168846Y246729D02*
Y248729D01*
X167746Y242029D02*
X169746D01*
X168746Y241029D02*
Y243029D01*
X147246Y179229D02*
X149246D01*
X148246Y178229D02*
Y180229D01*
X241246Y254129D02*
X243246D01*
X242246Y253129D02*
Y255129D01*
X237346Y188129D02*
X239346D01*
X238346Y187129D02*
Y189129D01*
X242846Y175673D02*
Y177673D01*
X241846Y176673D02*
X243846D01*
X196646Y183929D02*
Y185929D01*
X195646Y184929D02*
X197646D01*
X167646Y176929D02*
Y178929D01*
X166646Y177929D02*
X168646D01*
X168946Y199529D02*
X170946D01*
X169946Y198529D02*
Y200529D01*
X241146Y235929D02*
Y237929D01*
X240146Y236929D02*
X242146D01*
X161046Y176829D02*
Y178829D01*
X160046Y177829D02*
X162046D01*
X162846Y253729D02*
X164846D01*
X163846Y252729D02*
Y254729D01*
X252046Y258629D02*
X254046D01*
X253046Y257629D02*
Y259629D01*
X172428Y255697D02*
Y257697D01*
X171428Y256697D02*
X173428D01*
X253346Y177729D02*
X255346D01*
X254346Y176729D02*
Y178729D01*
X162946Y259929D02*
X164946D01*
X163946Y258929D02*
Y260929D01*
X149446Y261929D02*
X151446D01*
X150446Y260929D02*
Y262929D01*
X252046Y264429D02*
X254046D01*
X253046Y263429D02*
Y265429D01*
X227446Y251085D02*
Y253085D01*
X226446Y252085D02*
X228446D01*
X149446Y256429D02*
X151446D01*
X150446Y255429D02*
Y257429D01*
X663283Y248114D02*
Y250114D01*
X662283Y249114D02*
X664283D01*
X594012Y249672D02*
X596012D01*
X595012Y248672D02*
Y250672D01*
X583446Y186258D02*
X585446D01*
X584446Y185258D02*
Y187258D01*
X637946Y219414D02*
Y221414D01*
X636946Y220414D02*
X638946D01*
X623646Y182258D02*
X625646D01*
X624646Y181258D02*
Y183258D01*
X638396Y196705D02*
Y198705D01*
X637396Y197705D02*
X639396D01*
X618446Y248314D02*
X620446D01*
X619446Y247314D02*
Y249314D01*
X599046Y249814D02*
X601046D01*
X600046Y248814D02*
Y250814D01*
X577646Y250114D02*
X579646D01*
X578646Y249114D02*
Y251114D01*
X568846Y233114D02*
Y235114D01*
X567846Y234114D02*
X569846D01*
X568846Y206614D02*
Y208614D01*
X567846Y207614D02*
X569846D01*
X577746Y186214D02*
X579746D01*
X578746Y185214D02*
Y187214D01*
X590046Y184914D02*
X592046D01*
X591046Y183914D02*
Y185914D01*
X548090Y172214D02*
Y174214D01*
X547090Y173214D02*
X549090D01*
X633646Y176258D02*
X635646D01*
X634646Y175258D02*
Y177258D01*
X569546Y185314D02*
Y187314D01*
X568546Y186314D02*
X570546D01*
X569646Y191414D02*
Y193414D01*
X568646Y192414D02*
X570646D01*
X568646Y246814D02*
Y248814D01*
X567646Y247814D02*
X569646D01*
X568546Y241114D02*
Y243114D01*
X567546Y242114D02*
X569546D01*
X548046Y178314D02*
Y180314D01*
X547046Y179314D02*
X549046D01*
X642046Y253214D02*
Y255214D01*
X641046Y254214D02*
X643046D01*
X638146Y187214D02*
Y189214D01*
X637146Y188214D02*
X639146D01*
X641646Y176758D02*
X643646D01*
X642646Y175758D02*
Y177758D01*
X595446Y185014D02*
X597446D01*
X596446Y184014D02*
Y186014D01*
X566446Y178014D02*
X568446D01*
X567446Y177014D02*
Y179014D01*
X569746Y198614D02*
Y200614D01*
X568746Y199614D02*
X570746D01*
X639946Y237014D02*
X641946D01*
X640946Y236014D02*
Y238014D01*
X559846Y177914D02*
X561846D01*
X560846Y176914D02*
Y178914D01*
X563646Y252814D02*
Y254814D01*
X562646Y253814D02*
X564646D01*
X652846Y257714D02*
Y259714D01*
X651846Y258714D02*
X653846D01*
X571228Y256782D02*
X573228D01*
X572228Y255782D02*
Y257782D01*
X654146Y176814D02*
Y178814D01*
X653146Y177814D02*
X655146D01*
X563746Y259014D02*
Y261014D01*
X562746Y260014D02*
X564746D01*
X550246Y261014D02*
Y263014D01*
X549246Y262014D02*
X551246D01*
X652846Y263514D02*
Y265514D01*
X651846Y264514D02*
X653846D01*
X626246Y252170D02*
X628246D01*
X627246Y251170D02*
Y253170D01*
X550246Y255514D02*
Y257514D01*
X549246Y256514D02*
X551246D01*
X742376Y190549D02*
X744376D01*
X743376Y189549D02*
Y191549D01*
X36160Y262889D02*
Y264889D01*
X35160Y263889D02*
X37160D01*
X63126Y314709D02*
Y316709D01*
X62126Y315709D02*
X64126D01*
X73366Y314709D02*
Y316709D01*
X72366Y315709D02*
X74366D01*
X55116Y250499D02*
Y252499D01*
X54116Y251499D02*
X56116D01*
X51350Y151549D02*
X53350D01*
X52350Y150549D02*
Y152549D01*
X47976Y76499D02*
X49976D01*
X48976Y75499D02*
Y77499D01*
X62132Y133699D02*
Y135699D01*
X61132Y134699D02*
X63132D01*
X91576Y69699D02*
Y71699D01*
X90576Y70699D02*
X92576D01*
X95976Y110399D02*
X97976D01*
X96976Y109399D02*
Y111399D01*
X89698Y110399D02*
X91698D01*
X90698Y109399D02*
Y111399D01*
X736246Y204085D02*
X738246D01*
X737246Y203085D02*
Y205085D01*
X61246Y295669D02*
Y297669D01*
X60246Y296669D02*
X62246D01*
X71952Y295489D02*
Y297489D01*
X70952Y296489D02*
X72952D01*
M02*
