G04*
G04 #@! TF.GenerationSoftware,Altium Limited,Altium Designer,18.1.7 (191)*
G04*
G04 Layer_Color=32768*
%FSLAX25Y25*%
%MOIN*%
G70*
G01*
G75*
%ADD11C,0.00394*%
%ADD16C,0.00500*%
%ADD17C,0.05000*%
%ADD180C,0.00197*%
D11*
X423287Y-119193D02*
X544114D01*
Y-216673D02*
Y-119193D01*
X423287Y-216673D02*
X544114D01*
X423287D02*
Y-119193D01*
X-1449Y-46528D02*
X74433D01*
X-1449Y-112079D02*
Y-46528D01*
Y-112079D02*
X74433D01*
Y-46528D01*
D16*
X340142Y-245197D02*
X342142D01*
X341142Y-246197D02*
Y-244197D01*
X428094Y-251594D02*
X430094D01*
X429095Y-252594D02*
Y-250594D01*
X428094Y-240571D02*
X430094D01*
X429095Y-241571D02*
Y-239571D01*
X133000Y-57933D02*
X135000D01*
X134000Y-58933D02*
Y-56933D01*
X26500Y-45433D02*
Y-43433D01*
X25500Y-44433D02*
X27500D01*
X251500Y-148326D02*
X253500D01*
X252500Y-149326D02*
Y-147326D01*
X274500Y-148326D02*
X276500D01*
X275500Y-149326D02*
Y-147326D01*
X121000Y-265933D02*
X123000D01*
X122000Y-266933D02*
Y-264933D01*
X120902Y-272396D02*
X122902D01*
X121902Y-273396D02*
Y-271396D01*
X631000Y-291933D02*
Y-289933D01*
X630000Y-290933D02*
X632000D01*
X22500Y-233433D02*
X24500D01*
X23500Y-234433D02*
Y-232433D01*
X44000Y-219177D02*
X46000D01*
X45000Y-220177D02*
Y-218177D01*
X475500Y-274242D02*
X477500D01*
X476500Y-275242D02*
Y-273242D01*
X11000Y-300705D02*
Y-298705D01*
X10000Y-299705D02*
X12000D01*
X211000Y-274242D02*
X213000D01*
X212000Y-275242D02*
Y-273242D01*
X229444Y-133433D02*
Y-131433D01*
X228444Y-132433D02*
X230444D01*
X289039Y-91295D02*
Y-89295D01*
X288039Y-90295D02*
X290039D01*
X484039Y-80272D02*
Y-78272D01*
X483039Y-79272D02*
X485039D01*
X239094Y-252594D02*
Y-250594D01*
X238094Y-251594D02*
X240094D01*
X289039Y-80272D02*
Y-78272D01*
X288039Y-79272D02*
X290039D01*
X484039Y-91295D02*
Y-89295D01*
X483039Y-90295D02*
X485039D01*
X239094Y-241571D02*
Y-239571D01*
X238094Y-240571D02*
X240094D01*
X445843Y-238996D02*
X447843D01*
X446842Y-239996D02*
Y-237996D01*
X459228Y-238996D02*
X461228D01*
X460228Y-239996D02*
Y-237996D01*
X443551Y-255114D02*
Y-253114D01*
X442551Y-254114D02*
X444551D01*
X270291Y-91870D02*
X272291D01*
X271291Y-92870D02*
Y-90870D01*
X274583Y-77613D02*
Y-75612D01*
X273583Y-76613D02*
X275583D01*
X465291Y-91870D02*
X467291D01*
X466291Y-92870D02*
Y-90870D01*
X469736Y-78362D02*
Y-76362D01*
X468736Y-77362D02*
X470736D01*
X255842Y-238996D02*
X257842D01*
X256842Y-239996D02*
Y-237996D01*
X269228Y-238996D02*
X271228D01*
X270228Y-239996D02*
Y-237996D01*
X253342Y-255185D02*
Y-253185D01*
X252342Y-254185D02*
X254342D01*
X256906Y-91870D02*
X258906D01*
X257906Y-92870D02*
Y-90870D01*
X451905Y-91870D02*
X453905D01*
X452906Y-92870D02*
Y-90870D01*
X634000Y-56933D02*
Y-54933D01*
X633000Y-55933D02*
X635000D01*
X636000Y-206933D02*
Y-204933D01*
X635000Y-205933D02*
X637000D01*
X397500Y-275242D02*
Y-273242D01*
X396500Y-274242D02*
X398500D01*
X293000Y-275242D02*
Y-273242D01*
X292000Y-274242D02*
X294000D01*
X427032Y-59841D02*
Y-57841D01*
X426031Y-58841D02*
X428031D01*
X505587Y-59841D02*
Y-57841D01*
X504587Y-58841D02*
X506587D01*
X237795Y-59841D02*
Y-57841D01*
X236795Y-58841D02*
X238795D01*
X317295Y-59841D02*
Y-57841D01*
X316295Y-58841D02*
X318295D01*
X253232Y-197319D02*
Y-195319D01*
X252232Y-196319D02*
X254232D01*
X253232Y-204012D02*
Y-202012D01*
X252232Y-203012D02*
X254232D01*
X228700Y-202933D02*
Y-200933D01*
X227700Y-201933D02*
X229700D01*
X276853Y-185508D02*
Y-183508D01*
X275853Y-184508D02*
X277853D01*
X282700Y-147689D02*
X284700D01*
X283700Y-148689D02*
Y-146689D01*
X302838Y-160311D02*
Y-158311D01*
X301838Y-159311D02*
X303838D01*
X302093Y-189232D02*
X304093D01*
X303093Y-190232D02*
Y-188232D01*
X331000Y-186433D02*
X333000D01*
X332000Y-187433D02*
Y-185433D01*
X413000Y-245433D02*
Y-243433D01*
X412000Y-244433D02*
X414000D01*
X301000Y-181433D02*
Y-179433D01*
X300000Y-180433D02*
X302000D01*
X396535Y-84307D02*
Y-82307D01*
X395535Y-83307D02*
X397535D01*
X336463Y-84047D02*
Y-82047D01*
X335463Y-83047D02*
X337463D01*
X330790Y-158343D02*
Y-156342D01*
X329790Y-157343D02*
X331790D01*
X301444Y-151043D02*
X303444D01*
X302444Y-152043D02*
Y-150043D01*
X618833Y-286716D02*
X620833D01*
X619834Y-287716D02*
Y-285716D01*
X66500Y-78433D02*
Y-76433D01*
X65500Y-77433D02*
X67500D01*
X414690Y-164957D02*
X416690D01*
X415690Y-165957D02*
Y-163957D01*
X392602Y-150441D02*
X394602D01*
X393602Y-151441D02*
Y-149441D01*
X86587Y-217360D02*
X88587D01*
X87587Y-218360D02*
Y-216360D01*
X100907Y-231790D02*
Y-229790D01*
X99907Y-230790D02*
X101907D01*
X108867Y-228534D02*
X110867D01*
X109867Y-229534D02*
Y-227534D01*
X87587Y-229408D02*
Y-227408D01*
X86587Y-228408D02*
X88587D01*
X86617Y-211770D02*
X88617D01*
X87617Y-212770D02*
Y-210770D01*
X402445Y-194535D02*
X404445D01*
X403445Y-195535D02*
Y-193535D01*
X386697Y-194535D02*
X388697D01*
X387697Y-195535D02*
Y-193535D01*
X73579Y-136150D02*
Y-134150D01*
X72579Y-135150D02*
X74579D01*
X52323Y-155949D02*
X54323D01*
X53323Y-156949D02*
Y-154949D01*
X103079Y-129449D02*
Y-127449D01*
X102079Y-128449D02*
X104079D01*
X44335Y-146449D02*
Y-144449D01*
X43335Y-145449D02*
X45335D01*
X44335Y-141449D02*
Y-139449D01*
X43335Y-140449D02*
X45335D01*
X37579Y-162449D02*
Y-160449D01*
X36579Y-161449D02*
X38579D01*
X47579Y-132693D02*
Y-130693D01*
X46579Y-131693D02*
X48579D01*
X98396Y-180449D02*
Y-178449D01*
X97396Y-179449D02*
X99396D01*
X104079Y-180449D02*
Y-178449D01*
X103079Y-179449D02*
X105079D01*
X53323Y-162949D02*
Y-160949D01*
X52323Y-161949D02*
X54323D01*
X79079Y-136205D02*
Y-134205D01*
X78079Y-135205D02*
X80079D01*
D17*
X394Y-333071D02*
X665748D01*
X666142Y-332677D01*
Y-394D01*
X394D02*
X666142D01*
X394Y-333071D02*
Y-394D01*
D180*
X48173Y-247421D02*
X69827D01*
Y-218091D01*
X48173D02*
X69827D01*
X48173Y-247421D02*
Y-218091D01*
X262877Y-184803D02*
X282956D01*
X262877D02*
Y-171614D01*
X282956D01*
Y-184803D02*
Y-171614D01*
X262877D02*
X282956D01*
X262877Y-184803D02*
Y-171614D01*
Y-184803D02*
X282956D01*
Y-171614D01*
M02*
