G04*
G04 #@! TF.GenerationSoftware,Altium Limited,Altium Designer,18.1.7 (191)*
G04*
G04 Layer_Physical_Order=2*
G04 Layer_Color=32768*
%FSLAX25Y25*%
%MOIN*%
G70*
G01*
G75*
%ADD17C,0.05000*%
%ADD147C,0.04000*%
%ADD148R,1.13000X0.29000*%
%ADD149C,0.05301*%
G04:AMPARAMS|DCode=150|XSize=69.008mil|YSize=69.008mil|CornerRadius=0mil|HoleSize=0mil|Usage=FLASHONLY|Rotation=0.000|XOffset=0mil|YOffset=0mil|HoleType=Round|Shape=Relief|Width=15mil|Gap=8mil|Entries=4|*
%AMTHD150*
7,0,0,0.06901,0.05301,0.01500,45*
%
%ADD150THD150*%
G04:AMPARAMS|DCode=151|XSize=94.992mil|YSize=94.992mil|CornerRadius=0mil|HoleSize=0mil|Usage=FLASHONLY|Rotation=0.000|XOffset=0mil|YOffset=0mil|HoleType=Round|Shape=Relief|Width=15mil|Gap=8mil|Entries=4|*
%AMTHD151*
7,0,0,0.09499,0.07899,0.01500,45*
%
%ADD151THD151*%
%ADD152C,0.15600*%
%ADD153C,0.05143*%
G04:AMPARAMS|DCode=154|XSize=91.843mil|YSize=91.843mil|CornerRadius=0mil|HoleSize=0mil|Usage=FLASHONLY|Rotation=0.000|XOffset=0mil|YOffset=0mil|HoleType=Round|Shape=Relief|Width=15mil|Gap=8mil|Entries=4|*
%AMTHD154*
7,0,0,0.09184,0.07584,0.01500,45*
%
%ADD154THD154*%
%ADD155C,0.07584*%
%ADD156C,0.04600*%
G04:AMPARAMS|DCode=157|XSize=65.465mil|YSize=65.465mil|CornerRadius=0mil|HoleSize=0mil|Usage=FLASHONLY|Rotation=0.000|XOffset=0mil|YOffset=0mil|HoleType=Round|Shape=Relief|Width=15mil|Gap=8mil|Entries=4|*
%AMTHD157*
7,0,0,0.06547,0.04947,0.01500,45*
%
%ADD157THD157*%
%ADD158C,0.04947*%
G04:AMPARAMS|DCode=159|XSize=62mil|YSize=62mil|CornerRadius=0mil|HoleSize=0mil|Usage=FLASHONLY|Rotation=0.000|XOffset=0mil|YOffset=0mil|HoleType=Round|Shape=Relief|Width=15mil|Gap=8mil|Entries=4|*
%AMTHD159*
7,0,0,0.06200,0.04600,0.01500,45*
%
%ADD159THD159*%
%ADD160C,0.14198*%
%ADD161C,0.14041*%
G04:AMPARAMS|DCode=162|XSize=156.409mil|YSize=156.409mil|CornerRadius=0mil|HoleSize=0mil|Usage=FLASHONLY|Rotation=0.000|XOffset=0mil|YOffset=0mil|HoleType=Round|Shape=Relief|Width=15mil|Gap=8mil|Entries=4|*
%AMTHD162*
7,0,0,0.15641,0.14041,0.01500,45*
%
%ADD162THD162*%
%ADD163C,0.15931*%
%ADD164C,0.03411*%
G04:AMPARAMS|DCode=165|XSize=44mil|YSize=44mil|CornerRadius=0mil|HoleSize=0mil|Usage=FLASHONLY|Rotation=0.000|XOffset=0mil|YOffset=0mil|HoleType=Round|Shape=Relief|Width=15mil|Gap=8mil|Entries=4|*
%AMTHD165*
7,0,0,0.04400,0.02800,0.01500,45*
%
%ADD165THD165*%
%ADD166C,0.02800*%
D17*
X394Y-333071D02*
X665748D01*
X666142Y-332677D01*
Y-394D01*
X394D02*
X666142D01*
X394Y-333071D02*
Y-394D01*
D147*
X0Y-333465D02*
X665354Y-333465D01*
X665354Y-0D02*
X665354Y-333465D01*
X-0Y-0D02*
X665354Y-0D01*
X-0Y-0D02*
X0Y-333465D01*
X653000Y-285433D02*
X653000Y-45433D01*
X534000Y-303433D02*
X635000Y-303433D01*
X653000Y-285433D01*
X528000Y-297433D02*
X534000Y-303433D01*
X644000Y-36433D02*
X653000Y-45433D01*
X516000Y-36433D02*
X644000D01*
X39000Y-175433D02*
Y-160433D01*
X38000Y-176433D02*
X39000Y-175433D01*
X14000Y-176433D02*
X38000D01*
X14000Y-290433D02*
Y-176433D01*
Y-290433D02*
X37000Y-313433D01*
X158000D01*
X173000Y-298433D01*
X204000D01*
X222000Y-316433D01*
X234000D01*
X253000Y-297433D01*
X282000D01*
X300000Y-315433D01*
X318000D01*
X339000Y-294433D01*
X382000D01*
X403000Y-315433D01*
X419000D01*
X436000Y-298433D01*
X467000D01*
X486000Y-317433D01*
X502000D01*
X522000Y-297433D01*
X528000D01*
X495000Y-15433D02*
X516000Y-36433D01*
X485000Y-15433D02*
X495000D01*
X466000Y-34433D02*
X485000Y-15433D01*
X438000Y-34433D02*
X466000D01*
X420000Y-16433D02*
X438000Y-34433D01*
X406000Y-16433D02*
X420000D01*
X388000Y-34433D02*
X406000Y-16433D01*
X328000Y-34433D02*
X388000D01*
X311000Y-17433D02*
X328000Y-34433D01*
X293000Y-17433D02*
X311000D01*
X275000Y-35433D02*
X293000Y-17433D01*
X247000Y-35433D02*
X275000D01*
X227000Y-15433D02*
X247000Y-35433D01*
X213000Y-15433D02*
X227000D01*
X193000Y-35433D02*
X213000Y-15433D01*
X21000Y-35433D02*
X193000D01*
X21000Y-158433D02*
Y-35433D01*
Y-158433D02*
X23000Y-160433D01*
X39000D01*
D148*
X585500Y-317933D02*
D03*
D149*
X475445Y-23720D02*
D03*
X479461Y-30728D02*
D03*
X483476Y-23720D02*
D03*
X487492Y-30728D02*
D03*
X499539Y-23720D02*
D03*
X503555Y-30728D02*
D03*
X462453Y-49744D02*
D03*
X471468D02*
D03*
X507531D02*
D03*
X516547D02*
D03*
X207618Y-23720D02*
D03*
X211634Y-30728D02*
D03*
X215650Y-23720D02*
D03*
X219665Y-30728D02*
D03*
X231713Y-23720D02*
D03*
X235728Y-30728D02*
D03*
X194626Y-49744D02*
D03*
X203642D02*
D03*
X239705D02*
D03*
X248721D02*
D03*
X328799D02*
D03*
X319783D02*
D03*
X283720D02*
D03*
X274705D02*
D03*
X315807Y-30728D02*
D03*
X311791Y-23720D02*
D03*
X299744Y-30728D02*
D03*
X295728Y-23720D02*
D03*
X291713Y-30728D02*
D03*
X287697Y-23720D02*
D03*
X397445D02*
D03*
X401461Y-30728D02*
D03*
X405476Y-23720D02*
D03*
X409492Y-30728D02*
D03*
X421539Y-23720D02*
D03*
X425555Y-30728D02*
D03*
X384453Y-49744D02*
D03*
X393468D02*
D03*
X429531D02*
D03*
X438547D02*
D03*
X199784Y-283327D02*
D03*
X208799D02*
D03*
X244862D02*
D03*
X253878D02*
D03*
X212776Y-302343D02*
D03*
X216791Y-309350D02*
D03*
X228839Y-302343D02*
D03*
X232854Y-309350D02*
D03*
X236870Y-302343D02*
D03*
X240886Y-309350D02*
D03*
X322146D02*
D03*
X318130Y-302343D02*
D03*
X314114Y-309350D02*
D03*
X310098Y-302343D02*
D03*
X298051Y-309350D02*
D03*
X294035Y-302343D02*
D03*
X335138Y-283327D02*
D03*
X326122D02*
D03*
X290059D02*
D03*
X281043D02*
D03*
X506306Y-309350D02*
D03*
X502290Y-302343D02*
D03*
X498274Y-309350D02*
D03*
X494258Y-302343D02*
D03*
X482211Y-309350D02*
D03*
X478195Y-302343D02*
D03*
X519298Y-283327D02*
D03*
X510282D02*
D03*
X474219D02*
D03*
X465203D02*
D03*
X426383Y-309350D02*
D03*
X422368Y-302343D02*
D03*
X418352Y-309350D02*
D03*
X414336Y-302343D02*
D03*
X402289Y-309350D02*
D03*
X398273Y-302343D02*
D03*
X439376Y-283327D02*
D03*
X430360D02*
D03*
X394297D02*
D03*
X385281D02*
D03*
D150*
X491508Y-23720D02*
D03*
X495524Y-30728D02*
D03*
X223681Y-23720D02*
D03*
X227697Y-30728D02*
D03*
X307776D02*
D03*
X303760Y-23720D02*
D03*
X413508D02*
D03*
X417524Y-30728D02*
D03*
X220807Y-302343D02*
D03*
X224823Y-309350D02*
D03*
X306083D02*
D03*
X302067Y-302343D02*
D03*
X490243Y-309350D02*
D03*
X486227Y-302343D02*
D03*
X410321Y-309350D02*
D03*
X406305Y-302343D02*
D03*
D151*
X521508Y-27224D02*
D03*
X457492D02*
D03*
X253681D02*
D03*
X189665D02*
D03*
X269744D02*
D03*
X333760D02*
D03*
X443508D02*
D03*
X379492D02*
D03*
X258839Y-305847D02*
D03*
X194823D02*
D03*
X276083D02*
D03*
X340098D02*
D03*
X460243D02*
D03*
X524258D02*
D03*
X380321D02*
D03*
X444336D02*
D03*
D152*
X514500Y-13721D02*
D03*
X464500D02*
D03*
X246673D02*
D03*
X196673D02*
D03*
X276752D02*
D03*
X326752D02*
D03*
X436500D02*
D03*
X386500D02*
D03*
X251831Y-319350D02*
D03*
X201831D02*
D03*
X283091D02*
D03*
X333091D02*
D03*
X467250D02*
D03*
X517250D02*
D03*
X387328D02*
D03*
X437328D02*
D03*
D153*
X144500Y-11933D02*
D03*
Y-21933D02*
D03*
X134500Y-11933D02*
D03*
Y-21933D02*
D03*
X124500Y-11933D02*
D03*
Y-21933D02*
D03*
X114500Y-11933D02*
D03*
Y-21933D02*
D03*
X104500Y-11933D02*
D03*
Y-21933D02*
D03*
X18799Y-136291D02*
D03*
Y-153614D02*
D03*
D154*
X452500Y-167933D02*
D03*
D155*
X533169D02*
D03*
D156*
X14500Y-208433D02*
D03*
Y-198433D02*
D03*
X32000Y-208433D02*
D03*
D157*
X601500Y-208539D02*
D03*
X593626Y-58933D02*
D03*
D158*
Y-208539D02*
D03*
X601500Y-200665D02*
D03*
X593626D02*
D03*
X601500Y-192791D02*
D03*
X593626D02*
D03*
X601500Y-184917D02*
D03*
X593626D02*
D03*
X601500Y-177043D02*
D03*
X593626D02*
D03*
X601500Y-169169D02*
D03*
X593626D02*
D03*
X601500Y-161295D02*
D03*
X593626D02*
D03*
X601500Y-153421D02*
D03*
X593626D02*
D03*
X601500Y-145547D02*
D03*
X593626D02*
D03*
X601500Y-137673D02*
D03*
X593626D02*
D03*
X601500Y-129799D02*
D03*
X593626D02*
D03*
X601500Y-121925D02*
D03*
X593626D02*
D03*
X601500Y-114051D02*
D03*
X593626D02*
D03*
X601500Y-106177D02*
D03*
X593626D02*
D03*
X601500Y-98303D02*
D03*
X593626D02*
D03*
X601500Y-90429D02*
D03*
X593626D02*
D03*
X601500Y-82555D02*
D03*
X593626D02*
D03*
X601500Y-74681D02*
D03*
X593626D02*
D03*
X601500Y-66807D02*
D03*
X593626D02*
D03*
X601500Y-58933D02*
D03*
D159*
X32000Y-198433D02*
D03*
D160*
X651575Y-319685D02*
D03*
Y-13780D02*
D03*
X13716Y-13669D02*
D03*
X13780Y-319685D02*
D03*
D161*
X36000Y-287933D02*
D03*
D162*
X24189Y-269429D02*
D03*
D163*
X47811D02*
D03*
D164*
X393717Y-192378D02*
D03*
X397654D02*
D03*
D165*
X602000Y-292433D02*
D03*
X324821Y-184512D02*
D03*
X409000Y-240433D02*
D03*
X374773Y-242663D02*
D03*
X274455Y-188248D02*
D03*
X21000Y-290433D02*
D03*
X305134Y-203631D02*
D03*
X47000Y-149433D02*
D03*
X174000Y-42433D02*
D03*
X169000D02*
D03*
X18723Y-233808D02*
D03*
X22000Y-237433D02*
D03*
Y-230433D02*
D03*
X47471Y-127063D02*
D03*
X634000Y-208433D02*
D03*
X415618Y-160062D02*
D03*
X639905Y-280366D02*
D03*
X348237Y-80512D02*
D03*
X326000Y-81433D02*
D03*
X334000Y-183433D02*
D03*
X301258Y-186382D02*
D03*
X303760Y-178241D02*
D03*
X336000Y-198433D02*
D03*
X418000Y-244433D02*
D03*
X386464Y-82328D02*
D03*
X331000Y-244433D02*
D03*
X334000Y-85347D02*
D03*
X408237Y-80512D02*
D03*
X394000Y-85347D02*
D03*
X397000Y-250433D02*
D03*
X353237Y-242599D02*
D03*
X339000Y-247433D02*
D03*
X138363Y-57872D02*
D03*
X146000Y-101933D02*
D03*
X69500Y-68433D02*
D03*
X61156Y-77556D02*
D03*
X48669Y-49010D02*
D03*
X248000Y-202933D02*
D03*
X248500Y-196433D02*
D03*
X275500Y-143433D02*
D03*
X252500D02*
D03*
X405744Y-197392D02*
D03*
X385613Y-197284D02*
D03*
X639000Y-50433D02*
D03*
X644000D02*
D03*
X634000Y-51433D02*
D03*
X443650Y-258958D02*
D03*
X467650Y-239958D02*
D03*
X449650Y-240958D02*
D03*
X253650Y-258958D02*
D03*
X277650Y-239958D02*
D03*
X259650Y-240958D02*
D03*
X469484Y-71908D02*
D03*
X445484Y-90908D02*
D03*
X463484Y-89908D02*
D03*
X268484D02*
D03*
X250484Y-90908D02*
D03*
X274484Y-71908D02*
D03*
X94357Y-237600D02*
D03*
X98527Y-228930D02*
D03*
X98677Y-237600D02*
D03*
X112827Y-231290D02*
D03*
X115507Y-225010D02*
D03*
X82857Y-228620D02*
D03*
X102521Y-207873D02*
D03*
X106942Y-214318D02*
D03*
X33000Y-156433D02*
D03*
X28500D02*
D03*
X27500Y-166933D02*
D03*
X35500Y-163933D02*
D03*
X33500Y-166933D02*
D03*
X37375Y-156719D02*
D03*
X36036Y-151234D02*
D03*
X56000Y-163933D02*
D03*
X56029Y-157481D02*
D03*
X99132Y-157004D02*
D03*
X96608Y-148718D02*
D03*
X103079Y-123449D02*
D03*
X73079Y-133949D02*
D03*
X80079Y-129949D02*
D03*
Y-124949D02*
D03*
X94579Y-135949D02*
D03*
X419000Y-193433D02*
D03*
X413287Y-187449D02*
D03*
X408957Y-179969D02*
D03*
X390453Y-153197D02*
D03*
X286355Y-202024D02*
D03*
X280855Y-207524D02*
D03*
X224500Y-132433D02*
D03*
X224000Y-201933D02*
D03*
X326066Y-157343D02*
D03*
X300589Y-176085D02*
D03*
X305594Y-161279D02*
D03*
X290633Y-142776D02*
D03*
X296932D02*
D03*
X337484Y-142382D02*
D03*
X342995D02*
D03*
X309050Y-155392D02*
D03*
X283200Y-143433D02*
D03*
X345066Y-158746D02*
D03*
X302700Y-155433D02*
D03*
X66500Y-216933D02*
D03*
X61500D02*
D03*
X45000Y-214433D02*
D03*
X159500Y-236933D02*
D03*
X151000Y-233433D02*
D03*
X117500Y-265933D02*
D03*
Y-272433D02*
D03*
X113268Y-250410D02*
D03*
X101768Y-254909D02*
D03*
X113268Y-259910D02*
D03*
X101768Y-265409D02*
D03*
X558119Y-237240D02*
D03*
X622000Y-228933D02*
D03*
X623000Y-277433D02*
D03*
X631000Y-286433D02*
D03*
X573882Y-260620D02*
D03*
X579394D02*
D03*
X589236D02*
D03*
X583724D02*
D03*
X599079D02*
D03*
X593567D02*
D03*
X599079Y-270463D02*
D03*
X593567D02*
D03*
X589236D02*
D03*
X583724D02*
D03*
X579394D02*
D03*
X573882D02*
D03*
X579394Y-280305D02*
D03*
X573882D02*
D03*
X589236D02*
D03*
X583724D02*
D03*
X599079D02*
D03*
X593567D02*
D03*
X541760Y-300073D02*
D03*
X634520Y-280400D02*
D03*
X604984Y-224400D02*
D03*
D166*
X372000Y-255933D02*
D03*
X357000Y-254880D02*
D03*
X360747Y-257180D02*
D03*
X359000Y-252433D02*
D03*
X415097Y-87768D02*
D03*
X417875Y-92461D02*
D03*
X471067Y-254934D02*
D03*
X393000Y-254433D02*
D03*
X395000Y-266433D02*
D03*
X410000Y-264433D02*
D03*
X408000Y-250433D02*
D03*
X394797Y-238615D02*
D03*
X408997Y-245361D02*
D03*
X418708Y-271009D02*
D03*
X385672Y-240105D02*
D03*
X53000Y-43433D02*
D03*
X29500Y-40433D02*
D03*
X44000Y-44433D02*
D03*
X298855Y-202524D02*
D03*
X217645Y-51715D02*
D03*
X173000Y-48433D02*
D03*
X177000D02*
D03*
X132990Y-32002D02*
D03*
X231350Y-280933D02*
D03*
X231395Y-286813D02*
D03*
X308306Y-286753D02*
D03*
X311722Y-280933D02*
D03*
X412691Y-286907D02*
D03*
X460000Y-274433D02*
D03*
X492032Y-286618D02*
D03*
X221511Y-45500D02*
D03*
X300000Y-53433D02*
D03*
X301640Y-45421D02*
D03*
X443919Y-59014D02*
D03*
X489285Y-45657D02*
D03*
X489000Y-51433D02*
D03*
X411572Y-51937D02*
D03*
X411431Y-46104D02*
D03*
X195000Y-274433D02*
D03*
X275579Y-274290D02*
D03*
X380321Y-274604D02*
D03*
X522199Y-58710D02*
D03*
X254678Y-59010D02*
D03*
X334426Y-58952D02*
D03*
X376599Y-144950D02*
D03*
X373734Y-152610D02*
D03*
X379000Y-155433D02*
D03*
X386126Y-140840D02*
D03*
X379943Y-96490D02*
D03*
X383000Y-99433D02*
D03*
X379965Y-71512D02*
D03*
X348942Y-156542D02*
D03*
X357329Y-177232D02*
D03*
X150500Y-289433D02*
D03*
X157750D02*
D03*
X287000Y-157433D02*
D03*
X280646Y-158490D02*
D03*
X281700Y-150339D02*
D03*
X638640Y-295827D02*
D03*
X493446Y-279038D02*
D03*
X414491Y-279038D02*
D03*
X41621Y-125522D02*
D03*
X85000Y-122528D02*
D03*
X109021Y-121954D02*
D03*
X337981Y-81160D02*
D03*
X302000Y-64433D02*
D03*
X325000Y-65433D02*
D03*
X325948Y-77341D02*
D03*
X311000Y-65433D02*
D03*
X317000D02*
D03*
X283000Y-215433D02*
D03*
X385000Y-93433D02*
D03*
X290000Y-241433D02*
D03*
X351000Y-195433D02*
D03*
X308000Y-238433D02*
D03*
X310500Y-234433D02*
D03*
X282000Y-230433D02*
D03*
X291000Y-221433D02*
D03*
X301330Y-189956D02*
D03*
X294000Y-190433D02*
D03*
X289579Y-190754D02*
D03*
X293000Y-225433D02*
D03*
X285000Y-226433D02*
D03*
X319000Y-189433D02*
D03*
X335000Y-179433D02*
D03*
X327000D02*
D03*
X324547Y-175870D02*
D03*
X320313Y-175297D02*
D03*
X316000Y-175433D02*
D03*
X330789Y-189102D02*
D03*
X324098Y-190020D02*
D03*
X511000Y-113433D02*
D03*
X516000Y-107433D02*
D03*
X181000Y-118433D02*
D03*
X174000D02*
D03*
X157498Y-158433D02*
D03*
X161000Y-162433D02*
D03*
X173000Y-159433D02*
D03*
X184000Y-166433D02*
D03*
X195891Y-164433D02*
D03*
X204527Y-190896D02*
D03*
X368216Y-89811D02*
D03*
X369134Y-86110D02*
D03*
X371134Y-82110D02*
D03*
X374134Y-80110D02*
D03*
X385357Y-77147D02*
D03*
X367000Y-201433D02*
D03*
X371000Y-204433D02*
D03*
X512000Y-210433D02*
D03*
X510000Y-206433D02*
D03*
X279000Y-258433D02*
D03*
X282000Y-256433D02*
D03*
X284000Y-252433D02*
D03*
X284918Y-248733D02*
D03*
X314134Y-248197D02*
D03*
X313216Y-251897D02*
D03*
X359918Y-248733D02*
D03*
X444134Y-72433D02*
D03*
X441134Y-74433D02*
D03*
X439134Y-78433D02*
D03*
X438216Y-82133D02*
D03*
X249134Y-72433D02*
D03*
X246134Y-74433D02*
D03*
X244134Y-78433D02*
D03*
X243216Y-82133D02*
D03*
X409000Y-96346D02*
D03*
X412000Y-94346D02*
D03*
X474918Y-248733D02*
D03*
X474000Y-252433D02*
D03*
X469000Y-258433D02*
D03*
X330000Y-75346D02*
D03*
X390000D02*
D03*
X397981Y-81160D02*
D03*
X390000Y-237433D02*
D03*
X335000D02*
D03*
X342390Y-243549D02*
D03*
X330672Y-240105D02*
D03*
X335423Y-133435D02*
D03*
X26500Y-49933D02*
D03*
X355500Y-180433D02*
D03*
X355000Y-184433D02*
D03*
X352000Y-186933D02*
D03*
X131000Y-60433D02*
D03*
X72473Y-77277D02*
D03*
X22000Y-44433D02*
D03*
X300500Y-161433D02*
D03*
X269500Y-183933D02*
D03*
X537000Y-259933D02*
D03*
X261387Y-178081D02*
D03*
X520023Y-185009D02*
D03*
X515500Y-187933D02*
D03*
X534500Y-289933D02*
D03*
Y-284933D02*
D03*
Y-279933D02*
D03*
X586500Y-199373D02*
D03*
X566999Y-162625D02*
D03*
X577500Y-173933D02*
D03*
X400500Y-160433D02*
D03*
X581500Y-177933D02*
D03*
X584314Y-218714D02*
D03*
X587000Y-214433D02*
D03*
X584510Y-210427D02*
D03*
X582000Y-206433D02*
D03*
X581000Y-201433D02*
D03*
X562000Y-165433D02*
D03*
X570592Y-157892D02*
D03*
X575000Y-152433D02*
D03*
X634500Y-203433D02*
D03*
X636000Y-58933D02*
D03*
X643500D02*
D03*
X457650Y-236958D02*
D03*
X445150Y-250458D02*
D03*
Y-240958D02*
D03*
X267650Y-236958D02*
D03*
X255150Y-250458D02*
D03*
Y-240958D02*
D03*
X455484Y-93908D02*
D03*
X467984Y-80408D02*
D03*
Y-89908D02*
D03*
X272984D02*
D03*
Y-80408D02*
D03*
X260484Y-93908D02*
D03*
X114307Y-218900D02*
D03*
X82677Y-217560D02*
D03*
X109847Y-237460D02*
D03*
X105677Y-230690D02*
D03*
X105627Y-237460D02*
D03*
X109780Y-221856D02*
D03*
X82887Y-222920D02*
D03*
X125387Y-234998D02*
D03*
X131360D02*
D03*
X125387Y-228010D02*
D03*
X131360D02*
D03*
X125387Y-207045D02*
D03*
X131360D02*
D03*
X125387Y-214033D02*
D03*
Y-221022D02*
D03*
X131360Y-214033D02*
D03*
Y-221022D02*
D03*
X137333Y-234998D02*
D03*
Y-207045D02*
D03*
Y-228010D02*
D03*
Y-214033D02*
D03*
Y-221022D02*
D03*
X82887Y-211920D02*
D03*
X93337Y-211780D02*
D03*
X85769Y-210017D02*
D03*
X80500Y-167933D02*
D03*
Y-173433D02*
D03*
X75500D02*
D03*
X70500D02*
D03*
Y-167933D02*
D03*
Y-162933D02*
D03*
Y-157433D02*
D03*
X75500D02*
D03*
X80500D02*
D03*
Y-162933D02*
D03*
X51126Y-166443D02*
D03*
X45000Y-166433D02*
D03*
Y-154933D02*
D03*
X40257Y-144768D02*
D03*
X40321Y-141456D02*
D03*
X100000Y-136933D02*
D03*
X94164Y-157359D02*
D03*
X101079Y-148449D02*
D03*
X93079Y-149449D02*
D03*
X98079Y-184449D02*
D03*
X104079D02*
D03*
X87079D02*
D03*
X92934Y-184562D02*
D03*
X104942Y-136822D02*
D03*
X100550Y-131117D02*
D03*
X97079Y-124449D02*
D03*
X99079Y-172449D02*
D03*
X90011Y-125306D02*
D03*
X109079Y-133449D02*
D03*
X65931Y-138190D02*
D03*
X67579Y-145949D02*
D03*
X81079D02*
D03*
Y-138949D02*
D03*
X66079Y-131949D02*
D03*
X81000Y-110933D02*
D03*
X415650Y-181543D02*
D03*
Y-170913D02*
D03*
X393996Y-145323D02*
D03*
X399012Y-145596D02*
D03*
X403978Y-145685D02*
D03*
X409256Y-145953D02*
D03*
X410067Y-158429D02*
D03*
X404567Y-158247D02*
D03*
X293855Y-207024D02*
D03*
X331972Y-157343D02*
D03*
X299580Y-180895D02*
D03*
X300082Y-147894D02*
D03*
X309137Y-144744D02*
D03*
X296471Y-150527D02*
D03*
X290633Y-150650D02*
D03*
X279609Y-186476D02*
D03*
X337877Y-150650D02*
D03*
X342602D02*
D03*
X288271Y-169547D02*
D03*
X327046Y-136879D02*
D03*
X333744Y-144179D02*
D03*
X331568Y-134088D02*
D03*
X319700Y-132933D02*
D03*
X316303Y-135720D02*
D03*
X51500Y-215433D02*
D03*
X78500Y-241433D02*
D03*
Y-247933D02*
D03*
Y-253933D02*
D03*
X70000D02*
D03*
X62500D02*
D03*
X56500Y-236933D02*
D03*
X27500Y-241433D02*
D03*
X48000Y-232933D02*
D03*
X40000Y-241433D02*
D03*
Y-232933D02*
D03*
X54500Y-256933D02*
D03*
X40000D02*
D03*
X54500Y-249433D02*
D03*
X40000D02*
D03*
X27500D02*
D03*
X16000Y-299433D02*
D03*
X157750Y-256233D02*
D03*
Y-272833D02*
D03*
Y-281133D02*
D03*
Y-247933D02*
D03*
Y-264533D02*
D03*
X150500Y-247933D02*
D03*
Y-281133D02*
D03*
Y-272833D02*
D03*
Y-264533D02*
D03*
Y-256233D02*
D03*
X165000Y-281133D02*
D03*
Y-272833D02*
D03*
Y-264533D02*
D03*
Y-256233D02*
D03*
Y-247933D02*
D03*
Y-289433D02*
D03*
X113000Y-272433D02*
D03*
X101500Y-277933D02*
D03*
X113000Y-282933D02*
D03*
X101500Y-287433D02*
D03*
X637000Y-125433D02*
D03*
X638848Y-133782D02*
D03*
X541860Y-257292D02*
D03*
X534000Y-254933D02*
D03*
X548164Y-230323D02*
D03*
X540516Y-235047D02*
D03*
X568692Y-237353D02*
D03*
X625500Y-281433D02*
D03*
X624000Y-289933D02*
D03*
X631239Y-294788D02*
D03*
X621817Y-294928D02*
D03*
X610102Y-294872D02*
D03*
X622928Y-234811D02*
D03*
X566008Y-224006D02*
D03*
X560085Y-223683D02*
D03*
M02*
