M48
;Layer_Color=9474304
;FILE_FORMAT=2:5
INCH
;TYPE=PLATED
T1F00S00C0.01200
T2F00S00C0.01811
T3F00S00C0.03000
T4F00S00C0.03346
T5F00S00C0.03543
T6F00S00C0.03701
T7F00S00C0.05984
T8F00S00C0.06299
T9F00S00C0.12441
T10F00S00C0.12598
T11F00S00C0.14331
;TYPE=NON_PLATED
T12F00S00C0.03543
T13F00S00C0.14000
%
T01
X0523795Y0658402
X0528795Y0667402
X0535295Y0708402
Y0716402
X0529795Y0720402
X0526518Y0724027
X0529795Y0727402
X0547795Y0724902
X0555795
X0564295Y0720902
X0562295Y0708402
Y0700902
X0570295Y0703902
X0577795
X0586295
Y0709902
Y0716402
X0590653Y0729215
X0590683Y0734915
X0590473Y0740275
X0590683Y0745915
X0593565Y0747818
X0601133Y0746055
X0610316Y0749962
X0614737Y0743517
X0617575Y0735978
X0622103Y0738935
X0623303Y0732825
X0620623Y0726545
X0613473Y0727145
X0613423Y0720375
X0617643
X0606473Y0720235
X0602153
X0606323Y0728905
X0609563Y0702925
Y0692425
X0609295Y0679902
Y0670402
X0620795Y0674902
Y0685402
X0621063Y0697925
Y0707425
X0547795Y0708402
Y0700902
Y0716402
X0552795Y0743402
X0559295Y0742402
X0569295Y0740902
X0574295
X0594874Y0773386
X0600729Y0773273
X0605874Y0773386
X0611874
X0633183Y0750789
X0639156
X0645129
Y0743801
X0639156
X0633183
Y0736813
X0639156
X0645129
Y0729825
X0639156
X0633183
Y0722837
X0639156
X0645129
X0658795Y0724402
X0667295Y0720902
X0665545Y0709902
X0658295
Y0701602
X0665545
X0672795
Y0693302
X0665545
X0658295
Y0685002
X0665545
X0672795
Y0676702
X0665545
X0658295
Y0668402
X0665545
X0672795
Y0709902
X0702795Y0683402
X0739145Y0676901
X0739190Y0671021
X0761445Y0698876
X0762945Y0707376
Y0716876
X0767445
X0775445Y0720876
X0755795Y0754902
X0756295Y0761402
X0731795Y0755902
X0712323Y0766938
X0769183Y0779753
X0777295Y0773902
X0625295Y0691902
Y0685402
X0783374Y0683544
X0786795Y0699402
X0789795Y0701402
X0791795Y0705402
X0792713Y0709102
X0797795Y0716402
X0785445Y0717876
X0789795Y0727402
X0792795Y0731402
X0800795Y0732402
X0798795Y0736402
X0790795Y0742402
X0788650Y0750311
X0794150Y0755811
X0801650Y0750811
X0806650Y0755311
X0812929Y0754204
X0809126Y0767878
X0809053Y0771453
X0807375Y0776939
X0811556Y0779594
X0801795Y0767402
X0797374Y0767081
X0787405Y0771358
X0782250Y0769586
X0826795Y0768402
X0831893Y0767815
X0832616Y0773323
X0834795Y0778402
X0842795
X0841795Y0774402
X0838584Y0768733
X0843795Y0759402
X0858795Y0762402
X0859795Y0770902
X0862795Y0773402
X0863295Y0777402
X0865124Y0780603
X0874795Y0756402
X0878795Y0753402
X0893409Y0760550
X0913540Y0760443
X0926795Y0764402
X0921083Y0770386
X0923445Y0776291
X0916752Y0777866
X0916795Y0717402
X0916792Y0712474
X0915795Y0707402
X0904795
X0900795Y0703402
X0902795Y0691402
X0917795Y0693402
X0926503Y0686825
X0922287Y0678797
X0920486Y0670928
X0888116Y0683231
X0879795Y0701902
X0868543Y0700654
X0864795Y0702954
X0866795Y0705402
X0867713Y0709102
X0861032Y0715236
X0850185Y0714286
X0846795Y0710402
X0838795Y0713402
X0838467Y0717730
X0842795Y0720402
X0818295Y0723402
X0815795Y0719402
X0821929Y0709638
X0821011Y0705937
X0819517Y0676902
X0816101Y0671082
X0882568Y0715171
X0893467Y0717730
X0897795Y0720402
X0902592Y0719219
X0925795Y0713402
X0952945Y0716876
X0957445
X0965445Y0720876
X0975445Y0717876
X0982713Y0709102
X0981795Y0705402
X0978862Y0702901
X0976795Y0699402
X0967795Y0683402
X0951445Y0698876
X0952945Y0707376
X1001241Y0678796
X0999827Y0671217
X1042295Y0672902
Y0667902
Y0677902
X1044795Y0697902
X1049655Y0700542
X1041795Y0702902
X1048311Y0722788
X1055960Y0727512
X1065914Y0720594
X1076487Y0720482
X1073803Y0733829
X1067880Y0734152
X1092109Y0739121
X1092305Y0747407
X1089795Y0751402
X1088795Y0756402
X1089295Y0779902
X1027818Y0772826
X1023295Y0769902
X1017795Y0751402
X1019795Y0747402
X1081677Y0697215
X1087189
X1091520
Y0687372
X1087189
X1081677
Y0677529
X1087189
X1091520
X1049556Y0657762
X1097031Y0677529
X1101362
X1106874
Y0687372
X1101362
X1097031
Y0697215
X1101362
X1106874
X1109795Y0665402
X1117898Y0662963
X1129612Y0662907
X1131795Y0667902
X1133295Y0676402
X1130795Y0680402
X1142315Y0677435
X1147701Y0677469
X1138795Y0671402
X1139034Y0663047
X1146436Y0662008
X1130723Y0723024
X1129795Y0728902
X1112780Y0733435
X1094795Y0743402
X1094295Y0758461
X1142295Y0754402
X1141795Y0749402
X1146644Y0824053
X1144795Y0832402
X1143795Y0898902
X1151295
X1151795Y0907402
X1146795
X1141795Y0906402
X1029994Y0899124
X0996795Y0906402
X0997080Y0912178
X0977280Y0885927
X0975780Y0877427
Y0867927
X0971280
X0963280Y0863927
X0953280Y0866927
X0946011Y0875701
X0946929Y0879402
X0948929Y0883402
X0951929Y0885402
X0951715Y0898820
X1023795Y0850402
X1018795Y0844402
X1069795Y0792402
X1074794Y0795210
X1078388Y0799943
X1082795Y0805402
X1085295Y0783902
X0923445Y0786921
X0923413Y0797772
X0917862Y0799406
X0912363Y0799588
X0908295Y0797402
X0906808Y0812239
X0911773Y0812150
X0917051Y0811881
X0901791Y0812512
X0898248Y0804638
X0886795Y0802402
X0881529Y0805225
X0884394Y0812884
X0893921Y0816994
X0890795Y0858402
X0887738Y0861345
X0892795Y0864402
X0894260Y0875507
X0893152Y0880688
X0897795Y0882488
X0905776Y0876675
X0901795Y0872488
X0916032Y0877323
X0922892Y0870066
X0925671Y0865373
X0919795Y0863488
X0916795Y0861488
X0919368Y0905898
X0919227Y0911731
X0887760Y0886323
X0881929Y0877724
X0878929Y0875724
X0876929Y0871724
X0876011Y0868024
X0856032Y0877323
X0845776Y0876675
X0841795Y0872488
X0833795Y0876402
X0833744Y0880493
X0837795Y0882488
X0832795Y0892402
X0824795
X0818795
X0809795Y0893402
X0807795Y0904402
X0809436Y0912414
X0842221Y0898882
X0782280Y0885927
X0783295Y0814402
X0790995
X0798428Y0815059
X0804728
X0804266Y0807307
X0798428Y0807185
X0789496Y0807495
X0788441Y0799345
X0794795Y0800402
X0796066Y0788287
X0808384Y0781749
X0808295Y0796402
X0813389Y0796555
X0810495Y0802402
X0816846Y0802443
X0816932Y0813091
X0807877Y0809941
X0824098Y0822115
X0827495Y0824902
X0834841Y0820955
X0839364Y0823747
X0843219Y0824400
X0845279Y0815453
X0850791
X0850397Y0807185
X0845673
X0841539Y0813656
X0839767Y0800492
X0833861
X0832342Y0781964
X0828109Y0782538
X0823795Y0782402
X0852861Y0799088
X0856737Y0801293
X0760295Y0814402
X0732295Y0825402
X0688795Y0839402
X0681795
X0680795Y0798402
X0668795Y0795402
X0665294Y0799402
X0691795Y0791402
X0703686Y0793402
X0653795Y0855902
X0646158Y0899963
X0638795Y0897402
X0640785Y0925832
X0676795Y0915402
X0681795
X0680795Y0909402
X0684795
X0725441Y0906119
X0729306Y0912335
X0762473Y0898825
X0756929Y0885402
X0753929Y0883402
X0751929Y0879402
X0751011Y0875701
X0758280Y0866927
X0768280Y0863927
X0776280Y0867927
X0780780
Y0877427
X0580269Y0880557
X0568951Y0880278
X0577295Y0889402
X0556464Y0908825
X0551795Y0913402
X0560795Y0914402
X0537295Y0917402
X0529795Y0913402
X0534295Y0907902
X0549417Y0832312
X0555266Y0830772
X0548116Y0816379
X0548053Y0813067
X0543831Y0806601
X0545170Y0801115
X0540795Y0801402
X0536295
X0535295Y0790902
X0541295
X0543295Y0793902
X0552795Y0791402
X0558921Y0791391
X0563795Y0793902
X0563824Y0800354
X0552795Y0802902
X0554795Y0808402
X0575374Y0811886
X0573726Y0819644
X0573874Y0825886
X0580874Y0823886
X0587874Y0827886
Y0832886
X0592795Y0835307
X0597806Y0832528
X0604874Y0833386
X0610874Y0834386
X0616816Y0835881
X0616874Y0824386
X0612737Y0821012
X0607795Y0820902
X0608345Y0826718
X0602374Y0821886
X0604403Y0809116
X0600874Y0808386
X0601959Y0800476
X0606927Y0800831
X0608874Y0809386
X0588874Y0811886
Y0818886
X0588295Y0800402
X0583295
X0578295
Y0794902
Y0789902
Y0784402
X0583295
X0588295
Y0789902
Y0794902
X0606874Y0785386
X0588795Y0846902
T02
X0901512Y0765457
X0905449
T03
X0522295Y0749402
Y0759402
X0539795
Y0749402
T04
X1101421Y0749295
X1109295
Y0757169
Y0765043
X1101421
Y0757169
Y0772917
Y0780791
X1109295
Y0772917
Y0788665
X1101421
Y0796539
Y0804413
X1109295
Y0796539
Y0812287
Y0820161
X1101421
Y0812287
Y0828035
Y0835909
X1109295
Y0828035
Y0843783
X1101421
Y0851657
Y0859531
X1109295
Y0851657
Y0867406
Y0875280
X1101421
Y0867406
Y0883154
Y0891028
X1109295
Y0883154
Y0898902
X1101421
T05
X0632295Y0935902
X0642295
X0652295
X0622295
X0612295
Y0945902
X0622295
X0632295
X0642295
X0652295
T06
X0724587Y0648484
X0732618
X0740650
X0748681
X0744665Y0655492
X0736634
X0728602
X0720571
X0716595Y0674508
X0707579
X0752658
X0761673
X0788839
X0797854
X0801831Y0655492
X0809862
X0817894
X0825925
X0829941Y0648484
X0821910
X0813878
X0805847
X0833917Y0674508
X0842933
X0893076
X0902092
X0906069Y0655492
X0914100
X0922132
X0930163
X0934179Y0648484
X0926147
X0918116
X0910084
X0938155Y0674508
X0947171
X0972999
X0982014
X0985991Y0655492
X0994022
X1002054
X1010085
X1014101Y0648484
X1006069
X0998038
X0990006
X1018077Y0674508
X1027093
X1024343Y0908090
X1015327
X1011350Y0927106
X1003319
X0995287
X0987256
X0983240Y0934114
X0991272
X0999303
X1007335
X0979264Y0908090
X0970248
X0946342
X0937327
X0933350Y0927106
X0925319
X0917287
X0909256
X0905240Y0934114
X0913272
X0921303
X0929335
X0901264Y0908090
X0892248
X0836594
X0827579
X0823602Y0927106
X0815571
X0807539
X0799508
X0795492Y0934114
X0803524
X0811555
X0819587
X0791516Y0908090
X0782500
X0756516
X0747500
X0743524Y0927106
X0735492
X0727461
X0719429
X0715413Y0934114
X0723445
X0731476
X0739508
X0711437Y0908090
X0702421
T07
X0960295Y0789902
X1040965
T08
X0702618Y0651988
X0766634
X0783878
X0847894
X0888116
X0952131
X0968038
X1032054
X1029303Y0930610
X0965287
X0951303
X0887287
X0841555
X0777539
X0761476
X0697461
T09
X0543795Y0669902
X0531984Y0688406
T10
X0521575Y0638150
X1159370
X0521512Y0944165
X1159370Y0944055
T11
X0555606Y0688406
T12
X0526594Y0804220
Y0821543
T13
X0709626Y0638484
X0759626
X0790886
X0840886
X0895124
X0945124
X0975046
X1025046
X0754468Y0944114
X0704468
X0784547
X0834547
X0894295
X0944295
X0972295
X1022295
M30
