G04*
G04 #@! TF.GenerationSoftware,Altium Limited,Altium Designer,18.1.7 (191)*
G04*
G04 Layer_Color=32896*
%FSLAX25Y25*%
%MOIN*%
G70*
G01*
G75*
%ADD10C,0.00787*%
%ADD13C,0.01000*%
%ADD15C,0.00800*%
%ADD16C,0.00500*%
%ADD17C,0.05000*%
D10*
X281971Y-175158D02*
X281972Y-175157D01*
X267601Y-181260D02*
X278232D01*
X267601Y-175157D02*
X278232D01*
D13*
X411031Y-172488D02*
G03*
X411031Y-172488I-500J0D01*
G01*
X82012Y-145051D02*
G03*
X82012Y-145051I-500J0D01*
G01*
X113307Y-202159D02*
X130807D01*
X113307Y-219159D02*
X130807D01*
X15205Y-293906D02*
Y-291151D01*
X13827D01*
X13368Y-291610D01*
Y-292529D01*
X13827Y-292988D01*
X15205D01*
X14286D02*
X13368Y-293906D01*
X12450Y-291610D02*
X11991Y-291151D01*
X11072D01*
X10613Y-291610D01*
Y-292070D01*
X11072Y-292529D01*
X11531D01*
X11072D01*
X10613Y-292988D01*
Y-293447D01*
X11072Y-293906D01*
X11991D01*
X12450Y-293447D01*
X9695D02*
X9235Y-293906D01*
X8317D01*
X7858Y-293447D01*
Y-291610D01*
X8317Y-291151D01*
X9235D01*
X9695Y-291610D01*
Y-292070D01*
X9235Y-292529D01*
X7858D01*
X30705Y-38635D02*
Y-35880D01*
X29327D01*
X28868Y-36339D01*
Y-37257D01*
X29327Y-37716D01*
X30705D01*
X29786D02*
X28868Y-38635D01*
X27950Y-36339D02*
X27490Y-35880D01*
X26572D01*
X26113Y-36339D01*
Y-36798D01*
X26572Y-37257D01*
X27031D01*
X26572D01*
X26113Y-37716D01*
Y-38175D01*
X26572Y-38635D01*
X27490D01*
X27950Y-38175D01*
X25195Y-35880D02*
X23358D01*
Y-36339D01*
X25195Y-38175D01*
Y-38635D01*
X124268Y-264339D02*
X124727Y-263880D01*
X125646D01*
X126105Y-264339D01*
Y-266176D01*
X125646Y-266635D01*
X124727D01*
X124268Y-266176D01*
X121513Y-263880D02*
X123350D01*
Y-265257D01*
X122431Y-264798D01*
X121972D01*
X121513Y-265257D01*
Y-266176D01*
X121972Y-266635D01*
X122890D01*
X123350Y-266176D01*
X118758Y-263880D02*
X120595D01*
Y-265257D01*
X119676Y-264798D01*
X119217D01*
X118758Y-265257D01*
Y-266176D01*
X119217Y-266635D01*
X120135D01*
X120595Y-266176D01*
X124368Y-257839D02*
X124827Y-257380D01*
X125746D01*
X126205Y-257839D01*
Y-259676D01*
X125746Y-260135D01*
X124827D01*
X124368Y-259676D01*
X121613Y-257380D02*
X123450D01*
Y-258757D01*
X122531Y-258298D01*
X122072D01*
X121613Y-258757D01*
Y-259676D01*
X122072Y-260135D01*
X122991D01*
X123450Y-259676D01*
X119317Y-260135D02*
Y-257380D01*
X120695Y-258757D01*
X118858D01*
X25868Y-225339D02*
X26327Y-224880D01*
X27246D01*
X27705Y-225339D01*
Y-227175D01*
X27246Y-227635D01*
X26327D01*
X25868Y-227175D01*
X23572Y-227635D02*
Y-224880D01*
X24950Y-226257D01*
X23113D01*
X22195Y-225339D02*
X21735Y-224880D01*
X20817D01*
X20358Y-225339D01*
Y-225798D01*
X20817Y-226257D01*
X20358Y-226716D01*
Y-227175D01*
X20817Y-227635D01*
X21735D01*
X22195Y-227175D01*
Y-226716D01*
X21735Y-226257D01*
X22195Y-225798D01*
Y-225339D01*
X21735Y-226257D02*
X20817D01*
X553205Y-240035D02*
X555960D01*
Y-238657D01*
X555501Y-238198D01*
X554582D01*
X554123Y-238657D01*
Y-240035D01*
Y-239116D02*
X553205Y-238198D01*
Y-237280D02*
Y-236361D01*
Y-236820D01*
X555960D01*
X555501Y-237280D01*
X553205Y-233147D02*
Y-234984D01*
X555041Y-233147D01*
X555501D01*
X555960Y-233606D01*
Y-234525D01*
X555501Y-234984D01*
X642368Y-42339D02*
X642827Y-41880D01*
X643746D01*
X644205Y-42339D01*
Y-44175D01*
X643746Y-44635D01*
X642827D01*
X642368Y-44175D01*
X641450Y-42339D02*
X640990Y-41880D01*
X640072D01*
X639613Y-42339D01*
Y-42798D01*
X640072Y-43257D01*
X640531D01*
X640072D01*
X639613Y-43716D01*
Y-44175D01*
X640072Y-44635D01*
X640990D01*
X641450Y-44175D01*
X638695Y-41880D02*
X636858D01*
Y-42339D01*
X638695Y-44175D01*
Y-44635D01*
X630241Y-47230D02*
X629782Y-47690D01*
X628864D01*
X628405Y-47230D01*
Y-45394D01*
X628864Y-44935D01*
X629782D01*
X630241Y-45394D01*
X631160Y-47230D02*
X631619Y-47690D01*
X632537D01*
X632996Y-47230D01*
Y-46771D01*
X632537Y-46312D01*
X632078D01*
X632537D01*
X632996Y-45853D01*
Y-45394D01*
X632537Y-44935D01*
X631619D01*
X631160Y-45394D01*
X635751Y-47690D02*
X634833Y-47230D01*
X633915Y-46312D01*
Y-45394D01*
X634374Y-44935D01*
X635292D01*
X635751Y-45394D01*
Y-45853D01*
X635292Y-46312D01*
X633915D01*
X638705Y-122135D02*
Y-119380D01*
X637327D01*
X636868Y-119839D01*
Y-120757D01*
X637327Y-121216D01*
X638705D01*
X637786D02*
X636868Y-122135D01*
X634113D02*
X635950D01*
X634113Y-120298D01*
Y-119839D01*
X634572Y-119380D01*
X635491D01*
X635950Y-119839D01*
X633195Y-119380D02*
X631358D01*
Y-119839D01*
X633195Y-121676D01*
Y-122135D01*
X559705Y-219135D02*
Y-216380D01*
X558327D01*
X557868Y-216839D01*
Y-217757D01*
X558327Y-218216D01*
X559705D01*
X558786D02*
X557868Y-219135D01*
X555113D02*
X556950D01*
X555113Y-217298D01*
Y-216839D01*
X555572Y-216380D01*
X556491D01*
X556950Y-216839D01*
X552358Y-216380D02*
X553276Y-216839D01*
X554195Y-217757D01*
Y-218675D01*
X553735Y-219135D01*
X552817D01*
X552358Y-218675D01*
Y-218216D01*
X552817Y-217757D01*
X554195D01*
X626205Y-223635D02*
Y-220880D01*
X624827D01*
X624368Y-221339D01*
Y-222257D01*
X624827Y-222716D01*
X626205D01*
X625286D02*
X624368Y-223635D01*
X621613D02*
X623450D01*
X621613Y-221798D01*
Y-221339D01*
X622072Y-220880D01*
X622991D01*
X623450Y-221339D01*
X620695Y-223635D02*
X619776D01*
X620235D01*
Y-220880D01*
X620695Y-221339D01*
X570205Y-219135D02*
Y-216380D01*
X568827D01*
X568368Y-216839D01*
Y-217757D01*
X568827Y-218216D01*
X570205D01*
X569286D02*
X568368Y-219135D01*
X565613D02*
X567450D01*
X565613Y-217298D01*
Y-216839D01*
X566072Y-216380D01*
X566991D01*
X567450Y-216839D01*
X564695D02*
X564235Y-216380D01*
X563317D01*
X562858Y-216839D01*
Y-218675D01*
X563317Y-219135D01*
X564235D01*
X564695Y-218675D01*
Y-216839D01*
X627205Y-278135D02*
Y-275380D01*
X625827D01*
X625368Y-275839D01*
Y-276757D01*
X625827Y-277216D01*
X627205D01*
X626286D02*
X625368Y-278135D01*
X624450D02*
X623531D01*
X623990D01*
Y-275380D01*
X624450Y-275839D01*
X620776Y-278135D02*
Y-275380D01*
X622154Y-276757D01*
X620317D01*
X543205Y-249135D02*
Y-246380D01*
X541827D01*
X541368Y-246839D01*
Y-247757D01*
X541827Y-248216D01*
X543205D01*
X542286D02*
X541368Y-249135D01*
X540450D02*
X539531D01*
X539991D01*
Y-246380D01*
X540450Y-246839D01*
X538154D02*
X537695Y-246380D01*
X536776D01*
X536317Y-246839D01*
Y-247298D01*
X536776Y-247757D01*
X537235D01*
X536776D01*
X536317Y-248216D01*
Y-248675D01*
X536776Y-249135D01*
X537695D01*
X538154Y-248675D01*
X310905Y-142835D02*
Y-140080D01*
X309527D01*
X309068Y-140539D01*
Y-141457D01*
X309527Y-141916D01*
X310905D01*
X309986D02*
X309068Y-142835D01*
X308150Y-140539D02*
X307691Y-140080D01*
X306772D01*
X306313Y-140539D01*
Y-140998D01*
X306772Y-141457D01*
X306313Y-141916D01*
Y-142376D01*
X306772Y-142835D01*
X307691D01*
X308150Y-142376D01*
Y-141916D01*
X307691Y-141457D01*
X308150Y-140998D01*
Y-140539D01*
X307691Y-141457D02*
X306772D01*
X320905Y-178235D02*
Y-180990D01*
X322282D01*
X322741Y-180531D01*
Y-179612D01*
X322282Y-179153D01*
X320905D01*
X321823D02*
X322741Y-178235D01*
X323660Y-180990D02*
X325496D01*
Y-180531D01*
X323660Y-178694D01*
Y-178235D01*
X336532Y-234299D02*
Y-231544D01*
X335155D01*
X334696Y-232003D01*
Y-232922D01*
X335155Y-233381D01*
X336532D01*
X335614D02*
X334696Y-234299D01*
X331941Y-231544D02*
X332859Y-232003D01*
X333777Y-232922D01*
Y-233840D01*
X333318Y-234299D01*
X332400D01*
X331941Y-233840D01*
Y-233381D01*
X332400Y-232922D01*
X333777D01*
X390904Y-72053D02*
Y-69298D01*
X389527D01*
X389067Y-69757D01*
Y-70675D01*
X389527Y-71134D01*
X390904D01*
X389986D02*
X389067Y-72053D01*
X386312Y-69298D02*
X388149D01*
Y-70675D01*
X387231Y-70216D01*
X386771D01*
X386312Y-70675D01*
Y-71593D01*
X386771Y-72053D01*
X387690D01*
X388149Y-71593D01*
X331231Y-71350D02*
Y-68595D01*
X329854D01*
X329395Y-69054D01*
Y-69972D01*
X329854Y-70431D01*
X331231D01*
X330313D02*
X329395Y-71350D01*
X327099D02*
Y-68595D01*
X328477Y-69972D01*
X326640D01*
X406405Y-142235D02*
Y-139480D01*
X405027D01*
X404568Y-139939D01*
Y-140857D01*
X405027Y-141316D01*
X406405D01*
X405486D02*
X404568Y-142235D01*
X403650Y-139939D02*
X403191Y-139480D01*
X402272D01*
X401813Y-139939D01*
Y-140398D01*
X402272Y-140857D01*
X402731D01*
X402272D01*
X401813Y-141316D01*
Y-141776D01*
X402272Y-142235D01*
X403191D01*
X403650Y-141776D01*
X411905Y-142235D02*
Y-139480D01*
X410527D01*
X410068Y-139939D01*
Y-140857D01*
X410527Y-141316D01*
X411905D01*
X410986D02*
X410068Y-142235D01*
X407313D02*
X409150D01*
X407313Y-140398D01*
Y-139939D01*
X407772Y-139480D01*
X408691D01*
X409150Y-139939D01*
X400905Y-142235D02*
Y-139480D01*
X399527D01*
X399068Y-139939D01*
Y-140857D01*
X399527Y-141316D01*
X400905D01*
X399986D02*
X399068Y-142235D01*
X398150D02*
X397231D01*
X397691D01*
Y-139480D01*
X398150Y-139939D01*
X282005Y-165780D02*
Y-168535D01*
X280627D01*
X280168Y-168076D01*
Y-166239D01*
X280627Y-165780D01*
X282005D01*
X279250Y-168535D02*
X278331D01*
X278790D01*
Y-165780D01*
X279250Y-166239D01*
X635868Y-195339D02*
X636327Y-194880D01*
X637246D01*
X637705Y-195339D01*
Y-197176D01*
X637246Y-197635D01*
X636327D01*
X635868Y-197176D01*
X634950Y-195339D02*
X634490Y-194880D01*
X633572D01*
X633113Y-195339D01*
Y-195798D01*
X633572Y-196257D01*
X634031D01*
X633572D01*
X633113Y-196716D01*
Y-197176D01*
X633572Y-197635D01*
X634490D01*
X634950Y-197176D01*
X630358Y-197635D02*
X632195D01*
X630358Y-195798D01*
Y-195339D01*
X630817Y-194880D01*
X631736D01*
X632195Y-195339D01*
X619702Y-276121D02*
X620161Y-275662D01*
X621079D01*
X621538Y-276121D01*
Y-277958D01*
X621079Y-278417D01*
X620161D01*
X619702Y-277958D01*
X618783Y-276121D02*
X618324Y-275662D01*
X617406D01*
X616947Y-276121D01*
Y-276580D01*
X617406Y-277040D01*
X617865D01*
X617406D01*
X616947Y-277499D01*
Y-277958D01*
X617406Y-278417D01*
X618324D01*
X618783Y-277958D01*
X616028Y-278417D02*
X615110D01*
X615569D01*
Y-275662D01*
X616028Y-276121D01*
X630868Y-280339D02*
X631327Y-279880D01*
X632246D01*
X632705Y-280339D01*
Y-282175D01*
X632246Y-282635D01*
X631327D01*
X630868Y-282175D01*
X628113Y-282635D02*
X629950D01*
X628113Y-280798D01*
Y-280339D01*
X628572Y-279880D01*
X629491D01*
X629950Y-280339D01*
X627195Y-282175D02*
X626735Y-282635D01*
X625817D01*
X625358Y-282175D01*
Y-280339D01*
X625817Y-279880D01*
X626735D01*
X627195Y-280339D01*
Y-280798D01*
X626735Y-281257D01*
X625358D01*
X302974Y-178639D02*
X303433Y-178180D01*
X304351D01*
X304810Y-178639D01*
Y-180475D01*
X304351Y-180935D01*
X303433D01*
X302974Y-180475D01*
X300219Y-180935D02*
X302055D01*
X300219Y-179098D01*
Y-178639D01*
X300678Y-178180D01*
X301596D01*
X302055Y-178639D01*
X297923Y-180935D02*
Y-178180D01*
X299300Y-179557D01*
X297464D01*
X339509Y-157471D02*
X339050Y-157012D01*
Y-156094D01*
X339509Y-155635D01*
X341346D01*
X341805Y-156094D01*
Y-157012D01*
X341346Y-157471D01*
X341805Y-160226D02*
Y-158390D01*
X339968Y-160226D01*
X339509D01*
X339050Y-159767D01*
Y-158849D01*
X339509Y-158390D01*
Y-161145D02*
X339050Y-161604D01*
Y-162522D01*
X339509Y-162981D01*
X339968D01*
X340427Y-162522D01*
Y-162063D01*
Y-162522D01*
X340886Y-162981D01*
X341346D01*
X341805Y-162522D01*
Y-161604D01*
X341346Y-161145D01*
X313401Y-163098D02*
X313860Y-163557D01*
Y-164476D01*
X313401Y-164935D01*
X311564D01*
X311105Y-164476D01*
Y-163557D01*
X311564Y-163098D01*
X311105Y-160343D02*
Y-162180D01*
X312941Y-160343D01*
X313401D01*
X313860Y-160802D01*
Y-161721D01*
X313401Y-162180D01*
X311105Y-157588D02*
Y-159425D01*
X312941Y-157588D01*
X313401D01*
X313860Y-158047D01*
Y-158965D01*
X313401Y-159425D01*
X311575Y-183266D02*
X312035Y-183726D01*
Y-184644D01*
X311575Y-185103D01*
X309739D01*
X309280Y-184644D01*
Y-183726D01*
X309739Y-183266D01*
X309280Y-180511D02*
Y-182348D01*
X311116Y-180511D01*
X311575D01*
X312035Y-180971D01*
Y-181889D01*
X311575Y-182348D01*
X309280Y-179593D02*
Y-178675D01*
Y-179134D01*
X312035D01*
X311575Y-179593D01*
X331896Y-175870D02*
X332356Y-175411D01*
X333274D01*
X333733Y-175870D01*
Y-177707D01*
X333274Y-178166D01*
X332356D01*
X331896Y-177707D01*
X329141Y-178166D02*
X330978D01*
X329141Y-176330D01*
Y-175870D01*
X329601Y-175411D01*
X330519D01*
X330978Y-175870D01*
X328223D02*
X327764Y-175411D01*
X326846D01*
X326386Y-175870D01*
Y-177707D01*
X326846Y-178166D01*
X327764D01*
X328223Y-177707D01*
Y-175870D01*
X421709Y-244471D02*
X421250Y-244012D01*
Y-243094D01*
X421709Y-242635D01*
X423546D01*
X424005Y-243094D01*
Y-244012D01*
X423546Y-244471D01*
X424005Y-245390D02*
Y-246308D01*
Y-245849D01*
X421250D01*
X421709Y-245390D01*
X423546Y-247686D02*
X424005Y-248145D01*
Y-249063D01*
X423546Y-249522D01*
X421709D01*
X421250Y-249063D01*
Y-248145D01*
X421709Y-247686D01*
X422168D01*
X422627Y-248145D01*
Y-249522D01*
X405208Y-83389D02*
X404749Y-82930D01*
Y-82012D01*
X405208Y-81553D01*
X407045D01*
X407504Y-82012D01*
Y-82930D01*
X407045Y-83389D01*
X407504Y-84308D02*
Y-85226D01*
Y-84767D01*
X404749D01*
X405208Y-84308D01*
Y-86604D02*
X404749Y-87063D01*
Y-87981D01*
X405208Y-88440D01*
X405667D01*
X406126Y-87981D01*
X406586Y-88440D01*
X407045D01*
X407504Y-87981D01*
Y-87063D01*
X407045Y-86604D01*
X406586D01*
X406126Y-87063D01*
X405667Y-86604D01*
X405208D01*
X406126Y-87063D02*
Y-87981D01*
X349836Y-245236D02*
X349377Y-244777D01*
Y-243858D01*
X349836Y-243399D01*
X351673D01*
X352132Y-243858D01*
Y-244777D01*
X351673Y-245236D01*
X352132Y-246154D02*
Y-247073D01*
Y-246613D01*
X349377D01*
X349836Y-246154D01*
X349377Y-248450D02*
Y-250287D01*
X349836D01*
X351673Y-248450D01*
X352132D01*
X345136Y-83086D02*
X344676Y-82627D01*
Y-81709D01*
X345136Y-81250D01*
X346972D01*
X347431Y-81709D01*
Y-82627D01*
X346972Y-83086D01*
X347431Y-84005D02*
Y-84923D01*
Y-84464D01*
X344676D01*
X345136Y-84005D01*
X344676Y-88137D02*
X345136Y-87219D01*
X346054Y-86300D01*
X346972D01*
X347431Y-86760D01*
Y-87678D01*
X346972Y-88137D01*
X346513D01*
X346054Y-87678D01*
Y-86300D01*
X302368Y-140539D02*
X302827Y-140080D01*
X303746D01*
X304205Y-140539D01*
Y-142376D01*
X303746Y-142835D01*
X302827D01*
X302368Y-142376D01*
X301450Y-142835D02*
X300531D01*
X300991D01*
Y-140080D01*
X301450Y-140539D01*
X299154Y-142835D02*
X298236D01*
X298695D01*
Y-140080D01*
X299154Y-140539D01*
X68868Y-69339D02*
X69327Y-68880D01*
X70246D01*
X70705Y-69339D01*
Y-71175D01*
X70246Y-71635D01*
X69327D01*
X68868Y-71175D01*
X66113Y-68880D02*
X67031Y-69339D01*
X67950Y-70257D01*
Y-71175D01*
X67491Y-71635D01*
X66572D01*
X66113Y-71175D01*
Y-70716D01*
X66572Y-70257D01*
X67950D01*
X418768Y-166239D02*
X419227Y-165780D01*
X420146D01*
X420605Y-166239D01*
Y-168076D01*
X420146Y-168535D01*
X419227D01*
X418768Y-168076D01*
X417850Y-166239D02*
X417390Y-165780D01*
X416472D01*
X416013Y-166239D01*
Y-166698D01*
X416472Y-167157D01*
X416931D01*
X416472D01*
X416013Y-167616D01*
Y-168076D01*
X416472Y-168535D01*
X417390D01*
X417850Y-168076D01*
X415621Y-154381D02*
X416080Y-153922D01*
X416999D01*
X417458Y-154381D01*
Y-156218D01*
X416999Y-156677D01*
X416080D01*
X415621Y-156218D01*
X412866Y-156677D02*
X414703D01*
X412866Y-154841D01*
Y-154381D01*
X413325Y-153922D01*
X414244D01*
X414703Y-154381D01*
X393468Y-139939D02*
X393927Y-139480D01*
X394846D01*
X395305Y-139939D01*
Y-141776D01*
X394846Y-142235D01*
X393927D01*
X393468Y-141776D01*
X392550Y-142235D02*
X391631D01*
X392091D01*
Y-139480D01*
X392550Y-139939D01*
D15*
X410925Y-195717D02*
Y-187449D01*
Y-195717D02*
X421161D01*
Y-187449D01*
X418799Y-172488D02*
X421161Y-174850D01*
X413287Y-172488D02*
X418799D01*
X410925Y-174850D02*
X413287Y-172488D01*
X421161Y-181150D02*
Y-174850D01*
X410925Y-181150D02*
Y-174850D01*
X81118Y-142689D02*
Y-136390D01*
X70882Y-142689D02*
Y-136390D01*
X78756Y-145051D02*
X81118Y-142689D01*
X73244Y-145051D02*
X78756D01*
X70882Y-142689D02*
X73244Y-145051D01*
X70882Y-130091D02*
Y-121823D01*
X81118D01*
Y-130091D02*
Y-121823D01*
D16*
X346142Y-247697D02*
Y-242697D01*
X342742Y-247697D02*
X346142D01*
X342742Y-242697D02*
X346142D01*
X336142Y-247697D02*
Y-242697D01*
Y-247697D02*
X339542D01*
X336142Y-242697D02*
X339542D01*
X117000Y-268433D02*
Y-263433D01*
X120400D01*
X117000Y-268433D02*
X120400D01*
X127000D02*
Y-263433D01*
X123600D02*
X127000D01*
X123600Y-268433D02*
X127000D01*
X126902Y-274896D02*
Y-269896D01*
X123502Y-274896D02*
X126902D01*
X123502Y-269896D02*
X126902D01*
X116902Y-274896D02*
Y-269896D01*
Y-274896D02*
X120302D01*
X116902Y-269896D02*
X120302D01*
X12600Y-302205D02*
X16000D01*
X12600Y-297205D02*
X16000D01*
Y-302205D02*
Y-297205D01*
X6000Y-302205D02*
X9400D01*
X6000Y-297205D02*
X9400D01*
X6000Y-302205D02*
Y-297205D01*
X628500Y-295933D02*
X633500D01*
X628500D02*
Y-292533D01*
X633500Y-295933D02*
Y-292533D01*
X628500Y-285933D02*
X633500D01*
X628500Y-289333D02*
Y-285933D01*
X633500Y-289333D02*
Y-285933D01*
X18500Y-235933D02*
Y-230933D01*
X21900D01*
X18500Y-235933D02*
X21900D01*
X28500D02*
Y-230933D01*
X25100D02*
X28500D01*
X25100Y-235933D02*
X28500D01*
X21500Y-41933D02*
X24900D01*
X21500Y-46933D02*
X24900D01*
X21500D02*
Y-41933D01*
X28100D02*
X31500D01*
X28100Y-46933D02*
X31500D01*
Y-41933D01*
X491000Y-288933D02*
X496000D01*
X491000D02*
Y-285533D01*
X496000Y-288933D02*
Y-285533D01*
X491000Y-278933D02*
X496000D01*
X491000Y-282333D02*
Y-278933D01*
X496000Y-282333D02*
Y-278933D01*
X417000Y-282333D02*
Y-278933D01*
X412000Y-282333D02*
Y-278933D01*
X417000D01*
Y-288933D02*
Y-285533D01*
X412000Y-288933D02*
Y-285533D01*
Y-288933D02*
X417000D01*
X407000Y-53933D02*
Y-50533D01*
X412000Y-53933D02*
Y-50533D01*
X407000Y-53933D02*
X412000D01*
X407000Y-47333D02*
Y-43933D01*
X412000Y-47333D02*
Y-43933D01*
X407000D02*
X412000D01*
X232000Y-282333D02*
Y-278933D01*
X227000Y-282333D02*
Y-278933D01*
X232000D01*
Y-288933D02*
Y-285533D01*
X227000Y-288933D02*
Y-285533D01*
Y-288933D02*
X232000D01*
X485000Y-53433D02*
Y-50033D01*
X490000Y-53433D02*
Y-50033D01*
X485000Y-53433D02*
X490000D01*
X485000Y-46833D02*
Y-43433D01*
X490000Y-46833D02*
Y-43433D01*
X485000D02*
X490000D01*
X297295Y-53531D02*
Y-50131D01*
X302295Y-53531D02*
Y-50131D01*
X297295Y-53531D02*
X302295D01*
X297295Y-46931D02*
Y-43532D01*
X302295Y-46931D02*
Y-43532D01*
X297295D02*
X302295D01*
X312500Y-282333D02*
Y-278933D01*
X307500Y-282333D02*
Y-278933D01*
X312500D01*
Y-288933D02*
Y-285533D01*
X307500Y-288933D02*
Y-285533D01*
Y-288933D02*
X312500D01*
X217295Y-53531D02*
Y-50131D01*
X222295Y-53531D02*
Y-50131D01*
X217295Y-53531D02*
X222295D01*
X217295Y-46931D02*
Y-43532D01*
X222295Y-46931D02*
Y-43532D01*
X217295D02*
X222295D01*
X451842Y-241496D02*
Y-236496D01*
X448443Y-241496D02*
X451842D01*
X448443Y-236496D02*
X451842D01*
X441843Y-241496D02*
Y-236496D01*
Y-241496D02*
X445243D01*
X441843Y-236496D02*
X445243D01*
X465228Y-241496D02*
Y-236496D01*
X461828Y-241496D02*
X465228D01*
X461828Y-236496D02*
X465228D01*
X455228Y-241496D02*
Y-236496D01*
Y-241496D02*
X458628D01*
X455228Y-236496D02*
X458628D01*
X441051Y-259114D02*
X446051D01*
X441051D02*
Y-255714D01*
X446051Y-259114D02*
Y-255714D01*
X441051Y-249114D02*
X446051D01*
X441051Y-252514D02*
Y-249114D01*
X446051Y-252514D02*
Y-249114D01*
X266291Y-94370D02*
Y-89370D01*
X269691D01*
X266291Y-94370D02*
X269691D01*
X276291D02*
Y-89370D01*
X272891D02*
X276291D01*
X272891Y-94370D02*
X276291D01*
X272083Y-71613D02*
X277083D01*
Y-75012D02*
Y-71613D01*
X272083Y-75012D02*
Y-71613D01*
Y-81612D02*
X277083D01*
Y-78212D01*
X272083Y-81612D02*
Y-78212D01*
X461291Y-94370D02*
Y-89370D01*
X464691D01*
X461291Y-94370D02*
X464691D01*
X471291D02*
Y-89370D01*
X467891D02*
X471291D01*
X467891Y-94370D02*
X471291D01*
X467236Y-72362D02*
X472236D01*
Y-75762D02*
Y-72362D01*
X467236Y-75762D02*
Y-72362D01*
Y-82362D02*
X472236D01*
Y-78962D01*
X467236Y-82362D02*
Y-78962D01*
X261842Y-241496D02*
Y-236496D01*
X258442Y-241496D02*
X261842D01*
X258442Y-236496D02*
X261842D01*
X251842Y-241496D02*
Y-236496D01*
Y-241496D02*
X255242D01*
X251842Y-236496D02*
X255242D01*
X275228Y-241496D02*
Y-236496D01*
X271828Y-241496D02*
X275228D01*
X271828Y-236496D02*
X275228D01*
X265228Y-241496D02*
Y-236496D01*
Y-241496D02*
X268628D01*
X265228Y-236496D02*
X268628D01*
X250842Y-259185D02*
X255842D01*
X250842D02*
Y-255785D01*
X255842Y-259185D02*
Y-255785D01*
X250842Y-249185D02*
X255842D01*
X250842Y-252585D02*
Y-249185D01*
X255842Y-252585D02*
Y-249185D01*
X252906Y-94370D02*
Y-89370D01*
X256306D01*
X252906Y-94370D02*
X256306D01*
X262906D02*
Y-89370D01*
X259506D02*
X262906D01*
X259506Y-94370D02*
X262906D01*
X447905D02*
Y-89370D01*
X451305D01*
X447905Y-94370D02*
X451305D01*
X457905D02*
Y-89370D01*
X454505D02*
X457905D01*
X454505Y-94370D02*
X457905D01*
X644980Y-60858D02*
Y-56858D01*
X637980Y-60858D02*
X644980D01*
X637980D02*
Y-56858D01*
X644980Y-51858D02*
Y-47858D01*
X637980D02*
X644980D01*
X637980Y-51858D02*
Y-47858D01*
X631500Y-60933D02*
X636500D01*
X631500D02*
Y-57533D01*
X636500Y-60933D02*
Y-57533D01*
X631500Y-50933D02*
X636500D01*
X631500Y-54333D02*
Y-50933D01*
X636500Y-54333D02*
Y-50933D01*
X633500Y-200933D02*
X638500D01*
Y-204333D02*
Y-200933D01*
X633500Y-204333D02*
Y-200933D01*
Y-210933D02*
X638500D01*
Y-207533D01*
X633500Y-210933D02*
Y-207533D01*
X278453Y-187008D02*
X281854D01*
X278453Y-182008D02*
X281854D01*
Y-187008D02*
Y-182008D01*
X271853Y-187008D02*
X275254D01*
X271853Y-182008D02*
X275254D01*
X271853Y-187008D02*
Y-182008D01*
X304438Y-161811D02*
X307838D01*
X304438Y-156811D02*
X307838D01*
Y-161811D02*
Y-156811D01*
X297838Y-161811D02*
X301238D01*
X297838Y-156811D02*
X301238D01*
X297838Y-161811D02*
Y-156811D01*
X305593Y-187632D02*
Y-184232D01*
X300593Y-187632D02*
Y-184232D01*
X305593D01*
Y-194232D02*
Y-190832D01*
X300593Y-194232D02*
Y-190832D01*
Y-194232D02*
X305593D01*
X321204Y-184232D02*
X326204D01*
Y-187632D02*
Y-184232D01*
X321204Y-187632D02*
Y-184232D01*
Y-194232D02*
X326204D01*
Y-190832D01*
X321204Y-194232D02*
Y-190832D01*
X334500Y-184833D02*
Y-181433D01*
X329500Y-184833D02*
Y-181433D01*
X334500D01*
Y-191433D02*
Y-188033D01*
X329500Y-191433D02*
Y-188033D01*
Y-191433D02*
X334500D01*
X381693Y-80295D02*
Y-75295D01*
X385093D01*
X381693Y-80295D02*
X385093D01*
X391693D02*
Y-75295D01*
X388293D02*
X391693D01*
X388293Y-80295D02*
X391693D01*
X322014Y-79642D02*
Y-74642D01*
X325414D01*
X322014Y-79642D02*
X325414D01*
X332014D02*
Y-74642D01*
X328614D02*
X332014D01*
X328614Y-79642D02*
X332014D01*
X414600Y-246933D02*
X418000D01*
X414600Y-241933D02*
X418000D01*
Y-246933D02*
Y-241933D01*
X408000Y-246933D02*
X411400D01*
X408000Y-241933D02*
X411400D01*
X408000Y-246933D02*
Y-241933D01*
X302600Y-182933D02*
X306000D01*
X302600Y-177933D02*
X306000D01*
Y-182933D02*
Y-177933D01*
X296000Y-182933D02*
X299400D01*
X296000Y-177933D02*
X299400D01*
X296000Y-182933D02*
Y-177933D01*
X388600Y-240933D02*
X392000D01*
X388600Y-235933D02*
X392000D01*
Y-240933D02*
Y-235933D01*
X382000Y-240933D02*
X385400D01*
X382000Y-235933D02*
X385400D01*
X382000Y-240933D02*
Y-235933D01*
X327236Y-242579D02*
Y-237579D01*
X330636D01*
X327236Y-242579D02*
X330636D01*
X337236D02*
Y-237579D01*
X333836D02*
X337236D01*
X333836Y-242579D02*
X337236D01*
X391535Y-80807D02*
X394935D01*
X391535Y-85807D02*
X394935D01*
X391535D02*
Y-80807D01*
X398135D02*
X401535D01*
X398135Y-85807D02*
X401535D01*
Y-80807D01*
X331463Y-80547D02*
X334863D01*
X331463Y-85547D02*
X334863D01*
X331463D02*
Y-80547D01*
X338063D02*
X341463D01*
X338063Y-85547D02*
X341463D01*
Y-80547D01*
X325791Y-154842D02*
X329190D01*
X325791Y-159843D02*
X329190D01*
X325791D02*
Y-154842D01*
X332390D02*
X335790D01*
X332390Y-159843D02*
X335790D01*
Y-154842D01*
X299944Y-156043D02*
Y-152643D01*
X304944Y-156043D02*
Y-152643D01*
X299944Y-156043D02*
X304944D01*
X299944Y-149443D02*
Y-146043D01*
X304944Y-149443D02*
Y-146043D01*
X299944D02*
X304944D01*
X306637Y-156043D02*
X311637D01*
X306637D02*
Y-152643D01*
X311637Y-156043D02*
Y-152643D01*
X306637Y-146043D02*
X311637D01*
X306637Y-149443D02*
Y-146043D01*
X311637Y-149443D02*
Y-146043D01*
X634500Y-125433D02*
X639500D01*
Y-128833D02*
Y-125433D01*
X634500Y-128833D02*
Y-125433D01*
Y-135433D02*
X639500D01*
Y-132033D01*
X634500Y-135433D02*
Y-132033D01*
X622333Y-285116D02*
Y-281715D01*
X617334Y-285116D02*
Y-281715D01*
X622333D01*
Y-291716D02*
Y-288316D01*
X617334Y-291716D02*
Y-288316D01*
Y-291716D02*
X622333D01*
X623000Y-291433D02*
X628000D01*
X623000D02*
Y-288033D01*
X628000Y-291433D02*
Y-288033D01*
X623000Y-281433D02*
X628000D01*
X623000Y-284833D02*
Y-281433D01*
X628000Y-284833D02*
Y-281433D01*
X566000Y-222433D02*
X571000D01*
Y-225833D02*
Y-222433D01*
X566000Y-225833D02*
Y-222433D01*
Y-232433D02*
X571000D01*
Y-229033D01*
X566000Y-232433D02*
Y-229033D01*
X622000Y-226933D02*
X627000D01*
Y-230333D02*
Y-226933D01*
X622000Y-230333D02*
Y-226933D01*
Y-236933D02*
X627000D01*
Y-233533D01*
X622000Y-236933D02*
Y-233533D01*
X555500Y-232433D02*
X560500D01*
X555500D02*
Y-229033D01*
X560500Y-232433D02*
Y-229033D01*
X555500Y-222433D02*
X560500D01*
X555500Y-225833D02*
Y-222433D01*
X560500Y-225833D02*
Y-222433D01*
X540000Y-237433D02*
Y-232433D01*
X543400D01*
X540000Y-237433D02*
X543400D01*
X550000D02*
Y-232433D01*
X546600D02*
X550000D01*
X546600Y-237433D02*
X550000D01*
X544000Y-257433D02*
Y-252433D01*
X540600Y-257433D02*
X544000D01*
X540600Y-252433D02*
X544000D01*
X534000Y-257433D02*
Y-252433D01*
Y-257433D02*
X537400D01*
X534000Y-252433D02*
X537400D01*
X68100Y-79933D02*
X71500D01*
X68100Y-74933D02*
X71500D01*
Y-79933D02*
Y-74933D01*
X61500Y-79933D02*
X64900D01*
X61500Y-74933D02*
X64900D01*
X61500Y-79933D02*
Y-74933D01*
X418190Y-163357D02*
Y-159957D01*
X413190Y-163357D02*
Y-159957D01*
X418190D01*
Y-169957D02*
Y-166557D01*
X413190Y-169957D02*
Y-166557D01*
Y-169957D02*
X418190D01*
X391102Y-155441D02*
Y-152041D01*
X396102Y-155441D02*
Y-152041D01*
X391102Y-155441D02*
X396102D01*
X391102Y-148841D02*
Y-145441D01*
X396102Y-148841D02*
Y-145441D01*
X391102D02*
X396102D01*
X402126Y-155441D02*
X407126D01*
X402126D02*
Y-152041D01*
X407126Y-155441D02*
Y-152041D01*
X402126Y-145441D02*
X407126D01*
X402126Y-148841D02*
Y-145441D01*
X407126Y-148841D02*
Y-145441D01*
X407638Y-155441D02*
X412638D01*
X407638D02*
Y-152041D01*
X412638Y-155441D02*
Y-152041D01*
X407638Y-145441D02*
X412638D01*
X407638Y-148841D02*
Y-145441D01*
X412638Y-148841D02*
Y-145441D01*
X396614Y-155441D02*
X401614D01*
X396614D02*
Y-152041D01*
X401614Y-155441D02*
Y-152041D01*
X396614Y-145441D02*
X401614D01*
X396614Y-148841D02*
Y-145441D01*
X401614Y-148841D02*
Y-145441D01*
X92587Y-219860D02*
Y-214860D01*
X89187Y-219860D02*
X92587D01*
X89187Y-214860D02*
X92587D01*
X82587Y-219860D02*
Y-214860D01*
Y-219860D02*
X85987D01*
X82587Y-214860D02*
X85987D01*
X92567Y-239840D02*
Y-226840D01*
X99567D01*
X104567D02*
X111567D01*
Y-239840D02*
Y-226840D01*
X104567Y-239840D02*
X111567D01*
X92567D02*
X99567D01*
X82617Y-214270D02*
Y-209270D01*
X86017D01*
X82617Y-214270D02*
X86017D01*
X92617D02*
Y-209270D01*
X89217D02*
X92617D01*
X89217Y-214270D02*
X92617D01*
X113759Y-235830D02*
Y-222830D01*
X120759D01*
X125759D02*
X132759D01*
Y-235830D02*
Y-222830D01*
X125759Y-235830D02*
X132759D01*
X113759D02*
X120759D01*
X58323Y-158449D02*
Y-153449D01*
X54923Y-158449D02*
X58323D01*
X54923Y-153449D02*
X58323D01*
X48323Y-158449D02*
Y-153449D01*
Y-158449D02*
X51723D01*
X48323Y-153449D02*
X51723D01*
X94579Y-126849D02*
Y-123449D01*
X89579Y-126849D02*
Y-123449D01*
X94579D01*
Y-133449D02*
Y-130049D01*
X89579Y-133449D02*
Y-130049D01*
Y-133449D02*
X94579D01*
X83500Y-133433D02*
Y-130033D01*
X88500Y-133433D02*
Y-130033D01*
X83500Y-133433D02*
X88500D01*
X83500Y-126833D02*
Y-123433D01*
X88500Y-126833D02*
Y-123433D01*
X83500D02*
X88500D01*
X101579Y-184449D02*
Y-181049D01*
X106579Y-184449D02*
Y-181049D01*
X101579Y-184449D02*
X106579D01*
X101579Y-177849D02*
Y-174449D01*
X106579Y-177849D02*
Y-174449D01*
X101579D02*
X106579D01*
X95912Y-184449D02*
Y-181049D01*
X100912Y-184449D02*
Y-181049D01*
X95912Y-184449D02*
X100912D01*
X95912Y-177849D02*
Y-174449D01*
X100912Y-177849D02*
Y-174449D01*
X95912D02*
X100912D01*
X39335Y-142949D02*
X42735D01*
X39335Y-147949D02*
X42735D01*
X39335D02*
Y-142949D01*
X45935D02*
X49335D01*
X45935Y-147949D02*
X49335D01*
Y-142949D01*
X39335Y-137949D02*
X42735D01*
X39335Y-142949D02*
X42735D01*
X39335D02*
Y-137949D01*
X45935D02*
X49335D01*
X45935Y-142949D02*
X49335D01*
Y-137949D01*
X34079Y-169449D02*
Y-156449D01*
X27079Y-169449D02*
Y-156449D01*
X34079D01*
X27079Y-169449D02*
X34079D01*
X35079Y-156449D02*
X40079D01*
Y-159849D02*
Y-156449D01*
X35079Y-159849D02*
Y-156449D01*
Y-166449D02*
X40079D01*
Y-163049D01*
X35079Y-166449D02*
Y-163049D01*
X100500Y-267433D02*
Y-260433D01*
Y-279433D02*
Y-272433D01*
Y-279433D02*
X113500D01*
Y-272433D01*
Y-267433D02*
Y-260433D01*
X100500D02*
X113500D01*
X148500Y-230933D02*
X161500D01*
Y-237933D02*
Y-230933D01*
Y-249933D02*
Y-242933D01*
X148500Y-249933D02*
X161500D01*
X148500D02*
Y-242933D01*
Y-237933D02*
Y-230933D01*
X48323Y-159449D02*
X51723D01*
X48323Y-164449D02*
X51723D01*
X48323D02*
Y-159449D01*
X54923D02*
X58323D01*
X54923Y-164449D02*
X58323D01*
Y-159449D01*
X106579Y-133449D02*
Y-130049D01*
X111579Y-133449D02*
Y-130049D01*
X106579Y-133449D02*
X111579D01*
X106579Y-126849D02*
Y-123449D01*
X111579Y-126849D02*
Y-123449D01*
X106579D02*
X111579D01*
D17*
X394Y-333071D02*
X665748D01*
X666142Y-332677D01*
Y-394D01*
X394D02*
X666142D01*
X394Y-333071D02*
Y-394D01*
M02*
