G04*
G04 #@! TF.GenerationSoftware,Altium Limited,Altium Designer,18.1.7 (191)*
G04*
G04 Layer_Color=8388736*
%FSLAX25Y25*%
%MOIN*%
G70*
G01*
G75*
%ADD17C,0.05000*%
%ADD55R,0.06607X0.02572*%
%ADD56R,0.04343X0.03800*%
%ADD57R,0.03800X0.04343*%
%ADD58R,0.03556X0.03950*%
%ADD59R,0.04737X0.07887*%
%ADD60R,0.05800X0.04800*%
%ADD61R,0.02513X0.06808*%
%ADD62R,0.11800X0.07099*%
%ADD63R,0.03359X0.06804*%
%ADD64R,0.08280X0.05918*%
%ADD65R,0.11824X0.04737*%
%ADD66R,0.03950X0.04737*%
%ADD67R,0.05524X0.04737*%
%ADD68R,0.05524X0.03556*%
%ADD69R,0.03800X0.04300*%
%ADD70R,0.08674X0.22453*%
%ADD71R,0.08674X0.03162*%
%ADD72R,0.10642X0.08674*%
%ADD73R,0.08674X0.08674*%
%ADD74R,0.06036X0.06036*%
%ADD75R,0.08674X0.04343*%
%ADD76R,0.04343X0.08674*%
%ADD77R,0.05524X0.03753*%
%ADD78R,0.01981X0.06607*%
%ADD79R,0.06607X0.01981*%
%ADD80R,0.05721X0.04737*%
%ADD81P,0.09389X8X22.5*%
%ADD82R,0.02670X0.01981*%
%ADD83R,0.07099X0.11800*%
%ADD84R,0.14186X0.07887*%
%ADD85R,0.03359X0.06902*%
%ADD86R,0.03359X0.06706*%
%ADD87R,0.04300X0.03800*%
%ADD88R,0.39186X0.48831*%
%ADD89R,0.03950X0.03556*%
%ADD90R,0.14580X0.07099*%
%ADD91R,0.09658X0.02769*%
%ADD92C,0.06556*%
%ADD93C,0.08674*%
%ADD94C,0.07296*%
%ADD95C,0.06706*%
%ADD96R,0.06706X0.06706*%
%ADD97R,0.09776X0.09776*%
%ADD98C,0.09776*%
%ADD99C,0.06800*%
%ADD100C,0.06115*%
%ADD101R,0.06115X0.06115*%
%ADD102C,0.24422*%
%ADD103C,0.19461*%
%ADD104C,0.22296*%
%ADD105C,0.03556*%
%ADD106C,0.02572*%
%ADD107C,0.03200*%
D17*
X394Y-333071D02*
X665748D01*
X666142Y-332677D01*
Y-394D01*
X394D02*
X666142D01*
X394Y-333071D02*
Y-394D01*
D55*
X380000Y-237520D02*
D03*
Y-240079D02*
D03*
Y-242638D02*
D03*
Y-245197D02*
D03*
Y-247756D02*
D03*
Y-250315D02*
D03*
Y-252874D02*
D03*
Y-255433D02*
D03*
X403134D02*
D03*
Y-252874D02*
D03*
Y-250315D02*
D03*
Y-247756D02*
D03*
Y-245197D02*
D03*
Y-242638D02*
D03*
Y-240079D02*
D03*
Y-237520D02*
D03*
X320000Y-75433D02*
D03*
Y-77992D02*
D03*
Y-80551D02*
D03*
Y-83110D02*
D03*
Y-85669D02*
D03*
Y-88228D02*
D03*
Y-90787D02*
D03*
Y-93347D02*
D03*
X343134D02*
D03*
Y-90787D02*
D03*
Y-88228D02*
D03*
Y-85669D02*
D03*
Y-83110D02*
D03*
Y-80551D02*
D03*
Y-77992D02*
D03*
Y-75433D02*
D03*
X348134Y-237520D02*
D03*
Y-240079D02*
D03*
Y-242638D02*
D03*
Y-245197D02*
D03*
Y-247756D02*
D03*
Y-250315D02*
D03*
Y-252874D02*
D03*
Y-255433D02*
D03*
X325000D02*
D03*
Y-252874D02*
D03*
Y-250315D02*
D03*
Y-247756D02*
D03*
Y-245197D02*
D03*
Y-242638D02*
D03*
Y-240079D02*
D03*
Y-237520D02*
D03*
X463134D02*
D03*
Y-240079D02*
D03*
Y-242638D02*
D03*
Y-245197D02*
D03*
Y-247756D02*
D03*
Y-250315D02*
D03*
Y-252874D02*
D03*
Y-255433D02*
D03*
X440000D02*
D03*
Y-252874D02*
D03*
Y-250315D02*
D03*
Y-247756D02*
D03*
Y-245197D02*
D03*
Y-242638D02*
D03*
Y-240079D02*
D03*
Y-237520D02*
D03*
X255000Y-93347D02*
D03*
Y-90787D02*
D03*
Y-88228D02*
D03*
Y-85669D02*
D03*
Y-83110D02*
D03*
Y-80551D02*
D03*
Y-77992D02*
D03*
Y-75433D02*
D03*
X278134D02*
D03*
Y-77992D02*
D03*
Y-80551D02*
D03*
Y-83110D02*
D03*
Y-85669D02*
D03*
Y-88228D02*
D03*
Y-90787D02*
D03*
Y-93347D02*
D03*
X450000D02*
D03*
Y-90787D02*
D03*
Y-88228D02*
D03*
Y-85669D02*
D03*
Y-83110D02*
D03*
Y-80551D02*
D03*
Y-77992D02*
D03*
Y-75433D02*
D03*
X473134D02*
D03*
Y-77992D02*
D03*
Y-80551D02*
D03*
Y-83110D02*
D03*
Y-85669D02*
D03*
Y-88228D02*
D03*
Y-90787D02*
D03*
Y-93347D02*
D03*
X273134Y-237520D02*
D03*
Y-240079D02*
D03*
Y-242638D02*
D03*
Y-245197D02*
D03*
Y-247756D02*
D03*
Y-250315D02*
D03*
Y-252874D02*
D03*
Y-255433D02*
D03*
X250000D02*
D03*
Y-252874D02*
D03*
Y-250315D02*
D03*
Y-247756D02*
D03*
Y-245197D02*
D03*
Y-242638D02*
D03*
Y-240079D02*
D03*
Y-237520D02*
D03*
X403134Y-75433D02*
D03*
Y-77992D02*
D03*
Y-80551D02*
D03*
Y-83110D02*
D03*
Y-85669D02*
D03*
Y-88228D02*
D03*
Y-90787D02*
D03*
Y-93347D02*
D03*
X380000D02*
D03*
Y-90787D02*
D03*
Y-88228D02*
D03*
Y-85669D02*
D03*
Y-83110D02*
D03*
Y-80551D02*
D03*
Y-77992D02*
D03*
Y-75433D02*
D03*
D56*
X429095Y-254350D02*
D03*
Y-248839D02*
D03*
Y-243327D02*
D03*
Y-237815D02*
D03*
X252500Y-151082D02*
D03*
Y-145571D02*
D03*
X275500Y-151082D02*
D03*
Y-145571D02*
D03*
X45000Y-221933D02*
D03*
Y-216421D02*
D03*
X289039Y-93051D02*
D03*
Y-87539D02*
D03*
X484039Y-82028D02*
D03*
Y-76516D02*
D03*
X239094Y-248839D02*
D03*
Y-254350D02*
D03*
X289039Y-82028D02*
D03*
Y-76516D02*
D03*
X484039Y-93051D02*
D03*
Y-87539D02*
D03*
X239094Y-237815D02*
D03*
Y-243327D02*
D03*
X283700Y-150445D02*
D03*
Y-144933D02*
D03*
X109867Y-225778D02*
D03*
Y-231290D02*
D03*
X403445Y-197291D02*
D03*
Y-191779D02*
D03*
X387697D02*
D03*
Y-197291D02*
D03*
X73579Y-137906D02*
D03*
Y-132394D02*
D03*
X103079Y-125693D02*
D03*
Y-131205D02*
D03*
X47579Y-128937D02*
D03*
Y-134449D02*
D03*
X79079Y-132449D02*
D03*
Y-137961D02*
D03*
D57*
X131244Y-57933D02*
D03*
X136756D02*
D03*
X232200Y-132433D02*
D03*
X226688D02*
D03*
X231456Y-201933D02*
D03*
X225944D02*
D03*
X279609Y-184508D02*
D03*
X274098D02*
D03*
X90343Y-228408D02*
D03*
X84831D02*
D03*
X103663Y-230790D02*
D03*
X98151D02*
D03*
D58*
X29650Y-44433D02*
D03*
X23350D02*
D03*
X473350Y-274242D02*
D03*
X479650D02*
D03*
X7850Y-299705D02*
D03*
X14150D02*
D03*
X208850Y-274242D02*
D03*
X215150D02*
D03*
X400650D02*
D03*
X394350D02*
D03*
X296150D02*
D03*
X289850D02*
D03*
X423882Y-58841D02*
D03*
X430181D02*
D03*
X502437D02*
D03*
X508736D02*
D03*
X234646D02*
D03*
X240945D02*
D03*
X314146D02*
D03*
X320445D02*
D03*
X250082Y-196319D02*
D03*
X256381D02*
D03*
X250082Y-203012D02*
D03*
X256381D02*
D03*
D59*
X268921Y-149933D02*
D03*
X259079D02*
D03*
D60*
X248000Y-162933D02*
D03*
Y-170933D02*
D03*
D61*
X89135Y-142320D02*
D03*
X91631D02*
D03*
X94135D02*
D03*
X96631D02*
D03*
X99135D02*
D03*
X101631D02*
D03*
X104135D02*
D03*
X106631D02*
D03*
Y-163674D02*
D03*
X104135D02*
D03*
X101631D02*
D03*
X99135D02*
D03*
X94135D02*
D03*
X91631D02*
D03*
X96631D02*
D03*
X89135D02*
D03*
D62*
X638500Y-282421D02*
D03*
Y-293445D02*
D03*
D63*
X51500Y-222079D02*
D03*
X56500D02*
D03*
X61500D02*
D03*
X66500D02*
D03*
Y-243433D02*
D03*
X61500D02*
D03*
X56500D02*
D03*
X51500D02*
D03*
D64*
X6224Y-105583D02*
D03*
D65*
X8000Y-52433D02*
D03*
D66*
X24339D02*
D03*
D67*
X48744D02*
D03*
X65673Y-96331D02*
D03*
D68*
Y-56173D02*
D03*
Y-59913D02*
D03*
Y-64244D02*
D03*
Y-68575D02*
D03*
Y-72905D02*
D03*
Y-77236D02*
D03*
Y-81567D02*
D03*
Y-85898D02*
D03*
Y-90228D02*
D03*
D69*
X42000Y-44433D02*
D03*
X36000D02*
D03*
X203000Y-274433D02*
D03*
X197000D02*
D03*
X277500D02*
D03*
X283500D02*
D03*
X467500D02*
D03*
X461500D02*
D03*
X388000D02*
D03*
X382000D02*
D03*
X436031Y-59031D02*
D03*
X442031D02*
D03*
X514087D02*
D03*
X520087D02*
D03*
X246795D02*
D03*
X252795D02*
D03*
X326295D02*
D03*
X332295D02*
D03*
X262042Y-196510D02*
D03*
X268042D02*
D03*
X262042Y-203203D02*
D03*
X268042D02*
D03*
X84587Y-217360D02*
D03*
X90587D02*
D03*
X84587Y-222871D02*
D03*
X90587D02*
D03*
X101163Y-207900D02*
D03*
X95163D02*
D03*
X84617Y-211770D02*
D03*
X90617D02*
D03*
X101163Y-213018D02*
D03*
X95163D02*
D03*
X47421Y-145572D02*
D03*
X41421D02*
D03*
X47421Y-140106D02*
D03*
X41421D02*
D03*
D70*
X231700Y-185634D02*
D03*
Y-148232D02*
D03*
D71*
X627000Y-54890D02*
D03*
Y-58827D02*
D03*
Y-62764D02*
D03*
Y-66701D02*
D03*
Y-70638D02*
D03*
Y-74575D02*
D03*
Y-78512D02*
D03*
Y-82449D02*
D03*
Y-86386D02*
D03*
Y-90323D02*
D03*
Y-94260D02*
D03*
Y-98197D02*
D03*
Y-102134D02*
D03*
Y-106071D02*
D03*
Y-110008D02*
D03*
Y-113945D02*
D03*
Y-117882D02*
D03*
Y-121819D02*
D03*
Y-125756D02*
D03*
Y-129693D02*
D03*
Y-133630D02*
D03*
Y-137567D02*
D03*
Y-141504D02*
D03*
Y-145441D02*
D03*
Y-149378D02*
D03*
Y-153315D02*
D03*
Y-157252D02*
D03*
Y-161189D02*
D03*
Y-165126D02*
D03*
Y-169063D02*
D03*
Y-173000D02*
D03*
Y-176937D02*
D03*
Y-180874D02*
D03*
Y-184811D02*
D03*
Y-188748D02*
D03*
Y-192685D02*
D03*
Y-196622D02*
D03*
Y-200559D02*
D03*
Y-204496D02*
D03*
Y-208433D02*
D03*
D72*
X635465Y-43866D02*
D03*
X28839Y-127433D02*
D03*
Y-162472D02*
D03*
X7500Y-127433D02*
D03*
Y-162472D02*
D03*
D73*
X635465Y-219457D02*
D03*
X283508Y-204933D02*
D03*
X60500Y-160433D02*
D03*
D74*
X576630Y-260563D02*
D03*
Y-270406D02*
D03*
Y-280248D02*
D03*
X586472D02*
D03*
Y-270406D02*
D03*
Y-260563D02*
D03*
X596315D02*
D03*
Y-270406D02*
D03*
Y-280248D02*
D03*
D75*
X549071Y-299933D02*
D03*
Y-294933D02*
D03*
Y-289933D02*
D03*
Y-284933D02*
D03*
Y-279933D02*
D03*
Y-274933D02*
D03*
Y-269933D02*
D03*
Y-264933D02*
D03*
Y-259933D02*
D03*
Y-254933D02*
D03*
Y-249933D02*
D03*
Y-244933D02*
D03*
Y-239933D02*
D03*
Y-234933D02*
D03*
X616000D02*
D03*
Y-239933D02*
D03*
Y-244933D02*
D03*
Y-249933D02*
D03*
Y-254933D02*
D03*
Y-259933D02*
D03*
Y-264933D02*
D03*
Y-269933D02*
D03*
Y-274933D02*
D03*
Y-279933D02*
D03*
Y-284933D02*
D03*
Y-289933D02*
D03*
Y-294933D02*
D03*
Y-299933D02*
D03*
D76*
X560035Y-230996D02*
D03*
X565035D02*
D03*
X570035D02*
D03*
X575035D02*
D03*
X580035D02*
D03*
X585035D02*
D03*
X590035D02*
D03*
X595035D02*
D03*
X600035D02*
D03*
X605035D02*
D03*
D77*
X279609Y-178209D02*
D03*
X266224D02*
D03*
D78*
X302271Y-149579D02*
D03*
X304239D02*
D03*
X306208D02*
D03*
X308176D02*
D03*
X310145D02*
D03*
X312113D02*
D03*
X314082D02*
D03*
X316050D02*
D03*
X318019D02*
D03*
X319987D02*
D03*
X321956D02*
D03*
X323924D02*
D03*
X325893D02*
D03*
X327861D02*
D03*
X329830D02*
D03*
X331798D02*
D03*
Y-194760D02*
D03*
X329830D02*
D03*
X327861D02*
D03*
X325893D02*
D03*
X323924D02*
D03*
X321956D02*
D03*
X319987D02*
D03*
X318019D02*
D03*
X316050D02*
D03*
X314082D02*
D03*
X312113D02*
D03*
X310145D02*
D03*
X308176D02*
D03*
X306208D02*
D03*
X304239D02*
D03*
X302271D02*
D03*
D79*
X339625Y-157405D02*
D03*
Y-159374D02*
D03*
Y-161343D02*
D03*
Y-163311D02*
D03*
Y-165279D02*
D03*
Y-167248D02*
D03*
Y-169217D02*
D03*
Y-171185D02*
D03*
Y-173153D02*
D03*
Y-175122D02*
D03*
Y-177091D02*
D03*
Y-179059D02*
D03*
Y-181028D02*
D03*
Y-182996D02*
D03*
Y-184965D02*
D03*
Y-186933D02*
D03*
X294444D02*
D03*
Y-184965D02*
D03*
Y-182996D02*
D03*
Y-181028D02*
D03*
Y-179059D02*
D03*
Y-177091D02*
D03*
Y-175122D02*
D03*
Y-173153D02*
D03*
Y-171185D02*
D03*
Y-169217D02*
D03*
Y-167248D02*
D03*
Y-165279D02*
D03*
Y-163311D02*
D03*
Y-161343D02*
D03*
Y-159374D02*
D03*
Y-157405D02*
D03*
D80*
X293783Y-142776D02*
D03*
Y-150650D02*
D03*
X340239Y-142382D02*
D03*
Y-150256D02*
D03*
D81*
X296500Y-204933D02*
D03*
X47508Y-160433D02*
D03*
D82*
X97909Y-224155D02*
D03*
Y-222187D02*
D03*
Y-220218D02*
D03*
Y-218250D02*
D03*
X104507D02*
D03*
Y-220218D02*
D03*
Y-222187D02*
D03*
Y-224155D02*
D03*
D83*
X128771Y-229330D02*
D03*
X117747D02*
D03*
D84*
X11189Y-233433D02*
D03*
X34811D02*
D03*
D85*
X131000Y-66965D02*
D03*
X136000D02*
D03*
X141000D02*
D03*
X146000D02*
D03*
Y-95902D02*
D03*
X141000D02*
D03*
X136000D02*
D03*
X131000D02*
D03*
D86*
X393988Y-152677D02*
D03*
X398988D02*
D03*
X403988D02*
D03*
X408988D02*
D03*
Y-173937D02*
D03*
X403988D02*
D03*
X398988D02*
D03*
X393988D02*
D03*
D87*
X87079Y-176449D02*
D03*
X92745D02*
D03*
X75500Y-168433D02*
D03*
X92745Y-182449D02*
D03*
X75500Y-162433D02*
D03*
X87079Y-182449D02*
D03*
X41835Y-128743D02*
D03*
Y-134743D02*
D03*
X95079Y-131449D02*
D03*
Y-125449D02*
D03*
X89079D02*
D03*
Y-131449D02*
D03*
D88*
X147837Y-268921D02*
D03*
D89*
X98396Y-182598D02*
D03*
Y-176299D02*
D03*
X104079Y-182598D02*
D03*
Y-176299D02*
D03*
D90*
X107384Y-258921D02*
D03*
Y-278921D02*
D03*
D91*
X29331Y-138654D02*
D03*
Y-141803D02*
D03*
Y-144953D02*
D03*
Y-148102D02*
D03*
Y-151252D02*
D03*
D92*
X475445Y-23720D02*
D03*
X479461Y-30728D02*
D03*
X483476Y-23720D02*
D03*
X487492Y-30728D02*
D03*
X491508Y-23720D02*
D03*
X495524Y-30728D02*
D03*
X499539Y-23720D02*
D03*
X503555Y-30728D02*
D03*
X462453Y-49744D02*
D03*
X471468D02*
D03*
X507531D02*
D03*
X516547D02*
D03*
X207618Y-23720D02*
D03*
X211634Y-30728D02*
D03*
X215650Y-23720D02*
D03*
X219665Y-30728D02*
D03*
X223681Y-23720D02*
D03*
X227697Y-30728D02*
D03*
X231713Y-23720D02*
D03*
X235728Y-30728D02*
D03*
X194626Y-49744D02*
D03*
X203642D02*
D03*
X239705D02*
D03*
X248721D02*
D03*
X328799D02*
D03*
X319783D02*
D03*
X283720D02*
D03*
X274705D02*
D03*
X315807Y-30728D02*
D03*
X311791Y-23720D02*
D03*
X307776Y-30728D02*
D03*
X303760Y-23720D02*
D03*
X299744Y-30728D02*
D03*
X295728Y-23720D02*
D03*
X291713Y-30728D02*
D03*
X287697Y-23720D02*
D03*
X397445D02*
D03*
X401461Y-30728D02*
D03*
X405476Y-23720D02*
D03*
X409492Y-30728D02*
D03*
X413508Y-23720D02*
D03*
X417524Y-30728D02*
D03*
X421539Y-23720D02*
D03*
X425555Y-30728D02*
D03*
X384453Y-49744D02*
D03*
X393468D02*
D03*
X429531D02*
D03*
X438547D02*
D03*
X199784Y-283327D02*
D03*
X208799D02*
D03*
X244862D02*
D03*
X253878D02*
D03*
X212776Y-302343D02*
D03*
X216791Y-309350D02*
D03*
X220807Y-302343D02*
D03*
X224823Y-309350D02*
D03*
X228839Y-302343D02*
D03*
X232854Y-309350D02*
D03*
X236870Y-302343D02*
D03*
X240886Y-309350D02*
D03*
X322146D02*
D03*
X318130Y-302343D02*
D03*
X314114Y-309350D02*
D03*
X310098Y-302343D02*
D03*
X306083Y-309350D02*
D03*
X302067Y-302343D02*
D03*
X298051Y-309350D02*
D03*
X294035Y-302343D02*
D03*
X335138Y-283327D02*
D03*
X326122D02*
D03*
X290059D02*
D03*
X281043D02*
D03*
X506306Y-309350D02*
D03*
X502290Y-302343D02*
D03*
X498274Y-309350D02*
D03*
X494258Y-302343D02*
D03*
X490243Y-309350D02*
D03*
X486227Y-302343D02*
D03*
X482211Y-309350D02*
D03*
X478195Y-302343D02*
D03*
X519298Y-283327D02*
D03*
X510282D02*
D03*
X474219D02*
D03*
X465203D02*
D03*
X426383Y-309350D02*
D03*
X422368Y-302343D02*
D03*
X418352Y-309350D02*
D03*
X414336Y-302343D02*
D03*
X410321Y-309350D02*
D03*
X406305Y-302343D02*
D03*
X402289Y-309350D02*
D03*
X398273Y-302343D02*
D03*
X439376Y-283327D02*
D03*
X430360D02*
D03*
X394297D02*
D03*
X385281D02*
D03*
D93*
X521508Y-27224D02*
D03*
X457492D02*
D03*
X253681D02*
D03*
X189665D02*
D03*
X269744D02*
D03*
X333760D02*
D03*
X443508D02*
D03*
X379492D02*
D03*
X258839Y-305847D02*
D03*
X194823D02*
D03*
X276083D02*
D03*
X340098D02*
D03*
X460243D02*
D03*
X524258D02*
D03*
X380321D02*
D03*
X444336D02*
D03*
D94*
X514500Y-13721D02*
D03*
X464500D02*
D03*
X246673D02*
D03*
X196673D02*
D03*
X276752D02*
D03*
X326752D02*
D03*
X436500D02*
D03*
X386500D02*
D03*
X251831Y-319350D02*
D03*
X201831D02*
D03*
X283091D02*
D03*
X333091D02*
D03*
X467250D02*
D03*
X517250D02*
D03*
X387328D02*
D03*
X437328D02*
D03*
D95*
X144500Y-11933D02*
D03*
Y-21933D02*
D03*
X134500Y-11933D02*
D03*
Y-21933D02*
D03*
X124500Y-11933D02*
D03*
Y-21933D02*
D03*
X114500Y-11933D02*
D03*
Y-21933D02*
D03*
X104500Y-11933D02*
D03*
D96*
Y-21933D02*
D03*
D97*
X452500Y-167933D02*
D03*
D98*
X533169D02*
D03*
D99*
X14500Y-208433D02*
D03*
Y-198433D02*
D03*
X32000Y-208433D02*
D03*
Y-198433D02*
D03*
D100*
X601500Y-208539D02*
D03*
X593626D02*
D03*
X601500Y-200665D02*
D03*
X593626D02*
D03*
X601500Y-192791D02*
D03*
X593626D02*
D03*
X601500Y-184917D02*
D03*
X593626D02*
D03*
X601500Y-177043D02*
D03*
X593626D02*
D03*
X601500Y-169169D02*
D03*
X593626D02*
D03*
X601500Y-161295D02*
D03*
X593626D02*
D03*
X601500Y-153421D02*
D03*
X593626D02*
D03*
X601500Y-145547D02*
D03*
X593626D02*
D03*
X601500Y-137673D02*
D03*
X593626D02*
D03*
X601500Y-129799D02*
D03*
X593626D02*
D03*
X601500Y-121925D02*
D03*
X593626D02*
D03*
X601500Y-114051D02*
D03*
X593626D02*
D03*
X601500Y-106177D02*
D03*
X593626D02*
D03*
X601500Y-98303D02*
D03*
X593626D02*
D03*
X601500Y-90429D02*
D03*
X593626D02*
D03*
X601500Y-82555D02*
D03*
X593626D02*
D03*
X601500Y-74681D02*
D03*
X593626D02*
D03*
X601500Y-66807D02*
D03*
X593626D02*
D03*
X601500Y-58933D02*
D03*
D101*
X593626D02*
D03*
D102*
X651575Y-319685D02*
D03*
Y-13780D02*
D03*
X13716Y-13669D02*
D03*
X13780Y-319685D02*
D03*
D103*
X36000Y-287933D02*
D03*
X24189Y-269429D02*
D03*
D104*
X47811D02*
D03*
D105*
X393717Y-192378D02*
D03*
X397654D02*
D03*
D106*
X18799Y-136291D02*
D03*
Y-153614D02*
D03*
D107*
X47471Y-127063D02*
D03*
X634000Y-208433D02*
D03*
X287000Y-157433D02*
D03*
X280646Y-158490D02*
D03*
X281700Y-150339D02*
D03*
X85000Y-122528D02*
D03*
X33000Y-156433D02*
D03*
X28500D02*
D03*
X27500Y-166933D02*
D03*
X35500Y-163933D02*
D03*
X33500Y-166933D02*
D03*
X37375Y-156719D02*
D03*
X36036Y-151234D02*
D03*
X80500Y-167933D02*
D03*
Y-173433D02*
D03*
X75500D02*
D03*
X70500D02*
D03*
Y-167933D02*
D03*
Y-162933D02*
D03*
Y-157433D02*
D03*
X75500D02*
D03*
X80500D02*
D03*
Y-162933D02*
D03*
X56000Y-163933D02*
D03*
X56029Y-157481D02*
D03*
X51126Y-166443D02*
D03*
X45000Y-166433D02*
D03*
Y-154933D02*
D03*
X40257Y-144768D02*
D03*
X40321Y-141456D02*
D03*
X100000Y-136933D02*
D03*
X99132Y-157004D02*
D03*
X96608Y-148718D02*
D03*
X94164Y-157359D02*
D03*
X101079Y-148449D02*
D03*
X93079Y-149449D02*
D03*
X98079Y-184449D02*
D03*
X104079D02*
D03*
X87079D02*
D03*
X92934Y-184562D02*
D03*
X104942Y-136822D02*
D03*
X100550Y-131117D02*
D03*
X103079Y-123449D02*
D03*
X97079Y-124449D02*
D03*
X99079Y-172449D02*
D03*
X90011Y-125306D02*
D03*
X109079Y-133449D02*
D03*
X73079Y-133949D02*
D03*
X80079Y-129949D02*
D03*
X65931Y-138190D02*
D03*
X67579Y-145949D02*
D03*
X81079D02*
D03*
Y-138949D02*
D03*
X80079Y-124949D02*
D03*
X94579Y-135949D02*
D03*
X66079Y-131949D02*
D03*
X283200Y-143433D02*
D03*
M02*
