G04*
G04 #@! TF.GenerationSoftware,Altium Limited,Altium Designer,18.1.7 (191)*
G04*
G04 Layer_Physical_Order=4*
G04 Layer_Color=16711680*
%FSLAX25Y25*%
%MOIN*%
G70*
G01*
G75*
%ADD13C,0.01000*%
%ADD14C,0.01500*%
%ADD15C,0.00800*%
%ADD17C,0.05000*%
%ADD19R,0.03543X0.03000*%
%ADD20R,0.03000X0.03543*%
%ADD23R,0.05000X0.04000*%
%ADD25R,0.11000X0.06299*%
%ADD32R,0.03000X0.03500*%
%ADD40R,0.04724X0.02953*%
%ADD43R,0.04921X0.03937*%
%ADD46R,0.06299X0.11000*%
%ADD50R,0.03500X0.03000*%
%ADD108C,0.02500*%
%ADD109C,0.01200*%
%ADD110C,0.02000*%
%ADD111C,0.03000*%
%ADD112C,0.00700*%
%ADD113C,0.01600*%
%ADD114R,0.19000X0.09000*%
%ADD115R,0.31000X0.13000*%
%ADD116R,0.16000X0.39500*%
%ADD125R,0.17000X0.11500*%
%ADD127R,0.34000X0.24000*%
%ADD128R,0.23500X0.26500*%
%ADD129R,0.14500X0.19500*%
%ADD130R,0.14500X0.18500*%
%ADD131C,0.05756*%
%ADD132C,0.07874*%
%ADD133C,0.06496*%
%ADD134C,0.05906*%
%ADD135R,0.05906X0.05906*%
%ADD136R,0.08976X0.08976*%
%ADD137C,0.08976*%
%ADD138C,0.06000*%
%ADD139C,0.05315*%
%ADD140R,0.05315X0.05315*%
%ADD141C,0.23622*%
%ADD142C,0.18661*%
%ADD143C,0.21496*%
%ADD144C,0.02756*%
%ADD145C,0.01772*%
%ADD146C,0.02400*%
%ADD169P,0.08523X8X112.5*%
%ADD170R,0.07874X0.07874*%
%ADD171R,0.09000X0.12000*%
%ADD172R,0.10040X0.32523*%
%ADD173R,0.12118X0.11618*%
%ADD174R,0.04500X0.09000*%
%ADD175R,0.10000X0.14000*%
%ADD176R,0.31000X0.14500*%
D13*
X86079Y-131449D02*
X90829Y-126699D01*
Y-126449D01*
X91829Y-125449D02*
X92079D01*
X90829Y-126449D02*
X91829Y-125449D01*
X279609Y-184264D02*
Y-178209D01*
X65263Y-8648D02*
Y-14551D01*
X62311D01*
X61327Y-13567D01*
Y-12583D01*
X62311Y-11599D01*
X65263D01*
X62311D01*
X61327Y-10616D01*
Y-9631D01*
X62311Y-8648D01*
X65263D01*
X56407D02*
X58375D01*
X59359Y-9631D01*
Y-13567D01*
X58375Y-14551D01*
X56407D01*
X55424Y-13567D01*
Y-9631D01*
X56407Y-8648D01*
X53456D02*
X49520D01*
X51488D01*
Y-14551D01*
D14*
X449400Y-90908D02*
X450150Y-91658D01*
X463734Y-239958D02*
X467650D01*
X445484Y-90908D02*
X449400D01*
X12000Y-304433D02*
X85000D01*
X95500Y-293933D01*
X8000Y-299705D02*
X8750Y-300455D01*
Y-301183D02*
Y-300455D01*
Y-301183D02*
X12000Y-304433D01*
X50590Y-167006D02*
Y-161949D01*
X50567D02*
Y-155949D01*
X250484Y-90908D02*
X254400D01*
X622419Y-277605D02*
X622828D01*
X272984Y-239208D02*
Y-238996D01*
X469484Y-71908D02*
X469610Y-72034D01*
X272984Y-239208D02*
X273734Y-239958D01*
X469610Y-74480D02*
X469736Y-74606D01*
X255150Y-91870D02*
Y-91658D01*
X622828Y-277605D02*
X623000Y-277433D01*
X450150Y-91870D02*
Y-91658D01*
X619567Y-280457D02*
X622419Y-277605D01*
X469610Y-74480D02*
Y-72034D01*
X462984Y-239208D02*
Y-238996D01*
X254400Y-90908D02*
X255150Y-91658D01*
X462984Y-239208D02*
X463734Y-239958D01*
X51126Y-166471D02*
Y-166443D01*
X50590Y-167006D02*
X51126Y-166471D01*
X94579Y-135949D02*
Y-133949D01*
X93079Y-132449D02*
X94579Y-133949D01*
X273734Y-239958D02*
X277650D01*
X619567Y-283677D02*
Y-280457D01*
D15*
X405000Y-56433D02*
X414884D01*
X417000Y-54317D01*
Y-47433D01*
X403000Y-54433D02*
X405000Y-56433D01*
X403000Y-54433D02*
Y-44433D01*
X337042Y-171976D02*
X352000Y-186933D01*
X295605Y-171976D02*
X337042D01*
X297571Y-169423D02*
X339990D01*
X355000Y-184433D01*
X299880Y-167021D02*
X342088D01*
X355500Y-180433D02*
X355500D01*
X342088Y-167021D02*
X355500Y-180433D01*
X283000Y-166495D02*
X290125D01*
X295605Y-171976D01*
X195891Y-164433D02*
X292582D01*
X297571Y-169423D01*
X209927Y-161544D02*
X294403D01*
X299880Y-167021D01*
X338106Y-259365D02*
X352038Y-245433D01*
X279000Y-258433D02*
X279337D01*
X280269Y-259365D01*
X338106D01*
X276000Y-261433D02*
Y-257361D01*
X278010Y-255351D02*
X280731D01*
X276000Y-257361D02*
X278010Y-255351D01*
X281813Y-256433D02*
X282000D01*
X280731Y-255351D02*
X281813Y-256433D01*
X426000Y-38433D02*
X479000D01*
X397000D02*
X403000Y-44433D01*
X417000Y-47433D02*
X426000Y-38433D01*
X285433Y-42552D02*
X291553Y-48672D01*
X215713Y-23720D02*
X221000Y-18433D01*
X257119Y-42552D02*
X285433D01*
X221000Y-18433D02*
X233000D01*
X257119Y-42552D01*
X291553Y-56310D02*
X296268Y-61025D01*
X291553Y-56310D02*
Y-48672D01*
X296268Y-61025D02*
X306592D01*
X295728Y-55161D02*
Y-23720D01*
Y-55161D02*
X299000Y-58433D01*
X353000Y-44384D02*
X364194Y-33190D01*
X385243D01*
X390204Y-28229D01*
X301614Y-44384D02*
X353000D01*
X390204Y-23229D02*
X395879Y-17554D01*
X390204Y-28229D02*
Y-23229D01*
X395879Y-17554D02*
X424000D01*
X457813Y-5621D02*
X492866D01*
X428879Y-22433D02*
X441000D01*
X424000Y-17554D02*
X428879Y-22433D01*
X441000D02*
X457813Y-5621D01*
X479000Y-38433D02*
X483476Y-33957D01*
Y-23720D01*
X409500Y-30736D02*
X414197Y-35433D01*
X409492Y-30728D02*
X409500Y-30736D01*
X414197Y-35433D02*
X460000D01*
X469000Y-22433D02*
X475000Y-16433D01*
X507533Y-35303D02*
Y-23966D01*
X469000Y-26433D02*
Y-22433D01*
X460000Y-35433D02*
X469000Y-26433D01*
X500000Y-16433D02*
X507533Y-23966D01*
X475000Y-16433D02*
X500000D01*
X492000Y-50836D02*
X507533Y-35303D01*
X492000Y-249670D02*
Y-50836D01*
X492866Y-5621D02*
X511477Y-24231D01*
Y-36754D02*
Y-24231D01*
X495289Y-52942D02*
X511477Y-36754D01*
X495289Y-254144D02*
Y-52942D01*
X104500Y-11933D02*
X112098Y-4335D01*
X149902D02*
X155000Y-9433D01*
X112098Y-4335D02*
X149902D01*
X417875Y-92461D02*
Y-86433D01*
X412714Y-84346D02*
X415789D01*
X417875Y-86433D01*
X507933Y-314500D02*
X513000Y-309433D01*
X476138Y-310571D02*
X480067Y-314500D01*
X507933D01*
X506000Y-288433D02*
Y-124433D01*
X513000Y-309433D02*
Y-295433D01*
X506000Y-288433D02*
X513000Y-295433D01*
X433358Y-310438D02*
X440606D01*
X442601Y-312433D02*
X461702D01*
X440606Y-310438D02*
X442601Y-312433D01*
X430468Y-313328D02*
X433358Y-310438D01*
X461702Y-312433D02*
X463564Y-310571D01*
X476138D01*
X338199Y-265948D02*
X351713Y-252433D01*
X273000Y-263433D02*
X275515Y-265948D01*
X338199D01*
X245000Y-278433D02*
X294000D01*
X208500Y-241933D02*
X208500D01*
X245000Y-278433D01*
X277663Y-311250D02*
X290817D01*
X258734Y-313433D02*
X275481D01*
X277663Y-311250D01*
X247132Y-310891D02*
X256191D01*
X258734Y-313433D01*
X231000Y-315433D02*
X242589D01*
X247132Y-310891D01*
X390926Y-270507D02*
X395284D01*
X350550Y-310883D02*
X390926Y-270507D01*
X311834Y-313580D02*
X323542D01*
X310098Y-311844D02*
X311834Y-313580D01*
X310098Y-311844D02*
Y-302343D01*
X327324Y-302110D02*
X363000Y-266433D01*
X323542Y-313580D02*
X327324Y-309798D01*
Y-302110D01*
X329426Y-310883D02*
X350550D01*
X322877Y-317433D02*
X329426Y-310883D01*
X297000Y-317433D02*
X322877D01*
X290817Y-311250D02*
X297000Y-317433D01*
X228839Y-313272D02*
X231000Y-315433D01*
X228839Y-313272D02*
Y-302343D01*
X151000Y-142433D02*
X173694Y-119739D01*
X151000Y-193433D02*
Y-142433D01*
X155000Y-144433D02*
X181000Y-118433D01*
X155000Y-188433D02*
X208500Y-241933D01*
X155000Y-188433D02*
Y-144433D01*
X151000Y-193433D02*
X222000Y-264433D01*
X232854Y-309350D02*
Y-299287D01*
X222000Y-288433D02*
Y-264433D01*
Y-288433D02*
X232854Y-299287D01*
X313260Y-186645D02*
X323394Y-176512D01*
X293000Y-225433D02*
X313260Y-205173D01*
Y-186645D01*
X293817Y-230233D02*
X315916Y-208134D01*
Y-188094D02*
X324576Y-179433D01*
X315916Y-208134D02*
Y-188094D01*
X352126Y-190559D02*
X357800Y-184886D01*
X331653Y-196780D02*
X337874Y-190559D01*
X352126D01*
X319000Y-195433D02*
X320347Y-196780D01*
X331653D01*
X319000Y-195433D02*
Y-189433D01*
X306596Y-184837D02*
X316000Y-175433D01*
X316000D01*
X306596Y-198469D02*
Y-184837D01*
X310379Y-202054D02*
Y-185231D01*
X320313Y-175297D01*
X323472Y-176512D02*
X324113Y-175870D01*
X324547D01*
X323394Y-176512D02*
X323472D01*
X324576Y-179433D02*
X327000D01*
X291000Y-221433D02*
X310379Y-202054D01*
X290000Y-241433D02*
X291948D01*
X331116Y-202266D02*
X344167D01*
X291948Y-241433D02*
X331116Y-202266D01*
X365162Y-194752D02*
Y-135093D01*
X313812Y-83743D02*
X365162Y-135093D01*
X347473Y-212441D02*
X365162Y-194752D01*
X313375Y-86433D02*
X362788Y-135846D01*
Y-192523D02*
Y-135846D01*
X345879Y-209433D02*
X362788Y-192523D01*
X256529Y-83743D02*
X313812D01*
X374134Y-93433D02*
Y-80110D01*
X363984Y-95417D02*
X372150D01*
X374134Y-93433D01*
X358000Y-89433D02*
X363984Y-95417D01*
X362000Y-88950D02*
X365483Y-92433D01*
X362000Y-88950D02*
Y-75433D01*
X365483Y-92433D02*
X370000D01*
X372000Y-90433D02*
Y-83379D01*
X371134Y-82513D02*
X372000Y-83379D01*
X371134Y-82513D02*
Y-82110D01*
X370000Y-92433D02*
X372000Y-90433D01*
X288000Y-70433D02*
X357000D01*
X362000Y-75433D01*
X281000Y-68933D02*
X284596Y-72529D01*
X352096D01*
X358000Y-78433D01*
Y-89433D02*
Y-78433D01*
X364931Y-86473D02*
Y-79645D01*
X378143Y-66433D02*
X443000D01*
X364931Y-79645D02*
X378143Y-66433D01*
X368834Y-78855D02*
X378777Y-68912D01*
X368834Y-85810D02*
Y-78855D01*
X378777Y-68912D02*
X440613D01*
X364931Y-86473D02*
X368216Y-89758D01*
X368834Y-85810D02*
X369134Y-86110D01*
X440613Y-68912D02*
X444134Y-72433D01*
X447000Y-76433D02*
Y-70433D01*
X443000Y-66433D02*
X447000Y-70433D01*
X438216Y-82133D02*
X441300D01*
X447000Y-76433D01*
X413314Y-87780D02*
X415085D01*
X406000Y-95094D02*
X413314Y-87780D01*
X415085D02*
X415097Y-87768D01*
X506000Y-124433D02*
X516000Y-114433D01*
Y-107433D01*
X501000Y-294618D02*
Y-123433D01*
X511000Y-113433D01*
X498312Y-297306D02*
X501000Y-294618D01*
X498312Y-309313D02*
Y-297306D01*
X498274Y-309350D02*
X498312Y-309313D01*
X418708Y-271009D02*
X493576D01*
X498000Y-275433D01*
Y-286803D02*
Y-275433D01*
X371471Y-250962D02*
X393529D01*
X362000Y-260433D02*
X371471Y-250962D01*
X357000Y-258433D02*
X359000Y-260433D01*
X362000D01*
X357000Y-258433D02*
Y-254880D01*
X372000Y-256433D02*
Y-255933D01*
Y-256433D02*
X376000Y-260433D01*
X360747Y-257180D02*
X370109Y-247819D01*
X360495Y-257433D02*
X360747Y-257180D01*
X351713Y-252433D02*
X359000D01*
X363000Y-266433D02*
X395000D01*
X376866Y-240299D02*
X379580Y-243013D01*
X396420D02*
X400000Y-239433D01*
X379580Y-243013D02*
X396420D01*
X398483Y-245433D02*
X403439Y-240477D01*
X352038Y-245433D02*
X398483D01*
X403439Y-240477D02*
Y-232986D01*
X439000Y-197425D02*
Y-154113D01*
X403439Y-232986D02*
X439000Y-197425D01*
X400000Y-232044D02*
X436000Y-196044D01*
X400000Y-239433D02*
Y-232044D01*
X436000Y-196044D02*
Y-155182D01*
X379000Y-155433D02*
X382403Y-152030D01*
X383000Y-99866D02*
Y-99433D01*
X382403Y-100463D02*
X383000Y-99866D01*
X382403Y-152030D02*
Y-100463D01*
X397000Y-125048D02*
Y-92433D01*
Y-125048D02*
X429000Y-157048D01*
X400000Y-93433D02*
X416000Y-77433D01*
X400000Y-123582D02*
X433000Y-156582D01*
X400000Y-123582D02*
Y-93433D01*
X403000Y-122182D02*
X436000Y-155182D01*
X403000Y-94060D02*
X412714Y-84346D01*
X403000Y-122182D02*
Y-94060D01*
X406000Y-121113D02*
X439000Y-154113D01*
X406000Y-121113D02*
Y-95094D01*
X416000Y-77433D02*
X437865D01*
X403829Y-85604D02*
Y-79604D01*
X397000Y-92433D02*
X403829Y-85604D01*
X409000Y-74433D02*
X418270D01*
X418270Y-74433D01*
X403829Y-79604D02*
X409000Y-74433D01*
X348072Y-246361D02*
Y-244510D01*
X426000Y-74433D02*
X426000Y-74433D01*
X418270Y-74433D02*
X426000D01*
X489000Y-84433D02*
X489171Y-84604D01*
X483000Y-54433D02*
X489000Y-60433D01*
Y-84433D02*
Y-60433D01*
X475865Y-262433D02*
X489171Y-249127D01*
Y-84604D01*
X482000Y-267433D02*
X495289Y-254144D01*
X415224Y-264670D02*
X477000D01*
X492000Y-249670D01*
X463000Y-247433D02*
X470501Y-254934D01*
X471067D01*
X472815Y-258871D02*
X486000Y-245686D01*
X469000Y-258433D02*
X469306Y-258739D01*
X470137D02*
X470269Y-258871D01*
X469306Y-258739D02*
X470137D01*
X470269Y-258871D02*
X472815D01*
X412330Y-262433D02*
X475865D01*
X410330Y-264433D02*
X412330Y-262433D01*
X411461Y-268433D02*
X415224Y-264670D01*
X483000Y-45433D02*
Y-39433D01*
Y-54433D02*
Y-45433D01*
X410000Y-264433D02*
X410330D01*
X409251Y-268433D02*
X411461D01*
X398100Y-267691D02*
Y-263533D01*
X395284Y-270507D02*
X398100Y-267691D01*
X376000Y-260433D02*
X395000D01*
X398100Y-263533D01*
X406633Y-271653D02*
X411901D01*
X402214Y-267234D02*
Y-263647D01*
Y-267234D02*
X406633Y-271653D01*
X407000Y-266182D02*
Y-251702D01*
Y-266182D02*
X409251Y-268433D01*
X411901Y-271653D02*
X416121Y-267433D01*
X408000Y-250702D02*
Y-250433D01*
X407000Y-251702D02*
X408000Y-250702D01*
X393000Y-254433D02*
X402214Y-263647D01*
X285000Y-220064D02*
X306596Y-198469D01*
X285000Y-226433D02*
Y-220064D01*
X414500Y-302179D02*
Y-286933D01*
X414336Y-302343D02*
X414500Y-302179D01*
X132990Y-32002D02*
X133161Y-31830D01*
X139417D01*
X129790Y-33223D02*
Y-20447D01*
X144264Y-41169D02*
X213374Y-110280D01*
X129790Y-33223D02*
X137736Y-41169D01*
X144264D01*
X124500Y-34933D02*
Y-21933D01*
X143738Y-45695D02*
X211055Y-113013D01*
X124500Y-34933D02*
X135262Y-45695D01*
X143738D01*
X211055Y-113013D02*
X317749D01*
X314000Y-309236D02*
Y-304067D01*
Y-309236D02*
X314114Y-309350D01*
X314000Y-304067D02*
X314076Y-303990D01*
Y-300695D01*
X314000Y-300618D02*
X314076Y-300695D01*
X314000Y-300618D02*
Y-298433D01*
X294000Y-278433D02*
X314000Y-298433D01*
X498000Y-289433D02*
Y-286803D01*
X493500Y-286933D02*
X497870D01*
X498000Y-286803D01*
X325000Y-65433D02*
X333000D01*
X344000Y-54433D02*
X354000D01*
X333000Y-65433D02*
X344000Y-54433D01*
X354000D02*
X373000Y-35433D01*
X403000D02*
X405476Y-32957D01*
X373000Y-35433D02*
X403000D01*
X405476Y-32957D02*
Y-23720D01*
X228000Y-81433D02*
X246011Y-99444D01*
X221511Y-45500D02*
X228000Y-51989D01*
Y-81433D02*
Y-51989D01*
X219795Y-45531D02*
Y-30858D01*
X219665Y-30728D02*
X219795Y-30858D01*
X299795Y-45531D02*
X300895Y-44431D01*
X299795Y-45531D02*
Y-30779D01*
X299744Y-30728D02*
X299795Y-30779D01*
X300895Y-44431D02*
X301566D01*
X301614Y-44384D01*
X310000Y-58433D02*
X317000Y-65433D01*
X299000Y-58433D02*
X310000D01*
X306592Y-61025D02*
X311000Y-65433D01*
X409500Y-45933D02*
Y-30736D01*
X387000Y-38433D02*
X397000D01*
X483000Y-39433D02*
X484650Y-37783D01*
X483000Y-45433D02*
X487500D01*
X487492Y-34941D02*
Y-30728D01*
X484650Y-37783D02*
X487492Y-34941D01*
X376599Y-144950D02*
Y-144517D01*
X377643Y-143316D02*
Y-82790D01*
X377201Y-143758D02*
X377643Y-143316D01*
X373734Y-152610D02*
X379943Y-146401D01*
Y-96490D01*
X386126Y-140840D02*
Y-140718D01*
X390000Y-136844D01*
X385000Y-145433D02*
X391000Y-139433D01*
X371187Y-201433D02*
X385000Y-187620D01*
Y-145433D01*
X387192Y-146625D02*
X391383Y-142433D01*
X387192Y-190528D02*
Y-146625D01*
X373287Y-204433D02*
X387192Y-190528D01*
X376599Y-144517D02*
X377201Y-143915D01*
X377643Y-82790D02*
X380000Y-80433D01*
X377201Y-143915D02*
Y-143758D01*
X390000Y-136844D02*
Y-97433D01*
X385000Y-93433D02*
X385306Y-93739D01*
X386306D01*
X390000Y-97433D01*
X379965Y-71512D02*
X380000Y-71547D01*
Y-80433D02*
Y-71547D01*
X379943Y-96490D02*
X380000Y-96433D01*
X320629Y-102082D02*
X348942Y-130394D01*
Y-156542D02*
Y-130394D01*
X357635Y-178336D02*
Y-177397D01*
X357329Y-177232D02*
X357634D01*
X357800Y-184886D02*
Y-178501D01*
X321576Y-99444D02*
X360300Y-138167D01*
X345260Y-205173D02*
X360300Y-190133D01*
Y-138167D01*
X139417Y-31830D02*
X215229Y-107642D01*
X319070D01*
X213374Y-110280D02*
X318105D01*
X118553Y-17880D02*
X127224D01*
X129790Y-20447D01*
X114500Y-21933D02*
X118553Y-17880D01*
X124500Y-11933D02*
X129518Y-6915D01*
X147361D02*
X151000Y-10554D01*
X129518Y-6915D02*
X147361D01*
X155000Y-38433D02*
X218649Y-102082D01*
X155000Y-38433D02*
Y-9433D01*
X246011Y-99444D02*
X321576D01*
X218649Y-102082D02*
X320629D01*
X320042Y-104862D02*
X343000Y-127820D01*
X151000Y-38433D02*
X217429Y-104862D01*
X320042D01*
X319070Y-107642D02*
X340669Y-129240D01*
X318105Y-110280D02*
X338000Y-130175D01*
X317749Y-113013D02*
X335423Y-130687D01*
X343000Y-136559D02*
Y-127820D01*
X340669Y-135038D02*
Y-129240D01*
X338000Y-134111D02*
Y-130175D01*
X335423Y-133435D02*
Y-130687D01*
X200500Y-116933D02*
X317705D01*
X331568Y-134088D02*
Y-130796D01*
X317705Y-116933D02*
X331568Y-130796D01*
X334214Y-141493D02*
X340669Y-135038D01*
X316303Y-135720D02*
X322076Y-141493D01*
X334214D01*
X332932Y-139179D02*
X338000Y-134111D01*
X324527Y-139179D02*
X332932D01*
X319887Y-134540D02*
X324527Y-139179D01*
X319700Y-132933D02*
X319887Y-133121D01*
Y-134540D02*
Y-133121D01*
X340332Y-139227D02*
X343000Y-136559D01*
X340332Y-144101D02*
Y-139227D01*
X339000Y-145433D02*
X340332Y-144101D01*
X333744Y-144179D02*
X333758D01*
X335013Y-145433D01*
X339000D01*
X151000Y-38433D02*
Y-10554D01*
X335333Y-68221D02*
X340182Y-63372D01*
X303437Y-64739D02*
X306919Y-68221D01*
X335333D01*
X240596Y-73837D02*
X248271Y-66162D01*
X283729D02*
X288000Y-70433D01*
X248271Y-66162D02*
X283729D01*
X240596Y-79514D02*
X243216Y-82133D01*
X240596Y-79514D02*
Y-73837D01*
X243216Y-82133D02*
Y-82133D01*
X244134Y-78433D02*
X244556D01*
X252556Y-86433D01*
X313375D01*
X246134Y-74433D02*
X246440Y-74739D01*
X247524D01*
X256529Y-83743D01*
X429000Y-194204D02*
Y-157048D01*
X433000Y-194554D02*
Y-156582D01*
X329064Y-221370D02*
X401835D01*
X429000Y-194204D01*
X314134Y-236299D02*
X329064Y-221370D01*
X312000Y-234433D02*
X333992Y-212441D01*
X347473D01*
X331700Y-209433D02*
X345879D01*
X303000Y-234487D02*
X332315Y-205173D01*
X345260D01*
X344167Y-202266D02*
X351000Y-195433D01*
X303000Y-247433D02*
Y-234487D01*
X308000Y-233133D02*
X331700Y-209433D01*
X405755Y-238678D02*
X406935Y-237498D01*
X435065D02*
X441969Y-244402D01*
X406935Y-237498D02*
X435065D01*
X428000Y-247433D02*
X463000D01*
X441969Y-244402D02*
X465969D01*
X474000Y-252433D01*
X405755Y-242216D02*
Y-238678D01*
X400218Y-247752D02*
X405755Y-242216D01*
X395681Y-247752D02*
X400218D01*
X393529Y-250962D02*
X395998Y-253431D01*
X401750D01*
X407047Y-248133D01*
X395614Y-247819D02*
X395681Y-247752D01*
X370109Y-247819D02*
X395614D01*
X338000Y-256433D02*
X348072Y-246361D01*
X352284Y-240299D02*
X376866D01*
X348072Y-244510D02*
X352284Y-240299D01*
X351525Y-248733D02*
X359918D01*
X278000Y-263433D02*
X336824D01*
X351525Y-248733D01*
X276000Y-261433D02*
X278000Y-263433D01*
X273000D02*
Y-254433D01*
X275000Y-252433D02*
X284000D01*
X273000Y-254433D02*
X275000Y-252433D01*
X292618Y-256433D02*
X338000D01*
X318977Y-254410D02*
X324000Y-249388D01*
X309977Y-254410D02*
X318977D01*
X303000Y-247433D02*
X309977Y-254410D01*
X282200Y-230233D02*
X293817D01*
X291000Y-206433D02*
Y-193433D01*
X283000Y-215433D02*
X283306Y-215127D01*
Y-214127D01*
X291000Y-206433D01*
X391000Y-139433D02*
X402130D01*
X391383Y-142433D02*
X399618D01*
X357635Y-178336D02*
X357800Y-178501D01*
X308000Y-238433D02*
Y-233133D01*
X310500Y-234433D02*
X312000D01*
X282000Y-230433D02*
X282200Y-230233D01*
X291000Y-193433D02*
X294000Y-190433D01*
X289579Y-190896D02*
Y-190754D01*
X204527Y-190896D02*
X289579D01*
X394797Y-238615D02*
Y-238182D01*
X394000Y-237386D02*
X394797Y-238182D01*
X394000Y-237386D02*
Y-236433D01*
X324469Y-234433D02*
X392000D01*
X394000Y-236433D01*
X324000Y-249388D02*
Y-234902D01*
X324469Y-234433D01*
X330500Y-223933D02*
X403621D01*
X318248Y-236185D02*
X330500Y-223933D01*
X318248Y-247997D02*
Y-236185D01*
X314134Y-248197D02*
Y-236299D01*
X407047Y-248133D02*
X427300D01*
X428000Y-247433D01*
X422330Y-313328D02*
X430468D01*
X418352Y-309350D02*
X422330Y-313328D01*
X494258Y-302343D02*
Y-293175D01*
X498000Y-289433D01*
X173694Y-118739D02*
X174000Y-118433D01*
X173694Y-119739D02*
Y-118739D01*
X159146Y-158287D02*
X200500Y-116933D01*
X157498Y-158433D02*
X157644Y-158287D01*
X159146D01*
X208000Y-159618D02*
X209927Y-161544D01*
X173000Y-159618D02*
X208000D01*
X187000Y-169433D02*
X280062D01*
X283000Y-166495D01*
X184000Y-166433D02*
X187000Y-169433D01*
X215650Y-23720D02*
X215713D01*
X416121Y-267433D02*
X482000D01*
X362061Y-63372D02*
X387000Y-38433D01*
X340182Y-63372D02*
X362061D01*
X302306Y-64739D02*
X303437D01*
X302000Y-64433D02*
X302306Y-64739D01*
X249134Y-72433D02*
X252634Y-68933D01*
X281000D01*
X368216Y-89811D02*
Y-89758D01*
X438865Y-78433D02*
X439134D01*
X437865Y-77433D02*
X438865Y-78433D01*
X403621Y-223933D02*
X433000Y-194554D01*
X315049Y-250497D02*
X315748D01*
X318248Y-247997D01*
X313649Y-251897D02*
X315049Y-250497D01*
X313216Y-251897D02*
X313649D01*
X426000Y-74433D02*
X441134D01*
X367000Y-201433D02*
X371187D01*
X371000Y-204433D02*
X373287D01*
X284918Y-248733D02*
X292618Y-256433D01*
X412000Y-94346D02*
X486000Y-168347D01*
Y-245686D02*
Y-168347D01*
X409000Y-96346D02*
X474918Y-162264D01*
Y-248733D02*
Y-162264D01*
X509700Y-206733D02*
X510000Y-206433D01*
X509700Y-214633D02*
Y-206733D01*
X512000Y-212933D02*
Y-210433D01*
Y-212933D02*
X529000Y-229933D01*
X534500Y-279933D02*
X546395Y-268038D01*
Y-252348D01*
X531993Y-237947D02*
Y-227720D01*
Y-237947D02*
X546395Y-252348D01*
X534500Y-284933D02*
X549627Y-269806D01*
X535042Y-237354D02*
X549627Y-251939D01*
Y-269806D02*
Y-251939D01*
X535042Y-237354D02*
Y-226548D01*
X520023Y-211529D02*
Y-185009D01*
Y-211529D02*
X535042Y-226548D01*
X515500Y-211227D02*
X531993Y-227720D01*
X515500Y-211227D02*
Y-187933D01*
X529000Y-255433D02*
X533500Y-259933D01*
X529000Y-255433D02*
Y-229933D01*
X533500Y-259933D02*
X537000D01*
X526000Y-281433D02*
X534500Y-289933D01*
X526000Y-281433D02*
Y-230933D01*
X509700Y-214633D02*
X526000Y-230933D01*
X585375Y-218086D02*
X611450D01*
X623000Y-206536D02*
Y-157433D01*
X611450Y-218086D02*
X623000Y-206536D01*
X584314Y-218714D02*
X584747D01*
X585375Y-218086D01*
X584510Y-210427D02*
X587494D01*
X589364Y-212297D02*
X608136D01*
X587494Y-210427D02*
X589364Y-212297D01*
X556000Y-176433D02*
Y-154594D01*
X572921Y-137673D01*
X593626D01*
Y-145547D02*
X597383Y-141790D01*
X607357D01*
X623000Y-157433D01*
X619000Y-205433D02*
Y-162433D01*
X601500Y-145547D02*
X602114D01*
X619000Y-162433D01*
X570592Y-150841D02*
X572110Y-149323D01*
X575906D01*
X591635Y-165053D01*
X559099Y-156334D02*
X568547Y-146886D01*
X579216D02*
X587500Y-155169D01*
X568547Y-146886D02*
X579216D01*
X587500Y-155169D02*
Y-155169D01*
Y-155169D02*
X593626Y-161295D01*
X593626D01*
X591635Y-165053D02*
X597383D01*
X610000Y-197479D02*
Y-179209D01*
X603056Y-204423D02*
X610000Y-197479D01*
X586500Y-198853D02*
X592070Y-204423D01*
X597563Y-173106D02*
X603897D01*
X610000Y-179209D01*
X593626Y-169169D02*
X597563Y-173106D01*
X592522Y-177043D02*
X593626D01*
X575000Y-159522D02*
Y-152433D01*
Y-159522D02*
X592522Y-177043D01*
X568730Y-159933D02*
X589730Y-180933D01*
X564247Y-159933D02*
X568730D01*
X589730Y-180933D02*
X595500D01*
X601500Y-184917D02*
X607105Y-190522D01*
X603690Y-196908D02*
X607105Y-193494D01*
Y-190522D01*
X599469Y-196908D02*
X603690D01*
X600636Y-191927D02*
Y-190138D01*
X597743Y-187244D02*
Y-183176D01*
X600636Y-191927D02*
X601500Y-192791D01*
X597743Y-187244D02*
X600636Y-190138D01*
X588369Y-192791D02*
X593626D01*
X577500Y-181923D02*
Y-173933D01*
Y-181923D02*
X588369Y-192791D01*
X566999Y-175212D02*
X592452Y-200665D01*
X593626D01*
X566999Y-175212D02*
Y-162625D01*
X586500Y-199373D02*
Y-198853D01*
X562000Y-162180D02*
X564247Y-159933D01*
X559099Y-174532D02*
Y-156334D01*
Y-174532D02*
X583300Y-198733D01*
X582000Y-206433D02*
X583300Y-205133D01*
Y-198733D01*
X556000Y-176433D02*
X581000Y-201433D01*
X403276Y-146341D02*
X404376Y-147441D01*
X404626D01*
X403276Y-146341D02*
Y-146091D01*
X399618Y-142433D02*
X403276Y-146091D01*
X409038Y-146341D02*
X409038D01*
X402130Y-139433D02*
X409038Y-146341D01*
X409038D02*
X410138Y-147441D01*
X581500Y-180223D02*
Y-177933D01*
X597743Y-195182D02*
X599469Y-196908D01*
X597743Y-195182D02*
Y-191594D01*
X594823Y-188675D02*
X597743Y-191594D01*
X589952Y-188675D02*
X594823D01*
X581500Y-180223D02*
X589952Y-188675D01*
X610000Y-214433D02*
X619000Y-205433D01*
X587000Y-214433D02*
X610000D01*
X608136Y-212297D02*
X616500Y-203933D01*
X601500Y-161295D02*
X616500Y-176295D01*
Y-203933D02*
Y-176295D01*
X592070Y-204423D02*
X603056D01*
X595500Y-180933D02*
X597743Y-183176D01*
X562000Y-165433D02*
Y-162180D01*
X597383Y-165053D02*
X601500Y-169169D01*
X570592Y-157892D02*
Y-150841D01*
X399012Y-145596D02*
X399090D01*
X288271Y-169547D02*
X288271Y-169547D01*
X283252Y-169547D02*
X288271D01*
X279609Y-173190D02*
X283252Y-169547D01*
X279609Y-178209D02*
Y-173190D01*
Y-184264D02*
X279854Y-184508D01*
D17*
X394Y-333071D02*
X665748D01*
X666142Y-332677D01*
Y-394D01*
X394D02*
X666142D01*
X394Y-333071D02*
Y-394D01*
D19*
X631000Y-288177D02*
D03*
Y-293689D02*
D03*
X443551Y-251358D02*
D03*
Y-256870D02*
D03*
X274583Y-79368D02*
D03*
Y-73857D02*
D03*
X469736Y-80118D02*
D03*
Y-74606D02*
D03*
X253342Y-251429D02*
D03*
Y-256941D02*
D03*
X634000Y-53177D02*
D03*
Y-58689D02*
D03*
X636000Y-208689D02*
D03*
Y-203177D02*
D03*
X303093Y-191988D02*
D03*
Y-186476D02*
D03*
X332000Y-189189D02*
D03*
Y-183677D02*
D03*
X302444Y-148287D02*
D03*
Y-153799D02*
D03*
X619834Y-289471D02*
D03*
Y-283960D02*
D03*
X415690Y-167713D02*
D03*
Y-162201D02*
D03*
X393602Y-147685D02*
D03*
Y-153197D02*
D03*
X37579Y-164205D02*
D03*
Y-158693D02*
D03*
D20*
X338386Y-245197D02*
D03*
X343898D02*
D03*
X124756Y-265933D02*
D03*
X119244D02*
D03*
X119146Y-272396D02*
D03*
X124657D02*
D03*
X26256Y-233433D02*
D03*
X20744D02*
D03*
X444087Y-238996D02*
D03*
X449598D02*
D03*
X457473D02*
D03*
X462984D02*
D03*
X274047Y-91870D02*
D03*
X268535D02*
D03*
X469047D02*
D03*
X463535D02*
D03*
X254087Y-238996D02*
D03*
X259598D02*
D03*
X267473D02*
D03*
X272984D02*
D03*
X260661Y-91870D02*
D03*
X255150D02*
D03*
X455661D02*
D03*
X450150D02*
D03*
X300082Y-159311D02*
D03*
X305594D02*
D03*
X410244Y-244433D02*
D03*
X415756D02*
D03*
X298244Y-180433D02*
D03*
X303756D02*
D03*
X399291Y-83307D02*
D03*
X393779D02*
D03*
X339219Y-83047D02*
D03*
X333707D02*
D03*
X333546Y-157343D02*
D03*
X328035D02*
D03*
X63744Y-77433D02*
D03*
X69256D02*
D03*
X90373Y-211770D02*
D03*
X84861D02*
D03*
X84831Y-217360D02*
D03*
X90343D02*
D03*
X56079Y-155949D02*
D03*
X50567D02*
D03*
X41579Y-145449D02*
D03*
X47091D02*
D03*
Y-140449D02*
D03*
X41579D02*
D03*
X56079Y-161949D02*
D03*
X50567D02*
D03*
D23*
X30579Y-158949D02*
D03*
Y-166949D02*
D03*
D25*
X155000Y-245945D02*
D03*
X107000Y-275445D02*
D03*
Y-264421D02*
D03*
X155000Y-234921D02*
D03*
D32*
X8000Y-299705D02*
D03*
X14000D02*
D03*
X29500Y-44433D02*
D03*
X23500D02*
D03*
X279854Y-184508D02*
D03*
X273853D02*
D03*
X389693Y-77795D02*
D03*
X383693D02*
D03*
X330014Y-77142D02*
D03*
X324014D02*
D03*
X390000Y-238433D02*
D03*
X384000D02*
D03*
X335236Y-240079D02*
D03*
X329236D02*
D03*
X548000Y-234933D02*
D03*
X542000D02*
D03*
X536000Y-254933D02*
D03*
X542000D02*
D03*
D40*
X279609Y-178209D02*
D03*
X266224D02*
D03*
D43*
X641480Y-58295D02*
D03*
Y-50421D02*
D03*
D46*
X128771Y-229330D02*
D03*
X117747D02*
D03*
X107579Y-233340D02*
D03*
X96556D02*
D03*
D50*
X493500Y-280933D02*
D03*
Y-286933D02*
D03*
X414500D02*
D03*
Y-280933D02*
D03*
X409500Y-45933D02*
D03*
Y-51933D02*
D03*
X229500Y-286933D02*
D03*
Y-280933D02*
D03*
X487500Y-45433D02*
D03*
Y-51433D02*
D03*
X299795Y-45531D02*
D03*
Y-51531D02*
D03*
X310000Y-286933D02*
D03*
Y-280933D02*
D03*
X219795Y-45531D02*
D03*
Y-51531D02*
D03*
X323704Y-192232D02*
D03*
Y-186232D02*
D03*
X309137Y-148043D02*
D03*
Y-154043D02*
D03*
X637000Y-133433D02*
D03*
Y-127433D02*
D03*
X625500Y-283433D02*
D03*
Y-289433D02*
D03*
X568500Y-230433D02*
D03*
Y-224433D02*
D03*
X624500Y-234933D02*
D03*
Y-228933D02*
D03*
X558000Y-224433D02*
D03*
Y-230433D02*
D03*
X404626Y-147441D02*
D03*
Y-153441D02*
D03*
X410138Y-147441D02*
D03*
Y-153441D02*
D03*
X399114Y-147441D02*
D03*
Y-153441D02*
D03*
X92079Y-131449D02*
D03*
Y-125449D02*
D03*
X86000Y-125433D02*
D03*
Y-131433D02*
D03*
X104079Y-176449D02*
D03*
Y-182449D02*
D03*
X98412Y-176449D02*
D03*
Y-182449D02*
D03*
X109079Y-125449D02*
D03*
Y-131449D02*
D03*
D108*
X51500Y-215433D02*
X55343Y-211590D01*
X68921D02*
X75000Y-217669D01*
X55343Y-211590D02*
X68921D01*
X151250Y-290183D02*
X152000Y-289433D01*
X144000Y-297433D02*
X151250Y-290183D01*
X157750Y-289433D02*
X165000D01*
X152000D02*
X157750D01*
X75000Y-231433D02*
Y-217669D01*
X48000Y-38433D02*
X53000Y-43433D01*
X32000Y-38433D02*
X48000D01*
X29500Y-40433D02*
X30000D01*
X32000Y-38433D01*
X29500Y-44433D02*
Y-40433D01*
X95500Y-293933D02*
X99000Y-297433D01*
X92000Y-290433D02*
X95500Y-293933D01*
X99000Y-297433D02*
X144000D01*
X92000Y-290433D02*
Y-248433D01*
X75000Y-231433D02*
X92000Y-248433D01*
X415650Y-168157D02*
X415915Y-167892D01*
X416165Y-167370D02*
X416437D01*
X415915Y-167620D02*
X416165Y-167370D01*
X415915Y-167892D02*
Y-167620D01*
X415650Y-170913D02*
Y-168157D01*
X69256Y-77433D02*
X69412Y-77277D01*
X72473D01*
X273853Y-184508D02*
Y-184258D01*
X273604Y-184008D02*
X273853Y-184258D01*
X273354Y-184008D02*
X273604D01*
X273279Y-183933D02*
X273354Y-184008D01*
X269500Y-183933D02*
X273279D01*
X261515Y-178209D02*
X266224D01*
X261387Y-178081D02*
X261515Y-178209D01*
X399114Y-159047D02*
X400500Y-160433D01*
X399114Y-159047D02*
Y-153441D01*
X109021Y-125391D02*
X109079Y-125449D01*
X109021Y-125391D02*
Y-121954D01*
X393996Y-147435D02*
Y-145323D01*
X393746Y-147685D02*
X393996Y-147435D01*
X393602Y-147685D02*
X393746D01*
X390916Y-153290D02*
X393510D01*
X393602Y-153197D01*
X410138Y-158357D02*
Y-153441D01*
X404626Y-158188D02*
Y-153441D01*
X410067Y-158429D02*
X410138Y-158357D01*
X404567Y-158247D02*
X404626Y-158188D01*
X548000Y-234933D02*
Y-230487D01*
X548164Y-230323D01*
X568500Y-237161D02*
X568692Y-237353D01*
D109*
X90343Y-217360D02*
X112767D01*
X113879Y-218472D01*
X107579Y-233340D02*
X109780Y-231139D01*
X84190Y-221856D02*
X109780D01*
X83127Y-222920D02*
X84190Y-221856D01*
X90383Y-211780D02*
X93337D01*
X90373Y-211770D02*
X90383Y-211780D01*
X82887Y-222920D02*
X83127D01*
X309137Y-144744D02*
X309137Y-144744D01*
X309137Y-148043D02*
Y-144744D01*
X309137Y-148043D02*
X309137Y-148043D01*
D110*
X85922Y-125433D02*
X86000D01*
X85172Y-124683D02*
X85922Y-125433D01*
X85172Y-124683D02*
Y-122700D01*
X85000Y-122528D02*
X85172Y-122700D01*
X47000Y-149433D02*
Y-149325D01*
X47091Y-149234D02*
Y-140449D01*
X47000Y-149325D02*
X47091Y-149234D01*
X109780Y-231139D02*
Y-221856D01*
X98412Y-176449D02*
X104079D01*
X93079D02*
X98412D01*
X92825Y-184562D02*
X92934D01*
X92712Y-184449D02*
X92825Y-184562D01*
X89895Y-184449D02*
Y-179632D01*
X93079Y-176449D01*
X87079Y-184449D02*
X89895D01*
X92712D01*
X66079Y-121354D02*
X76500Y-110933D01*
X66079Y-131949D02*
Y-121354D01*
X76500Y-110933D02*
X81000D01*
X558000Y-237013D02*
X558042Y-237055D01*
Y-237148D02*
Y-237055D01*
X558000Y-237013D02*
Y-230433D01*
X568500Y-237161D02*
Y-230433D01*
X619834Y-289471D02*
X625462D01*
X625500Y-289433D01*
D111*
X61156Y-77556D02*
X63744D01*
Y-77433D01*
X114307Y-218900D02*
Y-206588D01*
X113879Y-206160D02*
X114307Y-206588D01*
D112*
X161325Y-161108D02*
X201708Y-120726D01*
X161000Y-162433D02*
X161325Y-162108D01*
Y-161108D01*
X201708Y-120726D02*
X318119D01*
X327046Y-136879D02*
Y-129653D01*
X318119Y-120726D02*
X327046Y-129653D01*
X93079Y-149544D02*
Y-149449D01*
X91140Y-164510D02*
Y-151483D01*
X93079Y-149544D01*
X91140Y-164510D02*
X99079Y-172449D01*
D113*
X97609Y-151418D02*
X102672D01*
X104079Y-150012D01*
X94164Y-157359D02*
Y-154864D01*
X97609Y-151418D01*
X104079Y-150012D02*
Y-137902D01*
X104942Y-137039D01*
Y-136822D01*
X94164Y-159534D02*
Y-157359D01*
Y-159534D02*
X104079Y-169449D01*
Y-176449D02*
Y-169449D01*
D114*
X13500Y-233933D02*
D03*
D115*
X25000Y-209933D02*
D03*
D116*
X32500Y-224183D02*
D03*
D125*
X74079Y-141699D02*
D03*
D127*
X41500Y-241433D02*
D03*
D128*
X46750Y-263683D02*
D03*
D129*
X107250Y-258183D02*
D03*
D130*
Y-279683D02*
D03*
D131*
X475445Y-23720D02*
D03*
X479461Y-30728D02*
D03*
X483476Y-23720D02*
D03*
X487492Y-30728D02*
D03*
X491508Y-23720D02*
D03*
X495524Y-30728D02*
D03*
X499539Y-23720D02*
D03*
X503555Y-30728D02*
D03*
X462453Y-49744D02*
D03*
X471468D02*
D03*
X507531D02*
D03*
X516547D02*
D03*
X207618Y-23720D02*
D03*
X211634Y-30728D02*
D03*
X215650Y-23720D02*
D03*
X219665Y-30728D02*
D03*
X223681Y-23720D02*
D03*
X227697Y-30728D02*
D03*
X231713Y-23720D02*
D03*
X235728Y-30728D02*
D03*
X194626Y-49744D02*
D03*
X203642D02*
D03*
X239705D02*
D03*
X248721D02*
D03*
X328799D02*
D03*
X319783D02*
D03*
X283720D02*
D03*
X274705D02*
D03*
X315807Y-30728D02*
D03*
X311791Y-23720D02*
D03*
X307776Y-30728D02*
D03*
X303760Y-23720D02*
D03*
X299744Y-30728D02*
D03*
X295728Y-23720D02*
D03*
X291713Y-30728D02*
D03*
X287697Y-23720D02*
D03*
X397445D02*
D03*
X401461Y-30728D02*
D03*
X405476Y-23720D02*
D03*
X409492Y-30728D02*
D03*
X413508Y-23720D02*
D03*
X417524Y-30728D02*
D03*
X421539Y-23720D02*
D03*
X425555Y-30728D02*
D03*
X384453Y-49744D02*
D03*
X393468D02*
D03*
X429531D02*
D03*
X438547D02*
D03*
X199784Y-283327D02*
D03*
X208799D02*
D03*
X244862D02*
D03*
X253878D02*
D03*
X212776Y-302343D02*
D03*
X216791Y-309350D02*
D03*
X220807Y-302343D02*
D03*
X224823Y-309350D02*
D03*
X228839Y-302343D02*
D03*
X232854Y-309350D02*
D03*
X236870Y-302343D02*
D03*
X240886Y-309350D02*
D03*
X322146D02*
D03*
X318130Y-302343D02*
D03*
X314114Y-309350D02*
D03*
X310098Y-302343D02*
D03*
X306083Y-309350D02*
D03*
X302067Y-302343D02*
D03*
X298051Y-309350D02*
D03*
X294035Y-302343D02*
D03*
X335138Y-283327D02*
D03*
X326122D02*
D03*
X290059D02*
D03*
X281043D02*
D03*
X506306Y-309350D02*
D03*
X502290Y-302343D02*
D03*
X498274Y-309350D02*
D03*
X494258Y-302343D02*
D03*
X490243Y-309350D02*
D03*
X486227Y-302343D02*
D03*
X482211Y-309350D02*
D03*
X478195Y-302343D02*
D03*
X519298Y-283327D02*
D03*
X510282D02*
D03*
X474219D02*
D03*
X465203D02*
D03*
X426383Y-309350D02*
D03*
X422368Y-302343D02*
D03*
X418352Y-309350D02*
D03*
X414336Y-302343D02*
D03*
X410321Y-309350D02*
D03*
X406305Y-302343D02*
D03*
X402289Y-309350D02*
D03*
X398273Y-302343D02*
D03*
X439376Y-283327D02*
D03*
X430360D02*
D03*
X394297D02*
D03*
X385281D02*
D03*
D132*
X521508Y-27224D02*
D03*
X457492D02*
D03*
X253681D02*
D03*
X189665D02*
D03*
X269744D02*
D03*
X333760D02*
D03*
X443508D02*
D03*
X379492D02*
D03*
X258839Y-305847D02*
D03*
X194823D02*
D03*
X276083D02*
D03*
X340098D02*
D03*
X460243D02*
D03*
X524258D02*
D03*
X380321D02*
D03*
X444336D02*
D03*
D133*
X514500Y-13721D02*
D03*
X464500D02*
D03*
X246673D02*
D03*
X196673D02*
D03*
X276752D02*
D03*
X326752D02*
D03*
X436500D02*
D03*
X386500D02*
D03*
X251831Y-319350D02*
D03*
X201831D02*
D03*
X283091D02*
D03*
X333091D02*
D03*
X467250D02*
D03*
X517250D02*
D03*
X387328D02*
D03*
X437328D02*
D03*
D134*
X144500Y-11933D02*
D03*
Y-21933D02*
D03*
X134500Y-11933D02*
D03*
Y-21933D02*
D03*
X124500Y-11933D02*
D03*
Y-21933D02*
D03*
X114500Y-11933D02*
D03*
Y-21933D02*
D03*
X104500Y-11933D02*
D03*
D135*
Y-21933D02*
D03*
D136*
X452500Y-167933D02*
D03*
D137*
X533169D02*
D03*
D138*
X14500Y-208433D02*
D03*
Y-198433D02*
D03*
X32000Y-208433D02*
D03*
Y-198433D02*
D03*
D139*
X601500Y-208539D02*
D03*
X593626D02*
D03*
X601500Y-200665D02*
D03*
X593626D02*
D03*
X601500Y-192791D02*
D03*
X593626D02*
D03*
X601500Y-184917D02*
D03*
X593626D02*
D03*
X601500Y-177043D02*
D03*
X593626D02*
D03*
X601500Y-169169D02*
D03*
X593626D02*
D03*
X601500Y-161295D02*
D03*
X593626D02*
D03*
X601500Y-153421D02*
D03*
X593626D02*
D03*
X601500Y-145547D02*
D03*
X593626D02*
D03*
X601500Y-137673D02*
D03*
X593626D02*
D03*
X601500Y-129799D02*
D03*
X593626D02*
D03*
X601500Y-121925D02*
D03*
X593626D02*
D03*
X601500Y-114051D02*
D03*
X593626D02*
D03*
X601500Y-106177D02*
D03*
X593626D02*
D03*
X601500Y-98303D02*
D03*
X593626D02*
D03*
X601500Y-90429D02*
D03*
X593626D02*
D03*
X601500Y-82555D02*
D03*
X593626D02*
D03*
X601500Y-74681D02*
D03*
X593626D02*
D03*
X601500Y-66807D02*
D03*
X593626D02*
D03*
X601500Y-58933D02*
D03*
D140*
X593626D02*
D03*
D141*
X651575Y-319685D02*
D03*
Y-13780D02*
D03*
X13716Y-13669D02*
D03*
X13780Y-319685D02*
D03*
D142*
X36000Y-287933D02*
D03*
X24189Y-269429D02*
D03*
D143*
X47811D02*
D03*
D144*
X393717Y-192378D02*
D03*
X397654D02*
D03*
D145*
X18799Y-136291D02*
D03*
Y-153614D02*
D03*
D146*
X602000Y-292433D02*
D03*
X324821Y-184512D02*
D03*
X372000Y-255933D02*
D03*
X357000Y-254880D02*
D03*
X360747Y-257180D02*
D03*
X359000Y-252433D02*
D03*
X415097Y-87768D02*
D03*
X417875Y-92461D02*
D03*
X471067Y-254934D02*
D03*
X393000Y-254433D02*
D03*
X395000Y-266433D02*
D03*
X410000Y-264433D02*
D03*
X408000Y-250433D02*
D03*
X394797Y-238615D02*
D03*
X409000Y-240433D02*
D03*
X408997Y-245361D02*
D03*
X418708Y-271009D02*
D03*
X374773Y-242663D02*
D03*
X385672Y-240105D02*
D03*
X274455Y-188248D02*
D03*
X21000Y-290433D02*
D03*
X53000Y-43433D02*
D03*
X29500Y-40433D02*
D03*
X44000Y-44433D02*
D03*
X305134Y-203631D02*
D03*
X47000Y-149433D02*
D03*
X298855Y-202524D02*
D03*
X217645Y-51715D02*
D03*
X173000Y-48433D02*
D03*
X177000D02*
D03*
X132990Y-32002D02*
D03*
X174000Y-42433D02*
D03*
X169000D02*
D03*
X231350Y-280933D02*
D03*
X231395Y-286813D02*
D03*
X308306Y-286753D02*
D03*
X311722Y-280933D02*
D03*
X412691Y-286907D02*
D03*
X460000Y-274433D02*
D03*
X492032Y-286618D02*
D03*
X221511Y-45500D02*
D03*
X300000Y-53433D02*
D03*
X301640Y-45421D02*
D03*
X443919Y-59014D02*
D03*
X489285Y-45657D02*
D03*
X489000Y-51433D02*
D03*
X411572Y-51937D02*
D03*
X411431Y-46104D02*
D03*
X195000Y-274433D02*
D03*
X275579Y-274290D02*
D03*
X380321Y-274604D02*
D03*
X522199Y-58710D02*
D03*
X254678Y-59010D02*
D03*
X334426Y-58952D02*
D03*
X376599Y-144950D02*
D03*
X373734Y-152610D02*
D03*
X379000Y-155433D02*
D03*
X386126Y-140840D02*
D03*
X379943Y-96490D02*
D03*
X383000Y-99433D02*
D03*
X379965Y-71512D02*
D03*
X348942Y-156542D02*
D03*
X357329Y-177232D02*
D03*
X18723Y-233808D02*
D03*
X22000Y-237433D02*
D03*
Y-230433D02*
D03*
X150500Y-289433D02*
D03*
X157750D02*
D03*
X47471Y-127063D02*
D03*
X634000Y-208433D02*
D03*
X415618Y-160062D02*
D03*
X287000Y-157433D02*
D03*
X280646Y-158490D02*
D03*
X281700Y-150339D02*
D03*
X639905Y-280366D02*
D03*
X638640Y-295827D02*
D03*
X493446Y-279038D02*
D03*
X414491Y-279038D02*
D03*
X41621Y-125522D02*
D03*
X85000Y-122528D02*
D03*
X109021Y-121954D02*
D03*
X337981Y-81160D02*
D03*
X348237Y-80512D02*
D03*
X302000Y-64433D02*
D03*
X325000Y-65433D02*
D03*
X325948Y-77341D02*
D03*
X311000Y-65433D02*
D03*
X326000Y-81433D02*
D03*
X317000Y-65433D02*
D03*
X283000Y-215433D02*
D03*
X385000Y-93433D02*
D03*
X290000Y-241433D02*
D03*
X351000Y-195433D02*
D03*
X308000Y-238433D02*
D03*
X310500Y-234433D02*
D03*
X282000Y-230433D02*
D03*
X291000Y-221433D02*
D03*
X334000Y-183433D02*
D03*
X301258Y-186382D02*
D03*
X301330Y-189956D02*
D03*
X303760Y-178241D02*
D03*
X294000Y-190433D02*
D03*
X289579Y-190754D02*
D03*
X293000Y-225433D02*
D03*
X285000Y-226433D02*
D03*
X319000Y-189433D02*
D03*
X335000Y-179433D02*
D03*
X327000D02*
D03*
X324547Y-175870D02*
D03*
X320313Y-175297D02*
D03*
X316000Y-175433D02*
D03*
X330789Y-189102D02*
D03*
X336000Y-198433D02*
D03*
X324098Y-190020D02*
D03*
X418000Y-244433D02*
D03*
X511000Y-113433D02*
D03*
X516000Y-107433D02*
D03*
X181000Y-118433D02*
D03*
X174000D02*
D03*
X157498Y-158433D02*
D03*
X161000Y-162433D02*
D03*
X173000Y-159433D02*
D03*
X184000Y-166433D02*
D03*
X195891Y-164433D02*
D03*
X204527Y-190896D02*
D03*
X368216Y-89811D02*
D03*
X369134Y-86110D02*
D03*
X371134Y-82110D02*
D03*
X374134Y-80110D02*
D03*
X386464Y-82328D02*
D03*
X385357Y-77147D02*
D03*
X367000Y-201433D02*
D03*
X371000Y-204433D02*
D03*
X512000Y-210433D02*
D03*
X510000Y-206433D02*
D03*
X279000Y-258433D02*
D03*
X282000Y-256433D02*
D03*
X284000Y-252433D02*
D03*
X284918Y-248733D02*
D03*
X314134Y-248197D02*
D03*
X313216Y-251897D02*
D03*
X331000Y-244433D02*
D03*
X359918Y-248733D02*
D03*
X444134Y-72433D02*
D03*
X441134Y-74433D02*
D03*
X439134Y-78433D02*
D03*
X438216Y-82133D02*
D03*
X249134Y-72433D02*
D03*
X246134Y-74433D02*
D03*
X244134Y-78433D02*
D03*
X243216Y-82133D02*
D03*
X409000Y-96346D02*
D03*
X412000Y-94346D02*
D03*
X474918Y-248733D02*
D03*
X474000Y-252433D02*
D03*
X469000Y-258433D02*
D03*
X330000Y-75346D02*
D03*
X334000Y-85347D02*
D03*
X408237Y-80512D02*
D03*
X390000Y-75346D02*
D03*
X394000Y-85347D02*
D03*
X397981Y-81160D02*
D03*
X397000Y-250433D02*
D03*
X390000Y-237433D02*
D03*
X353237Y-242599D02*
D03*
X335000Y-237433D02*
D03*
X339000Y-247433D02*
D03*
X342390Y-243549D02*
D03*
X330672Y-240105D02*
D03*
X335423Y-133435D02*
D03*
X138363Y-57872D02*
D03*
X26500Y-49933D02*
D03*
X355500Y-180433D02*
D03*
X355000Y-184433D02*
D03*
X352000Y-186933D02*
D03*
X131000Y-60433D02*
D03*
X146000Y-101933D02*
D03*
X69500Y-68433D02*
D03*
X72473Y-77277D02*
D03*
X61156Y-77556D02*
D03*
X48669Y-49010D02*
D03*
X22000Y-44433D02*
D03*
X248000Y-202933D02*
D03*
X248500Y-196433D02*
D03*
X275500Y-143433D02*
D03*
X252500D02*
D03*
X300500Y-161433D02*
D03*
X269500Y-183933D02*
D03*
X537000Y-259933D02*
D03*
X261387Y-178081D02*
D03*
X520023Y-185009D02*
D03*
X515500Y-187933D02*
D03*
X534500Y-289933D02*
D03*
Y-284933D02*
D03*
Y-279933D02*
D03*
X405744Y-197392D02*
D03*
X385613Y-197284D02*
D03*
X586500Y-199373D02*
D03*
X566999Y-162625D02*
D03*
X577500Y-173933D02*
D03*
X400500Y-160433D02*
D03*
X581500Y-177933D02*
D03*
X584314Y-218714D02*
D03*
X587000Y-214433D02*
D03*
X584510Y-210427D02*
D03*
X582000Y-206433D02*
D03*
X581000Y-201433D02*
D03*
X562000Y-165433D02*
D03*
X570592Y-157892D02*
D03*
X575000Y-152433D02*
D03*
X634500Y-203433D02*
D03*
X639000Y-50433D02*
D03*
X644000D02*
D03*
X634000Y-51433D02*
D03*
X636000Y-58933D02*
D03*
X643500D02*
D03*
X457650Y-236958D02*
D03*
X443650Y-258958D02*
D03*
X445150Y-250458D02*
D03*
X467650Y-239958D02*
D03*
X445150Y-240958D02*
D03*
X449650D02*
D03*
X267650Y-236958D02*
D03*
X253650Y-258958D02*
D03*
X255150Y-250458D02*
D03*
X277650Y-239958D02*
D03*
X255150Y-240958D02*
D03*
X259650D02*
D03*
X455484Y-93908D02*
D03*
X469484Y-71908D02*
D03*
X467984Y-80408D02*
D03*
X445484Y-90908D02*
D03*
X467984Y-89908D02*
D03*
X463484D02*
D03*
X268484D02*
D03*
X272984D02*
D03*
X250484Y-90908D02*
D03*
X272984Y-80408D02*
D03*
X274484Y-71908D02*
D03*
X260484Y-93908D02*
D03*
X94357Y-237600D02*
D03*
X98527Y-228930D02*
D03*
X98677Y-237600D02*
D03*
X114307Y-218900D02*
D03*
X82677Y-217560D02*
D03*
X109847Y-237460D02*
D03*
X105677Y-230690D02*
D03*
X105627Y-237460D02*
D03*
X109780Y-221856D02*
D03*
X82887Y-222920D02*
D03*
X112827Y-231290D02*
D03*
X115507Y-225010D02*
D03*
X82857Y-228620D02*
D03*
X125387Y-234998D02*
D03*
X131360D02*
D03*
X125387Y-228010D02*
D03*
X131360D02*
D03*
X125387Y-207045D02*
D03*
X131360D02*
D03*
X125387Y-214033D02*
D03*
Y-221022D02*
D03*
X131360Y-214033D02*
D03*
Y-221022D02*
D03*
X137333Y-234998D02*
D03*
Y-207045D02*
D03*
Y-228010D02*
D03*
Y-214033D02*
D03*
Y-221022D02*
D03*
X82887Y-211920D02*
D03*
X93337Y-211780D02*
D03*
X102521Y-207873D02*
D03*
X106942Y-214318D02*
D03*
X85769Y-210017D02*
D03*
X33000Y-156433D02*
D03*
X28500D02*
D03*
X27500Y-166933D02*
D03*
X35500Y-163933D02*
D03*
X33500Y-166933D02*
D03*
X37375Y-156719D02*
D03*
X36036Y-151234D02*
D03*
X80500Y-167933D02*
D03*
Y-173433D02*
D03*
X75500D02*
D03*
X70500D02*
D03*
Y-167933D02*
D03*
Y-162933D02*
D03*
Y-157433D02*
D03*
X75500D02*
D03*
X80500D02*
D03*
Y-162933D02*
D03*
X56000Y-163933D02*
D03*
X56029Y-157481D02*
D03*
X51126Y-166443D02*
D03*
X45000Y-166433D02*
D03*
Y-154933D02*
D03*
X40257Y-144768D02*
D03*
X40321Y-141456D02*
D03*
X100000Y-136933D02*
D03*
X99132Y-157004D02*
D03*
X96608Y-148718D02*
D03*
X94164Y-157359D02*
D03*
X101079Y-148449D02*
D03*
X93079Y-149449D02*
D03*
X98079Y-184449D02*
D03*
X104079D02*
D03*
X87079D02*
D03*
X92934Y-184562D02*
D03*
X104942Y-136822D02*
D03*
X100550Y-131117D02*
D03*
X103079Y-123449D02*
D03*
X97079Y-124449D02*
D03*
X99079Y-172449D02*
D03*
X90011Y-125306D02*
D03*
X109079Y-133449D02*
D03*
X73079Y-133949D02*
D03*
X80079Y-129949D02*
D03*
X65931Y-138190D02*
D03*
X67579Y-145949D02*
D03*
X81079D02*
D03*
Y-138949D02*
D03*
X80079Y-124949D02*
D03*
X94579Y-135949D02*
D03*
X66079Y-131949D02*
D03*
X81000Y-110933D02*
D03*
X419000Y-193433D02*
D03*
X415650Y-181543D02*
D03*
Y-170913D02*
D03*
X413287Y-187449D02*
D03*
X408957Y-179969D02*
D03*
X393996Y-145323D02*
D03*
X390453Y-153197D02*
D03*
X399012Y-145596D02*
D03*
X403978Y-145685D02*
D03*
X409256Y-145953D02*
D03*
X410067Y-158429D02*
D03*
X404567Y-158247D02*
D03*
X286355Y-202024D02*
D03*
X280855Y-207524D02*
D03*
X293855Y-207024D02*
D03*
X224500Y-132433D02*
D03*
X224000Y-201933D02*
D03*
X326066Y-157343D02*
D03*
X331972D02*
D03*
X299580Y-180895D02*
D03*
X300589Y-176085D02*
D03*
X305594Y-161279D02*
D03*
X300082Y-147894D02*
D03*
X309137Y-144744D02*
D03*
X296471Y-150527D02*
D03*
X290633Y-150650D02*
D03*
Y-142776D02*
D03*
X296932D02*
D03*
X279609Y-186476D02*
D03*
X337877Y-150650D02*
D03*
X342602D02*
D03*
X337484Y-142382D02*
D03*
X342995D02*
D03*
X309050Y-155392D02*
D03*
X288271Y-169547D02*
D03*
X283200Y-143433D02*
D03*
X327046Y-136879D02*
D03*
X333744Y-144179D02*
D03*
X345066Y-158746D02*
D03*
X331568Y-134088D02*
D03*
X319700Y-132933D02*
D03*
X316303Y-135720D02*
D03*
X302700Y-155433D02*
D03*
X66500Y-216933D02*
D03*
X61500D02*
D03*
X45000Y-214433D02*
D03*
X51500Y-215433D02*
D03*
X78500Y-241433D02*
D03*
Y-247933D02*
D03*
Y-253933D02*
D03*
X70000D02*
D03*
X62500D02*
D03*
X56500Y-236933D02*
D03*
X27500Y-241433D02*
D03*
X48000Y-232933D02*
D03*
X40000Y-241433D02*
D03*
Y-232933D02*
D03*
X54500Y-256933D02*
D03*
X40000D02*
D03*
X54500Y-249433D02*
D03*
X40000D02*
D03*
X27500D02*
D03*
X16000Y-299433D02*
D03*
X159500Y-236933D02*
D03*
X151000Y-233433D02*
D03*
X157750Y-256233D02*
D03*
Y-272833D02*
D03*
Y-281133D02*
D03*
Y-247933D02*
D03*
Y-264533D02*
D03*
X150500Y-247933D02*
D03*
Y-281133D02*
D03*
Y-272833D02*
D03*
Y-264533D02*
D03*
Y-256233D02*
D03*
X165000Y-281133D02*
D03*
Y-272833D02*
D03*
Y-264533D02*
D03*
Y-256233D02*
D03*
Y-247933D02*
D03*
Y-289433D02*
D03*
X117500Y-265933D02*
D03*
Y-272433D02*
D03*
X113268Y-250410D02*
D03*
X101768Y-254909D02*
D03*
X113268Y-259910D02*
D03*
X101768Y-265409D02*
D03*
X113000Y-272433D02*
D03*
X101500Y-277933D02*
D03*
X113000Y-282933D02*
D03*
X101500Y-287433D02*
D03*
X637000Y-125433D02*
D03*
X638848Y-133782D02*
D03*
X541860Y-257292D02*
D03*
X534000Y-254933D02*
D03*
X548164Y-230323D02*
D03*
X540516Y-235047D02*
D03*
X558119Y-237240D02*
D03*
X568692Y-237353D02*
D03*
X622000Y-228933D02*
D03*
X623000Y-277433D02*
D03*
X631000Y-286433D02*
D03*
X625500Y-281433D02*
D03*
X624000Y-289933D02*
D03*
X631239Y-294788D02*
D03*
X573882Y-260620D02*
D03*
X579394D02*
D03*
X589236D02*
D03*
X583724D02*
D03*
X599079D02*
D03*
X593567D02*
D03*
X599079Y-270463D02*
D03*
X593567D02*
D03*
X589236D02*
D03*
X583724D02*
D03*
X579394D02*
D03*
X573882D02*
D03*
X579394Y-280305D02*
D03*
X573882D02*
D03*
X589236D02*
D03*
X583724D02*
D03*
X599079D02*
D03*
X593567D02*
D03*
X541760Y-300073D02*
D03*
X634520Y-280400D02*
D03*
X621817Y-294928D02*
D03*
X610102Y-294872D02*
D03*
X622928Y-234811D02*
D03*
X604984Y-224400D02*
D03*
X566008Y-224006D02*
D03*
X560085Y-223683D02*
D03*
D169*
X416043Y-177606D02*
D03*
X76000Y-139933D02*
D03*
D170*
X416043Y-190598D02*
D03*
X76000Y-126941D02*
D03*
D171*
X130055Y-210659D02*
D03*
X114307D02*
D03*
D172*
X129367Y-220118D02*
D03*
D173*
X75020Y-129140D02*
D03*
D174*
X98329Y-127449D02*
D03*
D175*
X101579Y-133449D02*
D03*
D176*
X138500Y-269183D02*
D03*
M02*
