G04*
G04 #@! TF.GenerationSoftware,Altium Limited,Altium Designer,18.1.7 (191)*
G04*
G04 Layer_Color=65535*
%FSLAX25Y25*%
%MOIN*%
G70*
G01*
G75*
%ADD10C,0.00787*%
%ADD11C,0.00394*%
%ADD12C,0.00984*%
%ADD13C,0.01000*%
%ADD14C,0.01500*%
%ADD15C,0.00800*%
%ADD16C,0.00500*%
%ADD17C,0.05000*%
G36*
X594713Y-50053D02*
X594718Y-50058D01*
X594723Y-50071D01*
X594727Y-50090D01*
X594750Y-50136D01*
X594778Y-50201D01*
X594815Y-50279D01*
X594866Y-50367D01*
X594931Y-50464D01*
X595004Y-50566D01*
X595009Y-50570D01*
X595014Y-50580D01*
X595027Y-50593D01*
X595046Y-50612D01*
X595092Y-50663D01*
X595152Y-50718D01*
X595226Y-50783D01*
X595319Y-50848D01*
X595416Y-50908D01*
X595522Y-50954D01*
Y-51453D01*
X592306D01*
Y-50838D01*
X594621D01*
X594616Y-50834D01*
X594607Y-50824D01*
X594593Y-50806D01*
X594570Y-50778D01*
X594542Y-50746D01*
X594515Y-50709D01*
X594482Y-50663D01*
X594445Y-50612D01*
X594408Y-50556D01*
X594371Y-50496D01*
X594330Y-50432D01*
X594293Y-50362D01*
X594224Y-50215D01*
X594159Y-50048D01*
X594713D01*
Y-50053D01*
D02*
G37*
G36*
X600254D02*
X600277Y-50058D01*
X600305Y-50062D01*
X600337Y-50067D01*
X600420Y-50085D01*
X600513Y-50113D01*
X600614Y-50150D01*
X600725Y-50196D01*
X600831Y-50256D01*
X600836D01*
X600845Y-50265D01*
X600864Y-50275D01*
X600882Y-50293D01*
X600914Y-50312D01*
X600947Y-50339D01*
X600988Y-50372D01*
X601035Y-50409D01*
X601090Y-50450D01*
X601146Y-50501D01*
X601210Y-50556D01*
X601279Y-50621D01*
X601349Y-50690D01*
X601427Y-50769D01*
X601510Y-50852D01*
X601598Y-50945D01*
X601603Y-50949D01*
X601617Y-50963D01*
X601635Y-50981D01*
X601663Y-51009D01*
X601691Y-51046D01*
X601728Y-51083D01*
X601811Y-51166D01*
X601899Y-51249D01*
X601986Y-51333D01*
X602023Y-51370D01*
X602065Y-51407D01*
X602097Y-51434D01*
X602125Y-51453D01*
X602134Y-51457D01*
X602157Y-51471D01*
X602194Y-51494D01*
X602245Y-51517D01*
X602301Y-51540D01*
X602365Y-51564D01*
X602430Y-51578D01*
X602499Y-51582D01*
X602504D01*
X602508D01*
X602531D01*
X602573Y-51578D01*
X602619Y-51568D01*
X602670Y-51554D01*
X602721Y-51536D01*
X602772Y-51508D01*
X602818Y-51471D01*
X602823Y-51467D01*
X602836Y-51453D01*
X602855Y-51425D01*
X602873Y-51393D01*
X602892Y-51346D01*
X602910Y-51296D01*
X602924Y-51236D01*
X602929Y-51166D01*
Y-51134D01*
X602924Y-51097D01*
X602915Y-51055D01*
X602901Y-51005D01*
X602878Y-50954D01*
X602850Y-50903D01*
X602813Y-50857D01*
X602809Y-50852D01*
X602790Y-50838D01*
X602763Y-50820D01*
X602721Y-50801D01*
X602670Y-50778D01*
X602601Y-50760D01*
X602522Y-50741D01*
X602430Y-50732D01*
X602490Y-50122D01*
X602494D01*
X602513Y-50127D01*
X602536D01*
X602573Y-50136D01*
X602615Y-50141D01*
X602661Y-50155D01*
X602712Y-50168D01*
X602772Y-50182D01*
X602887Y-50228D01*
X603007Y-50284D01*
X603067Y-50321D01*
X603123Y-50362D01*
X603169Y-50409D01*
X603215Y-50459D01*
X603220Y-50464D01*
X603225Y-50473D01*
X603234Y-50487D01*
X603252Y-50510D01*
X603266Y-50538D01*
X603285Y-50575D01*
X603308Y-50612D01*
X603326Y-50658D01*
X603349Y-50709D01*
X603368Y-50764D01*
X603405Y-50884D01*
X603428Y-51028D01*
X603432Y-51102D01*
X603437Y-51180D01*
Y-51226D01*
X603432Y-51259D01*
X603428Y-51300D01*
X603423Y-51346D01*
X603414Y-51397D01*
X603405Y-51453D01*
X603372Y-51573D01*
X603326Y-51693D01*
X603298Y-51758D01*
X603266Y-51813D01*
X603225Y-51873D01*
X603178Y-51924D01*
X603174Y-51929D01*
X603169Y-51938D01*
X603151Y-51947D01*
X603132Y-51966D01*
X603109Y-51989D01*
X603077Y-52012D01*
X603044Y-52035D01*
X603003Y-52063D01*
X602910Y-52109D01*
X602804Y-52155D01*
X602744Y-52174D01*
X602679Y-52183D01*
X602610Y-52192D01*
X602541Y-52197D01*
X602531D01*
X602504D01*
X602462Y-52192D01*
X602411Y-52187D01*
X602347Y-52178D01*
X602277Y-52164D01*
X602204Y-52146D01*
X602130Y-52118D01*
X602120Y-52113D01*
X602097Y-52104D01*
X602056Y-52086D01*
X602005Y-52058D01*
X601945Y-52026D01*
X601875Y-51984D01*
X601801Y-51933D01*
X601723Y-51873D01*
X601718Y-51869D01*
X601695Y-51850D01*
X601663Y-51822D01*
X601617Y-51781D01*
X601561Y-51725D01*
X601487Y-51656D01*
X601409Y-51573D01*
X601312Y-51471D01*
X601307Y-51467D01*
X601303Y-51457D01*
X601289Y-51443D01*
X601270Y-51425D01*
X601224Y-51374D01*
X601169Y-51314D01*
X601109Y-51254D01*
X601049Y-51194D01*
X600998Y-51139D01*
X600975Y-51120D01*
X600956Y-51102D01*
X600951Y-51097D01*
X600942Y-51088D01*
X600924Y-51074D01*
X600901Y-51055D01*
X600850Y-51014D01*
X600790Y-50977D01*
Y-52197D01*
X600221D01*
Y-50048D01*
X600226D01*
X600235D01*
X600254Y-50053D01*
D02*
G37*
G36*
X603031Y-215383D02*
Y-215901D01*
X600998D01*
Y-216298D01*
X600462D01*
Y-215901D01*
X599820D01*
Y-215310D01*
X600462D01*
Y-213997D01*
X600994D01*
X603031Y-215383D01*
D02*
G37*
G36*
X601548Y-216594D02*
X601622Y-216599D01*
X601710Y-216608D01*
X601802Y-216617D01*
X601904Y-216626D01*
X602010Y-216645D01*
X602116Y-216663D01*
X602227Y-216691D01*
X602333Y-216719D01*
X602435Y-216756D01*
X602532Y-216797D01*
X602625Y-216843D01*
X602703Y-216899D01*
X602708Y-216903D01*
X602717Y-216913D01*
X602735Y-216927D01*
X602754Y-216950D01*
X602782Y-216973D01*
X602809Y-217005D01*
X602837Y-217047D01*
X602869Y-217088D01*
X602902Y-217139D01*
X602929Y-217190D01*
X602957Y-217250D01*
X602985Y-217315D01*
X603003Y-217384D01*
X603022Y-217462D01*
X603031Y-217541D01*
X603036Y-217624D01*
Y-217670D01*
X603031Y-217703D01*
X603026Y-217740D01*
X603017Y-217786D01*
X603008Y-217832D01*
X602994Y-217887D01*
X602976Y-217948D01*
X602953Y-218003D01*
X602929Y-218063D01*
X602897Y-218123D01*
X602856Y-218183D01*
X602814Y-218243D01*
X602763Y-218299D01*
X602703Y-218349D01*
X602699Y-218354D01*
X602685Y-218363D01*
X602662Y-218377D01*
X602629Y-218400D01*
X602583Y-218423D01*
X602528Y-218451D01*
X602467Y-218479D01*
X602389Y-218507D01*
X602306Y-218534D01*
X602209Y-218567D01*
X602103Y-218590D01*
X601982Y-218613D01*
X601853Y-218636D01*
X601714Y-218650D01*
X601562Y-218659D01*
X601396Y-218664D01*
X601391D01*
X601386D01*
X601372D01*
X601354D01*
X601308D01*
X601248Y-218659D01*
X601174Y-218654D01*
X601086Y-218645D01*
X600994Y-218636D01*
X600892Y-218627D01*
X600786Y-218608D01*
X600675Y-218585D01*
X600569Y-218562D01*
X600462Y-218530D01*
X600356Y-218497D01*
X600259Y-218451D01*
X600167Y-218405D01*
X600088Y-218349D01*
X600084Y-218345D01*
X600074Y-218336D01*
X600056Y-218322D01*
X600037Y-218303D01*
X600014Y-218275D01*
X599987Y-218243D01*
X599954Y-218202D01*
X599927Y-218160D01*
X599894Y-218109D01*
X599862Y-218058D01*
X599834Y-217998D01*
X599811Y-217934D01*
X599792Y-217864D01*
X599774Y-217786D01*
X599765Y-217707D01*
X599760Y-217624D01*
Y-217606D01*
X599765Y-217578D01*
Y-217546D01*
X599769Y-217509D01*
X599779Y-217462D01*
X599788Y-217412D01*
X599806Y-217356D01*
X599825Y-217296D01*
X599848Y-217236D01*
X599876Y-217171D01*
X599913Y-217111D01*
X599950Y-217047D01*
X600000Y-216986D01*
X600051Y-216927D01*
X600116Y-216871D01*
X600120Y-216866D01*
X600134Y-216857D01*
X600157Y-216843D01*
X600185Y-216829D01*
X600227Y-216806D01*
X600278Y-216783D01*
X600342Y-216756D01*
X600412Y-216732D01*
X600495Y-216705D01*
X600587Y-216677D01*
X600693Y-216654D01*
X600809Y-216635D01*
X600938Y-216617D01*
X601082Y-216603D01*
X601234Y-216594D01*
X601400Y-216589D01*
X601405D01*
X601409D01*
X601423D01*
X601442D01*
X601488D01*
X601548Y-216594D01*
D02*
G37*
G36*
X593013Y-214589D02*
X593009D01*
X593004D01*
X592976Y-214593D01*
X592935Y-214603D01*
X592884Y-214616D01*
X592829Y-214640D01*
X592768Y-214663D01*
X592713Y-214700D01*
X592662Y-214741D01*
X592658Y-214746D01*
X592644Y-214764D01*
X592625Y-214792D01*
X592607Y-214824D01*
X592584Y-214871D01*
X592565Y-214921D01*
X592551Y-214977D01*
X592547Y-215041D01*
Y-215051D01*
X592551Y-215074D01*
X592556Y-215106D01*
X592565Y-215152D01*
X592584Y-215203D01*
X592607Y-215254D01*
X592644Y-215310D01*
X592690Y-215360D01*
X592695Y-215365D01*
X592718Y-215383D01*
X592750Y-215402D01*
X592792Y-215430D01*
X592847Y-215453D01*
X592916Y-215476D01*
X592995Y-215490D01*
X593083Y-215494D01*
X593087D01*
X593092D01*
X593120D01*
X593161Y-215490D01*
X593217Y-215480D01*
X593277Y-215462D01*
X593337Y-215439D01*
X593397Y-215406D01*
X593452Y-215365D01*
X593457Y-215360D01*
X593475Y-215342D01*
X593499Y-215314D01*
X593522Y-215282D01*
X593549Y-215236D01*
X593568Y-215185D01*
X593586Y-215129D01*
X593591Y-215065D01*
Y-215018D01*
X593586Y-214986D01*
X593582Y-214945D01*
X593572Y-214894D01*
X593559Y-214843D01*
X593545Y-214783D01*
X594039Y-214847D01*
Y-214889D01*
X594044Y-214935D01*
X594048Y-214991D01*
X594062Y-215051D01*
X594081Y-215115D01*
X594108Y-215176D01*
X594145Y-215231D01*
X594150Y-215236D01*
X594168Y-215254D01*
X594192Y-215272D01*
X594228Y-215300D01*
X594270Y-215323D01*
X594321Y-215346D01*
X594381Y-215360D01*
X594450Y-215365D01*
X594459D01*
X594478D01*
X594506Y-215360D01*
X594543Y-215351D01*
X594584Y-215342D01*
X594626Y-215323D01*
X594672Y-215300D01*
X594709Y-215268D01*
X594713Y-215263D01*
X594723Y-215249D01*
X594741Y-215231D01*
X594760Y-215199D01*
X594774Y-215162D01*
X594792Y-215120D01*
X594801Y-215065D01*
X594806Y-215009D01*
Y-214981D01*
X594801Y-214954D01*
X594792Y-214917D01*
X594778Y-214875D01*
X594760Y-214829D01*
X594732Y-214783D01*
X594695Y-214741D01*
X594690Y-214737D01*
X594677Y-214723D01*
X594649Y-214704D01*
X594612Y-214681D01*
X594570Y-214658D01*
X594515Y-214640D01*
X594450Y-214621D01*
X594376Y-214607D01*
X594469Y-214044D01*
X594473D01*
X594483Y-214048D01*
X594496D01*
X594520Y-214053D01*
X594570Y-214067D01*
X594640Y-214085D01*
X594713Y-214113D01*
X594792Y-214141D01*
X594866Y-214178D01*
X594935Y-214219D01*
X594944Y-214224D01*
X594963Y-214242D01*
X594995Y-214270D01*
X595037Y-214307D01*
X595079Y-214353D01*
X595125Y-214409D01*
X595171Y-214478D01*
X595213Y-214552D01*
Y-214556D01*
X595217Y-214561D01*
X595226Y-214589D01*
X595245Y-214635D01*
X595263Y-214690D01*
X595282Y-214760D01*
X595300Y-214843D01*
X595309Y-214931D01*
X595314Y-215028D01*
Y-215069D01*
X595309Y-215102D01*
X595305Y-215143D01*
X595300Y-215185D01*
X595291Y-215236D01*
X595277Y-215286D01*
X595245Y-215402D01*
X595222Y-215462D01*
X595189Y-215527D01*
X595157Y-215587D01*
X595120Y-215642D01*
X595074Y-215702D01*
X595023Y-215753D01*
X595018Y-215758D01*
X595014Y-215762D01*
X595000Y-215776D01*
X594981Y-215790D01*
X594935Y-215827D01*
X594871Y-215868D01*
X594792Y-215910D01*
X594700Y-215942D01*
X594598Y-215970D01*
X594547Y-215975D01*
X594492Y-215979D01*
X594487D01*
X594473D01*
X594450Y-215975D01*
X594422Y-215970D01*
X594385Y-215966D01*
X594344Y-215956D01*
X594298Y-215942D01*
X594247Y-215924D01*
X594196Y-215896D01*
X594141Y-215868D01*
X594085Y-215831D01*
X594030Y-215785D01*
X593974Y-215730D01*
X593919Y-215670D01*
X593868Y-215600D01*
X593817Y-215517D01*
Y-215522D01*
X593813Y-215531D01*
Y-215545D01*
X593803Y-215564D01*
X593789Y-215614D01*
X593762Y-215674D01*
X593725Y-215744D01*
X593679Y-215818D01*
X593619Y-215892D01*
X593549Y-215956D01*
X593540Y-215966D01*
X593512Y-215984D01*
X593471Y-216007D01*
X593411Y-216039D01*
X593341Y-216072D01*
X593254Y-216095D01*
X593161Y-216113D01*
X593055Y-216123D01*
X593050D01*
X593037D01*
X593013D01*
X592986Y-216118D01*
X592949Y-216113D01*
X592907Y-216104D01*
X592856Y-216095D01*
X592805Y-216086D01*
X592695Y-216049D01*
X592634Y-216021D01*
X592570Y-215993D01*
X592510Y-215956D01*
X592450Y-215915D01*
X592390Y-215868D01*
X592334Y-215813D01*
X592330Y-215808D01*
X592320Y-215799D01*
X592307Y-215781D01*
X592288Y-215758D01*
X592265Y-215725D01*
X592242Y-215693D01*
X592214Y-215647D01*
X592186Y-215600D01*
X592159Y-215550D01*
X592131Y-215490D01*
X592108Y-215425D01*
X592085Y-215360D01*
X592066Y-215286D01*
X592052Y-215212D01*
X592043Y-215129D01*
X592039Y-215046D01*
Y-215005D01*
X592043Y-214972D01*
X592048Y-214935D01*
X592052Y-214894D01*
X592062Y-214847D01*
X592071Y-214792D01*
X592099Y-214681D01*
X592145Y-214561D01*
X592172Y-214496D01*
X592205Y-214441D01*
X592246Y-214381D01*
X592288Y-214325D01*
X592293Y-214321D01*
X592302Y-214312D01*
X592316Y-214298D01*
X592334Y-214279D01*
X592357Y-214256D01*
X592390Y-214233D01*
X592422Y-214205D01*
X592464Y-214178D01*
X592510Y-214150D01*
X592556Y-214118D01*
X592667Y-214067D01*
X592796Y-214025D01*
X592866Y-214007D01*
X592940Y-213997D01*
X593013Y-214589D01*
D02*
G37*
G36*
X594307Y-216464D02*
X594349Y-216469D01*
X594395Y-216474D01*
X594450Y-216483D01*
X594506Y-216497D01*
X594630Y-216529D01*
X594700Y-216552D01*
X594764Y-216580D01*
X594829Y-216612D01*
X594894Y-216654D01*
X594954Y-216695D01*
X595014Y-216746D01*
X595018Y-216751D01*
X595028Y-216760D01*
X595042Y-216774D01*
X595060Y-216797D01*
X595083Y-216829D01*
X595111Y-216862D01*
X595134Y-216903D01*
X595166Y-216950D01*
X595194Y-216996D01*
X595217Y-217056D01*
X595245Y-217116D01*
X595268Y-217181D01*
X595286Y-217250D01*
X595300Y-217324D01*
X595309Y-217398D01*
X595314Y-217481D01*
Y-217504D01*
X595309Y-217527D01*
Y-217564D01*
X595305Y-217606D01*
X595296Y-217652D01*
X595282Y-217707D01*
X595268Y-217763D01*
X595245Y-217827D01*
X595222Y-217892D01*
X595189Y-217957D01*
X595152Y-218026D01*
X595111Y-218091D01*
X595060Y-218155D01*
X595000Y-218220D01*
X594935Y-218280D01*
X594931Y-218285D01*
X594917Y-218294D01*
X594894Y-218308D01*
X594861Y-218331D01*
X594820Y-218354D01*
X594769Y-218382D01*
X594709Y-218409D01*
X594640Y-218437D01*
X594557Y-218465D01*
X594464Y-218497D01*
X594362Y-218520D01*
X594251Y-218544D01*
X594127Y-218567D01*
X593993Y-218580D01*
X593850Y-218590D01*
X593692Y-218594D01*
X593688D01*
X593683D01*
X593669D01*
X593656D01*
X593609D01*
X593549Y-218590D01*
X593475Y-218585D01*
X593392Y-218576D01*
X593304Y-218567D01*
X593207Y-218553D01*
X593101Y-218534D01*
X593000Y-218516D01*
X592893Y-218488D01*
X592787Y-218456D01*
X592690Y-218419D01*
X592593Y-218373D01*
X592505Y-218326D01*
X592427Y-218266D01*
X592422Y-218262D01*
X592408Y-218252D01*
X592390Y-218234D01*
X592367Y-218206D01*
X592339Y-218174D01*
X592302Y-218137D01*
X592270Y-218091D01*
X592233Y-218040D01*
X592196Y-217985D01*
X592163Y-217920D01*
X592131Y-217850D01*
X592099Y-217776D01*
X592075Y-217693D01*
X592057Y-217610D01*
X592043Y-217522D01*
X592039Y-217425D01*
Y-217389D01*
X592043Y-217365D01*
Y-217333D01*
X592048Y-217296D01*
X592062Y-217208D01*
X592089Y-217111D01*
X592122Y-217014D01*
X592172Y-216913D01*
X592200Y-216866D01*
X592237Y-216820D01*
X592242Y-216816D01*
X592246Y-216811D01*
X592260Y-216797D01*
X592274Y-216783D01*
X592297Y-216765D01*
X592320Y-216742D01*
X592353Y-216723D01*
X592385Y-216695D01*
X592427Y-216672D01*
X592468Y-216645D01*
X592519Y-216621D01*
X592575Y-216599D01*
X592630Y-216575D01*
X592695Y-216557D01*
X592759Y-216538D01*
X592833Y-216525D01*
X592903Y-217116D01*
X592893D01*
X592870Y-217121D01*
X592838Y-217125D01*
X592801Y-217139D01*
X592755Y-217153D01*
X592708Y-217171D01*
X592667Y-217194D01*
X592630Y-217227D01*
X592625Y-217231D01*
X592616Y-217245D01*
X592602Y-217264D01*
X592588Y-217291D01*
X592575Y-217328D01*
X592561Y-217365D01*
X592551Y-217416D01*
X592547Y-217467D01*
Y-217476D01*
X592551Y-217499D01*
X592556Y-217532D01*
X592570Y-217578D01*
X592588Y-217629D01*
X592621Y-217680D01*
X592662Y-217735D01*
X592718Y-217786D01*
X592727Y-217790D01*
X592736Y-217800D01*
X592755Y-217809D01*
X592773Y-217818D01*
X592801Y-217832D01*
X592833Y-217841D01*
X592875Y-217860D01*
X592921Y-217874D01*
X592972Y-217887D01*
X593032Y-217901D01*
X593096Y-217915D01*
X593170Y-217929D01*
X593254Y-217938D01*
X593346Y-217948D01*
X593443Y-217957D01*
X593438Y-217952D01*
X593434Y-217948D01*
X593420Y-217934D01*
X593401Y-217915D01*
X593383Y-217892D01*
X593360Y-217864D01*
X593309Y-217800D01*
X593258Y-217717D01*
X593217Y-217615D01*
X593198Y-217559D01*
X593189Y-217504D01*
X593180Y-217444D01*
X593175Y-217379D01*
Y-217342D01*
X593180Y-217315D01*
X593184Y-217282D01*
X593189Y-217245D01*
X593212Y-217158D01*
X593244Y-217056D01*
X593272Y-217005D01*
X593300Y-216950D01*
X593332Y-216894D01*
X593369Y-216839D01*
X593415Y-216783D01*
X593466Y-216732D01*
X593471Y-216728D01*
X593480Y-216719D01*
X593499Y-216709D01*
X593517Y-216691D01*
X593549Y-216668D01*
X593582Y-216645D01*
X593623Y-216621D01*
X593669Y-216599D01*
X593720Y-216571D01*
X593780Y-216548D01*
X593840Y-216525D01*
X593910Y-216501D01*
X593979Y-216483D01*
X594058Y-216474D01*
X594141Y-216464D01*
X594224Y-216460D01*
X594228D01*
X594247D01*
X594270D01*
X594307Y-216464D01*
D02*
G37*
%LPC*%
G36*
X600998Y-214566D02*
Y-215310D01*
X602098D01*
X600998Y-214566D01*
D02*
G37*
G36*
X601497Y-217236D02*
X601396D01*
X601391D01*
X601372D01*
X601340D01*
X601303D01*
X601257D01*
X601206Y-217241D01*
X601146D01*
X601086Y-217245D01*
X600957Y-217250D01*
X600827Y-217259D01*
X600767Y-217264D01*
X600712Y-217273D01*
X600661Y-217282D01*
X600615Y-217291D01*
X600606Y-217296D01*
X600583Y-217301D01*
X600546Y-217315D01*
X600504Y-217328D01*
X600458Y-217352D01*
X600412Y-217375D01*
X600370Y-217402D01*
X600338Y-217430D01*
X600333Y-217435D01*
X600328Y-217444D01*
X600315Y-217462D01*
X600305Y-217485D01*
X600291Y-217513D01*
X600278Y-217546D01*
X600273Y-217583D01*
X600268Y-217624D01*
Y-217643D01*
X600273Y-217666D01*
X600278Y-217689D01*
X600287Y-217721D01*
X600296Y-217754D01*
X600315Y-217786D01*
X600338Y-217818D01*
X600342Y-217823D01*
X600351Y-217832D01*
X600370Y-217850D01*
X600398Y-217869D01*
X600430Y-217887D01*
X600476Y-217911D01*
X600527Y-217934D01*
X600592Y-217952D01*
X600596D01*
X600601Y-217957D01*
X600620D01*
X600638Y-217961D01*
X600666Y-217966D01*
X600698Y-217971D01*
X600735Y-217980D01*
X600781Y-217985D01*
X600832Y-217989D01*
X600892Y-217998D01*
X600957Y-218003D01*
X601031Y-218007D01*
X601109Y-218012D01*
X601197D01*
X601294Y-218017D01*
X601396D01*
X601400D01*
X601419D01*
X601451D01*
X601488D01*
X601534D01*
X601585Y-218012D01*
X601645D01*
X601705Y-218007D01*
X601834Y-218003D01*
X601959Y-217994D01*
X602019Y-217985D01*
X602079Y-217975D01*
X602130Y-217966D01*
X602172Y-217957D01*
X602176D01*
X602181Y-217952D01*
X602204Y-217948D01*
X602241Y-217934D01*
X602287Y-217920D01*
X602333Y-217897D01*
X602380Y-217874D01*
X602421Y-217846D01*
X602454Y-217818D01*
X602458Y-217813D01*
X602467Y-217804D01*
X602477Y-217786D01*
X602491Y-217763D01*
X602504Y-217735D01*
X602518Y-217703D01*
X602523Y-217666D01*
X602528Y-217624D01*
Y-217606D01*
X602523Y-217583D01*
X602518Y-217559D01*
X602509Y-217527D01*
X602495Y-217495D01*
X602477Y-217458D01*
X602454Y-217425D01*
X602449Y-217421D01*
X602440Y-217412D01*
X602421Y-217398D01*
X602398Y-217379D01*
X602361Y-217356D01*
X602320Y-217338D01*
X602264Y-217315D01*
X602200Y-217296D01*
X602195D01*
X602190Y-217291D01*
X602172D01*
X602153Y-217287D01*
X602126Y-217282D01*
X602093Y-217278D01*
X602056Y-217273D01*
X602010Y-217268D01*
X601955Y-217259D01*
X601899Y-217254D01*
X601830Y-217250D01*
X601761Y-217245D01*
X601678Y-217241D01*
X601594D01*
X601497Y-217236D01*
D02*
G37*
G36*
X594224Y-217060D02*
X594219D01*
X594210D01*
X594196D01*
X594173D01*
X594118Y-217065D01*
X594053Y-217074D01*
X593974Y-217088D01*
X593900Y-217111D01*
X593826Y-217139D01*
X593766Y-217181D01*
X593762Y-217185D01*
X593743Y-217204D01*
X593720Y-217227D01*
X593697Y-217264D01*
X593669Y-217310D01*
X593646Y-217361D01*
X593628Y-217421D01*
X593623Y-217485D01*
Y-217495D01*
X593628Y-217513D01*
X593633Y-217546D01*
X593642Y-217587D01*
X593656Y-217633D01*
X593683Y-217684D01*
X593716Y-217735D01*
X593762Y-217781D01*
X593766Y-217786D01*
X593789Y-217800D01*
X593822Y-217823D01*
X593863Y-217846D01*
X593924Y-217864D01*
X593993Y-217887D01*
X594076Y-217901D01*
X594173Y-217906D01*
X594178D01*
X594187D01*
X594201D01*
X594224D01*
X594275Y-217897D01*
X594344Y-217887D01*
X594418Y-217874D01*
X594496Y-217846D01*
X594570Y-217813D01*
X594640Y-217767D01*
X594649Y-217763D01*
X594667Y-217744D01*
X594690Y-217717D01*
X594723Y-217680D01*
X594755Y-217633D01*
X594778Y-217578D01*
X594797Y-217518D01*
X594806Y-217453D01*
Y-217425D01*
X594797Y-217393D01*
X594788Y-217356D01*
X594774Y-217310D01*
X594746Y-217264D01*
X594713Y-217217D01*
X594667Y-217171D01*
X594663Y-217167D01*
X594640Y-217153D01*
X594607Y-217134D01*
X594561Y-217116D01*
X594501Y-217097D01*
X594422Y-217079D01*
X594330Y-217065D01*
X594224Y-217060D01*
D02*
G37*
%LPD*%
D10*
X454461Y-23287D02*
G03*
X454461Y-24075I0J-394D01*
G01*
D02*
G03*
X454461Y-23287I0J394D01*
G01*
X266713Y-24075D02*
G03*
X266713Y-23287I0J394D01*
G01*
D02*
G03*
X266713Y-24075I0J-394D01*
G01*
X376461Y-23287D02*
G03*
X376461Y-24075I0J-394D01*
G01*
D02*
G03*
X376461Y-23287I0J394D01*
G01*
X343130Y-309784D02*
G03*
X343130Y-308996I0J394D01*
G01*
D02*
G03*
X343130Y-309784I0J-394D01*
G01*
X527290D02*
G03*
X527290Y-308996I0J394D01*
G01*
D02*
G03*
X527290Y-309784I0J-394D01*
G01*
X447368D02*
G03*
X447368Y-308996I0J394D01*
G01*
D02*
G03*
X447368Y-309784I0J-394D01*
G01*
X70496Y-90327D02*
G03*
X70102Y-90327I-197J0D01*
G01*
D02*
G03*
X70496Y-90327I197J0D01*
G01*
D02*
G03*
X70102Y-90327I-197J0D01*
G01*
X186634Y-23287D02*
G03*
X186634Y-24075I0J-394D01*
G01*
D02*
G03*
X186634Y-23287I0J394D01*
G01*
X621882Y-55283D02*
G03*
X621882Y-54496I0J394D01*
G01*
D02*
G03*
X621882Y-55283I0J-394D01*
G01*
X623087Y-299933D02*
G03*
X622693Y-299933I-197J0D01*
G01*
D02*
G03*
X623087Y-299933I197J0D01*
G01*
D02*
G03*
X622693Y-299933I-197J0D01*
G01*
X261870Y-308996D02*
G03*
X261870Y-309784I0J-394D01*
G01*
D02*
G03*
X261870Y-308996I0J394D01*
G01*
X62378Y-269429D02*
G03*
X62772Y-269429I197J0D01*
G01*
D02*
G03*
X62378Y-269429I-197J0D01*
G01*
X36319Y-138260D02*
G03*
X36319Y-139047I0J-394D01*
G01*
D02*
G03*
X36319Y-138260I0J394D01*
G01*
X384283Y-236634D02*
X398850D01*
Y-256319D02*
Y-236634D01*
X384283Y-256319D02*
X398850D01*
X384283D02*
Y-236634D01*
X377097Y-235255D02*
X377098Y-235256D01*
X324284Y-74547D02*
X338850D01*
Y-94232D02*
Y-74547D01*
X324284Y-94232D02*
X338850D01*
X324284D02*
Y-74547D01*
X317097Y-73169D02*
X317098Y-73169D01*
X86898Y-166687D02*
Y-166678D01*
X88233Y-159296D02*
X107532D01*
Y-146698D01*
X88233D02*
X107532D01*
X88233Y-159296D02*
Y-146698D01*
X99500Y-26933D02*
X149500D01*
X99500Y-6933D02*
X149500D01*
X99500Y-26933D02*
Y-6933D01*
X149500Y-26933D02*
Y-6933D01*
X48842Y-246437D02*
Y-240433D01*
X49354Y-239055D02*
X68646D01*
Y-226457D01*
X49354D02*
X68646D01*
X49354Y-239055D02*
Y-226457D01*
X589689Y-212476D02*
Y-54996D01*
X605437Y-212476D02*
Y-54996D01*
X589689D02*
X605437D01*
X589689Y-212476D02*
X605437D01*
X322097Y-235255D02*
X322098Y-235256D01*
X329283Y-256319D02*
Y-236634D01*
Y-256319D02*
X343850D01*
Y-236634D01*
X329283D02*
X343850D01*
X444283Y-256319D02*
Y-236634D01*
Y-256319D02*
X458850D01*
Y-236634D01*
X444283D02*
X458850D01*
X273850Y-94232D02*
Y-74547D01*
X259283D02*
X273850D01*
X259283Y-94232D02*
Y-74547D01*
Y-94232D02*
X273850D01*
X468850D02*
Y-74547D01*
X454284D02*
X468850D01*
X454284Y-94232D02*
Y-74547D01*
Y-94232D02*
X468850D01*
X254283Y-256319D02*
Y-236634D01*
Y-256319D02*
X268850D01*
Y-236634D01*
X254283D02*
X268850D01*
X281971Y-181259D02*
X281972Y-181260D01*
X267601Y-175157D02*
X278232D01*
X267601Y-181260D02*
X278232D01*
X298727Y-190476D02*
Y-153862D01*
Y-190476D02*
X335342D01*
Y-153862D01*
X298727D02*
X335342D01*
X377097Y-73169D02*
X377098Y-73169D01*
X384283Y-94232D02*
Y-74547D01*
Y-94232D02*
X398850D01*
Y-74547D01*
X384283D02*
X398850D01*
X100224Y-225336D02*
X102192D01*
X100224D02*
Y-217069D01*
X102192D01*
Y-225336D02*
Y-217069D01*
X100224Y-224736D02*
X102192D01*
X100224Y-224236D02*
X102192D01*
X128342Y-98953D02*
Y-98946D01*
X128106Y-91472D02*
X148894D01*
Y-71394D01*
X128106D02*
X148894D01*
X128106Y-91472D02*
Y-71394D01*
X391331Y-176902D02*
Y-176890D01*
X391843Y-169606D02*
X411134D01*
Y-157008D01*
X391843D02*
X411134D01*
X391843Y-169606D02*
Y-157008D01*
X115553Y-248843D02*
X127364D01*
X115553Y-289000D02*
Y-248843D01*
Y-289000D02*
X127364D01*
D11*
X271874Y-149933D02*
G03*
X272268Y-149933I197J0D01*
G01*
D02*
G03*
X271874Y-149933I-197J0D01*
G01*
X427224Y-167933D02*
G03*
X516831Y-167933I44803J0D01*
G01*
D02*
G03*
X427224Y-167933I-44803J0D01*
G01*
X391551Y-192378D02*
G03*
X399819Y-192378I4134J0D01*
G01*
D02*
G03*
X391551Y-192378I-4134J0D01*
G01*
X25713Y-46008D02*
Y-42858D01*
Y-46027D02*
X27306Y-44433D01*
X25713Y-42839D02*
X27306Y-44433D01*
Y-46106D02*
Y-42760D01*
X31815Y-46795D02*
Y-42071D01*
X21185Y-46795D02*
X24039D01*
X21185D02*
Y-42071D01*
X24039D01*
X28961D02*
X31815D01*
X28961Y-46795D02*
X31815D01*
X515020Y-156122D02*
X540177D01*
Y-179744D02*
Y-156122D01*
X515020Y-179744D02*
X540177D01*
X15575Y-52039D02*
X20496D01*
X28370D02*
X44122D01*
X53965D02*
X66067D01*
X2488Y-100957D02*
Y-56665D01*
X11638Y-106567D02*
X66067D01*
Y-100957D01*
X478961Y-276604D02*
X481815D01*
X478961Y-271880D02*
X481815D01*
X471185D02*
X474039D01*
X471185Y-276604D02*
Y-271880D01*
Y-276604D02*
X474039D01*
X481815D02*
Y-271880D01*
X477306Y-275915D02*
Y-272569D01*
X475713Y-272648D02*
X477306Y-274242D01*
X475713Y-275836D02*
X477306Y-274242D01*
X475713Y-275817D02*
Y-272667D01*
X11787Y-301279D02*
Y-298130D01*
X10194Y-299705D02*
X11787Y-298111D01*
X10194Y-299705D02*
X11787Y-301298D01*
X10194Y-301378D02*
Y-298031D01*
X5685Y-302067D02*
Y-297342D01*
X13461D02*
X16315D01*
Y-302067D02*
Y-297342D01*
X13461Y-302067D02*
X16315D01*
X5685D02*
X8539D01*
X5685Y-297342D02*
X8539D01*
X214461Y-276604D02*
X217315D01*
X214461Y-271880D02*
X217315D01*
X206685D02*
X209539D01*
X206685Y-276604D02*
Y-271880D01*
Y-276604D02*
X209539D01*
X217315D02*
Y-271880D01*
X212806Y-275915D02*
Y-272569D01*
X211213Y-272648D02*
X212806Y-274242D01*
X211213Y-275836D02*
X212806Y-274242D01*
X211213Y-275817D02*
Y-272667D01*
X396713Y-275817D02*
Y-272667D01*
Y-275836D02*
X398306Y-274242D01*
X396713Y-272648D02*
X398306Y-274242D01*
Y-275915D02*
Y-272569D01*
X402815Y-276604D02*
Y-271880D01*
X392185Y-276604D02*
X395039D01*
X392185D02*
Y-271880D01*
X395039D01*
X399961D02*
X402815D01*
X399961Y-276604D02*
X402815D01*
X292213Y-275817D02*
Y-272667D01*
Y-275836D02*
X293806Y-274242D01*
X292213Y-272648D02*
X293806Y-274242D01*
Y-275915D02*
Y-272569D01*
X298315Y-276604D02*
Y-271880D01*
X287685Y-276604D02*
X290539D01*
X287685D02*
Y-271880D01*
X290539D01*
X295461D02*
X298315D01*
X295461Y-276604D02*
X298315D01*
X427819Y-60415D02*
Y-57266D01*
X426225Y-58841D02*
X427819Y-57247D01*
X426225Y-58841D02*
X427819Y-60434D01*
X426225Y-60514D02*
Y-57167D01*
X421716Y-61203D02*
Y-56478D01*
X429492D02*
X432346D01*
Y-61203D02*
Y-56478D01*
X429492Y-61203D02*
X432346D01*
X421716D02*
X424571D01*
X421716Y-56478D02*
X424571D01*
X506374Y-60415D02*
Y-57266D01*
X504780Y-58841D02*
X506374Y-57247D01*
X504780Y-58841D02*
X506374Y-60434D01*
X504780Y-60514D02*
Y-57167D01*
X500272Y-61203D02*
Y-56478D01*
X508047D02*
X510902D01*
Y-61203D02*
Y-56478D01*
X508047Y-61203D02*
X510902D01*
X500272D02*
X503126D01*
X500272Y-56478D02*
X503126D01*
X238583Y-60415D02*
Y-57266D01*
X236989Y-58841D02*
X238583Y-57247D01*
X236989Y-58841D02*
X238583Y-60434D01*
X236989Y-60514D02*
Y-57167D01*
X232480Y-61203D02*
Y-56478D01*
X240256D02*
X243110D01*
Y-61203D02*
Y-56478D01*
X240256Y-61203D02*
X243110D01*
X232480D02*
X235335D01*
X232480Y-56478D02*
X235335D01*
X318083Y-60415D02*
Y-57266D01*
X316489Y-58841D02*
X318083Y-57247D01*
X316489Y-58841D02*
X318083Y-60434D01*
X316489Y-60514D02*
Y-57167D01*
X311980Y-61203D02*
Y-56478D01*
X319756D02*
X322610D01*
Y-61203D02*
Y-56478D01*
X319756Y-61203D02*
X322610D01*
X311980D02*
X314835D01*
X311980Y-56478D02*
X314835D01*
X254019Y-197894D02*
Y-194744D01*
X252425Y-196319D02*
X254019Y-194725D01*
X252425Y-196319D02*
X254019Y-197913D01*
X252425Y-197992D02*
Y-194646D01*
X247917Y-198681D02*
Y-193957D01*
X255692D02*
X258546D01*
Y-198681D02*
Y-193957D01*
X255692Y-198681D02*
X258546D01*
X247917D02*
X250771D01*
X247917Y-193957D02*
X250771D01*
X254019Y-204587D02*
Y-201437D01*
X252425Y-203012D02*
X254019Y-201418D01*
X252425Y-203012D02*
X254019Y-204606D01*
X252425Y-204685D02*
Y-201339D01*
X247917Y-205374D02*
Y-200650D01*
X255692D02*
X258546D01*
Y-205374D02*
Y-200650D01*
X255692Y-205374D02*
X258546D01*
X247917D02*
X250771D01*
X247917Y-200650D02*
X250771D01*
X547102Y-329461D02*
Y-304854D01*
Y-329461D02*
Y-304854D01*
X617969Y-329461D02*
Y-304854D01*
Y-329461D02*
Y-304854D01*
X547102Y-229067D02*
X554976D01*
X547102D02*
X554976D01*
X610094D02*
X617969D01*
X610094D02*
X617969D01*
X547102Y-329461D02*
X617969D01*
X547102D02*
X617969D01*
X100758Y-176988D02*
Y-174134D01*
X96034Y-176988D02*
Y-174134D01*
Y-184764D02*
Y-181909D01*
Y-184764D02*
X100758D01*
Y-181909D01*
X96034Y-174134D02*
X100758D01*
X96723Y-178642D02*
X100069D01*
X96802Y-180236D02*
X98396Y-178642D01*
X99989Y-180236D01*
X96821D02*
X99971D01*
X15453Y-129795D02*
X21358D01*
X15453Y-160110D02*
X21358D01*
X-4232D02*
X-295D01*
X-4232D02*
Y-129795D01*
X-295D01*
X31988Y-135504D02*
Y-133142D01*
Y-156764D02*
Y-154402D01*
X106441Y-176988D02*
Y-174134D01*
X101716Y-176988D02*
Y-174134D01*
Y-184764D02*
Y-181909D01*
Y-184764D02*
X106441D01*
Y-181909D01*
X101716Y-174134D02*
X106441D01*
X102406Y-178642D02*
X105752D01*
X102485Y-180236D02*
X104079Y-178642D01*
X105672Y-180236D01*
X102504D02*
X105654D01*
D12*
X293019Y-154453D02*
G03*
X293019Y-154453I-492J0D01*
G01*
X106200Y-226302D02*
G03*
X106200Y-226302I-492J0D01*
G01*
D13*
X302118Y-210445D02*
G03*
X302118Y-210445I-500J0D01*
G01*
X42890Y-154921D02*
G03*
X42890Y-154921I-500J0D01*
G01*
X262425Y-152886D02*
X265575D01*
X262425Y-146980D02*
X265575D01*
X19500Y-213433D02*
Y-192433D01*
X9500Y-213433D02*
Y-192433D01*
Y-213433D02*
X19500D01*
X9500Y-192433D02*
X19500D01*
X37000Y-213433D02*
Y-192433D01*
X27000Y-213433D02*
Y-192433D01*
Y-213433D02*
X37000D01*
X27000Y-192433D02*
X37000D01*
X222251Y-189374D02*
X225795D01*
X222251D02*
Y-144492D01*
X225795D01*
X237606Y-189374D02*
X241149D01*
Y-144492D01*
X237606D02*
X241149D01*
X630937Y-39142D02*
X651803D01*
Y-224181D02*
Y-39142D01*
X630937Y-224181D02*
X651803D01*
X10008Y-246425D02*
X29496D01*
X10008Y-220441D02*
X29496D01*
X35992Y-226937D01*
X29496Y-246425D02*
X35992Y-239929D01*
X10008Y-246425D02*
Y-238433D01*
Y-228433D02*
Y-220441D01*
X35992Y-228433D02*
Y-226937D01*
Y-239929D02*
Y-238433D01*
X-6323Y-287146D02*
X24189D01*
X-6323D02*
Y-251713D01*
X50567D01*
X50764Y-255650D01*
X428103Y-110037D02*
X426104D01*
X427104D01*
Y-115035D01*
X426104Y-116035D01*
X425104D01*
X424105Y-115035D01*
X430103Y-111036D02*
X431103Y-110037D01*
X433102D01*
X434101Y-111036D01*
Y-112036D01*
X433102Y-113036D01*
X432102D01*
X433102D01*
X434101Y-114035D01*
Y-115035D01*
X433102Y-116035D01*
X431103D01*
X430103Y-115035D01*
X51000Y-212634D02*
Y-214967D01*
X51467Y-215433D01*
X52399D01*
X52866Y-214967D01*
Y-212634D01*
X53799Y-215433D02*
X54732D01*
X54266D01*
Y-212634D01*
X53799Y-213101D01*
X56132Y-215433D02*
X57065D01*
X56598D01*
Y-212634D01*
X56132Y-213101D01*
X10005Y-188935D02*
Y-186135D01*
X11404D01*
X11871Y-186602D01*
Y-187535D01*
X11404Y-188002D01*
X10005D01*
X12804Y-186602D02*
X13270Y-186135D01*
X14203D01*
X14670Y-186602D01*
Y-187069D01*
X14203Y-187535D01*
X13737D01*
X14203D01*
X14670Y-188002D01*
Y-188468D01*
X14203Y-188935D01*
X13270D01*
X12804Y-188468D01*
X45071Y-208602D02*
X44604Y-208136D01*
X43671D01*
X43205Y-208602D01*
Y-210468D01*
X43671Y-210935D01*
X44604D01*
X45071Y-210468D01*
X47870Y-208136D02*
X46004D01*
Y-209535D01*
X46937Y-209069D01*
X47403D01*
X47870Y-209535D01*
Y-210468D01*
X47403Y-210935D01*
X46470D01*
X46004Y-210468D01*
X50669Y-208136D02*
X49736Y-208602D01*
X48803Y-209535D01*
Y-210468D01*
X49269Y-210935D01*
X50202D01*
X50669Y-210468D01*
Y-210002D01*
X50202Y-209535D01*
X48803D01*
X34705Y-38635D02*
Y-35880D01*
X36082D01*
X36541Y-36339D01*
Y-37257D01*
X36082Y-37716D01*
X34705D01*
X35623D02*
X36541Y-38635D01*
X37460Y-36339D02*
X37919Y-35880D01*
X38837D01*
X39296Y-36339D01*
Y-36798D01*
X38837Y-37257D01*
X38378D01*
X38837D01*
X39296Y-37716D01*
Y-38175D01*
X38837Y-38635D01*
X37919D01*
X37460Y-38175D01*
X40215Y-36339D02*
X40674Y-35880D01*
X41592D01*
X42051Y-36339D01*
Y-36798D01*
X41592Y-37257D01*
X42051Y-37716D01*
Y-38175D01*
X41592Y-38635D01*
X40674D01*
X40215Y-38175D01*
Y-37716D01*
X40674Y-37257D01*
X40215Y-36798D01*
Y-36339D01*
X40674Y-37257D02*
X41592D01*
X6505Y-291351D02*
Y-294106D01*
X7882D01*
X8341Y-293647D01*
Y-291810D01*
X7882Y-291351D01*
X6505D01*
X9260Y-294106D02*
X10178D01*
X9719D01*
Y-291351D01*
X9260Y-291810D01*
X11556D02*
X12015Y-291351D01*
X12933D01*
X13392Y-291810D01*
Y-293647D01*
X12933Y-294106D01*
X12015D01*
X11556Y-293647D01*
Y-291810D01*
X22005Y-36080D02*
Y-38835D01*
X23382D01*
X23841Y-38375D01*
Y-36539D01*
X23382Y-36080D01*
X22005D01*
X24760Y-38375D02*
X25219Y-38835D01*
X26137D01*
X26596Y-38375D01*
Y-36539D01*
X26137Y-36080D01*
X25219D01*
X24760Y-36539D01*
Y-36998D01*
X25219Y-37457D01*
X26596D01*
X27505Y-188935D02*
Y-186180D01*
X28882D01*
X29341Y-186639D01*
Y-187557D01*
X28882Y-188016D01*
X27505D01*
X32096Y-188935D02*
X30260D01*
X32096Y-187098D01*
Y-186639D01*
X31637Y-186180D01*
X30719D01*
X30260Y-186639D01*
X322732Y-229144D02*
Y-231440D01*
X323191Y-231899D01*
X324110D01*
X324569Y-231440D01*
Y-229144D01*
X325487Y-231440D02*
X325946Y-231899D01*
X326865D01*
X327324Y-231440D01*
Y-229603D01*
X326865Y-229144D01*
X325946D01*
X325487Y-229603D01*
Y-230062D01*
X325946Y-230522D01*
X327324D01*
X222705Y-131280D02*
X224541Y-134035D01*
Y-131280D02*
X222705Y-134035D01*
X225460Y-131739D02*
X225919Y-131280D01*
X226837D01*
X227296Y-131739D01*
Y-132198D01*
X226837Y-132657D01*
X226378D01*
X226837D01*
X227296Y-133116D01*
Y-133575D01*
X226837Y-134035D01*
X225919D01*
X225460Y-133575D01*
X257705Y-140280D02*
X259541Y-143035D01*
Y-140280D02*
X257705Y-143035D01*
X262296D02*
X260460D01*
X262296Y-141198D01*
Y-140739D01*
X261837Y-140280D01*
X260919D01*
X260460Y-140739D01*
X245205Y-157135D02*
Y-154380D01*
X246582D01*
X247041Y-154839D01*
Y-155757D01*
X246582Y-156216D01*
X245205D01*
X246123D02*
X247041Y-157135D01*
X247960Y-154839D02*
X248419Y-154380D01*
X249337D01*
X249796Y-154839D01*
Y-155298D01*
X249337Y-155757D01*
X248878D01*
X249337D01*
X249796Y-156216D01*
Y-156676D01*
X249337Y-157135D01*
X248419D01*
X247960Y-156676D01*
X252551Y-154380D02*
X251633Y-154839D01*
X250715Y-155757D01*
Y-156676D01*
X251174Y-157135D01*
X252092D01*
X252551Y-156676D01*
Y-156216D01*
X252092Y-155757D01*
X250715D01*
X252541Y-137788D02*
X252082Y-137329D01*
X251164D01*
X250705Y-137788D01*
Y-139625D01*
X251164Y-140084D01*
X252082D01*
X252541Y-139625D01*
X255296Y-137329D02*
X253460D01*
Y-138706D01*
X254378Y-138247D01*
X254837D01*
X255296Y-138706D01*
Y-139625D01*
X254837Y-140084D01*
X253919D01*
X253460Y-139625D01*
X256215Y-137788D02*
X256674Y-137329D01*
X257592D01*
X258051Y-137788D01*
Y-138247D01*
X257592Y-138706D01*
X257133D01*
X257592D01*
X258051Y-139165D01*
Y-139625D01*
X257592Y-140084D01*
X256674D01*
X256215Y-139625D01*
X275541Y-137732D02*
X275082Y-137273D01*
X274164D01*
X273705Y-137732D01*
Y-139569D01*
X274164Y-140028D01*
X275082D01*
X275541Y-139569D01*
X278296Y-137273D02*
X276460D01*
Y-138650D01*
X277378Y-138191D01*
X277837D01*
X278296Y-138650D01*
Y-139569D01*
X277837Y-140028D01*
X276919D01*
X276460Y-139569D01*
X281051Y-140028D02*
X279215D01*
X281051Y-138191D01*
Y-137732D01*
X280592Y-137273D01*
X279674D01*
X279215Y-137732D01*
X227041Y-124339D02*
X226582Y-123880D01*
X225664D01*
X225205Y-124339D01*
Y-126175D01*
X225664Y-126635D01*
X226582D01*
X227041Y-126175D01*
X229796Y-123880D02*
X227960D01*
Y-125257D01*
X228878Y-124798D01*
X229337D01*
X229796Y-125257D01*
Y-126175D01*
X229337Y-126635D01*
X228419D01*
X227960Y-126175D01*
X230715Y-126635D02*
X231633D01*
X231174D01*
Y-123880D01*
X230715Y-124339D01*
X260805Y-190735D02*
Y-187980D01*
X262182D01*
X262641Y-188439D01*
Y-189357D01*
X262182Y-189816D01*
X260805D01*
X261723D02*
X262641Y-190735D01*
X263560Y-188439D02*
X264019Y-187980D01*
X264937D01*
X265396Y-188439D01*
Y-188898D01*
X264937Y-189357D01*
X264478D01*
X264937D01*
X265396Y-189816D01*
Y-190276D01*
X264937Y-190735D01*
X264019D01*
X263560Y-190276D01*
X266315Y-188439D02*
X266774Y-187980D01*
X267692D01*
X268151Y-188439D01*
Y-188898D01*
X267692Y-189357D01*
X267233D01*
X267692D01*
X268151Y-189816D01*
Y-190276D01*
X267692Y-190735D01*
X266774D01*
X266315Y-190276D01*
X260805Y-197435D02*
Y-194680D01*
X262182D01*
X262641Y-195139D01*
Y-196057D01*
X262182Y-196516D01*
X260805D01*
X261723D02*
X262641Y-197435D01*
X263560Y-195139D02*
X264019Y-194680D01*
X264937D01*
X265396Y-195139D01*
Y-195598D01*
X264937Y-196057D01*
X264478D01*
X264937D01*
X265396Y-196516D01*
Y-196976D01*
X264937Y-197435D01*
X264019D01*
X263560Y-196976D01*
X268151Y-197435D02*
X266315D01*
X268151Y-195598D01*
Y-195139D01*
X267692Y-194680D01*
X266774D01*
X266315Y-195139D01*
X248705Y-187980D02*
Y-190735D01*
X250082D01*
X250541Y-190276D01*
Y-188439D01*
X250082Y-187980D01*
X248705D01*
X253296D02*
X252378Y-188439D01*
X251460Y-189357D01*
Y-190276D01*
X251919Y-190735D01*
X252837D01*
X253296Y-190276D01*
Y-189816D01*
X252837Y-189357D01*
X251460D01*
X248705Y-194680D02*
Y-197435D01*
X250082D01*
X250541Y-196976D01*
Y-195139D01*
X250082Y-194680D01*
X248705D01*
X253296D02*
X251460D01*
Y-196057D01*
X252378Y-195598D01*
X252837D01*
X253296Y-196057D01*
Y-196976D01*
X252837Y-197435D01*
X251919D01*
X251460Y-196976D01*
X623941Y-32880D02*
X623023D01*
X623482D01*
Y-35175D01*
X623023Y-35635D01*
X622564D01*
X622105Y-35175D01*
X624860Y-32880D02*
X626696D01*
Y-33339D01*
X624860Y-35175D01*
Y-35635D01*
X6941Y-214639D02*
X6482Y-214180D01*
X5564D01*
X5105Y-214639D01*
Y-216476D01*
X5564Y-216935D01*
X6482D01*
X6941Y-216476D01*
X9237Y-216935D02*
Y-214180D01*
X7860Y-215557D01*
X9696D01*
X10615Y-216476D02*
X11074Y-216935D01*
X11992D01*
X12451Y-216476D01*
Y-214639D01*
X11992Y-214180D01*
X11074D01*
X10615Y-214639D01*
Y-215098D01*
X11074Y-215557D01*
X12451D01*
X392305Y-182280D02*
X394141Y-185035D01*
Y-182280D02*
X392305Y-185035D01*
X395060D02*
X395978D01*
X395519D01*
Y-182280D01*
X395060Y-182739D01*
X542005Y-217180D02*
Y-219476D01*
X542464Y-219935D01*
X543382D01*
X543841Y-219476D01*
Y-217180D01*
X544760Y-219935D02*
X545678D01*
X545219D01*
Y-217180D01*
X544760Y-217639D01*
X548892Y-219935D02*
X547056D01*
X548892Y-218098D01*
Y-217639D01*
X548433Y-217180D01*
X547515D01*
X547056Y-217639D01*
X291505Y-139880D02*
Y-142175D01*
X291964Y-142635D01*
X292882D01*
X293341Y-142175D01*
Y-139880D01*
X296096D02*
X294260D01*
Y-141257D01*
X295178Y-140798D01*
X295637D01*
X296096Y-141257D01*
Y-142175D01*
X295637Y-142635D01*
X294719D01*
X294260Y-142175D01*
X317731Y-66995D02*
Y-69290D01*
X318191Y-69750D01*
X319109D01*
X319568Y-69290D01*
Y-66995D01*
X321864Y-69750D02*
Y-66995D01*
X320486Y-68372D01*
X322323D01*
X128737Y-57761D02*
Y-60057D01*
X129196Y-60516D01*
X130114D01*
X130574Y-60057D01*
Y-57761D01*
X131492Y-58220D02*
X131951Y-57761D01*
X132870D01*
X133329Y-58220D01*
Y-58679D01*
X132870Y-59138D01*
X132410D01*
X132870D01*
X133329Y-59597D01*
Y-60057D01*
X132870Y-60516D01*
X131951D01*
X131492Y-60057D01*
X391905Y-143580D02*
Y-145876D01*
X392364Y-146335D01*
X393282D01*
X393741Y-145876D01*
Y-143580D01*
X394660Y-146335D02*
X395578D01*
X395119D01*
Y-143580D01*
X394660Y-144039D01*
X100105Y-13535D02*
Y-10780D01*
X101482D01*
X101941Y-11239D01*
Y-12157D01*
X101482Y-12616D01*
X100105D01*
X102860Y-13535D02*
X103778D01*
X103319D01*
Y-10780D01*
X102860Y-11239D01*
X590305Y-44280D02*
Y-47035D01*
X592141D01*
X594896Y-44739D02*
X594437Y-44280D01*
X593519D01*
X593060Y-44739D01*
Y-46575D01*
X593519Y-47035D01*
X594437D01*
X594896Y-46575D01*
X595815Y-44280D02*
Y-47035D01*
X597192D01*
X597651Y-46575D01*
Y-44739D01*
X597192Y-44280D01*
X595815D01*
X598570Y-47035D02*
X599488D01*
X599029D01*
Y-44280D01*
X598570Y-44739D01*
X7510Y-44320D02*
X6592D01*
X7051D01*
Y-46616D01*
X6592Y-47075D01*
X6132D01*
X5673Y-46616D01*
X9806Y-47075D02*
Y-44320D01*
X8428Y-45697D01*
X10265D01*
X-4028Y-245476D02*
X-4946D01*
X-4487D01*
Y-247772D01*
X-4946Y-248231D01*
X-5405D01*
X-5864Y-247772D01*
X-1273Y-248231D02*
X-3109D01*
X-1273Y-246394D01*
Y-245935D01*
X-1732Y-245476D01*
X-2650D01*
X-3109Y-245935D01*
X263805Y-165780D02*
Y-168535D01*
X265182D01*
X265641Y-168076D01*
Y-166239D01*
X265182Y-165780D01*
X263805D01*
X268396Y-168535D02*
X266560D01*
X268396Y-166698D01*
Y-166239D01*
X267937Y-165780D01*
X267019D01*
X266560Y-166239D01*
X638741Y-272839D02*
X638282Y-272380D01*
X637364D01*
X636905Y-272839D01*
Y-274675D01*
X637364Y-275135D01*
X638282D01*
X638741Y-274675D01*
X639660Y-272839D02*
X640119Y-272380D01*
X641037D01*
X641496Y-272839D01*
Y-273298D01*
X641037Y-273757D01*
X640578D01*
X641037D01*
X641496Y-274216D01*
Y-274675D01*
X641037Y-275135D01*
X640119D01*
X639660Y-274675D01*
X642415Y-272839D02*
X642874Y-272380D01*
X643792D01*
X644251Y-272839D01*
Y-274675D01*
X643792Y-275135D01*
X642874D01*
X642415Y-274675D01*
Y-272839D01*
X283741Y-137139D02*
X283282Y-136680D01*
X282364D01*
X281905Y-137139D01*
Y-138976D01*
X282364Y-139435D01*
X283282D01*
X283741Y-138976D01*
X284660Y-139435D02*
X285578D01*
X285119D01*
Y-136680D01*
X284660Y-137139D01*
X288792Y-136680D02*
X286956D01*
Y-138057D01*
X287874Y-137598D01*
X288333D01*
X288792Y-138057D01*
Y-138976D01*
X288333Y-139435D01*
X287415D01*
X286956Y-138976D01*
X292841Y-134639D02*
X292382Y-134180D01*
X291464D01*
X291005Y-134639D01*
Y-136476D01*
X291464Y-136935D01*
X292382D01*
X292841Y-136476D01*
X293760Y-136935D02*
X294678D01*
X294219D01*
Y-134180D01*
X293760Y-134639D01*
X297433Y-136935D02*
Y-134180D01*
X296056Y-135557D01*
X297892D01*
X226241Y-193839D02*
X225782Y-193380D01*
X224864D01*
X224405Y-193839D01*
Y-195676D01*
X224864Y-196135D01*
X225782D01*
X226241Y-195676D01*
X227160Y-196135D02*
X228078D01*
X227619D01*
Y-193380D01*
X227160Y-193839D01*
X229456D02*
X229915Y-193380D01*
X230833D01*
X231292Y-193839D01*
Y-194298D01*
X230833Y-194757D01*
X230374D01*
X230833D01*
X231292Y-195216D01*
Y-195676D01*
X230833Y-196135D01*
X229915D01*
X229456Y-195676D01*
X274441Y-176439D02*
X273982Y-175980D01*
X273064D01*
X272605Y-176439D01*
Y-178276D01*
X273064Y-178735D01*
X273982D01*
X274441Y-178276D01*
X275360Y-178735D02*
X276278D01*
X275819D01*
Y-175980D01*
X275360Y-176439D01*
X279492Y-178735D02*
X277656D01*
X279492Y-176898D01*
Y-176439D01*
X279033Y-175980D01*
X278115D01*
X277656Y-176439D01*
X339341Y-134239D02*
X338882Y-133780D01*
X337964D01*
X337505Y-134239D01*
Y-136075D01*
X337964Y-136535D01*
X338882D01*
X339341Y-136075D01*
X340260Y-136535D02*
X341178D01*
X340719D01*
Y-133780D01*
X340260Y-134239D01*
X342556D02*
X343015Y-133780D01*
X343933D01*
X344392Y-134239D01*
Y-136075D01*
X343933Y-136535D01*
X343015D01*
X342556Y-136075D01*
Y-134239D01*
X280797Y-194129D02*
X280337Y-193670D01*
X279419D01*
X278960Y-194129D01*
Y-195966D01*
X279419Y-196425D01*
X280337D01*
X280797Y-195966D01*
X281715D02*
X282174Y-196425D01*
X283092D01*
X283552Y-195966D01*
Y-194129D01*
X283092Y-193670D01*
X282174D01*
X281715Y-194129D01*
Y-194588D01*
X282174Y-195048D01*
X283552D01*
X135541Y-49839D02*
X135082Y-49380D01*
X134164D01*
X133705Y-49839D01*
Y-51675D01*
X134164Y-52135D01*
X135082D01*
X135541Y-51675D01*
X136460Y-49380D02*
X138296D01*
Y-49839D01*
X136460Y-51675D01*
Y-52135D01*
X387741Y-184039D02*
X387282Y-183580D01*
X386364D01*
X385905Y-184039D01*
Y-185875D01*
X386364Y-186335D01*
X387282D01*
X387741Y-185875D01*
X390496Y-183580D02*
X388660D01*
Y-184957D01*
X389578Y-184498D01*
X390037D01*
X390496Y-184957D01*
Y-185875D01*
X390037Y-186335D01*
X389119D01*
X388660Y-185875D01*
X403541Y-184039D02*
X403082Y-183580D01*
X402164D01*
X401705Y-184039D01*
Y-185875D01*
X402164Y-186335D01*
X403082D01*
X403541Y-185875D01*
X405837Y-186335D02*
Y-183580D01*
X404460Y-184957D01*
X406296D01*
D14*
X63575Y-269429D02*
G03*
X63575Y-269429I-1000J0D01*
G01*
X99547Y-254046D02*
G03*
X99055Y-254046I-246J0D01*
G01*
D02*
G03*
X99547Y-254046I246J0D01*
G01*
D15*
X522000Y-22028D02*
Y7776D01*
X457000D02*
X522000D01*
X457000Y-21928D02*
Y7776D01*
X521533Y-32330D02*
X522000Y-54232D01*
X457000D02*
X522000D01*
X457000D02*
Y-32328D01*
X254173Y-22028D02*
Y7776D01*
X189173D02*
X254173D01*
X189173Y-21928D02*
Y7776D01*
X253706Y-32330D02*
X254173Y-54232D01*
X189173D02*
X254173D01*
X189173D02*
Y-32328D01*
X269252Y-54232D02*
Y-32328D01*
Y-54232D02*
X334252D01*
X333785Y-32330D02*
X334252Y-54232D01*
X269252Y-21928D02*
Y7776D01*
X334252D01*
Y-22028D02*
Y7776D01*
X444000Y-22028D02*
Y7776D01*
X379000D02*
X444000D01*
X379000Y-21928D02*
Y7776D01*
X443533Y-32330D02*
X444000Y-54232D01*
X379000D02*
X444000D01*
X379000D02*
Y-32328D01*
X259331Y-300743D02*
Y-278839D01*
X194331D02*
X259331D01*
X194331D02*
X194798Y-300741D01*
X259331Y-340846D02*
Y-311142D01*
X194331Y-340846D02*
X259331D01*
X194331D02*
Y-311042D01*
X275591Y-340846D02*
Y-311042D01*
Y-340846D02*
X340591D01*
Y-311142D01*
X275591Y-278839D02*
X276058Y-300741D01*
X275591Y-278839D02*
X340591D01*
Y-300743D02*
Y-278839D01*
X459751Y-340846D02*
Y-311042D01*
Y-340846D02*
X524751D01*
Y-311142D01*
X459751Y-278839D02*
X460218Y-300741D01*
X459751Y-278839D02*
X524751D01*
Y-300743D02*
Y-278839D01*
X379828Y-340846D02*
Y-311042D01*
Y-340846D02*
X444828D01*
Y-311142D01*
X379828Y-278839D02*
X380295Y-300741D01*
X379828Y-278839D02*
X444828D01*
Y-300743D02*
Y-278839D01*
X278390Y-210051D02*
X286658D01*
X278390D02*
Y-199815D01*
X286658D01*
X299256D02*
X301618Y-202177D01*
Y-207689D02*
Y-202177D01*
X299256Y-210051D02*
X301618Y-207689D01*
X292957Y-199815D02*
X299256D01*
X292957Y-210051D02*
X299256D01*
X57350Y-155315D02*
X65618D01*
Y-165551D02*
Y-155315D01*
X57350Y-165551D02*
X65618D01*
X42390Y-163189D02*
X44752Y-165551D01*
X42390Y-163189D02*
Y-157677D01*
X44752Y-155315D01*
Y-165551D02*
X51051D01*
X44752Y-155315D02*
X51051D01*
X15913Y-216590D02*
Y-215591D01*
Y-216091D01*
X12914D01*
X13414Y-216590D01*
X30800Y-216733D02*
Y-217733D01*
Y-217233D01*
X33799D01*
X33299Y-216733D01*
X150500Y-13933D02*
X152166D01*
X151333D01*
Y-8935D01*
X150500Y-9768D01*
X154665D02*
X155498Y-8935D01*
X157165D01*
X157998Y-9768D01*
Y-13100D01*
X157165Y-13933D01*
X155498D01*
X154665Y-13100D01*
Y-9768D01*
X150500Y-23100D02*
X151333Y-23933D01*
X152999D01*
X153832Y-23100D01*
Y-19768D01*
X152999Y-18935D01*
X151333D01*
X150500Y-19768D01*
Y-20601D01*
X151333Y-21434D01*
X153832D01*
X96500Y-23933D02*
X98166D01*
X97333D01*
Y-18935D01*
X96500Y-19768D01*
X97832Y-13933D02*
X94500D01*
X97832Y-10601D01*
Y-9768D01*
X96999Y-8935D01*
X95333D01*
X94500Y-9768D01*
D16*
X426594Y-249994D02*
Y-246595D01*
X431595Y-249994D02*
Y-246595D01*
X426594D02*
X431595D01*
X426594Y-256594D02*
Y-253194D01*
X431595Y-256594D02*
Y-253194D01*
X426594Y-256594D02*
X431595D01*
X426594Y-238971D02*
Y-235571D01*
X431595Y-238971D02*
Y-235571D01*
X426594D02*
X431595D01*
X426594Y-245571D02*
Y-242171D01*
X431595Y-245571D02*
Y-242171D01*
X426594Y-245571D02*
X431595D01*
X139000Y-60433D02*
Y-55433D01*
X135600D02*
X139000D01*
X135600Y-60433D02*
X139000D01*
X129000D02*
Y-55433D01*
X132400D01*
X129000Y-60433D02*
X132400D01*
X250000Y-146726D02*
Y-143326D01*
X255000Y-146726D02*
Y-143326D01*
X250000D02*
X255000D01*
X250000Y-153326D02*
Y-149926D01*
X255000Y-153326D02*
Y-149926D01*
X250000Y-153326D02*
X255000D01*
X273000Y-146726D02*
Y-143326D01*
X278000Y-146726D02*
Y-143326D01*
X273000D02*
X278000D01*
X273000Y-153326D02*
Y-149926D01*
X278000Y-153326D02*
Y-149926D01*
X273000Y-153326D02*
X278000D01*
X244500Y-160433D02*
X251500D01*
X244500Y-173433D02*
X251500D01*
X244500D02*
Y-160433D01*
X251500Y-173433D02*
Y-160433D01*
X632000Y-278433D02*
X645000D01*
X632000Y-285433D02*
Y-278433D01*
Y-297433D02*
Y-290433D01*
Y-297433D02*
X645000D01*
Y-290433D01*
Y-285433D02*
Y-278433D01*
X42500Y-217577D02*
Y-214177D01*
X47500Y-217577D02*
Y-214177D01*
X42500D02*
X47500D01*
X42500Y-224177D02*
Y-220777D01*
X47500Y-224177D02*
Y-220777D01*
X42500Y-224177D02*
X47500D01*
X34000Y-46933D02*
Y-41933D01*
Y-46933D02*
X37400D01*
X34000Y-41933D02*
X37400D01*
X44000Y-46933D02*
Y-41933D01*
X40600Y-46933D02*
X44000D01*
X40600Y-41933D02*
X44000D01*
X195000Y-276933D02*
Y-271933D01*
Y-276933D02*
X198400D01*
X195000Y-271933D02*
X198400D01*
X205000Y-276933D02*
Y-271933D01*
X201600Y-276933D02*
X205000D01*
X201600Y-271933D02*
X205000D01*
X282100D02*
X285500D01*
X282100Y-276933D02*
X285500D01*
Y-271933D01*
X275500D02*
X278900D01*
X275500Y-276933D02*
X278900D01*
X275500D02*
Y-271933D01*
X224444Y-134933D02*
X227844D01*
X224444Y-129933D02*
X227844D01*
X224444Y-134933D02*
Y-129933D01*
X231044Y-134933D02*
X234444D01*
X231044Y-129933D02*
X234444D01*
Y-134933D02*
Y-129933D01*
X286539Y-85295D02*
X291539D01*
X286539Y-88695D02*
Y-85295D01*
X291539Y-88695D02*
Y-85295D01*
X286539Y-95295D02*
X291539D01*
X286539D02*
Y-91895D01*
X291539Y-95295D02*
Y-91895D01*
X481539Y-74272D02*
X486539D01*
X481539Y-77672D02*
Y-74272D01*
X486539Y-77672D02*
Y-74272D01*
X481539Y-84272D02*
X486539D01*
X481539D02*
Y-80872D01*
X486539Y-84272D02*
Y-80872D01*
X236595Y-256594D02*
X241595D01*
Y-253194D01*
X236595Y-256594D02*
Y-253194D01*
Y-246595D02*
X241595D01*
Y-249994D02*
Y-246595D01*
X236595Y-249994D02*
Y-246595D01*
X286539Y-74272D02*
X291539D01*
X286539Y-77672D02*
Y-74272D01*
X291539Y-77672D02*
Y-74272D01*
X286539Y-84272D02*
X291539D01*
X286539D02*
Y-80872D01*
X291539Y-84272D02*
Y-80872D01*
X481539Y-85295D02*
X486539D01*
X481539Y-88695D02*
Y-85295D01*
X486539Y-88695D02*
Y-85295D01*
X481539Y-95295D02*
X486539D01*
X481539D02*
Y-91895D01*
X486539Y-95295D02*
Y-91895D01*
X236595Y-245571D02*
X241595D01*
Y-242171D01*
X236595Y-245571D02*
Y-242171D01*
Y-235571D02*
X241595D01*
Y-238971D02*
Y-235571D01*
X236595Y-238971D02*
Y-235571D01*
X459500Y-276933D02*
Y-271933D01*
Y-276933D02*
X462900D01*
X459500Y-271933D02*
X462900D01*
X469500Y-276933D02*
Y-271933D01*
X466100Y-276933D02*
X469500D01*
X466100Y-271933D02*
X469500D01*
X380000Y-276933D02*
Y-271933D01*
Y-276933D02*
X383400D01*
X380000Y-271933D02*
X383400D01*
X390000Y-276933D02*
Y-271933D01*
X386600Y-276933D02*
X390000D01*
X386600Y-271933D02*
X390000D01*
X444031Y-61532D02*
Y-56532D01*
X440631D02*
X444031D01*
X440631Y-61532D02*
X444031D01*
X434031D02*
Y-56532D01*
X437431D01*
X434031Y-61532D02*
X437431D01*
X522087D02*
Y-56532D01*
X518687D02*
X522087D01*
X518687Y-61532D02*
X522087D01*
X512087D02*
Y-56532D01*
X515487D01*
X512087Y-61532D02*
X515487D01*
X254795D02*
Y-56532D01*
X251395D02*
X254795D01*
X251395Y-61532D02*
X254795D01*
X244795D02*
Y-56532D01*
X248195D01*
X244795Y-61532D02*
X248195D01*
X334295D02*
Y-56532D01*
X330895D02*
X334295D01*
X330895Y-61532D02*
X334295D01*
X324295D02*
Y-56532D01*
X327695D01*
X324295Y-61532D02*
X327695D01*
X270042Y-199010D02*
Y-194010D01*
X266642D02*
X270042D01*
X266642Y-199010D02*
X270042D01*
X260043D02*
Y-194010D01*
X263442D01*
X260043Y-199010D02*
X263442D01*
X270042Y-205703D02*
Y-200703D01*
X266642D02*
X270042D01*
X266642Y-205703D02*
X270042D01*
X260043D02*
Y-200703D01*
X263442D01*
X260043Y-205703D02*
X263442D01*
X223700Y-204433D02*
X227100D01*
X223700Y-199433D02*
X227100D01*
X223700Y-204433D02*
Y-199433D01*
X230300Y-204433D02*
X233700D01*
X230300Y-199433D02*
X233700D01*
Y-204433D02*
Y-199433D01*
X271853Y-187008D02*
X275254D01*
X271853Y-182008D02*
X275254D01*
X271853Y-187008D02*
Y-182008D01*
X278453Y-187008D02*
X281854D01*
X278453Y-182008D02*
X281854D01*
Y-187008D02*
Y-182008D01*
X281200Y-146089D02*
Y-142689D01*
X286200Y-146089D02*
Y-142689D01*
X281200D02*
X286200D01*
X281200Y-152689D02*
Y-149289D01*
X286200Y-152689D02*
Y-149289D01*
X281200Y-152689D02*
X286200D01*
X297283Y-144213D02*
Y-140213D01*
X290283D02*
X297283D01*
X290283Y-144213D02*
Y-140213D01*
X297283Y-153213D02*
Y-149213D01*
X290283Y-153213D02*
X297283D01*
X290283D02*
Y-149213D01*
X343739Y-143819D02*
Y-139819D01*
X336739D02*
X343739D01*
X336739Y-143819D02*
Y-139819D01*
X343739Y-152819D02*
Y-148819D01*
X336739Y-152819D02*
X343739D01*
X336739D02*
Y-148819D01*
X82587Y-225371D02*
Y-220371D01*
Y-225371D02*
X85987D01*
X82587Y-220371D02*
X85987D01*
X92587Y-225371D02*
Y-220371D01*
X89187Y-225371D02*
X92587D01*
X89187Y-220371D02*
X92587D01*
X102507Y-228290D02*
X105907D01*
X102507Y-233290D02*
X105907D01*
Y-228290D01*
X95907D02*
X99307D01*
X95907Y-233290D02*
X99307D01*
X95907D02*
Y-228290D01*
X107367Y-226934D02*
Y-223534D01*
X112367Y-226934D02*
Y-223534D01*
X107367D02*
X112367D01*
X107367Y-233534D02*
Y-230134D01*
X112367Y-233534D02*
Y-230134D01*
X107367Y-233534D02*
X112367D01*
X89187Y-225908D02*
X92587D01*
X89187Y-230908D02*
X92587D01*
Y-225908D01*
X82587D02*
X85987D01*
X82587Y-230908D02*
X85987D01*
X82587D02*
Y-225908D01*
X113759Y-235830D02*
Y-222830D01*
Y-235830D02*
X120759D01*
X125759D02*
X132759D01*
Y-222830D01*
X125759D02*
X132759D01*
X113759D02*
X120759D01*
X89187Y-214860D02*
X92587D01*
X89187Y-219860D02*
X92587D01*
Y-214860D01*
X82587D02*
X85987D01*
X82587Y-219860D02*
X85987D01*
X82587D02*
Y-214860D01*
X89217Y-209270D02*
X92617D01*
X89217Y-214270D02*
X92617D01*
Y-209270D01*
X82617D02*
X86017D01*
X82617Y-214270D02*
X86017D01*
X82617D02*
Y-209270D01*
X93163Y-210400D02*
X96563D01*
X93163Y-205400D02*
X96563D01*
X93163Y-210400D02*
Y-205400D01*
X99763Y-210400D02*
X103163D01*
X99763Y-205400D02*
X103163D01*
Y-210400D02*
Y-205400D01*
Y-215518D02*
Y-210518D01*
X99763D02*
X103163D01*
X99763Y-215518D02*
X103163D01*
X93163D02*
Y-210518D01*
X96563D01*
X93163Y-215518D02*
X96563D01*
X400945Y-192935D02*
Y-189535D01*
X405945Y-192935D02*
Y-189535D01*
X400945D02*
X405945D01*
X400945Y-199535D02*
Y-196135D01*
X405945Y-199535D02*
Y-196135D01*
X400945Y-199535D02*
X405945D01*
X390197D02*
Y-196135D01*
X385197Y-199535D02*
Y-196135D01*
Y-199535D02*
X390197D01*
Y-192935D02*
Y-189535D01*
X385197Y-192935D02*
Y-189535D01*
X390197D01*
X90245Y-174449D02*
X95245D01*
X90245Y-177849D02*
Y-174449D01*
X95245Y-177849D02*
Y-174449D01*
X90245Y-184449D02*
X95245D01*
X90245D02*
Y-181049D01*
X95245Y-184449D02*
Y-181049D01*
X71079Y-140150D02*
X76079D01*
Y-136750D01*
X71079Y-140150D02*
Y-136750D01*
Y-130150D02*
X76079D01*
Y-133550D02*
Y-130150D01*
X71079Y-133550D02*
Y-130150D01*
X73000Y-160433D02*
X78000D01*
X73000Y-163833D02*
Y-160433D01*
X78000Y-163833D02*
Y-160433D01*
X73000Y-170433D02*
X78000D01*
X73000D02*
Y-167033D01*
X78000Y-170433D02*
Y-167033D01*
X100579Y-123449D02*
X105579D01*
X100579Y-126849D02*
Y-123449D01*
X105579Y-126849D02*
Y-123449D01*
X100579Y-133449D02*
X105579D01*
X100579D02*
Y-130049D01*
X105579Y-133449D02*
Y-130049D01*
X45079Y-136693D02*
X50079D01*
Y-133293D01*
X45079Y-136693D02*
Y-133293D01*
Y-126693D02*
X50079D01*
Y-130093D02*
Y-126693D01*
X45079Y-130093D02*
Y-126693D01*
X89579Y-184449D02*
Y-181049D01*
X84579Y-184449D02*
Y-181049D01*
Y-184449D02*
X89579D01*
Y-177849D02*
Y-174449D01*
X84579Y-177849D02*
Y-174449D01*
X89579D01*
X39335Y-136743D02*
X44335D01*
Y-133343D01*
X39335Y-136743D02*
Y-133343D01*
Y-126743D02*
X44335D01*
Y-130143D02*
Y-126743D01*
X39335Y-130143D02*
Y-126743D01*
X92579Y-126849D02*
Y-123449D01*
X97579Y-126849D02*
Y-123449D01*
X92579D02*
X97579D01*
X92579Y-133449D02*
Y-130049D01*
X97579Y-133449D02*
Y-130049D01*
X92579Y-133449D02*
X97579D01*
X39421Y-148072D02*
X42821D01*
X39421Y-143072D02*
X42821D01*
X39421Y-148072D02*
Y-143072D01*
X46021Y-148072D02*
X49421D01*
X46021Y-143072D02*
X49421D01*
Y-148072D02*
Y-143072D01*
X39421Y-142606D02*
X42821D01*
X39421Y-137606D02*
X42821D01*
X39421Y-142606D02*
Y-137606D01*
X46021Y-142606D02*
X49421D01*
X46021Y-137606D02*
X49421D01*
Y-142606D02*
Y-137606D01*
X91579Y-133449D02*
Y-130049D01*
X86579Y-133449D02*
Y-130049D01*
Y-133449D02*
X91579D01*
Y-126849D02*
Y-123449D01*
X86579Y-126849D02*
Y-123449D01*
X91579D01*
X76579Y-140205D02*
X81579D01*
Y-136805D01*
X76579Y-140205D02*
Y-136805D01*
Y-130205D02*
X81579D01*
Y-133605D02*
Y-130205D01*
X76579Y-133605D02*
Y-130205D01*
D17*
X394Y-333071D02*
X665748D01*
X666142Y-332677D01*
Y-394D01*
X394D02*
X666142D01*
X394Y-333071D02*
Y-394D01*
M02*
