G04*
G04 #@! TF.GenerationSoftware,Altium Limited,Altium Designer,18.1.7 (191)*
G04*
G04 Layer_Color=8388736*
%FSLAX25Y25*%
%MOIN*%
G70*
G01*
G75*
%ADD12C,0.00787*%
%ADD15C,0.00500*%
%ADD53R,0.03556X0.03950*%
%ADD54R,0.04300X0.03800*%
%ADD55R,0.01981X0.06607*%
%ADD56R,0.06607X0.01981*%
%ADD57R,0.21076X0.21076*%
%ADD58R,0.04737X0.05721*%
%ADD59R,0.05131X0.05918*%
%ADD60R,0.03800X0.04300*%
%ADD61R,0.14186X0.20485*%
%ADD62R,0.07099X0.01981*%
%ADD63R,0.06706X0.06784*%
%ADD64R,0.13005X0.09461*%
%ADD65R,0.04343X0.03800*%
%ADD66R,0.07887X0.14186*%
%ADD67R,0.02572X0.06607*%
%ADD68R,0.03800X0.04343*%
%ADD69R,0.02572X0.07395*%
%ADD70R,0.11800X0.07099*%
%ADD71R,0.01981X0.02670*%
%ADD72R,0.10446X0.11824*%
%ADD73R,0.06800X0.02600*%
%ADD74R,0.03162X0.05721*%
%ADD75R,0.09461X0.13005*%
%ADD76R,0.06784X0.06706*%
%ADD77R,0.03162X0.01587*%
%ADD78R,0.02375X0.04934*%
%ADD79R,0.14580X0.07099*%
%ADD80R,0.39186X0.48831*%
%ADD81R,0.07493X0.08871*%
%ADD82R,0.04147X0.02178*%
%ADD83R,0.08871X0.07493*%
%ADD84R,0.02178X0.04147*%
%ADD85R,0.14186X0.07887*%
%ADD86R,0.07099X0.11800*%
%ADD87C,0.02532*%
%ADD88C,0.22296*%
%ADD89C,0.19461*%
%ADD90C,0.06556*%
%ADD91C,0.07296*%
%ADD92C,0.24422*%
%ADD93C,0.06115*%
%ADD94R,0.06115X0.06115*%
%ADD95R,0.06706X0.06706*%
%ADD96C,0.06706*%
%ADD97C,0.03200*%
G36*
X73009Y80938D02*
X63324D01*
Y90033D01*
X73009D01*
Y80938D01*
D02*
G37*
D12*
X52025Y93202D02*
G03*
X52025Y93202I-394J0D01*
G01*
D15*
X102926Y296599D02*
X104926D01*
X103926Y295599D02*
Y297599D01*
X742376Y184619D02*
X744376D01*
X743376Y183619D02*
Y185619D01*
X542076Y184604D02*
X544076D01*
X543076Y183604D02*
Y185604D01*
X343386Y183259D02*
Y185259D01*
X342386Y184259D02*
X344386D01*
X46306Y228669D02*
X48306D01*
X47306Y227669D02*
Y229669D01*
X62356Y337549D02*
X64356D01*
X63356Y336549D02*
Y338549D01*
X124009Y381418D02*
Y383418D01*
X123009Y382418D02*
X125009D01*
X826546Y252185D02*
X828546D01*
X827546Y251185D02*
Y253185D01*
X862583Y249129D02*
X864583D01*
X863583Y248129D02*
Y250129D01*
X795312Y248687D02*
Y250687D01*
X794312Y249687D02*
X796312D01*
X784746Y185273D02*
Y187273D01*
X783746Y186273D02*
X785746D01*
X837246Y220429D02*
X839246D01*
X838246Y219429D02*
Y221429D01*
X824946Y181273D02*
Y183273D01*
X823946Y182273D02*
X825946D01*
X837696Y197720D02*
X839696D01*
X838696Y196720D02*
Y198720D01*
X819746Y247329D02*
Y249329D01*
X818746Y248329D02*
X820746D01*
X800346Y248829D02*
Y250829D01*
X799346Y249829D02*
X801346D01*
X778946Y249129D02*
Y251129D01*
X777946Y250129D02*
X779946D01*
X768146Y234129D02*
X770146D01*
X769146Y233129D02*
Y235129D01*
X768146Y207629D02*
X770146D01*
X769146Y206629D02*
Y208629D01*
X779046Y185229D02*
Y187229D01*
X778046Y186229D02*
X780046D01*
X791346Y183929D02*
Y185929D01*
X790346Y184929D02*
X792346D01*
X747390Y173229D02*
X749390D01*
X748390Y172229D02*
Y174229D01*
X834946Y175273D02*
Y177273D01*
X833946Y176273D02*
X835946D01*
X768846Y186329D02*
X770846D01*
X769846Y185329D02*
Y187329D01*
X768946Y192429D02*
X770946D01*
X769946Y191429D02*
Y193429D01*
X767946Y247829D02*
X769946D01*
X768946Y246829D02*
Y248829D01*
X767846Y242129D02*
X769846D01*
X768846Y241129D02*
Y243129D01*
X747346Y179329D02*
X749346D01*
X748346Y178329D02*
Y180329D01*
X841346Y254229D02*
X843346D01*
X842346Y253229D02*
Y255229D01*
X837446Y188229D02*
X839446D01*
X838446Y187229D02*
Y189229D01*
X842946Y175773D02*
Y177773D01*
X841946Y176773D02*
X843946D01*
X795746Y185029D02*
X797746D01*
X796746Y184029D02*
Y186029D01*
X767746Y177029D02*
Y179029D01*
X766746Y178029D02*
X768746D01*
X769046Y199629D02*
X771046D01*
X770046Y198629D02*
Y200629D01*
X841246Y236029D02*
Y238029D01*
X840246Y237029D02*
X842246D01*
X761146Y176929D02*
Y178929D01*
X760146Y177929D02*
X762146D01*
X763946Y252829D02*
Y254829D01*
X762946Y253829D02*
X764946D01*
X853146Y257729D02*
Y259729D01*
X852146Y258729D02*
X854146D01*
X772528Y255797D02*
Y257797D01*
X771528Y256797D02*
X773528D01*
X854446Y176829D02*
Y178829D01*
X853446Y177829D02*
X855446D01*
X763046Y260029D02*
X765046D01*
X764046Y259029D02*
Y261029D01*
X749546Y262029D02*
X751546D01*
X750546Y261029D02*
Y263029D01*
X852146Y264529D02*
X854146D01*
X853146Y263529D02*
Y265529D01*
X749546Y256529D02*
X751546D01*
X750546Y255529D02*
Y257529D01*
X543076Y189534D02*
Y191534D01*
X542076Y190534D02*
X544076D01*
X536946Y203070D02*
Y205070D01*
X535946Y204070D02*
X537946D01*
X109516Y295569D02*
Y297569D01*
X108516Y296569D02*
X110516D01*
X91877Y296599D02*
X93877D01*
X92877Y295599D02*
Y297599D01*
X89496Y283279D02*
X91496D01*
X90496Y282279D02*
Y284279D01*
X92752Y273319D02*
Y275319D01*
X91752Y274319D02*
X93752D01*
X35898Y252761D02*
Y254761D01*
X34898Y253761D02*
X36898D01*
X124009Y311418D02*
Y313418D01*
X123009Y312418D02*
X125009D01*
X724009Y121418D02*
Y123418D01*
X723009Y122418D02*
X725009D01*
X723009D02*
X725009D01*
X724009Y121418D02*
Y123418D01*
X342386Y190189D02*
X344386D01*
X343386Y189189D02*
Y191189D01*
X347356Y178969D02*
X349356D01*
X348356Y177969D02*
Y179969D01*
X368856Y185969D02*
X370856D01*
X369856Y184969D02*
Y186969D01*
X368956Y192069D02*
X370956D01*
X369956Y191069D02*
Y193069D01*
X368156Y233769D02*
X370156D01*
X369156Y232769D02*
Y234769D01*
X367856Y241769D02*
X369856D01*
X368856Y240769D02*
Y242769D01*
X391356Y183569D02*
Y185569D01*
X390356Y184569D02*
X392356D01*
X453456Y177469D02*
X455456D01*
X454456Y176469D02*
Y178469D01*
X452156Y258369D02*
X454156D01*
X453156Y257369D02*
Y259369D01*
X452156Y264169D02*
X454156D01*
X453156Y263169D02*
Y265169D01*
X347400Y172869D02*
X349400D01*
X348400Y171869D02*
Y173869D01*
X362956Y253469D02*
X364956D01*
X363956Y252469D02*
Y254469D01*
X367756Y176669D02*
Y178669D01*
X366756Y177669D02*
X368756D01*
X368156Y207269D02*
X370156D01*
X369156Y206269D02*
Y208269D01*
X369056Y199269D02*
X371056D01*
X370056Y198269D02*
Y200269D01*
X363056Y259669D02*
X365056D01*
X364056Y258669D02*
Y260669D01*
X384756Y184913D02*
Y186913D01*
X383756Y185913D02*
X385756D01*
X400356Y248469D02*
Y250469D01*
X399356Y249469D02*
X401356D01*
X437456Y187869D02*
X439456D01*
X438456Y186869D02*
Y188869D01*
X437256Y220069D02*
X439256D01*
X438256Y219069D02*
Y221069D01*
X441356Y253869D02*
X443356D01*
X442356Y252869D02*
Y254869D01*
X367956Y247469D02*
X369956D01*
X368956Y246469D02*
Y248469D01*
X336256Y203725D02*
X338256D01*
X337256Y202725D02*
Y204725D01*
X349556Y256169D02*
X351556D01*
X350556Y255169D02*
Y257169D01*
X372538Y255437D02*
Y257437D01*
X371538Y256437D02*
X373538D01*
X396756Y183669D02*
Y185669D01*
X395756Y184669D02*
X397756D01*
X424956Y180913D02*
Y182913D01*
X423956Y181913D02*
X425956D01*
X434956Y174913D02*
Y176913D01*
X433956Y175913D02*
X435956D01*
X442956Y175413D02*
Y177413D01*
X441956Y176413D02*
X443956D01*
X441256Y235669D02*
Y237669D01*
X440256Y236669D02*
X442256D01*
X419756Y246969D02*
Y248969D01*
X418756Y247969D02*
X420756D01*
X427556Y250825D02*
Y252825D01*
X426556Y251825D02*
X428556D01*
X462593Y248769D02*
X464593D01*
X463593Y247769D02*
Y249769D01*
X349556Y261669D02*
X351556D01*
X350556Y260669D02*
Y262669D01*
X379056Y184869D02*
Y186869D01*
X378056Y185869D02*
X380056D01*
X361156Y176569D02*
Y178569D01*
X360156Y177569D02*
X362156D01*
X378956Y248769D02*
Y250769D01*
X377956Y249769D02*
X379956D01*
X395322Y248327D02*
Y250327D01*
X394322Y249327D02*
X396322D01*
X437706Y197360D02*
X439706D01*
X438706Y196360D02*
Y198360D01*
X495985Y382676D02*
X497985D01*
X496985Y381676D02*
Y383676D01*
X324009Y311418D02*
Y313418D01*
X323009Y312418D02*
X325009D01*
X724009Y311418D02*
Y313418D01*
X723009Y312418D02*
X725009D01*
X324009Y346418D02*
Y348418D01*
X323009Y347418D02*
X325009D01*
X524009Y346418D02*
Y348418D01*
X523009Y347418D02*
X525009D01*
X724009Y346418D02*
Y348418D01*
X723009Y347418D02*
X725009D01*
X324009Y381418D02*
Y383418D01*
X323009Y382418D02*
X325009D01*
X524009Y381418D02*
Y383418D01*
X523009Y382418D02*
X525009D01*
X724009Y381418D02*
Y383418D01*
X723009Y382418D02*
X725009D01*
X384009Y311418D02*
Y313418D01*
X383009Y312418D02*
X385009D01*
X584009Y311418D02*
Y313418D01*
X583009Y312418D02*
X585009D01*
X784009Y311418D02*
Y313418D01*
X783009Y312418D02*
X785009D01*
X384009Y346418D02*
Y348418D01*
X383009Y347418D02*
X385009D01*
X584009Y346418D02*
Y348418D01*
X583009Y347418D02*
X585009D01*
X784009Y346418D02*
Y348418D01*
X783009Y347418D02*
X785009D01*
X384009Y381418D02*
Y383418D01*
X383009Y382418D02*
X385009D01*
X584009Y381418D02*
Y383418D01*
X583009Y382418D02*
X585009D01*
X784009Y381418D02*
Y383418D01*
X783009Y382418D02*
X785009D01*
X444009Y311418D02*
Y313418D01*
X443009Y312418D02*
X445009D01*
X644009Y311418D02*
Y313418D01*
X643009Y312418D02*
X645009D01*
X844009Y311418D02*
Y313418D01*
X843009Y312418D02*
X845009D01*
X444009Y346418D02*
Y348418D01*
X443009Y347418D02*
X445009D01*
X644009Y346418D02*
Y348418D01*
X643009Y347418D02*
X645009D01*
X844009Y346418D02*
Y348418D01*
X843009Y347418D02*
X845009D01*
X444009Y381418D02*
Y383418D01*
X443009Y382418D02*
X445009D01*
X644009Y381418D02*
Y383418D01*
X643009Y382418D02*
X645009D01*
X844009Y381418D02*
Y383418D01*
X843009Y382418D02*
X845009D01*
X324009Y121418D02*
Y123418D01*
X323009Y122418D02*
X325009D01*
X524009Y121418D02*
Y123418D01*
X523009Y122418D02*
X525009D01*
X324009Y86418D02*
Y88418D01*
X323009Y87418D02*
X325009D01*
X524009Y86418D02*
Y88418D01*
X523009Y87418D02*
X525009D01*
X724009Y86418D02*
Y88418D01*
X723009Y87418D02*
X725009D01*
X323009Y52418D02*
X325009D01*
X324009Y51418D02*
Y53418D01*
X523009Y52418D02*
X525009D01*
X524009Y51418D02*
Y53418D01*
X723009Y52418D02*
X725009D01*
X724009Y51418D02*
Y53418D01*
X384009Y121418D02*
Y123418D01*
X383009Y122418D02*
X385009D01*
X584009Y121418D02*
Y123418D01*
X583009Y122418D02*
X585009D01*
X784009Y121418D02*
Y123418D01*
X783009Y122418D02*
X785009D01*
X384009Y86418D02*
Y88418D01*
X383009Y87418D02*
X385009D01*
X584009Y86418D02*
Y88418D01*
X583009Y87418D02*
X585009D01*
X784009Y86418D02*
Y88418D01*
X783009Y87418D02*
X785009D01*
X384009Y51418D02*
Y53418D01*
X383009Y52418D02*
X385009D01*
X584009Y51418D02*
Y53418D01*
X583009Y52418D02*
X585009D01*
X784009Y51418D02*
Y53418D01*
X783009Y52418D02*
X785009D01*
X444009Y121418D02*
Y123418D01*
X443009Y122418D02*
X445009D01*
X644009Y121418D02*
Y123418D01*
X643009Y122418D02*
X645009D01*
X844009Y121418D02*
Y123418D01*
X843009Y122418D02*
X845009D01*
X444009Y86418D02*
Y88418D01*
X443009Y87418D02*
X445009D01*
X644009Y86418D02*
Y88418D01*
X643009Y87418D02*
X645009D01*
X844009Y86418D02*
Y88418D01*
X843009Y87418D02*
X845009D01*
X444009Y51418D02*
Y53418D01*
X443009Y52418D02*
X445009D01*
X644009Y50418D02*
Y52418D01*
X643009Y51418D02*
X645009D01*
X844009D02*
Y53418D01*
X843009Y52418D02*
X845009D01*
X524009Y311418D02*
Y313418D01*
X523009Y312418D02*
X525009D01*
X143276Y183519D02*
Y185519D01*
X142276Y184519D02*
X144276D01*
X143276Y189449D02*
Y191449D01*
X142276Y190449D02*
X144276D01*
X137146Y202985D02*
Y204985D01*
X136146Y203985D02*
X138146D01*
X123009Y87418D02*
X125009D01*
X124009Y86418D02*
Y88418D01*
X123009Y122418D02*
X125009D01*
X124009Y121418D02*
Y123418D01*
X123009Y52418D02*
X125009D01*
X124009Y51418D02*
Y53418D01*
X183009Y122418D02*
X185009D01*
X184009Y121418D02*
Y123418D01*
X183009Y87418D02*
X185009D01*
X184009Y86418D02*
Y88418D01*
X183009Y52418D02*
X185009D01*
X184009Y51418D02*
Y53418D01*
X243126Y122059D02*
X245126D01*
X244126Y121059D02*
Y123059D01*
X243009Y87418D02*
X245009D01*
X244009Y86418D02*
Y88418D01*
X243009Y52418D02*
X245009D01*
X244009Y51418D02*
Y53418D01*
X123009Y122418D02*
X125009D01*
X124009Y121418D02*
Y123418D01*
X297267Y53442D02*
Y55442D01*
X296267Y54442D02*
X298267D01*
X243009Y52418D02*
X245009D01*
X244009Y51418D02*
Y53418D01*
X243009Y87418D02*
X245009D01*
X244009Y86418D02*
Y88418D01*
X243126Y122059D02*
X245126D01*
X244126Y121059D02*
Y123059D01*
X183009Y52418D02*
X185009D01*
X184009Y51418D02*
Y53418D01*
X183009Y87418D02*
X185009D01*
X184009Y86418D02*
Y88418D01*
X183009Y122418D02*
X185009D01*
X184009Y121418D02*
Y123418D01*
X123009Y52418D02*
X125009D01*
X124009Y51418D02*
Y53418D01*
X123009Y87418D02*
X125009D01*
X124009Y86418D02*
Y88418D01*
X184009Y381418D02*
Y383418D01*
X183009Y382418D02*
X185009D01*
X123009Y312418D02*
X125009D01*
X124009Y311418D02*
Y313418D01*
X243009Y312418D02*
X245009D01*
X244009Y311418D02*
Y313418D01*
X123009Y382418D02*
X125009D01*
X124009Y381418D02*
Y383418D01*
X243009Y382418D02*
X245009D01*
X244009Y381418D02*
Y383418D01*
X123009Y347418D02*
X125009D01*
X124009Y346418D02*
Y348418D01*
X243009Y347418D02*
X245009D01*
X244009Y346418D02*
Y348418D01*
X183009Y312418D02*
X185009D01*
X184009Y311418D02*
Y313418D01*
X183009Y382418D02*
X185009D01*
X184009Y381418D02*
Y383418D01*
X183009Y347418D02*
X185009D01*
X184009Y346418D02*
Y348418D01*
X243009Y312418D02*
X245009D01*
X244009Y311418D02*
Y313418D01*
X243009Y382418D02*
X245009D01*
X244009Y381418D02*
Y383418D01*
X123009Y347418D02*
X125009D01*
X124009Y346418D02*
Y348418D01*
X243009Y347418D02*
X245009D01*
X244009Y346418D02*
Y348418D01*
X183009Y312418D02*
X185009D01*
X184009Y311418D02*
Y313418D01*
X296985Y381676D02*
Y383676D01*
X295985Y382676D02*
X297985D01*
X183009Y347418D02*
X185009D01*
X184009Y346418D02*
Y348418D01*
X723009Y312418D02*
X725009D01*
X724009Y311418D02*
Y313418D01*
X523009Y312418D02*
X525009D01*
X524009Y311418D02*
Y313418D01*
X323009Y312418D02*
X325009D01*
X324009Y311418D02*
Y313418D01*
X897267Y51442D02*
Y53442D01*
X896267Y52442D02*
X898267D01*
X697267Y51442D02*
Y53442D01*
X696267Y52442D02*
X698267D01*
X497267Y51442D02*
Y53442D01*
X496267Y52442D02*
X498267D01*
X843009Y52418D02*
X845009D01*
X844009Y51418D02*
Y53418D01*
X643009Y51418D02*
X645009D01*
X644009Y50418D02*
Y52418D01*
X443009D02*
X445009D01*
X444009Y51418D02*
Y53418D01*
X843009Y87418D02*
X845009D01*
X844009Y86418D02*
Y88418D01*
X643009Y87418D02*
X645009D01*
X644009Y86418D02*
Y88418D01*
X443009Y87418D02*
X445009D01*
X444009Y86418D02*
Y88418D01*
X843009Y122418D02*
X845009D01*
X844009Y121418D02*
Y123418D01*
X643009Y122418D02*
X645009D01*
X644009Y121418D02*
Y123418D01*
X443009Y122418D02*
X445009D01*
X444009Y121418D02*
Y123418D01*
X783009Y52418D02*
X785009D01*
X784009Y51418D02*
Y53418D01*
X583009Y52418D02*
X585009D01*
X584009Y51418D02*
Y53418D01*
X383009Y52418D02*
X385009D01*
X384009Y51418D02*
Y53418D01*
X783009Y87418D02*
X785009D01*
X784009Y86418D02*
Y88418D01*
X583009Y87418D02*
X585009D01*
X584009Y86418D02*
Y88418D01*
X383009Y87418D02*
X385009D01*
X384009Y86418D02*
Y88418D01*
X783009Y122418D02*
X785009D01*
X784009Y121418D02*
Y123418D01*
X583009Y122418D02*
X585009D01*
X584009Y121418D02*
Y123418D01*
X383009Y122418D02*
X385009D01*
X384009Y121418D02*
Y123418D01*
X723009Y52418D02*
X725009D01*
X724009Y51418D02*
Y53418D01*
X523009Y52418D02*
X525009D01*
X524009Y51418D02*
Y53418D01*
X323009Y52418D02*
X325009D01*
X324009Y51418D02*
Y53418D01*
X723009Y87418D02*
X725009D01*
X724009Y86418D02*
Y88418D01*
X523009Y87418D02*
X525009D01*
X524009Y86418D02*
Y88418D01*
X323009Y87418D02*
X325009D01*
X324009Y86418D02*
Y88418D01*
X523009Y122418D02*
X525009D01*
X524009Y121418D02*
Y123418D01*
X323009Y122418D02*
X325009D01*
X324009Y121418D02*
Y123418D01*
X896985Y381676D02*
Y383676D01*
X895985Y382676D02*
X897985D01*
X696985Y381676D02*
Y383676D01*
X695985Y382676D02*
X697985D01*
X843009Y382418D02*
X845009D01*
X844009Y381418D02*
Y383418D01*
X643009Y382418D02*
X645009D01*
X644009Y381418D02*
Y383418D01*
X443009Y382418D02*
X445009D01*
X444009Y381418D02*
Y383418D01*
X843009Y347418D02*
X845009D01*
X844009Y346418D02*
Y348418D01*
X643009Y347418D02*
X645009D01*
X644009Y346418D02*
Y348418D01*
X443009Y347418D02*
X445009D01*
X444009Y346418D02*
Y348418D01*
X843009Y312418D02*
X845009D01*
X844009Y311418D02*
Y313418D01*
X643009Y312418D02*
X645009D01*
X644009Y311418D02*
Y313418D01*
X443009Y312418D02*
X445009D01*
X444009Y311418D02*
Y313418D01*
X783009Y382418D02*
X785009D01*
X784009Y381418D02*
Y383418D01*
X583009Y382418D02*
X585009D01*
X584009Y381418D02*
Y383418D01*
X383009Y382418D02*
X385009D01*
X384009Y381418D02*
Y383418D01*
X783009Y347418D02*
X785009D01*
X784009Y346418D02*
Y348418D01*
X583009Y347418D02*
X585009D01*
X584009Y346418D02*
Y348418D01*
X383009Y347418D02*
X385009D01*
X384009Y346418D02*
Y348418D01*
X783009Y312418D02*
X785009D01*
X784009Y311418D02*
Y313418D01*
X583009Y312418D02*
X585009D01*
X584009Y311418D02*
Y313418D01*
X383009Y312418D02*
X385009D01*
X384009Y311418D02*
Y313418D01*
X723009Y382418D02*
X725009D01*
X724009Y381418D02*
Y383418D01*
X523009Y382418D02*
X525009D01*
X524009Y381418D02*
Y383418D01*
X323009Y382418D02*
X325009D01*
X324009Y381418D02*
Y383418D01*
X723009Y347418D02*
X725009D01*
X724009Y346418D02*
Y348418D01*
X523009Y347418D02*
X525009D01*
X524009Y346418D02*
Y348418D01*
X323009Y347418D02*
X325009D01*
X324009Y346418D02*
Y348418D01*
X100836Y158093D02*
Y160093D01*
X99836Y159093D02*
X101836D01*
X100846Y192625D02*
Y194625D01*
X99846Y193625D02*
X101846D01*
X108806Y157849D02*
Y159849D01*
X107806Y158849D02*
X109806D01*
X108706Y192839D02*
Y194839D01*
X107706Y193839D02*
X109706D01*
X262483Y249029D02*
X264483D01*
X263483Y248029D02*
Y250029D01*
X195212Y248587D02*
Y250587D01*
X194212Y249587D02*
X196212D01*
X184646Y185173D02*
Y187173D01*
X183646Y186173D02*
X185646D01*
X237146Y220329D02*
X239146D01*
X238146Y219329D02*
Y221329D01*
X224846Y181173D02*
Y183173D01*
X223846Y182173D02*
X225846D01*
X237596Y197620D02*
X239596D01*
X238596Y196620D02*
Y198620D01*
X219646Y247229D02*
Y249229D01*
X218646Y248229D02*
X220646D01*
X200246Y248729D02*
Y250729D01*
X199246Y249729D02*
X201246D01*
X178846Y249029D02*
Y251029D01*
X177846Y250029D02*
X179846D01*
X168046Y234029D02*
X170046D01*
X169046Y233029D02*
Y235029D01*
X168046Y207529D02*
X170046D01*
X169046Y206529D02*
Y208529D01*
X178946Y185129D02*
Y187129D01*
X177946Y186129D02*
X179946D01*
X191246Y183829D02*
Y185829D01*
X190246Y184829D02*
X192246D01*
X147290Y173129D02*
X149290D01*
X148290Y172129D02*
Y174129D01*
X234846Y175173D02*
Y177173D01*
X233846Y176173D02*
X235846D01*
X168746Y186229D02*
X170746D01*
X169746Y185229D02*
Y187229D01*
X168846Y192329D02*
X170846D01*
X169846Y191329D02*
Y193329D01*
X167846Y247729D02*
X169846D01*
X168846Y246729D02*
Y248729D01*
X167746Y242029D02*
X169746D01*
X168746Y241029D02*
Y243029D01*
X147246Y179229D02*
X149246D01*
X148246Y178229D02*
Y180229D01*
X241246Y254129D02*
X243246D01*
X242246Y253129D02*
Y255129D01*
X237346Y188129D02*
X239346D01*
X238346Y187129D02*
Y189129D01*
X242846Y175673D02*
Y177673D01*
X241846Y176673D02*
X243846D01*
X196646Y183929D02*
Y185929D01*
X195646Y184929D02*
X197646D01*
X167646Y176929D02*
Y178929D01*
X166646Y177929D02*
X168646D01*
X168946Y199529D02*
X170946D01*
X169946Y198529D02*
Y200529D01*
X241146Y235929D02*
Y237929D01*
X240146Y236929D02*
X242146D01*
X161046Y176829D02*
Y178829D01*
X160046Y177829D02*
X162046D01*
X162846Y253729D02*
X164846D01*
X163846Y252729D02*
Y254729D01*
X252046Y258629D02*
X254046D01*
X253046Y257629D02*
Y259629D01*
X172428Y255697D02*
Y257697D01*
X171428Y256697D02*
X173428D01*
X253346Y177729D02*
X255346D01*
X254346Y176729D02*
Y178729D01*
X162946Y259929D02*
X164946D01*
X163946Y258929D02*
Y260929D01*
X149446Y261929D02*
X151446D01*
X150446Y260929D02*
Y262929D01*
X252046Y264429D02*
X254046D01*
X253046Y263429D02*
Y265429D01*
X227446Y251085D02*
Y253085D01*
X226446Y252085D02*
X228446D01*
X149446Y256429D02*
X151446D01*
X150446Y255429D02*
Y257429D01*
X663283Y248114D02*
Y250114D01*
X662283Y249114D02*
X664283D01*
X594012Y249672D02*
X596012D01*
X595012Y248672D02*
Y250672D01*
X583446Y186258D02*
X585446D01*
X584446Y185258D02*
Y187258D01*
X637946Y219414D02*
Y221414D01*
X636946Y220414D02*
X638946D01*
X623646Y182258D02*
X625646D01*
X624646Y181258D02*
Y183258D01*
X638396Y196705D02*
Y198705D01*
X637396Y197705D02*
X639396D01*
X618446Y248314D02*
X620446D01*
X619446Y247314D02*
Y249314D01*
X599046Y249814D02*
X601046D01*
X600046Y248814D02*
Y250814D01*
X577646Y250114D02*
X579646D01*
X578646Y249114D02*
Y251114D01*
X568846Y233114D02*
Y235114D01*
X567846Y234114D02*
X569846D01*
X568846Y206614D02*
Y208614D01*
X567846Y207614D02*
X569846D01*
X577746Y186214D02*
X579746D01*
X578746Y185214D02*
Y187214D01*
X590046Y184914D02*
X592046D01*
X591046Y183914D02*
Y185914D01*
X548090Y172214D02*
Y174214D01*
X547090Y173214D02*
X549090D01*
X633646Y176258D02*
X635646D01*
X634646Y175258D02*
Y177258D01*
X569546Y185314D02*
Y187314D01*
X568546Y186314D02*
X570546D01*
X569646Y191414D02*
Y193414D01*
X568646Y192414D02*
X570646D01*
X568646Y246814D02*
Y248814D01*
X567646Y247814D02*
X569646D01*
X568546Y241114D02*
Y243114D01*
X567546Y242114D02*
X569546D01*
X548046Y178314D02*
Y180314D01*
X547046Y179314D02*
X549046D01*
X642046Y253214D02*
Y255214D01*
X641046Y254214D02*
X643046D01*
X638146Y187214D02*
Y189214D01*
X637146Y188214D02*
X639146D01*
X641646Y176758D02*
X643646D01*
X642646Y175758D02*
Y177758D01*
X595446Y185014D02*
X597446D01*
X596446Y184014D02*
Y186014D01*
X566446Y178014D02*
X568446D01*
X567446Y177014D02*
Y179014D01*
X569746Y198614D02*
Y200614D01*
X568746Y199614D02*
X570746D01*
X639946Y237014D02*
X641946D01*
X640946Y236014D02*
Y238014D01*
X559846Y177914D02*
X561846D01*
X560846Y176914D02*
Y178914D01*
X563646Y252814D02*
Y254814D01*
X562646Y253814D02*
X564646D01*
X652846Y257714D02*
Y259714D01*
X651846Y258714D02*
X653846D01*
X571228Y256782D02*
X573228D01*
X572228Y255782D02*
Y257782D01*
X654146Y176814D02*
Y178814D01*
X653146Y177814D02*
X655146D01*
X563746Y259014D02*
Y261014D01*
X562746Y260014D02*
X564746D01*
X550246Y261014D02*
Y263014D01*
X549246Y262014D02*
X551246D01*
X652846Y263514D02*
Y265514D01*
X651846Y264514D02*
X653846D01*
X626246Y252170D02*
X628246D01*
X627246Y251170D02*
Y253170D01*
X550246Y255514D02*
Y257514D01*
X549246Y256514D02*
X551246D01*
X742376Y190549D02*
X744376D01*
X743376Y189549D02*
Y191549D01*
X36160Y263677D02*
Y265676D01*
X35160Y264676D02*
X37160D01*
X63126Y314709D02*
Y316709D01*
X62126Y315709D02*
X64126D01*
X73366Y314709D02*
Y316709D01*
X72366Y315709D02*
X74366D01*
X55116Y250499D02*
Y252499D01*
X54116Y251499D02*
X56116D01*
X51350Y151549D02*
X53350D01*
X52350Y150549D02*
Y152549D01*
X47976Y76499D02*
X49976D01*
X48976Y75499D02*
Y77499D01*
X62132Y133699D02*
Y135699D01*
X61132Y134699D02*
X63132D01*
X91576Y69699D02*
Y71699D01*
X90576Y70699D02*
X92576D01*
X95976Y110399D02*
X97976D01*
X96976Y109399D02*
Y111399D01*
X89698Y110399D02*
X91698D01*
X90698Y109399D02*
Y111399D01*
X736246Y204085D02*
X738246D01*
X737246Y203085D02*
Y205085D01*
X61246Y295669D02*
Y297669D01*
X60246Y296669D02*
X62246D01*
X71952Y295489D02*
Y297489D01*
X70952Y296489D02*
X72952D01*
D53*
X740226Y184619D02*
D03*
X746526D02*
D03*
X539926Y184604D02*
D03*
X546226D02*
D03*
X346536Y184259D02*
D03*
X340236D02*
D03*
X32749Y253761D02*
D03*
X39048D02*
D03*
X340236Y190189D02*
D03*
X346536D02*
D03*
X746526Y190549D02*
D03*
X740226D02*
D03*
X546226Y190534D02*
D03*
X539926D02*
D03*
X146426Y184519D02*
D03*
X140126D02*
D03*
X146426Y190449D02*
D03*
X140126D02*
D03*
D54*
X821246Y273129D02*
D03*
Y279129D02*
D03*
X815846Y273129D02*
D03*
Y279129D02*
D03*
X800346Y273129D02*
D03*
Y279129D02*
D03*
X790646Y273129D02*
D03*
Y279129D02*
D03*
X782546Y273129D02*
D03*
Y279129D02*
D03*
X776546Y273129D02*
D03*
Y279129D02*
D03*
X620946Y273114D02*
D03*
Y279114D02*
D03*
X615546Y273114D02*
D03*
Y279114D02*
D03*
X600046Y273114D02*
D03*
Y279114D02*
D03*
X590346Y273114D02*
D03*
Y279114D02*
D03*
X582246Y273114D02*
D03*
Y279114D02*
D03*
X576246Y273114D02*
D03*
Y279114D02*
D03*
X421256Y272769D02*
D03*
Y278769D02*
D03*
X415856Y272769D02*
D03*
Y278769D02*
D03*
X400356Y272769D02*
D03*
Y278769D02*
D03*
X390656Y272769D02*
D03*
Y278769D02*
D03*
X382556Y272769D02*
D03*
Y278769D02*
D03*
X376556Y272769D02*
D03*
Y278769D02*
D03*
X176446Y279029D02*
D03*
X182446D02*
D03*
X190546D02*
D03*
X200246D02*
D03*
X215746D02*
D03*
X221146D02*
D03*
X103926Y299599D02*
D03*
Y293599D02*
D03*
X109516Y299569D02*
D03*
Y293569D02*
D03*
X109506Y288139D02*
D03*
Y282139D02*
D03*
X98414Y299599D02*
D03*
Y293599D02*
D03*
X407756Y278969D02*
D03*
Y272969D02*
D03*
X491485Y385676D02*
D03*
Y379676D02*
D03*
X502485Y385676D02*
D03*
Y379676D02*
D03*
X500785Y356976D02*
D03*
Y350976D02*
D03*
X495085Y356976D02*
D03*
Y350976D02*
D03*
X299167Y86142D02*
D03*
Y80142D02*
D03*
X302767Y57442D02*
D03*
Y51442D02*
D03*
X293467Y86142D02*
D03*
Y80142D02*
D03*
X291767Y57442D02*
D03*
Y51442D02*
D03*
X295085Y350976D02*
D03*
Y356976D02*
D03*
X300785Y350976D02*
D03*
Y356976D02*
D03*
X291485Y379676D02*
D03*
Y385676D02*
D03*
X302485Y379676D02*
D03*
Y385676D02*
D03*
X899167Y84142D02*
D03*
Y78142D02*
D03*
X902767Y55442D02*
D03*
Y49442D02*
D03*
X893467Y84142D02*
D03*
Y78142D02*
D03*
X891767Y55442D02*
D03*
Y49442D02*
D03*
X699167Y84142D02*
D03*
Y78142D02*
D03*
X702767Y55442D02*
D03*
Y49442D02*
D03*
X693467Y84142D02*
D03*
Y78142D02*
D03*
X691767Y55442D02*
D03*
Y49442D02*
D03*
X499167Y84142D02*
D03*
Y78142D02*
D03*
X502767Y55442D02*
D03*
Y49442D02*
D03*
X493467Y84142D02*
D03*
Y78142D02*
D03*
X491767Y55442D02*
D03*
Y49442D02*
D03*
X895085Y350976D02*
D03*
Y356976D02*
D03*
X891485Y379676D02*
D03*
Y385676D02*
D03*
X900785Y350976D02*
D03*
Y356976D02*
D03*
X902485Y379676D02*
D03*
Y385676D02*
D03*
X695085Y350976D02*
D03*
Y356976D02*
D03*
X691485Y379676D02*
D03*
Y385676D02*
D03*
X700785Y350976D02*
D03*
Y356976D02*
D03*
X702485Y379676D02*
D03*
Y385676D02*
D03*
X108786Y191009D02*
D03*
Y197009D02*
D03*
X207646Y273229D02*
D03*
Y279229D02*
D03*
X607446Y273314D02*
D03*
Y279314D02*
D03*
X807746Y273329D02*
D03*
Y279329D02*
D03*
X221146Y273029D02*
D03*
X215746D02*
D03*
X200246D02*
D03*
X190546D02*
D03*
X182446D02*
D03*
X176446D02*
D03*
X100846Y190869D02*
D03*
Y196869D02*
D03*
X100836Y161849D02*
D03*
Y155849D02*
D03*
D55*
X778966Y174278D02*
D03*
X800620D02*
D03*
X820305D02*
D03*
X830148D02*
D03*
X773061Y258829D02*
D03*
X782903D02*
D03*
X790777D02*
D03*
X806526D02*
D03*
X824242D02*
D03*
X775029D02*
D03*
X776998D02*
D03*
X780935D02*
D03*
X784872D02*
D03*
X786840D02*
D03*
X788809D02*
D03*
X792746D02*
D03*
X794714D02*
D03*
X796683D02*
D03*
X798652D02*
D03*
X802588D02*
D03*
X804557D02*
D03*
X808494D02*
D03*
X810462D02*
D03*
X812431D02*
D03*
X814400D02*
D03*
X816368D02*
D03*
X832116D02*
D03*
X834085D02*
D03*
X836053D02*
D03*
X834085Y174278D02*
D03*
X832116D02*
D03*
X826210D02*
D03*
X824242D02*
D03*
X822274D02*
D03*
X818336D02*
D03*
X816368D02*
D03*
X814400D02*
D03*
X812431D02*
D03*
X810462D02*
D03*
X808494D02*
D03*
X806526D02*
D03*
X804557D02*
D03*
X802588D02*
D03*
X798652D02*
D03*
X790777D02*
D03*
X782903D02*
D03*
X780935D02*
D03*
X776998D02*
D03*
X773061D02*
D03*
X771092D02*
D03*
X818336Y258829D02*
D03*
X820305D02*
D03*
X828179D02*
D03*
X830148D02*
D03*
X794714Y174278D02*
D03*
X788809D02*
D03*
X786840D02*
D03*
X784872D02*
D03*
X769124Y258829D02*
D03*
X826210D02*
D03*
X838022D02*
D03*
Y174278D02*
D03*
X796683D02*
D03*
X769124D02*
D03*
X778966Y258829D02*
D03*
X800620D02*
D03*
X822274D02*
D03*
X828179Y174278D02*
D03*
X792746D02*
D03*
X775029D02*
D03*
X771092Y258829D02*
D03*
X836053Y174278D02*
D03*
X578666Y174263D02*
D03*
X600320D02*
D03*
X572761Y258814D02*
D03*
X582604D02*
D03*
X590478D02*
D03*
X620005Y174263D02*
D03*
X629847D02*
D03*
X606225Y258814D02*
D03*
X623942D02*
D03*
X570792Y174263D02*
D03*
X572761D02*
D03*
X576698D02*
D03*
X580635D02*
D03*
X582604D02*
D03*
X590478D02*
D03*
X598351D02*
D03*
X602288D02*
D03*
X604257D02*
D03*
X606225D02*
D03*
X608194D02*
D03*
X610162D02*
D03*
X612131D02*
D03*
X614100D02*
D03*
X616068D02*
D03*
X618037D02*
D03*
X621974D02*
D03*
X623942D02*
D03*
X625911D02*
D03*
X631816D02*
D03*
X633785D02*
D03*
X635753Y258814D02*
D03*
X633785D02*
D03*
X631816D02*
D03*
X616068D02*
D03*
X614100D02*
D03*
X612131D02*
D03*
X610162D02*
D03*
X608194D02*
D03*
X604257D02*
D03*
X602288D02*
D03*
X598351D02*
D03*
X596383D02*
D03*
X594415D02*
D03*
X592446D02*
D03*
X588509D02*
D03*
X586541D02*
D03*
X584572D02*
D03*
X580635D02*
D03*
X576698D02*
D03*
X574729D02*
D03*
X618037D02*
D03*
X620005D02*
D03*
X627879D02*
D03*
X629847D02*
D03*
X594415Y174263D02*
D03*
X588509D02*
D03*
X586541D02*
D03*
X584572D02*
D03*
X578666Y258814D02*
D03*
X600320D02*
D03*
X621974D02*
D03*
X627879Y174263D02*
D03*
X592446D02*
D03*
X574729D02*
D03*
X568824Y258814D02*
D03*
X625911D02*
D03*
X637722D02*
D03*
Y174263D02*
D03*
X596383D02*
D03*
X568824D02*
D03*
X570792Y258814D02*
D03*
X635753Y174263D02*
D03*
X384882Y173918D02*
D03*
X386851D02*
D03*
X388819D02*
D03*
X394724D02*
D03*
X430158Y258469D02*
D03*
X428189D02*
D03*
X420315D02*
D03*
X418347D02*
D03*
X375039D02*
D03*
X377008D02*
D03*
X380945D02*
D03*
X384882D02*
D03*
X386851D02*
D03*
X388819D02*
D03*
X392756D02*
D03*
X394724D02*
D03*
X396693D02*
D03*
X398661D02*
D03*
X402598D02*
D03*
X404567D02*
D03*
X408504D02*
D03*
X410472D02*
D03*
X412441D02*
D03*
X414409D02*
D03*
X416378D02*
D03*
X432126D02*
D03*
X434095D02*
D03*
X436063D02*
D03*
X434095Y173918D02*
D03*
X432126D02*
D03*
X426221D02*
D03*
X424252D02*
D03*
X422284D02*
D03*
X418347D02*
D03*
X416378D02*
D03*
X414409D02*
D03*
X412441D02*
D03*
X410472D02*
D03*
X408504D02*
D03*
X406535D02*
D03*
X404567D02*
D03*
X402598D02*
D03*
X398661D02*
D03*
X390788D02*
D03*
X382913D02*
D03*
X380945D02*
D03*
X377008D02*
D03*
X373071D02*
D03*
X371102D02*
D03*
X424252Y258469D02*
D03*
X382913D02*
D03*
X373071D02*
D03*
X406535D02*
D03*
X390788D02*
D03*
X430158Y173918D02*
D03*
X420315D02*
D03*
X400630D02*
D03*
X378976D02*
D03*
X369134Y258469D02*
D03*
X426221D02*
D03*
X438032D02*
D03*
Y173918D02*
D03*
X396693D02*
D03*
X369134D02*
D03*
X378976Y258469D02*
D03*
X400630D02*
D03*
X422284D02*
D03*
X428189Y173918D02*
D03*
X392756D02*
D03*
X375039D02*
D03*
X371102Y258469D02*
D03*
X436063Y173918D02*
D03*
X235953Y174178D02*
D03*
X170992Y258729D02*
D03*
X174929Y174178D02*
D03*
X192646D02*
D03*
X228079D02*
D03*
X222174Y258729D02*
D03*
X200520D02*
D03*
X178867D02*
D03*
X169024Y174178D02*
D03*
X196583D02*
D03*
X237922D02*
D03*
Y258729D02*
D03*
X226111D02*
D03*
X169024D02*
D03*
X174929D02*
D03*
X176898D02*
D03*
X180835D02*
D03*
X184772D02*
D03*
X186741D02*
D03*
X188709D02*
D03*
X192646D02*
D03*
X194615D02*
D03*
X196583D02*
D03*
X198551D02*
D03*
X202488D02*
D03*
X204457D02*
D03*
X208394D02*
D03*
X210363D02*
D03*
X212331D02*
D03*
X214300D02*
D03*
X216268D02*
D03*
X232016D02*
D03*
X233985D02*
D03*
X235953D02*
D03*
X233985Y174178D02*
D03*
X232016D02*
D03*
X226111D02*
D03*
X224142D02*
D03*
X222174D02*
D03*
X218236D02*
D03*
X216268D02*
D03*
X214300D02*
D03*
X212331D02*
D03*
X210363D02*
D03*
X208394D02*
D03*
X206425D02*
D03*
X204457D02*
D03*
X202488D02*
D03*
X198551D02*
D03*
X182803D02*
D03*
X180835D02*
D03*
X176898D02*
D03*
X172961D02*
D03*
X170992D02*
D03*
X224142Y258729D02*
D03*
X182803D02*
D03*
X172961D02*
D03*
X206425D02*
D03*
X190677D02*
D03*
X230048Y174178D02*
D03*
X178867D02*
D03*
X220205D02*
D03*
X200520D02*
D03*
X190677D02*
D03*
X218236Y258729D02*
D03*
X220205D02*
D03*
X228079D02*
D03*
X230048D02*
D03*
X194615Y174178D02*
D03*
X188709D02*
D03*
X186741D02*
D03*
X184772D02*
D03*
D56*
X845848Y201790D02*
D03*
Y225412D02*
D03*
X761297Y245097D02*
D03*
Y247065D02*
D03*
X845848Y243128D02*
D03*
Y247065D02*
D03*
Y245097D02*
D03*
Y239191D02*
D03*
Y237223D02*
D03*
Y235254D02*
D03*
Y233286D02*
D03*
Y231317D02*
D03*
Y229349D02*
D03*
Y227380D02*
D03*
Y221475D02*
D03*
Y219506D02*
D03*
Y217538D02*
D03*
Y215569D02*
D03*
Y213601D02*
D03*
Y211632D02*
D03*
Y209664D02*
D03*
Y207695D02*
D03*
Y205727D02*
D03*
Y203758D02*
D03*
Y197853D02*
D03*
Y195884D02*
D03*
Y193916D02*
D03*
Y191947D02*
D03*
Y189979D02*
D03*
Y188010D02*
D03*
Y186042D02*
D03*
Y184073D02*
D03*
X761297Y188010D02*
D03*
Y189979D02*
D03*
Y193916D02*
D03*
Y195884D02*
D03*
Y197853D02*
D03*
Y199821D02*
D03*
Y201790D02*
D03*
Y203758D02*
D03*
Y205727D02*
D03*
Y209664D02*
D03*
Y211632D02*
D03*
Y213601D02*
D03*
Y215569D02*
D03*
Y217538D02*
D03*
Y219506D02*
D03*
Y221475D02*
D03*
Y223443D02*
D03*
Y225412D02*
D03*
Y227380D02*
D03*
Y229349D02*
D03*
Y231317D02*
D03*
Y233286D02*
D03*
Y237223D02*
D03*
Y239191D02*
D03*
Y241160D02*
D03*
X845848Y251002D02*
D03*
Y182105D02*
D03*
X761297D02*
D03*
Y251002D02*
D03*
X845848Y241160D02*
D03*
Y223443D02*
D03*
Y199821D02*
D03*
X761297Y191947D02*
D03*
Y207695D02*
D03*
Y235254D02*
D03*
X845848Y249034D02*
D03*
X761297Y184073D02*
D03*
Y186042D02*
D03*
Y243128D02*
D03*
Y249034D02*
D03*
X560997Y245082D02*
D03*
Y247050D02*
D03*
X645548Y201775D02*
D03*
Y225397D02*
D03*
Y243113D02*
D03*
X560997Y241145D02*
D03*
Y239176D02*
D03*
Y237208D02*
D03*
Y233271D02*
D03*
Y231302D02*
D03*
Y229334D02*
D03*
Y227365D02*
D03*
Y225397D02*
D03*
Y223428D02*
D03*
Y221460D02*
D03*
Y219491D02*
D03*
Y217523D02*
D03*
Y215554D02*
D03*
Y213586D02*
D03*
Y211617D02*
D03*
Y209649D02*
D03*
Y205712D02*
D03*
Y203743D02*
D03*
Y201775D02*
D03*
Y199806D02*
D03*
Y197838D02*
D03*
Y195869D02*
D03*
Y193901D02*
D03*
Y189964D02*
D03*
Y187995D02*
D03*
X645548Y184058D02*
D03*
Y186027D02*
D03*
Y187995D02*
D03*
Y189964D02*
D03*
Y191932D02*
D03*
Y193901D02*
D03*
Y195869D02*
D03*
Y197838D02*
D03*
Y203743D02*
D03*
Y205712D02*
D03*
Y207680D02*
D03*
Y209649D02*
D03*
Y211617D02*
D03*
Y213586D02*
D03*
Y215554D02*
D03*
Y217523D02*
D03*
Y219491D02*
D03*
Y221460D02*
D03*
Y227365D02*
D03*
Y229334D02*
D03*
Y231302D02*
D03*
Y233271D02*
D03*
Y235239D02*
D03*
Y237208D02*
D03*
Y239176D02*
D03*
Y245082D02*
D03*
Y247050D02*
D03*
Y241145D02*
D03*
Y223428D02*
D03*
Y199806D02*
D03*
X560997Y191932D02*
D03*
Y207680D02*
D03*
Y235239D02*
D03*
X645548Y250987D02*
D03*
Y182090D02*
D03*
X560997D02*
D03*
Y250987D02*
D03*
X645548Y249019D02*
D03*
X560997Y184058D02*
D03*
Y186027D02*
D03*
Y243113D02*
D03*
Y249019D02*
D03*
X445858Y246705D02*
D03*
Y244737D02*
D03*
Y238831D02*
D03*
Y236863D02*
D03*
Y234894D02*
D03*
Y232926D02*
D03*
Y230957D02*
D03*
Y228989D02*
D03*
Y227020D02*
D03*
Y221115D02*
D03*
Y219146D02*
D03*
Y217178D02*
D03*
Y215209D02*
D03*
Y213241D02*
D03*
Y211272D02*
D03*
Y209304D02*
D03*
Y207335D02*
D03*
Y205367D02*
D03*
Y203398D02*
D03*
Y197493D02*
D03*
Y195524D02*
D03*
Y193556D02*
D03*
Y191587D02*
D03*
Y189619D02*
D03*
Y187650D02*
D03*
Y185682D02*
D03*
Y183713D02*
D03*
X361307Y187650D02*
D03*
Y189619D02*
D03*
Y193556D02*
D03*
Y195524D02*
D03*
Y197493D02*
D03*
Y199461D02*
D03*
Y201430D02*
D03*
Y203398D02*
D03*
Y205367D02*
D03*
Y209304D02*
D03*
Y211272D02*
D03*
Y213241D02*
D03*
Y215209D02*
D03*
Y217178D02*
D03*
Y219146D02*
D03*
Y221115D02*
D03*
Y223083D02*
D03*
Y225052D02*
D03*
Y227020D02*
D03*
Y228989D02*
D03*
Y230957D02*
D03*
Y232926D02*
D03*
Y236863D02*
D03*
Y238831D02*
D03*
Y240800D02*
D03*
X445858Y242768D02*
D03*
X361307Y246705D02*
D03*
Y244737D02*
D03*
X445858Y201430D02*
D03*
Y225052D02*
D03*
Y250642D02*
D03*
Y181745D02*
D03*
X361307D02*
D03*
Y250642D02*
D03*
X445858Y240800D02*
D03*
Y223083D02*
D03*
Y199461D02*
D03*
X361307Y191587D02*
D03*
Y207335D02*
D03*
Y234894D02*
D03*
X445858Y248674D02*
D03*
X361307Y183713D02*
D03*
Y185682D02*
D03*
Y242768D02*
D03*
Y248674D02*
D03*
X161197Y248934D02*
D03*
Y243028D02*
D03*
Y185942D02*
D03*
Y183973D02*
D03*
X245748Y248934D02*
D03*
X161197Y235154D02*
D03*
Y207595D02*
D03*
Y191847D02*
D03*
X245748Y199721D02*
D03*
Y223343D02*
D03*
Y241060D02*
D03*
X161197Y250902D02*
D03*
Y182005D02*
D03*
X245748D02*
D03*
Y250902D02*
D03*
Y246965D02*
D03*
Y244997D02*
D03*
Y239091D02*
D03*
Y237123D02*
D03*
Y235154D02*
D03*
Y233186D02*
D03*
Y231217D02*
D03*
Y227280D02*
D03*
Y221375D02*
D03*
Y219406D02*
D03*
Y217438D02*
D03*
Y215469D02*
D03*
Y213501D02*
D03*
Y211532D02*
D03*
Y209564D02*
D03*
Y207595D02*
D03*
Y205627D02*
D03*
Y203658D02*
D03*
Y197753D02*
D03*
Y193816D02*
D03*
Y191847D02*
D03*
Y189879D02*
D03*
Y187910D02*
D03*
Y185942D02*
D03*
Y183973D02*
D03*
X161197Y187910D02*
D03*
Y189879D02*
D03*
Y193816D02*
D03*
Y195784D02*
D03*
Y197753D02*
D03*
Y199721D02*
D03*
Y201690D02*
D03*
Y203658D02*
D03*
Y205627D02*
D03*
Y209564D02*
D03*
Y211532D02*
D03*
Y213501D02*
D03*
Y215469D02*
D03*
Y217438D02*
D03*
Y219406D02*
D03*
Y221375D02*
D03*
Y223343D02*
D03*
Y225312D02*
D03*
Y227280D02*
D03*
Y229249D02*
D03*
Y231217D02*
D03*
Y233186D02*
D03*
Y237123D02*
D03*
Y239091D02*
D03*
Y241060D02*
D03*
Y244997D02*
D03*
Y246965D02*
D03*
X245748Y225312D02*
D03*
Y243028D02*
D03*
Y201690D02*
D03*
Y229249D02*
D03*
Y195784D02*
D03*
D57*
X803573Y216553D02*
D03*
X603273Y216538D02*
D03*
X403583Y216194D02*
D03*
X203473Y216454D02*
D03*
D58*
X753120Y252029D02*
D03*
X745246D02*
D03*
X544946Y252014D02*
D03*
X552820D02*
D03*
X345256Y251669D02*
D03*
X353130D02*
D03*
X67413Y127699D02*
D03*
X59539D02*
D03*
X153020Y251929D02*
D03*
X145146D02*
D03*
D59*
X346104Y198935D02*
D03*
X339608D02*
D03*
Y207203D02*
D03*
X346104D02*
D03*
X139498Y207463D02*
D03*
X145994D02*
D03*
X139498Y199195D02*
D03*
X145994D02*
D03*
X746094Y199295D02*
D03*
X739598D02*
D03*
X746094Y207563D02*
D03*
X739598D02*
D03*
X545794Y199280D02*
D03*
X539298D02*
D03*
X545794Y207548D02*
D03*
X539298D02*
D03*
D60*
X342126Y258559D02*
D03*
X348126D02*
D03*
X7180Y259123D02*
D03*
X13180D02*
D03*
X121009Y376918D02*
D03*
X127009D02*
D03*
X262646Y227429D02*
D03*
X262546Y197129D02*
D03*
X462756Y227169D02*
D03*
X462656Y196869D02*
D03*
X862746Y227529D02*
D03*
X862646Y197229D02*
D03*
X662446Y227514D02*
D03*
X662346Y197214D02*
D03*
X148822Y258882D02*
D03*
X547964Y259004D02*
D03*
X748126Y258559D02*
D03*
X875709Y85518D02*
D03*
X869709D02*
D03*
X149709Y310518D02*
D03*
X155709D02*
D03*
X721009Y127918D02*
D03*
X727009D02*
D03*
X721009Y116918D02*
D03*
X727009D02*
D03*
X456756Y227169D02*
D03*
X456656Y196869D02*
D03*
X127009Y127918D02*
D03*
X121009D02*
D03*
X155709Y126218D02*
D03*
X149709D02*
D03*
X127009Y116918D02*
D03*
X121009D02*
D03*
X155709Y120518D02*
D03*
X149709D02*
D03*
X275709Y50518D02*
D03*
X269709D02*
D03*
X247009Y46918D02*
D03*
X241009D02*
D03*
X275709Y56218D02*
D03*
X269709D02*
D03*
X247009Y57918D02*
D03*
X241009D02*
D03*
X275709Y85518D02*
D03*
X269709D02*
D03*
X247009Y81918D02*
D03*
X241009D02*
D03*
X275709Y91218D02*
D03*
X269709D02*
D03*
X247009Y92918D02*
D03*
X241009D02*
D03*
X275826Y120159D02*
D03*
X269826D02*
D03*
X247126Y116559D02*
D03*
X241126D02*
D03*
X275826Y125859D02*
D03*
X269826D02*
D03*
X247126Y127559D02*
D03*
X241126D02*
D03*
X215709Y50518D02*
D03*
X209709D02*
D03*
X187009Y46918D02*
D03*
X181009D02*
D03*
X215709Y56218D02*
D03*
X209709D02*
D03*
X187009Y57918D02*
D03*
X181009D02*
D03*
X215709Y85518D02*
D03*
X209709D02*
D03*
X187009Y81918D02*
D03*
X181009D02*
D03*
X215709Y91218D02*
D03*
X209709D02*
D03*
X187009Y92918D02*
D03*
X181009D02*
D03*
X215709Y120518D02*
D03*
X209709D02*
D03*
X187009Y116918D02*
D03*
X181009D02*
D03*
X215709Y126218D02*
D03*
X209709D02*
D03*
X187009Y127918D02*
D03*
X181009D02*
D03*
X155709Y50518D02*
D03*
X149709D02*
D03*
X127009Y46918D02*
D03*
X121009D02*
D03*
X155709Y56218D02*
D03*
X149709D02*
D03*
X127009Y57918D02*
D03*
X121009D02*
D03*
X155709Y85518D02*
D03*
X149709D02*
D03*
X127009Y81918D02*
D03*
X121009D02*
D03*
X155709Y91218D02*
D03*
X149709D02*
D03*
X127009Y92918D02*
D03*
X121009D02*
D03*
X209709Y380518D02*
D03*
X215709D02*
D03*
X181009Y376918D02*
D03*
X187009D02*
D03*
X209709Y386218D02*
D03*
X215709D02*
D03*
X181009Y387918D02*
D03*
X187009D02*
D03*
X127009Y306918D02*
D03*
X121009D02*
D03*
X127009Y352918D02*
D03*
X121009D02*
D03*
X215709Y345518D02*
D03*
X209709D02*
D03*
X247009Y306918D02*
D03*
X241009D02*
D03*
X247009Y352918D02*
D03*
X241009D02*
D03*
X247009Y376918D02*
D03*
X241009D02*
D03*
X127009Y317918D02*
D03*
X121009D02*
D03*
X127009Y341918D02*
D03*
X121009D02*
D03*
X127009Y387918D02*
D03*
X121009D02*
D03*
X215709Y310518D02*
D03*
X209709D02*
D03*
X215709Y316218D02*
D03*
X209709D02*
D03*
X215709Y351218D02*
D03*
X209709D02*
D03*
X247009Y317918D02*
D03*
X241009D02*
D03*
X247009Y341918D02*
D03*
X241009D02*
D03*
X247009Y387918D02*
D03*
X241009D02*
D03*
X155709Y345518D02*
D03*
X149709D02*
D03*
X155709Y386218D02*
D03*
X149709D02*
D03*
X187009Y306918D02*
D03*
X181009D02*
D03*
X187009Y352918D02*
D03*
X181009D02*
D03*
X275709Y345518D02*
D03*
X269709D02*
D03*
X275709Y386218D02*
D03*
X269709D02*
D03*
X155709Y316218D02*
D03*
X149709D02*
D03*
X155709Y351218D02*
D03*
X149709D02*
D03*
X155709Y380518D02*
D03*
X149709D02*
D03*
X187009Y317918D02*
D03*
X181009D02*
D03*
X187009Y341918D02*
D03*
X181009D02*
D03*
X275709Y310518D02*
D03*
X269709D02*
D03*
X275709Y316218D02*
D03*
X269709D02*
D03*
X275709Y351218D02*
D03*
X269709D02*
D03*
X275709Y380518D02*
D03*
X269709D02*
D03*
X755709Y310518D02*
D03*
X749709D02*
D03*
X727009Y306918D02*
D03*
X721009D02*
D03*
X755709Y316218D02*
D03*
X749709D02*
D03*
X727009Y317918D02*
D03*
X721009D02*
D03*
X555709Y310518D02*
D03*
X549709D02*
D03*
X527009Y306918D02*
D03*
X521009D02*
D03*
X555709Y316218D02*
D03*
X549709D02*
D03*
X527009Y317918D02*
D03*
X521009D02*
D03*
X355709Y310518D02*
D03*
X349709D02*
D03*
X327009Y306918D02*
D03*
X321009D02*
D03*
X355709Y316218D02*
D03*
X349709D02*
D03*
X327009Y317918D02*
D03*
X321009D02*
D03*
X875709Y50518D02*
D03*
X869709D02*
D03*
X847009Y46918D02*
D03*
X841009D02*
D03*
X875709Y56218D02*
D03*
X869709D02*
D03*
X847009Y57918D02*
D03*
X841009D02*
D03*
X675709Y49518D02*
D03*
X669709D02*
D03*
X647009Y45918D02*
D03*
X641009D02*
D03*
X675709Y55218D02*
D03*
X669709D02*
D03*
X647009Y56918D02*
D03*
X641009D02*
D03*
X475709Y50518D02*
D03*
X469709D02*
D03*
X447009Y46918D02*
D03*
X441009D02*
D03*
X475709Y56218D02*
D03*
X469709D02*
D03*
X447009Y57918D02*
D03*
X441009D02*
D03*
X847009Y81918D02*
D03*
X841009D02*
D03*
X875709Y91218D02*
D03*
X869709D02*
D03*
X847009Y92918D02*
D03*
X841009D02*
D03*
X675709Y85518D02*
D03*
X669709D02*
D03*
X647009Y81918D02*
D03*
X641009D02*
D03*
X675709Y91218D02*
D03*
X669709D02*
D03*
X647009Y92918D02*
D03*
X641009D02*
D03*
X475709Y85518D02*
D03*
X469709D02*
D03*
X447009Y81918D02*
D03*
X441009D02*
D03*
X475709Y91218D02*
D03*
X469709D02*
D03*
X447009Y92918D02*
D03*
X441009D02*
D03*
X875709Y120518D02*
D03*
X869709D02*
D03*
X847009Y116918D02*
D03*
X841009D02*
D03*
X875709Y126218D02*
D03*
X869709D02*
D03*
X847009Y127918D02*
D03*
X841009D02*
D03*
X675709Y120518D02*
D03*
X669709D02*
D03*
X647009Y116918D02*
D03*
X641009D02*
D03*
X675709Y126218D02*
D03*
X669709D02*
D03*
X647009Y127918D02*
D03*
X641009D02*
D03*
X475709Y120518D02*
D03*
X469709D02*
D03*
X447009Y116918D02*
D03*
X441009D02*
D03*
X475709Y126218D02*
D03*
X469709D02*
D03*
X447009Y127918D02*
D03*
X441009D02*
D03*
X815709Y50518D02*
D03*
X809709D02*
D03*
X787009Y46918D02*
D03*
X781009D02*
D03*
X815709Y56218D02*
D03*
X809709D02*
D03*
X787009Y57918D02*
D03*
X781009D02*
D03*
X615709Y50518D02*
D03*
X609709D02*
D03*
X587009Y46918D02*
D03*
X581009D02*
D03*
X615709Y56218D02*
D03*
X609709D02*
D03*
X587009Y57918D02*
D03*
X581009D02*
D03*
X415709Y50518D02*
D03*
X409709D02*
D03*
X387009Y46918D02*
D03*
X381009D02*
D03*
X415709Y56218D02*
D03*
X409709D02*
D03*
X387009Y57918D02*
D03*
X381009D02*
D03*
X815709Y85518D02*
D03*
X809709D02*
D03*
X787009Y81918D02*
D03*
X781009D02*
D03*
X815709Y91218D02*
D03*
X809709D02*
D03*
X787009Y92918D02*
D03*
X781009D02*
D03*
X615709Y85518D02*
D03*
X609709D02*
D03*
X587009Y81918D02*
D03*
X581009D02*
D03*
X615709Y91218D02*
D03*
X609709D02*
D03*
X587009Y92918D02*
D03*
X581009D02*
D03*
X415709Y85518D02*
D03*
X409709D02*
D03*
X387009Y81918D02*
D03*
X381009D02*
D03*
X415709Y91218D02*
D03*
X409709D02*
D03*
X387009Y92918D02*
D03*
X381009D02*
D03*
X815709Y120518D02*
D03*
X809709D02*
D03*
X787009Y116918D02*
D03*
X781009D02*
D03*
X815709Y126218D02*
D03*
X809709D02*
D03*
X787009Y127918D02*
D03*
X781009D02*
D03*
X615709Y120518D02*
D03*
X609709D02*
D03*
X587009Y116918D02*
D03*
X581009D02*
D03*
X615709Y126218D02*
D03*
X609709D02*
D03*
X587009Y127918D02*
D03*
X581009D02*
D03*
X415709Y120518D02*
D03*
X409709D02*
D03*
X387009Y116918D02*
D03*
X381009D02*
D03*
X415709Y126218D02*
D03*
X409709D02*
D03*
X387009Y127918D02*
D03*
X381009D02*
D03*
X755709Y50518D02*
D03*
X749709D02*
D03*
X727009Y46918D02*
D03*
X721009D02*
D03*
X755709Y56218D02*
D03*
X749709D02*
D03*
X727009Y57918D02*
D03*
X721009D02*
D03*
X555709Y50518D02*
D03*
X549709D02*
D03*
X527009Y46918D02*
D03*
X521009D02*
D03*
X555709Y56218D02*
D03*
X549709D02*
D03*
X527009Y57918D02*
D03*
X521009D02*
D03*
X355709Y50518D02*
D03*
X349709D02*
D03*
X327009Y46918D02*
D03*
X321009D02*
D03*
X355709Y56218D02*
D03*
X349709D02*
D03*
X327009Y57918D02*
D03*
X321009D02*
D03*
X755709Y85518D02*
D03*
X749709D02*
D03*
X727009Y81918D02*
D03*
X721009D02*
D03*
X755709Y91218D02*
D03*
X749709D02*
D03*
X727009Y92918D02*
D03*
X721009D02*
D03*
X555709Y85518D02*
D03*
X549709D02*
D03*
X527009Y81918D02*
D03*
X521009D02*
D03*
X555709Y91218D02*
D03*
X549709D02*
D03*
X527009Y92918D02*
D03*
X521009D02*
D03*
X355709Y85518D02*
D03*
X349709D02*
D03*
X327009Y81918D02*
D03*
X321009D02*
D03*
X355709Y91218D02*
D03*
X349709D02*
D03*
X327009Y92918D02*
D03*
X321009D02*
D03*
X755709Y120518D02*
D03*
X749709D02*
D03*
X755709Y126218D02*
D03*
X749709D02*
D03*
X555709Y120518D02*
D03*
X549709D02*
D03*
X527009Y116918D02*
D03*
X521009D02*
D03*
X555709Y126218D02*
D03*
X549709D02*
D03*
X527009Y127918D02*
D03*
X521009D02*
D03*
X355709Y120518D02*
D03*
X349709D02*
D03*
X327009Y116918D02*
D03*
X321009D02*
D03*
X355709Y126218D02*
D03*
X349709D02*
D03*
X327009Y127918D02*
D03*
X321009D02*
D03*
X875709Y380518D02*
D03*
X869709D02*
D03*
X847009Y376918D02*
D03*
X841009D02*
D03*
X875709Y386218D02*
D03*
X869709D02*
D03*
X847009Y387918D02*
D03*
X841009D02*
D03*
X675709Y380518D02*
D03*
X669709D02*
D03*
X647009Y376918D02*
D03*
X641009D02*
D03*
X675709Y386218D02*
D03*
X669709D02*
D03*
X647009Y387918D02*
D03*
X641009D02*
D03*
X475709Y380518D02*
D03*
X469709D02*
D03*
X447009Y376918D02*
D03*
X441009D02*
D03*
X475709Y386218D02*
D03*
X469709D02*
D03*
X447009Y387918D02*
D03*
X441009D02*
D03*
X875709Y345518D02*
D03*
X869709D02*
D03*
X847009Y341918D02*
D03*
X841009D02*
D03*
X875709Y351218D02*
D03*
X869709D02*
D03*
X847009Y352918D02*
D03*
X841009D02*
D03*
X675709Y345518D02*
D03*
X669709D02*
D03*
X647009Y341918D02*
D03*
X641009D02*
D03*
X675709Y351218D02*
D03*
X669709D02*
D03*
X647009Y352918D02*
D03*
X641009D02*
D03*
X475709Y345518D02*
D03*
X469709D02*
D03*
X447009Y341918D02*
D03*
X441009D02*
D03*
X475709Y351218D02*
D03*
X469709D02*
D03*
X447009Y352918D02*
D03*
X441009D02*
D03*
X875709Y310518D02*
D03*
X869709D02*
D03*
X847009Y306918D02*
D03*
X841009D02*
D03*
X875709Y316218D02*
D03*
X869709D02*
D03*
X847009Y317918D02*
D03*
X841009D02*
D03*
X675709Y310518D02*
D03*
X669709D02*
D03*
X647009Y306918D02*
D03*
X641009D02*
D03*
X675709Y316218D02*
D03*
X669709D02*
D03*
X647009Y317918D02*
D03*
X641009D02*
D03*
X475709Y310518D02*
D03*
X469709D02*
D03*
X447009Y306918D02*
D03*
X441009D02*
D03*
X475709Y316218D02*
D03*
X469709D02*
D03*
X447009Y317918D02*
D03*
X441009D02*
D03*
X815709Y380518D02*
D03*
X809709D02*
D03*
X787009Y376918D02*
D03*
X781009D02*
D03*
X815709Y386218D02*
D03*
X809709D02*
D03*
X787009Y387918D02*
D03*
X781009D02*
D03*
X615709Y380518D02*
D03*
X609709D02*
D03*
X587009Y376918D02*
D03*
X581009D02*
D03*
X615709Y386218D02*
D03*
X609709D02*
D03*
X587009Y387918D02*
D03*
X581009D02*
D03*
X415709Y380518D02*
D03*
X409709D02*
D03*
X387009Y376918D02*
D03*
X381009D02*
D03*
X415709Y386218D02*
D03*
X409709D02*
D03*
X387009Y387918D02*
D03*
X381009D02*
D03*
X815709Y345518D02*
D03*
X809709D02*
D03*
X787009Y341918D02*
D03*
X781009D02*
D03*
X815709Y351218D02*
D03*
X809709D02*
D03*
X787009Y352918D02*
D03*
X781009D02*
D03*
X615709Y345518D02*
D03*
X609709D02*
D03*
X587009Y341918D02*
D03*
X581009D02*
D03*
X615709Y351218D02*
D03*
X609709D02*
D03*
X587009Y352918D02*
D03*
X581009D02*
D03*
X415709Y345518D02*
D03*
X409709D02*
D03*
X387009Y341918D02*
D03*
X381009D02*
D03*
X415709Y351218D02*
D03*
X409709D02*
D03*
X387009Y352918D02*
D03*
X381009D02*
D03*
X815709Y310518D02*
D03*
X809709D02*
D03*
X787009Y306918D02*
D03*
X781009D02*
D03*
X815709Y316218D02*
D03*
X809709D02*
D03*
X787009Y317918D02*
D03*
X781009D02*
D03*
X615709Y310518D02*
D03*
X609709D02*
D03*
X587009Y306918D02*
D03*
X581009D02*
D03*
X615709Y316218D02*
D03*
X609709D02*
D03*
X587009Y317918D02*
D03*
X581009D02*
D03*
X415709Y310518D02*
D03*
X409709D02*
D03*
X387009Y306918D02*
D03*
X381009D02*
D03*
X415709Y316218D02*
D03*
X409709D02*
D03*
X387009Y317918D02*
D03*
X381009D02*
D03*
X755709Y380518D02*
D03*
X749709D02*
D03*
X727009Y376918D02*
D03*
X721009D02*
D03*
X755709Y386218D02*
D03*
X749709D02*
D03*
X727009Y387918D02*
D03*
X721009D02*
D03*
X555709Y380518D02*
D03*
X549709D02*
D03*
X527009Y376918D02*
D03*
X521009D02*
D03*
X555709Y386218D02*
D03*
X549709D02*
D03*
X527009Y387918D02*
D03*
X521009D02*
D03*
X355709Y380518D02*
D03*
X349709D02*
D03*
X327009Y376918D02*
D03*
X321009D02*
D03*
X355709Y386218D02*
D03*
X349709D02*
D03*
X327009Y387918D02*
D03*
X321009D02*
D03*
X755709Y345518D02*
D03*
X749709D02*
D03*
X727009Y341918D02*
D03*
X721009D02*
D03*
X755709Y351218D02*
D03*
X749709D02*
D03*
X727009Y352918D02*
D03*
X721009D02*
D03*
X555709Y345518D02*
D03*
X549709D02*
D03*
X527009Y341918D02*
D03*
X521009D02*
D03*
X555709Y351218D02*
D03*
X549709D02*
D03*
X527009Y352918D02*
D03*
X521009D02*
D03*
X355709Y345518D02*
D03*
X349709D02*
D03*
X327009Y341918D02*
D03*
X321009D02*
D03*
X355709Y351218D02*
D03*
X349709D02*
D03*
X327009Y352918D02*
D03*
X321009D02*
D03*
X742126Y258559D02*
D03*
X142823Y258882D02*
D03*
X541964Y259004D02*
D03*
X856646Y197229D02*
D03*
X856746Y227529D02*
D03*
X656346Y197214D02*
D03*
X656446Y227514D02*
D03*
X256546Y197129D02*
D03*
X256646Y227429D02*
D03*
X39160Y259123D02*
D03*
X33160D02*
D03*
X13180Y253570D02*
D03*
X7180D02*
D03*
X13180Y248017D02*
D03*
X7180D02*
D03*
Y264676D02*
D03*
X13180D02*
D03*
X94576Y76132D02*
D03*
X88576D02*
D03*
Y81566D02*
D03*
X94576D02*
D03*
X39876Y78899D02*
D03*
X33876D02*
D03*
X88546Y87129D02*
D03*
X94546D02*
D03*
X76776Y70799D02*
D03*
X82776D02*
D03*
D61*
X68166Y85485D02*
D03*
D62*
X79190Y93163D02*
D03*
Y90603D02*
D03*
Y88044D02*
D03*
Y85485D02*
D03*
Y82926D02*
D03*
Y80367D02*
D03*
Y77808D02*
D03*
X57143D02*
D03*
Y80367D02*
D03*
Y82926D02*
D03*
Y85485D02*
D03*
Y88044D02*
D03*
Y90603D02*
D03*
Y93163D02*
D03*
D63*
X57179Y103599D02*
D03*
D64*
X69856D02*
D03*
D65*
X47306Y225913D02*
D03*
Y231425D02*
D03*
X92877Y299355D02*
D03*
Y293843D02*
D03*
X90496Y286035D02*
D03*
Y280523D02*
D03*
X496985Y379921D02*
D03*
Y385432D02*
D03*
X297267Y51686D02*
D03*
Y57198D02*
D03*
X296985Y385432D02*
D03*
Y379921D02*
D03*
X897267Y49686D02*
D03*
Y55198D02*
D03*
X697267Y49686D02*
D03*
Y55198D02*
D03*
X497267Y49686D02*
D03*
Y55198D02*
D03*
X896985Y385432D02*
D03*
Y379921D02*
D03*
X696985Y385432D02*
D03*
Y379921D02*
D03*
X55116Y248743D02*
D03*
Y254255D02*
D03*
X48976Y73743D02*
D03*
Y79255D02*
D03*
D66*
X68746Y258278D02*
D03*
Y281900D02*
D03*
X94076Y122710D02*
D03*
Y99088D02*
D03*
D67*
X60459Y329406D02*
D03*
X63018D02*
D03*
X60459Y306272D02*
D03*
X63018D02*
D03*
X65577D02*
D03*
X68137D02*
D03*
X70696D02*
D03*
X73255D02*
D03*
X75814D02*
D03*
X78373D02*
D03*
Y329406D02*
D03*
X75814D02*
D03*
X73255D02*
D03*
X70696D02*
D03*
X68137D02*
D03*
X65577D02*
D03*
D68*
X66112Y337549D02*
D03*
X60600D02*
D03*
X126765Y382418D02*
D03*
X121253D02*
D03*
X89996Y274319D02*
D03*
X95508D02*
D03*
X126765Y312418D02*
D03*
X121253D02*
D03*
X726765Y122418D02*
D03*
X721253D02*
D03*
X121253D02*
D03*
X126765D02*
D03*
X241253Y52418D02*
D03*
X246765D02*
D03*
X241253Y87418D02*
D03*
X246765D02*
D03*
X241370Y122059D02*
D03*
X246882D02*
D03*
X181253Y52418D02*
D03*
X186765D02*
D03*
X181253Y87418D02*
D03*
X186765D02*
D03*
X181253Y122418D02*
D03*
X186765D02*
D03*
X121253Y52418D02*
D03*
X126765D02*
D03*
X121253Y87418D02*
D03*
X126765D02*
D03*
X186765Y382418D02*
D03*
X181253D02*
D03*
X241253Y312418D02*
D03*
X246765D02*
D03*
X241253Y382418D02*
D03*
X246765D02*
D03*
X121253Y347418D02*
D03*
X126765D02*
D03*
X241253D02*
D03*
X246765D02*
D03*
X181253Y312418D02*
D03*
X186765D02*
D03*
X181253Y347418D02*
D03*
X186765D02*
D03*
X721253Y312418D02*
D03*
X726765D02*
D03*
X521253D02*
D03*
X526765D02*
D03*
X321253D02*
D03*
X326765D02*
D03*
X841253Y52418D02*
D03*
X846765D02*
D03*
X641253Y51418D02*
D03*
X646765D02*
D03*
X441253Y52418D02*
D03*
X446765D02*
D03*
X841253Y87418D02*
D03*
X846765D02*
D03*
X641253D02*
D03*
X646765D02*
D03*
X441253D02*
D03*
X446765D02*
D03*
X841253Y122418D02*
D03*
X846765D02*
D03*
X641253D02*
D03*
X646765D02*
D03*
X441253D02*
D03*
X446765D02*
D03*
X781253Y52418D02*
D03*
X786765D02*
D03*
X581253D02*
D03*
X586765D02*
D03*
X381253D02*
D03*
X386765D02*
D03*
X781253Y87418D02*
D03*
X786765D02*
D03*
X581253D02*
D03*
X586765D02*
D03*
X381253D02*
D03*
X386765D02*
D03*
X781253Y122418D02*
D03*
X786765D02*
D03*
X581253D02*
D03*
X586765D02*
D03*
X381253D02*
D03*
X386765D02*
D03*
X721253Y52418D02*
D03*
X726765D02*
D03*
X521253D02*
D03*
X526765D02*
D03*
X321253D02*
D03*
X326765D02*
D03*
X721253Y87418D02*
D03*
X726765D02*
D03*
X521253D02*
D03*
X526765D02*
D03*
X321253D02*
D03*
X326765D02*
D03*
X521253Y122418D02*
D03*
X526765D02*
D03*
X321253D02*
D03*
X326765D02*
D03*
X841253Y382418D02*
D03*
X846765D02*
D03*
X641253D02*
D03*
X646765D02*
D03*
X441253D02*
D03*
X446765D02*
D03*
X841253Y347418D02*
D03*
X846765D02*
D03*
X641253D02*
D03*
X646765D02*
D03*
X441253D02*
D03*
X446765D02*
D03*
X841253Y312418D02*
D03*
X846765D02*
D03*
X641253D02*
D03*
X646765D02*
D03*
X441253D02*
D03*
X446765D02*
D03*
X781253Y382418D02*
D03*
X786765D02*
D03*
X581253D02*
D03*
X586765D02*
D03*
X381253D02*
D03*
X386765D02*
D03*
X781253Y347418D02*
D03*
X786765D02*
D03*
X581253D02*
D03*
X586765D02*
D03*
X381253D02*
D03*
X386765D02*
D03*
X781253Y312418D02*
D03*
X786765D02*
D03*
X581253D02*
D03*
X586765D02*
D03*
X381253D02*
D03*
X386765D02*
D03*
X721253Y382418D02*
D03*
X726765D02*
D03*
X521253D02*
D03*
X526765D02*
D03*
X321253D02*
D03*
X326765D02*
D03*
X721253Y347418D02*
D03*
X726765D02*
D03*
X521253D02*
D03*
X526765D02*
D03*
X321253D02*
D03*
X326765D02*
D03*
X38916Y264676D02*
D03*
X33404D02*
D03*
X55106Y151549D02*
D03*
X49594D02*
D03*
X64888Y134699D02*
D03*
X59376D02*
D03*
X94332Y70699D02*
D03*
X88820D02*
D03*
X64002Y296669D02*
D03*
X58490D02*
D03*
X74708Y296489D02*
D03*
X69196D02*
D03*
D69*
X96384Y217297D02*
D03*
X81029Y244761D02*
D03*
X98943Y217297D02*
D03*
Y244761D02*
D03*
X83588D02*
D03*
X86147D02*
D03*
X88706D02*
D03*
X91265D02*
D03*
X93825D02*
D03*
X96384D02*
D03*
X93825Y217297D02*
D03*
X91265D02*
D03*
X88706D02*
D03*
X86147D02*
D03*
X83588D02*
D03*
X81029D02*
D03*
D70*
X91956Y266439D02*
D03*
Y255415D02*
D03*
D71*
X97131Y279679D02*
D03*
X99099D02*
D03*
X101067D02*
D03*
X103036D02*
D03*
Y286278D02*
D03*
X101067D02*
D03*
X99099D02*
D03*
X97131D02*
D03*
D72*
X22169Y130290D02*
D03*
X33783D02*
D03*
Y91708D02*
D03*
X22169D02*
D03*
D73*
X78546Y137359D02*
D03*
Y139859D02*
D03*
Y142459D02*
D03*
Y144959D02*
D03*
X94546D02*
D03*
Y142459D02*
D03*
Y139859D02*
D03*
Y137359D02*
D03*
D74*
X108166Y182690D02*
D03*
X100686D02*
D03*
Y172848D02*
D03*
X108166D02*
D03*
X104426Y182690D02*
D03*
Y172848D02*
D03*
D75*
X64526Y188526D02*
D03*
X64476Y205865D02*
D03*
X64936Y231848D02*
D03*
D76*
X64526Y175849D02*
D03*
X64476Y218542D02*
D03*
X64936Y244525D02*
D03*
D77*
X28066Y259432D02*
D03*
Y257463D02*
D03*
Y255495D02*
D03*
Y253526D02*
D03*
X19011D02*
D03*
Y255495D02*
D03*
Y257463D02*
D03*
Y259432D02*
D03*
D78*
X24916Y253822D02*
D03*
X22160D02*
D03*
Y259137D02*
D03*
X24916D02*
D03*
D79*
X14157Y377937D02*
D03*
Y357937D02*
D03*
D80*
X54610Y367937D02*
D03*
D81*
X138417Y313398D02*
D03*
X738417Y123398D02*
D03*
X138417D02*
D03*
X258417Y53398D02*
D03*
Y88398D02*
D03*
X258535Y123039D02*
D03*
X198417Y53398D02*
D03*
Y88398D02*
D03*
Y123398D02*
D03*
X138417Y53398D02*
D03*
Y88398D02*
D03*
X198417Y383398D02*
D03*
X138417Y348398D02*
D03*
Y383398D02*
D03*
X198417Y313398D02*
D03*
Y348398D02*
D03*
X258417Y313398D02*
D03*
Y348398D02*
D03*
Y383398D02*
D03*
X738417Y313398D02*
D03*
X538417D02*
D03*
X338417D02*
D03*
X858417Y53398D02*
D03*
X658417Y52398D02*
D03*
X458417Y53398D02*
D03*
X858417Y88398D02*
D03*
X658417D02*
D03*
X458417D02*
D03*
X858417Y123398D02*
D03*
X658417D02*
D03*
X458417D02*
D03*
X798417Y53398D02*
D03*
X598417D02*
D03*
X398417D02*
D03*
X798417Y88398D02*
D03*
X598417D02*
D03*
X398417D02*
D03*
X798417Y123398D02*
D03*
X598417D02*
D03*
X398417D02*
D03*
X738417Y53398D02*
D03*
X538417D02*
D03*
X338417D02*
D03*
X738417Y88398D02*
D03*
X538417D02*
D03*
X338417D02*
D03*
X538417Y123398D02*
D03*
X338417D02*
D03*
X858417Y383398D02*
D03*
X658417D02*
D03*
X458417D02*
D03*
X858417Y348398D02*
D03*
X658417D02*
D03*
X458417D02*
D03*
X858417Y313398D02*
D03*
X658417D02*
D03*
X458417D02*
D03*
X798417Y383398D02*
D03*
X598417D02*
D03*
X398417D02*
D03*
X798417Y348398D02*
D03*
X598417D02*
D03*
X398417D02*
D03*
X798417Y313398D02*
D03*
X598417D02*
D03*
X398417D02*
D03*
X738417Y383398D02*
D03*
X538417D02*
D03*
X338417D02*
D03*
X738417Y348398D02*
D03*
X538417D02*
D03*
X338417D02*
D03*
D82*
X132709Y309559D02*
D03*
Y312118D02*
D03*
Y314677D02*
D03*
Y317236D02*
D03*
X144126D02*
D03*
Y314677D02*
D03*
Y312118D02*
D03*
Y309559D02*
D03*
X732709Y119559D02*
D03*
Y122118D02*
D03*
Y124677D02*
D03*
Y127236D02*
D03*
X744126D02*
D03*
Y124677D02*
D03*
Y122118D02*
D03*
Y119559D02*
D03*
X144126D02*
D03*
Y122118D02*
D03*
Y124677D02*
D03*
Y127236D02*
D03*
X132709D02*
D03*
Y124677D02*
D03*
Y122118D02*
D03*
Y119559D02*
D03*
X264126Y49559D02*
D03*
Y52118D02*
D03*
Y54677D02*
D03*
Y57236D02*
D03*
X252709D02*
D03*
Y54677D02*
D03*
Y52118D02*
D03*
Y49559D02*
D03*
X264126Y84559D02*
D03*
Y87118D02*
D03*
Y89677D02*
D03*
Y92236D02*
D03*
X252709D02*
D03*
Y89677D02*
D03*
Y87118D02*
D03*
Y84559D02*
D03*
X264243Y119200D02*
D03*
Y121759D02*
D03*
Y124318D02*
D03*
Y126877D02*
D03*
X252826D02*
D03*
Y124318D02*
D03*
Y121759D02*
D03*
Y119200D02*
D03*
X204126Y49559D02*
D03*
Y52118D02*
D03*
Y54677D02*
D03*
Y57236D02*
D03*
X192709D02*
D03*
Y54677D02*
D03*
Y52118D02*
D03*
Y49559D02*
D03*
X204126Y84559D02*
D03*
Y87118D02*
D03*
Y89677D02*
D03*
Y92236D02*
D03*
X192709D02*
D03*
Y89677D02*
D03*
Y87118D02*
D03*
Y84559D02*
D03*
X204126Y119559D02*
D03*
Y122118D02*
D03*
Y124677D02*
D03*
Y127236D02*
D03*
X192709D02*
D03*
Y124677D02*
D03*
Y122118D02*
D03*
Y119559D02*
D03*
X144126Y49559D02*
D03*
Y52118D02*
D03*
Y54677D02*
D03*
Y57236D02*
D03*
X132709D02*
D03*
Y54677D02*
D03*
Y52118D02*
D03*
Y49559D02*
D03*
X144126Y84559D02*
D03*
Y87118D02*
D03*
Y89677D02*
D03*
Y92236D02*
D03*
X132709D02*
D03*
Y89677D02*
D03*
Y87118D02*
D03*
Y84559D02*
D03*
X192709Y379559D02*
D03*
Y382118D02*
D03*
Y384677D02*
D03*
Y387236D02*
D03*
X204126D02*
D03*
Y384677D02*
D03*
Y382118D02*
D03*
Y379559D02*
D03*
X144126Y344559D02*
D03*
Y347118D02*
D03*
Y349677D02*
D03*
Y352236D02*
D03*
X132709D02*
D03*
Y349677D02*
D03*
Y347118D02*
D03*
Y344559D02*
D03*
X144126Y379559D02*
D03*
Y382118D02*
D03*
Y384677D02*
D03*
Y387236D02*
D03*
X132709D02*
D03*
Y384677D02*
D03*
Y382118D02*
D03*
Y379559D02*
D03*
X204126Y309559D02*
D03*
Y312118D02*
D03*
Y314677D02*
D03*
Y317236D02*
D03*
X192709D02*
D03*
Y314677D02*
D03*
Y312118D02*
D03*
Y309559D02*
D03*
X204126Y344559D02*
D03*
Y347118D02*
D03*
Y349677D02*
D03*
Y352236D02*
D03*
X192709D02*
D03*
Y349677D02*
D03*
Y347118D02*
D03*
Y344559D02*
D03*
X264126Y309559D02*
D03*
Y312118D02*
D03*
Y314677D02*
D03*
Y317236D02*
D03*
X252709D02*
D03*
Y314677D02*
D03*
Y312118D02*
D03*
Y309559D02*
D03*
X264126Y344559D02*
D03*
Y347118D02*
D03*
Y349677D02*
D03*
Y352236D02*
D03*
X252709D02*
D03*
Y349677D02*
D03*
Y347118D02*
D03*
Y344559D02*
D03*
X264126Y379559D02*
D03*
Y382118D02*
D03*
Y384677D02*
D03*
Y387236D02*
D03*
X252709D02*
D03*
Y384677D02*
D03*
Y382118D02*
D03*
Y379559D02*
D03*
X744126Y309559D02*
D03*
Y312118D02*
D03*
Y314677D02*
D03*
Y317236D02*
D03*
X732709D02*
D03*
Y314677D02*
D03*
Y312118D02*
D03*
Y309559D02*
D03*
X544126D02*
D03*
Y312118D02*
D03*
Y314677D02*
D03*
Y317236D02*
D03*
X532709D02*
D03*
Y314677D02*
D03*
Y312118D02*
D03*
Y309559D02*
D03*
X344126D02*
D03*
Y312118D02*
D03*
Y314677D02*
D03*
Y317236D02*
D03*
X332709D02*
D03*
Y314677D02*
D03*
Y312118D02*
D03*
Y309559D02*
D03*
X864126Y49559D02*
D03*
Y52118D02*
D03*
Y54677D02*
D03*
Y57236D02*
D03*
X852709D02*
D03*
Y54677D02*
D03*
Y52118D02*
D03*
Y49559D02*
D03*
X664126Y48559D02*
D03*
Y51118D02*
D03*
Y53677D02*
D03*
Y56236D02*
D03*
X652709D02*
D03*
Y53677D02*
D03*
Y51118D02*
D03*
Y48559D02*
D03*
X464126Y49559D02*
D03*
Y52118D02*
D03*
Y54677D02*
D03*
Y57236D02*
D03*
X452709D02*
D03*
Y54677D02*
D03*
Y52118D02*
D03*
Y49559D02*
D03*
X864126Y84559D02*
D03*
Y87118D02*
D03*
Y89677D02*
D03*
Y92236D02*
D03*
X852709D02*
D03*
Y89677D02*
D03*
Y87118D02*
D03*
Y84559D02*
D03*
X664126D02*
D03*
Y87118D02*
D03*
Y89677D02*
D03*
Y92236D02*
D03*
X652709D02*
D03*
Y89677D02*
D03*
Y87118D02*
D03*
Y84559D02*
D03*
X464126D02*
D03*
Y87118D02*
D03*
Y89677D02*
D03*
Y92236D02*
D03*
X452709D02*
D03*
Y89677D02*
D03*
Y87118D02*
D03*
Y84559D02*
D03*
X864126Y119559D02*
D03*
Y122118D02*
D03*
Y124677D02*
D03*
Y127236D02*
D03*
X852709D02*
D03*
Y124677D02*
D03*
Y122118D02*
D03*
Y119559D02*
D03*
X664126D02*
D03*
Y122118D02*
D03*
Y124677D02*
D03*
Y127236D02*
D03*
X652709D02*
D03*
Y124677D02*
D03*
Y122118D02*
D03*
Y119559D02*
D03*
X464126D02*
D03*
Y122118D02*
D03*
Y124677D02*
D03*
Y127236D02*
D03*
X452709D02*
D03*
Y124677D02*
D03*
Y122118D02*
D03*
Y119559D02*
D03*
X804126Y49559D02*
D03*
Y52118D02*
D03*
Y54677D02*
D03*
Y57236D02*
D03*
X792709D02*
D03*
Y54677D02*
D03*
Y52118D02*
D03*
Y49559D02*
D03*
X604126D02*
D03*
Y52118D02*
D03*
Y54677D02*
D03*
Y57236D02*
D03*
X592709D02*
D03*
Y54677D02*
D03*
Y52118D02*
D03*
Y49559D02*
D03*
X404126D02*
D03*
Y52118D02*
D03*
Y54677D02*
D03*
Y57236D02*
D03*
X392709D02*
D03*
Y54677D02*
D03*
Y52118D02*
D03*
Y49559D02*
D03*
X804126Y84559D02*
D03*
Y87118D02*
D03*
Y89677D02*
D03*
Y92236D02*
D03*
X792709D02*
D03*
Y89677D02*
D03*
Y87118D02*
D03*
Y84559D02*
D03*
X604126D02*
D03*
Y87118D02*
D03*
Y89677D02*
D03*
Y92236D02*
D03*
X592709D02*
D03*
Y89677D02*
D03*
Y87118D02*
D03*
Y84559D02*
D03*
X404126D02*
D03*
Y87118D02*
D03*
Y89677D02*
D03*
Y92236D02*
D03*
X392709D02*
D03*
Y89677D02*
D03*
Y87118D02*
D03*
Y84559D02*
D03*
X804126Y119559D02*
D03*
Y122118D02*
D03*
Y124677D02*
D03*
Y127236D02*
D03*
X792709D02*
D03*
Y124677D02*
D03*
Y122118D02*
D03*
Y119559D02*
D03*
X604126D02*
D03*
Y122118D02*
D03*
Y124677D02*
D03*
Y127236D02*
D03*
X592709D02*
D03*
Y124677D02*
D03*
Y122118D02*
D03*
Y119559D02*
D03*
X404126D02*
D03*
Y122118D02*
D03*
Y124677D02*
D03*
Y127236D02*
D03*
X392709D02*
D03*
Y124677D02*
D03*
Y122118D02*
D03*
Y119559D02*
D03*
X744126Y49559D02*
D03*
Y52118D02*
D03*
Y54677D02*
D03*
Y57236D02*
D03*
X732709D02*
D03*
Y54677D02*
D03*
Y52118D02*
D03*
Y49559D02*
D03*
X544126D02*
D03*
Y52118D02*
D03*
Y54677D02*
D03*
Y57236D02*
D03*
X532709D02*
D03*
Y54677D02*
D03*
Y52118D02*
D03*
Y49559D02*
D03*
X344126D02*
D03*
Y52118D02*
D03*
Y54677D02*
D03*
Y57236D02*
D03*
X332709D02*
D03*
Y54677D02*
D03*
Y52118D02*
D03*
Y49559D02*
D03*
X744126Y84559D02*
D03*
Y87118D02*
D03*
Y89677D02*
D03*
Y92236D02*
D03*
X732709D02*
D03*
Y89677D02*
D03*
Y87118D02*
D03*
Y84559D02*
D03*
X544126D02*
D03*
Y87118D02*
D03*
Y89677D02*
D03*
Y92236D02*
D03*
X532709D02*
D03*
Y89677D02*
D03*
Y87118D02*
D03*
Y84559D02*
D03*
X344126D02*
D03*
Y87118D02*
D03*
Y89677D02*
D03*
Y92236D02*
D03*
X332709D02*
D03*
Y89677D02*
D03*
Y87118D02*
D03*
Y84559D02*
D03*
X544126Y119559D02*
D03*
Y122118D02*
D03*
Y124677D02*
D03*
Y127236D02*
D03*
X532709D02*
D03*
Y124677D02*
D03*
Y122118D02*
D03*
Y119559D02*
D03*
X344126D02*
D03*
Y122118D02*
D03*
Y124677D02*
D03*
Y127236D02*
D03*
X332709D02*
D03*
Y124677D02*
D03*
Y122118D02*
D03*
Y119559D02*
D03*
X864126Y379559D02*
D03*
Y382118D02*
D03*
Y384677D02*
D03*
Y387236D02*
D03*
X852709D02*
D03*
Y384677D02*
D03*
Y382118D02*
D03*
Y379559D02*
D03*
X664126D02*
D03*
Y382118D02*
D03*
Y384677D02*
D03*
Y387236D02*
D03*
X652709D02*
D03*
Y384677D02*
D03*
Y382118D02*
D03*
Y379559D02*
D03*
X464126D02*
D03*
Y382118D02*
D03*
Y384677D02*
D03*
Y387236D02*
D03*
X452709D02*
D03*
Y384677D02*
D03*
Y382118D02*
D03*
Y379559D02*
D03*
X864126Y344559D02*
D03*
Y347118D02*
D03*
Y349677D02*
D03*
Y352236D02*
D03*
X852709D02*
D03*
Y349677D02*
D03*
Y347118D02*
D03*
Y344559D02*
D03*
X664126D02*
D03*
Y347118D02*
D03*
Y349677D02*
D03*
Y352236D02*
D03*
X652709D02*
D03*
Y349677D02*
D03*
Y347118D02*
D03*
Y344559D02*
D03*
X464126D02*
D03*
Y347118D02*
D03*
Y349677D02*
D03*
Y352236D02*
D03*
X452709D02*
D03*
Y349677D02*
D03*
Y347118D02*
D03*
Y344559D02*
D03*
X864126Y309559D02*
D03*
Y312118D02*
D03*
Y314677D02*
D03*
Y317236D02*
D03*
X852709D02*
D03*
Y314677D02*
D03*
Y312118D02*
D03*
Y309559D02*
D03*
X664126D02*
D03*
Y312118D02*
D03*
Y314677D02*
D03*
Y317236D02*
D03*
X652709D02*
D03*
Y314677D02*
D03*
Y312118D02*
D03*
Y309559D02*
D03*
X464126D02*
D03*
Y312118D02*
D03*
Y314677D02*
D03*
Y317236D02*
D03*
X452709D02*
D03*
Y314677D02*
D03*
Y312118D02*
D03*
Y309559D02*
D03*
X804126Y379559D02*
D03*
Y382118D02*
D03*
Y384677D02*
D03*
Y387236D02*
D03*
X792709D02*
D03*
Y384677D02*
D03*
Y382118D02*
D03*
Y379559D02*
D03*
X604126D02*
D03*
Y382118D02*
D03*
Y384677D02*
D03*
Y387236D02*
D03*
X592709D02*
D03*
Y384677D02*
D03*
Y382118D02*
D03*
Y379559D02*
D03*
X404126D02*
D03*
Y382118D02*
D03*
Y384677D02*
D03*
Y387236D02*
D03*
X392709D02*
D03*
Y384677D02*
D03*
Y382118D02*
D03*
Y379559D02*
D03*
X804126Y344559D02*
D03*
Y347118D02*
D03*
Y349677D02*
D03*
Y352236D02*
D03*
X792709D02*
D03*
Y349677D02*
D03*
Y347118D02*
D03*
Y344559D02*
D03*
X604126D02*
D03*
Y347118D02*
D03*
Y349677D02*
D03*
Y352236D02*
D03*
X592709D02*
D03*
Y349677D02*
D03*
Y347118D02*
D03*
Y344559D02*
D03*
X404126D02*
D03*
Y347118D02*
D03*
Y349677D02*
D03*
Y352236D02*
D03*
X392709D02*
D03*
Y349677D02*
D03*
Y347118D02*
D03*
Y344559D02*
D03*
X804126Y309559D02*
D03*
Y312118D02*
D03*
Y314677D02*
D03*
Y317236D02*
D03*
X792709D02*
D03*
Y314677D02*
D03*
Y312118D02*
D03*
Y309559D02*
D03*
X604126D02*
D03*
Y312118D02*
D03*
Y314677D02*
D03*
Y317236D02*
D03*
X592709D02*
D03*
Y314677D02*
D03*
Y312118D02*
D03*
Y309559D02*
D03*
X404126D02*
D03*
Y312118D02*
D03*
Y314677D02*
D03*
Y317236D02*
D03*
X392709D02*
D03*
Y314677D02*
D03*
Y312118D02*
D03*
Y309559D02*
D03*
X744126Y379559D02*
D03*
Y382118D02*
D03*
Y384677D02*
D03*
Y387236D02*
D03*
X732709D02*
D03*
Y384677D02*
D03*
Y382118D02*
D03*
Y379559D02*
D03*
X544126D02*
D03*
Y382118D02*
D03*
Y384677D02*
D03*
Y387236D02*
D03*
X532709D02*
D03*
Y384677D02*
D03*
Y382118D02*
D03*
Y379559D02*
D03*
X344126D02*
D03*
Y382118D02*
D03*
Y384677D02*
D03*
Y387236D02*
D03*
X332709D02*
D03*
Y384677D02*
D03*
Y382118D02*
D03*
Y379559D02*
D03*
X744126Y344559D02*
D03*
Y347118D02*
D03*
Y349677D02*
D03*
Y352236D02*
D03*
X732709D02*
D03*
Y349677D02*
D03*
Y347118D02*
D03*
Y344559D02*
D03*
X544126D02*
D03*
Y347118D02*
D03*
Y349677D02*
D03*
Y352236D02*
D03*
X532709D02*
D03*
Y349677D02*
D03*
Y347118D02*
D03*
Y344559D02*
D03*
X344126D02*
D03*
Y347118D02*
D03*
Y349677D02*
D03*
Y352236D02*
D03*
X332709D02*
D03*
Y349677D02*
D03*
Y347118D02*
D03*
Y344559D02*
D03*
D83*
X497965Y368268D02*
D03*
X296287Y68850D02*
D03*
X297965Y368268D02*
D03*
X896287Y66850D02*
D03*
X696287D02*
D03*
X496287D02*
D03*
X897965Y368268D02*
D03*
X697965D02*
D03*
D84*
X494126Y373976D02*
D03*
X496685D02*
D03*
X499244D02*
D03*
X501803D02*
D03*
Y362559D02*
D03*
X499244D02*
D03*
X496685D02*
D03*
X494126D02*
D03*
X300126Y74559D02*
D03*
X297567D02*
D03*
X295008D02*
D03*
X292449D02*
D03*
Y63142D02*
D03*
X295008D02*
D03*
X297567D02*
D03*
X300126D02*
D03*
X294126Y362559D02*
D03*
X296685D02*
D03*
X299244D02*
D03*
X301803D02*
D03*
Y373976D02*
D03*
X299244D02*
D03*
X296685D02*
D03*
X294126D02*
D03*
X900126Y72559D02*
D03*
X897567D02*
D03*
X895008D02*
D03*
X892449D02*
D03*
Y61142D02*
D03*
X895008D02*
D03*
X897567D02*
D03*
X900126D02*
D03*
X700126Y72559D02*
D03*
X697567D02*
D03*
X695008D02*
D03*
X692449D02*
D03*
Y61142D02*
D03*
X695008D02*
D03*
X697567D02*
D03*
X700126D02*
D03*
X500126Y72559D02*
D03*
X497567D02*
D03*
X495008D02*
D03*
X492449D02*
D03*
Y61142D02*
D03*
X495008D02*
D03*
X497567D02*
D03*
X500126D02*
D03*
X894126Y362559D02*
D03*
X896685D02*
D03*
X899244D02*
D03*
X901803D02*
D03*
Y373976D02*
D03*
X899244D02*
D03*
X896685D02*
D03*
X894126D02*
D03*
X694126Y362559D02*
D03*
X696685D02*
D03*
X699244D02*
D03*
X701803D02*
D03*
Y373976D02*
D03*
X699244D02*
D03*
X696685D02*
D03*
X694126D02*
D03*
D85*
X33817Y231169D02*
D03*
X10195D02*
D03*
X13085Y151989D02*
D03*
X36707D02*
D03*
D86*
X60464Y116499D02*
D03*
X71488D02*
D03*
D87*
X71119Y79580D02*
D03*
X65214D02*
D03*
X71119Y85485D02*
D03*
X65214D02*
D03*
X71119Y91391D02*
D03*
X65214D02*
D03*
D88*
X42097Y196013D02*
D03*
D89*
X18475D02*
D03*
X30286Y177509D02*
D03*
D90*
X22868Y300165D02*
D03*
X29876Y312212D02*
D03*
X22868Y308196D02*
D03*
X29876Y304181D02*
D03*
X26372Y274181D02*
D03*
Y338196D02*
D03*
X48892Y333236D02*
D03*
Y324220D02*
D03*
Y288157D02*
D03*
Y279141D02*
D03*
X29876Y320244D02*
D03*
X22868Y316228D02*
D03*
X29876Y296149D02*
D03*
X22868Y292133D02*
D03*
D91*
X12868Y281188D02*
D03*
Y331188D02*
D03*
D92*
X12205Y422835D02*
D03*
Y12205D02*
D03*
X907874D02*
D03*
Y422835D02*
D03*
D93*
X281732Y422559D02*
D03*
Y414685D02*
D03*
X273858Y422559D02*
D03*
Y414685D02*
D03*
X265984Y422559D02*
D03*
Y414685D02*
D03*
X258110Y422559D02*
D03*
Y414685D02*
D03*
X250236Y422559D02*
D03*
Y414685D02*
D03*
X242362Y422559D02*
D03*
Y414685D02*
D03*
X234488Y422559D02*
D03*
Y414685D02*
D03*
X226614Y422559D02*
D03*
Y414685D02*
D03*
X218740Y422559D02*
D03*
Y414685D02*
D03*
X210866Y422559D02*
D03*
Y414685D02*
D03*
X202992Y422559D02*
D03*
Y414685D02*
D03*
X195118Y422559D02*
D03*
Y414685D02*
D03*
X187244Y422559D02*
D03*
Y414685D02*
D03*
X179370Y422559D02*
D03*
Y414685D02*
D03*
X171496Y422559D02*
D03*
Y414685D02*
D03*
X163622Y422559D02*
D03*
Y414685D02*
D03*
X155748Y422559D02*
D03*
Y414685D02*
D03*
X147874Y422559D02*
D03*
Y414685D02*
D03*
X140000Y422559D02*
D03*
Y414685D02*
D03*
X132126Y422559D02*
D03*
Y20433D02*
D03*
X140000Y12559D02*
D03*
Y20433D02*
D03*
X147874Y12559D02*
D03*
Y20433D02*
D03*
X155748Y12559D02*
D03*
Y20433D02*
D03*
X163622Y12559D02*
D03*
Y20433D02*
D03*
X171496Y12559D02*
D03*
Y20433D02*
D03*
X179370Y12559D02*
D03*
Y20433D02*
D03*
X187244Y12559D02*
D03*
Y20433D02*
D03*
X195118Y12559D02*
D03*
Y20433D02*
D03*
X202992Y12559D02*
D03*
Y20433D02*
D03*
X210866Y12559D02*
D03*
Y20433D02*
D03*
X218740Y12559D02*
D03*
Y20433D02*
D03*
X226614Y12559D02*
D03*
Y20433D02*
D03*
X234488Y12559D02*
D03*
Y20433D02*
D03*
X242362Y12559D02*
D03*
Y20433D02*
D03*
X250236Y12559D02*
D03*
Y20433D02*
D03*
X258110Y12559D02*
D03*
Y20433D02*
D03*
X265984Y12559D02*
D03*
Y20433D02*
D03*
X273858Y12559D02*
D03*
Y20433D02*
D03*
X281732Y12559D02*
D03*
Y20433D02*
D03*
X481732Y422559D02*
D03*
Y414685D02*
D03*
X473858Y422559D02*
D03*
Y414685D02*
D03*
X465984Y422559D02*
D03*
Y414685D02*
D03*
X458110Y422559D02*
D03*
Y414685D02*
D03*
X450236Y422559D02*
D03*
Y414685D02*
D03*
X442362Y422559D02*
D03*
Y414685D02*
D03*
X434488Y422559D02*
D03*
Y414685D02*
D03*
X426614Y422559D02*
D03*
Y414685D02*
D03*
X418740Y422559D02*
D03*
Y414685D02*
D03*
X410866Y422559D02*
D03*
Y414685D02*
D03*
X402992Y422559D02*
D03*
Y414685D02*
D03*
X395118Y422559D02*
D03*
Y414685D02*
D03*
X387244Y422559D02*
D03*
Y414685D02*
D03*
X379370Y422559D02*
D03*
Y414685D02*
D03*
X371496Y422559D02*
D03*
Y414685D02*
D03*
X363622Y422559D02*
D03*
Y414685D02*
D03*
X355748Y422559D02*
D03*
Y414685D02*
D03*
X347874Y422559D02*
D03*
Y414685D02*
D03*
X340000Y422559D02*
D03*
Y414685D02*
D03*
X332126Y422559D02*
D03*
X532126D02*
D03*
X540000Y414685D02*
D03*
Y422559D02*
D03*
X547874Y414685D02*
D03*
Y422559D02*
D03*
X555748Y414685D02*
D03*
Y422559D02*
D03*
X563622Y414685D02*
D03*
Y422559D02*
D03*
X571496Y414685D02*
D03*
Y422559D02*
D03*
X579370Y414685D02*
D03*
Y422559D02*
D03*
X587244Y414685D02*
D03*
Y422559D02*
D03*
X595118Y414685D02*
D03*
Y422559D02*
D03*
X602992Y414685D02*
D03*
Y422559D02*
D03*
X610866Y414685D02*
D03*
Y422559D02*
D03*
X618740Y414685D02*
D03*
Y422559D02*
D03*
X626614Y414685D02*
D03*
Y422559D02*
D03*
X634488Y414685D02*
D03*
Y422559D02*
D03*
X642362Y414685D02*
D03*
Y422559D02*
D03*
X650236Y414685D02*
D03*
Y422559D02*
D03*
X658110Y414685D02*
D03*
Y422559D02*
D03*
X665984Y414685D02*
D03*
Y422559D02*
D03*
X673858Y414685D02*
D03*
Y422559D02*
D03*
X681732Y414685D02*
D03*
Y422559D02*
D03*
X881732D02*
D03*
Y414685D02*
D03*
X873858Y422559D02*
D03*
Y414685D02*
D03*
X865984Y422559D02*
D03*
Y414685D02*
D03*
X858110Y422559D02*
D03*
Y414685D02*
D03*
X850236Y422559D02*
D03*
Y414685D02*
D03*
X842362Y422559D02*
D03*
Y414685D02*
D03*
X834488Y422559D02*
D03*
Y414685D02*
D03*
X826614Y422559D02*
D03*
Y414685D02*
D03*
X818740Y422559D02*
D03*
Y414685D02*
D03*
X810866Y422559D02*
D03*
Y414685D02*
D03*
X802992Y422559D02*
D03*
Y414685D02*
D03*
X795118Y422559D02*
D03*
Y414685D02*
D03*
X787244Y422559D02*
D03*
Y414685D02*
D03*
X779370Y422559D02*
D03*
Y414685D02*
D03*
X771496Y422559D02*
D03*
Y414685D02*
D03*
X763622Y422559D02*
D03*
Y414685D02*
D03*
X755748Y422559D02*
D03*
Y414685D02*
D03*
X747874Y422559D02*
D03*
Y414685D02*
D03*
X740000Y422559D02*
D03*
Y414685D02*
D03*
X732126Y422559D02*
D03*
X332126Y20433D02*
D03*
X340000Y12559D02*
D03*
Y20433D02*
D03*
X347874Y12559D02*
D03*
Y20433D02*
D03*
X355748Y12559D02*
D03*
Y20433D02*
D03*
X363622Y12559D02*
D03*
Y20433D02*
D03*
X371496Y12559D02*
D03*
Y20433D02*
D03*
X379370Y12559D02*
D03*
Y20433D02*
D03*
X387244Y12559D02*
D03*
Y20433D02*
D03*
X395118Y12559D02*
D03*
Y20433D02*
D03*
X402992Y12559D02*
D03*
Y20433D02*
D03*
X410866Y12559D02*
D03*
Y20433D02*
D03*
X418740Y12559D02*
D03*
Y20433D02*
D03*
X426614Y12559D02*
D03*
Y20433D02*
D03*
X434488Y12559D02*
D03*
Y20433D02*
D03*
X442362Y12559D02*
D03*
Y20433D02*
D03*
X450236Y12559D02*
D03*
Y20433D02*
D03*
X458110Y12559D02*
D03*
Y20433D02*
D03*
X465984Y12559D02*
D03*
Y20433D02*
D03*
X473858Y12559D02*
D03*
Y20433D02*
D03*
X481732Y12559D02*
D03*
Y20433D02*
D03*
X681732D02*
D03*
Y12559D02*
D03*
X673858Y20433D02*
D03*
Y12559D02*
D03*
X665984Y20433D02*
D03*
Y12559D02*
D03*
X658110Y20433D02*
D03*
Y12559D02*
D03*
X650236Y20433D02*
D03*
Y12559D02*
D03*
X642362Y20433D02*
D03*
Y12559D02*
D03*
X634488Y20433D02*
D03*
Y12559D02*
D03*
X626614Y20433D02*
D03*
Y12559D02*
D03*
X618740Y20433D02*
D03*
Y12559D02*
D03*
X610866Y20433D02*
D03*
Y12559D02*
D03*
X602992Y20433D02*
D03*
Y12559D02*
D03*
X595118Y20433D02*
D03*
Y12559D02*
D03*
X587244Y20433D02*
D03*
Y12559D02*
D03*
X579370Y20433D02*
D03*
Y12559D02*
D03*
X571496Y20433D02*
D03*
Y12559D02*
D03*
X563622Y20433D02*
D03*
Y12559D02*
D03*
X555748Y20433D02*
D03*
Y12559D02*
D03*
X547874Y20433D02*
D03*
Y12559D02*
D03*
X540000Y20433D02*
D03*
Y12559D02*
D03*
X532126Y20433D02*
D03*
X732126D02*
D03*
X740000Y12559D02*
D03*
Y20433D02*
D03*
X747874Y12559D02*
D03*
Y20433D02*
D03*
X755748Y12559D02*
D03*
Y20433D02*
D03*
X763622Y12559D02*
D03*
Y20433D02*
D03*
X771496Y12559D02*
D03*
Y20433D02*
D03*
X779370Y12559D02*
D03*
Y20433D02*
D03*
X787244Y12559D02*
D03*
Y20433D02*
D03*
X795118Y12559D02*
D03*
Y20433D02*
D03*
X802992Y12559D02*
D03*
Y20433D02*
D03*
X810866Y12559D02*
D03*
Y20433D02*
D03*
X818740Y12559D02*
D03*
Y20433D02*
D03*
X826614Y12559D02*
D03*
Y20433D02*
D03*
X834488Y12559D02*
D03*
Y20433D02*
D03*
X842362Y12559D02*
D03*
Y20433D02*
D03*
X850236Y12559D02*
D03*
Y20433D02*
D03*
X858110Y12559D02*
D03*
Y20433D02*
D03*
X865984Y12559D02*
D03*
Y20433D02*
D03*
X873858Y12559D02*
D03*
Y20433D02*
D03*
X881732Y12559D02*
D03*
Y20433D02*
D03*
D94*
X132126Y414685D02*
D03*
Y12559D02*
D03*
X332126Y414685D02*
D03*
X532126D02*
D03*
X732126D02*
D03*
X332126Y12559D02*
D03*
X532126D02*
D03*
X732126D02*
D03*
D95*
X91886Y159009D02*
D03*
D96*
Y169009D02*
D03*
Y179009D02*
D03*
X81886D02*
D03*
X91886Y189009D02*
D03*
X81886D02*
D03*
X91886Y199009D02*
D03*
X81886D02*
D03*
Y159009D02*
D03*
Y169009D02*
D03*
D97*
X121054Y356572D02*
D03*
X7173Y346291D02*
D03*
X12173Y353291D02*
D03*
X16173Y346291D02*
D03*
X20173Y353291D02*
D03*
X811591Y244736D02*
D03*
X425756Y243769D02*
D03*
X395640Y253516D02*
D03*
X629182Y168801D02*
D03*
X440126Y168559D02*
D03*
X240548Y168704D02*
D03*
X443126Y177559D02*
D03*
X365126Y253559D02*
D03*
X298388Y370208D02*
D03*
X295126Y366559D02*
D03*
X295893Y380867D02*
D03*
X99429Y274407D02*
D03*
X45129Y320109D02*
D03*
X45126Y296559D02*
D03*
X188609Y348718D02*
D03*
Y313718D02*
D03*
X128609Y348718D02*
D03*
X528609Y88718D02*
D03*
X495967Y57042D02*
D03*
X448609Y53718D02*
D03*
X528609Y313718D02*
D03*
X295967Y59042D02*
D03*
X248609Y383718D02*
D03*
X128609D02*
D03*
X698285Y378076D02*
D03*
X648609Y52718D02*
D03*
X528609Y383718D02*
D03*
Y53718D02*
D03*
X498285Y378076D02*
D03*
X68126Y140559D02*
D03*
X64629Y131479D02*
D03*
X57201Y131430D02*
D03*
X81036Y250809D02*
D03*
X83492Y224035D02*
D03*
X81126Y210559D02*
D03*
X99076Y211169D02*
D03*
X86244Y210559D02*
D03*
X88610Y224035D02*
D03*
X102126Y243559D02*
D03*
X100394Y224237D02*
D03*
X871117Y254654D02*
D03*
X861553Y195293D02*
D03*
X861046Y224843D02*
D03*
X748345Y261141D02*
D03*
X739864Y256277D02*
D03*
X739605Y263337D02*
D03*
X660068Y193783D02*
D03*
X660315Y224090D02*
D03*
X548296Y261349D02*
D03*
X539599Y256205D02*
D03*
X539350Y264185D02*
D03*
X470738Y254666D02*
D03*
X271105Y254513D02*
D03*
X459074Y193081D02*
D03*
X460062Y223983D02*
D03*
X149400Y261167D02*
D03*
X348509Y260771D02*
D03*
X339739Y255779D02*
D03*
X339609Y264152D02*
D03*
X129126Y235559D02*
D03*
X226378Y228379D02*
D03*
X462126Y231559D02*
D03*
X661126D02*
D03*
X867126Y233559D02*
D03*
X627921Y230895D02*
D03*
X426607Y229884D02*
D03*
X270126Y235559D02*
D03*
X260244Y224956D02*
D03*
X259796Y193758D02*
D03*
X268496Y248989D02*
D03*
X151156Y177889D02*
D03*
X151646Y184029D02*
D03*
X153066Y264159D02*
D03*
X161065Y179400D02*
D03*
X167946Y187829D02*
D03*
X168511Y191641D02*
D03*
X166092Y207595D02*
D03*
X169267Y224407D02*
D03*
X167546Y235329D02*
D03*
X167223Y242919D02*
D03*
X166876Y248983D02*
D03*
X167022Y258739D02*
D03*
X175076Y215479D02*
D03*
X175434Y225173D02*
D03*
X181946Y203929D02*
D03*
X185126Y211559D02*
D03*
X183365Y223589D02*
D03*
X216268Y195351D02*
D03*
X226191Y178981D02*
D03*
X224916Y186879D02*
D03*
X232346Y201629D02*
D03*
X239534Y187932D02*
D03*
X238906Y234279D02*
D03*
X239770Y240123D02*
D03*
X240084Y258896D02*
D03*
X249466Y170301D02*
D03*
X248306Y258559D02*
D03*
X248586Y264619D02*
D03*
X151546Y174079D02*
D03*
X151946Y190329D02*
D03*
X160996Y173299D02*
D03*
X161136Y253292D02*
D03*
X161161Y261889D02*
D03*
X167045Y174157D02*
D03*
X169046Y197429D02*
D03*
X170178Y253182D02*
D03*
X177052Y182949D02*
D03*
X184766Y181449D02*
D03*
X184536Y190519D02*
D03*
X182803Y253834D02*
D03*
X192746Y180429D02*
D03*
X191486Y189319D02*
D03*
X200520Y179073D02*
D03*
X200376Y245149D02*
D03*
X200520Y253834D02*
D03*
X210363D02*
D03*
X241088Y174182D02*
D03*
X240536Y179399D02*
D03*
X240394Y198752D02*
D03*
X240151Y222410D02*
D03*
X239544Y252225D02*
D03*
X247026Y254159D02*
D03*
X255146Y197629D02*
D03*
X255726Y228349D02*
D03*
X168976Y215939D02*
D03*
X155511Y192709D02*
D03*
X155676Y251169D02*
D03*
X149281Y257607D02*
D03*
X149340Y265204D02*
D03*
X174276Y186299D02*
D03*
X174336Y192449D02*
D03*
X181126Y218559D02*
D03*
X173706Y233889D02*
D03*
X173366Y241989D02*
D03*
X195014Y250740D02*
D03*
X171046Y264829D02*
D03*
X235946Y178629D02*
D03*
X249636Y177629D02*
D03*
X258596Y178679D02*
D03*
X237646Y225029D02*
D03*
X258926Y241979D02*
D03*
X237492Y242867D02*
D03*
X234706Y249349D02*
D03*
X258816Y249099D02*
D03*
X258260Y258945D02*
D03*
X258206Y264449D02*
D03*
X165426Y255059D02*
D03*
X157316Y254909D02*
D03*
X196470Y180968D02*
D03*
X178867Y179073D02*
D03*
X174676Y199409D02*
D03*
X173816Y207559D02*
D03*
X196276Y189719D02*
D03*
X178896Y190739D02*
D03*
X195276Y245149D02*
D03*
X178896Y245409D02*
D03*
X178867Y253834D02*
D03*
X190677D02*
D03*
X220205Y179073D02*
D03*
X218466Y238709D02*
D03*
X225646Y244029D02*
D03*
X219636Y243529D02*
D03*
X210585Y244587D02*
D03*
X227926Y238969D02*
D03*
X219741Y252141D02*
D03*
X227292Y252932D02*
D03*
X206425Y253834D02*
D03*
X237176Y246790D02*
D03*
X258756Y254329D02*
D03*
X155646Y247429D02*
D03*
X173546Y248029D02*
D03*
X227366Y247449D02*
D03*
X261919Y170272D02*
D03*
X169766Y180709D02*
D03*
X230146Y180929D02*
D03*
X233776Y197529D02*
D03*
X233766Y188199D02*
D03*
X233536Y220309D02*
D03*
X234206Y236799D02*
D03*
X739719Y259817D02*
D03*
X748643Y264880D02*
D03*
X748585Y257283D02*
D03*
X548482Y265325D02*
D03*
X548423Y257728D02*
D03*
X539558Y260262D02*
D03*
X348585Y257283D02*
D03*
X348643Y264880D02*
D03*
X736750Y208191D02*
D03*
X339719Y259817D02*
D03*
X140416Y260140D02*
D03*
X140994Y256006D02*
D03*
X140527Y263934D02*
D03*
X368056Y187569D02*
D03*
X367333Y242659D02*
D03*
X366986Y248723D02*
D03*
X437286Y246530D02*
D03*
X436056Y178369D02*
D03*
X370288Y252922D02*
D03*
X634376Y249349D02*
D03*
X566676Y249068D02*
D03*
X567023Y243004D02*
D03*
X567746Y187914D02*
D03*
X635746Y178714D02*
D03*
X636976Y246875D02*
D03*
X569978Y253267D02*
D03*
X766976Y249083D02*
D03*
X770278Y253282D02*
D03*
X768046Y187929D02*
D03*
X767323Y243019D02*
D03*
X837276Y246890D02*
D03*
X836046Y178729D02*
D03*
X351146Y174139D02*
D03*
X751746Y174529D02*
D03*
X551086D02*
D03*
X751546Y177729D02*
D03*
X351186Y177449D02*
D03*
X368736Y191219D02*
D03*
X550906Y178249D02*
D03*
X768646Y191229D02*
D03*
X568366Y191709D02*
D03*
X775646Y215429D02*
D03*
X382356Y280169D02*
D03*
X215746Y280929D02*
D03*
X415856Y280669D02*
D03*
X820875Y281185D02*
D03*
X374156Y215749D02*
D03*
X575046Y215759D02*
D03*
X658546Y254729D02*
D03*
X773888Y223258D02*
D03*
X418676Y238529D02*
D03*
X610166Y245029D02*
D03*
X784546Y181729D02*
D03*
X859146Y249629D02*
D03*
X182246Y280429D02*
D03*
X390356Y280169D02*
D03*
X200246Y280729D02*
D03*
X815846Y281029D02*
D03*
X584356Y181529D02*
D03*
X458946Y241709D02*
D03*
X373898Y222898D02*
D03*
X776446Y280529D02*
D03*
X782346D02*
D03*
X420885Y280825D02*
D03*
X818246Y239129D02*
D03*
X795746Y253829D02*
D03*
X459176Y248979D02*
D03*
X658500Y249331D02*
D03*
X176346Y280429D02*
D03*
X190246D02*
D03*
X400356Y280469D02*
D03*
X384536Y181139D02*
D03*
X458631Y254604D02*
D03*
X790346Y280529D02*
D03*
X800346Y280829D02*
D03*
X859146Y241829D02*
D03*
X595206Y253729D02*
D03*
X376456Y280169D02*
D03*
X220775Y281085D02*
D03*
X658756Y241959D02*
D03*
X859006Y254229D02*
D03*
X819841Y252241D02*
D03*
X766192Y207695D02*
D03*
X826291Y179081D02*
D03*
X792846Y180529D02*
D03*
X767646Y235429D02*
D03*
X839869Y240223D02*
D03*
X840251Y222510D02*
D03*
X840494Y198852D02*
D03*
X800620Y253934D02*
D03*
X778966D02*
D03*
X777152Y183048D02*
D03*
X620575Y281170D02*
D03*
X615546Y281014D02*
D03*
X600046Y280814D02*
D03*
X590046Y280514D02*
D03*
X582046D02*
D03*
X576146D02*
D03*
X578666Y253919D02*
D03*
X600320D02*
D03*
X619541Y252226D02*
D03*
X639570Y240208D02*
D03*
X639951Y222495D02*
D03*
X640194Y198837D02*
D03*
X625991Y179066D02*
D03*
X592546Y180514D02*
D03*
X576852Y183034D02*
D03*
X565892Y207680D02*
D03*
X567346Y235414D02*
D03*
X575144Y225538D02*
D03*
X568647Y199378D02*
D03*
X769347Y199425D02*
D03*
X378976Y253574D02*
D03*
X419851Y251881D02*
D03*
X426301Y178721D02*
D03*
X440261Y222150D02*
D03*
X440504Y198492D02*
D03*
X400630Y253574D02*
D03*
X392856Y180169D02*
D03*
X377162Y182688D02*
D03*
X369156Y197169D02*
D03*
X439880Y239863D02*
D03*
X367656Y235069D02*
D03*
X366202Y207335D02*
D03*
X755346Y251229D02*
D03*
X555663Y251756D02*
D03*
X440194Y258636D02*
D03*
X639884Y258981D02*
D03*
X840184Y258996D02*
D03*
X827392Y253032D02*
D03*
X796570Y181068D02*
D03*
X839644Y252325D02*
D03*
X839634Y188032D02*
D03*
X767122Y258839D02*
D03*
X761165Y179500D02*
D03*
X841188Y174282D02*
D03*
X767145Y174257D02*
D03*
X761236Y253392D02*
D03*
X566822Y258824D02*
D03*
X627092Y253017D02*
D03*
X639344Y252310D02*
D03*
X639334Y188017D02*
D03*
X640888Y174267D02*
D03*
X596270Y181053D02*
D03*
X566846Y174241D02*
D03*
X560865Y179485D02*
D03*
X560936Y253377D02*
D03*
X427402Y252672D02*
D03*
X396580Y180708D02*
D03*
X355676Y250659D02*
D03*
X439654Y251965D02*
D03*
X441198Y173922D02*
D03*
X367156Y173897D02*
D03*
X361246Y253032D02*
D03*
X439644Y187672D02*
D03*
X367132Y258479D02*
D03*
X361175Y179140D02*
D03*
X647996Y258669D02*
D03*
X658754Y177547D02*
D03*
X859046Y178029D02*
D03*
X462066Y170279D02*
D03*
X661836Y170679D02*
D03*
X862395Y170586D02*
D03*
X458786Y178489D02*
D03*
X448546Y258509D02*
D03*
X448476Y264139D02*
D03*
X648556Y264529D02*
D03*
X848246Y264729D02*
D03*
X848546Y258929D02*
D03*
X136126Y228559D02*
D03*
X127126Y227559D02*
D03*
X96126Y81559D02*
D03*
X85876Y258799D02*
D03*
X114415Y257834D02*
D03*
X101267Y251154D02*
D03*
X101176Y257469D02*
D03*
X114575Y251581D02*
D03*
X104343Y168334D02*
D03*
X104655Y186953D02*
D03*
X100897Y201006D02*
D03*
X108855Y189210D02*
D03*
X107126Y196559D02*
D03*
X100777Y189370D02*
D03*
X112126Y172559D02*
D03*
X101126Y163559D02*
D03*
X100968Y152234D02*
D03*
X108719Y154299D02*
D03*
X897126Y43559D02*
D03*
X896126Y392559D02*
D03*
X697126Y43559D02*
D03*
X694736Y393258D02*
D03*
X495061Y392473D02*
D03*
X297126Y45559D02*
D03*
Y387559D02*
D03*
X295126Y392559D02*
D03*
X95139Y113547D02*
D03*
X121054Y391572D02*
D03*
X120963Y373264D02*
D03*
Y338264D02*
D03*
X109536Y301459D02*
D03*
X92666Y301329D02*
D03*
X109506Y290849D02*
D03*
X102386Y269879D02*
D03*
X89996Y271359D02*
D03*
X90596Y278509D02*
D03*
X83826Y278559D02*
D03*
X113553Y282085D02*
D03*
X103726Y301509D02*
D03*
X106968Y277244D02*
D03*
X98366Y301299D02*
D03*
X96276Y268679D02*
D03*
X92356Y285659D02*
D03*
X83686Y289829D02*
D03*
Y285509D02*
D03*
X83826Y274339D02*
D03*
X719309Y122518D02*
D03*
X736290Y120716D02*
D03*
X728609Y123718D02*
D03*
X740507Y126187D02*
D03*
X720963Y113264D02*
D03*
X721055Y131572D02*
D03*
X337456Y199469D02*
D03*
X341956Y184369D02*
D03*
X344976Y248839D02*
D03*
X351756Y183769D02*
D03*
X353366Y263589D02*
D03*
X369086Y215749D02*
D03*
X367656Y223258D02*
D03*
X374296Y186039D02*
D03*
X374466Y192149D02*
D03*
X374296Y199289D02*
D03*
X373816Y207329D02*
D03*
X373286Y233969D02*
D03*
X373136Y241629D02*
D03*
X373656Y247769D02*
D03*
X382056Y203669D02*
D03*
X385429Y211087D02*
D03*
X385126Y215559D02*
D03*
X400630Y178813D02*
D03*
X406456Y280369D02*
D03*
X416378Y195091D02*
D03*
X424946Y186299D02*
D03*
X432456Y201369D02*
D03*
X433466Y219909D02*
D03*
X429011Y247335D02*
D03*
X437756Y224769D02*
D03*
X439176Y234129D02*
D03*
X437602Y242607D02*
D03*
X449486Y170509D02*
D03*
X444956Y255779D02*
D03*
X343876Y180939D02*
D03*
X341916Y190409D02*
D03*
X352056Y190069D02*
D03*
X358746Y174819D02*
D03*
X361256Y261849D02*
D03*
X357316Y255049D02*
D03*
X384786Y190369D02*
D03*
X381126Y221559D02*
D03*
X382913Y253574D02*
D03*
X391416Y189049D02*
D03*
X390788Y253574D02*
D03*
X396766Y189219D02*
D03*
X400256Y244839D02*
D03*
X406535Y253574D02*
D03*
X430256Y180669D02*
D03*
X455836Y228089D02*
D03*
X469103Y238739D02*
D03*
X347026Y170659D02*
D03*
X346406Y185949D02*
D03*
X337756Y208169D02*
D03*
X378976Y178813D02*
D03*
X380126Y217559D02*
D03*
X355756Y247169D02*
D03*
X371156Y264569D02*
D03*
X420315Y178813D02*
D03*
X433856Y187939D02*
D03*
X419636Y243589D02*
D03*
X449646Y177469D02*
D03*
X468556Y248899D02*
D03*
X458236Y258279D02*
D03*
X458318Y264060D02*
D03*
X346366Y190779D02*
D03*
X369756Y180509D02*
D03*
X379267Y190580D02*
D03*
X378686Y245539D02*
D03*
X410625Y244668D02*
D03*
X395094Y244835D02*
D03*
X410472Y253574D02*
D03*
X434483Y197397D02*
D03*
X434016Y236629D02*
D03*
X428036Y238709D02*
D03*
X495283Y370395D02*
D03*
X500754Y366178D02*
D03*
X487831Y385722D02*
D03*
X497085Y387376D02*
D03*
X359109Y316218D02*
D03*
Y310518D02*
D03*
X328609Y313718D02*
D03*
X136365Y310640D02*
D03*
X140553Y316183D02*
D03*
X119476Y312330D02*
D03*
X759109Y310518D02*
D03*
Y316218D02*
D03*
X728609Y313718D02*
D03*
X359109Y345518D02*
D03*
Y351218D02*
D03*
X328609Y348718D02*
D03*
X559109Y345518D02*
D03*
Y351218D02*
D03*
X528609Y348718D02*
D03*
X759109Y345518D02*
D03*
Y351218D02*
D03*
X728609Y348718D02*
D03*
X359109Y380518D02*
D03*
Y386218D02*
D03*
X328609Y383718D02*
D03*
X559109Y380518D02*
D03*
Y386218D02*
D03*
X759109Y380518D02*
D03*
Y386218D02*
D03*
X728609Y383718D02*
D03*
X419109Y310518D02*
D03*
Y316218D02*
D03*
X388609Y313718D02*
D03*
X619109Y310518D02*
D03*
Y316218D02*
D03*
X588609Y313718D02*
D03*
X819109Y310518D02*
D03*
Y316218D02*
D03*
X788609Y313718D02*
D03*
X419109Y345518D02*
D03*
Y351218D02*
D03*
X388609Y348718D02*
D03*
X619109Y345518D02*
D03*
Y351218D02*
D03*
X588609Y348718D02*
D03*
X819109Y345518D02*
D03*
Y351218D02*
D03*
X788609Y348718D02*
D03*
X419109Y380518D02*
D03*
Y386218D02*
D03*
X388609Y383718D02*
D03*
X619109Y380518D02*
D03*
Y386218D02*
D03*
X588609Y383718D02*
D03*
X819109Y380518D02*
D03*
Y386218D02*
D03*
X788609Y383718D02*
D03*
X479109Y310518D02*
D03*
Y316218D02*
D03*
X448609Y313718D02*
D03*
X679109Y310518D02*
D03*
Y316218D02*
D03*
X648609Y313718D02*
D03*
X879109Y310518D02*
D03*
Y316218D02*
D03*
X848609Y313718D02*
D03*
X479109Y345518D02*
D03*
Y351218D02*
D03*
X448609Y348718D02*
D03*
X679109Y345518D02*
D03*
Y351218D02*
D03*
X648609Y348718D02*
D03*
X879109Y345518D02*
D03*
Y351218D02*
D03*
X848609Y348718D02*
D03*
X479109Y380518D02*
D03*
Y386218D02*
D03*
X448609Y383718D02*
D03*
X679109Y380518D02*
D03*
Y386218D02*
D03*
X648609Y383718D02*
D03*
X879109Y380518D02*
D03*
Y386218D02*
D03*
X848609Y383718D02*
D03*
X359109Y120518D02*
D03*
Y126218D02*
D03*
X328609Y123718D02*
D03*
X559109Y120518D02*
D03*
Y126218D02*
D03*
X528609Y123718D02*
D03*
X759109Y120518D02*
D03*
Y126218D02*
D03*
X359109Y85518D02*
D03*
Y91218D02*
D03*
X328609Y88718D02*
D03*
X559109Y85518D02*
D03*
Y91218D02*
D03*
X759109Y85518D02*
D03*
Y91218D02*
D03*
X728609Y88718D02*
D03*
X359109Y50518D02*
D03*
Y56218D02*
D03*
X328609Y53718D02*
D03*
X559109Y50518D02*
D03*
Y56218D02*
D03*
X759109Y50518D02*
D03*
Y56218D02*
D03*
X728609Y53718D02*
D03*
X419109Y120518D02*
D03*
Y126218D02*
D03*
X388609Y123718D02*
D03*
X619109Y120518D02*
D03*
Y126218D02*
D03*
X588609Y123718D02*
D03*
X819109Y120518D02*
D03*
Y126218D02*
D03*
X788609Y123718D02*
D03*
X419109Y85518D02*
D03*
Y91218D02*
D03*
X388609Y88718D02*
D03*
X619109Y85518D02*
D03*
Y91218D02*
D03*
X588609Y88718D02*
D03*
X819109Y85518D02*
D03*
Y91218D02*
D03*
X788609Y88718D02*
D03*
X419109Y50518D02*
D03*
Y56218D02*
D03*
X388609Y53718D02*
D03*
X619109Y50518D02*
D03*
Y56218D02*
D03*
X588609Y53718D02*
D03*
X819109Y50518D02*
D03*
Y56218D02*
D03*
X788609Y53718D02*
D03*
X479109Y120518D02*
D03*
Y126218D02*
D03*
X448609Y123718D02*
D03*
X679109Y120518D02*
D03*
Y126218D02*
D03*
X648609Y123718D02*
D03*
X879109Y120518D02*
D03*
Y126218D02*
D03*
X848609Y123718D02*
D03*
X479109Y85518D02*
D03*
Y91218D02*
D03*
X448609Y88718D02*
D03*
X679109Y85518D02*
D03*
Y91218D02*
D03*
X648609Y88718D02*
D03*
X879109Y85518D02*
D03*
Y91218D02*
D03*
X848609Y88718D02*
D03*
X479109Y50518D02*
D03*
Y56218D02*
D03*
X679109Y49518D02*
D03*
Y55218D02*
D03*
X879109Y50518D02*
D03*
Y56218D02*
D03*
X848609Y53718D02*
D03*
X559109Y310518D02*
D03*
Y316218D02*
D03*
X340507Y351187D02*
D03*
X336290Y345716D02*
D03*
X321055Y356572D02*
D03*
X320963Y338264D02*
D03*
X319309Y347518D02*
D03*
X540507Y351187D02*
D03*
X536290Y345716D02*
D03*
X521055Y356572D02*
D03*
X520963Y338264D02*
D03*
X519309Y347518D02*
D03*
X740507Y351187D02*
D03*
X736290Y345716D02*
D03*
X721055Y356572D02*
D03*
X720963Y338264D02*
D03*
X719309Y347518D02*
D03*
X340507Y386187D02*
D03*
X336290Y380716D02*
D03*
X321055Y391572D02*
D03*
X320963Y373264D02*
D03*
X319309Y382518D02*
D03*
X540507Y386187D02*
D03*
X536290Y380716D02*
D03*
X521055Y391572D02*
D03*
X520963Y373264D02*
D03*
X519309Y382518D02*
D03*
X740507Y386187D02*
D03*
X736290Y380716D02*
D03*
X721055Y391572D02*
D03*
X720963Y373264D02*
D03*
X719309Y382518D02*
D03*
X400507Y316187D02*
D03*
X396290Y310716D02*
D03*
X381054Y321572D02*
D03*
X380963Y303264D02*
D03*
X379309Y312518D02*
D03*
X600507Y316187D02*
D03*
X596290Y310716D02*
D03*
X581054Y321572D02*
D03*
X580963Y303264D02*
D03*
X579309Y312518D02*
D03*
X800507Y316187D02*
D03*
X796290Y310716D02*
D03*
X781054Y321572D02*
D03*
X780963Y303264D02*
D03*
X779309Y312518D02*
D03*
X400507Y351187D02*
D03*
X396290Y345716D02*
D03*
X381054Y356572D02*
D03*
X380963Y338264D02*
D03*
X379309Y347518D02*
D03*
X600507Y351187D02*
D03*
X596290Y345716D02*
D03*
X581054Y356572D02*
D03*
X580963Y338264D02*
D03*
X579309Y347518D02*
D03*
X800507Y351187D02*
D03*
X796290Y345716D02*
D03*
X781054Y356572D02*
D03*
X780963Y338264D02*
D03*
X779309Y347518D02*
D03*
X400507Y386187D02*
D03*
X396290Y380716D02*
D03*
X381054Y391572D02*
D03*
X380963Y373264D02*
D03*
X379309Y382518D02*
D03*
X600507Y386187D02*
D03*
X596290Y380716D02*
D03*
X581054Y391572D02*
D03*
X580963Y373264D02*
D03*
X579309Y382518D02*
D03*
X800507Y386187D02*
D03*
X796290Y380716D02*
D03*
X781054Y391572D02*
D03*
X780963Y373264D02*
D03*
X779309Y382518D02*
D03*
X460507Y316187D02*
D03*
X456290Y310716D02*
D03*
X441054Y321572D02*
D03*
X440963Y303264D02*
D03*
X439309Y312518D02*
D03*
X660507Y316187D02*
D03*
X656290Y310716D02*
D03*
X641054Y321572D02*
D03*
X640963Y303264D02*
D03*
X639309Y312518D02*
D03*
X860507Y316187D02*
D03*
X856290Y310716D02*
D03*
X841055Y321572D02*
D03*
X840963Y303264D02*
D03*
X839309Y312518D02*
D03*
X460507Y351187D02*
D03*
X456290Y345716D02*
D03*
X441054Y356572D02*
D03*
X440963Y338264D02*
D03*
X439309Y347518D02*
D03*
X660507Y351187D02*
D03*
X656290Y345716D02*
D03*
X641054Y356572D02*
D03*
X640963Y338264D02*
D03*
X639309Y347518D02*
D03*
X860507Y351187D02*
D03*
X856290Y345716D02*
D03*
X841055Y356572D02*
D03*
X840963Y338264D02*
D03*
X839309Y347518D02*
D03*
X460507Y386187D02*
D03*
X456290Y380716D02*
D03*
X441054Y391572D02*
D03*
X440963Y373264D02*
D03*
X439309Y382518D02*
D03*
X660507Y386187D02*
D03*
X656290Y380716D02*
D03*
X641054Y391572D02*
D03*
X640963Y373264D02*
D03*
X639309Y382518D02*
D03*
X860507Y386187D02*
D03*
X856290Y380716D02*
D03*
X841055Y391572D02*
D03*
X840963Y373264D02*
D03*
X839309Y382518D02*
D03*
X700754Y366178D02*
D03*
X695283Y370395D02*
D03*
X687831Y385722D02*
D03*
X697085Y387376D02*
D03*
X900754Y366178D02*
D03*
X895282Y370395D02*
D03*
X887831Y385722D02*
D03*
X898285Y378076D02*
D03*
X897085Y387376D02*
D03*
X340507Y126187D02*
D03*
X336290Y120716D02*
D03*
X321055Y131572D02*
D03*
X320963Y113264D02*
D03*
X319309Y122518D02*
D03*
X540507Y126187D02*
D03*
X536290Y120716D02*
D03*
X521055Y131572D02*
D03*
X520963Y113264D02*
D03*
X519309Y122518D02*
D03*
X340507Y91187D02*
D03*
X336290Y85716D02*
D03*
X321055Y96572D02*
D03*
X320963Y78264D02*
D03*
X319309Y87518D02*
D03*
X540507Y91187D02*
D03*
X536290Y85716D02*
D03*
X521055Y96572D02*
D03*
X520963Y78264D02*
D03*
X519309Y87518D02*
D03*
X740507Y91187D02*
D03*
X736290Y85716D02*
D03*
X721055Y96572D02*
D03*
X720963Y78264D02*
D03*
X719309Y87518D02*
D03*
X340507Y56187D02*
D03*
X336290Y50716D02*
D03*
X321055Y61572D02*
D03*
X320963Y43264D02*
D03*
X319309Y52518D02*
D03*
X540507Y56187D02*
D03*
X536290Y50716D02*
D03*
X521055Y61572D02*
D03*
X520963Y43264D02*
D03*
X519309Y52518D02*
D03*
X740507Y56187D02*
D03*
X736290Y50716D02*
D03*
X721055Y61572D02*
D03*
X720963Y43264D02*
D03*
X719309Y52518D02*
D03*
X400507Y126187D02*
D03*
X396290Y120716D02*
D03*
X381054Y131572D02*
D03*
X380963Y113264D02*
D03*
X379309Y122518D02*
D03*
X600507Y126187D02*
D03*
X596290Y120716D02*
D03*
X581054Y131572D02*
D03*
X580963Y113264D02*
D03*
X579309Y122518D02*
D03*
X800507Y126187D02*
D03*
X796290Y120716D02*
D03*
X781054Y131572D02*
D03*
X780963Y113264D02*
D03*
X779309Y122518D02*
D03*
X400507Y91187D02*
D03*
X396290Y85716D02*
D03*
X381054Y96572D02*
D03*
X380963Y78264D02*
D03*
X379309Y87518D02*
D03*
X600507Y91187D02*
D03*
X596290Y85716D02*
D03*
X581054Y96572D02*
D03*
X580963Y78264D02*
D03*
X579309Y87518D02*
D03*
X800507Y91187D02*
D03*
X796290Y85716D02*
D03*
X781054Y96572D02*
D03*
X780963Y78264D02*
D03*
X779309Y87518D02*
D03*
X400507Y56187D02*
D03*
X396290Y50716D02*
D03*
X381054Y61572D02*
D03*
X380963Y43264D02*
D03*
X379309Y52518D02*
D03*
X600507Y56187D02*
D03*
X596290Y50716D02*
D03*
X581054Y61572D02*
D03*
X580963Y43264D02*
D03*
X579309Y52518D02*
D03*
X800507Y56187D02*
D03*
X796290Y50716D02*
D03*
X781054Y61572D02*
D03*
X780963Y43264D02*
D03*
X779309Y52518D02*
D03*
X460507Y126187D02*
D03*
X456290Y120716D02*
D03*
X441054Y131572D02*
D03*
X440963Y113264D02*
D03*
X439309Y122518D02*
D03*
X660507Y126187D02*
D03*
X656290Y120716D02*
D03*
X641054Y131572D02*
D03*
X640963Y113264D02*
D03*
X639309Y122518D02*
D03*
X860507Y126187D02*
D03*
X856290Y120716D02*
D03*
X841055Y131572D02*
D03*
X840963Y113264D02*
D03*
X839309Y122518D02*
D03*
X460507Y91187D02*
D03*
X456290Y85716D02*
D03*
X441054Y96572D02*
D03*
X440963Y78264D02*
D03*
X439309Y87518D02*
D03*
X660507Y91187D02*
D03*
X656290Y85716D02*
D03*
X641054Y96572D02*
D03*
X640963Y78264D02*
D03*
X639309Y87518D02*
D03*
X860507Y91187D02*
D03*
X856290Y85716D02*
D03*
X841055Y96572D02*
D03*
X840963Y78264D02*
D03*
X839309Y87518D02*
D03*
X460507Y56187D02*
D03*
X456290Y50716D02*
D03*
X441054Y61572D02*
D03*
X440963Y43264D02*
D03*
X439309Y52518D02*
D03*
X660507Y55187D02*
D03*
X656290Y49716D02*
D03*
X641054Y60572D02*
D03*
X640963Y42264D02*
D03*
X639309Y51518D02*
D03*
X860507Y56187D02*
D03*
X856290Y50716D02*
D03*
X841055Y61572D02*
D03*
X840963Y43264D02*
D03*
X839309Y52518D02*
D03*
X493498Y68940D02*
D03*
X498969Y64723D02*
D03*
X498126Y43559D02*
D03*
X497167Y47742D02*
D03*
X693498Y68940D02*
D03*
X698969Y64723D02*
D03*
X695967Y57042D02*
D03*
X697167Y47742D02*
D03*
X893498Y68940D02*
D03*
X898969Y64723D02*
D03*
X895967Y57042D02*
D03*
X897167Y47742D02*
D03*
X340507Y316187D02*
D03*
X336290Y310716D02*
D03*
X321055Y321572D02*
D03*
X320963Y303264D02*
D03*
X319309Y312518D02*
D03*
X540507Y316187D02*
D03*
X536290Y310716D02*
D03*
X521055Y321572D02*
D03*
X520963Y303264D02*
D03*
X519309Y312518D02*
D03*
X740507Y316187D02*
D03*
X736290Y310716D02*
D03*
X721055Y321572D02*
D03*
X720963Y303264D02*
D03*
X719309Y312518D02*
D03*
X241055Y131572D02*
D03*
X239309Y87518D02*
D03*
X128609Y88718D02*
D03*
X159109Y91218D02*
D03*
X136290Y85716D02*
D03*
X159109Y85518D02*
D03*
X140507Y91187D02*
D03*
Y126187D02*
D03*
X136290Y120716D02*
D03*
X159109Y120518D02*
D03*
Y126218D02*
D03*
X128609Y123718D02*
D03*
X140507Y56187D02*
D03*
X159109Y50518D02*
D03*
Y56218D02*
D03*
X119309Y52518D02*
D03*
X128609Y53718D02*
D03*
X196290Y120716D02*
D03*
X219109Y120518D02*
D03*
Y126218D02*
D03*
X179309Y122518D02*
D03*
X188609Y123718D02*
D03*
X200507Y91187D02*
D03*
X196290Y85716D02*
D03*
X219109Y85518D02*
D03*
Y91218D02*
D03*
X188609Y88718D02*
D03*
X200507Y56187D02*
D03*
X219109Y50518D02*
D03*
Y56218D02*
D03*
X188609Y53718D02*
D03*
X279226Y120159D02*
D03*
Y125859D02*
D03*
X248726Y123359D02*
D03*
X279109Y85518D02*
D03*
Y91218D02*
D03*
X248609Y88718D02*
D03*
X279109Y50518D02*
D03*
Y56218D02*
D03*
X248609Y53718D02*
D03*
X200507Y386187D02*
D03*
X196290Y380716D02*
D03*
X181054Y391572D02*
D03*
X180963Y373264D02*
D03*
X179309Y382518D02*
D03*
X188609Y383718D02*
D03*
X121054Y131572D02*
D03*
X120963Y113264D02*
D03*
X119309Y122518D02*
D03*
X121054Y96572D02*
D03*
X120963Y78264D02*
D03*
X119309Y87518D02*
D03*
X136290Y50716D02*
D03*
X121054Y61572D02*
D03*
X120963Y43264D02*
D03*
X200507Y126187D02*
D03*
X181054Y131572D02*
D03*
X180963Y113264D02*
D03*
X181054Y96572D02*
D03*
X180963Y78264D02*
D03*
X179309Y87518D02*
D03*
X196290Y50716D02*
D03*
X181054Y61572D02*
D03*
X180963Y43264D02*
D03*
X179309Y52518D02*
D03*
X260625Y125828D02*
D03*
X256407Y120357D02*
D03*
X241080Y112905D02*
D03*
X239426Y122159D02*
D03*
X260507Y91187D02*
D03*
X256290Y85716D02*
D03*
X241055Y96572D02*
D03*
X240963Y78264D02*
D03*
X260507Y56187D02*
D03*
X256290Y50716D02*
D03*
X241055Y61572D02*
D03*
X240963Y43264D02*
D03*
X239309Y52518D02*
D03*
X293498Y70940D02*
D03*
X298970Y66723D02*
D03*
X297167Y49742D02*
D03*
X287831Y385722D02*
D03*
X120963Y303264D02*
D03*
X121054Y321572D02*
D03*
X119309Y347518D02*
D03*
X128609Y313718D02*
D03*
X136290Y345716D02*
D03*
X159109Y345518D02*
D03*
Y351218D02*
D03*
Y386218D02*
D03*
X200507Y351187D02*
D03*
X240963Y303264D02*
D03*
X239309Y312518D02*
D03*
X241055Y321572D02*
D03*
X240963Y338264D02*
D03*
X239309Y347518D02*
D03*
X241055Y391572D02*
D03*
X248609Y313718D02*
D03*
X256290Y345716D02*
D03*
X279109Y345518D02*
D03*
Y351218D02*
D03*
Y386218D02*
D03*
X119309Y382518D02*
D03*
X136290Y380716D02*
D03*
X159109Y310518D02*
D03*
Y316218D02*
D03*
Y380518D02*
D03*
X200507Y316187D02*
D03*
X241055Y356572D02*
D03*
X240963Y373264D02*
D03*
X239309Y382518D02*
D03*
X248609Y348718D02*
D03*
X256290Y310716D02*
D03*
Y380716D02*
D03*
X279109Y310518D02*
D03*
Y316218D02*
D03*
Y380518D02*
D03*
X140507Y351187D02*
D03*
Y386187D02*
D03*
X180963Y303264D02*
D03*
X179309Y312518D02*
D03*
X181054Y321572D02*
D03*
X180963Y338264D02*
D03*
X196290Y345716D02*
D03*
X179309Y347518D02*
D03*
X219109Y345518D02*
D03*
Y351218D02*
D03*
Y386218D02*
D03*
X260507Y351187D02*
D03*
Y386187D02*
D03*
X196290Y310716D02*
D03*
X181054Y356572D02*
D03*
X219109Y310518D02*
D03*
Y316218D02*
D03*
Y380518D02*
D03*
X260507Y316187D02*
D03*
X107126Y131559D02*
D03*
X103978Y139855D02*
D03*
X192126Y166559D02*
D03*
X790126Y215559D02*
D03*
X786126Y212559D02*
D03*
X781762Y224438D02*
D03*
X786126Y219559D02*
D03*
X585126Y220559D02*
D03*
X590241Y211418D02*
D03*
X587126Y216559D02*
D03*
X584126Y224559D02*
D03*
X146296Y186209D02*
D03*
X145076Y249279D02*
D03*
X143976Y180699D02*
D03*
X146256Y191039D02*
D03*
X146656Y170769D02*
D03*
X268886Y244649D02*
D03*
X81945Y371512D02*
D03*
X88945D02*
D03*
Y382512D02*
D03*
X81945D02*
D03*
X61158Y387937D02*
D03*
Y348937D02*
D03*
Y356737D02*
D03*
Y364537D02*
D03*
Y372337D02*
D03*
Y380137D02*
D03*
X68158D02*
D03*
Y372337D02*
D03*
Y364537D02*
D03*
Y356737D02*
D03*
Y348937D02*
D03*
Y387937D02*
D03*
X7158Y382937D02*
D03*
X11157Y389937D02*
D03*
X15157Y382937D02*
D03*
X20157Y389937D02*
D03*
X618066Y238939D02*
D03*
X560846Y173589D02*
D03*
X627136Y247499D02*
D03*
X546526Y171109D02*
D03*
X543726Y180569D02*
D03*
X668445Y254766D02*
D03*
X668209Y249083D02*
D03*
X668686Y244269D02*
D03*
X633906Y236909D02*
D03*
X638676Y234199D02*
D03*
X633366Y220469D02*
D03*
X633876Y197839D02*
D03*
X544886Y249179D02*
D03*
X557000Y255821D02*
D03*
X578526Y245609D02*
D03*
X595036Y245009D02*
D03*
X600086Y245059D02*
D03*
X619336Y243919D02*
D03*
X644816Y256149D02*
D03*
X657995Y264427D02*
D03*
X658096Y258873D02*
D03*
X649576Y170829D02*
D03*
X649176Y177999D02*
D03*
X640406Y179399D02*
D03*
X633486Y187969D02*
D03*
X624666Y186619D02*
D03*
X596426Y189609D02*
D03*
X590996Y189559D02*
D03*
X584316Y190759D02*
D03*
X578786D02*
D03*
X569476Y180789D02*
D03*
X574306Y186269D02*
D03*
Y192349D02*
D03*
X574656Y199319D02*
D03*
X573606Y207439D02*
D03*
X568826Y216059D02*
D03*
X573106Y242319D02*
D03*
X573506Y234045D02*
D03*
X564966Y255399D02*
D03*
X560926Y262289D02*
D03*
X553096Y264279D02*
D03*
X141806Y190669D02*
D03*
X141846Y184629D02*
D03*
X206346Y280629D02*
D03*
X137346Y199729D02*
D03*
X137646Y208429D02*
D03*
X541606Y190754D02*
D03*
X541646Y184714D02*
D03*
X581746Y204014D02*
D03*
X616068Y195436D02*
D03*
X627726Y239054D02*
D03*
X610162Y253919D02*
D03*
X637292Y242952D02*
D03*
X625446Y244114D02*
D03*
X606225Y253919D02*
D03*
X590478D02*
D03*
X582604D02*
D03*
X570846Y264914D02*
D03*
X573346Y248114D02*
D03*
X555446Y247514D02*
D03*
X637446Y225114D02*
D03*
X632146Y201714D02*
D03*
X629946Y181014D02*
D03*
X620005Y179157D02*
D03*
X600320D02*
D03*
X578666D02*
D03*
X567346Y223603D02*
D03*
X546056Y191124D02*
D03*
X551746Y190414D02*
D03*
X606146Y280714D02*
D03*
X655526Y228434D02*
D03*
X546096Y186294D02*
D03*
X551446Y184114D02*
D03*
X537146Y199814D02*
D03*
X537446Y208514D02*
D03*
X737446Y199829D02*
D03*
X746356Y191139D02*
D03*
X745246Y249729D02*
D03*
X751746Y184129D02*
D03*
X752046Y190429D02*
D03*
X753346Y263929D02*
D03*
X760946Y173329D02*
D03*
X761346Y261929D02*
D03*
X767446Y215629D02*
D03*
X767646Y223618D02*
D03*
X774346Y192629D02*
D03*
X778946Y190829D02*
D03*
X774446Y199429D02*
D03*
X779046Y245429D02*
D03*
X784746Y191029D02*
D03*
X782903Y253934D02*
D03*
X790815Y189562D02*
D03*
X790777Y253934D02*
D03*
X800346Y245129D02*
D03*
X806526Y253934D02*
D03*
X810462D02*
D03*
X806446Y280729D02*
D03*
X833946Y198029D02*
D03*
X832446Y201729D02*
D03*
X833946Y237029D02*
D03*
X838446Y169229D02*
D03*
X849646Y177729D02*
D03*
X847246Y254229D02*
D03*
X858333Y264434D02*
D03*
X745546Y171229D02*
D03*
X746396Y186309D02*
D03*
X769946Y180629D02*
D03*
X774446Y186229D02*
D03*
X778966Y179173D02*
D03*
X800620D02*
D03*
X816368Y195451D02*
D03*
X825146Y187029D02*
D03*
X825746Y244129D02*
D03*
X833746Y188129D02*
D03*
X833546Y220429D02*
D03*
X832345Y227380D02*
D03*
X838846Y234229D02*
D03*
X849746Y170529D02*
D03*
X855826Y228449D02*
D03*
X858246Y258629D02*
D03*
X871346Y242229D02*
D03*
X741946Y184729D02*
D03*
X741906Y190769D02*
D03*
X755746Y247529D02*
D03*
X757046Y255129D02*
D03*
X765066Y254039D02*
D03*
X796946Y189829D02*
D03*
X774146Y208029D02*
D03*
X773646Y248129D02*
D03*
X795346Y245029D02*
D03*
X771146Y264929D02*
D03*
X830246Y181029D02*
D03*
X828026Y239069D02*
D03*
X827546Y247629D02*
D03*
X837746Y225129D02*
D03*
X868746Y249529D02*
D03*
X782046Y204029D02*
D03*
X773846Y234329D02*
D03*
X773646Y242129D02*
D03*
X820305Y179173D02*
D03*
X819646Y243629D02*
D03*
X845346Y179529D02*
D03*
X837592Y242967D02*
D03*
X15140Y253657D02*
D03*
X40750Y253607D02*
D03*
X15330Y264577D02*
D03*
X15120Y259176D02*
D03*
X33100Y249766D02*
D03*
X32310Y243017D02*
D03*
X43050D02*
D03*
X40750Y264577D02*
D03*
Y259036D02*
D03*
X14990Y248037D02*
D03*
X37110Y245577D02*
D03*
X28066Y262652D02*
D03*
X7080Y241067D02*
D03*
X6081Y273048D02*
D03*
X64856Y106709D02*
D03*
X15226Y291549D02*
D03*
X84126Y136759D02*
D03*
Y139829D02*
D03*
X84056Y144959D02*
D03*
X100146Y137369D02*
D03*
X100116Y145029D02*
D03*
X86736Y80589D02*
D03*
X73376Y142459D02*
D03*
X58696Y317919D02*
D03*
X56188Y314639D02*
D03*
X76376Y276839D02*
D03*
Y287059D02*
D03*
X60586D02*
D03*
Y276839D02*
D03*
X60437Y335096D02*
D03*
X65688Y335252D02*
D03*
X63096Y320609D02*
D03*
X73226Y320429D02*
D03*
X73176Y311559D02*
D03*
X62946Y311589D02*
D03*
X45736Y151379D02*
D03*
X68456Y197149D02*
D03*
X60506D02*
D03*
X57096Y151509D02*
D03*
X31286Y144609D02*
D03*
X49556D02*
D03*
Y158659D02*
D03*
X31286D02*
D03*
X19016Y158529D02*
D03*
X8086Y158659D02*
D03*
X19206Y144289D02*
D03*
X8026D02*
D03*
X79421Y113499D02*
D03*
X88476D02*
D03*
X94576Y73538D02*
D03*
X97876Y88699D02*
D03*
X98261Y107998D02*
D03*
X31676Y78899D02*
D03*
X41431Y79901D02*
D03*
X46476Y119799D02*
D03*
X79421Y101199D02*
D03*
X79576Y126099D02*
D03*
X88206Y93474D02*
D03*
X87576Y126099D02*
D03*
X19276Y113599D02*
D03*
X27176Y120699D02*
D03*
X45576Y73799D02*
D03*
X37276Y112999D02*
D03*
X92176Y107999D02*
D03*
X83948Y106899D02*
D03*
X84976Y93399D02*
D03*
X83948Y119799D02*
D03*
X55111Y256304D02*
D03*
X5597Y230743D02*
D03*
X26197Y202943D02*
D03*
X5997Y186943D02*
D03*
X6097Y200143D02*
D03*
X15597Y206043D02*
D03*
X15897Y220543D02*
D03*
X5797Y212443D02*
D03*
X47506Y224069D02*
D03*
M02*
