M48
;Layer_Color=9474304
;FILE_FORMAT=2:5
INCH,LZ
;TYPE=PLATED
T1F00S00C0.01200
T2F00S00C0.03543
T3F00S00C0.03701
T4F00S00C0.12441
T5F00S00C0.12598
T6F00S00C0.14331
;TYPE=NON_PLATED
T7F00S00C0.12992
%
T01
X0887573Y0013204
X0888844Y001919
X0883063Y0019716
X0881063Y0025717
X0884063Y0028716
X0881268Y0031892
X0889373Y0036142
X0888736Y0046925
X0888063Y0052716
X0883063Y0064717
X0891063Y0073037
X0893406Y0076086
X0896157Y0083486
X08892Y00929
X0879063Y0087717
Y0098716
X0841063Y0100716
X0839063Y0087717
X0845063Y0070717
X084511Y0061717
X084313Y0052943
X0842736Y0046925
X0844063Y0040716
X0843373Y0036142
X0841063Y0025717
X0842844Y001919
X0837063Y0019716
X0830063Y0020717
X0831868Y0008698
X0836063Y0005717
X0841573Y0013204
X0855063Y0013716
Y0019716
X0870063
X0878063Y0029717
X0860316Y0035578
X0859483Y0047533
X0855001Y0052609
X085911Y0064717
X0862181Y0064617
X0855432Y007123
X0837063Y0064717
X083786Y0055655
X0816548Y0051712
X0811063Y0054716
Y0044717
X0802808Y0047635
X0799322Y0038815
X079911Y0023717
X0806588Y0024589
X0808903Y0028155
X0811468Y0030658
X0814316Y0035578
X0822063Y0030716
X0809063Y0019716
Y0013716
X0816309Y0008993
X0766833Y0009066
X0759063Y0023717
X0748964Y0015417
X0743271Y0014044
X0732489Y0013406
X0724063Y0022716
X0727063Y0037716
X072595Y004221
X0731925Y0042464
X0741175Y0045874
X0751063Y0045717
X0750545Y0037088
X0760751Y0040522
X0764182Y0042256
X0762696Y0048914
X0768155Y0047521
X0768739Y0054892
X0757087Y0056916
X0748964Y0060157
X0743271Y0059044
X0732489Y0058406
X0724063Y0068717
Y0073716
X0724056Y007884
X0724063Y0088717
X0731978Y0088554
X0741253Y0090531
X0748865Y0092397
X0748705Y0096905
X0756296Y0094343
X075898Y0091732
X0764182Y0087256
X0768901Y0094126
X0761063Y0072716
X0750545Y0082088
X0789808Y0064735
X081311Y0063717
X0814524Y0067835
X0812063Y0072716
X0879063Y0053716
X0721086Y0055767
X0715537Y0058936
X0716063Y0064717
X0720063
X0720667Y0069511
X0719439Y0079783
X0715142Y0080195
X0721063Y0085716
Y0089717
X0716063Y0092716
X0710063
X0719651Y0098575
X0691063Y0092115
X0696158Y0083486
X0693406Y0076086
X0691063Y0072837
X0683063Y0064717
X0679063Y0053716
X0688063Y0052716
X0688736Y0046925
X0689373Y0036142
X0681268Y0031892
X0678063Y0029717
X0681063Y0025717
X0684063Y0028716
X0683063Y0019716
X0688844Y001919
X0687573Y0013204
X0709551Y0015207
X0715537Y0013936
X0716063Y0019716
X0722063
X0721063Y0025717
X0723079Y0029726
X0719063Y0032717
X0715019Y0032597
X0720874Y0040663
X0722063Y0047717
X0716063
X0710063
X0709551Y0060207
X0662181Y0064617
X065911Y0064717
X0655432Y007123
X0645063Y0070717
X064511Y0061717
X064313Y0052943
X0642736Y0046925
X0644063Y0040716
X0643373Y0036142
X0641063Y0025717
X0642844Y001919
X0637063Y0019716
X0630063Y0020717
X0631868Y0008698
X0636063Y0005717
X0641573Y0013204
X0655063Y0013716
Y0019716
X0670063
X0660316Y0035578
X0659483Y0047533
X0655001Y0052609
X063788Y0055786
X0637063Y0064717
X061311Y0063717
X0614524Y0067835
X0612063Y0072716
X0611063Y0054716
X0616548Y0051712
X0611063Y0044717
X0602808Y0047635
X0599322Y0038815
X059911Y0023717
X0606588Y0024589
X0608903Y0028155
X0611468Y0030658
X0614316Y0035578
X0622063Y0030716
X0609063Y0019716
Y0013716
X0616309Y0008993
X0589808Y0064735
X0568739Y0054892
X0568155Y0047521
X0568901Y0094126
X0639063Y0087717
X0641063Y0100716
X0679063Y0098716
Y0087717
X0564182Y0087256
X055898Y0091732
X0556296Y0094343
X0548865Y0092397
X05473Y0096694
X0541253Y0090531
X0531978Y0088554
X0524063Y0088717
X0521063Y0089717
Y0085716
X0519439Y0079783
X0515142Y0080195
X0524056Y007884
X0524063Y0073716
Y0068717
X0520667Y0069511
X0520063Y0064717
X0516063
X0515537Y0058936
X0509551Y0060207
X0510063Y0047717
X0516063
X0522063
X0520874Y0040663
X052595Y004221
X0527063Y0037716
X0531925Y0042464
X0541175Y0045874
X0551063Y0045717
X0550545Y0037088
X0560751Y0040522
X0564182Y0042256
X0562696Y0048914
X0557087Y0056916
X0548964Y0060157
X0543271Y0059044
X0532489Y0058406
X0521086Y0055767
X0519063Y0032717
X0515019Y0032597
X0523079Y0029726
X0521063Y0025717
X0524063Y0022716
X0522063Y0019716
X0516063
X0515537Y0013936
X0509551Y0015207
X0487573Y0013204
X0488844Y001919
X0483063Y0019716
X0481063Y0025717
X0484063Y0028716
X0481268Y0031892
X0478063Y0029717
X0489373Y0036142
X0488736Y0046925
X0488063Y0052716
X0479063Y0053716
X0483063Y0064717
X04906Y00734
X0493406Y0076086
X0496158Y0083486
X04905Y00919
X0479063Y0087717
Y0098716
X0510063Y0092716
X0516063
X0519651Y0098575
X0550545Y0082088
X0561063Y0072716
X0559063Y0023717
X0548964Y0015417
X0543271Y0014044
X0532489Y0013406
X0566833Y0009066
X0470063Y0019716
X0455063
Y0013716
X0441573Y0013204
X0442844Y001919
X0437063Y0019716
X0430063Y0020717
X0431868Y0008698
X0436063Y0005717
X0416309Y0008993
X0422063Y0030716
X0414316Y0035578
X0416548Y0051712
X041311Y0063717
X0414524Y0067835
X0412063Y0072716
X0437063Y0064717
X0437535Y005585
X044313Y0052943
X0442736Y0046925
X0444063Y0040716
X0443373Y0036142
X0441063Y0025717
X0460316Y0035578
X0459483Y0047533
X0455001Y0052609
X045911Y0064717
X0462181Y0064617
X0455432Y007123
X0445063Y0070717
X044511Y0061717
X0439063Y0087717
X0441063Y0100716
X0367Y01
X0368822Y0092545
X0364182Y0087256
X035898Y0091732
X0356026Y0093801
X0348865Y0092397
X0345555Y0096511
X0341252Y0090531
X0331978Y0088554
X0324063Y0088717
X0321063Y0089717
Y0085716
X0319439Y0079783
X0315142Y0080195
X0324056Y007884
X0324063Y0073716
Y0068717
X0320667Y0069511
X0320063Y0064717
X0316063
X0315537Y0058936
X0309551Y0060207
X0310063Y0047717
X0316063
X0322063
X0320874Y0040663
X032595Y004221
X0327063Y0037716
X0331925Y0042464
X0341175Y0045874
X0351063Y0045717
X0350545Y0037088
X0360751Y0040522
X0364182Y0042256
X0362696Y0048914
X0368155Y0047521
X0368739Y0054892
X0357087Y0056916
X0348964Y0060157
X0343271Y0059044
X0332489Y0058406
X0321086Y0055767
X0319063Y0032717
X0315019Y0032597
X0323079Y0029726
X0321063Y0025717
X0324063Y0022716
X0322063Y0019716
X0316063
X0315537Y0013936
X0309551Y0015207
X0287573Y0013204
X0288844Y001919
X0283063Y0019716
X0281063Y0025717
X0284063Y0028716
X0281268Y0031892
X0278063Y0029717
X0289373Y0036142
X0288736Y0046925
X0288063Y0052716
X0279063Y0053716
X0283063Y0064717
X029112Y007325
X0293406Y0076086
X0296158Y0083486
X028757Y00922
X0279063Y0087717
Y0098716
X0310063Y0092716
X0316063
X0319651Y0098575
X0350545Y0082088
X0361063Y0072716
X0389808Y0064735
X0402808Y0047635
X0411063Y0044717
Y0054716
X0411468Y0030658
X0408903Y0028155
X0406588Y0024589
X0409063Y0019716
Y0013716
X039911Y0023717
X0399322Y0038815
X0359063Y0023717
X0348964Y0015417
X0343271Y0014044
X0332489Y0013406
X0366833Y0009066
X0270063Y0019716
X0260316Y0035578
X0259483Y0047533
X025911Y0064717
X0262181Y0064617
X0255432Y007123
X0245063Y0070717
X024511Y0061717
X024313Y0052943
X0242736Y0046925
X0244063Y0040716
X0243373Y0036142
X0241063Y0025717
X0242844Y001919
X0237063Y0019716
X0230063Y0020717
X0231868Y0008698
X0236063Y0005717
X0241573Y0013204
X0255063Y0013716
Y0019716
X0255001Y0052609
X0237624Y0055662
X0237063Y0064717
X021311Y0063717
X0214524Y0067835
X0211063Y0054716
X0216548Y0051712
X0211063Y0044717
X0202808Y0047635
X0199322Y0038815
X019911Y0023717
X0206588Y0024589
X0208903Y0028155
X0211468Y0030658
X0214316Y0035578
X0222063Y0030716
X0209063Y0019716
Y0013716
X0216309Y0008993
X0166833Y0009066
X0159063Y0023717
X0148964Y0015417
X0143272Y0014044
X0132489Y0013406
X0122063Y0019716
X0124063Y0022716
X0121063Y0025717
X0123079Y0029726
X0119063Y0032717
X0115019Y0032597
X0120874Y0040663
X012595Y004221
X0127063Y0037716
X0131925Y0042464
X0141174Y0045874
X0151063Y0045717
X0150545Y0037088
X0160751Y0040522
X0164181Y0042256
X0162696Y0048914
X0168155Y0047521
X0168739Y0054892
X0157087Y0056916
X0148964Y0060157
X0143272Y0059044
X0132489Y0058406
X0121086Y0055767
X0115537Y0058936
X0116063Y0064717
X0120063
X0120667Y0069511
X0124063Y0068717
Y0073716
X0124056Y007884
X0119439Y0079783
X0115142Y0080195
X0121063Y0085716
Y0089717
X0124063Y0088717
X0131977Y0088554
X0141253Y0090531
X0148865Y0092397
X0148519Y0096851
X0156296Y0094343
X015898Y0091732
X0164181Y0087256
X0168901Y0094126
X0161063Y0072716
X0150545Y0082088
X0116063Y0092716
X0110063
X0119651Y0098575
X0109551Y0060207
X0110063Y0047717
X0116063
X0122063
X0116063Y0019716
X0115537Y0013936
X0109551Y0015207
X0189808Y0064735
X0239063Y0087717
X0241063Y0100716
X0065748Y0101575
X0059775
X0053802
X0038262Y0099113
X0034042
X0027092Y0098973
X0022772
X0042457Y0079937
X0044185Y0072588
X0039986Y0070331
X0036108Y0072748
X0036457Y0046937
X0036298Y0035612
X004405Y0037677
X0047457Y0055937
X0041242Y0105283
X0034092Y0105883
X0026942Y0107643
X0011272Y0107953
X0011302Y0113653
X0011092Y0119013
X0011302Y0124653
X0021752Y0124793
X0030935Y01287
X0035357Y0122255
X0038194Y0114716
X0042722Y0117673
X0043922Y0111563
X0053802Y0108563
X0059775
X0065748
Y0115551
X0059775
X0053802
Y0122539
X0059775
X0065748
Y0129528
X0059775
X0053802
X0049674Y0143766
X0045854Y0150537
X0049674Y0157817
X0057214Y0150666
X0031404Y0143766
X0019324Y0143447
X0008144
X0008204Y0157817
X0019134Y0157686
X0031404Y0157817
X0026315Y02021
X0015715Y0205201
X0016015Y0219701
X0005915Y02116
X0006215Y0199301
X0006115Y01861
X0005715Y0229901
X0007198Y0240224
X0015108Y0247194
X0015258Y0252814
X0033218Y0248924
X0032428Y0242174
X0037228Y0244734
X0043168Y0242174
X0040868Y0252764
X0055229Y0255461
X0047624Y0223226
X0060624Y0196307
X0068574
X0109063Y0194717
Y0200716
X0116548Y0198526
X0121666
X0124159Y0201695
X0121063Y0205716
X0119063Y0209717
X0126789Y0211442
X0129348Y0207432
X0131907Y0202873
X0142929Y0201231
X0142493Y0194577
X0150123Y019505
Y020105
X0159063Y0207716
X0160063Y0211717
X0155673Y0211764
X0153123Y021705
X0151857Y0226289
X0145063Y0225716
X0144063Y0231716
X0149969Y0232766
X0136654Y0233045
X0137063Y0245717
X0116651Y0246074
X0113063Y0247716
Y0252716
X0104021Y024902
X0108643Y0227589
X0114063Y0231716
X0119063Y0237717
X0112068Y0215748
X0143379Y0216174
X0167063Y0211717
X0164612Y0207487
X0170063Y0205716
X0172063Y0201716
X0178123Y020105
X0186123Y020205
X0187063Y0209717
X0184503Y0216937
X0186123Y022605
X0189138Y0224848
X0185123Y023205
X0176063Y0236717
X0167302Y0235653
X0159063Y0237717
X0157711Y0246408
X0150426Y0257354
X0178123Y024605
X0187095Y0244883
X0187063Y0250716
X0182632Y0194538
X0178973Y0190625
X017313Y0190164
X016953Y0181657
X0160366Y0181413
X016254Y0176191
X0159063Y0188716
X0147778Y018387
X0145063Y0179717
X0132063Y0180717
X0134466Y0188119
X011945Y0188624
X0116063Y0183716
X0110063
X0120063Y0179717
X012019Y0176379
X0124063Y0177717
Y0172716
X0122063Y0165717
X0119063Y0168717
X0115063
X0116063Y0155717
X0120063Y0156717
X0121305Y0159818
X0126297Y0162575
X0132489Y0149406
X0142065Y0149671
X0148048Y0149752
X0148705Y0141787
X014874Y0137634
X0141295Y0135479
X0131925Y0132464
X0124063Y0127717
X0121354Y0130232
X0120063Y0134716
X0116063Y0137716
X0110063
X0109063Y0150716
X0116075Y0149335
X0121044Y0145482
X0121063Y0122716
X0124311Y0119876
X0121177Y0115757
X0125063Y0112716
X0120063Y0109716
X0116063
X0115537Y0103936
X0109551Y0105207
X0116299Y0120157
X0116131Y0125076
X0150545Y0127088
X0149065Y0120225
X0148964Y0105457
X0143272Y0104044
X0132489Y0103406
X0162997Y0103682
X0161063Y0109716
X0169063Y0101716
Y0136716
X016198Y0137338
X0164181Y0132256
X0167063Y0145717
X0159769Y0149439
X0161039Y015531
X0149627Y0166489
X0195508Y0171935
X0197908Y0159235
X0199714Y0149313
X0197721Y0130243
X0195208Y0120835
X0253063Y0117717
Y0111716
X0253738Y0126962
X0253001Y015061
X0253366Y017402
X0253123Y0183184
X0253508Y0188535
X0253063Y0194717
Y0200716
X0253808Y0206035
X0253008Y0219835
X0255063Y0224716
X0255192Y0234457
X0255208Y0245835
X0258524Y0248835
X025758Y0252791
X0263063Y0239717
X0281063Y0235717
X028713Y0233943
X0286736Y0227925
X0288596Y0223177
X0287373Y0217142
X0286063Y0205716
X0286844Y020019
X0283642Y0201369
X0277063Y0201716
X0273814Y0200443
X0270694Y0201696
X0263273Y020257
X0260532Y0200186
X0265893Y0212972
X0270063Y0211717
X0279063Y0207716
X0285573Y0194204
X0309063Y0194717
Y0200716
X0316553Y0198526
X0321666
X0324159Y0201695
X0321063Y0205716
X0319063Y0209717
X0326789Y0211442
X0329348Y0207432
X0331907Y0202873
X0342929Y0201231
X0342493Y0194577
X0350123Y019505
Y020105
X0359063Y0207716
X0360063Y0211717
X0355673Y0211764
X0353123Y021705
X0351857Y0226289
X0345063Y0225716
X0344063Y0231716
X034997Y0232766
X0336654Y0233045
X0337063Y0245717
X0316652Y0246074
X0313063Y0247716
Y0252716
X0305154Y0246245
X029Y0245
X029009Y0251592
X0281063Y0245717
X0308643Y0227589
X0314063Y0231716
X0319063Y0237717
X0312068Y0215748
X0343379Y0216174
X0367063Y0211717
X0364612Y0207487
X0370063Y0205716
X0372063Y0201716
X0378075Y0201219
X0386123Y020205
X0387063Y0209717
X0384468Y0216811
X0386123Y022605
X0389138Y0224848
X0385123Y023205
X0387095Y0244883
X0387063Y0250716
X0378076Y0245721
X0373Y0236
X0359063Y0237717
X0357711Y0246408
X0350426Y0257354
X0347778Y018387
X0345063Y0179717
X0332063Y0180717
X0334466Y0188119
X031945Y0188624
X0316063Y0183716
X0310063
X0320063Y0179717
X032019Y0176379
X0324063Y0177717
Y0172716
X0319063Y0168717
X0315063
X0322063Y0165717
X0321305Y0159818
X0320063Y0156717
X0316063Y0155717
X0316075Y0149335
X0309063Y0150716
X0310063Y0137716
X0316063
X0320063Y0134716
X0321354Y0130232
X0324063Y0127717
X0321063Y0122716
X0324311Y0119876
X0321177Y0115757
X0325063Y0112716
X0320063Y0109716
X0316063
X0315537Y0103936
X0309551Y0105207
X0316299Y0120157
X0316131Y0125076
X0331925Y0132464
X0341295Y0135479
X0348785Y0137278
X0347917Y0140999
X0348048Y0149752
X0342065Y0149671
X0332489Y0149406
X0321044Y0145482
X0326297Y0162575
X0349098Y0166983
X036254Y0176191
X0360367Y0181413
X0359063Y0188716
X037313Y0190164
X0378973Y0190625
X0382632Y0194538
X036953Y0181657
X0361039Y015531
X0359769Y0149439
X0367063Y0145717
X0369063Y0136716
X036198Y0137338
X0364182Y0132256
X0350545Y0127088
X0348964Y0120734
X0348964Y0105457
X0343271Y0104044
X0332489Y0103406
X0362997Y0103682
X0361063Y0109716
X0395208Y0120835
X039772Y0130243
X0399714Y0149313
X0397908Y0159235
X0395508Y0171935
X0289324Y0170494
X0289406Y0161086
X0282622Y0162283
X028713Y0150943
X0286736Y0144925
X0287373Y0134142
X0279312Y0128943
X0270765Y0126556
X0273181Y0123773
X0276063Y0120717
X0278256Y0118038
X0281063Y0119717
X0286844Y011719
X0285573Y0111204
X0278387Y0106834
X0268063Y0104717
X0265229Y0106799
X0257063Y0121716
X0259063Y0124716
X0255824Y0133408
X0256118Y0145442
X0277Y0152
X0259157Y0171826
X0258316Y0216578
X0453662Y0219437
X0455063Y0224716
X0455192Y0234457
X0455208Y0245835
X0458524Y0248835
X045758Y0252791
X0463063Y0239717
X0481063Y0235717
X048713Y0233943
X0486736Y0227925
X0487319Y022257
X0487373Y0217142
X0486063Y0205716
X0486844Y020019
X0483642Y0201369
X0477063Y0201716
X0473814Y0200443
X0470693Y0201696
X0463273Y020257
X0460532Y0200186
X0453063Y0200716
Y0194717
X0453508Y0188535
X0453123Y0183184
X0453366Y017402
X0459157Y0171826
X0455512Y0151575
X0456118Y0145442
X0455825Y0133408
X0453738Y0126962
X0459063Y0124716
X0457063Y0121716
X0453063Y0117717
Y0111716
X0465229Y0106799
X0468063Y0104717
X0478387Y0106834
X0478256Y0118038
X0481063Y0119717
X0476063Y0120717
X0473181Y0123773
X0470765Y0126556
X0479312Y0128943
X0487373Y0134142
X0486736Y0144925
X048713Y0150943
X0489406Y0161086
X0482622Y0162283
X0489324Y0170494
X0485573Y0194204
X0479063Y0207716
X0470063Y0211717
X0465893Y0212972
X0458316Y0216578
X0453808Y0206035
X0509063Y0200716
Y0194717
X0516547Y0198526
X0521666
X0524159Y0201695
X0521063Y0205716
X0519063Y0209717
X0526789Y0211442
X0529348Y0207432
X0531907Y0202873
X0542929Y0201231
X0542493Y0194577
X0550123Y019505
Y020105
X0559063Y0207716
X0560063Y0211717
X0555673Y0211764
X0553123Y021705
X0551857Y0226289
X0545063Y0225716
X0544063Y0231716
X0549969Y0232766
X0536654Y0233045
X0537063Y0245717
X0516651Y0246074
X0513063Y0247716
Y0252716
X050527Y0246086
X0489345Y0246094
X0489875Y0251763
X0481063Y0245717
X0508643Y0227589
X0514063Y0231716
X0519063Y0237717
X0512068Y0215748
X0543379Y0216174
X0567063Y0211717
X0564612Y0207487
X0559063Y0188716
X0560366Y0181413
X056254Y0176191
X0545063Y0179717
X0547778Y018387
X0549098Y0168165
X0548048Y0149752
X0542065Y0149671
X0532489Y0149406
X0521044Y0145482
X0516075Y0149335
X0516063Y0155717
X0520063Y0156717
X0521305Y0159818
X0522063Y0165717
X0519063Y0168717
X0515063
X052019Y0176379
X0520063Y0179717
X0524063Y0177717
Y0172716
X0526297Y0162575
X0532063Y0180717
X0534466Y0188119
X0519451Y0188624
X0516063Y0183716
X0510063
X0509063Y0150716
X0510063Y0137716
X0516063
X0520063Y0134716
X0521354Y0130232
X0524063Y0127717
X0521063Y0122716
X0524311Y0119876
X0521177Y0115757
X0525063Y0112716
X0520063Y0109716
X0516063
X0515537Y0103936
X0509551Y0105207
X0516299Y0120157
X0516131Y0125076
X0531925Y0132464
X0541295Y0135479
X0547664Y0137583
X0545555Y0141393
X0550545Y0127088
X0549492Y0120921
X0548964Y0105457
X0543271Y0104044
X0532489Y0103406
X0562997Y0103682
X0561063Y0109716
X0564182Y0132256
X056198Y0137338
X0567063Y0145717
X0559769Y0149439
X0561039Y015531
X0559063Y0237717
X0557711Y0246408
X0550426Y0257354
X0475663Y0152196
X0486844Y011719
X0485573Y0111204
X0569063Y0101716
Y0136716
X059772Y0130243
X0595208Y0120835
X0599714Y0149313
X0597908Y0159235
X0595508Y0171935
X0578973Y0190625
X057313Y0190164
X056953Y0181657
X0572063Y0201716
X0570063Y0205716
X0578085Y020113
X0586123Y020205
X0587063Y0209717
X0583495Y0216658
X0586123Y022605
X0588833Y0223883
X0585123Y023205
X0587152Y0245276
X0587063Y0250716
X0577884Y0245335
X0568302Y0235653
X0582632Y0194538
X0653063Y0194717
Y0200716
X0653808Y0206035
X0660532Y0200186
X0663273Y020257
X0670693Y0201696
X0673814Y0200443
X0677063Y0201716
X0683642Y0201369
X0686844Y020019
X0686063Y0205716
X0679063Y0207716
X0670063Y0211717
X0665893Y0212972
X0658316Y0216578
X0653008Y0219835
X0655063Y0224716
X0655192Y0234457
X0655208Y0245835
X0658524Y0248835
X065758Y0252791
X0663063Y0239717
X0681063Y0235717
X068713Y0233943
X0686736Y0227925
X0688057Y0223057
X0687373Y0217142
X0685573Y0194204
X0709063Y0194717
Y0200716
X0716518Y0198516
X0721666Y0198526
X0721063Y0205716
X0719063Y0209717
X0712068Y0215748
X0708643Y0227589
X0714063Y0231716
X0719063Y0237717
X0716651Y0246074
X0713063Y0247716
Y0252716
X0705073Y0245889
X0689275Y0248016
X0690878Y0253214
X0681063Y0245717
X0689324Y0170494
X0689406Y0161086
X0682622Y0162283
X068713Y0150943
X0686736Y0144925
X0687373Y0134142
X0679312Y0128943
X0670765Y0126556
X0673181Y0123773
X0676063Y0120717
X0678256Y0118038
X0681063Y0119717
X0686844Y011719
X0685573Y0111204
X0678387Y0106834
X0668063Y0104717
X0665229Y0106799
X0653063Y0111716
Y0117717
X0657063Y0121716
X0659063Y0124716
X0653738Y0126962
X0655825Y0133408
X0656118Y0145442
X0653001Y015061
X0675Y0152
X0709063Y0150716
X0716075Y0149335
X0716063Y0155717
X0720063Y0156717
X0721305Y0159818
X0722063Y0165717
X0719063Y0168717
X0715063
X072019Y0176379
X0720063Y0179717
X0716063Y0183716
X0710063
X0719451Y0188624
X0721044Y0145482
X0720063Y0134716
X0721354Y0130232
X0721063Y0122716
X0721177Y0115757
X0720063Y0109716
X0716063
X0715537Y0103936
X0709551Y0105207
X0716299Y0120157
X0716131Y0125076
X0716063Y0137716
X0710063
X0659157Y0171826
X0653366Y017402
X0653123Y0183184
X0653508Y0188535
X0734466Y0188119
X0732063Y0180717
X0724063Y0177717
Y0172716
X0726297Y0162575
X0732489Y0149406
X0742065Y0149671
X0748048Y0149752
X0747917Y0141393
X0748625Y0137138
X0741295Y0135479
X0731925Y0132464
X0724063Y0127717
X0724311Y0119876
X0725063Y0112716
X0732489Y0103406
X0743271Y0104044
X0748964Y0105457
X0749022Y0120387
X0750545Y0127088
X0764182Y0132256
X076198Y0137338
X0769063Y0136716
X0767063Y0145717
X0759769Y0149439
X0761039Y015531
X076254Y0176191
X0760366Y0181413
X0759063Y0188716
X0750123Y019505
Y020105
X0742929Y0201231
X0742493Y0194577
X0747778Y018387
X0745063Y0179717
X0749098Y0165802
X076953Y0181657
X077313Y0190164
X0778973Y0190625
X0782632Y0194538
X0786123Y020205
X0778244Y0201484
X0772063Y0201716
X0770063Y0205716
X0764612Y0207487
X0759063Y0207716
X0760063Y0211717
X0755673Y0211764
X0753123Y021705
X0751857Y0226289
X0745063Y0225716
X0744063Y0231716
X0749969Y0232766
X0736654Y0233045
X0737063Y0245717
X0757711Y0246408
X0759063Y0237717
X0768611Y0236359
X0776063Y0236717
X0778123Y024605
X0787095Y0244883
X0787063Y0250716
X0785123Y023205
X0786123Y022605
X0789138Y0224848
X0783302Y0216653
X0787063Y0209717
X0767063Y0211717
X0743379Y0216174
X0726789Y0211442
X0729348Y0207432
X0731907Y0202873
X0724159Y0201695
X0750426Y0257354
X085758Y0252791
X0858524Y0248835
X0855208Y0245835
X0855192Y0234457
X0855063Y0224716
X0853008Y0219835
X0858316Y0216578
X0865893Y0212972
X0870063Y0211717
X0870693Y0201696
X0873814Y0200443
X0877063Y0201716
X0879063Y0207716
X0863273Y020257
X0860532Y0200186
X0853063Y0200716
Y0194717
X0853508Y0188535
X0853123Y0183184
X0853366Y017402
X0859157Y0171826
X0855063Y0151716
X0856118Y0145442
X0855824Y0133408
X0853738Y0126962
X0859063Y0124716
X0857063Y0121716
X0853063Y0117717
Y0111716
X0865229Y0106799
X0868063Y0104717
X0878387Y0106834
X0878256Y0118038
X0876063Y0120717
X0873181Y0123773
X0870765Y0126556
X0879312Y0128943
X0874028Y015169
X0853808Y0206035
X0863063Y0239717
X0795508Y0171935
X0797908Y0159235
X0799714Y0149313
X079772Y0130243
X0795208Y0120835
X0761063Y0109716
X0762997Y0103682
X0769063Y0101716
X0885573Y0111204
X0886844Y011719
X0881063Y0119717
X0887373Y0134142
X0886736Y0144925
X088713Y0150943
X0889406Y0161086
X0882622Y0162283
X0889324Y0170494
X0885573Y0194204
X0886844Y020019
X0883642Y0201369
X0886063Y0205716
X0887373Y0217142
X0888Y0222
X0886736Y0227925
X088713Y0233943
X0881063Y0235717
Y0245717
X0889367Y0245992
X0890481Y0251467
X0843948Y0304403
X0840983Y0312187
X0831583Y0311887
X0827283Y0313686
X0823125Y030844
X0820383Y0303386
X0817983Y0312887
X0812183Y0315187
X0808228Y0313239
X0802242Y031333
X0807083Y0321186
X0815683Y0322287
X0821571Y0322189
X0822431Y0333009
X0815883Y0332187
X0814383Y0335887
X0815483Y0354587
X0814282Y0361538
X0819683Y0359286
X0822188Y0356668
X0820783Y0368387
X0821807Y0374381
X0819529Y0377124
X0819213Y0381048
X0821581Y0386482
X0822121Y0393154
X0830483Y0393087
X0829183Y0388387
X0830183Y0398886
X084027Y0398591
X0840183Y0392787
X0840943Y0388387
X0841083Y0383787
Y0375987
X0853283Y0376386
X0850683Y0383686
X0853054Y0388812
X0849063Y0367717
X0842983Y0359
X084349Y0329451
X0831683Y0304686
X0782557Y031333
X0778507Y0315225
X0774783Y0314686
X0766483Y0315886
X0760904Y031333
X0759089Y0317206
X0756383Y0320387
X0756283Y0326786
X0760883Y0324987
X0766683Y0325186
X0772752Y032372
X0778883Y0323987
X0798305Y0329609
X0763983Y0338187
X0756083Y0342186
X0748129Y0341853
X0749383Y0349786
X0749583Y0357775
X0755825Y0357415
X0763699Y0358595
X0768063Y0353716
Y0346716
X0772063Y0349716
X0757583Y0349587
X0756383Y0333587
X0751284Y0333583
X0750583Y0325387
X0749983Y0322087
X0751883Y0314787
X0749083Y0308414
X0742883Y0307487
X0743102Y0313657
X0733483Y0311887
X0733683Y0308686
X0727483Y0305386
X0728333Y0320466
X0728293Y0325296
X0733983Y0324587
X0733683Y0318286
X0749583Y0369586
X0755783Y0368486
X0755583Y0376287
Y0382287
X0748913Y038324
X074926Y0377177
X0752215Y0387439
X0747003Y0388196
X0743173Y038755
X0738983Y0389286
X0737283Y0385386
X0737683Y0381686
X0727183Y0383887
X0730522Y0391441
X0730282Y0395299
X073058Y0399038
X0735283Y0398087
X0743283Y0396087
X0749059Y0392997
X0753083Y0399086
X0760904Y0388092
X0764841
X0772715
X0777683Y0387986
X0782557Y0388092
X0788462
X07924
X0793528Y0378894
X0801583Y0377786
X0800183Y0373287
X0809963Y0373226
X0807683Y0378287
X0809483Y0381786
X0809329Y038719
X0801778Y0386398
X0782283Y0379287
X0777283Y0379187
X0760983Y0379587
X0815883Y0371186
X0749916Y0263363
X0723883Y0318886
X0723843Y0324926
X0719383Y0333986
X0718686Y0342348
X0721801Y0390434
X0721656Y0393974
X0721542Y0397495
X0650338Y0388238
X0650146Y0383241
X0651739Y0378821
X0640693Y0376116
X0640437Y0383489
X0640483Y0388886
X0640033Y0393031
X0639932Y0398585
X0630493Y0398687
X0629933Y0392827
X0626753Y0390306
X0621821Y0393139
X0621281Y0386467
X0618913Y0381033
X0619229Y0377109
X0621507Y0374366
X0620613Y0368356
X0615843Y0371066
X0609663Y0373212
X0607383Y0378272
X0609073Y0381657
X0609029Y0387175
X0601478Y0386383
X0601273Y0378077
X0600003Y0373096
X0592103Y0379187
X05921Y0388077
X0588163
X0582257
X0577143Y0387887
X0572414Y0388077
X0576973Y0379167
X0582023Y0379217
X0616313Y0383506
X0609858Y0365052
X0619383Y0359272
X0621888Y0356652
X0615303Y0354626
X0614083Y0335872
X0615813Y0331996
X0622131Y0332994
X0621271Y0322175
X0615423Y0322127
X0606603Y0320777
X0607928Y0313224
X0611883Y0315172
X0617683Y0312872
X0622343Y0313557
X0622825Y0308425
X0631113Y0312157
X0631513Y0304987
X0640372Y0306464
X0640344Y0312087
X0642005Y032794
X0642252Y0358248
X064899Y0365751
X0598005Y0329594
X0601942Y0313315
X0611236Y0303273
X0582257Y0313315
X0578207Y031521
X0574483Y0314671
X0572933Y0323716
X0578363Y0323766
X0572178Y0345575
X0569063Y0350716
X0567063Y0354716
X0566063Y0358717
X0557081Y0359695
X0549283Y0357761
X0550763Y0350217
X0556983Y0349917
X0555543Y0341597
X0547829Y0341838
X0550584Y0333536
X0556593Y0333476
X0556243Y0326506
X0560723Y0324917
X0566253
X0566293Y0315686
X0560604Y0313315
X0558789Y0317191
X0556243Y0320427
X0549683Y0322072
X0550303Y0325867
X0551413Y0314947
X0548782Y0308399
X0542783Y0307747
X0542802Y0313642
X0532843Y0312406
X0533023Y0308686
X052688Y0305125
X0525663Y0314726
X0523583Y0318871
X0528033Y0320451
X0527993Y0325282
X0523543Y0324911
X0533683Y0324571
X0533383Y0318271
X0519083Y0333972
X0519383Y0342671
X0526823Y0383336
X053036Y0391886
X0530233Y0395506
X0530419Y0399483
X0535033Y0398436
X0542863Y0396446
X0542873Y0387535
X0546903Y0389557
X0548759Y0392982
X0551915Y0387424
X0548613Y0383225
X054896Y0377162
X0555043Y0376477
X0555283Y0382272
X0560463Y0379767
X0560604Y0388077
X056454
X0552783Y0399072
X0538937Y0389979
X05376Y0385913
X0537383Y0381672
X0549283Y0369571
X0555443Y0368203
X0563683Y0338172
X0549916Y0263363
X0443589Y0303745
X0440723Y0312647
X0431583Y0311627
X0425063Y0311717
X0423135Y030808
X0422063Y0302716
X0431423Y0304666
X0417993Y0312526
X0412193Y0314826
X0415793Y0322096
X0421581Y032183
X0422441Y0332649
X041642Y0331554
X0414393Y0335526
X0415403Y0354066
X0422198Y0356308
X0419693Y0358927
X0421113Y0368286
X0421816Y0374021
X0419539Y0376764
X0419223Y0380688
X0421591Y0386122
X0422131Y0392794
X0426893Y0389936
X0430483Y0392667
X0430413Y0398296
X0440255Y0398217
X0440173Y0392437
X0440568Y0388761
X0441113Y0383137
X0440883Y0375867
X0451554Y037849
X0450493Y0383056
X0452675Y0388823
X0451214Y0365496
X0441999Y0358141
X0441011Y0327239
X0415953Y0370786
X0521536Y0390362
X0521494Y0394419
X0521287Y0398343
X0409339Y038683
X0410948Y0381493
X0407693Y0377926
X0401573Y0377747
X0400613Y0372687
X0409973Y0372867
X0408544Y0364041
X0401788Y0386038
X0392409Y0387732
X0388473
X0382567
X0377577Y0387674
X0372725Y0387732
X036485
X0360913
X0360623Y0379696
X0355593Y0381926
X0355073Y0375786
X034927Y0376817
X0348923Y038288
X0347063Y0387717
X0343183Y038719
X0339253Y0389207
X0337613Y0384817
X0337693Y0381327
X0326913Y0382997
X0330522Y0391441
X0330446Y0394929
X033058Y0399038
X0335303Y0397746
X0343193Y0396006
X0349069Y0392637
X0352225Y0387079
X0353093Y0398727
X0321546Y039831
X0321656Y0393974
X0321676Y0389936
X0349593Y0369227
X0355223Y0368127
X0355835Y0357055
X0349593Y0357416
X0351023Y0349906
X0356093
X0362063Y0351716
X0363063Y0355716
X0367063Y0349716
X0367366Y0345244
X0363993Y0337826
X0355753Y0341487
X0348139Y0341493
X0351093Y0331327
X0350673Y0325377
X0349993Y0321726
X0356233Y0320197
X0359099Y0316846
X0360913Y031297
X0366473Y0315297
X0374793Y0314327
X0378517Y0314865
X0382567Y031297
X0378703Y0323376
X0373353Y0323206
X0366723Y0324527
X0361204Y0324737
X0356403Y0326307
X0356233Y0333447
X0351693Y0314667
X0349093Y0308054
X0340683Y0308977
X0343112Y0313297
X0333123Y0311607
X0333083Y0308296
X0327205Y0305156
X0325813Y0315096
X0323893Y0318527
X0328343Y0320107
X0328303Y0324937
X0323853Y0324567
X0333993Y0324226
X0333693Y0317927
X0319393Y0333627
X0319693Y0342326
X0398315Y0329249
X0406883Y0320457
X0408238Y0312879
X0402252Y031297
X0392562Y0378826
X0382193Y0378996
X0377031Y0378992
X0349916Y0263363
X0243856Y0304429
X0240533Y0312837
X0231573Y0311787
X0231403Y0304458
X0222485Y0302862
X0223025Y030834
X0222473Y0313557
X0217883Y0312787
X0212083Y0315087
X0208128Y0313139
X0202142Y031323
X0206853Y0321037
X0215703Y0322357
X0221471Y032209
X0222331Y0332909
X0215713Y0331686
X0214283Y0335787
X0215473Y0354467
X0222088Y0356568
X0219583Y0359187
X0220843Y0368437
X0221707Y0374281
X0219429Y0377024
X0219113Y0380948
X0216643Y0383506
X0221481Y0386382
X0222021Y0393054
X0230243Y0392717
X0228963Y0388316
X0240693Y0388487
X0240197Y0393102
X0240143Y0398606
X0230523Y0398777
X0240753Y0383257
X0240863Y0376136
X0250823Y0378806
X0250433Y0383147
X0253042Y0388671
X0252063Y0369717
X0242182Y0359113
X0241733Y0327915
X0198205Y0329509
X0178213Y0323877
X0173423Y0323477
X0166473Y0324676
X0160833Y0324897
X0156273Y0326606
X0156213Y0320457
X0158989Y0317106
X0160803Y031323
X0166703Y0315606
X0174683Y0314586
X0178407Y0315125
X0182457Y031323
X0151703Y0314866
X0149883Y0321987
X0150448Y0325799
X0150983Y0331587
X0156613Y0333566
X0155753Y0341717
X0148029Y0341753
X0150913Y0350097
X0157013Y0349637
X0163063Y0352716
X0165303Y0357747
X015737Y0359331
X0151204Y0358564
X0149483Y0369486
X0155643Y0368046
X0155303Y0376147
X0155483Y0382187
X0148813Y038314
X014916Y0377077
X0152115Y0387339
X0147363Y0389216
X0148959Y0392897
X0143098Y0396046
X0143073Y038745
X0139253Y0389067
X0137613Y0385327
X0137583Y0381587
X0127013Y0383436
X0122931Y0390163
X0122353Y0394298
X0122464Y0398092
X0131277Y0399361
X0131337Y0395324
X0131218Y0391764
X0135003Y0398317
X0152983Y0398987
X0160803Y0387992
X0164741
X0172615
X0176951Y0384897
X0177213Y0379307
X0182313
X0182457Y0387992
X0188363
X0192299
X0192522Y0378744
X0201573Y0377687
X0200403Y0372867
X0209863Y0373127
X0207583Y0378186
X0209303Y0381607
X0209229Y038709
X0201678Y0386298
X0216143Y0370956
X0208315Y0362537
X0167063Y0345717
X0163883Y0338087
X0137448Y0326866
X0133883Y0324486
X0128193Y0325197
X0123743Y0324827
X0123783Y0318787
X0128233Y0320367
X0133583Y0318186
X0133093Y0312047
X0133483Y0308237
X0128593Y0304926
X0125913Y0314857
X0143002Y0313557
X0142933Y0307456
X0148983Y0308314
X0149916Y0263363
X0106Y0271
X0102446Y0267467
X0119283Y0333887
X0119583Y0342586
X0116142Y0351575
X0120056Y0356515
X0122834Y035433
X0137008Y0354331
X0160833Y0379567
X0105274Y0377988
X0099786Y0369337
X0106592Y0391057
X0105324Y0406378
X0094807Y0390854
X0089689
X0087324Y0377378
X0092442
X0092126Y0352843
X0088976Y0350394
X0070961Y0358032
X0063961
Y0365831
X0070961
Y0373632
X0063961
Y0381432
X0070961
Y0389231
X0063961
Y0397031
X0070961
X0022961Y0399031
X0013961
X0010835Y0391881
X0017961Y0392032
X0018602Y0362054
X0022961
X0022886Y0355054
X0018577
X0014269
X0009961
X0009886Y0362054
X0014244
X0045247Y0319266
X0058814Y0317076
X0056306Y0313796
X0063064Y0310747
X0063214Y0319766
X0073344Y0319586
X0073294Y0310717
X0076494Y0286216
Y0275996
X0060704
Y0286216
X0045244Y0295717
X0040868Y0263734
Y0258194
X0028184Y0261809
X0015448Y0263734
X0015238Y0258334
X0006199Y0272206
X0060555Y0334254
X0065806Y0334409
X0065558Y0415684
X0071961Y0416032
X0087234Y0417628
X0158283Y0414586
X0164183
X0172183
X0182183Y0414887
X0188283Y0414786
X0197683Y0415087
X0202712Y0415242
X0358393Y0414326
X0364293
X0372293
X0382293Y0414627
X0388393Y0414527
X0397793Y0414826
X0402822Y0414982
X0558083Y0414672
X0563983
X0571983
X0581983Y0414971
X0588083Y0414872
X0597483Y0415171
X0602512Y0415327
X0758383Y0414686
X0764283
X0772283
X0782283Y0414987
X0788383Y0414887
X0797783Y0415187
X0802812Y0415342
T02
X0017217Y0042387
Y0052387
Y0062387
Y0072387
Y0082387
X0027217
Y0072387
Y0062387
Y0052387
Y0042387
T03
X0025309Y0273338
X0021805Y0291291
Y0299322
Y0307354
Y0315385
X0028813Y0311369
Y0319401
Y0303338
Y0295306
X0047829Y0287314
Y0278299
Y0323377
Y0332393
X0025309Y0337354
T04
X0030569Y0176457
X0018758Y0194961
T05
X0907874Y0012205
X0012205
Y0422835
X0907874
T06
X004238Y0194961
T07
X0011805Y0280346
Y0330346
M30
