G04*
G04 #@! TF.GenerationSoftware,Altium Limited,Altium Designer,18.1.7 (191)*
G04*
G04 Layer_Physical_Order=2*
G04 Layer_Color=32768*
%FSLAX25Y25*%
%MOIN*%
G70*
G01*
G75*
%ADD13C,0.00394*%
%ADD14C,0.00500*%
%ADD18C,0.00197*%
%ADD19R,1.90000X2.15000*%
%ADD20R,1.85000X2.15000*%
%ADD115C,0.04000*%
%ADD116C,0.05143*%
G04:AMPARAMS|DCode=117|XSize=75.433mil|YSize=75.433mil|CornerRadius=0mil|HoleSize=0mil|Usage=FLASHONLY|Rotation=0.000|XOffset=0mil|YOffset=0mil|HoleType=Round|Shape=Relief|Width=10mil|Gap=10mil|Entries=4|*
%AMTHD117*
7,0,0,0.07543,0.05543,0.01000,45*
%
%ADD117THD117*%
%ADD118C,0.14198*%
G04:AMPARAMS|DCode=119|XSize=77.008mil|YSize=77.008mil|CornerRadius=0mil|HoleSize=0mil|Usage=FLASHONLY|Rotation=0.000|XOffset=0mil|YOffset=0mil|HoleType=Round|Shape=Relief|Width=10mil|Gap=10mil|Entries=4|*
%AMTHD119*
7,0,0,0.07701,0.05701,0.01000,45*
%
%ADD119THD119*%
%ADD120C,0.14592*%
%ADD121C,0.05301*%
%ADD122C,0.14041*%
G04:AMPARAMS|DCode=123|XSize=164.409mil|YSize=164.409mil|CornerRadius=0mil|HoleSize=0mil|Usage=FLASHONLY|Rotation=0.000|XOffset=0mil|YOffset=0mil|HoleType=Round|Shape=Relief|Width=10mil|Gap=10mil|Entries=4|*
%AMTHD123*
7,0,0,0.16441,0.14441,0.01000,45*
%
%ADD123THD123*%
%ADD124C,0.15931*%
%ADD125C,0.02800*%
G04:AMPARAMS|DCode=126|XSize=52mil|YSize=52mil|CornerRadius=0mil|HoleSize=0mil|Usage=FLASHONLY|Rotation=0.000|XOffset=0mil|YOffset=0mil|HoleType=Round|Shape=Relief|Width=10mil|Gap=10mil|Entries=4|*
%AMTHD126*
7,0,0,0.05200,0.03200,0.01000,45*
%
%ADD126THD126*%
D13*
X886858Y17055D02*
Y34378D01*
X861268Y17055D02*
X886858D01*
X861268D02*
Y34378D01*
X886858D01*
X884299D02*
X886858Y31819D01*
X686858Y17055D02*
Y34378D01*
X661268Y17055D02*
X686858D01*
X661268D02*
Y34378D01*
X686858D01*
X684299D02*
X686858Y31819D01*
X486858Y17055D02*
Y34378D01*
X461268Y17055D02*
X486858D01*
X461268D02*
Y34378D01*
X486858D01*
X484299D02*
X486858Y31819D01*
X286858Y17055D02*
Y34378D01*
X261268Y17055D02*
X286858D01*
X261268D02*
Y34378D01*
X286858D01*
X284299D02*
X286858Y31819D01*
X840858Y17055D02*
Y34378D01*
X815268Y17055D02*
X840858D01*
X815268D02*
Y34378D01*
X840858D01*
X838299D02*
X840858Y31819D01*
X640858Y17055D02*
Y34378D01*
X615268Y17055D02*
X640858D01*
X615268D02*
Y34378D01*
X640858D01*
X638299D02*
X640858Y31819D01*
X440858Y17055D02*
Y34378D01*
X415268Y17055D02*
X440858D01*
X415268D02*
Y34378D01*
X440858D01*
X438299D02*
X440858Y31819D01*
X240858Y17055D02*
Y34378D01*
X215268Y17055D02*
X240858D01*
X215268D02*
Y34378D01*
X240858D01*
X238299D02*
X240858Y31819D01*
X713402Y15921D02*
X730725D01*
X713402D02*
Y41512D01*
X730725D01*
Y15921D02*
Y41512D01*
X728165Y15921D02*
X730725Y18480D01*
X513402Y15921D02*
X530725D01*
X513402D02*
Y41512D01*
X530725D01*
Y15921D02*
Y41512D01*
X528165Y15921D02*
X530725Y18480D01*
X313402Y15921D02*
X330725D01*
X313402D02*
Y41512D01*
X330725D01*
Y15921D02*
Y41512D01*
X328166Y15921D02*
X330725Y18480D01*
X113402Y15921D02*
X130725D01*
X113402D02*
Y41512D01*
X130725D01*
Y15921D02*
Y41512D01*
X128165Y15921D02*
X130725Y18480D01*
X713402Y60921D02*
X730725D01*
X713402D02*
Y86512D01*
X730725D01*
Y60921D02*
Y86512D01*
X728165Y60921D02*
X730725Y63480D01*
X513402Y60921D02*
X530725D01*
X513402D02*
Y86512D01*
X530725D01*
Y60921D02*
Y86512D01*
X528165Y60921D02*
X530725Y63480D01*
X313402Y60921D02*
X330725D01*
X313402D02*
Y86512D01*
X330725D01*
Y60921D02*
Y86512D01*
X328166Y60921D02*
X330725Y63480D01*
X113402Y60921D02*
X130725D01*
X113402D02*
Y86512D01*
X130725D01*
Y60921D02*
Y86512D01*
X128165Y60921D02*
X130725Y63480D01*
X884858Y115055D02*
Y132378D01*
X859268Y115055D02*
X884858D01*
X859268D02*
Y132378D01*
X884858D01*
X882299D02*
X884858Y129819D01*
X684858Y115055D02*
Y132378D01*
X659268Y115055D02*
X684858D01*
X659268D02*
Y132378D01*
X684858D01*
X682299D02*
X684858Y129819D01*
X484858Y115055D02*
Y132378D01*
X459268Y115055D02*
X484858D01*
X459268D02*
Y132378D01*
X484858D01*
X482299D02*
X484858Y129819D01*
X284858Y115055D02*
Y132378D01*
X259268Y115055D02*
X284858D01*
X259268D02*
Y132378D01*
X284858D01*
X282299D02*
X284858Y129819D01*
X713402Y105921D02*
X730725D01*
X713402D02*
Y131512D01*
X730725D01*
Y105921D02*
Y131512D01*
X728165Y105921D02*
X730725Y108480D01*
X513402Y105921D02*
X530725D01*
X513402D02*
Y131512D01*
X530725D01*
Y105921D02*
Y131512D01*
X528165Y105921D02*
X530725Y108480D01*
X313402Y105921D02*
X330725D01*
X313402D02*
Y131512D01*
X330725D01*
Y105921D02*
Y131512D01*
X328166Y105921D02*
X330725Y108480D01*
X113402Y105921D02*
X130725D01*
X113402D02*
Y131512D01*
X130725D01*
Y105921D02*
Y131512D01*
X128165Y105921D02*
X130725Y108480D01*
X713402Y151921D02*
X730725D01*
X713402D02*
Y177512D01*
X730725D01*
Y151921D02*
Y177512D01*
X728165Y151921D02*
X730725Y154480D01*
X513402Y151921D02*
X530725D01*
X513402D02*
Y177512D01*
X530725D01*
Y151921D02*
Y177512D01*
X528165Y151921D02*
X530725Y154480D01*
X313402Y151921D02*
X330725D01*
X313402D02*
Y177512D01*
X330725D01*
Y151921D02*
Y177512D01*
X328166Y151921D02*
X330725Y154480D01*
X113402Y151921D02*
X130725D01*
X113402D02*
Y177512D01*
X130725D01*
Y151921D02*
Y177512D01*
X128165Y151921D02*
X130725Y154480D01*
X884858Y198055D02*
Y215378D01*
X859268Y198055D02*
X884858D01*
X859268D02*
Y215378D01*
X884858D01*
X882299D02*
X884858Y212819D01*
X684858Y198055D02*
Y215378D01*
X659268Y198055D02*
X684858D01*
X659268D02*
Y215378D01*
X684858D01*
X682299D02*
X684858Y212819D01*
X484858Y198055D02*
Y215378D01*
X459268Y198055D02*
X484858D01*
X459268D02*
Y215378D01*
X484858D01*
X482299D02*
X484858Y212819D01*
X284858Y198055D02*
Y215378D01*
X259268Y198055D02*
X284858D01*
X259268D02*
Y215378D01*
X284858D01*
X282299D02*
X284858Y212819D01*
X781918Y198389D02*
Y215712D01*
X756327Y198389D02*
X781918D01*
X756327D02*
Y215712D01*
X781918D01*
X779359D02*
X781918Y213153D01*
X581918Y198389D02*
Y215712D01*
X556327Y198389D02*
X581918D01*
X556327D02*
Y215712D01*
X581918D01*
X579359D02*
X581918Y213153D01*
X381918Y198389D02*
Y215712D01*
X356328Y198389D02*
X381918D01*
X356328D02*
Y215712D01*
X381918D01*
X379359D02*
X381918Y213153D01*
X181918Y198389D02*
Y215712D01*
X156327Y198389D02*
X181918D01*
X156327D02*
Y215712D01*
X181918D01*
X179359D02*
X181918Y213153D01*
X740864Y197087D02*
Y214409D01*
X715273Y197087D02*
X740864D01*
X715273D02*
Y214409D01*
X740864D01*
X738305D02*
X740864Y211850D01*
X540864Y197087D02*
Y214409D01*
X515273Y197087D02*
X540864D01*
X515273D02*
Y214409D01*
X540864D01*
X538305D02*
X540864Y211850D01*
X340864Y197087D02*
Y214409D01*
X315273Y197087D02*
X340864D01*
X315273D02*
Y214409D01*
X340864D01*
X338305D02*
X340864Y211850D01*
X140864Y197087D02*
Y214409D01*
X115273Y197087D02*
X140864D01*
X115273D02*
Y214409D01*
X140864D01*
X138305D02*
X140864Y211850D01*
D14*
X35167Y42471D02*
X37167D01*
X36167Y41471D02*
Y43471D01*
X35177Y77003D02*
X37177D01*
X36177Y76003D02*
Y78003D01*
X43137Y42227D02*
X45137D01*
X44137Y41227D02*
Y43227D01*
X43037Y77217D02*
X45037D01*
X44037Y76217D02*
Y78217D01*
X16032Y123803D02*
Y125803D01*
X15032Y124803D02*
X17032D01*
X16002Y118213D02*
Y120213D01*
X15002Y119213D02*
X17002D01*
X72484Y314866D02*
X74484D01*
X73484Y313866D02*
Y315866D01*
X62244Y314866D02*
X64244D01*
X63244Y313866D02*
Y315866D01*
X38282Y107039D02*
Y109039D01*
X37282Y108039D02*
X39282D01*
X15002Y108165D02*
X17002D01*
X16002Y107165D02*
Y109165D01*
X71070Y295647D02*
X73070D01*
X72070Y294647D02*
Y296646D01*
X52468Y149706D02*
Y151707D01*
X51468Y150707D02*
X53468D01*
X35016Y252918D02*
X37016D01*
X36016Y251918D02*
Y253918D01*
X62474Y336706D02*
X64474D01*
X63474Y335706D02*
Y337706D01*
X60364Y295827D02*
X62364D01*
X61364Y294827D02*
Y296827D01*
X54234Y250657D02*
X56234D01*
X55234Y249657D02*
Y251657D01*
X46424Y227826D02*
X48424D01*
X47424Y226827D02*
Y228826D01*
X35278Y263834D02*
X37278D01*
X36278Y262834D02*
Y264834D01*
X28322Y105783D02*
X30322D01*
X29322Y104783D02*
Y106783D01*
X456227Y16716D02*
X458227D01*
X457227Y15717D02*
Y17717D01*
X456227Y49716D02*
X458227D01*
X457227Y48717D02*
Y50717D01*
X456063Y68717D02*
X458063D01*
X457063Y67716D02*
Y69717D01*
X490063Y15717D02*
X492063D01*
X491063Y14717D02*
Y16716D01*
X490063Y49716D02*
X492063D01*
X491063Y48717D02*
Y50717D01*
X492508Y80717D02*
X494508D01*
X493507Y79716D02*
Y81717D01*
X476063Y24716D02*
Y26717D01*
X475063Y25717D02*
X477063D01*
X476063Y39717D02*
Y41717D01*
X475063Y40716D02*
X477063D01*
X476063Y54716D02*
Y56717D01*
X475063Y55717D02*
X477063D01*
X876063Y54716D02*
Y56717D01*
X875063Y55717D02*
X877063D01*
X876063Y39717D02*
Y41717D01*
X875063Y40716D02*
X877063D01*
X876063Y24716D02*
Y26717D01*
X875063Y25717D02*
X877063D01*
X676063Y54716D02*
Y56717D01*
X675063Y55717D02*
X677063D01*
X676063Y39717D02*
Y41717D01*
X675063Y40716D02*
X677063D01*
X676063Y24716D02*
Y26717D01*
X675063Y25717D02*
X677063D01*
X876063Y69717D02*
Y71716D01*
X875063Y70717D02*
X877063D01*
X876063Y84716D02*
Y86717D01*
X875063Y85716D02*
X877063D01*
X836063Y24716D02*
Y26717D01*
X835063Y25717D02*
X837063D01*
X836063Y39717D02*
Y41717D01*
X835063Y40716D02*
X837063D01*
X836063Y54716D02*
Y56717D01*
X835063Y55717D02*
X837063D01*
X836063Y69717D02*
Y71716D01*
X835063Y70717D02*
X837063D01*
X836063Y84716D02*
Y86717D01*
X835063Y85716D02*
X837063D01*
X796063Y24716D02*
Y26717D01*
X795063Y25717D02*
X797063D01*
X676063Y69717D02*
Y71716D01*
X675063Y70717D02*
X677063D01*
X676063Y84716D02*
Y86717D01*
X675063Y85716D02*
X677063D01*
X636063Y24716D02*
Y26717D01*
X635063Y25717D02*
X637063D01*
X636063Y39717D02*
Y41717D01*
X635063Y40716D02*
X637063D01*
X636063Y54716D02*
Y56717D01*
X635063Y55717D02*
X637063D01*
X636063Y69717D02*
Y71716D01*
X635063Y70717D02*
X637063D01*
X636063Y84716D02*
Y86717D01*
X635063Y85716D02*
X637063D01*
X596063Y24716D02*
Y26717D01*
X595063Y25717D02*
X597063D01*
X476063Y69717D02*
Y71716D01*
X475063Y70717D02*
X477063D01*
X476063Y84716D02*
Y86717D01*
X475063Y85716D02*
X477063D01*
X436063Y24716D02*
Y26717D01*
X435063Y25717D02*
X437063D01*
X436063Y39717D02*
Y41717D01*
X435063Y40716D02*
X437063D01*
X436063Y54716D02*
Y56717D01*
X435063Y55717D02*
X437063D01*
X436063Y69717D02*
Y71716D01*
X435063Y70717D02*
X437063D01*
X436063Y84716D02*
Y86717D01*
X435063Y85716D02*
X437063D01*
X396063Y24716D02*
Y26717D01*
X395063Y25717D02*
X397063D01*
X756063Y24716D02*
Y26717D01*
X755063Y25717D02*
X757063D01*
X716063Y24716D02*
Y26717D01*
X715063Y25717D02*
X717063D01*
X796063Y39717D02*
Y41717D01*
X795063Y40716D02*
X797063D01*
X756063Y39717D02*
Y41717D01*
X755063Y40716D02*
X757063D01*
X716063Y39717D02*
Y41717D01*
X715063Y40716D02*
X717063D01*
X796063Y54716D02*
Y56717D01*
X795063Y55717D02*
X797063D01*
X756063Y54716D02*
Y56717D01*
X755063Y55717D02*
X757063D01*
X716063Y54716D02*
Y56717D01*
X715063Y55717D02*
X717063D01*
X556063Y24716D02*
Y26717D01*
X555063Y25717D02*
X557063D01*
X516063Y24716D02*
Y26717D01*
X515063Y25717D02*
X517063D01*
X596063Y39717D02*
Y41717D01*
X595063Y40716D02*
X597063D01*
X556063Y39717D02*
Y41717D01*
X555063Y40716D02*
X557063D01*
X516063Y39717D02*
Y41717D01*
X515063Y40716D02*
X517063D01*
X596063Y54716D02*
Y56717D01*
X595063Y55717D02*
X597063D01*
X556063Y54716D02*
Y56717D01*
X555063Y55717D02*
X557063D01*
X516063Y54716D02*
Y56717D01*
X515063Y55717D02*
X517063D01*
X356063Y24716D02*
Y26717D01*
X355063Y25717D02*
X357063D01*
X316063Y24716D02*
Y26717D01*
X315063Y25717D02*
X317063D01*
X396063Y39717D02*
Y41717D01*
X395063Y40716D02*
X397063D01*
X356063Y39717D02*
Y41717D01*
X355063Y40716D02*
X357063D01*
X316063Y39717D02*
Y41717D01*
X315063Y40716D02*
X317063D01*
X396063Y54716D02*
Y56717D01*
X395063Y55717D02*
X397063D01*
X356063Y54716D02*
Y56717D01*
X355063Y55717D02*
X357063D01*
X316063Y54716D02*
Y56717D01*
X315063Y55717D02*
X317063D01*
X796063Y69717D02*
Y71716D01*
X795063Y70717D02*
X797063D01*
X756063Y69717D02*
Y71716D01*
X755063Y70717D02*
X757063D01*
X716063Y69717D02*
Y71716D01*
X715063Y70717D02*
X717063D01*
X796063Y84716D02*
Y86717D01*
X795063Y85716D02*
X797063D01*
X756063Y84716D02*
Y86717D01*
X755063Y85716D02*
X757063D01*
X716063Y84716D02*
Y86717D01*
X715063Y85716D02*
X717063D01*
X756063Y99717D02*
Y101716D01*
X755063Y100716D02*
X757063D01*
X716063Y99717D02*
Y101716D01*
X715063Y100716D02*
X717063D01*
X596063Y69717D02*
Y71716D01*
X595063Y70717D02*
X597063D01*
X556063Y69717D02*
Y71716D01*
X555063Y70717D02*
X557063D01*
X516063Y69717D02*
Y71716D01*
X515063Y70717D02*
X517063D01*
X596063Y84716D02*
Y86717D01*
X595063Y85716D02*
X597063D01*
X556063Y84716D02*
Y86717D01*
X555063Y85716D02*
X557063D01*
X516063Y84716D02*
Y86717D01*
X515063Y85716D02*
X517063D01*
X556063Y99717D02*
Y101716D01*
X555063Y100716D02*
X557063D01*
X516063Y99717D02*
Y101716D01*
X515063Y100716D02*
X517063D01*
X396063Y69717D02*
Y71716D01*
X395063Y70717D02*
X397063D01*
X356063Y69717D02*
Y71716D01*
X355063Y70717D02*
X357063D01*
X316063Y69717D02*
Y71716D01*
X315063Y70717D02*
X317063D01*
X396063Y84716D02*
Y86717D01*
X395063Y85716D02*
X397063D01*
X356063Y84716D02*
Y86717D01*
X355063Y85716D02*
X357063D01*
X316063Y84716D02*
Y86717D01*
X315063Y85716D02*
X317063D01*
X356063Y99717D02*
Y101716D01*
X355063Y100716D02*
X357063D01*
X316063Y99717D02*
Y101716D01*
X315063Y100716D02*
X317063D01*
X876063Y99717D02*
Y101716D01*
X875063Y100716D02*
X877063D01*
X876063Y114716D02*
Y116717D01*
X875063Y115717D02*
X877063D01*
X876063Y129717D02*
Y131717D01*
X875063Y130717D02*
X877063D01*
X876063Y144717D02*
Y146716D01*
X875063Y145717D02*
X877063D01*
X836063Y99717D02*
Y101716D01*
X835063Y100716D02*
X837063D01*
X836063Y114716D02*
Y116717D01*
X835063Y115717D02*
X837063D01*
X836063Y144717D02*
Y146716D01*
X835063Y145717D02*
X837063D01*
X836063Y129717D02*
Y131717D01*
X835063Y130717D02*
X837063D01*
X676063Y99717D02*
Y101716D01*
X675063Y100716D02*
X677063D01*
X676063Y114716D02*
Y116717D01*
X675063Y115717D02*
X677063D01*
X676063Y129717D02*
Y131717D01*
X675063Y130717D02*
X677063D01*
X676063Y144717D02*
Y146716D01*
X675063Y145717D02*
X677063D01*
X636063Y99717D02*
Y101716D01*
X635063Y100716D02*
X637063D01*
X636063Y114716D02*
Y116717D01*
X635063Y115717D02*
X637063D01*
X636063Y144717D02*
Y146716D01*
X635063Y145717D02*
X637063D01*
X636063Y129717D02*
Y131717D01*
X635063Y130717D02*
X637063D01*
X476063Y99717D02*
Y101716D01*
X475063Y100716D02*
X477063D01*
X476063Y114716D02*
Y116717D01*
X475063Y115717D02*
X477063D01*
X476063Y129717D02*
Y131717D01*
X475063Y130717D02*
X477063D01*
X476063Y144717D02*
Y146716D01*
X475063Y145717D02*
X477063D01*
X436063Y99717D02*
Y101716D01*
X435063Y100716D02*
X437063D01*
X436063Y114716D02*
Y116717D01*
X435063Y115717D02*
X437063D01*
X436063Y144717D02*
Y146716D01*
X435063Y145717D02*
X437063D01*
X436063Y129717D02*
Y131717D01*
X435063Y130717D02*
X437063D01*
X796063Y99717D02*
Y101716D01*
X795063Y100716D02*
X797063D01*
X796063Y114716D02*
Y116717D01*
X795063Y115717D02*
X797063D01*
X756063Y114716D02*
Y116717D01*
X755063Y115717D02*
X757063D01*
X716063Y114716D02*
Y116717D01*
X715063Y115717D02*
X717063D01*
X796063Y129717D02*
Y131717D01*
X795063Y130717D02*
X797063D01*
X756063Y129717D02*
Y131717D01*
X755063Y130717D02*
X757063D01*
X716063Y129717D02*
Y131717D01*
X715063Y130717D02*
X717063D01*
X716063Y144717D02*
Y146716D01*
X715063Y145717D02*
X717063D01*
X596063Y99717D02*
Y101716D01*
X595063Y100716D02*
X597063D01*
X596063Y114716D02*
Y116717D01*
X595063Y115717D02*
X597063D01*
X556063Y114716D02*
Y116717D01*
X555063Y115717D02*
X557063D01*
X516063Y114716D02*
Y116717D01*
X515063Y115717D02*
X517063D01*
X596063Y129717D02*
Y131717D01*
X595063Y130717D02*
X597063D01*
X556063Y129717D02*
Y131717D01*
X555063Y130717D02*
X557063D01*
X516063Y129717D02*
Y131717D01*
X515063Y130717D02*
X517063D01*
X516063Y144717D02*
Y146716D01*
X515063Y145717D02*
X517063D01*
X396063Y99717D02*
Y101716D01*
X395063Y100716D02*
X397063D01*
X396063Y114716D02*
Y116717D01*
X395063Y115717D02*
X397063D01*
X356063Y114716D02*
Y116717D01*
X355063Y115717D02*
X357063D01*
X316063Y114716D02*
Y116717D01*
X315063Y115717D02*
X317063D01*
X396063Y129717D02*
Y131717D01*
X395063Y130717D02*
X397063D01*
X356063Y129717D02*
Y131717D01*
X355063Y130717D02*
X357063D01*
X316063Y129717D02*
Y131717D01*
X315063Y130717D02*
X317063D01*
X316063Y144717D02*
Y146716D01*
X315063Y145717D02*
X317063D01*
X756063Y144717D02*
Y146716D01*
X755063Y145717D02*
X757063D01*
X796063Y144717D02*
Y146716D01*
X795063Y145717D02*
X797063D01*
X796063Y159716D02*
Y161716D01*
X795063Y160716D02*
X797063D01*
X756063Y159716D02*
Y161716D01*
X755063Y160716D02*
X757063D01*
X716063Y159716D02*
Y161716D01*
X715063Y160716D02*
X717063D01*
X796063Y174716D02*
Y176716D01*
X795063Y175716D02*
X797063D01*
X756063Y174716D02*
Y176716D01*
X755063Y175716D02*
X757063D01*
X716063Y174716D02*
Y176716D01*
X715063Y175716D02*
X717063D01*
X556063Y144717D02*
Y146716D01*
X555063Y145717D02*
X557063D01*
X596063Y144717D02*
Y146716D01*
X595063Y145717D02*
X597063D01*
X596063Y159716D02*
Y161716D01*
X595063Y160716D02*
X597063D01*
X556063Y159716D02*
Y161716D01*
X555063Y160716D02*
X557063D01*
X516063Y159716D02*
Y161716D01*
X515063Y160716D02*
X517063D01*
X596063Y174716D02*
Y176716D01*
X595063Y175716D02*
X597063D01*
X556063Y174716D02*
Y176716D01*
X555063Y175716D02*
X557063D01*
X516063Y174716D02*
Y176716D01*
X515063Y175716D02*
X517063D01*
X356063Y144717D02*
Y146716D01*
X355063Y145717D02*
X357063D01*
X396063Y144717D02*
Y146716D01*
X395063Y145717D02*
X397063D01*
X396063Y159716D02*
Y161716D01*
X395063Y160716D02*
X397063D01*
X356063Y159716D02*
Y161716D01*
X355063Y160716D02*
X357063D01*
X316063Y159716D02*
Y161716D01*
X315063Y160716D02*
X317063D01*
X396063Y174716D02*
Y176716D01*
X395063Y175716D02*
X397063D01*
X356063Y174716D02*
Y176716D01*
X355063Y175716D02*
X357063D01*
X316063Y174716D02*
Y176716D01*
X315063Y175716D02*
X317063D01*
X876063Y174716D02*
Y176716D01*
X875063Y175716D02*
X877063D01*
X876063Y159716D02*
Y161716D01*
X875063Y160716D02*
X877063D01*
X876063Y189716D02*
Y191717D01*
X875063Y190717D02*
X877063D01*
X876063Y204716D02*
Y206716D01*
X875063Y205716D02*
X877063D01*
X876063Y219717D02*
Y221716D01*
X875063Y220717D02*
X877063D01*
X876063Y234717D02*
Y236717D01*
X875063Y235717D02*
X877063D01*
X836063Y159716D02*
Y161716D01*
X835063Y160716D02*
X837063D01*
X836063Y174716D02*
Y176716D01*
X835063Y175716D02*
X837063D01*
X676063Y174716D02*
Y176716D01*
X675063Y175716D02*
X677063D01*
X676063Y159716D02*
Y161716D01*
X675063Y160716D02*
X677063D01*
X676063Y189716D02*
Y191717D01*
X675063Y190717D02*
X677063D01*
X676063Y204716D02*
Y206716D01*
X675063Y205716D02*
X677063D01*
X676063Y219717D02*
Y221716D01*
X675063Y220717D02*
X677063D01*
X676063Y234717D02*
Y236717D01*
X675063Y235717D02*
X677063D01*
X636063Y159716D02*
Y161716D01*
X635063Y160716D02*
X637063D01*
X636063Y174716D02*
Y176716D01*
X635063Y175716D02*
X637063D01*
X476063Y174716D02*
Y176716D01*
X475063Y175716D02*
X477063D01*
X476063Y159716D02*
Y161716D01*
X475063Y160716D02*
X477063D01*
X476063Y189716D02*
Y191717D01*
X475063Y190717D02*
X477063D01*
X476063Y204716D02*
Y206716D01*
X475063Y205716D02*
X477063D01*
X476063Y219717D02*
Y221716D01*
X475063Y220717D02*
X477063D01*
X476063Y234717D02*
Y236717D01*
X475063Y235717D02*
X477063D01*
X436063Y159716D02*
Y161716D01*
X435063Y160716D02*
X437063D01*
X436063Y174716D02*
Y176716D01*
X435063Y175716D02*
X437063D01*
X786063Y249716D02*
X788063D01*
X787063Y248716D02*
Y250716D01*
X751287Y198050D02*
X753287D01*
X752287Y197050D02*
Y199050D01*
X749123Y262050D02*
X751123D01*
X750123Y261050D02*
Y263050D01*
X785123Y197050D02*
X787123D01*
X786123Y196050D02*
Y198050D01*
X751287Y231125D02*
X753287D01*
X752287Y230125D02*
Y232125D01*
X785123Y231050D02*
X787123D01*
X786123Y230050D02*
Y232050D01*
X585123Y197050D02*
X587123D01*
X586123Y196050D02*
Y198050D01*
X585123Y231050D02*
X587123D01*
X586123Y230050D02*
Y232050D01*
X586063Y249716D02*
X588063D01*
X587063Y248716D02*
Y250716D01*
X551287Y198050D02*
X553287D01*
X552287Y197050D02*
Y199050D01*
X551287Y231125D02*
X553287D01*
X552287Y230125D02*
Y232125D01*
X549123Y262050D02*
X551123D01*
X550123Y261050D02*
Y263050D01*
X796063Y189716D02*
Y191717D01*
X795063Y190717D02*
X797063D01*
X836063Y189716D02*
Y191717D01*
X835063Y190717D02*
X837063D01*
X836063Y204716D02*
Y206716D01*
X835063Y205716D02*
X837063D01*
X796063Y204716D02*
Y206716D01*
X795063Y205716D02*
X797063D01*
X836063Y219717D02*
Y221716D01*
X835063Y220717D02*
X837063D01*
X796063Y219717D02*
Y221716D01*
X795063Y220717D02*
X797063D01*
X836063Y234717D02*
Y236717D01*
X835063Y235717D02*
X837063D01*
X796063Y234717D02*
Y236717D01*
X795063Y235717D02*
X797063D01*
X596063Y189716D02*
Y191717D01*
X595063Y190717D02*
X597063D01*
X636063Y189716D02*
Y191717D01*
X635063Y190717D02*
X637063D01*
X636063Y204716D02*
Y206716D01*
X635063Y205716D02*
X637063D01*
X596063Y204716D02*
Y206716D01*
X595063Y205716D02*
X597063D01*
X636063Y219717D02*
Y221716D01*
X635063Y220717D02*
X637063D01*
X596063Y219717D02*
Y221716D01*
X595063Y220717D02*
X597063D01*
X636063Y234717D02*
Y236717D01*
X635063Y235717D02*
X637063D01*
X596063Y234717D02*
Y236717D01*
X595063Y235717D02*
X597063D01*
X396063Y189716D02*
Y191717D01*
X395063Y190717D02*
X397063D01*
X436063Y189716D02*
Y191717D01*
X435063Y190717D02*
X437063D01*
X436063Y204716D02*
Y206716D01*
X435063Y205716D02*
X437063D01*
X396063Y204716D02*
Y206716D01*
X395063Y205716D02*
X397063D01*
X436063Y219717D02*
Y221716D01*
X435063Y220717D02*
X437063D01*
X396063Y219717D02*
Y221716D01*
X395063Y220717D02*
X397063D01*
X436063Y234717D02*
Y236717D01*
X435063Y235717D02*
X437063D01*
X396063Y234717D02*
Y236717D01*
X395063Y235717D02*
X397063D01*
X510227Y197716D02*
X512227D01*
X511227Y196716D02*
Y198716D01*
X510063Y224716D02*
X512063D01*
X511063Y223716D02*
Y225716D01*
X510063Y237717D02*
X512063D01*
X511063Y236717D02*
Y238717D01*
X510063Y248716D02*
X512063D01*
X511063Y247716D02*
Y249716D01*
X543456Y197740D02*
X545456D01*
X544456Y196740D02*
Y198740D01*
X544063Y230716D02*
X546063D01*
X545063Y229716D02*
Y231716D01*
X316063Y189716D02*
Y191717D01*
X315063Y190717D02*
X317063D01*
X316063Y204716D02*
Y206716D01*
X315063Y205716D02*
X317063D01*
X316063Y219717D02*
Y221717D01*
X315063Y220717D02*
X317063D01*
X316063Y234717D02*
Y236717D01*
X315063Y235717D02*
X317063D01*
X356063Y189716D02*
Y191717D01*
X355063Y190717D02*
X357063D01*
X356063Y204716D02*
Y206716D01*
X355063Y205716D02*
X357063D01*
X356063Y219717D02*
Y221717D01*
X355063Y220717D02*
X357063D01*
X356063Y234717D02*
Y236717D01*
X355063Y235717D02*
X357063D01*
X344063Y230716D02*
X346063D01*
X345063Y229716D02*
Y231716D01*
X343456Y197740D02*
X345456D01*
X344456Y196740D02*
Y198740D01*
X310227Y197716D02*
X312227D01*
X311227Y196716D02*
Y198716D01*
X310063Y237717D02*
X312063D01*
X311063Y236717D02*
Y238717D01*
X310063Y248716D02*
X312063D01*
X311063Y247716D02*
Y249716D01*
X310063Y224716D02*
X312063D01*
X311063Y223716D02*
Y225716D01*
X756063Y189716D02*
Y191717D01*
X755063Y190717D02*
X757063D01*
X756063Y204716D02*
Y206716D01*
X755063Y205716D02*
X757063D01*
X756063Y219717D02*
Y221716D01*
X755063Y220717D02*
X757063D01*
X756063Y234717D02*
Y236717D01*
X755063Y235717D02*
X757063D01*
X716063Y189716D02*
Y191717D01*
X715063Y190717D02*
X717063D01*
X716063Y204716D02*
Y206716D01*
X715063Y205716D02*
X717063D01*
X716063Y219717D02*
Y221716D01*
X715063Y220717D02*
X717063D01*
X716063Y234717D02*
Y236717D01*
X715063Y235717D02*
X717063D01*
X556063Y189716D02*
Y191717D01*
X555063Y190717D02*
X557063D01*
X556063Y204716D02*
Y206716D01*
X555063Y205716D02*
X557063D01*
X556063Y219717D02*
Y221716D01*
X555063Y220717D02*
X557063D01*
X556063Y234717D02*
Y236717D01*
X555063Y235717D02*
X557063D01*
X516063Y189716D02*
Y191717D01*
X515063Y190717D02*
X517063D01*
X516063Y204716D02*
Y206716D01*
X515063Y205716D02*
X517063D01*
X516063Y219717D02*
Y221716D01*
X515063Y220717D02*
X517063D01*
X516063Y234717D02*
Y236717D01*
X515063Y235717D02*
X517063D01*
X276063Y204716D02*
Y206716D01*
X275063Y205716D02*
X277063D01*
X236063Y234717D02*
Y236717D01*
X235063Y235717D02*
X237063D01*
X196063Y144717D02*
Y146716D01*
X195063Y145717D02*
X197063D01*
X710227Y197716D02*
X712227D01*
X711227Y196716D02*
Y198716D01*
X744063Y230716D02*
X746063D01*
X745063Y229716D02*
Y231716D01*
X710063Y248716D02*
X712063D01*
X711063Y247716D02*
Y249716D01*
X710063Y224716D02*
X712063D01*
X711063Y223716D02*
Y225716D01*
X710063Y237717D02*
X712063D01*
X711063Y236717D02*
Y238717D01*
X743456Y197740D02*
X745456D01*
X744456Y196740D02*
Y198740D01*
X116063Y234717D02*
Y236717D01*
X115063Y235717D02*
X117063D01*
X115063Y220717D02*
X117063D01*
X116063Y219717D02*
Y221716D01*
X856227Y49716D02*
X858227D01*
X857227Y48717D02*
Y50717D01*
X892508Y80717D02*
X894508D01*
X893508Y79716D02*
Y81717D01*
X890063Y15717D02*
X892063D01*
X891063Y14717D02*
Y16716D01*
X890063Y49716D02*
X892063D01*
X891063Y48717D02*
Y50717D01*
X856063Y68717D02*
X858063D01*
X857063Y67716D02*
Y69717D01*
X856227Y16716D02*
X858227D01*
X857227Y15717D02*
Y17717D01*
X810227Y49716D02*
X812227D01*
X811227Y48717D02*
Y50717D01*
X844063Y66716D02*
X846063D01*
X845063Y65716D02*
Y67716D01*
X844063Y15717D02*
X846063D01*
X845063Y14717D02*
Y16716D01*
X844063Y49716D02*
X846063D01*
X845063Y48717D02*
Y50717D01*
X810063Y67716D02*
X812063D01*
X811063Y66716D02*
Y68717D01*
X810227Y16716D02*
X812227D01*
X811227Y15717D02*
Y17717D01*
X746063Y44553D02*
Y46553D01*
X745063Y45553D02*
X747063D01*
X764063Y10717D02*
Y12717D01*
X763063Y11716D02*
X765063D01*
X712063Y10717D02*
Y12717D01*
X711063Y11716D02*
X713063D01*
X746063Y10717D02*
Y12717D01*
X745063Y11716D02*
X747063D01*
X764173Y47819D02*
Y49819D01*
X763173Y48819D02*
X765173D01*
X713063Y44553D02*
Y46553D01*
X712063Y45553D02*
X714063D01*
X746063Y89553D02*
Y91553D01*
X745063Y90553D02*
X747063D01*
X765063Y55717D02*
Y57717D01*
X764063Y56717D02*
X766063D01*
X712063Y55717D02*
Y57717D01*
X711063Y56717D02*
X713063D01*
X746063Y55717D02*
Y57717D01*
X745063Y56717D02*
X747063D01*
X764173Y92701D02*
Y94701D01*
X763173Y93701D02*
X765173D01*
X713063Y89553D02*
Y91553D01*
X712063Y90553D02*
X714063D01*
X854227Y147716D02*
X856227D01*
X855227Y146716D02*
Y148716D01*
X888508Y165717D02*
X890508D01*
X889508Y164716D02*
Y166717D01*
X888063Y113716D02*
X890063D01*
X889063Y112716D02*
Y114716D01*
X888063Y147716D02*
X890063D01*
X889063Y146716D02*
Y148716D01*
X853906Y178605D02*
X855906D01*
X854906Y177605D02*
Y179605D01*
X854227Y114716D02*
X856227D01*
X855227Y113716D02*
Y115717D01*
X746063Y134553D02*
Y136553D01*
X745063Y135553D02*
X747063D01*
X764756Y100535D02*
Y102535D01*
X763756Y101535D02*
X765756D01*
X712063Y100716D02*
Y102717D01*
X711063Y101716D02*
X713063D01*
X746063Y100716D02*
Y102717D01*
X745063Y101716D02*
X747063D01*
X764684Y135048D02*
Y137048D01*
X763684Y136048D02*
X765684D01*
X713063Y134553D02*
Y136553D01*
X712063Y135553D02*
X714063D01*
X746138Y180553D02*
Y182553D01*
X745138Y181553D02*
X747138D01*
X764063Y146716D02*
Y148716D01*
X763063Y147716D02*
X765063D01*
X712063Y146716D02*
Y148716D01*
X711063Y147716D02*
X713063D01*
X746063Y146716D02*
Y148716D01*
X745063Y147716D02*
X747063D01*
X765063Y180717D02*
Y182717D01*
X764063Y181717D02*
X766063D01*
X713063Y180553D02*
Y182553D01*
X712063Y181553D02*
X714063D01*
X854227Y229716D02*
X856227D01*
X855227Y228716D02*
Y230716D01*
X888367Y247688D02*
X890367D01*
X889367Y246688D02*
Y248688D01*
X888063Y196716D02*
X890063D01*
X889063Y195717D02*
Y197716D01*
X888063Y230716D02*
X890063D01*
X889063Y229716D02*
Y231716D01*
X855089Y249716D02*
X857089D01*
X856089Y248716D02*
Y250716D01*
X854227Y197716D02*
X856227D01*
X855227Y196716D02*
Y198716D01*
X656227Y49716D02*
X658227D01*
X657227Y48717D02*
Y50717D01*
X692508Y80717D02*
X694508D01*
X693507Y79716D02*
Y81717D01*
X690063Y15717D02*
X692063D01*
X691063Y14717D02*
Y16716D01*
X690063Y49716D02*
X692063D01*
X691063Y48717D02*
Y50717D01*
X656063Y68717D02*
X658063D01*
X657063Y67716D02*
Y69717D01*
X656227Y16716D02*
X658227D01*
X657227Y15717D02*
Y17717D01*
X610227Y49716D02*
X612227D01*
X611227Y48717D02*
Y50717D01*
X644063Y66716D02*
X646063D01*
X645063Y65716D02*
Y67716D01*
X644063Y15717D02*
X646063D01*
X645063Y14717D02*
Y16716D01*
X644063Y49716D02*
X646063D01*
X645063Y48717D02*
Y50717D01*
X610063Y67716D02*
X612063D01*
X611063Y66716D02*
Y68717D01*
X610227Y16716D02*
X612227D01*
X611227Y15717D02*
Y17717D01*
X546063Y44553D02*
Y46553D01*
X545063Y45553D02*
X547063D01*
X564063Y10717D02*
Y12717D01*
X563063Y11716D02*
X565063D01*
X512063Y10717D02*
Y12717D01*
X511063Y11716D02*
X513063D01*
X546063Y10717D02*
Y12717D01*
X545063Y11716D02*
X547063D01*
X564173Y47819D02*
Y49819D01*
X563173Y48819D02*
X565173D01*
X513063Y44553D02*
Y46553D01*
X512063Y45553D02*
X514063D01*
X546063Y89553D02*
Y91553D01*
X545063Y90553D02*
X547063D01*
X565063Y55717D02*
Y57717D01*
X564063Y56717D02*
X566063D01*
X512063Y55717D02*
Y57717D01*
X511063Y56717D02*
X513063D01*
X546063Y55717D02*
Y57717D01*
X545063Y56717D02*
X547063D01*
X564173Y92701D02*
Y94701D01*
X563173Y93701D02*
X565173D01*
X513063Y89553D02*
Y91553D01*
X512063Y90553D02*
X514063D01*
X654227Y147716D02*
X656227D01*
X655227Y146716D02*
Y148716D01*
X688508Y165717D02*
X690508D01*
X689507Y164716D02*
Y166717D01*
X688063Y113716D02*
X690063D01*
X689063Y112716D02*
Y114716D01*
X688063Y147716D02*
X690063D01*
X689063Y146716D02*
Y148716D01*
X653906Y178605D02*
X655906D01*
X654906Y177605D02*
Y179605D01*
X654227Y114716D02*
X656227D01*
X655227Y113716D02*
Y115717D01*
X546063Y134553D02*
Y136553D01*
X545063Y135553D02*
X547063D01*
X564756Y100535D02*
Y102535D01*
X563756Y101535D02*
X565756D01*
X512063Y100716D02*
Y102717D01*
X511063Y101716D02*
X513063D01*
X546063Y100716D02*
Y102717D01*
X545063Y101716D02*
X547063D01*
X564684Y135048D02*
Y137048D01*
X563684Y136048D02*
X565684D01*
X513063Y134553D02*
Y136553D01*
X512063Y135553D02*
X514063D01*
X546138Y180553D02*
Y182553D01*
X545138Y181553D02*
X547138D01*
X564063Y146716D02*
Y148716D01*
X563063Y147716D02*
X565063D01*
X512063Y146716D02*
Y148716D01*
X511063Y147716D02*
X513063D01*
X546063Y146716D02*
Y148716D01*
X545063Y147716D02*
X547063D01*
X565063Y180717D02*
Y182717D01*
X564063Y181717D02*
X566063D01*
X513063Y180553D02*
Y182553D01*
X512063Y181553D02*
X514063D01*
X654227Y229716D02*
X656227D01*
X655227Y228716D02*
Y230716D01*
X688120Y249063D02*
X690120D01*
X689120Y248063D02*
Y250063D01*
X688063Y196716D02*
X690063D01*
X689063Y195717D02*
Y197716D01*
X688063Y230716D02*
X690063D01*
X689063Y229716D02*
Y231716D01*
X655089Y249716D02*
X657089D01*
X656089Y248716D02*
Y250716D01*
X654227Y197716D02*
X656227D01*
X655227Y196716D02*
Y198716D01*
X410227Y49716D02*
X412227D01*
X411227Y48717D02*
Y50717D01*
X444063Y66716D02*
X446063D01*
X445063Y65716D02*
Y67716D01*
X444063Y15717D02*
X446063D01*
X445063Y14717D02*
Y16716D01*
X444063Y49716D02*
X446063D01*
X445063Y48717D02*
Y50717D01*
X410063Y67716D02*
X412063D01*
X411063Y66716D02*
Y68717D01*
X410227Y16716D02*
X412227D01*
X411227Y15717D02*
Y17717D01*
X346063Y44553D02*
Y46553D01*
X345063Y45553D02*
X347063D01*
X364063Y10717D02*
Y12717D01*
X363063Y11716D02*
X365063D01*
X312063Y10717D02*
Y12717D01*
X311063Y11716D02*
X313063D01*
X346063Y10717D02*
Y12717D01*
X345063Y11716D02*
X347063D01*
X364173Y47819D02*
Y49819D01*
X363173Y48819D02*
X365173D01*
X313063Y44553D02*
Y46553D01*
X312063Y45553D02*
X314063D01*
X346063Y89553D02*
Y91553D01*
X345063Y90553D02*
X347063D01*
X365063Y55717D02*
Y57717D01*
X364063Y56717D02*
X366063D01*
X312063Y55717D02*
Y57717D01*
X311063Y56717D02*
X313063D01*
X346063Y55717D02*
Y57717D01*
X345063Y56717D02*
X347063D01*
X364173Y92701D02*
Y94701D01*
X363173Y93701D02*
X365173D01*
X313063Y89553D02*
Y91553D01*
X312063Y90553D02*
X314063D01*
X454227Y147716D02*
X456227D01*
X455227Y146716D02*
Y148716D01*
X488508Y165717D02*
X490508D01*
X489507Y164716D02*
Y166717D01*
X488063Y113716D02*
X490063D01*
X489063Y112716D02*
Y114716D01*
X488063Y147716D02*
X490063D01*
X489063Y146716D02*
Y148716D01*
X453906Y178605D02*
X455906D01*
X454906Y177605D02*
Y179605D01*
X454227Y114716D02*
X456227D01*
X455227Y113716D02*
Y115717D01*
X346063Y134553D02*
Y136553D01*
X345063Y135553D02*
X347063D01*
X364756Y100535D02*
Y102535D01*
X363756Y101535D02*
X365756D01*
X312063Y100716D02*
Y102717D01*
X311063Y101716D02*
X313063D01*
X346063Y100716D02*
Y102717D01*
X345063Y101716D02*
X347063D01*
X364684Y135048D02*
Y137048D01*
X363684Y136048D02*
X365684D01*
X313063Y134553D02*
Y136553D01*
X312063Y135553D02*
X314063D01*
X346138Y180553D02*
Y182553D01*
X345138Y181553D02*
X347138D01*
X364063Y146716D02*
Y148716D01*
X363063Y147716D02*
X365063D01*
X312063Y146716D02*
Y148716D01*
X311063Y147716D02*
X313063D01*
X346063Y146716D02*
Y148716D01*
X345063Y147716D02*
X347063D01*
X365063Y180717D02*
Y182717D01*
X364063Y181717D02*
X366063D01*
X313063Y180553D02*
Y182553D01*
X312063Y181553D02*
X314063D01*
X454227Y229716D02*
X456227D01*
X455227Y228716D02*
Y230716D01*
X488063Y247154D02*
X490063D01*
X489063Y246154D02*
Y248154D01*
X488063Y196716D02*
X490063D01*
X489063Y195717D02*
Y197716D01*
X488063Y230716D02*
X490063D01*
X489063Y229716D02*
Y231716D01*
X455089Y249716D02*
X457089D01*
X456089Y248716D02*
Y250716D01*
X454227Y197716D02*
X456227D01*
X455227Y196716D02*
Y198716D01*
X351287Y231125D02*
X353287D01*
X352287Y230125D02*
Y232125D01*
X386063Y249716D02*
X388063D01*
X387063Y248716D02*
Y250716D01*
X385123Y197050D02*
X387123D01*
X386123Y196050D02*
Y198050D01*
X385123Y231050D02*
X387123D01*
X386123Y230050D02*
Y232050D01*
X349123Y262050D02*
X351123D01*
X350123Y261050D02*
Y263050D01*
X351287Y198050D02*
X353287D01*
X352287Y197050D02*
Y199050D01*
X254906Y177605D02*
Y179605D01*
X253906Y178605D02*
X255906D01*
X155063Y115717D02*
X157063D01*
X156063Y114716D02*
Y116717D01*
X116063Y129717D02*
Y131717D01*
X115063Y130717D02*
X117063D01*
X236063Y174716D02*
Y176716D01*
X235063Y175716D02*
X237063D01*
X236063Y99717D02*
Y101716D01*
X235063Y100716D02*
X237063D01*
X116063Y144717D02*
Y146716D01*
X115063Y145717D02*
X117063D01*
X156063Y69717D02*
Y71716D01*
X155063Y70717D02*
X157063D01*
X145063Y90553D02*
X147063D01*
X146063Y89553D02*
Y91553D01*
X145063Y56717D02*
X147063D01*
X146063Y55717D02*
Y57717D01*
X256227Y49716D02*
X258227D01*
X257227Y48717D02*
Y50717D01*
X210227Y49716D02*
X212227D01*
X211227Y48717D02*
Y50717D01*
X146063Y44553D02*
Y46553D01*
X145063Y45553D02*
X147063D01*
X254227Y147716D02*
X256227D01*
X255227Y146716D02*
Y148716D01*
X288508Y165717D02*
X290508D01*
X289508Y164716D02*
Y166717D01*
X288063Y113716D02*
X290063D01*
X289063Y112716D02*
Y114716D01*
X288063Y147716D02*
X290063D01*
X289063Y146716D02*
Y148716D01*
X254227Y114716D02*
X256227D01*
X255227Y113716D02*
Y115717D01*
X146063Y134553D02*
Y136553D01*
X145063Y135553D02*
X147063D01*
X254227Y229716D02*
X256227D01*
X255227Y228716D02*
Y230716D01*
X185123Y197050D02*
X187123D01*
X186123Y196050D02*
Y198050D01*
X288063Y196716D02*
X290063D01*
X289063Y195717D02*
Y197716D01*
X111063Y147716D02*
X113063D01*
X112063Y146716D02*
Y148716D01*
X187063Y248716D02*
Y250716D01*
X186063Y249716D02*
X188063D01*
X289063Y245969D02*
Y247969D01*
X288063Y246969D02*
X290063D01*
X164063Y146716D02*
Y148716D01*
X163063Y147716D02*
X165063D01*
X152287Y230125D02*
Y232125D01*
X151287Y231125D02*
X153287D01*
X146138Y180553D02*
Y182553D01*
X145138Y181553D02*
X147138D01*
X150123Y261050D02*
Y263050D01*
X149123Y262050D02*
X151123D01*
X256089Y248716D02*
Y250716D01*
X255089Y249716D02*
X257089D01*
X165063Y180717D02*
Y182717D01*
X164063Y181717D02*
X166063D01*
X186123Y230050D02*
Y232050D01*
X185123Y231050D02*
X187123D01*
X289063Y229716D02*
Y231716D01*
X288063Y230716D02*
X290063D01*
X146063Y146716D02*
Y148716D01*
X145063Y147716D02*
X147063D01*
X151287Y198050D02*
X153287D01*
X152287Y197050D02*
Y199050D01*
X254227Y197716D02*
X256227D01*
X255227Y196716D02*
Y198716D01*
X112063Y181553D02*
X114063D01*
X113063Y180553D02*
Y182553D01*
X211227Y15717D02*
Y17717D01*
X210227Y16716D02*
X212227D01*
X245063Y14717D02*
Y16716D01*
X244063Y15717D02*
X246063D01*
X244063Y66716D02*
X246063D01*
X245063Y65716D02*
Y67716D01*
X210063D02*
X212063D01*
X211063Y66716D02*
Y68717D01*
X244063Y49716D02*
X246063D01*
X245063Y48717D02*
Y50717D01*
X257227Y15717D02*
Y17717D01*
X256227Y16716D02*
X258227D01*
X291063Y14717D02*
Y16716D01*
X290063Y15717D02*
X292063D01*
X292508Y80717D02*
X294508D01*
X293508Y79716D02*
Y81717D01*
X256063Y68717D02*
X258063D01*
X257063Y67716D02*
Y69717D01*
X290063Y49716D02*
X292063D01*
X291063Y48717D02*
Y50717D01*
X146063Y10717D02*
Y12717D01*
X145063Y11716D02*
X147063D01*
X164173Y47819D02*
Y49819D01*
X163173Y48819D02*
X165173D01*
X164063Y10717D02*
Y12717D01*
X163063Y11716D02*
X165063D01*
X111063D02*
X113063D01*
X112063Y10717D02*
Y12717D01*
Y45553D02*
X114063D01*
X113063Y44553D02*
Y46553D01*
X164173Y92701D02*
Y94701D01*
X163173Y93701D02*
X165173D01*
X165063Y55717D02*
Y57717D01*
X164063Y56717D02*
X166063D01*
X111063D02*
X113063D01*
X112063Y55717D02*
Y57717D01*
Y90553D02*
X114063D01*
X113063Y89553D02*
Y91553D01*
X146063Y100716D02*
Y102717D01*
X145063Y101716D02*
X147063D01*
X164684Y135048D02*
Y137048D01*
X163684Y136048D02*
X165684D01*
X164756Y100535D02*
Y102535D01*
X163756Y101535D02*
X165756D01*
X111063Y101716D02*
X113063D01*
X112063Y100716D02*
Y102717D01*
Y135553D02*
X114063D01*
X113063Y134553D02*
Y136553D01*
X196063Y234717D02*
Y236717D01*
X195063Y235717D02*
X197063D01*
X143456Y197740D02*
X145456D01*
X144456Y196740D02*
Y198740D01*
X110227Y197716D02*
X112227D01*
X111227Y196716D02*
Y198716D01*
X111063Y236717D02*
Y238717D01*
X110063Y237717D02*
X112063D01*
X111063Y223716D02*
Y225716D01*
X110063Y224716D02*
X112063D01*
X111063Y247716D02*
Y249716D01*
X110063Y248716D02*
X112063D01*
X145063Y229716D02*
Y231716D01*
X144063Y230716D02*
X146063D01*
X195063Y190717D02*
X197063D01*
X196063Y189716D02*
Y191717D01*
X115063Y175716D02*
X117063D01*
X116063Y174716D02*
Y176716D01*
X235063Y130717D02*
X237063D01*
X236063Y129717D02*
Y131717D01*
X115063Y100716D02*
X117063D01*
X116063Y99717D02*
Y101716D01*
X115063Y55717D02*
X117063D01*
X116063Y54716D02*
Y56717D01*
X195063Y25717D02*
X197063D01*
X196063Y24716D02*
Y26717D01*
X235063Y160716D02*
X237063D01*
X236063Y159716D02*
Y161716D01*
X155063Y175716D02*
X157063D01*
X156063Y174716D02*
Y176716D01*
X235063Y145717D02*
X237063D01*
X236063Y144717D02*
Y146716D01*
X155063Y100716D02*
X157063D01*
X156063Y99717D02*
Y101716D01*
X155063Y55717D02*
X157063D01*
X156063Y54716D02*
Y56717D01*
X235063Y85716D02*
X237063D01*
X236063Y84716D02*
Y86717D01*
X195063Y220717D02*
X197063D01*
X196063Y219717D02*
Y221716D01*
X275063Y235717D02*
X277063D01*
X276063Y234717D02*
Y236717D01*
X195063Y175716D02*
X197063D01*
X196063Y174716D02*
Y176716D01*
X155063Y130717D02*
X157063D01*
X156063Y129717D02*
Y131717D01*
X235063Y115717D02*
X237063D01*
X236063Y114716D02*
Y116717D01*
X115063Y85716D02*
X117063D01*
X116063Y84716D02*
Y86717D01*
X195063Y55717D02*
X197063D01*
X196063Y54716D02*
Y56717D01*
X235063Y70717D02*
X237063D01*
X236063Y69717D02*
Y71716D01*
X235063Y220717D02*
X237063D01*
X236063Y219717D02*
Y221716D01*
X275063Y220717D02*
X277063D01*
X276063Y219717D02*
Y221716D01*
X115063Y160716D02*
X117063D01*
X116063Y159716D02*
Y161716D01*
X195063Y130717D02*
X197063D01*
X196063Y129717D02*
Y131717D01*
X155063Y85716D02*
X157063D01*
X156063Y84716D02*
Y86717D01*
X115063Y40716D02*
X117063D01*
X116063Y39717D02*
Y41717D01*
X235063Y55717D02*
X237063D01*
X236063Y54716D02*
Y56717D01*
X195063Y205716D02*
X197063D01*
X196063Y204716D02*
Y206716D01*
X155063Y160716D02*
X157063D01*
X156063Y159716D02*
Y161716D01*
X115063Y115717D02*
X117063D01*
X116063Y114716D02*
Y116717D01*
X275063Y145717D02*
X277063D01*
X276063Y144717D02*
Y146716D01*
X195063Y85716D02*
X197063D01*
X196063Y84716D02*
Y86717D01*
X155063Y40716D02*
X157063D01*
X156063Y39717D02*
Y41717D01*
X235063Y40716D02*
X237063D01*
X236063Y39717D02*
Y41717D01*
X235063Y205716D02*
X237063D01*
X236063Y204716D02*
Y206716D01*
X275063Y190717D02*
X277063D01*
X276063Y189716D02*
Y191717D01*
X195063Y160716D02*
X197063D01*
X196063Y159716D02*
Y161716D01*
X275063Y130717D02*
X277063D01*
X276063Y129717D02*
Y131717D01*
X115063Y70717D02*
X117063D01*
X116063Y69717D02*
Y71716D01*
X195063Y40716D02*
X197063D01*
X196063Y39717D02*
Y41717D01*
X235063Y25717D02*
X237063D01*
X236063Y24716D02*
Y26717D01*
X275063Y25717D02*
X277063D01*
X276063Y24716D02*
Y26717D01*
X275063Y175716D02*
X277063D01*
X276063Y174716D02*
Y176716D01*
X155063Y145717D02*
X157063D01*
X156063Y144717D02*
Y146716D01*
X195063Y100716D02*
X197063D01*
X196063Y99717D02*
Y101716D01*
X275063Y100716D02*
X277063D01*
X276063Y99717D02*
Y101716D01*
X195063Y70717D02*
X197063D01*
X196063Y69717D02*
Y71716D01*
X155063Y25717D02*
X157063D01*
X156063Y24716D02*
Y26717D01*
X275063Y70717D02*
X277063D01*
X276063Y69717D02*
Y71716D01*
X275063Y55717D02*
X277063D01*
X276063Y54716D02*
Y56717D01*
X235063Y190717D02*
X237063D01*
X236063Y189716D02*
Y191717D01*
X275063Y160716D02*
X277063D01*
X276063Y159716D02*
Y161716D01*
X195063Y115717D02*
X197063D01*
X196063Y114716D02*
Y116717D01*
X275063Y115717D02*
X277063D01*
X276063Y114716D02*
Y116717D01*
X115063Y25717D02*
X117063D01*
X116063Y24716D02*
Y26717D01*
X275063Y85716D02*
X277063D01*
X276063Y84716D02*
Y86717D01*
X275063Y40716D02*
X277063D01*
X276063Y39717D02*
Y41717D01*
X115063Y205716D02*
X117063D01*
X116063Y204716D02*
Y206716D01*
X155063Y220717D02*
X157063D01*
X156063Y219717D02*
Y221716D01*
X155063Y235717D02*
X157063D01*
X156063Y234717D02*
Y236717D01*
X155063Y205716D02*
X157063D01*
X156063Y204716D02*
Y206716D01*
X115063Y190717D02*
X117063D01*
X116063Y189716D02*
Y191717D01*
X155063Y190717D02*
X157063D01*
X156063Y189716D02*
Y191717D01*
X131383Y390586D02*
X133383D01*
X132383Y389586D02*
Y391586D01*
X331493Y390326D02*
X333493D01*
X332493Y389327D02*
Y391326D01*
X532183Y389671D02*
Y391671D01*
X531183Y390671D02*
X533183D01*
X731483Y390686D02*
X733483D01*
X732483Y389686D02*
Y391687D01*
X209383Y385243D02*
Y387243D01*
X208383Y386243D02*
X210383D01*
X409493Y384982D02*
Y386982D01*
X408493Y385982D02*
X410493D01*
X608183Y386327D02*
X610183D01*
X609183Y385327D02*
Y387327D01*
X808483Y386343D02*
X810483D01*
X809483Y385343D02*
Y387343D01*
X233983Y398587D02*
X235983D01*
X234983Y397586D02*
Y399587D01*
X434093Y398326D02*
X436093D01*
X435093Y397326D02*
Y399326D01*
X634783Y397672D02*
Y399672D01*
X633783Y398672D02*
X635783D01*
X834083Y398687D02*
X836083D01*
X835083Y397687D02*
Y399687D01*
X131383Y396087D02*
X133383D01*
X132383Y395087D02*
Y397087D01*
X331493Y395827D02*
X333493D01*
X332493Y394827D02*
Y396827D01*
X532183Y395171D02*
Y397171D01*
X531183Y396171D02*
X533183D01*
X731483Y396186D02*
X733483D01*
X732483Y395186D02*
Y397186D01*
X144883Y394087D02*
X146883D01*
X145883Y393087D02*
Y395087D01*
X344993Y393827D02*
X346993D01*
X345993Y392827D02*
Y394827D01*
X545683Y393172D02*
Y395171D01*
X544683Y394172D02*
X546683D01*
X744983Y394186D02*
X746983D01*
X745983Y393186D02*
Y395186D01*
X235283Y311887D02*
X237283D01*
X236283Y310887D02*
Y312887D01*
X435393Y311627D02*
X437393D01*
X436393Y310627D02*
Y312627D01*
X636083Y310971D02*
Y312971D01*
X635083Y311971D02*
X637083D01*
X836383Y310986D02*
Y312986D01*
X835383Y311986D02*
X837383D01*
X154365Y389854D02*
Y391854D01*
X153365Y390854D02*
X155365D01*
X354475Y389594D02*
Y391594D01*
X353475Y390594D02*
X355475D01*
X553165Y390939D02*
X555165D01*
X554165Y389939D02*
Y391939D01*
X754465Y389954D02*
Y391954D01*
X753465Y390954D02*
X755465D01*
X233983Y392787D02*
X235983D01*
X234983Y391787D02*
Y393787D01*
X434093Y392527D02*
X436093D01*
X435093Y391527D02*
Y393527D01*
X634783Y391872D02*
Y393871D01*
X633783Y392871D02*
X635783D01*
X835083Y391886D02*
Y393886D01*
X834083Y392886D02*
X836083D01*
X144783Y387887D02*
X146783D01*
X145783Y386887D02*
Y388886D01*
X344893Y387627D02*
X346893D01*
X345893Y386627D02*
Y388627D01*
X545583Y386971D02*
Y388971D01*
X544583Y387971D02*
X546583D01*
X745883Y386986D02*
Y388986D01*
X744883Y387986D02*
X746883D01*
X142983Y310986D02*
Y312986D01*
X141983Y311986D02*
X143983D01*
X343093Y310726D02*
Y312726D01*
X342093Y311726D02*
X344093D01*
X541783Y312071D02*
X543783D01*
X542783Y311071D02*
Y313071D01*
X743083Y311087D02*
Y313087D01*
X742083Y312087D02*
X744083D01*
X223083Y370087D02*
Y372087D01*
X222083Y371087D02*
X224083D01*
X423193Y369827D02*
Y371827D01*
X422193Y370827D02*
X424193D01*
X621883Y371171D02*
X623883D01*
X622883Y370171D02*
Y372171D01*
X823183Y370186D02*
Y372186D01*
X822183Y371186D02*
X824183D01*
X150883Y333686D02*
X152883D01*
X151883Y332686D02*
Y334686D01*
X350993Y333426D02*
X352993D01*
X351993Y332427D02*
Y334426D01*
X551683Y332771D02*
Y334771D01*
X550683Y333771D02*
X552683D01*
X750983Y333787D02*
X752983D01*
X751983Y332786D02*
Y334787D01*
X149583Y311087D02*
Y313087D01*
X148583Y312087D02*
X150583D01*
X349693Y310826D02*
Y312826D01*
X348693Y311826D02*
X350693D01*
X548383Y312172D02*
X550383D01*
X549383Y311172D02*
Y313172D01*
X749683Y311187D02*
Y313187D01*
X748683Y312187D02*
X750683D01*
X178583Y318087D02*
Y320087D01*
X177583Y319087D02*
X179583D01*
X378693Y317827D02*
Y319827D01*
X377693Y318827D02*
X379693D01*
X577383Y319172D02*
X579383D01*
X578383Y318172D02*
Y320171D01*
X777683Y319186D02*
X779683D01*
X778683Y318186D02*
Y320186D01*
X224783Y309831D02*
Y311831D01*
X223783Y310831D02*
X225783D01*
X424893Y309571D02*
Y311571D01*
X423893Y310571D02*
X425893D01*
X623583Y310916D02*
X625583D01*
X624583Y309916D02*
Y311916D01*
X824883Y309931D02*
Y311931D01*
X823883Y310931D02*
X825883D01*
X219283Y322287D02*
X221283D01*
X220283Y321287D02*
Y323287D01*
X419393Y322026D02*
X421393D01*
X420393Y321026D02*
Y323026D01*
X620083Y321372D02*
Y323372D01*
X619083Y322372D02*
X621083D01*
X819383Y322387D02*
X821383D01*
X820383Y321387D02*
Y323387D01*
X223183Y388286D02*
X225183D01*
X224183Y387286D02*
Y389286D01*
X423293Y388026D02*
X425293D01*
X424293Y387027D02*
Y389026D01*
X623983Y387371D02*
Y389371D01*
X622983Y388371D02*
X624983D01*
X823283Y388387D02*
X825283D01*
X824283Y387386D02*
Y389387D01*
X129183Y313387D02*
X131183D01*
X130183Y312386D02*
Y314387D01*
X329293Y313126D02*
X331293D01*
X330293Y312126D02*
Y314126D01*
X529983Y312472D02*
Y314472D01*
X528983Y313472D02*
X530983D01*
X729283Y313487D02*
X731283D01*
X730283Y312487D02*
Y314487D01*
X149683Y376186D02*
X151683D01*
X150683Y375186D02*
Y377186D01*
X349793Y375926D02*
X351793D01*
X350793Y374926D02*
Y376926D01*
X550483Y375272D02*
Y377272D01*
X549483Y376272D02*
X551483D01*
X749783Y376287D02*
X751783D01*
X750783Y375287D02*
Y377287D01*
X149783Y381887D02*
X151783D01*
X150783Y380887D02*
Y382887D01*
X349893Y381627D02*
X351893D01*
X350893Y380627D02*
Y382627D01*
X550583Y380972D02*
Y382972D01*
X549583Y381972D02*
X551583D01*
X749883Y381986D02*
X751883D01*
X750883Y380986D02*
Y382986D01*
X150783Y326486D02*
X152783D01*
X151783Y325486D02*
Y327486D01*
X350893Y326226D02*
X352893D01*
X351893Y325226D02*
Y327226D01*
X551583Y325571D02*
Y327572D01*
X550583Y326571D02*
X552583D01*
X750883Y326587D02*
X752883D01*
X751883Y325587D02*
Y327587D01*
X150683Y320387D02*
X152683D01*
X151683Y319387D02*
Y321387D01*
X350793Y320127D02*
X352793D01*
X351793Y319127D02*
Y321127D01*
X551483Y319472D02*
Y321472D01*
X550483Y320472D02*
X552483D01*
X750783Y320486D02*
X752783D01*
X751783Y319486D02*
Y321486D01*
X216783Y309331D02*
Y311331D01*
X215783Y310331D02*
X217783D01*
X416893Y309071D02*
Y311071D01*
X415893Y310071D02*
X417893D01*
X615583Y310416D02*
X617583D01*
X616583Y309416D02*
Y311416D01*
X816883Y309431D02*
Y311431D01*
X815883Y310431D02*
X817883D01*
X129227Y307287D02*
X131227D01*
X130227Y306287D02*
Y308286D01*
X329337Y307027D02*
X331337D01*
X330337Y306027D02*
Y308027D01*
X530027Y306371D02*
Y308371D01*
X529027Y307371D02*
X531027D01*
X729327Y307386D02*
X731327D01*
X730327Y306386D02*
Y308386D01*
X173183Y317986D02*
Y319987D01*
X172183Y318987D02*
X174183D01*
X373293Y317726D02*
Y319726D01*
X372293Y318726D02*
X374293D01*
X571983Y319072D02*
X573983D01*
X572983Y318072D02*
Y320072D01*
X773283Y318087D02*
Y320087D01*
X772283Y319087D02*
X774283D01*
X160883Y319286D02*
Y321287D01*
X159883Y320286D02*
X161883D01*
X360993Y319026D02*
Y321026D01*
X359993Y320026D02*
X361993D01*
X559683Y320372D02*
X561683D01*
X560683Y319372D02*
Y321372D01*
X760983Y319387D02*
Y321387D01*
X759983Y320387D02*
X761983D01*
X149983Y341687D02*
X151983D01*
X150983Y340686D02*
Y342687D01*
X350093Y341426D02*
X352093D01*
X351093Y340426D02*
Y342426D01*
X550783Y340772D02*
Y342772D01*
X549783Y341772D02*
X551783D01*
X750083Y341787D02*
X752083D01*
X751083Y340787D02*
Y342787D01*
X149983Y368186D02*
X151983D01*
X150983Y367186D02*
Y369186D01*
X350093Y367927D02*
X352093D01*
X351093Y366927D02*
Y368927D01*
X550783Y367271D02*
Y369271D01*
X549783Y368271D02*
X551783D01*
X750083Y368286D02*
X752083D01*
X751083Y367286D02*
Y369286D01*
X160783Y383187D02*
Y385187D01*
X159783Y384187D02*
X161783D01*
X360893Y382927D02*
Y384927D01*
X359893Y383927D02*
X361893D01*
X559583Y384272D02*
X561583D01*
X560583Y383272D02*
Y385272D01*
X760883Y383286D02*
Y385286D01*
X759883Y384286D02*
X761883D01*
X182183Y382887D02*
Y384887D01*
X181183Y383887D02*
X183183D01*
X382293Y382627D02*
Y384627D01*
X381293Y383627D02*
X383293D01*
X580983Y383972D02*
X582983D01*
X581983Y382972D02*
Y384971D01*
X782283Y382986D02*
Y384986D01*
X781283Y383986D02*
X783283D01*
X201583Y381386D02*
Y383386D01*
X200583Y382386D02*
X202583D01*
X401693Y381126D02*
Y383126D01*
X400693Y382126D02*
X402693D01*
X600383Y382471D02*
X602383D01*
X601383Y381471D02*
Y383471D01*
X801683Y381487D02*
Y383487D01*
X800683Y382487D02*
X802683D01*
X219533Y331778D02*
X221533D01*
X220533Y330778D02*
Y332778D01*
X419643Y331518D02*
X421643D01*
X420643Y330518D02*
Y332518D01*
X620333Y330863D02*
Y332863D01*
X619333Y331863D02*
X621333D01*
X819633Y331878D02*
X821633D01*
X820633Y330878D02*
Y332878D01*
X206783Y315331D02*
Y317331D01*
X205783Y316331D02*
X207783D01*
X406893Y315071D02*
Y317071D01*
X405893Y316071D02*
X407893D01*
X605583Y316416D02*
X607583D01*
X606583Y315416D02*
Y317416D01*
X806883Y315431D02*
Y317431D01*
X805883Y316431D02*
X807883D01*
X219083Y354486D02*
X221083D01*
X220083Y353486D02*
Y355486D01*
X419193Y354226D02*
X421193D01*
X420193Y353226D02*
Y355226D01*
X619883Y353572D02*
Y355572D01*
X618883Y354572D02*
X620883D01*
X819183Y354587D02*
X821183D01*
X820183Y353587D02*
Y355587D01*
X166583Y319331D02*
Y321331D01*
X165583Y320331D02*
X167583D01*
X366693Y319071D02*
Y321071D01*
X365693Y320071D02*
X367693D01*
X565383Y320416D02*
X567383D01*
X566383Y319416D02*
Y321416D01*
X766683Y319431D02*
Y321431D01*
X765683Y320431D02*
X767683D01*
X177149Y382745D02*
Y384745D01*
X176149Y383745D02*
X178149D01*
X377259Y382485D02*
Y384485D01*
X376259Y383485D02*
X378259D01*
X575949Y383830D02*
X577949D01*
X576949Y382830D02*
Y384830D01*
X777249Y382845D02*
Y384845D01*
X776249Y383845D02*
X778249D01*
X244420Y383187D02*
X246420D01*
X245420Y382187D02*
Y384187D01*
X444530Y382927D02*
X446530D01*
X445530Y381926D02*
Y383927D01*
X645220Y382272D02*
Y384272D01*
X644220Y383272D02*
X646220D01*
X844520Y383286D02*
X846520D01*
X845520Y382287D02*
Y384286D01*
X525013Y317761D02*
Y319761D01*
X524013Y318761D02*
X526013D01*
X525013Y323692D02*
Y325692D01*
X524013Y324692D02*
X526013D01*
X518883Y337227D02*
Y339227D01*
X517883Y338227D02*
X519883D01*
X324323Y318417D02*
X326323D01*
X325323Y317417D02*
Y319416D01*
X324323Y324346D02*
X326323D01*
X325323Y323346D02*
Y325346D01*
X318193Y337882D02*
X320193D01*
X319193Y336882D02*
Y338882D01*
X125213Y317676D02*
Y319676D01*
X124213Y318676D02*
X126213D01*
X125213Y323606D02*
Y325606D01*
X124213Y324606D02*
X126213D01*
X119083Y337142D02*
Y339142D01*
X118083Y338142D02*
X120083D01*
X725313Y317776D02*
Y319777D01*
X724313Y318776D02*
X726313D01*
X724313Y324707D02*
X726313D01*
X725313Y323707D02*
Y325707D01*
X718183Y338243D02*
X720183D01*
X719183Y337243D02*
Y339243D01*
D18*
X888039Y10264D02*
Y41169D01*
X860087Y10264D02*
X888039D01*
X860087D02*
Y41169D01*
X888039D01*
X688039Y10264D02*
Y41169D01*
X660087Y10264D02*
X688039D01*
X660087D02*
Y41169D01*
X688039D01*
X488039Y10264D02*
Y41169D01*
X460087Y10264D02*
X488039D01*
X460087D02*
Y41169D01*
X488039D01*
X288039Y10264D02*
Y41169D01*
X260087Y10264D02*
X288039D01*
X260087D02*
Y41169D01*
X288039D01*
X842039Y10264D02*
Y41169D01*
X814087Y10264D02*
X842039D01*
X814087D02*
Y41169D01*
X842039D01*
X642039Y10264D02*
Y41169D01*
X614087Y10264D02*
X642039D01*
X614087D02*
Y41169D01*
X642039D01*
X442039Y10264D02*
Y41169D01*
X414087Y10264D02*
X442039D01*
X414087D02*
Y41169D01*
X442039D01*
X242039Y10264D02*
Y41169D01*
X214087Y10264D02*
X242039D01*
X214087D02*
Y41169D01*
X242039D01*
X706610Y14740D02*
X737516D01*
X706610D02*
Y42693D01*
X737516D01*
Y14740D02*
Y42693D01*
X506610Y14740D02*
X537516D01*
X506610D02*
Y42693D01*
X537516D01*
Y14740D02*
Y42693D01*
X306610Y14740D02*
X337516D01*
X306610D02*
Y42693D01*
X337516D01*
Y14740D02*
Y42693D01*
X106610Y14740D02*
X137516D01*
X106610D02*
Y42693D01*
X137516D01*
Y14740D02*
Y42693D01*
X706610Y59740D02*
X737516D01*
X706610D02*
Y87693D01*
X737516D01*
Y59740D02*
Y87693D01*
X506610Y59740D02*
X537516D01*
X506610D02*
Y87693D01*
X537516D01*
Y59740D02*
Y87693D01*
X306610Y59740D02*
X337516D01*
X306610D02*
Y87693D01*
X337516D01*
Y59740D02*
Y87693D01*
X106610Y59740D02*
X137516D01*
X106610D02*
Y87693D01*
X137516D01*
Y59740D02*
Y87693D01*
X886040Y108264D02*
Y139169D01*
X858087Y108264D02*
X886040D01*
X858087D02*
Y139169D01*
X886040D01*
X686039Y108264D02*
Y139169D01*
X658087Y108264D02*
X686039D01*
X658087D02*
Y139169D01*
X686039D01*
X486039Y108264D02*
Y139169D01*
X458087Y108264D02*
X486039D01*
X458087D02*
Y139169D01*
X486039D01*
X286039Y108264D02*
Y139169D01*
X258087Y108264D02*
X286039D01*
X258087D02*
Y139169D01*
X286039D01*
X706610Y104740D02*
X737516D01*
X706610D02*
Y132693D01*
X737516D01*
Y104740D02*
Y132693D01*
X506610Y104740D02*
X537516D01*
X506610D02*
Y132693D01*
X537516D01*
Y104740D02*
Y132693D01*
X306610Y104740D02*
X337516D01*
X306610D02*
Y132693D01*
X337516D01*
Y104740D02*
Y132693D01*
X106610Y104740D02*
X137516D01*
X106610D02*
Y132693D01*
X137516D01*
Y104740D02*
Y132693D01*
X706610Y150740D02*
X737516D01*
X706610D02*
Y178693D01*
X737516D01*
Y150740D02*
Y178693D01*
X506610Y150740D02*
X537516D01*
X506610D02*
Y178693D01*
X537516D01*
Y150740D02*
Y178693D01*
X306610Y150740D02*
X337516D01*
X306610D02*
Y178693D01*
X337516D01*
Y150740D02*
Y178693D01*
X106610Y150740D02*
X137516D01*
X106610D02*
Y178693D01*
X137516D01*
Y150740D02*
Y178693D01*
X886040Y191264D02*
Y222169D01*
X858087Y191264D02*
X886040D01*
X858087D02*
Y222169D01*
X886040D01*
X686039Y191264D02*
Y222169D01*
X658087Y191264D02*
X686039D01*
X658087D02*
Y222169D01*
X686039D01*
X486039Y191264D02*
Y222169D01*
X458087Y191264D02*
X486039D01*
X458087D02*
Y222169D01*
X486039D01*
X286039Y191264D02*
Y222169D01*
X258087Y191264D02*
X286039D01*
X258087D02*
Y222169D01*
X286039D01*
X783099Y191598D02*
Y222503D01*
X755146Y191598D02*
X783099D01*
X755146D02*
Y222503D01*
X783099D01*
X583099Y191598D02*
Y222503D01*
X555146Y191598D02*
X583099D01*
X555146D02*
Y222503D01*
X583099D01*
X383099Y191598D02*
Y222503D01*
X355146Y191598D02*
X383099D01*
X355146D02*
Y222503D01*
X383099D01*
X183099Y191598D02*
Y222503D01*
X155146Y191598D02*
X183099D01*
X155146D02*
Y222503D01*
X183099D01*
X742045Y190295D02*
Y221201D01*
X714092Y190295D02*
X742045D01*
X714092D02*
Y221201D01*
X742045D01*
X542045Y190295D02*
Y221201D01*
X514092Y190295D02*
X542045D01*
X514092D02*
Y221201D01*
X542045D01*
X342045Y190295D02*
Y221201D01*
X314092Y190295D02*
X342045D01*
X314092D02*
Y221201D01*
X342045D01*
X142045Y190295D02*
Y221201D01*
X114092Y190295D02*
X142045D01*
X114092D02*
Y221201D01*
X142045D01*
D19*
X201063Y129786D02*
D03*
X401063Y133217D02*
D03*
D20*
X798563D02*
D03*
X598563D02*
D03*
D115*
X-0Y-0D02*
X-0Y435039D01*
X920075Y435040D01*
X921027Y0D01*
X-0Y-0D02*
X921027Y0D01*
D116*
X17217Y52387D02*
D03*
X27217Y82387D02*
D03*
X17217Y72387D02*
D03*
X27217D02*
D03*
X17217Y62387D02*
D03*
X27217D02*
D03*
Y52387D02*
D03*
Y42387D02*
D03*
D117*
X17217D02*
D03*
Y82387D02*
D03*
D118*
X907874Y12205D02*
D03*
Y422835D02*
D03*
X12205Y12205D02*
D03*
Y422835D02*
D03*
D119*
X28813Y311369D02*
D03*
X21805Y307354D02*
D03*
X28813Y303338D02*
D03*
X21805Y299322D02*
D03*
D120*
X11805Y280346D02*
D03*
Y330346D02*
D03*
D121*
X25309Y273338D02*
D03*
Y337354D02*
D03*
X47829Y332393D02*
D03*
Y323377D02*
D03*
Y287314D02*
D03*
Y278299D02*
D03*
X28813Y319401D02*
D03*
X21805Y315385D02*
D03*
X28813Y295306D02*
D03*
X21805Y291291D02*
D03*
D122*
X30569Y176457D02*
D03*
D123*
X18758Y194961D02*
D03*
D124*
X42380D02*
D03*
D125*
X889200Y92900D02*
D03*
X891063Y73037D02*
D03*
X490600Y73400D02*
D03*
X490500Y91900D02*
D03*
X691063Y92115D02*
D03*
Y72837D02*
D03*
X453063Y194717D02*
D03*
X453366Y174020D02*
D03*
X479063Y87717D02*
D03*
X291120Y73250D02*
D03*
X287570Y92200D02*
D03*
X837860Y55655D02*
D03*
X650338Y388238D02*
D03*
X640372Y306464D02*
D03*
X637880Y55786D02*
D03*
X437535Y55850D02*
D03*
X237624Y55662D02*
D03*
X688057Y223057D02*
D03*
X373000Y236000D02*
D03*
X288596Y223177D02*
D03*
X99786Y369337D02*
D03*
X888000Y222000D02*
D03*
X705073Y245889D02*
D03*
X689275Y248016D02*
D03*
X874028Y151690D02*
D03*
X675000Y152000D02*
D03*
X475663Y152196D02*
D03*
X487319Y222570D02*
D03*
X277000Y152000D02*
D03*
X889367Y245992D02*
D03*
X768611Y236359D02*
D03*
X568302Y235653D02*
D03*
X587152Y245276D02*
D03*
X577884Y245335D02*
D03*
X505270Y246086D02*
D03*
X489345Y246094D02*
D03*
X378076Y245721D02*
D03*
X305154Y246245D02*
D03*
X290000Y245000D02*
D03*
X104021Y249020D02*
D03*
X102446Y267467D02*
D03*
X106000Y271000D02*
D03*
X148519Y96851D02*
D03*
X167302Y235653D02*
D03*
X11302Y124653D02*
D03*
X9886Y362054D02*
D03*
X22886Y355054D02*
D03*
X18602Y362054D02*
D03*
X14269Y355054D02*
D03*
X36457Y46937D02*
D03*
X36108Y72748D02*
D03*
X47457Y55937D02*
D03*
X44185Y72588D02*
D03*
X36298Y35612D02*
D03*
X547300Y96694D02*
D03*
X549492Y120921D02*
D03*
X547664Y137583D02*
D03*
X545555Y141393D02*
D03*
X549098Y168165D02*
D03*
X749098Y165802D02*
D03*
X747917Y141393D02*
D03*
X748625Y137138D02*
D03*
X749022Y120387D02*
D03*
X748705Y96905D02*
D03*
X356026Y93801D02*
D03*
X345555Y96511D02*
D03*
X349098Y166983D02*
D03*
X347917Y140999D02*
D03*
X348785Y137278D02*
D03*
X348964Y120734D02*
D03*
X149065Y120225D02*
D03*
X149627Y166489D02*
D03*
X148705Y141787D02*
D03*
X789808Y64735D02*
D03*
X720667Y69511D02*
D03*
X721063Y85716D02*
D03*
X719651Y98575D02*
D03*
X710063Y92716D02*
D03*
X764182Y87256D02*
D03*
X756296Y94343D02*
D03*
X758980Y91732D02*
D03*
X709551Y60207D02*
D03*
X720063Y64717D02*
D03*
X724063Y73716D02*
D03*
X724056Y78840D02*
D03*
X719439Y79783D02*
D03*
X715142Y80195D02*
D03*
X724063Y88717D02*
D03*
X721063Y89717D02*
D03*
X748865Y92397D02*
D03*
X761063Y72716D02*
D03*
X724063Y68717D02*
D03*
X589808Y64735D02*
D03*
X520667Y69511D02*
D03*
X521063Y85716D02*
D03*
X519651Y98575D02*
D03*
X510063Y92716D02*
D03*
X564182Y87256D02*
D03*
X556296Y94343D02*
D03*
X558980Y91732D02*
D03*
X509551Y60207D02*
D03*
X520063Y64717D02*
D03*
X524063Y73716D02*
D03*
X524056Y78840D02*
D03*
X519439Y79783D02*
D03*
X515142Y80195D02*
D03*
X524063Y88717D02*
D03*
X521063Y89717D02*
D03*
X548865Y92397D02*
D03*
X561063Y72716D02*
D03*
X524063Y68717D02*
D03*
X389808Y64735D02*
D03*
X320667Y69511D02*
D03*
X321063Y85716D02*
D03*
X319651Y98575D02*
D03*
X310063Y92716D02*
D03*
X364182Y87256D02*
D03*
X358980Y91732D02*
D03*
X309551Y60207D02*
D03*
X320063Y64717D02*
D03*
X324063Y73716D02*
D03*
X324056Y78840D02*
D03*
X319439Y79783D02*
D03*
X315142Y80195D02*
D03*
X324063Y88717D02*
D03*
X321063Y89717D02*
D03*
X348865Y92397D02*
D03*
X361063Y72716D02*
D03*
X324063Y68717D02*
D03*
X759063Y23717D02*
D03*
X721063Y25717D02*
D03*
X799322Y38815D02*
D03*
X760751Y40522D02*
D03*
X720874Y40663D02*
D03*
X757087Y56916D02*
D03*
X721086Y55767D02*
D03*
X710063Y47717D02*
D03*
X762696Y48914D02*
D03*
X764182Y42256D02*
D03*
X709551Y15207D02*
D03*
X722063Y19716D02*
D03*
X724063Y22716D02*
D03*
X723079Y29726D02*
D03*
X719063Y32717D02*
D03*
X715019Y32597D02*
D03*
X727063Y37716D02*
D03*
X725950Y42210D02*
D03*
X722063Y47717D02*
D03*
X751063Y45717D02*
D03*
X559063Y23717D02*
D03*
X521063Y25717D02*
D03*
X599322Y38815D02*
D03*
X560751Y40522D02*
D03*
X520874Y40663D02*
D03*
X557087Y56916D02*
D03*
X521086Y55767D02*
D03*
X510063Y47717D02*
D03*
X562696Y48914D02*
D03*
X564182Y42256D02*
D03*
X509551Y15207D02*
D03*
X522063Y19716D02*
D03*
X524063Y22716D02*
D03*
X523079Y29726D02*
D03*
X519063Y32717D02*
D03*
X515019Y32597D02*
D03*
X527063Y37716D02*
D03*
X525950Y42210D02*
D03*
X522063Y47717D02*
D03*
X551063Y45717D02*
D03*
X359063Y23717D02*
D03*
X321063Y25717D02*
D03*
X399322Y38815D02*
D03*
X360751Y40522D02*
D03*
X320874Y40663D02*
D03*
X357087Y56916D02*
D03*
X321086Y55767D02*
D03*
X310063Y47717D02*
D03*
X362696Y48914D02*
D03*
X364182Y42256D02*
D03*
X309551Y15207D02*
D03*
X322063Y19716D02*
D03*
X324063Y22716D02*
D03*
X323079Y29726D02*
D03*
X319063Y32717D02*
D03*
X315019Y32597D02*
D03*
X327063Y37716D02*
D03*
X325950Y42210D02*
D03*
X322063Y47717D02*
D03*
X351063Y45717D02*
D03*
X158980Y91732D02*
D03*
X156296Y94343D02*
D03*
X148865Y92397D02*
D03*
X148740Y137634D02*
D03*
X53802Y108563D02*
D03*
X65748D02*
D03*
X59775D02*
D03*
X53802Y122539D02*
D03*
X65748D02*
D03*
X59775D02*
D03*
X53802Y129528D02*
D03*
X65748D02*
D03*
X59775D02*
D03*
X53802Y115551D02*
D03*
X65748D02*
D03*
X59775D02*
D03*
Y101575D02*
D03*
X65748D02*
D03*
X137008Y354331D02*
D03*
X88976Y350394D02*
D03*
X451214Y365496D02*
D03*
X453662Y219437D02*
D03*
X455512Y151575D02*
D03*
X316553Y198526D02*
D03*
X92126Y352843D02*
D03*
X120056Y356515D02*
D03*
X122834Y354330D02*
D03*
X116142Y351575D02*
D03*
X588833Y223883D02*
D03*
X94807Y390854D02*
D03*
X60555Y334254D02*
D03*
X58814Y317076D02*
D03*
X60624Y196307D02*
D03*
X68574D02*
D03*
X42722Y117673D02*
D03*
X53802Y101575D02*
D03*
X37228Y244734D02*
D03*
X21752Y124793D02*
D03*
X87234Y417628D02*
D03*
X87324Y377378D02*
D03*
X45247Y319266D02*
D03*
X45244Y295717D02*
D03*
X43168Y242174D02*
D03*
X70961Y397031D02*
D03*
Y389231D02*
D03*
Y381432D02*
D03*
Y373632D02*
D03*
Y365831D02*
D03*
Y358032D02*
D03*
X11092Y119013D02*
D03*
X11302Y113653D02*
D03*
X22961Y362054D02*
D03*
X14244D02*
D03*
X89689Y390854D02*
D03*
X49674Y157817D02*
D03*
X40868Y252764D02*
D03*
X31404Y157817D02*
D03*
X15258Y252814D02*
D03*
X73294Y310717D02*
D03*
X92442Y377378D02*
D03*
X63064Y310747D02*
D03*
X63961Y397031D02*
D03*
Y389231D02*
D03*
Y381432D02*
D03*
Y373632D02*
D03*
Y365831D02*
D03*
Y358032D02*
D03*
X56306Y313796D02*
D03*
X45854Y150537D02*
D03*
X49674Y143766D02*
D03*
X38194Y114716D02*
D03*
X38262Y99113D02*
D03*
X33218Y248924D02*
D03*
X32428Y242174D02*
D03*
X31404Y143766D02*
D03*
X34092Y105883D02*
D03*
X34042Y99113D02*
D03*
X15448Y263734D02*
D03*
X15238Y258334D02*
D03*
X15108Y247194D02*
D03*
X18577Y355054D02*
D03*
X9961D02*
D03*
X648990Y365751D02*
D03*
X716518Y198516D02*
D03*
X855063Y151716D02*
D03*
X516547Y198526D02*
D03*
X719063Y237717D02*
D03*
X716651Y246074D02*
D03*
X737063Y245717D02*
D03*
X744063Y231716D02*
D03*
X709063Y194717D02*
D03*
X750123Y195050D02*
D03*
X785123Y232050D02*
D03*
X787095Y244883D02*
D03*
X778123Y246050D02*
D03*
X750426Y257354D02*
D03*
X757711Y246408D02*
D03*
X749969Y232766D02*
D03*
X782632Y194538D02*
D03*
X885573Y194204D02*
D03*
X881063Y245717D02*
D03*
X858524Y248835D02*
D03*
X887130Y233943D02*
D03*
X747778Y183870D02*
D03*
X760366Y181413D02*
D03*
X759769Y149439D02*
D03*
X710063Y183716D02*
D03*
X742493Y194577D02*
D03*
X719451Y188624D02*
D03*
X721063Y205716D02*
D03*
X721666Y198526D02*
D03*
X724159Y201695D02*
D03*
X719063Y209717D02*
D03*
X734466Y188119D02*
D03*
X731907Y202873D02*
D03*
X729348Y207432D02*
D03*
X726789Y211442D02*
D03*
X809063Y13716D02*
D03*
X843130Y52943D02*
D03*
X814524Y67835D02*
D03*
X764182Y132256D02*
D03*
X855063Y13716D02*
D03*
X710063Y137716D02*
D03*
X893406Y76086D02*
D03*
X841573Y13204D02*
D03*
X837063Y64717D02*
D03*
X887573Y13204D02*
D03*
X761063Y109716D02*
D03*
X812063Y72716D02*
D03*
X709551Y105207D02*
D03*
X883063Y64717D02*
D03*
X855192Y234457D02*
D03*
X811063Y54716D02*
D03*
X855001Y52609D02*
D03*
X862181Y64617D02*
D03*
X853063Y111716D02*
D03*
X889406Y161086D02*
D03*
X887130Y150943D02*
D03*
X885573Y111204D02*
D03*
X859157Y171826D02*
D03*
X882622Y162283D02*
D03*
X759063Y207716D02*
D03*
Y188716D02*
D03*
Y237717D02*
D03*
X736654Y233045D02*
D03*
X778973Y190625D02*
D03*
X773130Y190164D02*
D03*
X772063Y201716D02*
D03*
X770063Y205716D02*
D03*
X767063Y211717D02*
D03*
X764612Y207487D02*
D03*
X760063Y211717D02*
D03*
X755673Y211764D02*
D03*
X776063Y236717D02*
D03*
X787063Y209717D02*
D03*
X789138Y224848D02*
D03*
X860532Y200186D02*
D03*
X870063Y211717D02*
D03*
X870693Y201696D02*
D03*
X865893Y212972D02*
D03*
X863273Y202570D02*
D03*
X873814Y200443D02*
D03*
X877063Y201716D02*
D03*
X879063Y207716D02*
D03*
X886063Y205716D02*
D03*
X881063Y235717D02*
D03*
X878387Y106834D02*
D03*
X876063Y120717D02*
D03*
X873181Y123773D02*
D03*
X870765Y126556D02*
D03*
X879312Y128943D02*
D03*
X879063Y98716D02*
D03*
X878256Y118038D02*
D03*
X868063Y104717D02*
D03*
X865229Y106799D02*
D03*
X857063Y121716D02*
D03*
X841063Y100716D02*
D03*
X720063Y179717D02*
D03*
X724063Y177717D02*
D03*
X720190Y176379D02*
D03*
X724063Y172716D02*
D03*
X762540Y176191D02*
D03*
X715063Y168717D02*
D03*
X719063D02*
D03*
X722063Y165717D02*
D03*
X761039Y155310D02*
D03*
X721305Y159818D02*
D03*
X726297Y162575D02*
D03*
X748048Y149752D02*
D03*
X720063Y156717D02*
D03*
X709063Y150716D02*
D03*
X721354Y130232D02*
D03*
X720063Y134716D02*
D03*
X724063Y127717D02*
D03*
X716131Y125076D02*
D03*
X721063Y122716D02*
D03*
X716299Y120157D02*
D03*
X721177Y115757D02*
D03*
X725063Y112716D02*
D03*
X720063Y109716D02*
D03*
X879063Y53716D02*
D03*
X839063Y87717D02*
D03*
X844063Y40716D02*
D03*
X841063Y25717D02*
D03*
X816309Y8993D02*
D03*
X806588Y24589D02*
D03*
X808903Y28155D02*
D03*
X811468Y30658D02*
D03*
X822063Y30716D02*
D03*
X830063Y20717D02*
D03*
X831868Y8698D02*
D03*
X836063Y5717D02*
D03*
X870063Y19716D02*
D03*
X878063Y29717D02*
D03*
X881063Y25717D02*
D03*
X884063Y28716D02*
D03*
X881268Y31892D02*
D03*
X879063Y87717D02*
D03*
X888063Y52716D02*
D03*
X853366Y174020D02*
D03*
X859063Y124716D02*
D03*
X761980Y137338D02*
D03*
X762997Y103682D02*
D03*
X724311Y119876D02*
D03*
X853063Y194717D02*
D03*
X799110Y23717D02*
D03*
X845110Y61717D02*
D03*
X859110Y64717D02*
D03*
X855208Y245835D02*
D03*
X748964Y60157D02*
D03*
Y105457D02*
D03*
Y15417D02*
D03*
X721044Y145482D02*
D03*
X802808Y47635D02*
D03*
X795208Y120835D02*
D03*
X797720Y130243D02*
D03*
X797908Y159235D02*
D03*
X795508Y171935D02*
D03*
X853808Y206035D02*
D03*
X853508Y188535D02*
D03*
X853008Y219835D02*
D03*
X853738Y126962D02*
D03*
X799714Y149313D02*
D03*
X708643Y227589D02*
D03*
X713063Y252716D02*
D03*
X519063Y237717D02*
D03*
X516651Y246074D02*
D03*
X537063Y245717D02*
D03*
X544063Y231716D02*
D03*
X509063Y194717D02*
D03*
X550123Y195050D02*
D03*
X585123Y232050D02*
D03*
X550426Y257354D02*
D03*
X557711Y246408D02*
D03*
X549969Y232766D02*
D03*
X582632Y194538D02*
D03*
X685573Y194204D02*
D03*
X681063Y245717D02*
D03*
X658524Y248835D02*
D03*
X687130Y233943D02*
D03*
X547778Y183870D02*
D03*
X560366Y181413D02*
D03*
X559769Y149439D02*
D03*
X510063Y183716D02*
D03*
X542493Y194577D02*
D03*
X519451Y188624D02*
D03*
X521063Y205716D02*
D03*
X521666Y198526D02*
D03*
X524159Y201695D02*
D03*
X519063Y209717D02*
D03*
X534466Y188119D02*
D03*
X531907Y202873D02*
D03*
X529348Y207432D02*
D03*
X526789Y211442D02*
D03*
X609063Y13716D02*
D03*
X643130Y52943D02*
D03*
X614524Y67835D02*
D03*
X564182Y132256D02*
D03*
X655063Y13716D02*
D03*
X510063Y137716D02*
D03*
X693406Y76086D02*
D03*
X641573Y13204D02*
D03*
X637063Y64717D02*
D03*
X687573Y13204D02*
D03*
X561063Y109716D02*
D03*
X612063Y72716D02*
D03*
X509551Y105207D02*
D03*
X683063Y64717D02*
D03*
X655192Y234457D02*
D03*
X611063Y54716D02*
D03*
X655001Y52609D02*
D03*
X662181Y64617D02*
D03*
X653001Y150610D02*
D03*
X653063Y111716D02*
D03*
X689406Y161086D02*
D03*
X687130Y150943D02*
D03*
X685573Y111204D02*
D03*
X659157Y171826D02*
D03*
X682622Y162283D02*
D03*
X559063Y207716D02*
D03*
Y188716D02*
D03*
Y237717D02*
D03*
X536654Y233045D02*
D03*
X578973Y190625D02*
D03*
X573130Y190164D02*
D03*
X572063Y201716D02*
D03*
X570063Y205716D02*
D03*
X567063Y211717D02*
D03*
X564612Y207487D02*
D03*
X560063Y211717D02*
D03*
X555673Y211764D02*
D03*
X587063Y209717D02*
D03*
X660532Y200186D02*
D03*
X670063Y211717D02*
D03*
X670693Y201696D02*
D03*
X665893Y212972D02*
D03*
X663273Y202570D02*
D03*
X673814Y200443D02*
D03*
X677063Y201716D02*
D03*
X679063Y207716D02*
D03*
X686063Y205716D02*
D03*
X681063Y235717D02*
D03*
X678387Y106834D02*
D03*
X676063Y120717D02*
D03*
X673181Y123773D02*
D03*
X670765Y126556D02*
D03*
X679312Y128943D02*
D03*
X679063Y98716D02*
D03*
X678256Y118038D02*
D03*
X668063Y104717D02*
D03*
X665229Y106799D02*
D03*
X657063Y121716D02*
D03*
X641063Y100716D02*
D03*
X520063Y179717D02*
D03*
X524063Y177717D02*
D03*
X520190Y176379D02*
D03*
X524063Y172716D02*
D03*
X562540Y176191D02*
D03*
X515063Y168717D02*
D03*
X519063D02*
D03*
X522063Y165717D02*
D03*
X561039Y155310D02*
D03*
X521305Y159818D02*
D03*
X526297Y162575D02*
D03*
X548048Y149752D02*
D03*
X520063Y156717D02*
D03*
X509063Y150716D02*
D03*
X521354Y130232D02*
D03*
X520063Y134716D02*
D03*
X524063Y127717D02*
D03*
X516131Y125076D02*
D03*
X521063Y122716D02*
D03*
X516299Y120157D02*
D03*
X521177Y115757D02*
D03*
X525063Y112716D02*
D03*
X520063Y109716D02*
D03*
X679063Y53716D02*
D03*
X639063Y87717D02*
D03*
X644063Y40716D02*
D03*
X641063Y25717D02*
D03*
X616309Y8993D02*
D03*
X606588Y24589D02*
D03*
X608903Y28155D02*
D03*
X611468Y30658D02*
D03*
X622063Y30716D02*
D03*
X630063Y20717D02*
D03*
X631868Y8698D02*
D03*
X636063Y5717D02*
D03*
X670063Y19716D02*
D03*
X678063Y29717D02*
D03*
X681063Y25717D02*
D03*
X684063Y28716D02*
D03*
X681268Y31892D02*
D03*
X679063Y87717D02*
D03*
X688063Y52716D02*
D03*
X653366Y174020D02*
D03*
X659063Y124716D02*
D03*
X561980Y137338D02*
D03*
X562997Y103682D02*
D03*
X524311Y119876D02*
D03*
X653063Y194717D02*
D03*
X599110Y23717D02*
D03*
X645110Y61717D02*
D03*
X659110Y64717D02*
D03*
X655208Y245835D02*
D03*
X548964Y60157D02*
D03*
Y105457D02*
D03*
Y15417D02*
D03*
X521044Y145482D02*
D03*
X602808Y47635D02*
D03*
X595208Y120835D02*
D03*
X597720Y130243D02*
D03*
X597908Y159235D02*
D03*
X595508Y171935D02*
D03*
X653808Y206035D02*
D03*
X653508Y188535D02*
D03*
X653008Y219835D02*
D03*
X653738Y126962D02*
D03*
X599714Y149313D02*
D03*
X508643Y227589D02*
D03*
X513063Y252716D02*
D03*
X319063Y237717D02*
D03*
X316652Y246074D02*
D03*
X337063Y245717D02*
D03*
X344063Y231716D02*
D03*
X309063Y194717D02*
D03*
X350123Y195050D02*
D03*
X385123Y232050D02*
D03*
X387095Y244883D02*
D03*
X350426Y257354D02*
D03*
X357711Y246408D02*
D03*
X349970Y232766D02*
D03*
X382632Y194538D02*
D03*
X485573Y194204D02*
D03*
X481063Y245717D02*
D03*
X458524Y248835D02*
D03*
X487130Y233943D02*
D03*
X347778Y183870D02*
D03*
X360367Y181413D02*
D03*
X359769Y149439D02*
D03*
X310063Y183716D02*
D03*
X342493Y194577D02*
D03*
X319450Y188624D02*
D03*
X321063Y205716D02*
D03*
X321666Y198526D02*
D03*
X324159Y201695D02*
D03*
X319063Y209717D02*
D03*
X334466Y188119D02*
D03*
X331907Y202873D02*
D03*
X329348Y207432D02*
D03*
X326789Y211442D02*
D03*
X409063Y13716D02*
D03*
X443130Y52943D02*
D03*
X414524Y67835D02*
D03*
X364182Y132256D02*
D03*
X455063Y13716D02*
D03*
X310063Y137716D02*
D03*
X493406Y76086D02*
D03*
X441573Y13204D02*
D03*
X437063Y64717D02*
D03*
X487573Y13204D02*
D03*
X361063Y109716D02*
D03*
X412063Y72716D02*
D03*
X309551Y105207D02*
D03*
X483063Y64717D02*
D03*
X455192Y234457D02*
D03*
X411063Y54716D02*
D03*
X455001Y52609D02*
D03*
X462181Y64617D02*
D03*
X453063Y111716D02*
D03*
X489406Y161086D02*
D03*
X487130Y150943D02*
D03*
X485573Y111204D02*
D03*
X459157Y171826D02*
D03*
X482622Y162283D02*
D03*
X359063Y207716D02*
D03*
Y188716D02*
D03*
Y237717D02*
D03*
X336654Y233045D02*
D03*
X378973Y190625D02*
D03*
X373130Y190164D02*
D03*
X372063Y201716D02*
D03*
X370063Y205716D02*
D03*
X367063Y211717D02*
D03*
X364612Y207487D02*
D03*
X360063Y211717D02*
D03*
X355673Y211764D02*
D03*
X387063Y209717D02*
D03*
X389138Y224848D02*
D03*
X460532Y200186D02*
D03*
X470063Y211717D02*
D03*
X470693Y201696D02*
D03*
X465893Y212972D02*
D03*
X463273Y202570D02*
D03*
X473814Y200443D02*
D03*
X477063Y201716D02*
D03*
X479063Y207716D02*
D03*
X486063Y205716D02*
D03*
X481063Y235717D02*
D03*
X478387Y106834D02*
D03*
X476063Y120717D02*
D03*
X473181Y123773D02*
D03*
X470765Y126556D02*
D03*
X479312Y128943D02*
D03*
X479063Y98716D02*
D03*
X478256Y118038D02*
D03*
X468063Y104717D02*
D03*
X465229Y106799D02*
D03*
X457063Y121716D02*
D03*
X441063Y100716D02*
D03*
X320063Y179717D02*
D03*
X324063Y177717D02*
D03*
X320190Y176379D02*
D03*
X324063Y172716D02*
D03*
X362540Y176191D02*
D03*
X315063Y168717D02*
D03*
X319063D02*
D03*
X322063Y165717D02*
D03*
X361039Y155310D02*
D03*
X321305Y159818D02*
D03*
X326297Y162575D02*
D03*
X348048Y149752D02*
D03*
X320063Y156717D02*
D03*
X309063Y150716D02*
D03*
X321354Y130232D02*
D03*
X320063Y134716D02*
D03*
X324063Y127717D02*
D03*
X316131Y125076D02*
D03*
X321063Y122716D02*
D03*
X316299Y120157D02*
D03*
X321177Y115757D02*
D03*
X325063Y112716D02*
D03*
X320063Y109716D02*
D03*
X479063Y53716D02*
D03*
X439063Y87717D02*
D03*
X444063Y40716D02*
D03*
X441063Y25717D02*
D03*
X416309Y8993D02*
D03*
X406588Y24589D02*
D03*
X408903Y28155D02*
D03*
X411468Y30658D02*
D03*
X422063Y30716D02*
D03*
X430063Y20717D02*
D03*
X431868Y8698D02*
D03*
X436063Y5717D02*
D03*
X470063Y19716D02*
D03*
X478063Y29717D02*
D03*
X481063Y25717D02*
D03*
X484063Y28716D02*
D03*
X481268Y31892D02*
D03*
X488063Y52716D02*
D03*
X459063Y124716D02*
D03*
X361980Y137338D02*
D03*
X362997Y103682D02*
D03*
X324311Y119876D02*
D03*
X399110Y23717D02*
D03*
X445110Y61717D02*
D03*
X459110Y64717D02*
D03*
X455208Y245835D02*
D03*
X348964Y60157D02*
D03*
Y105457D02*
D03*
Y15417D02*
D03*
X321044Y145482D02*
D03*
X402808Y47635D02*
D03*
X395208Y120835D02*
D03*
X397720Y130243D02*
D03*
X397908Y159235D02*
D03*
X395508Y171935D02*
D03*
X453808Y206035D02*
D03*
X453508Y188535D02*
D03*
X453738Y126962D02*
D03*
X399714Y149313D02*
D03*
X308643Y227589D02*
D03*
X313063Y252716D02*
D03*
X113063D02*
D03*
X108643Y227589D02*
D03*
X199714Y149313D02*
D03*
X253738Y126962D02*
D03*
X253008Y219835D02*
D03*
X253508Y188535D02*
D03*
X253808Y206035D02*
D03*
X195508Y171935D02*
D03*
X197908Y159235D02*
D03*
X197721Y130243D02*
D03*
X195208Y120835D02*
D03*
X189808Y64735D02*
D03*
X202808Y47635D02*
D03*
X121044Y145482D02*
D03*
X148964Y15417D02*
D03*
Y105457D02*
D03*
Y60157D02*
D03*
X255208Y245835D02*
D03*
X259110Y64717D02*
D03*
X245110Y61717D02*
D03*
X199322Y38815D02*
D03*
X199110Y23717D02*
D03*
X253063Y194717D02*
D03*
X124311Y119876D02*
D03*
X162696Y48914D02*
D03*
X162997Y103682D02*
D03*
X161980Y137338D02*
D03*
X259063Y124716D02*
D03*
X253366Y174020D02*
D03*
X288063Y52716D02*
D03*
X279063Y87717D02*
D03*
X281268Y31892D02*
D03*
X284063Y28716D02*
D03*
X281063Y25717D02*
D03*
X278063Y29717D02*
D03*
X270063Y19716D02*
D03*
X236063Y5717D02*
D03*
X231868Y8698D02*
D03*
X230063Y20717D02*
D03*
X222063Y30716D02*
D03*
X211468Y30658D02*
D03*
X208903Y28155D02*
D03*
X206588Y24589D02*
D03*
X216309Y8993D02*
D03*
X241063Y25717D02*
D03*
X244063Y40716D02*
D03*
X239063Y87717D02*
D03*
X122063Y19716D02*
D03*
X124063Y22716D02*
D03*
X123079Y29726D02*
D03*
X119063Y32717D02*
D03*
X115019Y32597D02*
D03*
X127063Y37716D02*
D03*
X125950Y42210D02*
D03*
X157087Y56916D02*
D03*
X122063Y47717D02*
D03*
X279063Y53716D02*
D03*
X160751Y40522D02*
D03*
X159063Y23717D02*
D03*
X121063Y25717D02*
D03*
X120874Y40663D02*
D03*
X121086Y55767D02*
D03*
X161063Y72716D02*
D03*
X124063Y68717D02*
D03*
X120063Y64717D02*
D03*
X120667Y69511D02*
D03*
X124063Y73716D02*
D03*
X124056Y78840D02*
D03*
X119439Y79783D02*
D03*
X115142Y80195D02*
D03*
X124063Y88717D02*
D03*
X121063Y89717D02*
D03*
Y85716D02*
D03*
X119651Y98575D02*
D03*
X120063Y109716D02*
D03*
X125063Y112716D02*
D03*
X121177Y115757D02*
D03*
X116299Y120157D02*
D03*
X121063Y122716D02*
D03*
X116131Y125076D02*
D03*
X124063Y127717D02*
D03*
X120063Y134716D02*
D03*
X121354Y130232D02*
D03*
X109063Y150716D02*
D03*
X120063Y156717D02*
D03*
X148048Y149752D02*
D03*
X126297Y162575D02*
D03*
X121305Y159818D02*
D03*
X161039Y155310D02*
D03*
X122063Y165717D02*
D03*
X119063Y168717D02*
D03*
X115063D02*
D03*
X162540Y176191D02*
D03*
X124063Y172716D02*
D03*
X120190Y176379D02*
D03*
X124063Y177717D02*
D03*
X120063Y179717D02*
D03*
X241063Y100716D02*
D03*
X257063Y121716D02*
D03*
X265229Y106799D02*
D03*
X268063Y104717D02*
D03*
X278256Y118038D02*
D03*
X279063Y98716D02*
D03*
X279312Y128943D02*
D03*
X270765Y126556D02*
D03*
X273181Y123773D02*
D03*
X276063Y120717D02*
D03*
X278387Y106834D02*
D03*
X281063Y235717D02*
D03*
X286063Y205716D02*
D03*
X279063Y207716D02*
D03*
X277063Y201716D02*
D03*
X273814Y200443D02*
D03*
X263273Y202570D02*
D03*
X265893Y212972D02*
D03*
X270694Y201696D02*
D03*
X270063Y211717D02*
D03*
X260532Y200186D02*
D03*
X189138Y224848D02*
D03*
X187063Y209717D02*
D03*
X176063Y236717D02*
D03*
X155673Y211764D02*
D03*
X160063Y211717D02*
D03*
X164612Y207487D02*
D03*
X167063Y211717D02*
D03*
X170063Y205716D02*
D03*
X172063Y201716D02*
D03*
X173130Y190164D02*
D03*
X178973Y190625D02*
D03*
X136654Y233045D02*
D03*
X159063Y237717D02*
D03*
Y188716D02*
D03*
Y207716D02*
D03*
X282622Y162283D02*
D03*
X259157Y171826D02*
D03*
X285573Y111204D02*
D03*
X287130Y150943D02*
D03*
X289406Y161086D02*
D03*
X253063Y111716D02*
D03*
X253001Y150610D02*
D03*
X262181Y64617D02*
D03*
X151063Y45717D02*
D03*
X255001Y52609D02*
D03*
X211063Y54716D02*
D03*
X255192Y234457D02*
D03*
X110063Y92716D02*
D03*
X164181Y87256D02*
D03*
X283063Y64717D02*
D03*
X109551Y105207D02*
D03*
X161063Y109716D02*
D03*
X287573Y13204D02*
D03*
X109551Y15207D02*
D03*
X110063Y47717D02*
D03*
X164181Y42256D02*
D03*
X237063Y64717D02*
D03*
X109551Y60207D02*
D03*
X241573Y13204D02*
D03*
X293406Y76086D02*
D03*
X110063Y137716D02*
D03*
X255063Y13716D02*
D03*
X164181Y132256D02*
D03*
X214524Y67835D02*
D03*
X243130Y52943D02*
D03*
X209063Y13716D02*
D03*
X126789Y211442D02*
D03*
X129348Y207432D02*
D03*
X131907Y202873D02*
D03*
X134466Y188119D02*
D03*
X116548Y198526D02*
D03*
X119063Y209717D02*
D03*
X124159Y201695D02*
D03*
X121666Y198526D02*
D03*
X121063Y205716D02*
D03*
X119450Y188624D02*
D03*
X142493Y194577D02*
D03*
X110063Y183716D02*
D03*
X159769Y149439D02*
D03*
X160366Y181413D02*
D03*
X147778Y183870D02*
D03*
X287130Y233943D02*
D03*
X258524Y248835D02*
D03*
X281063Y245717D02*
D03*
X285573Y194204D02*
D03*
X182632Y194538D02*
D03*
X149969Y232766D02*
D03*
X157711Y246408D02*
D03*
X150426Y257354D02*
D03*
X178123Y246050D02*
D03*
X187095Y244883D02*
D03*
X185123Y232050D02*
D03*
X150123Y195050D02*
D03*
X109063Y194717D02*
D03*
X144063Y231716D02*
D03*
X137063Y245717D02*
D03*
X116651Y246074D02*
D03*
X119063Y237717D02*
D03*
X640344Y312087D02*
D03*
X843948Y304403D02*
D03*
X840983Y312187D02*
D03*
X730580Y399038D02*
D03*
X730282Y395299D02*
D03*
X730522Y391441D02*
D03*
X733483Y311887D02*
D03*
X133093Y312047D02*
D03*
X830183Y398886D02*
D03*
X321656Y393974D02*
D03*
X321676Y389936D02*
D03*
X321546Y398310D02*
D03*
X452675Y388823D02*
D03*
X330446Y394929D02*
D03*
X330522Y391441D02*
D03*
X330580Y399038D02*
D03*
X253042Y388671D02*
D03*
X533023Y308686D02*
D03*
X640483Y388886D02*
D03*
X337613Y384817D02*
D03*
X333083Y308296D02*
D03*
X240693Y388487D02*
D03*
X840943Y388387D02*
D03*
X629933Y392827D02*
D03*
X640437Y383489D02*
D03*
X240753Y383257D02*
D03*
X841083Y383787D02*
D03*
X577143Y387887D02*
D03*
X176951Y384897D02*
D03*
X777683Y387986D02*
D03*
X530360Y391886D02*
D03*
X530233Y395506D02*
D03*
X530419Y399483D02*
D03*
X640693Y376116D02*
D03*
X440568Y388761D02*
D03*
X430483Y392667D02*
D03*
X537600Y385913D02*
D03*
X240863Y376136D02*
D03*
X841083Y375987D02*
D03*
X550303Y325867D02*
D03*
X556983Y349917D02*
D03*
X441113Y383137D02*
D03*
X443589Y303745D02*
D03*
X350673Y325377D02*
D03*
X157013Y349637D02*
D03*
X757583Y349587D02*
D03*
X131218Y391764D02*
D03*
X131337Y395324D02*
D03*
X131277Y399361D02*
D03*
X630493Y398687D02*
D03*
X566293Y315686D02*
D03*
X377577Y387674D02*
D03*
X521494Y394419D02*
D03*
X521536Y390362D02*
D03*
X521287Y398343D02*
D03*
X440723Y312647D02*
D03*
X137613Y385327D02*
D03*
X166703Y315606D02*
D03*
X766483Y315886D02*
D03*
X440883Y375867D02*
D03*
X230243Y392717D02*
D03*
X532843Y312406D02*
D03*
X356093Y349906D02*
D03*
X122353Y394298D02*
D03*
X122931Y390163D02*
D03*
X122464Y398092D02*
D03*
X430413Y398296D02*
D03*
X333123Y311607D02*
D03*
X243856Y304429D02*
D03*
X366473Y315297D02*
D03*
X853054Y388812D02*
D03*
X240533Y312837D02*
D03*
X133483Y308237D02*
D03*
X733683Y308686D02*
D03*
X721801Y390434D02*
D03*
X721656Y393974D02*
D03*
X721542Y397495D02*
D03*
X737283Y385386D02*
D03*
X230523Y398777D02*
D03*
X150448Y325799D02*
D03*
X830483Y393087D02*
D03*
X750583Y325387D02*
D03*
X793528Y378894D02*
D03*
X843490Y329451D02*
D03*
X842983Y359000D02*
D03*
X642005Y327940D02*
D03*
X642252Y358248D02*
D03*
X441011Y327239D02*
D03*
X441999Y358141D02*
D03*
X208315Y362537D02*
D03*
X849063Y367717D02*
D03*
X609858Y365052D02*
D03*
X408544Y364041D02*
D03*
X252063Y369717D02*
D03*
X242182Y359113D02*
D03*
X241733Y327915D02*
D03*
X133583Y318186D02*
D03*
X143002Y313557D02*
D03*
X149883Y321987D02*
D03*
X148029Y341753D02*
D03*
X151204Y358564D02*
D03*
X149483Y369486D02*
D03*
X149160Y377077D02*
D03*
X148813Y383140D02*
D03*
X148959Y392897D02*
D03*
X157370Y359331D02*
D03*
X163883Y338087D02*
D03*
X167063Y345717D02*
D03*
X165303Y357747D02*
D03*
X198205Y329509D02*
D03*
X208128Y313139D02*
D03*
X221471Y322090D02*
D03*
X221707Y374281D02*
D03*
X222021Y393054D02*
D03*
X133883Y324486D02*
D03*
X143073Y387450D02*
D03*
X148983Y308314D02*
D03*
X150983Y331587D02*
D03*
X152115Y387339D02*
D03*
X158989Y317106D02*
D03*
X174683Y314586D02*
D03*
X182457Y387992D02*
D03*
X192299D02*
D03*
X223025Y308340D02*
D03*
X222331Y332909D02*
D03*
X222088Y356568D02*
D03*
X221481Y386382D02*
D03*
X137448Y326866D02*
D03*
X163063Y352716D02*
D03*
X217883Y312787D02*
D03*
X216643Y383506D02*
D03*
X178407Y315125D02*
D03*
X160803Y387992D02*
D03*
X209863Y373127D02*
D03*
X201678Y386298D02*
D03*
X209229Y387090D02*
D03*
X219113Y380948D02*
D03*
X718686Y342348D02*
D03*
X349993Y321726D02*
D03*
X349270Y376817D02*
D03*
X348923Y382880D02*
D03*
X419223Y380688D02*
D03*
X417993Y312526D02*
D03*
X352225Y387079D02*
D03*
X616313Y383506D02*
D03*
X548613Y383225D02*
D03*
X548960Y377162D02*
D03*
X549683Y322072D02*
D03*
X617683Y312872D02*
D03*
X618913Y381033D02*
D03*
X551915Y387424D02*
D03*
X748913Y383240D02*
D03*
X752215Y387439D02*
D03*
X749983Y322087D02*
D03*
X749260Y377177D02*
D03*
X819213Y381048D02*
D03*
X817983Y312887D02*
D03*
X364293Y414326D02*
D03*
X197683Y415087D02*
D03*
X397793Y414826D02*
D03*
X802812Y415342D02*
D03*
X755825Y357415D02*
D03*
X400613Y372687D02*
D03*
X592103Y379187D02*
D03*
X164183Y414586D02*
D03*
X372293Y414326D02*
D03*
X182183Y414887D02*
D03*
X797783Y415187D02*
D03*
X355835Y357055D02*
D03*
X758383Y414686D02*
D03*
X764283D02*
D03*
X402822Y414982D02*
D03*
X800183Y373287D02*
D03*
X158283Y414586D02*
D03*
X172183D02*
D03*
X382293Y414627D02*
D03*
X772283Y414686D02*
D03*
X782283Y414987D02*
D03*
X358393Y414326D02*
D03*
X202712Y415242D02*
D03*
X801778Y386398D02*
D03*
X748129Y341853D02*
D03*
X808228Y313239D02*
D03*
X774783Y314686D02*
D03*
X749583Y369586D02*
D03*
X821807Y374381D02*
D03*
X822188Y356668D02*
D03*
X822431Y333009D02*
D03*
X782557Y388092D02*
D03*
X760904D02*
D03*
X759089Y317206D02*
D03*
X602512Y415327D02*
D03*
X597483Y415171D02*
D03*
X581983Y414971D02*
D03*
X571983Y414672D02*
D03*
X563983D02*
D03*
X558083D02*
D03*
X560604Y388077D02*
D03*
X582257D02*
D03*
X601478Y386383D02*
D03*
X621507Y374366D02*
D03*
X621888Y356652D02*
D03*
X622131Y332994D02*
D03*
X607928Y313224D02*
D03*
X574483Y314671D02*
D03*
X558789Y317191D02*
D03*
X547829Y341838D02*
D03*
X549283Y369571D02*
D03*
X557081Y359695D02*
D03*
X550584Y333536D02*
D03*
X751284Y333583D02*
D03*
X360913Y387732D02*
D03*
X401788Y386038D02*
D03*
X408238Y312879D02*
D03*
X422198Y356308D02*
D03*
X422441Y332649D02*
D03*
X382567Y387732D02*
D03*
X374793Y314327D02*
D03*
X359099Y316846D02*
D03*
X351093Y331327D02*
D03*
X421816Y374021D02*
D03*
X349593Y369227D02*
D03*
X348139Y341493D02*
D03*
X422131Y392794D02*
D03*
X621821Y393139D02*
D03*
X822121Y393154D02*
D03*
X809329Y387190D02*
D03*
X778507Y315225D02*
D03*
X821581Y386482D02*
D03*
X821571Y322189D02*
D03*
X749059Y392997D02*
D03*
X743102Y313657D02*
D03*
X823125Y308440D02*
D03*
X749083Y308414D02*
D03*
X743173Y387550D02*
D03*
X548759Y392982D02*
D03*
X609029Y387175D02*
D03*
X621281Y386467D02*
D03*
X621271Y322175D02*
D03*
X622825Y308425D02*
D03*
X578207Y315210D02*
D03*
X548782Y308399D02*
D03*
X542802Y313642D02*
D03*
X542873Y387535D02*
D03*
X409339Y386830D02*
D03*
X378517Y314865D02*
D03*
X421591Y386122D02*
D03*
X423135Y308080D02*
D03*
X349093Y308054D02*
D03*
X343183Y387190D02*
D03*
X421581Y321830D02*
D03*
X349069Y392637D02*
D03*
X343112Y313297D02*
D03*
X333693Y317927D02*
D03*
X349593Y357416D02*
D03*
X363993Y337826D02*
D03*
X367366Y345244D02*
D03*
X367063Y349716D02*
D03*
X398315Y329249D02*
D03*
X333993Y324226D02*
D03*
X363063Y355716D02*
D03*
X328343Y320107D02*
D03*
X319693Y342326D02*
D03*
X362063Y351716D02*
D03*
X328303Y324937D02*
D03*
X392409Y387732D02*
D03*
X409973Y372867D02*
D03*
X772063Y349716D02*
D03*
X768063Y346716D02*
D03*
X763699Y358595D02*
D03*
X768063Y353716D02*
D03*
X567063Y354716D02*
D03*
X572178Y345575D02*
D03*
X569063Y350716D02*
D03*
X566063Y358717D02*
D03*
X128233Y320367D02*
D03*
X128193Y325197D02*
D03*
X119583Y342586D02*
D03*
X563683Y338172D02*
D03*
X598005Y329594D02*
D03*
X609663Y373212D02*
D03*
X592100Y388077D02*
D03*
X549283Y357761D02*
D03*
X527993Y325282D02*
D03*
X533683Y324571D02*
D03*
X528033Y320451D02*
D03*
X533383Y318271D02*
D03*
X519383Y342671D02*
D03*
X728293Y325296D02*
D03*
X733683Y318286D02*
D03*
X733983Y324587D02*
D03*
X749583Y357775D02*
D03*
X792400Y388092D02*
D03*
X728333Y320466D02*
D03*
X798305Y329609D02*
D03*
X814282Y361538D02*
D03*
X809963Y373226D02*
D03*
X763983Y338187D02*
D03*
D126*
X453123Y183184D02*
D03*
X453063Y200716D02*
D03*
X367000Y100000D02*
D03*
X384468Y216811D02*
D03*
X378075Y201219D02*
D03*
X583495Y216658D02*
D03*
X690878Y253214D02*
D03*
X890481Y251467D02*
D03*
X783302Y216653D02*
D03*
X778244Y201484D02*
D03*
X578085Y201130D02*
D03*
X489875Y251763D02*
D03*
X290090Y251592D02*
D03*
X44050Y37677D02*
D03*
X39986Y70331D02*
D03*
X42457Y79937D02*
D03*
X368822Y92545D02*
D03*
X716063Y92716D02*
D03*
X715537Y58936D02*
D03*
X768739Y54892D02*
D03*
X768901Y94126D02*
D03*
X743271Y59044D02*
D03*
X750545Y82088D02*
D03*
X716063Y64717D02*
D03*
X731978Y88554D02*
D03*
X732489Y58406D02*
D03*
X741253Y90531D02*
D03*
X516063Y92716D02*
D03*
X515537Y58936D02*
D03*
X568739Y54892D02*
D03*
X568901Y94126D02*
D03*
X543271Y59044D02*
D03*
X550545Y82088D02*
D03*
X516063Y64717D02*
D03*
X531978Y88554D02*
D03*
X532489Y58406D02*
D03*
X541253Y90531D02*
D03*
X316063Y92716D02*
D03*
X315537Y58936D02*
D03*
X368739Y54892D02*
D03*
X343271Y59044D02*
D03*
X350545Y82088D02*
D03*
X316063Y64717D02*
D03*
X331978Y88554D02*
D03*
X332489Y58406D02*
D03*
X341252Y90531D02*
D03*
X716063Y47717D02*
D03*
X715537Y13936D02*
D03*
X766833Y9066D02*
D03*
X768155Y47521D02*
D03*
X743271Y14044D02*
D03*
X750545Y37088D02*
D03*
X716063Y19716D02*
D03*
X731925Y42464D02*
D03*
X732489Y13406D02*
D03*
X741175Y45874D02*
D03*
X516063Y47717D02*
D03*
X515537Y13936D02*
D03*
X566833Y9066D02*
D03*
X568155Y47521D02*
D03*
X543271Y14044D02*
D03*
X550545Y37088D02*
D03*
X516063Y19716D02*
D03*
X531925Y42464D02*
D03*
X532489Y13406D02*
D03*
X541175Y45874D02*
D03*
X316063Y47717D02*
D03*
X315537Y13936D02*
D03*
X366833Y9066D02*
D03*
X368155Y47521D02*
D03*
X343271Y14044D02*
D03*
X350545Y37088D02*
D03*
X316063Y19716D02*
D03*
X331925Y42464D02*
D03*
X332489Y13406D02*
D03*
X341175Y45874D02*
D03*
X168901Y94126D02*
D03*
X451554Y378490D02*
D03*
X65558Y415684D02*
D03*
X526880Y305125D02*
D03*
X71961Y416032D02*
D03*
X5715Y229901D02*
D03*
X5915Y211600D02*
D03*
X6215Y199301D02*
D03*
X6199Y272206D02*
D03*
X6115Y186100D02*
D03*
X105324Y406378D02*
D03*
X76494Y286216D02*
D03*
Y275996D02*
D03*
X65806Y334409D02*
D03*
X60704Y286216D02*
D03*
Y275996D02*
D03*
X28184Y261809D02*
D03*
X19134Y157686D02*
D03*
X26942Y107643D02*
D03*
X11272Y107953D02*
D03*
X22961Y399031D02*
D03*
X13961D02*
D03*
X105274Y377988D02*
D03*
X43922Y111563D02*
D03*
X26315Y202100D02*
D03*
X19324Y143447D02*
D03*
X35357Y122255D02*
D03*
X27092Y98973D02*
D03*
X57214Y150666D02*
D03*
X106592Y391057D02*
D03*
X47624Y223226D02*
D03*
X40868Y258194D02*
D03*
X16015Y219701D02*
D03*
X15715Y205201D02*
D03*
X17961Y392032D02*
D03*
X8204Y157817D02*
D03*
X10835Y391881D02*
D03*
X73344Y319586D02*
D03*
X63214Y319766D02*
D03*
X55229Y255461D02*
D03*
X40868Y263734D02*
D03*
X41242Y105283D02*
D03*
X30935Y128700D02*
D03*
X22772Y98973D02*
D03*
X7198Y240224D02*
D03*
X8144Y143447D02*
D03*
X745063Y225716D02*
D03*
X712068Y215748D02*
D03*
X743379Y216174D02*
D03*
X709063Y200716D02*
D03*
X786123Y202050D02*
D03*
X750123Y201050D02*
D03*
X786123Y226050D02*
D03*
X753123Y217050D02*
D03*
X853063Y200716D02*
D03*
X887373Y217142D02*
D03*
X886844Y200190D02*
D03*
X886736Y227925D02*
D03*
X858316Y216578D02*
D03*
X732489Y149406D02*
D03*
X716063Y155717D02*
D03*
X732063Y180717D02*
D03*
X745063Y179717D02*
D03*
X769530Y181657D02*
D03*
X716063Y183716D02*
D03*
X742929Y201231D02*
D03*
X814316Y35578D02*
D03*
X888736Y46925D02*
D03*
X843373Y36142D02*
D03*
X731925Y132464D02*
D03*
X883063Y19716D02*
D03*
X732489Y103406D02*
D03*
X860316Y35578D02*
D03*
X889373Y36142D02*
D03*
X716063Y109716D02*
D03*
X842844Y19190D02*
D03*
X842736Y46925D02*
D03*
X750545Y127088D02*
D03*
X809063Y19716D02*
D03*
X888844Y19190D02*
D03*
X743271Y104044D02*
D03*
X855063Y19716D02*
D03*
X716063Y137716D02*
D03*
X896157Y83486D02*
D03*
X837063Y19716D02*
D03*
X715537Y103936D02*
D03*
X855063Y224716D02*
D03*
X811063Y44717D02*
D03*
X859483Y47533D02*
D03*
X741295Y135479D02*
D03*
X853063Y117717D02*
D03*
X886844Y117190D02*
D03*
X886736Y144925D02*
D03*
X887373Y134142D02*
D03*
X881063Y119717D02*
D03*
X856118Y145442D02*
D03*
X855824Y133408D02*
D03*
X751857Y226289D02*
D03*
X889324Y170494D02*
D03*
X863063Y239717D02*
D03*
X883642Y201369D02*
D03*
X742065Y149671D02*
D03*
X716075Y149335D02*
D03*
X816548Y51712D02*
D03*
X749916Y263363D02*
D03*
X787063Y250716D02*
D03*
X853123Y183184D02*
D03*
X767063Y145717D02*
D03*
X769063Y136716D02*
D03*
Y101716D02*
D03*
X813110Y63717D02*
D03*
X845063Y70717D02*
D03*
X855432Y71230D02*
D03*
X857580Y252791D02*
D03*
X714063Y231716D02*
D03*
X713063Y247716D02*
D03*
X545063Y225716D02*
D03*
X512068Y215748D02*
D03*
X543379Y216174D02*
D03*
X509063Y200716D02*
D03*
X586123Y202050D02*
D03*
X550123Y201050D02*
D03*
X586123Y226050D02*
D03*
X553123Y217050D02*
D03*
X653063Y200716D02*
D03*
X687373Y217142D02*
D03*
X686844Y200190D02*
D03*
X686736Y227925D02*
D03*
X658316Y216578D02*
D03*
X532489Y149406D02*
D03*
X516063Y155717D02*
D03*
X532063Y180717D02*
D03*
X545063Y179717D02*
D03*
X569530Y181657D02*
D03*
X516063Y183716D02*
D03*
X542929Y201231D02*
D03*
X614316Y35578D02*
D03*
X688736Y46925D02*
D03*
X643373Y36142D02*
D03*
X531925Y132464D02*
D03*
X683063Y19716D02*
D03*
X532489Y103406D02*
D03*
X660316Y35578D02*
D03*
X689373Y36142D02*
D03*
X516063Y109716D02*
D03*
X642844Y19190D02*
D03*
X642736Y46925D02*
D03*
X550545Y127088D02*
D03*
X609063Y19716D02*
D03*
X688844Y19190D02*
D03*
X543271Y104044D02*
D03*
X655063Y19716D02*
D03*
X516063Y137716D02*
D03*
X696158Y83486D02*
D03*
X637063Y19716D02*
D03*
X515537Y103936D02*
D03*
X655063Y224716D02*
D03*
X611063Y44717D02*
D03*
X659483Y47533D02*
D03*
X541295Y135479D02*
D03*
X653063Y117717D02*
D03*
X686844Y117190D02*
D03*
X686736Y144925D02*
D03*
X687373Y134142D02*
D03*
X681063Y119717D02*
D03*
X656118Y145442D02*
D03*
X655825Y133408D02*
D03*
X551857Y226289D02*
D03*
X689324Y170494D02*
D03*
X663063Y239717D02*
D03*
X683642Y201369D02*
D03*
X542065Y149671D02*
D03*
X516075Y149335D02*
D03*
X616548Y51712D02*
D03*
X549916Y263363D02*
D03*
X587063Y250716D02*
D03*
X653123Y183184D02*
D03*
X567063Y145717D02*
D03*
X569063Y136716D02*
D03*
Y101716D02*
D03*
X613110Y63717D02*
D03*
X645063Y70717D02*
D03*
X655432Y71230D02*
D03*
X657580Y252791D02*
D03*
X514063Y231716D02*
D03*
X513063Y247716D02*
D03*
X345063Y225716D02*
D03*
X312068Y215748D02*
D03*
X343379Y216174D02*
D03*
X309063Y200716D02*
D03*
X386123Y202050D02*
D03*
X350123Y201050D02*
D03*
X386123Y226050D02*
D03*
X353123Y217050D02*
D03*
X487373Y217142D02*
D03*
X486844Y200190D02*
D03*
X486736Y227925D02*
D03*
X458316Y216578D02*
D03*
X332489Y149406D02*
D03*
X316063Y155717D02*
D03*
X332063Y180717D02*
D03*
X345063Y179717D02*
D03*
X369530Y181657D02*
D03*
X316063Y183716D02*
D03*
X342929Y201231D02*
D03*
X414316Y35578D02*
D03*
X488736Y46925D02*
D03*
X443373Y36142D02*
D03*
X331925Y132464D02*
D03*
X483063Y19716D02*
D03*
X332489Y103406D02*
D03*
X460316Y35578D02*
D03*
X489373Y36142D02*
D03*
X316063Y109716D02*
D03*
X442844Y19190D02*
D03*
X442736Y46925D02*
D03*
X350545Y127088D02*
D03*
X409063Y19716D02*
D03*
X488844Y19190D02*
D03*
X343271Y104044D02*
D03*
X455063Y19716D02*
D03*
X316063Y137716D02*
D03*
X496158Y83486D02*
D03*
X437063Y19716D02*
D03*
X315537Y103936D02*
D03*
X455063Y224716D02*
D03*
X411063Y44717D02*
D03*
X459483Y47533D02*
D03*
X341295Y135479D02*
D03*
X453063Y117717D02*
D03*
X486844Y117190D02*
D03*
X486736Y144925D02*
D03*
X487373Y134142D02*
D03*
X481063Y119717D02*
D03*
X456118Y145442D02*
D03*
X455825Y133408D02*
D03*
X351857Y226289D02*
D03*
X489324Y170494D02*
D03*
X463063Y239717D02*
D03*
X483642Y201369D02*
D03*
X342065Y149671D02*
D03*
X316075Y149335D02*
D03*
X416548Y51712D02*
D03*
X349916Y263363D02*
D03*
X387063Y250716D02*
D03*
X367063Y145717D02*
D03*
X369063Y136716D02*
D03*
X413110Y63717D02*
D03*
X445063Y70717D02*
D03*
X455432Y71230D02*
D03*
X457580Y252791D02*
D03*
X314063Y231716D02*
D03*
X313063Y247716D02*
D03*
X327205Y305156D02*
D03*
X113063Y247716D02*
D03*
X114063Y231716D02*
D03*
X257580Y252791D02*
D03*
X255432Y71230D02*
D03*
X245063Y70717D02*
D03*
X213110Y63717D02*
D03*
X168155Y47521D02*
D03*
X168739Y54892D02*
D03*
X169063Y101716D02*
D03*
Y136716D02*
D03*
X167063Y145717D02*
D03*
X253123Y183184D02*
D03*
X187063Y250716D02*
D03*
X149916Y263363D02*
D03*
X216548Y51712D02*
D03*
X131977Y88554D02*
D03*
X116075Y149335D02*
D03*
X142065Y149671D02*
D03*
X283642Y201369D02*
D03*
X263063Y239717D02*
D03*
X289324Y170494D02*
D03*
X184503Y216937D02*
D03*
X151857Y226289D02*
D03*
X255824Y133408D02*
D03*
X256118Y145442D02*
D03*
X281063Y119717D02*
D03*
X287373Y134142D02*
D03*
X286736Y144925D02*
D03*
X286844Y117190D02*
D03*
X253063Y117717D02*
D03*
X141295Y135479D02*
D03*
X141253Y90531D02*
D03*
X141174Y45874D02*
D03*
X259483Y47533D02*
D03*
X211063Y44717D02*
D03*
X255063Y224716D02*
D03*
X115537Y103936D02*
D03*
X150545Y37088D02*
D03*
X132489Y58406D02*
D03*
X237063Y19716D02*
D03*
X296158Y83486D02*
D03*
X116063Y137716D02*
D03*
X255063Y19716D02*
D03*
X132489Y13406D02*
D03*
X143272Y104044D02*
D03*
X131925Y42464D02*
D03*
X288844Y19190D02*
D03*
X209063Y19716D02*
D03*
X150545Y127088D02*
D03*
X116063Y19716D02*
D03*
X242736Y46925D02*
D03*
X115537Y58936D02*
D03*
X242844Y19190D02*
D03*
X116063Y92716D02*
D03*
Y109716D02*
D03*
X289373Y36142D02*
D03*
X143272Y59044D02*
D03*
X260316Y35578D02*
D03*
X166833Y9066D02*
D03*
X150545Y82088D02*
D03*
X132489Y103406D02*
D03*
X283063Y19716D02*
D03*
X131925Y132464D02*
D03*
X115537Y13936D02*
D03*
X116063Y47717D02*
D03*
Y64717D02*
D03*
X243373Y36142D02*
D03*
X143272Y14044D02*
D03*
X288736Y46925D02*
D03*
X214316Y35578D02*
D03*
X142929Y201231D02*
D03*
X116063Y183716D02*
D03*
X169530Y181657D02*
D03*
X145063Y179717D02*
D03*
X132063Y180717D02*
D03*
X116063Y155717D02*
D03*
X132489Y149406D02*
D03*
X258316Y216578D02*
D03*
X286736Y227925D02*
D03*
X286844Y200190D02*
D03*
X287373Y217142D02*
D03*
X253063Y200716D02*
D03*
X178123Y201050D02*
D03*
X153123Y217050D02*
D03*
X186123Y226050D02*
D03*
X150123Y201050D02*
D03*
X186123Y202050D02*
D03*
X109063Y200716D02*
D03*
X143379Y216174D02*
D03*
X112068Y215748D02*
D03*
X145063Y225716D02*
D03*
X651739Y378821D02*
D03*
X611236Y303273D02*
D03*
X831583Y311887D02*
D03*
X351693Y314667D02*
D03*
X128593Y304926D02*
D03*
X582023Y379217D02*
D03*
X850683Y383686D02*
D03*
X231403Y304458D02*
D03*
X421113Y368286D02*
D03*
X551413Y314947D02*
D03*
X756383Y320387D02*
D03*
X809483Y381786D02*
D03*
X347063Y387717D02*
D03*
X173423Y323477D02*
D03*
X601273Y378077D02*
D03*
X240197Y393102D02*
D03*
X578363Y323766D02*
D03*
X425063Y311717D02*
D03*
X820383Y303386D02*
D03*
X831683Y304686D02*
D03*
X160833Y324897D02*
D03*
X615813Y331996D02*
D03*
X147363Y389216D02*
D03*
X622343Y313557D02*
D03*
X422063Y302716D02*
D03*
X815883Y371186D02*
D03*
X440255Y398217D02*
D03*
X840183Y392787D02*
D03*
X415953Y370786D02*
D03*
X155753Y341717D02*
D03*
X606603Y320777D02*
D03*
X142933Y307456D02*
D03*
X615423Y322127D02*
D03*
X727483Y305386D02*
D03*
X406883Y320457D02*
D03*
X250823Y378806D02*
D03*
X440173Y392437D02*
D03*
X747003Y388196D02*
D03*
X155643Y368046D02*
D03*
X615303Y354626D02*
D03*
X220843Y368437D02*
D03*
X378703Y323376D02*
D03*
X626753Y390306D02*
D03*
X772752Y323720D02*
D03*
X538937Y389979D02*
D03*
X431583Y311627D02*
D03*
X742883Y307487D02*
D03*
X160833Y379567D02*
D03*
X416420Y331554D02*
D03*
X566253Y324917D02*
D03*
X156613Y333566D02*
D03*
X525663Y314726D02*
D03*
X760883Y324987D02*
D03*
X609073Y381657D02*
D03*
X820783Y368387D02*
D03*
X373353Y323206D02*
D03*
X182313Y379307D02*
D03*
X550763Y350217D02*
D03*
X377031Y378992D02*
D03*
X339253Y389207D02*
D03*
X151703Y314866D02*
D03*
X555043Y376477D02*
D03*
X756083Y342186D02*
D03*
X639932Y398585D02*
D03*
X756383Y333587D02*
D03*
X526823Y383336D02*
D03*
X355073Y375786D02*
D03*
X201573Y377687D02*
D03*
X178213Y323877D02*
D03*
X755783Y368486D02*
D03*
X535033Y398436D02*
D03*
X751883Y314787D02*
D03*
X355223Y368127D02*
D03*
X215713Y331686D02*
D03*
X576973Y379167D02*
D03*
X222473Y313557D02*
D03*
X556243Y326506D02*
D03*
X760983Y379587D02*
D03*
X542863Y396446D02*
D03*
X778883Y323987D02*
D03*
X127013Y383436D02*
D03*
X360623Y379696D02*
D03*
X206853Y321037D02*
D03*
X650146Y383241D02*
D03*
X215703Y322357D02*
D03*
X556243Y320427D02*
D03*
X782283Y379287D02*
D03*
X631113Y312157D02*
D03*
X340683Y308977D02*
D03*
X827283Y313686D02*
D03*
X215473Y354467D02*
D03*
X351023Y349906D02*
D03*
X228963Y388316D02*
D03*
X426893Y389936D02*
D03*
X801583Y377786D02*
D03*
X139253Y389067D02*
D03*
X356403Y326307D02*
D03*
X361204Y324737D02*
D03*
X166473Y324676D02*
D03*
X125913Y314857D02*
D03*
X615843Y371066D02*
D03*
X815883Y332187D02*
D03*
X415403Y354066D02*
D03*
X209303Y381607D02*
D03*
X335303Y397746D02*
D03*
X631513Y304987D02*
D03*
X815683Y322287D02*
D03*
X356233Y320197D02*
D03*
X150913Y350097D02*
D03*
X415793Y322096D02*
D03*
X326913Y382997D02*
D03*
X155303Y376147D02*
D03*
X807083Y321186D02*
D03*
X240143Y398606D02*
D03*
X640033Y393031D02*
D03*
X829183Y388387D02*
D03*
X177213Y379307D02*
D03*
X450493Y383056D02*
D03*
X572933Y323716D02*
D03*
X382193Y378996D02*
D03*
X815483Y354587D02*
D03*
X135003Y398317D02*
D03*
X546903Y389557D02*
D03*
X250433Y383147D02*
D03*
X738983Y389286D02*
D03*
X727183Y383887D02*
D03*
X156273Y326606D02*
D03*
X560723Y324917D02*
D03*
X366723Y324527D02*
D03*
X766683Y325186D02*
D03*
X143098Y396046D02*
D03*
X431423Y304666D02*
D03*
X542783Y307747D02*
D03*
X755583Y376287D02*
D03*
X840270Y398591D02*
D03*
X343193Y396006D02*
D03*
X156213Y320457D02*
D03*
X555543Y341597D02*
D03*
X749383Y349786D02*
D03*
X410948Y381493D02*
D03*
X231573Y311787D02*
D03*
X620613Y368356D02*
D03*
X735283Y398087D02*
D03*
X356233Y333447D02*
D03*
X222485Y302862D02*
D03*
X555443Y368203D02*
D03*
X556593Y333476D02*
D03*
X325813Y315096D02*
D03*
X756283Y326786D02*
D03*
X401573Y377747D02*
D03*
X743283Y396087D02*
D03*
X216143Y370956D02*
D03*
X355753Y341487D02*
D03*
X560463Y379767D02*
D03*
X777283Y379187D02*
D03*
X407693Y377926D02*
D03*
X214283Y335787D02*
D03*
X164741Y387992D02*
D03*
X182457Y313230D02*
D03*
X152983Y398987D02*
D03*
X219583Y359187D02*
D03*
X219429Y377024D02*
D03*
X160803Y313230D02*
D03*
X172615Y387992D02*
D03*
X202142Y313230D02*
D03*
X200403Y372867D02*
D03*
X207583Y378186D02*
D03*
X192522Y378744D02*
D03*
X188363Y387992D02*
D03*
X137583Y381587D02*
D03*
X155483Y382187D02*
D03*
X212083Y315087D02*
D03*
X319393Y333627D02*
D03*
X323893Y318527D02*
D03*
X355593Y381926D02*
D03*
X382567Y312970D02*
D03*
X388393Y414527D02*
D03*
X414393Y335526D02*
D03*
X419693Y358927D02*
D03*
X419539Y376764D02*
D03*
X323853Y324567D02*
D03*
X364850Y387732D02*
D03*
X372725D02*
D03*
X388473D02*
D03*
X412193Y314826D02*
D03*
X360913Y312970D02*
D03*
X337693Y381327D02*
D03*
X353093Y398727D02*
D03*
X402252Y312970D02*
D03*
X392562Y378826D02*
D03*
X600003Y373096D02*
D03*
X123743Y324827D02*
D03*
X123783Y318787D02*
D03*
X188283Y414786D02*
D03*
X119283Y333887D02*
D03*
X523543Y324911D02*
D03*
X523583Y318871D02*
D03*
X619229Y377109D02*
D03*
X607383Y378272D02*
D03*
X588163Y388077D02*
D03*
X572414D02*
D03*
X564540D02*
D03*
X552783Y399072D02*
D03*
X555283Y382272D02*
D03*
X537383Y381672D02*
D03*
X619383Y359272D02*
D03*
X614083Y335872D02*
D03*
X611883Y315172D02*
D03*
X601942Y313315D02*
D03*
X582257D02*
D03*
X560604D02*
D03*
X588083Y414872D02*
D03*
X519083Y333972D02*
D03*
X719383Y333986D02*
D03*
X764841Y388092D02*
D03*
X772715D02*
D03*
X788462D02*
D03*
X788383Y414887D02*
D03*
X814383Y335887D02*
D03*
X760904Y313330D02*
D03*
X782557D02*
D03*
X807683Y378287D02*
D03*
X853283Y376386D02*
D03*
X723883Y318886D02*
D03*
X723843Y324926D02*
D03*
X737683Y381686D02*
D03*
X755583Y382287D02*
D03*
X753083Y399086D02*
D03*
X812183Y315187D02*
D03*
X819683Y359286D02*
D03*
X802242Y313330D02*
D03*
X819529Y377124D02*
D03*
M02*
