G04*
G04 #@! TF.GenerationSoftware,Altium Limited,Altium Designer,18.1.7 (191)*
G04*
G04 Layer_Color=16711935*
%FSLAX25Y25*%
%MOIN*%
G70*
G01*
G75*
%ADD13C,0.00394*%
%ADD14C,0.00500*%
%ADD18C,0.00197*%
%ADD19R,1.90000X2.15000*%
%ADD20R,1.85000X2.15000*%
D13*
X886858Y17055D02*
Y34378D01*
X861268Y17055D02*
X886858D01*
X861268D02*
Y34378D01*
X886858D01*
X884299D02*
X886858Y31819D01*
X686858Y17055D02*
Y34378D01*
X661268Y17055D02*
X686858D01*
X661268D02*
Y34378D01*
X686858D01*
X684299D02*
X686858Y31819D01*
X486858Y17055D02*
Y34378D01*
X461268Y17055D02*
X486858D01*
X461268D02*
Y34378D01*
X486858D01*
X484299D02*
X486858Y31819D01*
X286858Y17055D02*
Y34378D01*
X261268Y17055D02*
X286858D01*
X261268D02*
Y34378D01*
X286858D01*
X284299D02*
X286858Y31819D01*
X840858Y17055D02*
Y34378D01*
X815268Y17055D02*
X840858D01*
X815268D02*
Y34378D01*
X840858D01*
X838299D02*
X840858Y31819D01*
X640858Y17055D02*
Y34378D01*
X615268Y17055D02*
X640858D01*
X615268D02*
Y34378D01*
X640858D01*
X638299D02*
X640858Y31819D01*
X440858Y17055D02*
Y34378D01*
X415268Y17055D02*
X440858D01*
X415268D02*
Y34378D01*
X440858D01*
X438299D02*
X440858Y31819D01*
X240858Y17055D02*
Y34378D01*
X215268Y17055D02*
X240858D01*
X215268D02*
Y34378D01*
X240858D01*
X238299D02*
X240858Y31819D01*
X713402Y15921D02*
X730725D01*
X713402D02*
Y41512D01*
X730725D01*
Y15921D02*
Y41512D01*
X728165Y15921D02*
X730725Y18480D01*
X513402Y15921D02*
X530725D01*
X513402D02*
Y41512D01*
X530725D01*
Y15921D02*
Y41512D01*
X528165Y15921D02*
X530725Y18480D01*
X313402Y15921D02*
X330725D01*
X313402D02*
Y41512D01*
X330725D01*
Y15921D02*
Y41512D01*
X328166Y15921D02*
X330725Y18480D01*
X113402Y15921D02*
X130725D01*
X113402D02*
Y41512D01*
X130725D01*
Y15921D02*
Y41512D01*
X128165Y15921D02*
X130725Y18480D01*
X713402Y60921D02*
X730725D01*
X713402D02*
Y86512D01*
X730725D01*
Y60921D02*
Y86512D01*
X728165Y60921D02*
X730725Y63480D01*
X513402Y60921D02*
X530725D01*
X513402D02*
Y86512D01*
X530725D01*
Y60921D02*
Y86512D01*
X528165Y60921D02*
X530725Y63480D01*
X313402Y60921D02*
X330725D01*
X313402D02*
Y86512D01*
X330725D01*
Y60921D02*
Y86512D01*
X328166Y60921D02*
X330725Y63480D01*
X113402Y60921D02*
X130725D01*
X113402D02*
Y86512D01*
X130725D01*
Y60921D02*
Y86512D01*
X128165Y60921D02*
X130725Y63480D01*
X884858Y115055D02*
Y132378D01*
X859268Y115055D02*
X884858D01*
X859268D02*
Y132378D01*
X884858D01*
X882299D02*
X884858Y129819D01*
X684858Y115055D02*
Y132378D01*
X659268Y115055D02*
X684858D01*
X659268D02*
Y132378D01*
X684858D01*
X682299D02*
X684858Y129819D01*
X484858Y115055D02*
Y132378D01*
X459268Y115055D02*
X484858D01*
X459268D02*
Y132378D01*
X484858D01*
X482299D02*
X484858Y129819D01*
X284858Y115055D02*
Y132378D01*
X259268Y115055D02*
X284858D01*
X259268D02*
Y132378D01*
X284858D01*
X282299D02*
X284858Y129819D01*
X713402Y105921D02*
X730725D01*
X713402D02*
Y131512D01*
X730725D01*
Y105921D02*
Y131512D01*
X728165Y105921D02*
X730725Y108480D01*
X513402Y105921D02*
X530725D01*
X513402D02*
Y131512D01*
X530725D01*
Y105921D02*
Y131512D01*
X528165Y105921D02*
X530725Y108480D01*
X313402Y105921D02*
X330725D01*
X313402D02*
Y131512D01*
X330725D01*
Y105921D02*
Y131512D01*
X328166Y105921D02*
X330725Y108480D01*
X113402Y105921D02*
X130725D01*
X113402D02*
Y131512D01*
X130725D01*
Y105921D02*
Y131512D01*
X128165Y105921D02*
X130725Y108480D01*
X713402Y151921D02*
X730725D01*
X713402D02*
Y177512D01*
X730725D01*
Y151921D02*
Y177512D01*
X728165Y151921D02*
X730725Y154480D01*
X513402Y151921D02*
X530725D01*
X513402D02*
Y177512D01*
X530725D01*
Y151921D02*
Y177512D01*
X528165Y151921D02*
X530725Y154480D01*
X313402Y151921D02*
X330725D01*
X313402D02*
Y177512D01*
X330725D01*
Y151921D02*
Y177512D01*
X328166Y151921D02*
X330725Y154480D01*
X113402Y151921D02*
X130725D01*
X113402D02*
Y177512D01*
X130725D01*
Y151921D02*
Y177512D01*
X128165Y151921D02*
X130725Y154480D01*
X884858Y198055D02*
Y215378D01*
X859268Y198055D02*
X884858D01*
X859268D02*
Y215378D01*
X884858D01*
X882299D02*
X884858Y212819D01*
X684858Y198055D02*
Y215378D01*
X659268Y198055D02*
X684858D01*
X659268D02*
Y215378D01*
X684858D01*
X682299D02*
X684858Y212819D01*
X484858Y198055D02*
Y215378D01*
X459268Y198055D02*
X484858D01*
X459268D02*
Y215378D01*
X484858D01*
X482299D02*
X484858Y212819D01*
X284858Y198055D02*
Y215378D01*
X259268Y198055D02*
X284858D01*
X259268D02*
Y215378D01*
X284858D01*
X282299D02*
X284858Y212819D01*
X781918Y198389D02*
Y215712D01*
X756327Y198389D02*
X781918D01*
X756327D02*
Y215712D01*
X781918D01*
X779359D02*
X781918Y213153D01*
X581918Y198389D02*
Y215712D01*
X556327Y198389D02*
X581918D01*
X556327D02*
Y215712D01*
X581918D01*
X579359D02*
X581918Y213153D01*
X381918Y198389D02*
Y215712D01*
X356328Y198389D02*
X381918D01*
X356328D02*
Y215712D01*
X381918D01*
X379359D02*
X381918Y213153D01*
X181918Y198389D02*
Y215712D01*
X156327Y198389D02*
X181918D01*
X156327D02*
Y215712D01*
X181918D01*
X179359D02*
X181918Y213153D01*
X740864Y197087D02*
Y214409D01*
X715273Y197087D02*
X740864D01*
X715273D02*
Y214409D01*
X740864D01*
X738305D02*
X740864Y211850D01*
X540864Y197087D02*
Y214409D01*
X515273Y197087D02*
X540864D01*
X515273D02*
Y214409D01*
X540864D01*
X538305D02*
X540864Y211850D01*
X340864Y197087D02*
Y214409D01*
X315273Y197087D02*
X340864D01*
X315273D02*
Y214409D01*
X340864D01*
X338305D02*
X340864Y211850D01*
X140864Y197087D02*
Y214409D01*
X115273Y197087D02*
X140864D01*
X115273D02*
Y214409D01*
X140864D01*
X138305D02*
X140864Y211850D01*
D14*
X35167Y42471D02*
X37167D01*
X36167Y41471D02*
Y43471D01*
X35177Y77003D02*
X37177D01*
X36177Y76003D02*
Y78003D01*
X43137Y42227D02*
X45137D01*
X44137Y41227D02*
Y43227D01*
X43037Y77217D02*
X45037D01*
X44037Y76217D02*
Y78217D01*
X16032Y123803D02*
Y125803D01*
X15032Y124803D02*
X17032D01*
X16002Y118213D02*
Y120213D01*
X15002Y119213D02*
X17002D01*
X72484Y314866D02*
X74484D01*
X73484Y313866D02*
Y315866D01*
X62244Y314866D02*
X64244D01*
X63244Y313866D02*
Y315866D01*
X38282Y107039D02*
Y109039D01*
X37282Y108039D02*
X39282D01*
X15002Y108165D02*
X17002D01*
X16002Y107165D02*
Y109165D01*
X71070Y295647D02*
X73070D01*
X72070Y294647D02*
Y296646D01*
X52468Y149706D02*
Y151707D01*
X51468Y150707D02*
X53468D01*
X35016Y252918D02*
X37016D01*
X36016Y251918D02*
Y253918D01*
X62474Y336706D02*
X64474D01*
X63474Y335706D02*
Y337706D01*
X60364Y295827D02*
X62364D01*
X61364Y294827D02*
Y296827D01*
X54234Y250657D02*
X56234D01*
X55234Y249657D02*
Y251657D01*
X46424Y227826D02*
X48424D01*
X47424Y226827D02*
Y228826D01*
X35278Y263834D02*
X37278D01*
X36278Y262834D02*
Y264834D01*
X28322Y105783D02*
X30322D01*
X29322Y104783D02*
Y106783D01*
X456227Y16716D02*
X458227D01*
X457227Y15717D02*
Y17717D01*
X456227Y49716D02*
X458227D01*
X457227Y48717D02*
Y50717D01*
X456063Y68717D02*
X458063D01*
X457063Y67716D02*
Y69717D01*
X490063Y15717D02*
X492063D01*
X491063Y14717D02*
Y16716D01*
X490063Y49716D02*
X492063D01*
X491063Y48717D02*
Y50717D01*
X492508Y80717D02*
X494508D01*
X493507Y79716D02*
Y81717D01*
X476063Y24716D02*
Y26717D01*
X475063Y25717D02*
X477063D01*
X476063Y39717D02*
Y41717D01*
X475063Y40716D02*
X477063D01*
X476063Y54716D02*
Y56717D01*
X475063Y55717D02*
X477063D01*
X876063Y54716D02*
Y56717D01*
X875063Y55717D02*
X877063D01*
X876063Y39717D02*
Y41717D01*
X875063Y40716D02*
X877063D01*
X876063Y24716D02*
Y26717D01*
X875063Y25717D02*
X877063D01*
X676063Y54716D02*
Y56717D01*
X675063Y55717D02*
X677063D01*
X676063Y39717D02*
Y41717D01*
X675063Y40716D02*
X677063D01*
X676063Y24716D02*
Y26717D01*
X675063Y25717D02*
X677063D01*
X876063Y69717D02*
Y71716D01*
X875063Y70717D02*
X877063D01*
X876063Y84716D02*
Y86717D01*
X875063Y85716D02*
X877063D01*
X836063Y24716D02*
Y26717D01*
X835063Y25717D02*
X837063D01*
X836063Y39717D02*
Y41717D01*
X835063Y40716D02*
X837063D01*
X836063Y54716D02*
Y56717D01*
X835063Y55717D02*
X837063D01*
X836063Y69717D02*
Y71716D01*
X835063Y70717D02*
X837063D01*
X836063Y84716D02*
Y86717D01*
X835063Y85716D02*
X837063D01*
X796063Y24716D02*
Y26717D01*
X795063Y25717D02*
X797063D01*
X676063Y69717D02*
Y71716D01*
X675063Y70717D02*
X677063D01*
X676063Y84716D02*
Y86717D01*
X675063Y85716D02*
X677063D01*
X636063Y24716D02*
Y26717D01*
X635063Y25717D02*
X637063D01*
X636063Y39717D02*
Y41717D01*
X635063Y40716D02*
X637063D01*
X636063Y54716D02*
Y56717D01*
X635063Y55717D02*
X637063D01*
X636063Y69717D02*
Y71716D01*
X635063Y70717D02*
X637063D01*
X636063Y84716D02*
Y86717D01*
X635063Y85716D02*
X637063D01*
X596063Y24716D02*
Y26717D01*
X595063Y25717D02*
X597063D01*
X476063Y69717D02*
Y71716D01*
X475063Y70717D02*
X477063D01*
X476063Y84716D02*
Y86717D01*
X475063Y85716D02*
X477063D01*
X436063Y24716D02*
Y26717D01*
X435063Y25717D02*
X437063D01*
X436063Y39717D02*
Y41717D01*
X435063Y40716D02*
X437063D01*
X436063Y54716D02*
Y56717D01*
X435063Y55717D02*
X437063D01*
X436063Y69717D02*
Y71716D01*
X435063Y70717D02*
X437063D01*
X436063Y84716D02*
Y86717D01*
X435063Y85716D02*
X437063D01*
X396063Y24716D02*
Y26717D01*
X395063Y25717D02*
X397063D01*
X756063Y24716D02*
Y26717D01*
X755063Y25717D02*
X757063D01*
X716063Y24716D02*
Y26717D01*
X715063Y25717D02*
X717063D01*
X796063Y39717D02*
Y41717D01*
X795063Y40716D02*
X797063D01*
X756063Y39717D02*
Y41717D01*
X755063Y40716D02*
X757063D01*
X716063Y39717D02*
Y41717D01*
X715063Y40716D02*
X717063D01*
X796063Y54716D02*
Y56717D01*
X795063Y55717D02*
X797063D01*
X756063Y54716D02*
Y56717D01*
X755063Y55717D02*
X757063D01*
X716063Y54716D02*
Y56717D01*
X715063Y55717D02*
X717063D01*
X556063Y24716D02*
Y26717D01*
X555063Y25717D02*
X557063D01*
X516063Y24716D02*
Y26717D01*
X515063Y25717D02*
X517063D01*
X596063Y39717D02*
Y41717D01*
X595063Y40716D02*
X597063D01*
X556063Y39717D02*
Y41717D01*
X555063Y40716D02*
X557063D01*
X516063Y39717D02*
Y41717D01*
X515063Y40716D02*
X517063D01*
X596063Y54716D02*
Y56717D01*
X595063Y55717D02*
X597063D01*
X556063Y54716D02*
Y56717D01*
X555063Y55717D02*
X557063D01*
X516063Y54716D02*
Y56717D01*
X515063Y55717D02*
X517063D01*
X356063Y24716D02*
Y26717D01*
X355063Y25717D02*
X357063D01*
X316063Y24716D02*
Y26717D01*
X315063Y25717D02*
X317063D01*
X396063Y39717D02*
Y41717D01*
X395063Y40716D02*
X397063D01*
X356063Y39717D02*
Y41717D01*
X355063Y40716D02*
X357063D01*
X316063Y39717D02*
Y41717D01*
X315063Y40716D02*
X317063D01*
X396063Y54716D02*
Y56717D01*
X395063Y55717D02*
X397063D01*
X356063Y54716D02*
Y56717D01*
X355063Y55717D02*
X357063D01*
X316063Y54716D02*
Y56717D01*
X315063Y55717D02*
X317063D01*
X796063Y69717D02*
Y71716D01*
X795063Y70717D02*
X797063D01*
X756063Y69717D02*
Y71716D01*
X755063Y70717D02*
X757063D01*
X716063Y69717D02*
Y71716D01*
X715063Y70717D02*
X717063D01*
X796063Y84716D02*
Y86717D01*
X795063Y85716D02*
X797063D01*
X756063Y84716D02*
Y86717D01*
X755063Y85716D02*
X757063D01*
X716063Y84716D02*
Y86717D01*
X715063Y85716D02*
X717063D01*
X756063Y99717D02*
Y101716D01*
X755063Y100716D02*
X757063D01*
X716063Y99717D02*
Y101716D01*
X715063Y100716D02*
X717063D01*
X596063Y69717D02*
Y71716D01*
X595063Y70717D02*
X597063D01*
X556063Y69717D02*
Y71716D01*
X555063Y70717D02*
X557063D01*
X516063Y69717D02*
Y71716D01*
X515063Y70717D02*
X517063D01*
X596063Y84716D02*
Y86717D01*
X595063Y85716D02*
X597063D01*
X556063Y84716D02*
Y86717D01*
X555063Y85716D02*
X557063D01*
X516063Y84716D02*
Y86717D01*
X515063Y85716D02*
X517063D01*
X556063Y99717D02*
Y101716D01*
X555063Y100716D02*
X557063D01*
X516063Y99717D02*
Y101716D01*
X515063Y100716D02*
X517063D01*
X396063Y69717D02*
Y71716D01*
X395063Y70717D02*
X397063D01*
X356063Y69717D02*
Y71716D01*
X355063Y70717D02*
X357063D01*
X316063Y69717D02*
Y71716D01*
X315063Y70717D02*
X317063D01*
X396063Y84716D02*
Y86717D01*
X395063Y85716D02*
X397063D01*
X356063Y84716D02*
Y86717D01*
X355063Y85716D02*
X357063D01*
X316063Y84716D02*
Y86717D01*
X315063Y85716D02*
X317063D01*
X356063Y99717D02*
Y101716D01*
X355063Y100716D02*
X357063D01*
X316063Y99717D02*
Y101716D01*
X315063Y100716D02*
X317063D01*
X876063Y99717D02*
Y101716D01*
X875063Y100716D02*
X877063D01*
X876063Y114716D02*
Y116717D01*
X875063Y115717D02*
X877063D01*
X876063Y129717D02*
Y131717D01*
X875063Y130717D02*
X877063D01*
X876063Y144717D02*
Y146716D01*
X875063Y145717D02*
X877063D01*
X836063Y99717D02*
Y101716D01*
X835063Y100716D02*
X837063D01*
X836063Y114716D02*
Y116717D01*
X835063Y115717D02*
X837063D01*
X836063Y144717D02*
Y146716D01*
X835063Y145717D02*
X837063D01*
X836063Y129717D02*
Y131717D01*
X835063Y130717D02*
X837063D01*
X676063Y99717D02*
Y101716D01*
X675063Y100716D02*
X677063D01*
X676063Y114716D02*
Y116717D01*
X675063Y115717D02*
X677063D01*
X676063Y129717D02*
Y131717D01*
X675063Y130717D02*
X677063D01*
X676063Y144717D02*
Y146716D01*
X675063Y145717D02*
X677063D01*
X636063Y99717D02*
Y101716D01*
X635063Y100716D02*
X637063D01*
X636063Y114716D02*
Y116717D01*
X635063Y115717D02*
X637063D01*
X636063Y144717D02*
Y146716D01*
X635063Y145717D02*
X637063D01*
X636063Y129717D02*
Y131717D01*
X635063Y130717D02*
X637063D01*
X476063Y99717D02*
Y101716D01*
X475063Y100716D02*
X477063D01*
X476063Y114716D02*
Y116717D01*
X475063Y115717D02*
X477063D01*
X476063Y129717D02*
Y131717D01*
X475063Y130717D02*
X477063D01*
X476063Y144717D02*
Y146716D01*
X475063Y145717D02*
X477063D01*
X436063Y99717D02*
Y101716D01*
X435063Y100716D02*
X437063D01*
X436063Y114716D02*
Y116717D01*
X435063Y115717D02*
X437063D01*
X436063Y144717D02*
Y146716D01*
X435063Y145717D02*
X437063D01*
X436063Y129717D02*
Y131717D01*
X435063Y130717D02*
X437063D01*
X796063Y99717D02*
Y101716D01*
X795063Y100716D02*
X797063D01*
X796063Y114716D02*
Y116717D01*
X795063Y115717D02*
X797063D01*
X756063Y114716D02*
Y116717D01*
X755063Y115717D02*
X757063D01*
X716063Y114716D02*
Y116717D01*
X715063Y115717D02*
X717063D01*
X796063Y129717D02*
Y131717D01*
X795063Y130717D02*
X797063D01*
X756063Y129717D02*
Y131717D01*
X755063Y130717D02*
X757063D01*
X716063Y129717D02*
Y131717D01*
X715063Y130717D02*
X717063D01*
X716063Y144717D02*
Y146716D01*
X715063Y145717D02*
X717063D01*
X596063Y99717D02*
Y101716D01*
X595063Y100716D02*
X597063D01*
X596063Y114716D02*
Y116717D01*
X595063Y115717D02*
X597063D01*
X556063Y114716D02*
Y116717D01*
X555063Y115717D02*
X557063D01*
X516063Y114716D02*
Y116717D01*
X515063Y115717D02*
X517063D01*
X596063Y129717D02*
Y131717D01*
X595063Y130717D02*
X597063D01*
X556063Y129717D02*
Y131717D01*
X555063Y130717D02*
X557063D01*
X516063Y129717D02*
Y131717D01*
X515063Y130717D02*
X517063D01*
X516063Y144717D02*
Y146716D01*
X515063Y145717D02*
X517063D01*
X396063Y99717D02*
Y101716D01*
X395063Y100716D02*
X397063D01*
X396063Y114716D02*
Y116717D01*
X395063Y115717D02*
X397063D01*
X356063Y114716D02*
Y116717D01*
X355063Y115717D02*
X357063D01*
X316063Y114716D02*
Y116717D01*
X315063Y115717D02*
X317063D01*
X396063Y129717D02*
Y131717D01*
X395063Y130717D02*
X397063D01*
X356063Y129717D02*
Y131717D01*
X355063Y130717D02*
X357063D01*
X316063Y129717D02*
Y131717D01*
X315063Y130717D02*
X317063D01*
X316063Y144717D02*
Y146716D01*
X315063Y145717D02*
X317063D01*
X756063Y144717D02*
Y146716D01*
X755063Y145717D02*
X757063D01*
X796063Y144717D02*
Y146716D01*
X795063Y145717D02*
X797063D01*
X796063Y159716D02*
Y161716D01*
X795063Y160716D02*
X797063D01*
X756063Y159716D02*
Y161716D01*
X755063Y160716D02*
X757063D01*
X716063Y159716D02*
Y161716D01*
X715063Y160716D02*
X717063D01*
X796063Y174716D02*
Y176716D01*
X795063Y175716D02*
X797063D01*
X756063Y174716D02*
Y176716D01*
X755063Y175716D02*
X757063D01*
X716063Y174716D02*
Y176716D01*
X715063Y175716D02*
X717063D01*
X556063Y144717D02*
Y146716D01*
X555063Y145717D02*
X557063D01*
X596063Y144717D02*
Y146716D01*
X595063Y145717D02*
X597063D01*
X596063Y159716D02*
Y161716D01*
X595063Y160716D02*
X597063D01*
X556063Y159716D02*
Y161716D01*
X555063Y160716D02*
X557063D01*
X516063Y159716D02*
Y161716D01*
X515063Y160716D02*
X517063D01*
X596063Y174716D02*
Y176716D01*
X595063Y175716D02*
X597063D01*
X556063Y174716D02*
Y176716D01*
X555063Y175716D02*
X557063D01*
X516063Y174716D02*
Y176716D01*
X515063Y175716D02*
X517063D01*
X356063Y144717D02*
Y146716D01*
X355063Y145717D02*
X357063D01*
X396063Y144717D02*
Y146716D01*
X395063Y145717D02*
X397063D01*
X396063Y159716D02*
Y161716D01*
X395063Y160716D02*
X397063D01*
X356063Y159716D02*
Y161716D01*
X355063Y160716D02*
X357063D01*
X316063Y159716D02*
Y161716D01*
X315063Y160716D02*
X317063D01*
X396063Y174716D02*
Y176716D01*
X395063Y175716D02*
X397063D01*
X356063Y174716D02*
Y176716D01*
X355063Y175716D02*
X357063D01*
X316063Y174716D02*
Y176716D01*
X315063Y175716D02*
X317063D01*
X876063Y174716D02*
Y176716D01*
X875063Y175716D02*
X877063D01*
X876063Y159716D02*
Y161716D01*
X875063Y160716D02*
X877063D01*
X876063Y189716D02*
Y191717D01*
X875063Y190717D02*
X877063D01*
X876063Y204716D02*
Y206716D01*
X875063Y205716D02*
X877063D01*
X876063Y219717D02*
Y221716D01*
X875063Y220717D02*
X877063D01*
X876063Y234717D02*
Y236717D01*
X875063Y235717D02*
X877063D01*
X836063Y159716D02*
Y161716D01*
X835063Y160716D02*
X837063D01*
X836063Y174716D02*
Y176716D01*
X835063Y175716D02*
X837063D01*
X676063Y174716D02*
Y176716D01*
X675063Y175716D02*
X677063D01*
X676063Y159716D02*
Y161716D01*
X675063Y160716D02*
X677063D01*
X676063Y189716D02*
Y191717D01*
X675063Y190717D02*
X677063D01*
X676063Y204716D02*
Y206716D01*
X675063Y205716D02*
X677063D01*
X676063Y219717D02*
Y221716D01*
X675063Y220717D02*
X677063D01*
X676063Y234717D02*
Y236717D01*
X675063Y235717D02*
X677063D01*
X636063Y159716D02*
Y161716D01*
X635063Y160716D02*
X637063D01*
X636063Y174716D02*
Y176716D01*
X635063Y175716D02*
X637063D01*
X476063Y174716D02*
Y176716D01*
X475063Y175716D02*
X477063D01*
X476063Y159716D02*
Y161716D01*
X475063Y160716D02*
X477063D01*
X476063Y189716D02*
Y191717D01*
X475063Y190717D02*
X477063D01*
X476063Y204716D02*
Y206716D01*
X475063Y205716D02*
X477063D01*
X476063Y219717D02*
Y221716D01*
X475063Y220717D02*
X477063D01*
X476063Y234717D02*
Y236717D01*
X475063Y235717D02*
X477063D01*
X436063Y159716D02*
Y161716D01*
X435063Y160716D02*
X437063D01*
X436063Y174716D02*
Y176716D01*
X435063Y175716D02*
X437063D01*
X786063Y249716D02*
X788063D01*
X787063Y248716D02*
Y250716D01*
X751287Y198050D02*
X753287D01*
X752287Y197050D02*
Y199050D01*
X749123Y262050D02*
X751123D01*
X750123Y261050D02*
Y263050D01*
X785123Y197050D02*
X787123D01*
X786123Y196050D02*
Y198050D01*
X751287Y231125D02*
X753287D01*
X752287Y230125D02*
Y232125D01*
X785123Y231050D02*
X787123D01*
X786123Y230050D02*
Y232050D01*
X585123Y197050D02*
X587123D01*
X586123Y196050D02*
Y198050D01*
X585123Y231050D02*
X587123D01*
X586123Y230050D02*
Y232050D01*
X586063Y249716D02*
X588063D01*
X587063Y248716D02*
Y250716D01*
X551287Y198050D02*
X553287D01*
X552287Y197050D02*
Y199050D01*
X551287Y231125D02*
X553287D01*
X552287Y230125D02*
Y232125D01*
X549123Y262050D02*
X551123D01*
X550123Y261050D02*
Y263050D01*
X796063Y189716D02*
Y191717D01*
X795063Y190717D02*
X797063D01*
X836063Y189716D02*
Y191717D01*
X835063Y190717D02*
X837063D01*
X836063Y204716D02*
Y206716D01*
X835063Y205716D02*
X837063D01*
X796063Y204716D02*
Y206716D01*
X795063Y205716D02*
X797063D01*
X836063Y219717D02*
Y221716D01*
X835063Y220717D02*
X837063D01*
X796063Y219717D02*
Y221716D01*
X795063Y220717D02*
X797063D01*
X836063Y234717D02*
Y236717D01*
X835063Y235717D02*
X837063D01*
X796063Y234717D02*
Y236717D01*
X795063Y235717D02*
X797063D01*
X596063Y189716D02*
Y191717D01*
X595063Y190717D02*
X597063D01*
X636063Y189716D02*
Y191717D01*
X635063Y190717D02*
X637063D01*
X636063Y204716D02*
Y206716D01*
X635063Y205716D02*
X637063D01*
X596063Y204716D02*
Y206716D01*
X595063Y205716D02*
X597063D01*
X636063Y219717D02*
Y221716D01*
X635063Y220717D02*
X637063D01*
X596063Y219717D02*
Y221716D01*
X595063Y220717D02*
X597063D01*
X636063Y234717D02*
Y236717D01*
X635063Y235717D02*
X637063D01*
X596063Y234717D02*
Y236717D01*
X595063Y235717D02*
X597063D01*
X396063Y189716D02*
Y191717D01*
X395063Y190717D02*
X397063D01*
X436063Y189716D02*
Y191717D01*
X435063Y190717D02*
X437063D01*
X436063Y204716D02*
Y206716D01*
X435063Y205716D02*
X437063D01*
X396063Y204716D02*
Y206716D01*
X395063Y205716D02*
X397063D01*
X436063Y219717D02*
Y221716D01*
X435063Y220717D02*
X437063D01*
X396063Y219717D02*
Y221716D01*
X395063Y220717D02*
X397063D01*
X436063Y234717D02*
Y236717D01*
X435063Y235717D02*
X437063D01*
X396063Y234717D02*
Y236717D01*
X395063Y235717D02*
X397063D01*
X510227Y197716D02*
X512227D01*
X511227Y196716D02*
Y198716D01*
X510063Y224716D02*
X512063D01*
X511063Y223716D02*
Y225716D01*
X510063Y237717D02*
X512063D01*
X511063Y236717D02*
Y238717D01*
X510063Y248716D02*
X512063D01*
X511063Y247716D02*
Y249716D01*
X543456Y197740D02*
X545456D01*
X544456Y196740D02*
Y198740D01*
X544063Y230716D02*
X546063D01*
X545063Y229716D02*
Y231716D01*
X316063Y189716D02*
Y191717D01*
X315063Y190717D02*
X317063D01*
X316063Y204716D02*
Y206716D01*
X315063Y205716D02*
X317063D01*
X316063Y219717D02*
Y221717D01*
X315063Y220717D02*
X317063D01*
X316063Y234717D02*
Y236717D01*
X315063Y235717D02*
X317063D01*
X356063Y189716D02*
Y191717D01*
X355063Y190717D02*
X357063D01*
X356063Y204716D02*
Y206716D01*
X355063Y205716D02*
X357063D01*
X356063Y219717D02*
Y221717D01*
X355063Y220717D02*
X357063D01*
X356063Y234717D02*
Y236717D01*
X355063Y235717D02*
X357063D01*
X344063Y230716D02*
X346063D01*
X345063Y229716D02*
Y231716D01*
X343456Y197740D02*
X345456D01*
X344456Y196740D02*
Y198740D01*
X310227Y197716D02*
X312227D01*
X311227Y196716D02*
Y198716D01*
X310063Y237717D02*
X312063D01*
X311063Y236717D02*
Y238717D01*
X310063Y248716D02*
X312063D01*
X311063Y247716D02*
Y249716D01*
X310063Y224716D02*
X312063D01*
X311063Y223716D02*
Y225716D01*
X756063Y189716D02*
Y191717D01*
X755063Y190717D02*
X757063D01*
X756063Y204716D02*
Y206716D01*
X755063Y205716D02*
X757063D01*
X756063Y219717D02*
Y221716D01*
X755063Y220717D02*
X757063D01*
X756063Y234717D02*
Y236717D01*
X755063Y235717D02*
X757063D01*
X716063Y189716D02*
Y191717D01*
X715063Y190717D02*
X717063D01*
X716063Y204716D02*
Y206716D01*
X715063Y205716D02*
X717063D01*
X716063Y219717D02*
Y221716D01*
X715063Y220717D02*
X717063D01*
X716063Y234717D02*
Y236717D01*
X715063Y235717D02*
X717063D01*
X556063Y189716D02*
Y191717D01*
X555063Y190717D02*
X557063D01*
X556063Y204716D02*
Y206716D01*
X555063Y205716D02*
X557063D01*
X556063Y219717D02*
Y221716D01*
X555063Y220717D02*
X557063D01*
X556063Y234717D02*
Y236717D01*
X555063Y235717D02*
X557063D01*
X516063Y189716D02*
Y191717D01*
X515063Y190717D02*
X517063D01*
X516063Y204716D02*
Y206716D01*
X515063Y205716D02*
X517063D01*
X516063Y219717D02*
Y221716D01*
X515063Y220717D02*
X517063D01*
X516063Y234717D02*
Y236717D01*
X515063Y235717D02*
X517063D01*
X276063Y204716D02*
Y206716D01*
X275063Y205716D02*
X277063D01*
X236063Y234717D02*
Y236717D01*
X235063Y235717D02*
X237063D01*
X196063Y144717D02*
Y146716D01*
X195063Y145717D02*
X197063D01*
X710227Y197716D02*
X712227D01*
X711227Y196716D02*
Y198716D01*
X744063Y230716D02*
X746063D01*
X745063Y229716D02*
Y231716D01*
X710063Y248716D02*
X712063D01*
X711063Y247716D02*
Y249716D01*
X710063Y224716D02*
X712063D01*
X711063Y223716D02*
Y225716D01*
X710063Y237717D02*
X712063D01*
X711063Y236717D02*
Y238717D01*
X743456Y197740D02*
X745456D01*
X744456Y196740D02*
Y198740D01*
X116063Y234717D02*
Y236717D01*
X115063Y235717D02*
X117063D01*
X115063Y220717D02*
X117063D01*
X116063Y219717D02*
Y221716D01*
X856227Y49716D02*
X858227D01*
X857227Y48717D02*
Y50717D01*
X892508Y80717D02*
X894508D01*
X893508Y79716D02*
Y81717D01*
X890063Y15717D02*
X892063D01*
X891063Y14717D02*
Y16716D01*
X890063Y49716D02*
X892063D01*
X891063Y48717D02*
Y50717D01*
X856063Y68717D02*
X858063D01*
X857063Y67716D02*
Y69717D01*
X856227Y16716D02*
X858227D01*
X857227Y15717D02*
Y17717D01*
X810227Y49716D02*
X812227D01*
X811227Y48717D02*
Y50717D01*
X844063Y66716D02*
X846063D01*
X845063Y65716D02*
Y67716D01*
X844063Y15717D02*
X846063D01*
X845063Y14717D02*
Y16716D01*
X844063Y49716D02*
X846063D01*
X845063Y48717D02*
Y50717D01*
X810063Y67716D02*
X812063D01*
X811063Y66716D02*
Y68717D01*
X810227Y16716D02*
X812227D01*
X811227Y15717D02*
Y17717D01*
X746063Y44553D02*
Y46553D01*
X745063Y45553D02*
X747063D01*
X764063Y10717D02*
Y12717D01*
X763063Y11716D02*
X765063D01*
X712063Y10717D02*
Y12717D01*
X711063Y11716D02*
X713063D01*
X746063Y10717D02*
Y12717D01*
X745063Y11716D02*
X747063D01*
X764173Y47819D02*
Y49819D01*
X763173Y48819D02*
X765173D01*
X713063Y44553D02*
Y46553D01*
X712063Y45553D02*
X714063D01*
X746063Y89553D02*
Y91553D01*
X745063Y90553D02*
X747063D01*
X765063Y55717D02*
Y57717D01*
X764063Y56717D02*
X766063D01*
X712063Y55717D02*
Y57717D01*
X711063Y56717D02*
X713063D01*
X746063Y55717D02*
Y57717D01*
X745063Y56717D02*
X747063D01*
X764173Y92701D02*
Y94701D01*
X763173Y93701D02*
X765173D01*
X713063Y89553D02*
Y91553D01*
X712063Y90553D02*
X714063D01*
X854227Y147716D02*
X856227D01*
X855227Y146716D02*
Y148716D01*
X888508Y165717D02*
X890508D01*
X889508Y164716D02*
Y166717D01*
X888063Y113716D02*
X890063D01*
X889063Y112716D02*
Y114716D01*
X888063Y147716D02*
X890063D01*
X889063Y146716D02*
Y148716D01*
X853906Y178605D02*
X855906D01*
X854906Y177605D02*
Y179605D01*
X854227Y114716D02*
X856227D01*
X855227Y113716D02*
Y115717D01*
X746063Y134553D02*
Y136553D01*
X745063Y135553D02*
X747063D01*
X764756Y100535D02*
Y102535D01*
X763756Y101535D02*
X765756D01*
X712063Y100716D02*
Y102717D01*
X711063Y101716D02*
X713063D01*
X746063Y100716D02*
Y102717D01*
X745063Y101716D02*
X747063D01*
X764684Y135048D02*
Y137048D01*
X763684Y136048D02*
X765684D01*
X713063Y134553D02*
Y136553D01*
X712063Y135553D02*
X714063D01*
X746138Y180553D02*
Y182553D01*
X745138Y181553D02*
X747138D01*
X764063Y146716D02*
Y148716D01*
X763063Y147716D02*
X765063D01*
X712063Y146716D02*
Y148716D01*
X711063Y147716D02*
X713063D01*
X746063Y146716D02*
Y148716D01*
X745063Y147716D02*
X747063D01*
X765063Y180717D02*
Y182717D01*
X764063Y181717D02*
X766063D01*
X713063Y180553D02*
Y182553D01*
X712063Y181553D02*
X714063D01*
X854227Y229716D02*
X856227D01*
X855227Y228716D02*
Y230716D01*
X888367Y247688D02*
X890367D01*
X889367Y246688D02*
Y248688D01*
X888063Y196716D02*
X890063D01*
X889063Y195717D02*
Y197716D01*
X888063Y230716D02*
X890063D01*
X889063Y229716D02*
Y231716D01*
X855089Y249716D02*
X857089D01*
X856089Y248716D02*
Y250716D01*
X854227Y197716D02*
X856227D01*
X855227Y196716D02*
Y198716D01*
X656227Y49716D02*
X658227D01*
X657227Y48717D02*
Y50717D01*
X692508Y80717D02*
X694508D01*
X693507Y79716D02*
Y81717D01*
X690063Y15717D02*
X692063D01*
X691063Y14717D02*
Y16716D01*
X690063Y49716D02*
X692063D01*
X691063Y48717D02*
Y50717D01*
X656063Y68717D02*
X658063D01*
X657063Y67716D02*
Y69717D01*
X656227Y16716D02*
X658227D01*
X657227Y15717D02*
Y17717D01*
X610227Y49716D02*
X612227D01*
X611227Y48717D02*
Y50717D01*
X644063Y66716D02*
X646063D01*
X645063Y65716D02*
Y67716D01*
X644063Y15717D02*
X646063D01*
X645063Y14717D02*
Y16716D01*
X644063Y49716D02*
X646063D01*
X645063Y48717D02*
Y50717D01*
X610063Y67716D02*
X612063D01*
X611063Y66716D02*
Y68717D01*
X610227Y16716D02*
X612227D01*
X611227Y15717D02*
Y17717D01*
X546063Y44553D02*
Y46553D01*
X545063Y45553D02*
X547063D01*
X564063Y10717D02*
Y12717D01*
X563063Y11716D02*
X565063D01*
X512063Y10717D02*
Y12717D01*
X511063Y11716D02*
X513063D01*
X546063Y10717D02*
Y12717D01*
X545063Y11716D02*
X547063D01*
X564173Y47819D02*
Y49819D01*
X563173Y48819D02*
X565173D01*
X513063Y44553D02*
Y46553D01*
X512063Y45553D02*
X514063D01*
X546063Y89553D02*
Y91553D01*
X545063Y90553D02*
X547063D01*
X565063Y55717D02*
Y57717D01*
X564063Y56717D02*
X566063D01*
X512063Y55717D02*
Y57717D01*
X511063Y56717D02*
X513063D01*
X546063Y55717D02*
Y57717D01*
X545063Y56717D02*
X547063D01*
X564173Y92701D02*
Y94701D01*
X563173Y93701D02*
X565173D01*
X513063Y89553D02*
Y91553D01*
X512063Y90553D02*
X514063D01*
X654227Y147716D02*
X656227D01*
X655227Y146716D02*
Y148716D01*
X688508Y165717D02*
X690508D01*
X689507Y164716D02*
Y166717D01*
X688063Y113716D02*
X690063D01*
X689063Y112716D02*
Y114716D01*
X688063Y147716D02*
X690063D01*
X689063Y146716D02*
Y148716D01*
X653906Y178605D02*
X655906D01*
X654906Y177605D02*
Y179605D01*
X654227Y114716D02*
X656227D01*
X655227Y113716D02*
Y115717D01*
X546063Y134553D02*
Y136553D01*
X545063Y135553D02*
X547063D01*
X564756Y100535D02*
Y102535D01*
X563756Y101535D02*
X565756D01*
X512063Y100716D02*
Y102717D01*
X511063Y101716D02*
X513063D01*
X546063Y100716D02*
Y102717D01*
X545063Y101716D02*
X547063D01*
X564684Y135048D02*
Y137048D01*
X563684Y136048D02*
X565684D01*
X513063Y134553D02*
Y136553D01*
X512063Y135553D02*
X514063D01*
X546138Y180553D02*
Y182553D01*
X545138Y181553D02*
X547138D01*
X564063Y146716D02*
Y148716D01*
X563063Y147716D02*
X565063D01*
X512063Y146716D02*
Y148716D01*
X511063Y147716D02*
X513063D01*
X546063Y146716D02*
Y148716D01*
X545063Y147716D02*
X547063D01*
X565063Y180717D02*
Y182717D01*
X564063Y181717D02*
X566063D01*
X513063Y180553D02*
Y182553D01*
X512063Y181553D02*
X514063D01*
X654227Y229716D02*
X656227D01*
X655227Y228716D02*
Y230716D01*
X688120Y249063D02*
X690120D01*
X689120Y248063D02*
Y250063D01*
X688063Y196716D02*
X690063D01*
X689063Y195717D02*
Y197716D01*
X688063Y230716D02*
X690063D01*
X689063Y229716D02*
Y231716D01*
X655089Y249716D02*
X657089D01*
X656089Y248716D02*
Y250716D01*
X654227Y197716D02*
X656227D01*
X655227Y196716D02*
Y198716D01*
X410227Y49716D02*
X412227D01*
X411227Y48717D02*
Y50717D01*
X444063Y66716D02*
X446063D01*
X445063Y65716D02*
Y67716D01*
X444063Y15717D02*
X446063D01*
X445063Y14717D02*
Y16716D01*
X444063Y49716D02*
X446063D01*
X445063Y48717D02*
Y50717D01*
X410063Y67716D02*
X412063D01*
X411063Y66716D02*
Y68717D01*
X410227Y16716D02*
X412227D01*
X411227Y15717D02*
Y17717D01*
X346063Y44553D02*
Y46553D01*
X345063Y45553D02*
X347063D01*
X364063Y10717D02*
Y12717D01*
X363063Y11716D02*
X365063D01*
X312063Y10717D02*
Y12717D01*
X311063Y11716D02*
X313063D01*
X346063Y10717D02*
Y12717D01*
X345063Y11716D02*
X347063D01*
X364173Y47819D02*
Y49819D01*
X363173Y48819D02*
X365173D01*
X313063Y44553D02*
Y46553D01*
X312063Y45553D02*
X314063D01*
X346063Y89553D02*
Y91553D01*
X345063Y90553D02*
X347063D01*
X365063Y55717D02*
Y57717D01*
X364063Y56717D02*
X366063D01*
X312063Y55717D02*
Y57717D01*
X311063Y56717D02*
X313063D01*
X346063Y55717D02*
Y57717D01*
X345063Y56717D02*
X347063D01*
X364173Y92701D02*
Y94701D01*
X363173Y93701D02*
X365173D01*
X313063Y89553D02*
Y91553D01*
X312063Y90553D02*
X314063D01*
X454227Y147716D02*
X456227D01*
X455227Y146716D02*
Y148716D01*
X488508Y165717D02*
X490508D01*
X489507Y164716D02*
Y166717D01*
X488063Y113716D02*
X490063D01*
X489063Y112716D02*
Y114716D01*
X488063Y147716D02*
X490063D01*
X489063Y146716D02*
Y148716D01*
X453906Y178605D02*
X455906D01*
X454906Y177605D02*
Y179605D01*
X454227Y114716D02*
X456227D01*
X455227Y113716D02*
Y115717D01*
X346063Y134553D02*
Y136553D01*
X345063Y135553D02*
X347063D01*
X364756Y100535D02*
Y102535D01*
X363756Y101535D02*
X365756D01*
X312063Y100716D02*
Y102717D01*
X311063Y101716D02*
X313063D01*
X346063Y100716D02*
Y102717D01*
X345063Y101716D02*
X347063D01*
X364684Y135048D02*
Y137048D01*
X363684Y136048D02*
X365684D01*
X313063Y134553D02*
Y136553D01*
X312063Y135553D02*
X314063D01*
X346138Y180553D02*
Y182553D01*
X345138Y181553D02*
X347138D01*
X364063Y146716D02*
Y148716D01*
X363063Y147716D02*
X365063D01*
X312063Y146716D02*
Y148716D01*
X311063Y147716D02*
X313063D01*
X346063Y146716D02*
Y148716D01*
X345063Y147716D02*
X347063D01*
X365063Y180717D02*
Y182717D01*
X364063Y181717D02*
X366063D01*
X313063Y180553D02*
Y182553D01*
X312063Y181553D02*
X314063D01*
X454227Y229716D02*
X456227D01*
X455227Y228716D02*
Y230716D01*
X488063Y247154D02*
X490063D01*
X489063Y246154D02*
Y248154D01*
X488063Y196716D02*
X490063D01*
X489063Y195717D02*
Y197716D01*
X488063Y230716D02*
X490063D01*
X489063Y229716D02*
Y231716D01*
X455089Y249716D02*
X457089D01*
X456089Y248716D02*
Y250716D01*
X454227Y197716D02*
X456227D01*
X455227Y196716D02*
Y198716D01*
X351287Y231125D02*
X353287D01*
X352287Y230125D02*
Y232125D01*
X386063Y249716D02*
X388063D01*
X387063Y248716D02*
Y250716D01*
X385123Y197050D02*
X387123D01*
X386123Y196050D02*
Y198050D01*
X385123Y231050D02*
X387123D01*
X386123Y230050D02*
Y232050D01*
X349123Y262050D02*
X351123D01*
X350123Y261050D02*
Y263050D01*
X351287Y198050D02*
X353287D01*
X352287Y197050D02*
Y199050D01*
X254906Y177605D02*
Y179605D01*
X253906Y178605D02*
X255906D01*
X155063Y115717D02*
X157063D01*
X156063Y114716D02*
Y116717D01*
X116063Y129717D02*
Y131717D01*
X115063Y130717D02*
X117063D01*
X236063Y174716D02*
Y176716D01*
X235063Y175716D02*
X237063D01*
X236063Y99717D02*
Y101716D01*
X235063Y100716D02*
X237063D01*
X116063Y144717D02*
Y146716D01*
X115063Y145717D02*
X117063D01*
X156063Y69717D02*
Y71716D01*
X155063Y70717D02*
X157063D01*
X145063Y90553D02*
X147063D01*
X146063Y89553D02*
Y91553D01*
X145063Y56717D02*
X147063D01*
X146063Y55717D02*
Y57717D01*
X256227Y49716D02*
X258227D01*
X257227Y48717D02*
Y50717D01*
X210227Y49716D02*
X212227D01*
X211227Y48717D02*
Y50717D01*
X146063Y44553D02*
Y46553D01*
X145063Y45553D02*
X147063D01*
X254227Y147716D02*
X256227D01*
X255227Y146716D02*
Y148716D01*
X288508Y165717D02*
X290508D01*
X289508Y164716D02*
Y166717D01*
X288063Y113716D02*
X290063D01*
X289063Y112716D02*
Y114716D01*
X288063Y147716D02*
X290063D01*
X289063Y146716D02*
Y148716D01*
X254227Y114716D02*
X256227D01*
X255227Y113716D02*
Y115717D01*
X146063Y134553D02*
Y136553D01*
X145063Y135553D02*
X147063D01*
X254227Y229716D02*
X256227D01*
X255227Y228716D02*
Y230716D01*
X185123Y197050D02*
X187123D01*
X186123Y196050D02*
Y198050D01*
X288063Y196716D02*
X290063D01*
X289063Y195717D02*
Y197716D01*
X111063Y147716D02*
X113063D01*
X112063Y146716D02*
Y148716D01*
X187063Y248716D02*
Y250716D01*
X186063Y249716D02*
X188063D01*
X289063Y245969D02*
Y247969D01*
X288063Y246969D02*
X290063D01*
X164063Y146716D02*
Y148716D01*
X163063Y147716D02*
X165063D01*
X152287Y230125D02*
Y232125D01*
X151287Y231125D02*
X153287D01*
X146138Y180553D02*
Y182553D01*
X145138Y181553D02*
X147138D01*
X150123Y261050D02*
Y263050D01*
X149123Y262050D02*
X151123D01*
X256089Y248716D02*
Y250716D01*
X255089Y249716D02*
X257089D01*
X165063Y180717D02*
Y182717D01*
X164063Y181717D02*
X166063D01*
X186123Y230050D02*
Y232050D01*
X185123Y231050D02*
X187123D01*
X289063Y229716D02*
Y231716D01*
X288063Y230716D02*
X290063D01*
X146063Y146716D02*
Y148716D01*
X145063Y147716D02*
X147063D01*
X151287Y198050D02*
X153287D01*
X152287Y197050D02*
Y199050D01*
X254227Y197716D02*
X256227D01*
X255227Y196716D02*
Y198716D01*
X112063Y181553D02*
X114063D01*
X113063Y180553D02*
Y182553D01*
X211227Y15717D02*
Y17717D01*
X210227Y16716D02*
X212227D01*
X245063Y14717D02*
Y16716D01*
X244063Y15717D02*
X246063D01*
X244063Y66716D02*
X246063D01*
X245063Y65716D02*
Y67716D01*
X210063D02*
X212063D01*
X211063Y66716D02*
Y68717D01*
X244063Y49716D02*
X246063D01*
X245063Y48717D02*
Y50717D01*
X257227Y15717D02*
Y17717D01*
X256227Y16716D02*
X258227D01*
X291063Y14717D02*
Y16716D01*
X290063Y15717D02*
X292063D01*
X292508Y80717D02*
X294508D01*
X293508Y79716D02*
Y81717D01*
X256063Y68717D02*
X258063D01*
X257063Y67716D02*
Y69717D01*
X290063Y49716D02*
X292063D01*
X291063Y48717D02*
Y50717D01*
X146063Y10717D02*
Y12717D01*
X145063Y11716D02*
X147063D01*
X164173Y47819D02*
Y49819D01*
X163173Y48819D02*
X165173D01*
X164063Y10717D02*
Y12717D01*
X163063Y11716D02*
X165063D01*
X111063D02*
X113063D01*
X112063Y10717D02*
Y12717D01*
Y45553D02*
X114063D01*
X113063Y44553D02*
Y46553D01*
X164173Y92701D02*
Y94701D01*
X163173Y93701D02*
X165173D01*
X165063Y55717D02*
Y57717D01*
X164063Y56717D02*
X166063D01*
X111063D02*
X113063D01*
X112063Y55717D02*
Y57717D01*
Y90553D02*
X114063D01*
X113063Y89553D02*
Y91553D01*
X146063Y100716D02*
Y102717D01*
X145063Y101716D02*
X147063D01*
X164684Y135048D02*
Y137048D01*
X163684Y136048D02*
X165684D01*
X164756Y100535D02*
Y102535D01*
X163756Y101535D02*
X165756D01*
X111063Y101716D02*
X113063D01*
X112063Y100716D02*
Y102717D01*
Y135553D02*
X114063D01*
X113063Y134553D02*
Y136553D01*
X196063Y234717D02*
Y236717D01*
X195063Y235717D02*
X197063D01*
X143456Y197740D02*
X145456D01*
X144456Y196740D02*
Y198740D01*
X110227Y197716D02*
X112227D01*
X111227Y196716D02*
Y198716D01*
X111063Y236717D02*
Y238717D01*
X110063Y237717D02*
X112063D01*
X111063Y223716D02*
Y225716D01*
X110063Y224716D02*
X112063D01*
X111063Y247716D02*
Y249716D01*
X110063Y248716D02*
X112063D01*
X145063Y229716D02*
Y231716D01*
X144063Y230716D02*
X146063D01*
X195063Y190717D02*
X197063D01*
X196063Y189716D02*
Y191717D01*
X115063Y175716D02*
X117063D01*
X116063Y174716D02*
Y176716D01*
X235063Y130717D02*
X237063D01*
X236063Y129717D02*
Y131717D01*
X115063Y100716D02*
X117063D01*
X116063Y99717D02*
Y101716D01*
X115063Y55717D02*
X117063D01*
X116063Y54716D02*
Y56717D01*
X195063Y25717D02*
X197063D01*
X196063Y24716D02*
Y26717D01*
X235063Y160716D02*
X237063D01*
X236063Y159716D02*
Y161716D01*
X155063Y175716D02*
X157063D01*
X156063Y174716D02*
Y176716D01*
X235063Y145717D02*
X237063D01*
X236063Y144717D02*
Y146716D01*
X155063Y100716D02*
X157063D01*
X156063Y99717D02*
Y101716D01*
X155063Y55717D02*
X157063D01*
X156063Y54716D02*
Y56717D01*
X235063Y85716D02*
X237063D01*
X236063Y84716D02*
Y86717D01*
X195063Y220717D02*
X197063D01*
X196063Y219717D02*
Y221716D01*
X275063Y235717D02*
X277063D01*
X276063Y234717D02*
Y236717D01*
X195063Y175716D02*
X197063D01*
X196063Y174716D02*
Y176716D01*
X155063Y130717D02*
X157063D01*
X156063Y129717D02*
Y131717D01*
X235063Y115717D02*
X237063D01*
X236063Y114716D02*
Y116717D01*
X115063Y85716D02*
X117063D01*
X116063Y84716D02*
Y86717D01*
X195063Y55717D02*
X197063D01*
X196063Y54716D02*
Y56717D01*
X235063Y70717D02*
X237063D01*
X236063Y69717D02*
Y71716D01*
X235063Y220717D02*
X237063D01*
X236063Y219717D02*
Y221716D01*
X275063Y220717D02*
X277063D01*
X276063Y219717D02*
Y221716D01*
X115063Y160716D02*
X117063D01*
X116063Y159716D02*
Y161716D01*
X195063Y130717D02*
X197063D01*
X196063Y129717D02*
Y131717D01*
X155063Y85716D02*
X157063D01*
X156063Y84716D02*
Y86717D01*
X115063Y40716D02*
X117063D01*
X116063Y39717D02*
Y41717D01*
X235063Y55717D02*
X237063D01*
X236063Y54716D02*
Y56717D01*
X195063Y205716D02*
X197063D01*
X196063Y204716D02*
Y206716D01*
X155063Y160716D02*
X157063D01*
X156063Y159716D02*
Y161716D01*
X115063Y115717D02*
X117063D01*
X116063Y114716D02*
Y116717D01*
X275063Y145717D02*
X277063D01*
X276063Y144717D02*
Y146716D01*
X195063Y85716D02*
X197063D01*
X196063Y84716D02*
Y86717D01*
X155063Y40716D02*
X157063D01*
X156063Y39717D02*
Y41717D01*
X235063Y40716D02*
X237063D01*
X236063Y39717D02*
Y41717D01*
X235063Y205716D02*
X237063D01*
X236063Y204716D02*
Y206716D01*
X275063Y190717D02*
X277063D01*
X276063Y189716D02*
Y191717D01*
X195063Y160716D02*
X197063D01*
X196063Y159716D02*
Y161716D01*
X275063Y130717D02*
X277063D01*
X276063Y129717D02*
Y131717D01*
X115063Y70717D02*
X117063D01*
X116063Y69717D02*
Y71716D01*
X195063Y40716D02*
X197063D01*
X196063Y39717D02*
Y41717D01*
X235063Y25717D02*
X237063D01*
X236063Y24716D02*
Y26717D01*
X275063Y25717D02*
X277063D01*
X276063Y24716D02*
Y26717D01*
X275063Y175716D02*
X277063D01*
X276063Y174716D02*
Y176716D01*
X155063Y145717D02*
X157063D01*
X156063Y144717D02*
Y146716D01*
X195063Y100716D02*
X197063D01*
X196063Y99717D02*
Y101716D01*
X275063Y100716D02*
X277063D01*
X276063Y99717D02*
Y101716D01*
X195063Y70717D02*
X197063D01*
X196063Y69717D02*
Y71716D01*
X155063Y25717D02*
X157063D01*
X156063Y24716D02*
Y26717D01*
X275063Y70717D02*
X277063D01*
X276063Y69717D02*
Y71716D01*
X275063Y55717D02*
X277063D01*
X276063Y54716D02*
Y56717D01*
X235063Y190717D02*
X237063D01*
X236063Y189716D02*
Y191717D01*
X275063Y160716D02*
X277063D01*
X276063Y159716D02*
Y161716D01*
X195063Y115717D02*
X197063D01*
X196063Y114716D02*
Y116717D01*
X275063Y115717D02*
X277063D01*
X276063Y114716D02*
Y116717D01*
X115063Y25717D02*
X117063D01*
X116063Y24716D02*
Y26717D01*
X275063Y85716D02*
X277063D01*
X276063Y84716D02*
Y86717D01*
X275063Y40716D02*
X277063D01*
X276063Y39717D02*
Y41717D01*
X115063Y205716D02*
X117063D01*
X116063Y204716D02*
Y206716D01*
X155063Y220717D02*
X157063D01*
X156063Y219717D02*
Y221716D01*
X155063Y235717D02*
X157063D01*
X156063Y234717D02*
Y236717D01*
X155063Y205716D02*
X157063D01*
X156063Y204716D02*
Y206716D01*
X115063Y190717D02*
X117063D01*
X116063Y189716D02*
Y191717D01*
X155063Y190717D02*
X157063D01*
X156063Y189716D02*
Y191717D01*
X131383Y390586D02*
X133383D01*
X132383Y389586D02*
Y391586D01*
X331493Y390326D02*
X333493D01*
X332493Y389327D02*
Y391326D01*
X532183Y389671D02*
Y391671D01*
X531183Y390671D02*
X533183D01*
X731483Y390686D02*
X733483D01*
X732483Y389686D02*
Y391687D01*
X209383Y385243D02*
Y387243D01*
X208383Y386243D02*
X210383D01*
X409493Y384982D02*
Y386982D01*
X408493Y385982D02*
X410493D01*
X608183Y386327D02*
X610183D01*
X609183Y385327D02*
Y387327D01*
X808483Y386343D02*
X810483D01*
X809483Y385343D02*
Y387343D01*
X233983Y398587D02*
X235983D01*
X234983Y397586D02*
Y399587D01*
X434093Y398326D02*
X436093D01*
X435093Y397326D02*
Y399326D01*
X634783Y397672D02*
Y399672D01*
X633783Y398672D02*
X635783D01*
X834083Y398687D02*
X836083D01*
X835083Y397687D02*
Y399687D01*
X131383Y396087D02*
X133383D01*
X132383Y395087D02*
Y397087D01*
X331493Y395827D02*
X333493D01*
X332493Y394827D02*
Y396827D01*
X532183Y395171D02*
Y397171D01*
X531183Y396171D02*
X533183D01*
X731483Y396186D02*
X733483D01*
X732483Y395186D02*
Y397186D01*
X144883Y394087D02*
X146883D01*
X145883Y393087D02*
Y395087D01*
X344993Y393827D02*
X346993D01*
X345993Y392827D02*
Y394827D01*
X545683Y393172D02*
Y395171D01*
X544683Y394172D02*
X546683D01*
X744983Y394186D02*
X746983D01*
X745983Y393186D02*
Y395186D01*
X235283Y311887D02*
X237283D01*
X236283Y310887D02*
Y312887D01*
X435393Y311627D02*
X437393D01*
X436393Y310627D02*
Y312627D01*
X636083Y310971D02*
Y312971D01*
X635083Y311971D02*
X637083D01*
X836383Y310986D02*
Y312986D01*
X835383Y311986D02*
X837383D01*
X154365Y389854D02*
Y391854D01*
X153365Y390854D02*
X155365D01*
X354475Y389594D02*
Y391594D01*
X353475Y390594D02*
X355475D01*
X553165Y390939D02*
X555165D01*
X554165Y389939D02*
Y391939D01*
X754465Y389954D02*
Y391954D01*
X753465Y390954D02*
X755465D01*
X233983Y392787D02*
X235983D01*
X234983Y391787D02*
Y393787D01*
X434093Y392527D02*
X436093D01*
X435093Y391527D02*
Y393527D01*
X634783Y391872D02*
Y393871D01*
X633783Y392871D02*
X635783D01*
X835083Y391886D02*
Y393886D01*
X834083Y392886D02*
X836083D01*
X144783Y387887D02*
X146783D01*
X145783Y386887D02*
Y388886D01*
X344893Y387627D02*
X346893D01*
X345893Y386627D02*
Y388627D01*
X545583Y386971D02*
Y388971D01*
X544583Y387971D02*
X546583D01*
X745883Y386986D02*
Y388986D01*
X744883Y387986D02*
X746883D01*
X142983Y310986D02*
Y312986D01*
X141983Y311986D02*
X143983D01*
X343093Y310726D02*
Y312726D01*
X342093Y311726D02*
X344093D01*
X541783Y312071D02*
X543783D01*
X542783Y311071D02*
Y313071D01*
X743083Y311087D02*
Y313087D01*
X742083Y312087D02*
X744083D01*
X223083Y370087D02*
Y372087D01*
X222083Y371087D02*
X224083D01*
X423193Y369827D02*
Y371827D01*
X422193Y370827D02*
X424193D01*
X621883Y371171D02*
X623883D01*
X622883Y370171D02*
Y372171D01*
X823183Y370186D02*
Y372186D01*
X822183Y371186D02*
X824183D01*
X150883Y333686D02*
X152883D01*
X151883Y332686D02*
Y334686D01*
X350993Y333426D02*
X352993D01*
X351993Y332427D02*
Y334426D01*
X551683Y332771D02*
Y334771D01*
X550683Y333771D02*
X552683D01*
X750983Y333787D02*
X752983D01*
X751983Y332786D02*
Y334787D01*
X149583Y311087D02*
Y313087D01*
X148583Y312087D02*
X150583D01*
X349693Y310826D02*
Y312826D01*
X348693Y311826D02*
X350693D01*
X548383Y312172D02*
X550383D01*
X549383Y311172D02*
Y313172D01*
X749683Y311187D02*
Y313187D01*
X748683Y312187D02*
X750683D01*
X178583Y318087D02*
Y320087D01*
X177583Y319087D02*
X179583D01*
X378693Y317827D02*
Y319827D01*
X377693Y318827D02*
X379693D01*
X577383Y319172D02*
X579383D01*
X578383Y318172D02*
Y320171D01*
X777683Y319186D02*
X779683D01*
X778683Y318186D02*
Y320186D01*
X224783Y309831D02*
Y311831D01*
X223783Y310831D02*
X225783D01*
X424893Y309571D02*
Y311571D01*
X423893Y310571D02*
X425893D01*
X623583Y310916D02*
X625583D01*
X624583Y309916D02*
Y311916D01*
X824883Y309931D02*
Y311931D01*
X823883Y310931D02*
X825883D01*
X219283Y322287D02*
X221283D01*
X220283Y321287D02*
Y323287D01*
X419393Y322026D02*
X421393D01*
X420393Y321026D02*
Y323026D01*
X620083Y321372D02*
Y323372D01*
X619083Y322372D02*
X621083D01*
X819383Y322387D02*
X821383D01*
X820383Y321387D02*
Y323387D01*
X223183Y388286D02*
X225183D01*
X224183Y387286D02*
Y389286D01*
X423293Y388026D02*
X425293D01*
X424293Y387027D02*
Y389026D01*
X623983Y387371D02*
Y389371D01*
X622983Y388371D02*
X624983D01*
X823283Y388387D02*
X825283D01*
X824283Y387386D02*
Y389387D01*
X129183Y313387D02*
X131183D01*
X130183Y312386D02*
Y314387D01*
X329293Y313126D02*
X331293D01*
X330293Y312126D02*
Y314126D01*
X529983Y312472D02*
Y314472D01*
X528983Y313472D02*
X530983D01*
X729283Y313487D02*
X731283D01*
X730283Y312487D02*
Y314487D01*
X149683Y376186D02*
X151683D01*
X150683Y375186D02*
Y377186D01*
X349793Y375926D02*
X351793D01*
X350793Y374926D02*
Y376926D01*
X550483Y375272D02*
Y377272D01*
X549483Y376272D02*
X551483D01*
X749783Y376287D02*
X751783D01*
X750783Y375287D02*
Y377287D01*
X149783Y381887D02*
X151783D01*
X150783Y380887D02*
Y382887D01*
X349893Y381627D02*
X351893D01*
X350893Y380627D02*
Y382627D01*
X550583Y380972D02*
Y382972D01*
X549583Y381972D02*
X551583D01*
X749883Y381986D02*
X751883D01*
X750883Y380986D02*
Y382986D01*
X150783Y326486D02*
X152783D01*
X151783Y325486D02*
Y327486D01*
X350893Y326226D02*
X352893D01*
X351893Y325226D02*
Y327226D01*
X551583Y325571D02*
Y327572D01*
X550583Y326571D02*
X552583D01*
X750883Y326587D02*
X752883D01*
X751883Y325587D02*
Y327587D01*
X150683Y320387D02*
X152683D01*
X151683Y319387D02*
Y321387D01*
X350793Y320127D02*
X352793D01*
X351793Y319127D02*
Y321127D01*
X551483Y319472D02*
Y321472D01*
X550483Y320472D02*
X552483D01*
X750783Y320486D02*
X752783D01*
X751783Y319486D02*
Y321486D01*
X216783Y309331D02*
Y311331D01*
X215783Y310331D02*
X217783D01*
X416893Y309071D02*
Y311071D01*
X415893Y310071D02*
X417893D01*
X615583Y310416D02*
X617583D01*
X616583Y309416D02*
Y311416D01*
X816883Y309431D02*
Y311431D01*
X815883Y310431D02*
X817883D01*
X129227Y307287D02*
X131227D01*
X130227Y306287D02*
Y308286D01*
X329337Y307027D02*
X331337D01*
X330337Y306027D02*
Y308027D01*
X530027Y306371D02*
Y308371D01*
X529027Y307371D02*
X531027D01*
X729327Y307386D02*
X731327D01*
X730327Y306386D02*
Y308386D01*
X173183Y317986D02*
Y319987D01*
X172183Y318987D02*
X174183D01*
X373293Y317726D02*
Y319726D01*
X372293Y318726D02*
X374293D01*
X571983Y319072D02*
X573983D01*
X572983Y318072D02*
Y320072D01*
X773283Y318087D02*
Y320087D01*
X772283Y319087D02*
X774283D01*
X160883Y319286D02*
Y321287D01*
X159883Y320286D02*
X161883D01*
X360993Y319026D02*
Y321026D01*
X359993Y320026D02*
X361993D01*
X559683Y320372D02*
X561683D01*
X560683Y319372D02*
Y321372D01*
X760983Y319387D02*
Y321387D01*
X759983Y320387D02*
X761983D01*
X149983Y341687D02*
X151983D01*
X150983Y340686D02*
Y342687D01*
X350093Y341426D02*
X352093D01*
X351093Y340426D02*
Y342426D01*
X550783Y340772D02*
Y342772D01*
X549783Y341772D02*
X551783D01*
X750083Y341787D02*
X752083D01*
X751083Y340787D02*
Y342787D01*
X149983Y368186D02*
X151983D01*
X150983Y367186D02*
Y369186D01*
X350093Y367927D02*
X352093D01*
X351093Y366927D02*
Y368927D01*
X550783Y367271D02*
Y369271D01*
X549783Y368271D02*
X551783D01*
X750083Y368286D02*
X752083D01*
X751083Y367286D02*
Y369286D01*
X160783Y383187D02*
Y385187D01*
X159783Y384187D02*
X161783D01*
X360893Y382927D02*
Y384927D01*
X359893Y383927D02*
X361893D01*
X559583Y384272D02*
X561583D01*
X560583Y383272D02*
Y385272D01*
X760883Y383286D02*
Y385286D01*
X759883Y384286D02*
X761883D01*
X182183Y382887D02*
Y384887D01*
X181183Y383887D02*
X183183D01*
X382293Y382627D02*
Y384627D01*
X381293Y383627D02*
X383293D01*
X580983Y383972D02*
X582983D01*
X581983Y382972D02*
Y384971D01*
X782283Y382986D02*
Y384986D01*
X781283Y383986D02*
X783283D01*
X201583Y381386D02*
Y383386D01*
X200583Y382386D02*
X202583D01*
X401693Y381126D02*
Y383126D01*
X400693Y382126D02*
X402693D01*
X600383Y382471D02*
X602383D01*
X601383Y381471D02*
Y383471D01*
X801683Y381487D02*
Y383487D01*
X800683Y382487D02*
X802683D01*
X219533Y331778D02*
X221533D01*
X220533Y330778D02*
Y332778D01*
X419643Y331518D02*
X421643D01*
X420643Y330518D02*
Y332518D01*
X620333Y330863D02*
Y332863D01*
X619333Y331863D02*
X621333D01*
X819633Y331878D02*
X821633D01*
X820633Y330878D02*
Y332878D01*
X206783Y315331D02*
Y317331D01*
X205783Y316331D02*
X207783D01*
X406893Y315071D02*
Y317071D01*
X405893Y316071D02*
X407893D01*
X605583Y316416D02*
X607583D01*
X606583Y315416D02*
Y317416D01*
X806883Y315431D02*
Y317431D01*
X805883Y316431D02*
X807883D01*
X219083Y354486D02*
X221083D01*
X220083Y353486D02*
Y355486D01*
X419193Y354226D02*
X421193D01*
X420193Y353226D02*
Y355226D01*
X619883Y353572D02*
Y355572D01*
X618883Y354572D02*
X620883D01*
X819183Y354587D02*
X821183D01*
X820183Y353587D02*
Y355587D01*
X166583Y319331D02*
Y321331D01*
X165583Y320331D02*
X167583D01*
X366693Y319071D02*
Y321071D01*
X365693Y320071D02*
X367693D01*
X565383Y320416D02*
X567383D01*
X566383Y319416D02*
Y321416D01*
X766683Y319431D02*
Y321431D01*
X765683Y320431D02*
X767683D01*
X177149Y382745D02*
Y384745D01*
X176149Y383745D02*
X178149D01*
X377259Y382485D02*
Y384485D01*
X376259Y383485D02*
X378259D01*
X575949Y383830D02*
X577949D01*
X576949Y382830D02*
Y384830D01*
X777249Y382845D02*
Y384845D01*
X776249Y383845D02*
X778249D01*
X244420Y383187D02*
X246420D01*
X245420Y382187D02*
Y384187D01*
X444530Y382927D02*
X446530D01*
X445530Y381926D02*
Y383927D01*
X645220Y382272D02*
Y384272D01*
X644220Y383272D02*
X646220D01*
X844520Y383286D02*
X846520D01*
X845520Y382287D02*
Y384286D01*
X525013Y317761D02*
Y319761D01*
X524013Y318761D02*
X526013D01*
X525013Y323692D02*
Y325692D01*
X524013Y324692D02*
X526013D01*
X518883Y337227D02*
Y339227D01*
X517883Y338227D02*
X519883D01*
X324323Y318417D02*
X326323D01*
X325323Y317417D02*
Y319416D01*
X324323Y324346D02*
X326323D01*
X325323Y323346D02*
Y325346D01*
X318193Y337882D02*
X320193D01*
X319193Y336882D02*
Y338882D01*
X125213Y317676D02*
Y319676D01*
X124213Y318676D02*
X126213D01*
X125213Y323606D02*
Y325606D01*
X124213Y324606D02*
X126213D01*
X119083Y337142D02*
Y339142D01*
X118083Y338142D02*
X120083D01*
X725313Y317776D02*
Y319777D01*
X724313Y318776D02*
X726313D01*
X724313Y324707D02*
X726313D01*
X725313Y323707D02*
Y325707D01*
X718183Y338243D02*
X720183D01*
X719183Y337243D02*
Y339243D01*
D18*
X888039Y10264D02*
Y41169D01*
X860087Y10264D02*
X888039D01*
X860087D02*
Y41169D01*
X888039D01*
X688039Y10264D02*
Y41169D01*
X660087Y10264D02*
X688039D01*
X660087D02*
Y41169D01*
X688039D01*
X488039Y10264D02*
Y41169D01*
X460087Y10264D02*
X488039D01*
X460087D02*
Y41169D01*
X488039D01*
X288039Y10264D02*
Y41169D01*
X260087Y10264D02*
X288039D01*
X260087D02*
Y41169D01*
X288039D01*
X842039Y10264D02*
Y41169D01*
X814087Y10264D02*
X842039D01*
X814087D02*
Y41169D01*
X842039D01*
X642039Y10264D02*
Y41169D01*
X614087Y10264D02*
X642039D01*
X614087D02*
Y41169D01*
X642039D01*
X442039Y10264D02*
Y41169D01*
X414087Y10264D02*
X442039D01*
X414087D02*
Y41169D01*
X442039D01*
X242039Y10264D02*
Y41169D01*
X214087Y10264D02*
X242039D01*
X214087D02*
Y41169D01*
X242039D01*
X706610Y14740D02*
X737516D01*
X706610D02*
Y42693D01*
X737516D01*
Y14740D02*
Y42693D01*
X506610Y14740D02*
X537516D01*
X506610D02*
Y42693D01*
X537516D01*
Y14740D02*
Y42693D01*
X306610Y14740D02*
X337516D01*
X306610D02*
Y42693D01*
X337516D01*
Y14740D02*
Y42693D01*
X106610Y14740D02*
X137516D01*
X106610D02*
Y42693D01*
X137516D01*
Y14740D02*
Y42693D01*
X706610Y59740D02*
X737516D01*
X706610D02*
Y87693D01*
X737516D01*
Y59740D02*
Y87693D01*
X506610Y59740D02*
X537516D01*
X506610D02*
Y87693D01*
X537516D01*
Y59740D02*
Y87693D01*
X306610Y59740D02*
X337516D01*
X306610D02*
Y87693D01*
X337516D01*
Y59740D02*
Y87693D01*
X106610Y59740D02*
X137516D01*
X106610D02*
Y87693D01*
X137516D01*
Y59740D02*
Y87693D01*
X886040Y108264D02*
Y139169D01*
X858087Y108264D02*
X886040D01*
X858087D02*
Y139169D01*
X886040D01*
X686039Y108264D02*
Y139169D01*
X658087Y108264D02*
X686039D01*
X658087D02*
Y139169D01*
X686039D01*
X486039Y108264D02*
Y139169D01*
X458087Y108264D02*
X486039D01*
X458087D02*
Y139169D01*
X486039D01*
X286039Y108264D02*
Y139169D01*
X258087Y108264D02*
X286039D01*
X258087D02*
Y139169D01*
X286039D01*
X706610Y104740D02*
X737516D01*
X706610D02*
Y132693D01*
X737516D01*
Y104740D02*
Y132693D01*
X506610Y104740D02*
X537516D01*
X506610D02*
Y132693D01*
X537516D01*
Y104740D02*
Y132693D01*
X306610Y104740D02*
X337516D01*
X306610D02*
Y132693D01*
X337516D01*
Y104740D02*
Y132693D01*
X106610Y104740D02*
X137516D01*
X106610D02*
Y132693D01*
X137516D01*
Y104740D02*
Y132693D01*
X706610Y150740D02*
X737516D01*
X706610D02*
Y178693D01*
X737516D01*
Y150740D02*
Y178693D01*
X506610Y150740D02*
X537516D01*
X506610D02*
Y178693D01*
X537516D01*
Y150740D02*
Y178693D01*
X306610Y150740D02*
X337516D01*
X306610D02*
Y178693D01*
X337516D01*
Y150740D02*
Y178693D01*
X106610Y150740D02*
X137516D01*
X106610D02*
Y178693D01*
X137516D01*
Y150740D02*
Y178693D01*
X886040Y191264D02*
Y222169D01*
X858087Y191264D02*
X886040D01*
X858087D02*
Y222169D01*
X886040D01*
X686039Y191264D02*
Y222169D01*
X658087Y191264D02*
X686039D01*
X658087D02*
Y222169D01*
X686039D01*
X486039Y191264D02*
Y222169D01*
X458087Y191264D02*
X486039D01*
X458087D02*
Y222169D01*
X486039D01*
X286039Y191264D02*
Y222169D01*
X258087Y191264D02*
X286039D01*
X258087D02*
Y222169D01*
X286039D01*
X783099Y191598D02*
Y222503D01*
X755146Y191598D02*
X783099D01*
X755146D02*
Y222503D01*
X783099D01*
X583099Y191598D02*
Y222503D01*
X555146Y191598D02*
X583099D01*
X555146D02*
Y222503D01*
X583099D01*
X383099Y191598D02*
Y222503D01*
X355146Y191598D02*
X383099D01*
X355146D02*
Y222503D01*
X383099D01*
X183099Y191598D02*
Y222503D01*
X155146Y191598D02*
X183099D01*
X155146D02*
Y222503D01*
X183099D01*
X742045Y190295D02*
Y221201D01*
X714092Y190295D02*
X742045D01*
X714092D02*
Y221201D01*
X742045D01*
X542045Y190295D02*
Y221201D01*
X514092Y190295D02*
X542045D01*
X514092D02*
Y221201D01*
X542045D01*
X342045Y190295D02*
Y221201D01*
X314092Y190295D02*
X342045D01*
X314092D02*
Y221201D01*
X342045D01*
X142045Y190295D02*
Y221201D01*
X114092Y190295D02*
X142045D01*
X114092D02*
Y221201D01*
X142045D01*
D19*
X201063Y129786D02*
D03*
X401063Y133217D02*
D03*
D20*
X798563D02*
D03*
X598563D02*
D03*
M02*
