G04*
G04 #@! TF.GenerationSoftware,Altium Limited,Altium Designer,18.1.7 (191)*
G04*
G04 Layer_Color=16711935*
%FSLAX25Y25*%
%MOIN*%
G70*
G01*
G75*
%ADD13C,0.00394*%
%ADD18C,0.04000*%
D13*
X886858Y17055D02*
Y34378D01*
X861268Y17055D02*
X886858D01*
X861268D02*
Y34378D01*
X886858D01*
X884299D02*
X886858Y31819D01*
X686858Y17055D02*
Y34378D01*
X661268Y17055D02*
X686858D01*
X661268D02*
Y34378D01*
X686858D01*
X684299D02*
X686858Y31819D01*
X486858Y17055D02*
Y34378D01*
X461268Y17055D02*
X486858D01*
X461268D02*
Y34378D01*
X486858D01*
X484299D02*
X486858Y31819D01*
X286858Y17055D02*
Y34378D01*
X261268Y17055D02*
X286858D01*
X261268D02*
Y34378D01*
X286858D01*
X284299D02*
X286858Y31819D01*
X840858Y17055D02*
Y34378D01*
X815268Y17055D02*
X840858D01*
X815268D02*
Y34378D01*
X840858D01*
X838299D02*
X840858Y31819D01*
X640858Y17055D02*
Y34378D01*
X615268Y17055D02*
X640858D01*
X615268D02*
Y34378D01*
X640858D01*
X638299D02*
X640858Y31819D01*
X440858Y17055D02*
Y34378D01*
X415268Y17055D02*
X440858D01*
X415268D02*
Y34378D01*
X440858D01*
X438299D02*
X440858Y31819D01*
X240858Y17055D02*
Y34378D01*
X215268Y17055D02*
X240858D01*
X215268D02*
Y34378D01*
X240858D01*
X238299D02*
X240858Y31819D01*
X713402Y15921D02*
X730725D01*
X713402D02*
Y41512D01*
X730725D01*
Y15921D02*
Y41512D01*
X728165Y15921D02*
X730725Y18480D01*
X513402Y15921D02*
X530725D01*
X513402D02*
Y41512D01*
X530725D01*
Y15921D02*
Y41512D01*
X528165Y15921D02*
X530725Y18480D01*
X313402Y15921D02*
X330725D01*
X313402D02*
Y41512D01*
X330725D01*
Y15921D02*
Y41512D01*
X328166Y15921D02*
X330725Y18480D01*
X113402Y15921D02*
X130725D01*
X113402D02*
Y41512D01*
X130725D01*
Y15921D02*
Y41512D01*
X128165Y15921D02*
X130725Y18480D01*
X713402Y60921D02*
X730725D01*
X713402D02*
Y86512D01*
X730725D01*
Y60921D02*
Y86512D01*
X728165Y60921D02*
X730725Y63480D01*
X513402Y60921D02*
X530725D01*
X513402D02*
Y86512D01*
X530725D01*
Y60921D02*
Y86512D01*
X528165Y60921D02*
X530725Y63480D01*
X313402Y60921D02*
X330725D01*
X313402D02*
Y86512D01*
X330725D01*
Y60921D02*
Y86512D01*
X328166Y60921D02*
X330725Y63480D01*
X113402Y60921D02*
X130725D01*
X113402D02*
Y86512D01*
X130725D01*
Y60921D02*
Y86512D01*
X128165Y60921D02*
X130725Y63480D01*
X884858Y115055D02*
Y132378D01*
X859268Y115055D02*
X884858D01*
X859268D02*
Y132378D01*
X884858D01*
X882299D02*
X884858Y129819D01*
X684858Y115055D02*
Y132378D01*
X659268Y115055D02*
X684858D01*
X659268D02*
Y132378D01*
X684858D01*
X682299D02*
X684858Y129819D01*
X484858Y115055D02*
Y132378D01*
X459268Y115055D02*
X484858D01*
X459268D02*
Y132378D01*
X484858D01*
X482299D02*
X484858Y129819D01*
X284858Y115055D02*
Y132378D01*
X259268Y115055D02*
X284858D01*
X259268D02*
Y132378D01*
X284858D01*
X282299D02*
X284858Y129819D01*
X713402Y105921D02*
X730725D01*
X713402D02*
Y131512D01*
X730725D01*
Y105921D02*
Y131512D01*
X728165Y105921D02*
X730725Y108480D01*
X513402Y105921D02*
X530725D01*
X513402D02*
Y131512D01*
X530725D01*
Y105921D02*
Y131512D01*
X528165Y105921D02*
X530725Y108480D01*
X313402Y105921D02*
X330725D01*
X313402D02*
Y131512D01*
X330725D01*
Y105921D02*
Y131512D01*
X328166Y105921D02*
X330725Y108480D01*
X113402Y105921D02*
X130725D01*
X113402D02*
Y131512D01*
X130725D01*
Y105921D02*
Y131512D01*
X128165Y105921D02*
X130725Y108480D01*
X713402Y151921D02*
X730725D01*
X713402D02*
Y177512D01*
X730725D01*
Y151921D02*
Y177512D01*
X728165Y151921D02*
X730725Y154480D01*
X513402Y151921D02*
X530725D01*
X513402D02*
Y177512D01*
X530725D01*
Y151921D02*
Y177512D01*
X528165Y151921D02*
X530725Y154480D01*
X313402Y151921D02*
X330725D01*
X313402D02*
Y177512D01*
X330725D01*
Y151921D02*
Y177512D01*
X328166Y151921D02*
X330725Y154480D01*
X113402Y151921D02*
X130725D01*
X113402D02*
Y177512D01*
X130725D01*
Y151921D02*
Y177512D01*
X128165Y151921D02*
X130725Y154480D01*
X884858Y198055D02*
Y215378D01*
X859268Y198055D02*
X884858D01*
X859268D02*
Y215378D01*
X884858D01*
X882299D02*
X884858Y212819D01*
X684858Y198055D02*
Y215378D01*
X659268Y198055D02*
X684858D01*
X659268D02*
Y215378D01*
X684858D01*
X682299D02*
X684858Y212819D01*
X484858Y198055D02*
Y215378D01*
X459268Y198055D02*
X484858D01*
X459268D02*
Y215378D01*
X484858D01*
X482299D02*
X484858Y212819D01*
X284858Y198055D02*
Y215378D01*
X259268Y198055D02*
X284858D01*
X259268D02*
Y215378D01*
X284858D01*
X282299D02*
X284858Y212819D01*
X781918Y198389D02*
Y215712D01*
X756327Y198389D02*
X781918D01*
X756327D02*
Y215712D01*
X781918D01*
X779359D02*
X781918Y213153D01*
X581918Y198389D02*
Y215712D01*
X556327Y198389D02*
X581918D01*
X556327D02*
Y215712D01*
X581918D01*
X579359D02*
X581918Y213153D01*
X381918Y198389D02*
Y215712D01*
X356328Y198389D02*
X381918D01*
X356328D02*
Y215712D01*
X381918D01*
X379359D02*
X381918Y213153D01*
X181918Y198389D02*
Y215712D01*
X156327Y198389D02*
X181918D01*
X156327D02*
Y215712D01*
X181918D01*
X179359D02*
X181918Y213153D01*
X740864Y197087D02*
Y214409D01*
X715273Y197087D02*
X740864D01*
X715273D02*
Y214409D01*
X740864D01*
X738305D02*
X740864Y211850D01*
X540864Y197087D02*
Y214409D01*
X515273Y197087D02*
X540864D01*
X515273D02*
Y214409D01*
X540864D01*
X538305D02*
X540864Y211850D01*
X340864Y197087D02*
Y214409D01*
X315273Y197087D02*
X340864D01*
X315273D02*
Y214409D01*
X340864D01*
X338305D02*
X340864Y211850D01*
X140864Y197087D02*
Y214409D01*
X115273Y197087D02*
X140864D01*
X115273D02*
Y214409D01*
X140864D01*
X138305D02*
X140864Y211850D01*
D18*
X0Y-100D02*
X919600D01*
X920300Y600D01*
Y435000D01*
X-100D02*
X920300D01*
X-100Y0D02*
Y435000D01*
M02*
