G04*
G04 #@! TF.GenerationSoftware,Altium Limited,Altium Designer,18.1.7 (191)*
G04*
G04 Layer_Color=32896*
%FSLAX25Y25*%
%MOIN*%
G70*
G01*
G75*
%ADD13C,0.00394*%
%ADD14C,0.00500*%
%ADD16C,0.01000*%
%ADD18C,0.04000*%
D13*
X476851Y24142D02*
Y27291D01*
X475257Y25717D02*
X476851Y24123D01*
X475257Y25717D02*
X476851Y27310D01*
X475257Y24043D02*
Y27390D01*
X470748Y23354D02*
Y28079D01*
X478524Y23354D02*
X481378D01*
Y28079D01*
X478524D02*
X481378D01*
X470748D02*
X473602D01*
X470748Y23354D02*
X473602D01*
X476851Y39142D02*
Y42291D01*
X475257Y40716D02*
X476851Y39123D01*
X475257Y40716D02*
X476851Y42310D01*
X475257Y39043D02*
Y42390D01*
X470748Y38354D02*
Y43079D01*
X478524Y38354D02*
X481378D01*
Y43079D01*
X478524D02*
X481378D01*
X470748D02*
X473602D01*
X470748Y38354D02*
X473602D01*
X476851Y54142D02*
Y57291D01*
X475257Y55717D02*
X476851Y54123D01*
X475257Y55717D02*
X476851Y57310D01*
X475257Y54043D02*
Y57390D01*
X470748Y53354D02*
Y58079D01*
X478524Y53354D02*
X481378D01*
Y58079D01*
X478524D02*
X481378D01*
X470748D02*
X473602D01*
X470748Y53354D02*
X473602D01*
X876851Y54142D02*
Y57291D01*
X875257Y55717D02*
X876851Y54123D01*
X875257Y55717D02*
X876851Y57310D01*
X875257Y54043D02*
Y57390D01*
X870748Y53354D02*
Y58079D01*
X878524Y53354D02*
X881378D01*
Y58079D01*
X878524D02*
X881378D01*
X870748D02*
X873602D01*
X870748Y53354D02*
X873602D01*
X876851Y39142D02*
Y42291D01*
X875257Y40716D02*
X876851Y39123D01*
X875257Y40716D02*
X876851Y42310D01*
X875257Y39043D02*
Y42390D01*
X870748Y38354D02*
Y43079D01*
X878524Y38354D02*
X881378D01*
Y43079D01*
X878524D02*
X881378D01*
X870748D02*
X873602D01*
X870748Y38354D02*
X873602D01*
X876851Y24142D02*
Y27291D01*
X875257Y25717D02*
X876851Y24123D01*
X875257Y25717D02*
X876851Y27310D01*
X875257Y24043D02*
Y27390D01*
X870748Y23354D02*
Y28079D01*
X878524Y23354D02*
X881378D01*
Y28079D01*
X878524D02*
X881378D01*
X870748D02*
X873602D01*
X870748Y23354D02*
X873602D01*
X676851Y54142D02*
Y57291D01*
X675257Y55717D02*
X676851Y54123D01*
X675257Y55717D02*
X676851Y57310D01*
X675257Y54043D02*
Y57390D01*
X670748Y53354D02*
Y58079D01*
X678524Y53354D02*
X681378D01*
Y58079D01*
X678524D02*
X681378D01*
X670748D02*
X673602D01*
X670748Y53354D02*
X673602D01*
X676851Y39142D02*
Y42291D01*
X675257Y40716D02*
X676851Y39123D01*
X675257Y40716D02*
X676851Y42310D01*
X675257Y39043D02*
Y42390D01*
X670748Y38354D02*
Y43079D01*
X678524Y38354D02*
X681378D01*
Y43079D01*
X678524D02*
X681378D01*
X670748D02*
X673602D01*
X670748Y38354D02*
X673602D01*
X676851Y24142D02*
Y27291D01*
X675257Y25717D02*
X676851Y24123D01*
X675257Y25717D02*
X676851Y27310D01*
X675257Y24043D02*
Y27390D01*
X670748Y23354D02*
Y28079D01*
X678524Y23354D02*
X681378D01*
Y28079D01*
X678524D02*
X681378D01*
X670748D02*
X673602D01*
X670748Y23354D02*
X673602D01*
X876851Y69142D02*
Y72291D01*
X875257Y70717D02*
X876851Y69123D01*
X875257Y70717D02*
X876851Y72310D01*
X875257Y69043D02*
Y72390D01*
X870748Y68354D02*
Y73079D01*
X878524Y68354D02*
X881378D01*
Y73079D01*
X878524D02*
X881378D01*
X870748D02*
X873602D01*
X870748Y68354D02*
X873602D01*
X876851Y84142D02*
Y87291D01*
X875257Y85716D02*
X876851Y84123D01*
X875257Y85716D02*
X876851Y87310D01*
X875257Y84043D02*
Y87390D01*
X870748Y83354D02*
Y88079D01*
X878524Y83354D02*
X881378D01*
Y88079D01*
X878524D02*
X881378D01*
X870748D02*
X873602D01*
X870748Y83354D02*
X873602D01*
X836850Y24142D02*
Y27291D01*
X835257Y25717D02*
X836850Y24123D01*
X835257Y25717D02*
X836850Y27310D01*
X835257Y24043D02*
Y27390D01*
X830748Y23354D02*
Y28079D01*
X838524Y23354D02*
X841378D01*
Y28079D01*
X838524D02*
X841378D01*
X830748D02*
X833603D01*
X830748Y23354D02*
X833603D01*
X836850Y39142D02*
Y42291D01*
X835257Y40716D02*
X836850Y39123D01*
X835257Y40716D02*
X836850Y42310D01*
X835257Y39043D02*
Y42390D01*
X830748Y38354D02*
Y43079D01*
X838524Y38354D02*
X841378D01*
Y43079D01*
X838524D02*
X841378D01*
X830748D02*
X833603D01*
X830748Y38354D02*
X833603D01*
X836850Y54142D02*
Y57291D01*
X835257Y55717D02*
X836850Y54123D01*
X835257Y55717D02*
X836850Y57310D01*
X835257Y54043D02*
Y57390D01*
X830748Y53354D02*
Y58079D01*
X838524Y53354D02*
X841378D01*
Y58079D01*
X838524D02*
X841378D01*
X830748D02*
X833603D01*
X830748Y53354D02*
X833603D01*
X836850Y69142D02*
Y72291D01*
X835257Y70717D02*
X836850Y69123D01*
X835257Y70717D02*
X836850Y72310D01*
X835257Y69043D02*
Y72390D01*
X830748Y68354D02*
Y73079D01*
X838524Y68354D02*
X841378D01*
Y73079D01*
X838524D02*
X841378D01*
X830748D02*
X833603D01*
X830748Y68354D02*
X833603D01*
X836850Y84142D02*
Y87291D01*
X835257Y85716D02*
X836850Y84123D01*
X835257Y85716D02*
X836850Y87310D01*
X835257Y84043D02*
Y87390D01*
X830748Y83354D02*
Y88079D01*
X838524Y83354D02*
X841378D01*
Y88079D01*
X838524D02*
X841378D01*
X830748D02*
X833603D01*
X830748Y83354D02*
X833603D01*
X796851Y24142D02*
Y27291D01*
X795257Y25717D02*
X796851Y24123D01*
X795257Y25717D02*
X796851Y27310D01*
X795257Y24043D02*
Y27390D01*
X790748Y23354D02*
Y28079D01*
X798524Y23354D02*
X801378D01*
Y28079D01*
X798524D02*
X801378D01*
X790748D02*
X793603D01*
X790748Y23354D02*
X793603D01*
X676851Y69142D02*
Y72291D01*
X675257Y70717D02*
X676851Y69123D01*
X675257Y70717D02*
X676851Y72310D01*
X675257Y69043D02*
Y72390D01*
X670748Y68354D02*
Y73079D01*
X678524Y68354D02*
X681378D01*
Y73079D01*
X678524D02*
X681378D01*
X670748D02*
X673602D01*
X670748Y68354D02*
X673602D01*
X676851Y84142D02*
Y87291D01*
X675257Y85716D02*
X676851Y84123D01*
X675257Y85716D02*
X676851Y87310D01*
X675257Y84043D02*
Y87390D01*
X670748Y83354D02*
Y88079D01*
X678524Y83354D02*
X681378D01*
Y88079D01*
X678524D02*
X681378D01*
X670748D02*
X673602D01*
X670748Y83354D02*
X673602D01*
X636851Y24142D02*
Y27291D01*
X635257Y25717D02*
X636851Y24123D01*
X635257Y25717D02*
X636851Y27310D01*
X635257Y24043D02*
Y27390D01*
X630748Y23354D02*
Y28079D01*
X638524Y23354D02*
X641378D01*
Y28079D01*
X638524D02*
X641378D01*
X630748D02*
X633603D01*
X630748Y23354D02*
X633603D01*
X636851Y39142D02*
Y42291D01*
X635257Y40716D02*
X636851Y39123D01*
X635257Y40716D02*
X636851Y42310D01*
X635257Y39043D02*
Y42390D01*
X630748Y38354D02*
Y43079D01*
X638524Y38354D02*
X641378D01*
Y43079D01*
X638524D02*
X641378D01*
X630748D02*
X633603D01*
X630748Y38354D02*
X633603D01*
X636851Y54142D02*
Y57291D01*
X635257Y55717D02*
X636851Y54123D01*
X635257Y55717D02*
X636851Y57310D01*
X635257Y54043D02*
Y57390D01*
X630748Y53354D02*
Y58079D01*
X638524Y53354D02*
X641378D01*
Y58079D01*
X638524D02*
X641378D01*
X630748D02*
X633603D01*
X630748Y53354D02*
X633603D01*
X636851Y69142D02*
Y72291D01*
X635257Y70717D02*
X636851Y69123D01*
X635257Y70717D02*
X636851Y72310D01*
X635257Y69043D02*
Y72390D01*
X630748Y68354D02*
Y73079D01*
X638524Y68354D02*
X641378D01*
Y73079D01*
X638524D02*
X641378D01*
X630748D02*
X633603D01*
X630748Y68354D02*
X633603D01*
X636851Y84142D02*
Y87291D01*
X635257Y85716D02*
X636851Y84123D01*
X635257Y85716D02*
X636851Y87310D01*
X635257Y84043D02*
Y87390D01*
X630748Y83354D02*
Y88079D01*
X638524Y83354D02*
X641378D01*
Y88079D01*
X638524D02*
X641378D01*
X630748D02*
X633603D01*
X630748Y83354D02*
X633603D01*
X596851Y24142D02*
Y27291D01*
X595257Y25717D02*
X596851Y24123D01*
X595257Y25717D02*
X596851Y27310D01*
X595257Y24043D02*
Y27390D01*
X590748Y23354D02*
Y28079D01*
X598524Y23354D02*
X601378D01*
Y28079D01*
X598524D02*
X601378D01*
X590748D02*
X593603D01*
X590748Y23354D02*
X593603D01*
X476851Y69142D02*
Y72291D01*
X475257Y70717D02*
X476851Y69123D01*
X475257Y70717D02*
X476851Y72310D01*
X475257Y69043D02*
Y72390D01*
X470748Y68354D02*
Y73079D01*
X478524Y68354D02*
X481378D01*
Y73079D01*
X478524D02*
X481378D01*
X470748D02*
X473602D01*
X470748Y68354D02*
X473602D01*
X476851Y84142D02*
Y87291D01*
X475257Y85716D02*
X476851Y84123D01*
X475257Y85716D02*
X476851Y87310D01*
X475257Y84043D02*
Y87390D01*
X470748Y83354D02*
Y88079D01*
X478524Y83354D02*
X481378D01*
Y88079D01*
X478524D02*
X481378D01*
X470748D02*
X473602D01*
X470748Y83354D02*
X473602D01*
X436851Y24142D02*
Y27291D01*
X435257Y25717D02*
X436851Y24123D01*
X435257Y25717D02*
X436851Y27310D01*
X435257Y24043D02*
Y27390D01*
X430748Y23354D02*
Y28079D01*
X438524Y23354D02*
X441378D01*
Y28079D01*
X438524D02*
X441378D01*
X430748D02*
X433603D01*
X430748Y23354D02*
X433603D01*
X436851Y39142D02*
Y42291D01*
X435257Y40716D02*
X436851Y39123D01*
X435257Y40716D02*
X436851Y42310D01*
X435257Y39043D02*
Y42390D01*
X430748Y38354D02*
Y43079D01*
X438524Y38354D02*
X441378D01*
Y43079D01*
X438524D02*
X441378D01*
X430748D02*
X433603D01*
X430748Y38354D02*
X433603D01*
X436851Y54142D02*
Y57291D01*
X435257Y55717D02*
X436851Y54123D01*
X435257Y55717D02*
X436851Y57310D01*
X435257Y54043D02*
Y57390D01*
X430748Y53354D02*
Y58079D01*
X438524Y53354D02*
X441378D01*
Y58079D01*
X438524D02*
X441378D01*
X430748D02*
X433603D01*
X430748Y53354D02*
X433603D01*
X436851Y69142D02*
Y72291D01*
X435257Y70717D02*
X436851Y69123D01*
X435257Y70717D02*
X436851Y72310D01*
X435257Y69043D02*
Y72390D01*
X430748Y68354D02*
Y73079D01*
X438524Y68354D02*
X441378D01*
Y73079D01*
X438524D02*
X441378D01*
X430748D02*
X433603D01*
X430748Y68354D02*
X433603D01*
X436851Y84142D02*
Y87291D01*
X435257Y85716D02*
X436851Y84123D01*
X435257Y85716D02*
X436851Y87310D01*
X435257Y84043D02*
Y87390D01*
X430748Y83354D02*
Y88079D01*
X438524Y83354D02*
X441378D01*
Y88079D01*
X438524D02*
X441378D01*
X430748D02*
X433603D01*
X430748Y83354D02*
X433603D01*
X396851Y24142D02*
Y27291D01*
X395257Y25717D02*
X396851Y24123D01*
X395257Y25717D02*
X396851Y27310D01*
X395257Y24043D02*
Y27390D01*
X390748Y23354D02*
Y28079D01*
X398524Y23354D02*
X401378D01*
Y28079D01*
X398524D02*
X401378D01*
X390748D02*
X393602D01*
X390748Y23354D02*
X393602D01*
X756851Y24142D02*
Y27291D01*
X755257Y25717D02*
X756851Y24123D01*
X755257Y25717D02*
X756851Y27310D01*
X755257Y24043D02*
Y27390D01*
X750748Y23354D02*
Y28079D01*
X758524Y23354D02*
X761378D01*
Y28079D01*
X758524D02*
X761378D01*
X750748D02*
X753603D01*
X750748Y23354D02*
X753603D01*
X716851Y24142D02*
Y27291D01*
X715257Y25717D02*
X716851Y24123D01*
X715257Y25717D02*
X716851Y27310D01*
X715257Y24043D02*
Y27390D01*
X710748Y23354D02*
Y28079D01*
X718524Y23354D02*
X721378D01*
Y28079D01*
X718524D02*
X721378D01*
X710748D02*
X713602D01*
X710748Y23354D02*
X713602D01*
X796851Y39142D02*
Y42291D01*
X795257Y40716D02*
X796851Y39123D01*
X795257Y40716D02*
X796851Y42310D01*
X795257Y39043D02*
Y42390D01*
X790748Y38354D02*
Y43079D01*
X798524Y38354D02*
X801378D01*
Y43079D01*
X798524D02*
X801378D01*
X790748D02*
X793603D01*
X790748Y38354D02*
X793603D01*
X756851Y39142D02*
Y42291D01*
X755257Y40716D02*
X756851Y39123D01*
X755257Y40716D02*
X756851Y42310D01*
X755257Y39043D02*
Y42390D01*
X750748Y38354D02*
Y43079D01*
X758524Y38354D02*
X761378D01*
Y43079D01*
X758524D02*
X761378D01*
X750748D02*
X753603D01*
X750748Y38354D02*
X753603D01*
X716851Y39142D02*
Y42291D01*
X715257Y40716D02*
X716851Y39123D01*
X715257Y40716D02*
X716851Y42310D01*
X715257Y39043D02*
Y42390D01*
X710748Y38354D02*
Y43079D01*
X718524Y38354D02*
X721378D01*
Y43079D01*
X718524D02*
X721378D01*
X710748D02*
X713602D01*
X710748Y38354D02*
X713602D01*
X796851Y54142D02*
Y57291D01*
X795257Y55717D02*
X796851Y54123D01*
X795257Y55717D02*
X796851Y57310D01*
X795257Y54043D02*
Y57390D01*
X790748Y53354D02*
Y58079D01*
X798524Y53354D02*
X801378D01*
Y58079D01*
X798524D02*
X801378D01*
X790748D02*
X793603D01*
X790748Y53354D02*
X793603D01*
X756851Y54142D02*
Y57291D01*
X755257Y55717D02*
X756851Y54123D01*
X755257Y55717D02*
X756851Y57310D01*
X755257Y54043D02*
Y57390D01*
X750748Y53354D02*
Y58079D01*
X758524Y53354D02*
X761378D01*
Y58079D01*
X758524D02*
X761378D01*
X750748D02*
X753603D01*
X750748Y53354D02*
X753603D01*
X716851Y54142D02*
Y57291D01*
X715257Y55717D02*
X716851Y54123D01*
X715257Y55717D02*
X716851Y57310D01*
X715257Y54043D02*
Y57390D01*
X710748Y53354D02*
Y58079D01*
X718524Y53354D02*
X721378D01*
Y58079D01*
X718524D02*
X721378D01*
X710748D02*
X713602D01*
X710748Y53354D02*
X713602D01*
X556851Y24142D02*
Y27291D01*
X555257Y25717D02*
X556851Y24123D01*
X555257Y25717D02*
X556851Y27310D01*
X555257Y24043D02*
Y27390D01*
X550748Y23354D02*
Y28079D01*
X558524Y23354D02*
X561378D01*
Y28079D01*
X558524D02*
X561378D01*
X550748D02*
X553603D01*
X550748Y23354D02*
X553603D01*
X516851Y24142D02*
Y27291D01*
X515257Y25717D02*
X516851Y24123D01*
X515257Y25717D02*
X516851Y27310D01*
X515257Y24043D02*
Y27390D01*
X510748Y23354D02*
Y28079D01*
X518524Y23354D02*
X521378D01*
Y28079D01*
X518524D02*
X521378D01*
X510748D02*
X513602D01*
X510748Y23354D02*
X513602D01*
X596851Y39142D02*
Y42291D01*
X595257Y40716D02*
X596851Y39123D01*
X595257Y40716D02*
X596851Y42310D01*
X595257Y39043D02*
Y42390D01*
X590748Y38354D02*
Y43079D01*
X598524Y38354D02*
X601378D01*
Y43079D01*
X598524D02*
X601378D01*
X590748D02*
X593603D01*
X590748Y38354D02*
X593603D01*
X556851Y39142D02*
Y42291D01*
X555257Y40716D02*
X556851Y39123D01*
X555257Y40716D02*
X556851Y42310D01*
X555257Y39043D02*
Y42390D01*
X550748Y38354D02*
Y43079D01*
X558524Y38354D02*
X561378D01*
Y43079D01*
X558524D02*
X561378D01*
X550748D02*
X553603D01*
X550748Y38354D02*
X553603D01*
X516851Y39142D02*
Y42291D01*
X515257Y40716D02*
X516851Y39123D01*
X515257Y40716D02*
X516851Y42310D01*
X515257Y39043D02*
Y42390D01*
X510748Y38354D02*
Y43079D01*
X518524Y38354D02*
X521378D01*
Y43079D01*
X518524D02*
X521378D01*
X510748D02*
X513602D01*
X510748Y38354D02*
X513602D01*
X596851Y54142D02*
Y57291D01*
X595257Y55717D02*
X596851Y54123D01*
X595257Y55717D02*
X596851Y57310D01*
X595257Y54043D02*
Y57390D01*
X590748Y53354D02*
Y58079D01*
X598524Y53354D02*
X601378D01*
Y58079D01*
X598524D02*
X601378D01*
X590748D02*
X593603D01*
X590748Y53354D02*
X593603D01*
X556851Y54142D02*
Y57291D01*
X555257Y55717D02*
X556851Y54123D01*
X555257Y55717D02*
X556851Y57310D01*
X555257Y54043D02*
Y57390D01*
X550748Y53354D02*
Y58079D01*
X558524Y53354D02*
X561378D01*
Y58079D01*
X558524D02*
X561378D01*
X550748D02*
X553603D01*
X550748Y53354D02*
X553603D01*
X516851Y54142D02*
Y57291D01*
X515257Y55717D02*
X516851Y54123D01*
X515257Y55717D02*
X516851Y57310D01*
X515257Y54043D02*
Y57390D01*
X510748Y53354D02*
Y58079D01*
X518524Y53354D02*
X521378D01*
Y58079D01*
X518524D02*
X521378D01*
X510748D02*
X513602D01*
X510748Y53354D02*
X513602D01*
X356851Y24142D02*
Y27291D01*
X355257Y25717D02*
X356851Y24123D01*
X355257Y25717D02*
X356851Y27310D01*
X355257Y24043D02*
Y27390D01*
X350748Y23354D02*
Y28079D01*
X358524Y23354D02*
X361378D01*
Y28079D01*
X358524D02*
X361378D01*
X350748D02*
X353603D01*
X350748Y23354D02*
X353603D01*
X316851Y24142D02*
Y27291D01*
X315257Y25717D02*
X316851Y24123D01*
X315257Y25717D02*
X316851Y27310D01*
X315257Y24043D02*
Y27390D01*
X310748Y23354D02*
Y28079D01*
X318524Y23354D02*
X321378D01*
Y28079D01*
X318524D02*
X321378D01*
X310748D02*
X313602D01*
X310748Y23354D02*
X313602D01*
X396851Y39142D02*
Y42291D01*
X395257Y40716D02*
X396851Y39123D01*
X395257Y40716D02*
X396851Y42310D01*
X395257Y39043D02*
Y42390D01*
X390748Y38354D02*
Y43079D01*
X398524Y38354D02*
X401378D01*
Y43079D01*
X398524D02*
X401378D01*
X390748D02*
X393602D01*
X390748Y38354D02*
X393602D01*
X356851Y39142D02*
Y42291D01*
X355257Y40716D02*
X356851Y39123D01*
X355257Y40716D02*
X356851Y42310D01*
X355257Y39043D02*
Y42390D01*
X350748Y38354D02*
Y43079D01*
X358524Y38354D02*
X361378D01*
Y43079D01*
X358524D02*
X361378D01*
X350748D02*
X353603D01*
X350748Y38354D02*
X353603D01*
X316851Y39142D02*
Y42291D01*
X315257Y40716D02*
X316851Y39123D01*
X315257Y40716D02*
X316851Y42310D01*
X315257Y39043D02*
Y42390D01*
X310748Y38354D02*
Y43079D01*
X318524Y38354D02*
X321378D01*
Y43079D01*
X318524D02*
X321378D01*
X310748D02*
X313602D01*
X310748Y38354D02*
X313602D01*
X396851Y54142D02*
Y57291D01*
X395257Y55717D02*
X396851Y54123D01*
X395257Y55717D02*
X396851Y57310D01*
X395257Y54043D02*
Y57390D01*
X390748Y53354D02*
Y58079D01*
X398524Y53354D02*
X401378D01*
Y58079D01*
X398524D02*
X401378D01*
X390748D02*
X393602D01*
X390748Y53354D02*
X393602D01*
X356851Y54142D02*
Y57291D01*
X355257Y55717D02*
X356851Y54123D01*
X355257Y55717D02*
X356851Y57310D01*
X355257Y54043D02*
Y57390D01*
X350748Y53354D02*
Y58079D01*
X358524Y53354D02*
X361378D01*
Y58079D01*
X358524D02*
X361378D01*
X350748D02*
X353603D01*
X350748Y53354D02*
X353603D01*
X316851Y54142D02*
Y57291D01*
X315257Y55717D02*
X316851Y54123D01*
X315257Y55717D02*
X316851Y57310D01*
X315257Y54043D02*
Y57390D01*
X310748Y53354D02*
Y58079D01*
X318524Y53354D02*
X321378D01*
Y58079D01*
X318524D02*
X321378D01*
X310748D02*
X313602D01*
X310748Y53354D02*
X313602D01*
X796851Y69142D02*
Y72291D01*
X795257Y70717D02*
X796851Y69123D01*
X795257Y70717D02*
X796851Y72310D01*
X795257Y69043D02*
Y72390D01*
X790748Y68354D02*
Y73079D01*
X798524Y68354D02*
X801378D01*
Y73079D01*
X798524D02*
X801378D01*
X790748D02*
X793603D01*
X790748Y68354D02*
X793603D01*
X756851Y69142D02*
Y72291D01*
X755257Y70717D02*
X756851Y69123D01*
X755257Y70717D02*
X756851Y72310D01*
X755257Y69043D02*
Y72390D01*
X750748Y68354D02*
Y73079D01*
X758524Y68354D02*
X761378D01*
Y73079D01*
X758524D02*
X761378D01*
X750748D02*
X753603D01*
X750748Y68354D02*
X753603D01*
X716851Y69142D02*
Y72291D01*
X715257Y70717D02*
X716851Y69123D01*
X715257Y70717D02*
X716851Y72310D01*
X715257Y69043D02*
Y72390D01*
X710748Y68354D02*
Y73079D01*
X718524Y68354D02*
X721378D01*
Y73079D01*
X718524D02*
X721378D01*
X710748D02*
X713602D01*
X710748Y68354D02*
X713602D01*
X796851Y84142D02*
Y87291D01*
X795257Y85716D02*
X796851Y84123D01*
X795257Y85716D02*
X796851Y87310D01*
X795257Y84043D02*
Y87390D01*
X790748Y83354D02*
Y88079D01*
X798524Y83354D02*
X801378D01*
Y88079D01*
X798524D02*
X801378D01*
X790748D02*
X793603D01*
X790748Y83354D02*
X793603D01*
X756851Y84142D02*
Y87291D01*
X755257Y85716D02*
X756851Y84123D01*
X755257Y85716D02*
X756851Y87310D01*
X755257Y84043D02*
Y87390D01*
X750748Y83354D02*
Y88079D01*
X758524Y83354D02*
X761378D01*
Y88079D01*
X758524D02*
X761378D01*
X750748D02*
X753603D01*
X750748Y83354D02*
X753603D01*
X716851Y84142D02*
Y87291D01*
X715257Y85716D02*
X716851Y84123D01*
X715257Y85716D02*
X716851Y87310D01*
X715257Y84043D02*
Y87390D01*
X710748Y83354D02*
Y88079D01*
X718524Y83354D02*
X721378D01*
Y88079D01*
X718524D02*
X721378D01*
X710748D02*
X713602D01*
X710748Y83354D02*
X713602D01*
X756851Y99142D02*
Y102291D01*
X755257Y100716D02*
X756851Y99123D01*
X755257Y100716D02*
X756851Y102310D01*
X755257Y99043D02*
Y102390D01*
X750748Y98354D02*
Y103079D01*
X758524Y98354D02*
X761378D01*
Y103079D01*
X758524D02*
X761378D01*
X750748D02*
X753603D01*
X750748Y98354D02*
X753603D01*
X716851Y99142D02*
Y102291D01*
X715257Y100716D02*
X716851Y99123D01*
X715257Y100716D02*
X716851Y102310D01*
X715257Y99043D02*
Y102390D01*
X710748Y98354D02*
Y103079D01*
X718524Y98354D02*
X721378D01*
Y103079D01*
X718524D02*
X721378D01*
X710748D02*
X713602D01*
X710748Y98354D02*
X713602D01*
X596851Y69142D02*
Y72291D01*
X595257Y70717D02*
X596851Y69123D01*
X595257Y70717D02*
X596851Y72310D01*
X595257Y69043D02*
Y72390D01*
X590748Y68354D02*
Y73079D01*
X598524Y68354D02*
X601378D01*
Y73079D01*
X598524D02*
X601378D01*
X590748D02*
X593603D01*
X590748Y68354D02*
X593603D01*
X556851Y69142D02*
Y72291D01*
X555257Y70717D02*
X556851Y69123D01*
X555257Y70717D02*
X556851Y72310D01*
X555257Y69043D02*
Y72390D01*
X550748Y68354D02*
Y73079D01*
X558524Y68354D02*
X561378D01*
Y73079D01*
X558524D02*
X561378D01*
X550748D02*
X553603D01*
X550748Y68354D02*
X553603D01*
X516851Y69142D02*
Y72291D01*
X515257Y70717D02*
X516851Y69123D01*
X515257Y70717D02*
X516851Y72310D01*
X515257Y69043D02*
Y72390D01*
X510748Y68354D02*
Y73079D01*
X518524Y68354D02*
X521378D01*
Y73079D01*
X518524D02*
X521378D01*
X510748D02*
X513602D01*
X510748Y68354D02*
X513602D01*
X596851Y84142D02*
Y87291D01*
X595257Y85716D02*
X596851Y84123D01*
X595257Y85716D02*
X596851Y87310D01*
X595257Y84043D02*
Y87390D01*
X590748Y83354D02*
Y88079D01*
X598524Y83354D02*
X601378D01*
Y88079D01*
X598524D02*
X601378D01*
X590748D02*
X593603D01*
X590748Y83354D02*
X593603D01*
X556851Y84142D02*
Y87291D01*
X555257Y85716D02*
X556851Y84123D01*
X555257Y85716D02*
X556851Y87310D01*
X555257Y84043D02*
Y87390D01*
X550748Y83354D02*
Y88079D01*
X558524Y83354D02*
X561378D01*
Y88079D01*
X558524D02*
X561378D01*
X550748D02*
X553603D01*
X550748Y83354D02*
X553603D01*
X516851Y84142D02*
Y87291D01*
X515257Y85716D02*
X516851Y84123D01*
X515257Y85716D02*
X516851Y87310D01*
X515257Y84043D02*
Y87390D01*
X510748Y83354D02*
Y88079D01*
X518524Y83354D02*
X521378D01*
Y88079D01*
X518524D02*
X521378D01*
X510748D02*
X513602D01*
X510748Y83354D02*
X513602D01*
X556851Y99142D02*
Y102291D01*
X555257Y100716D02*
X556851Y99123D01*
X555257Y100716D02*
X556851Y102310D01*
X555257Y99043D02*
Y102390D01*
X550748Y98354D02*
Y103079D01*
X558524Y98354D02*
X561378D01*
Y103079D01*
X558524D02*
X561378D01*
X550748D02*
X553603D01*
X550748Y98354D02*
X553603D01*
X516851Y99142D02*
Y102291D01*
X515257Y100716D02*
X516851Y99123D01*
X515257Y100716D02*
X516851Y102310D01*
X515257Y99043D02*
Y102390D01*
X510748Y98354D02*
Y103079D01*
X518524Y98354D02*
X521378D01*
Y103079D01*
X518524D02*
X521378D01*
X510748D02*
X513602D01*
X510748Y98354D02*
X513602D01*
X396851Y69142D02*
Y72291D01*
X395257Y70717D02*
X396851Y69123D01*
X395257Y70717D02*
X396851Y72310D01*
X395257Y69043D02*
Y72390D01*
X390748Y68354D02*
Y73079D01*
X398524Y68354D02*
X401378D01*
Y73079D01*
X398524D02*
X401378D01*
X390748D02*
X393602D01*
X390748Y68354D02*
X393602D01*
X356851Y69142D02*
Y72291D01*
X355257Y70717D02*
X356851Y69123D01*
X355257Y70717D02*
X356851Y72310D01*
X355257Y69043D02*
Y72390D01*
X350748Y68354D02*
Y73079D01*
X358524Y68354D02*
X361378D01*
Y73079D01*
X358524D02*
X361378D01*
X350748D02*
X353603D01*
X350748Y68354D02*
X353603D01*
X316851Y69142D02*
Y72291D01*
X315257Y70717D02*
X316851Y69123D01*
X315257Y70717D02*
X316851Y72310D01*
X315257Y69043D02*
Y72390D01*
X310748Y68354D02*
Y73079D01*
X318524Y68354D02*
X321378D01*
Y73079D01*
X318524D02*
X321378D01*
X310748D02*
X313602D01*
X310748Y68354D02*
X313602D01*
X396851Y84142D02*
Y87291D01*
X395257Y85716D02*
X396851Y84123D01*
X395257Y85716D02*
X396851Y87310D01*
X395257Y84043D02*
Y87390D01*
X390748Y83354D02*
Y88079D01*
X398524Y83354D02*
X401378D01*
Y88079D01*
X398524D02*
X401378D01*
X390748D02*
X393602D01*
X390748Y83354D02*
X393602D01*
X356851Y84142D02*
Y87291D01*
X355257Y85716D02*
X356851Y84123D01*
X355257Y85716D02*
X356851Y87310D01*
X355257Y84043D02*
Y87390D01*
X350748Y83354D02*
Y88079D01*
X358524Y83354D02*
X361378D01*
Y88079D01*
X358524D02*
X361378D01*
X350748D02*
X353603D01*
X350748Y83354D02*
X353603D01*
X316851Y84142D02*
Y87291D01*
X315257Y85716D02*
X316851Y84123D01*
X315257Y85716D02*
X316851Y87310D01*
X315257Y84043D02*
Y87390D01*
X310748Y83354D02*
Y88079D01*
X318524Y83354D02*
X321378D01*
Y88079D01*
X318524D02*
X321378D01*
X310748D02*
X313602D01*
X310748Y83354D02*
X313602D01*
X356851Y99142D02*
Y102291D01*
X355257Y100716D02*
X356851Y99123D01*
X355257Y100716D02*
X356851Y102310D01*
X355257Y99043D02*
Y102390D01*
X350748Y98354D02*
Y103079D01*
X358524Y98354D02*
X361378D01*
Y103079D01*
X358524D02*
X361378D01*
X350748D02*
X353603D01*
X350748Y98354D02*
X353603D01*
X316851Y99142D02*
Y102291D01*
X315257Y100716D02*
X316851Y99123D01*
X315257Y100716D02*
X316851Y102310D01*
X315257Y99043D02*
Y102390D01*
X310748Y98354D02*
Y103079D01*
X318524Y98354D02*
X321378D01*
Y103079D01*
X318524D02*
X321378D01*
X310748D02*
X313602D01*
X310748Y98354D02*
X313602D01*
X876851Y99142D02*
Y102291D01*
X875257Y100716D02*
X876851Y99123D01*
X875257Y100716D02*
X876851Y102310D01*
X875257Y99043D02*
Y102390D01*
X870748Y98354D02*
Y103079D01*
X878524Y98354D02*
X881378D01*
Y103079D01*
X878524D02*
X881378D01*
X870748D02*
X873602D01*
X870748Y98354D02*
X873602D01*
X876851Y114142D02*
Y117291D01*
X875257Y115717D02*
X876851Y114123D01*
X875257Y115717D02*
X876851Y117310D01*
X875257Y114043D02*
Y117390D01*
X870748Y113354D02*
Y118079D01*
X878524Y113354D02*
X881378D01*
Y118079D01*
X878524D02*
X881378D01*
X870748D02*
X873602D01*
X870748Y113354D02*
X873602D01*
X876851Y129142D02*
Y132291D01*
X875257Y130717D02*
X876851Y129123D01*
X875257Y130717D02*
X876851Y132310D01*
X875257Y129043D02*
Y132390D01*
X870748Y128354D02*
Y133079D01*
X878524Y128354D02*
X881378D01*
Y133079D01*
X878524D02*
X881378D01*
X870748D02*
X873602D01*
X870748Y128354D02*
X873602D01*
X876851Y144142D02*
Y147291D01*
X875257Y145717D02*
X876851Y144123D01*
X875257Y145717D02*
X876851Y147310D01*
X875257Y144043D02*
Y147390D01*
X870748Y143354D02*
Y148079D01*
X878524Y143354D02*
X881378D01*
Y148079D01*
X878524D02*
X881378D01*
X870748D02*
X873602D01*
X870748Y143354D02*
X873602D01*
X836850Y99142D02*
Y102291D01*
X835257Y100716D02*
X836850Y99123D01*
X835257Y100716D02*
X836850Y102310D01*
X835257Y99043D02*
Y102390D01*
X830748Y98354D02*
Y103079D01*
X838524Y98354D02*
X841378D01*
Y103079D01*
X838524D02*
X841378D01*
X830748D02*
X833603D01*
X830748Y98354D02*
X833603D01*
X836850Y114142D02*
Y117291D01*
X835257Y115717D02*
X836850Y114123D01*
X835257Y115717D02*
X836850Y117310D01*
X835257Y114043D02*
Y117390D01*
X830748Y113354D02*
Y118079D01*
X838524Y113354D02*
X841378D01*
Y118079D01*
X838524D02*
X841378D01*
X830748D02*
X833603D01*
X830748Y113354D02*
X833603D01*
X836850Y144142D02*
Y147291D01*
X835257Y145717D02*
X836850Y144123D01*
X835257Y145717D02*
X836850Y147310D01*
X835257Y144043D02*
Y147390D01*
X830748Y143354D02*
Y148079D01*
X838524Y143354D02*
X841378D01*
Y148079D01*
X838524D02*
X841378D01*
X830748D02*
X833603D01*
X830748Y143354D02*
X833603D01*
X836850Y129142D02*
Y132291D01*
X835257Y130717D02*
X836850Y129123D01*
X835257Y130717D02*
X836850Y132310D01*
X835257Y129043D02*
Y132390D01*
X830748Y128354D02*
Y133079D01*
X838524Y128354D02*
X841378D01*
Y133079D01*
X838524D02*
X841378D01*
X830748D02*
X833603D01*
X830748Y128354D02*
X833603D01*
X676851Y99142D02*
Y102291D01*
X675257Y100716D02*
X676851Y99123D01*
X675257Y100716D02*
X676851Y102310D01*
X675257Y99043D02*
Y102390D01*
X670748Y98354D02*
Y103079D01*
X678524Y98354D02*
X681378D01*
Y103079D01*
X678524D02*
X681378D01*
X670748D02*
X673602D01*
X670748Y98354D02*
X673602D01*
X676851Y114142D02*
Y117291D01*
X675257Y115717D02*
X676851Y114123D01*
X675257Y115717D02*
X676851Y117310D01*
X675257Y114043D02*
Y117390D01*
X670748Y113354D02*
Y118079D01*
X678524Y113354D02*
X681378D01*
Y118079D01*
X678524D02*
X681378D01*
X670748D02*
X673602D01*
X670748Y113354D02*
X673602D01*
X676851Y129142D02*
Y132291D01*
X675257Y130717D02*
X676851Y129123D01*
X675257Y130717D02*
X676851Y132310D01*
X675257Y129043D02*
Y132390D01*
X670748Y128354D02*
Y133079D01*
X678524Y128354D02*
X681378D01*
Y133079D01*
X678524D02*
X681378D01*
X670748D02*
X673602D01*
X670748Y128354D02*
X673602D01*
X676851Y144142D02*
Y147291D01*
X675257Y145717D02*
X676851Y144123D01*
X675257Y145717D02*
X676851Y147310D01*
X675257Y144043D02*
Y147390D01*
X670748Y143354D02*
Y148079D01*
X678524Y143354D02*
X681378D01*
Y148079D01*
X678524D02*
X681378D01*
X670748D02*
X673602D01*
X670748Y143354D02*
X673602D01*
X636851Y99142D02*
Y102291D01*
X635257Y100716D02*
X636851Y99123D01*
X635257Y100716D02*
X636851Y102310D01*
X635257Y99043D02*
Y102390D01*
X630748Y98354D02*
Y103079D01*
X638524Y98354D02*
X641378D01*
Y103079D01*
X638524D02*
X641378D01*
X630748D02*
X633603D01*
X630748Y98354D02*
X633603D01*
X636851Y114142D02*
Y117291D01*
X635257Y115717D02*
X636851Y114123D01*
X635257Y115717D02*
X636851Y117310D01*
X635257Y114043D02*
Y117390D01*
X630748Y113354D02*
Y118079D01*
X638524Y113354D02*
X641378D01*
Y118079D01*
X638524D02*
X641378D01*
X630748D02*
X633603D01*
X630748Y113354D02*
X633603D01*
X636851Y144142D02*
Y147291D01*
X635257Y145717D02*
X636851Y144123D01*
X635257Y145717D02*
X636851Y147310D01*
X635257Y144043D02*
Y147390D01*
X630748Y143354D02*
Y148079D01*
X638524Y143354D02*
X641378D01*
Y148079D01*
X638524D02*
X641378D01*
X630748D02*
X633603D01*
X630748Y143354D02*
X633603D01*
X636851Y129142D02*
Y132291D01*
X635257Y130717D02*
X636851Y129123D01*
X635257Y130717D02*
X636851Y132310D01*
X635257Y129043D02*
Y132390D01*
X630748Y128354D02*
Y133079D01*
X638524Y128354D02*
X641378D01*
Y133079D01*
X638524D02*
X641378D01*
X630748D02*
X633603D01*
X630748Y128354D02*
X633603D01*
X476851Y99142D02*
Y102291D01*
X475257Y100716D02*
X476851Y99123D01*
X475257Y100716D02*
X476851Y102310D01*
X475257Y99043D02*
Y102390D01*
X470748Y98354D02*
Y103079D01*
X478524Y98354D02*
X481378D01*
Y103079D01*
X478524D02*
X481378D01*
X470748D02*
X473602D01*
X470748Y98354D02*
X473602D01*
X476851Y114142D02*
Y117291D01*
X475257Y115717D02*
X476851Y114123D01*
X475257Y115717D02*
X476851Y117310D01*
X475257Y114043D02*
Y117390D01*
X470748Y113354D02*
Y118079D01*
X478524Y113354D02*
X481378D01*
Y118079D01*
X478524D02*
X481378D01*
X470748D02*
X473602D01*
X470748Y113354D02*
X473602D01*
X476851Y129142D02*
Y132291D01*
X475257Y130717D02*
X476851Y129123D01*
X475257Y130717D02*
X476851Y132310D01*
X475257Y129043D02*
Y132390D01*
X470748Y128354D02*
Y133079D01*
X478524Y128354D02*
X481378D01*
Y133079D01*
X478524D02*
X481378D01*
X470748D02*
X473602D01*
X470748Y128354D02*
X473602D01*
X476851Y144142D02*
Y147291D01*
X475257Y145717D02*
X476851Y144123D01*
X475257Y145717D02*
X476851Y147310D01*
X475257Y144043D02*
Y147390D01*
X470748Y143354D02*
Y148079D01*
X478524Y143354D02*
X481378D01*
Y148079D01*
X478524D02*
X481378D01*
X470748D02*
X473602D01*
X470748Y143354D02*
X473602D01*
X436851Y99142D02*
Y102291D01*
X435257Y100716D02*
X436851Y99123D01*
X435257Y100716D02*
X436851Y102310D01*
X435257Y99043D02*
Y102390D01*
X430748Y98354D02*
Y103079D01*
X438524Y98354D02*
X441378D01*
Y103079D01*
X438524D02*
X441378D01*
X430748D02*
X433603D01*
X430748Y98354D02*
X433603D01*
X436851Y114142D02*
Y117291D01*
X435257Y115717D02*
X436851Y114123D01*
X435257Y115717D02*
X436851Y117310D01*
X435257Y114043D02*
Y117390D01*
X430748Y113354D02*
Y118079D01*
X438524Y113354D02*
X441378D01*
Y118079D01*
X438524D02*
X441378D01*
X430748D02*
X433603D01*
X430748Y113354D02*
X433603D01*
X436851Y144142D02*
Y147291D01*
X435257Y145717D02*
X436851Y144123D01*
X435257Y145717D02*
X436851Y147310D01*
X435257Y144043D02*
Y147390D01*
X430748Y143354D02*
Y148079D01*
X438524Y143354D02*
X441378D01*
Y148079D01*
X438524D02*
X441378D01*
X430748D02*
X433603D01*
X430748Y143354D02*
X433603D01*
X436851Y129142D02*
Y132291D01*
X435257Y130717D02*
X436851Y129123D01*
X435257Y130717D02*
X436851Y132310D01*
X435257Y129043D02*
Y132390D01*
X430748Y128354D02*
Y133079D01*
X438524Y128354D02*
X441378D01*
Y133079D01*
X438524D02*
X441378D01*
X430748D02*
X433603D01*
X430748Y128354D02*
X433603D01*
X796851Y99142D02*
Y102291D01*
X795257Y100716D02*
X796851Y99123D01*
X795257Y100716D02*
X796851Y102310D01*
X795257Y99043D02*
Y102390D01*
X790748Y98354D02*
Y103079D01*
X798524Y98354D02*
X801378D01*
Y103079D01*
X798524D02*
X801378D01*
X790748D02*
X793603D01*
X790748Y98354D02*
X793603D01*
X796851Y114142D02*
Y117291D01*
X795257Y115717D02*
X796851Y114123D01*
X795257Y115717D02*
X796851Y117310D01*
X795257Y114043D02*
Y117390D01*
X790748Y113354D02*
Y118079D01*
X798524Y113354D02*
X801378D01*
Y118079D01*
X798524D02*
X801378D01*
X790748D02*
X793603D01*
X790748Y113354D02*
X793603D01*
X756851Y114142D02*
Y117291D01*
X755257Y115717D02*
X756851Y114123D01*
X755257Y115717D02*
X756851Y117310D01*
X755257Y114043D02*
Y117390D01*
X750748Y113354D02*
Y118079D01*
X758524Y113354D02*
X761378D01*
Y118079D01*
X758524D02*
X761378D01*
X750748D02*
X753603D01*
X750748Y113354D02*
X753603D01*
X716851Y114142D02*
Y117291D01*
X715257Y115717D02*
X716851Y114123D01*
X715257Y115717D02*
X716851Y117310D01*
X715257Y114043D02*
Y117390D01*
X710748Y113354D02*
Y118079D01*
X718524Y113354D02*
X721378D01*
Y118079D01*
X718524D02*
X721378D01*
X710748D02*
X713602D01*
X710748Y113354D02*
X713602D01*
X796851Y129142D02*
Y132291D01*
X795257Y130717D02*
X796851Y129123D01*
X795257Y130717D02*
X796851Y132310D01*
X795257Y129043D02*
Y132390D01*
X790748Y128354D02*
Y133079D01*
X798524Y128354D02*
X801378D01*
Y133079D01*
X798524D02*
X801378D01*
X790748D02*
X793603D01*
X790748Y128354D02*
X793603D01*
X756851Y129142D02*
Y132291D01*
X755257Y130717D02*
X756851Y129123D01*
X755257Y130717D02*
X756851Y132310D01*
X755257Y129043D02*
Y132390D01*
X750748Y128354D02*
Y133079D01*
X758524Y128354D02*
X761378D01*
Y133079D01*
X758524D02*
X761378D01*
X750748D02*
X753603D01*
X750748Y128354D02*
X753603D01*
X716851Y129142D02*
Y132291D01*
X715257Y130717D02*
X716851Y129123D01*
X715257Y130717D02*
X716851Y132310D01*
X715257Y129043D02*
Y132390D01*
X710748Y128354D02*
Y133079D01*
X718524Y128354D02*
X721378D01*
Y133079D01*
X718524D02*
X721378D01*
X710748D02*
X713602D01*
X710748Y128354D02*
X713602D01*
X716851Y144142D02*
Y147291D01*
X715257Y145717D02*
X716851Y144123D01*
X715257Y145717D02*
X716851Y147310D01*
X715257Y144043D02*
Y147390D01*
X710748Y143354D02*
Y148079D01*
X718524Y143354D02*
X721378D01*
Y148079D01*
X718524D02*
X721378D01*
X710748D02*
X713602D01*
X710748Y143354D02*
X713602D01*
X596851Y99142D02*
Y102291D01*
X595257Y100716D02*
X596851Y99123D01*
X595257Y100716D02*
X596851Y102310D01*
X595257Y99043D02*
Y102390D01*
X590748Y98354D02*
Y103079D01*
X598524Y98354D02*
X601378D01*
Y103079D01*
X598524D02*
X601378D01*
X590748D02*
X593603D01*
X590748Y98354D02*
X593603D01*
X596851Y114142D02*
Y117291D01*
X595257Y115717D02*
X596851Y114123D01*
X595257Y115717D02*
X596851Y117310D01*
X595257Y114043D02*
Y117390D01*
X590748Y113354D02*
Y118079D01*
X598524Y113354D02*
X601378D01*
Y118079D01*
X598524D02*
X601378D01*
X590748D02*
X593603D01*
X590748Y113354D02*
X593603D01*
X556851Y114142D02*
Y117291D01*
X555257Y115717D02*
X556851Y114123D01*
X555257Y115717D02*
X556851Y117310D01*
X555257Y114043D02*
Y117390D01*
X550748Y113354D02*
Y118079D01*
X558524Y113354D02*
X561378D01*
Y118079D01*
X558524D02*
X561378D01*
X550748D02*
X553603D01*
X550748Y113354D02*
X553603D01*
X516851Y114142D02*
Y117291D01*
X515257Y115717D02*
X516851Y114123D01*
X515257Y115717D02*
X516851Y117310D01*
X515257Y114043D02*
Y117390D01*
X510748Y113354D02*
Y118079D01*
X518524Y113354D02*
X521378D01*
Y118079D01*
X518524D02*
X521378D01*
X510748D02*
X513602D01*
X510748Y113354D02*
X513602D01*
X596851Y129142D02*
Y132291D01*
X595257Y130717D02*
X596851Y129123D01*
X595257Y130717D02*
X596851Y132310D01*
X595257Y129043D02*
Y132390D01*
X590748Y128354D02*
Y133079D01*
X598524Y128354D02*
X601378D01*
Y133079D01*
X598524D02*
X601378D01*
X590748D02*
X593603D01*
X590748Y128354D02*
X593603D01*
X556851Y129142D02*
Y132291D01*
X555257Y130717D02*
X556851Y129123D01*
X555257Y130717D02*
X556851Y132310D01*
X555257Y129043D02*
Y132390D01*
X550748Y128354D02*
Y133079D01*
X558524Y128354D02*
X561378D01*
Y133079D01*
X558524D02*
X561378D01*
X550748D02*
X553603D01*
X550748Y128354D02*
X553603D01*
X516851Y129142D02*
Y132291D01*
X515257Y130717D02*
X516851Y129123D01*
X515257Y130717D02*
X516851Y132310D01*
X515257Y129043D02*
Y132390D01*
X510748Y128354D02*
Y133079D01*
X518524Y128354D02*
X521378D01*
Y133079D01*
X518524D02*
X521378D01*
X510748D02*
X513602D01*
X510748Y128354D02*
X513602D01*
X516851Y144142D02*
Y147291D01*
X515257Y145717D02*
X516851Y144123D01*
X515257Y145717D02*
X516851Y147310D01*
X515257Y144043D02*
Y147390D01*
X510748Y143354D02*
Y148079D01*
X518524Y143354D02*
X521378D01*
Y148079D01*
X518524D02*
X521378D01*
X510748D02*
X513602D01*
X510748Y143354D02*
X513602D01*
X396851Y99142D02*
Y102291D01*
X395257Y100716D02*
X396851Y99123D01*
X395257Y100716D02*
X396851Y102310D01*
X395257Y99043D02*
Y102390D01*
X390748Y98354D02*
Y103079D01*
X398524Y98354D02*
X401378D01*
Y103079D01*
X398524D02*
X401378D01*
X390748D02*
X393602D01*
X390748Y98354D02*
X393602D01*
X396851Y114142D02*
Y117291D01*
X395257Y115717D02*
X396851Y114123D01*
X395257Y115717D02*
X396851Y117310D01*
X395257Y114043D02*
Y117390D01*
X390748Y113354D02*
Y118079D01*
X398524Y113354D02*
X401378D01*
Y118079D01*
X398524D02*
X401378D01*
X390748D02*
X393602D01*
X390748Y113354D02*
X393602D01*
X356851Y114142D02*
Y117291D01*
X355257Y115717D02*
X356851Y114123D01*
X355257Y115717D02*
X356851Y117310D01*
X355257Y114043D02*
Y117390D01*
X350748Y113354D02*
Y118079D01*
X358524Y113354D02*
X361378D01*
Y118079D01*
X358524D02*
X361378D01*
X350748D02*
X353603D01*
X350748Y113354D02*
X353603D01*
X316851Y114142D02*
Y117291D01*
X315257Y115717D02*
X316851Y114123D01*
X315257Y115717D02*
X316851Y117310D01*
X315257Y114043D02*
Y117390D01*
X310748Y113354D02*
Y118079D01*
X318524Y113354D02*
X321378D01*
Y118079D01*
X318524D02*
X321378D01*
X310748D02*
X313602D01*
X310748Y113354D02*
X313602D01*
X396851Y129142D02*
Y132291D01*
X395257Y130717D02*
X396851Y129123D01*
X395257Y130717D02*
X396851Y132310D01*
X395257Y129043D02*
Y132390D01*
X390748Y128354D02*
Y133079D01*
X398524Y128354D02*
X401378D01*
Y133079D01*
X398524D02*
X401378D01*
X390748D02*
X393602D01*
X390748Y128354D02*
X393602D01*
X356851Y129142D02*
Y132291D01*
X355257Y130717D02*
X356851Y129123D01*
X355257Y130717D02*
X356851Y132310D01*
X355257Y129043D02*
Y132390D01*
X350748Y128354D02*
Y133079D01*
X358524Y128354D02*
X361378D01*
Y133079D01*
X358524D02*
X361378D01*
X350748D02*
X353603D01*
X350748Y128354D02*
X353603D01*
X316851Y129142D02*
Y132291D01*
X315257Y130717D02*
X316851Y129123D01*
X315257Y130717D02*
X316851Y132310D01*
X315257Y129043D02*
Y132390D01*
X310748Y128354D02*
Y133079D01*
X318524Y128354D02*
X321378D01*
Y133079D01*
X318524D02*
X321378D01*
X310748D02*
X313602D01*
X310748Y128354D02*
X313602D01*
X316851Y144142D02*
Y147291D01*
X315257Y145717D02*
X316851Y144123D01*
X315257Y145717D02*
X316851Y147310D01*
X315257Y144043D02*
Y147390D01*
X310748Y143354D02*
Y148079D01*
X318524Y143354D02*
X321378D01*
Y148079D01*
X318524D02*
X321378D01*
X310748D02*
X313602D01*
X310748Y143354D02*
X313602D01*
X756851Y144142D02*
Y147291D01*
X755257Y145717D02*
X756851Y144123D01*
X755257Y145717D02*
X756851Y147310D01*
X755257Y144043D02*
Y147390D01*
X750748Y143354D02*
Y148079D01*
X758524Y143354D02*
X761378D01*
Y148079D01*
X758524D02*
X761378D01*
X750748D02*
X753603D01*
X750748Y143354D02*
X753603D01*
X796851Y144142D02*
Y147291D01*
X795257Y145717D02*
X796851Y144123D01*
X795257Y145717D02*
X796851Y147310D01*
X795257Y144043D02*
Y147390D01*
X790748Y143354D02*
Y148079D01*
X798524Y143354D02*
X801378D01*
Y148079D01*
X798524D02*
X801378D01*
X790748D02*
X793603D01*
X790748Y143354D02*
X793603D01*
X796851Y159142D02*
Y162291D01*
X795257Y160716D02*
X796851Y159123D01*
X795257Y160716D02*
X796851Y162310D01*
X795257Y159043D02*
Y162390D01*
X790748Y158354D02*
Y163079D01*
X798524Y158354D02*
X801378D01*
Y163079D01*
X798524D02*
X801378D01*
X790748D02*
X793603D01*
X790748Y158354D02*
X793603D01*
X756851Y159142D02*
Y162291D01*
X755257Y160716D02*
X756851Y159123D01*
X755257Y160716D02*
X756851Y162310D01*
X755257Y159043D02*
Y162390D01*
X750748Y158354D02*
Y163079D01*
X758524Y158354D02*
X761378D01*
Y163079D01*
X758524D02*
X761378D01*
X750748D02*
X753603D01*
X750748Y158354D02*
X753603D01*
X716851Y159142D02*
Y162291D01*
X715257Y160716D02*
X716851Y159123D01*
X715257Y160716D02*
X716851Y162310D01*
X715257Y159043D02*
Y162390D01*
X710748Y158354D02*
Y163079D01*
X718524Y158354D02*
X721378D01*
Y163079D01*
X718524D02*
X721378D01*
X710748D02*
X713602D01*
X710748Y158354D02*
X713602D01*
X796851Y174142D02*
Y177291D01*
X795257Y175716D02*
X796851Y174123D01*
X795257Y175716D02*
X796851Y177310D01*
X795257Y174043D02*
Y177390D01*
X790748Y173354D02*
Y178079D01*
X798524Y173354D02*
X801378D01*
Y178079D01*
X798524D02*
X801378D01*
X790748D02*
X793603D01*
X790748Y173354D02*
X793603D01*
X756851Y174142D02*
Y177291D01*
X755257Y175716D02*
X756851Y174123D01*
X755257Y175716D02*
X756851Y177310D01*
X755257Y174043D02*
Y177390D01*
X750748Y173354D02*
Y178079D01*
X758524Y173354D02*
X761378D01*
Y178079D01*
X758524D02*
X761378D01*
X750748D02*
X753603D01*
X750748Y173354D02*
X753603D01*
X716851Y174142D02*
Y177291D01*
X715257Y175716D02*
X716851Y174123D01*
X715257Y175716D02*
X716851Y177310D01*
X715257Y174043D02*
Y177390D01*
X710748Y173354D02*
Y178079D01*
X718524Y173354D02*
X721378D01*
Y178079D01*
X718524D02*
X721378D01*
X710748D02*
X713602D01*
X710748Y173354D02*
X713602D01*
X556851Y144142D02*
Y147291D01*
X555257Y145717D02*
X556851Y144123D01*
X555257Y145717D02*
X556851Y147310D01*
X555257Y144043D02*
Y147390D01*
X550748Y143354D02*
Y148079D01*
X558524Y143354D02*
X561378D01*
Y148079D01*
X558524D02*
X561378D01*
X550748D02*
X553603D01*
X550748Y143354D02*
X553603D01*
X596851Y144142D02*
Y147291D01*
X595257Y145717D02*
X596851Y144123D01*
X595257Y145717D02*
X596851Y147310D01*
X595257Y144043D02*
Y147390D01*
X590748Y143354D02*
Y148079D01*
X598524Y143354D02*
X601378D01*
Y148079D01*
X598524D02*
X601378D01*
X590748D02*
X593603D01*
X590748Y143354D02*
X593603D01*
X596851Y159142D02*
Y162291D01*
X595257Y160716D02*
X596851Y159123D01*
X595257Y160716D02*
X596851Y162310D01*
X595257Y159043D02*
Y162390D01*
X590748Y158354D02*
Y163079D01*
X598524Y158354D02*
X601378D01*
Y163079D01*
X598524D02*
X601378D01*
X590748D02*
X593603D01*
X590748Y158354D02*
X593603D01*
X556851Y159142D02*
Y162291D01*
X555257Y160716D02*
X556851Y159123D01*
X555257Y160716D02*
X556851Y162310D01*
X555257Y159043D02*
Y162390D01*
X550748Y158354D02*
Y163079D01*
X558524Y158354D02*
X561378D01*
Y163079D01*
X558524D02*
X561378D01*
X550748D02*
X553603D01*
X550748Y158354D02*
X553603D01*
X516851Y159142D02*
Y162291D01*
X515257Y160716D02*
X516851Y159123D01*
X515257Y160716D02*
X516851Y162310D01*
X515257Y159043D02*
Y162390D01*
X510748Y158354D02*
Y163079D01*
X518524Y158354D02*
X521378D01*
Y163079D01*
X518524D02*
X521378D01*
X510748D02*
X513602D01*
X510748Y158354D02*
X513602D01*
X596851Y174142D02*
Y177291D01*
X595257Y175716D02*
X596851Y174123D01*
X595257Y175716D02*
X596851Y177310D01*
X595257Y174043D02*
Y177390D01*
X590748Y173354D02*
Y178079D01*
X598524Y173354D02*
X601378D01*
Y178079D01*
X598524D02*
X601378D01*
X590748D02*
X593603D01*
X590748Y173354D02*
X593603D01*
X556851Y174142D02*
Y177291D01*
X555257Y175716D02*
X556851Y174123D01*
X555257Y175716D02*
X556851Y177310D01*
X555257Y174043D02*
Y177390D01*
X550748Y173354D02*
Y178079D01*
X558524Y173354D02*
X561378D01*
Y178079D01*
X558524D02*
X561378D01*
X550748D02*
X553603D01*
X550748Y173354D02*
X553603D01*
X516851Y174142D02*
Y177291D01*
X515257Y175716D02*
X516851Y174123D01*
X515257Y175716D02*
X516851Y177310D01*
X515257Y174043D02*
Y177390D01*
X510748Y173354D02*
Y178079D01*
X518524Y173354D02*
X521378D01*
Y178079D01*
X518524D02*
X521378D01*
X510748D02*
X513602D01*
X510748Y173354D02*
X513602D01*
X356851Y144142D02*
Y147291D01*
X355257Y145717D02*
X356851Y144123D01*
X355257Y145717D02*
X356851Y147310D01*
X355257Y144043D02*
Y147390D01*
X350748Y143354D02*
Y148079D01*
X358524Y143354D02*
X361378D01*
Y148079D01*
X358524D02*
X361378D01*
X350748D02*
X353603D01*
X350748Y143354D02*
X353603D01*
X396851Y144142D02*
Y147291D01*
X395257Y145717D02*
X396851Y144123D01*
X395257Y145717D02*
X396851Y147310D01*
X395257Y144043D02*
Y147390D01*
X390748Y143354D02*
Y148079D01*
X398524Y143354D02*
X401378D01*
Y148079D01*
X398524D02*
X401378D01*
X390748D02*
X393602D01*
X390748Y143354D02*
X393602D01*
X396851Y159142D02*
Y162291D01*
X395257Y160716D02*
X396851Y159123D01*
X395257Y160716D02*
X396851Y162310D01*
X395257Y159043D02*
Y162390D01*
X390748Y158354D02*
Y163079D01*
X398524Y158354D02*
X401378D01*
Y163079D01*
X398524D02*
X401378D01*
X390748D02*
X393602D01*
X390748Y158354D02*
X393602D01*
X356851Y159142D02*
Y162291D01*
X355257Y160716D02*
X356851Y159123D01*
X355257Y160716D02*
X356851Y162310D01*
X355257Y159043D02*
Y162390D01*
X350748Y158354D02*
Y163079D01*
X358524Y158354D02*
X361378D01*
Y163079D01*
X358524D02*
X361378D01*
X350748D02*
X353603D01*
X350748Y158354D02*
X353603D01*
X316851Y159142D02*
Y162291D01*
X315257Y160716D02*
X316851Y159123D01*
X315257Y160716D02*
X316851Y162310D01*
X315257Y159043D02*
Y162390D01*
X310748Y158354D02*
Y163079D01*
X318524Y158354D02*
X321378D01*
Y163079D01*
X318524D02*
X321378D01*
X310748D02*
X313602D01*
X310748Y158354D02*
X313602D01*
X396851Y174142D02*
Y177291D01*
X395257Y175716D02*
X396851Y174123D01*
X395257Y175716D02*
X396851Y177310D01*
X395257Y174043D02*
Y177390D01*
X390748Y173354D02*
Y178079D01*
X398524Y173354D02*
X401378D01*
Y178079D01*
X398524D02*
X401378D01*
X390748D02*
X393602D01*
X390748Y173354D02*
X393602D01*
X356851Y174142D02*
Y177291D01*
X355257Y175716D02*
X356851Y174123D01*
X355257Y175716D02*
X356851Y177310D01*
X355257Y174043D02*
Y177390D01*
X350748Y173354D02*
Y178079D01*
X358524Y173354D02*
X361378D01*
Y178079D01*
X358524D02*
X361378D01*
X350748D02*
X353603D01*
X350748Y173354D02*
X353603D01*
X316851Y174142D02*
Y177291D01*
X315257Y175716D02*
X316851Y174123D01*
X315257Y175716D02*
X316851Y177310D01*
X315257Y174043D02*
Y177390D01*
X310748Y173354D02*
Y178079D01*
X318524Y173354D02*
X321378D01*
Y178079D01*
X318524D02*
X321378D01*
X310748D02*
X313602D01*
X310748Y173354D02*
X313602D01*
X876851Y174142D02*
Y177291D01*
X875257Y175716D02*
X876851Y174123D01*
X875257Y175716D02*
X876851Y177310D01*
X875257Y174043D02*
Y177390D01*
X870748Y173354D02*
Y178079D01*
X878524Y173354D02*
X881378D01*
Y178079D01*
X878524D02*
X881378D01*
X870748D02*
X873602D01*
X870748Y173354D02*
X873602D01*
X876851Y159142D02*
Y162291D01*
X875257Y160716D02*
X876851Y159123D01*
X875257Y160716D02*
X876851Y162310D01*
X875257Y159043D02*
Y162390D01*
X870748Y158354D02*
Y163079D01*
X878524Y158354D02*
X881378D01*
Y163079D01*
X878524D02*
X881378D01*
X870748D02*
X873602D01*
X870748Y158354D02*
X873602D01*
X876851Y189142D02*
Y192291D01*
X875257Y190717D02*
X876851Y189123D01*
X875257Y190717D02*
X876851Y192310D01*
X875257Y189043D02*
Y192390D01*
X870748Y188354D02*
Y193079D01*
X878524Y188354D02*
X881378D01*
Y193079D01*
X878524D02*
X881378D01*
X870748D02*
X873602D01*
X870748Y188354D02*
X873602D01*
X876851Y204142D02*
Y207291D01*
X875257Y205716D02*
X876851Y204123D01*
X875257Y205716D02*
X876851Y207310D01*
X875257Y204043D02*
Y207390D01*
X870748Y203354D02*
Y208079D01*
X878524Y203354D02*
X881378D01*
Y208079D01*
X878524D02*
X881378D01*
X870748D02*
X873602D01*
X870748Y203354D02*
X873602D01*
X876851Y219142D02*
Y222291D01*
X875257Y220717D02*
X876851Y219123D01*
X875257Y220717D02*
X876851Y222310D01*
X875257Y219043D02*
Y222390D01*
X870748Y218354D02*
Y223079D01*
X878524Y218354D02*
X881378D01*
Y223079D01*
X878524D02*
X881378D01*
X870748D02*
X873602D01*
X870748Y218354D02*
X873602D01*
X876851Y234142D02*
Y237291D01*
X875257Y235717D02*
X876851Y234123D01*
X875257Y235717D02*
X876851Y237310D01*
X875257Y234043D02*
Y237390D01*
X870748Y233354D02*
Y238079D01*
X878524Y233354D02*
X881378D01*
Y238079D01*
X878524D02*
X881378D01*
X870748D02*
X873602D01*
X870748Y233354D02*
X873602D01*
X836850Y159142D02*
Y162291D01*
X835257Y160716D02*
X836850Y159123D01*
X835257Y160716D02*
X836850Y162310D01*
X835257Y159043D02*
Y162390D01*
X830748Y158354D02*
Y163079D01*
X838524Y158354D02*
X841378D01*
Y163079D01*
X838524D02*
X841378D01*
X830748D02*
X833603D01*
X830748Y158354D02*
X833603D01*
X836850Y174142D02*
Y177291D01*
X835257Y175716D02*
X836850Y174123D01*
X835257Y175716D02*
X836850Y177310D01*
X835257Y174043D02*
Y177390D01*
X830748Y173354D02*
Y178079D01*
X838524Y173354D02*
X841378D01*
Y178079D01*
X838524D02*
X841378D01*
X830748D02*
X833603D01*
X830748Y173354D02*
X833603D01*
X676851Y174142D02*
Y177291D01*
X675257Y175716D02*
X676851Y174123D01*
X675257Y175716D02*
X676851Y177310D01*
X675257Y174043D02*
Y177390D01*
X670748Y173354D02*
Y178079D01*
X678524Y173354D02*
X681378D01*
Y178079D01*
X678524D02*
X681378D01*
X670748D02*
X673602D01*
X670748Y173354D02*
X673602D01*
X676851Y159142D02*
Y162291D01*
X675257Y160716D02*
X676851Y159123D01*
X675257Y160716D02*
X676851Y162310D01*
X675257Y159043D02*
Y162390D01*
X670748Y158354D02*
Y163079D01*
X678524Y158354D02*
X681378D01*
Y163079D01*
X678524D02*
X681378D01*
X670748D02*
X673602D01*
X670748Y158354D02*
X673602D01*
X676851Y189142D02*
Y192291D01*
X675257Y190717D02*
X676851Y189123D01*
X675257Y190717D02*
X676851Y192310D01*
X675257Y189043D02*
Y192390D01*
X670748Y188354D02*
Y193079D01*
X678524Y188354D02*
X681378D01*
Y193079D01*
X678524D02*
X681378D01*
X670748D02*
X673602D01*
X670748Y188354D02*
X673602D01*
X676851Y204142D02*
Y207291D01*
X675257Y205716D02*
X676851Y204123D01*
X675257Y205716D02*
X676851Y207310D01*
X675257Y204043D02*
Y207390D01*
X670748Y203354D02*
Y208079D01*
X678524Y203354D02*
X681378D01*
Y208079D01*
X678524D02*
X681378D01*
X670748D02*
X673602D01*
X670748Y203354D02*
X673602D01*
X676851Y219142D02*
Y222291D01*
X675257Y220717D02*
X676851Y219123D01*
X675257Y220717D02*
X676851Y222310D01*
X675257Y219043D02*
Y222390D01*
X670748Y218354D02*
Y223079D01*
X678524Y218354D02*
X681378D01*
Y223079D01*
X678524D02*
X681378D01*
X670748D02*
X673602D01*
X670748Y218354D02*
X673602D01*
X676851Y234142D02*
Y237291D01*
X675257Y235717D02*
X676851Y234123D01*
X675257Y235717D02*
X676851Y237310D01*
X675257Y234043D02*
Y237390D01*
X670748Y233354D02*
Y238079D01*
X678524Y233354D02*
X681378D01*
Y238079D01*
X678524D02*
X681378D01*
X670748D02*
X673602D01*
X670748Y233354D02*
X673602D01*
X636851Y159142D02*
Y162291D01*
X635257Y160716D02*
X636851Y159123D01*
X635257Y160716D02*
X636851Y162310D01*
X635257Y159043D02*
Y162390D01*
X630748Y158354D02*
Y163079D01*
X638524Y158354D02*
X641378D01*
Y163079D01*
X638524D02*
X641378D01*
X630748D02*
X633603D01*
X630748Y158354D02*
X633603D01*
X636851Y174142D02*
Y177291D01*
X635257Y175716D02*
X636851Y174123D01*
X635257Y175716D02*
X636851Y177310D01*
X635257Y174043D02*
Y177390D01*
X630748Y173354D02*
Y178079D01*
X638524Y173354D02*
X641378D01*
Y178079D01*
X638524D02*
X641378D01*
X630748D02*
X633603D01*
X630748Y173354D02*
X633603D01*
X476851Y174142D02*
Y177291D01*
X475257Y175716D02*
X476851Y174123D01*
X475257Y175716D02*
X476851Y177310D01*
X475257Y174043D02*
Y177390D01*
X470748Y173354D02*
Y178079D01*
X478524Y173354D02*
X481378D01*
Y178079D01*
X478524D02*
X481378D01*
X470748D02*
X473602D01*
X470748Y173354D02*
X473602D01*
X476851Y159142D02*
Y162291D01*
X475257Y160716D02*
X476851Y159123D01*
X475257Y160716D02*
X476851Y162310D01*
X475257Y159043D02*
Y162390D01*
X470748Y158354D02*
Y163079D01*
X478524Y158354D02*
X481378D01*
Y163079D01*
X478524D02*
X481378D01*
X470748D02*
X473602D01*
X470748Y158354D02*
X473602D01*
X476851Y189142D02*
Y192291D01*
X475257Y190717D02*
X476851Y189123D01*
X475257Y190717D02*
X476851Y192310D01*
X475257Y189043D02*
Y192390D01*
X470748Y188354D02*
Y193079D01*
X478524Y188354D02*
X481378D01*
Y193079D01*
X478524D02*
X481378D01*
X470748D02*
X473602D01*
X470748Y188354D02*
X473602D01*
X476851Y204142D02*
Y207291D01*
X475257Y205716D02*
X476851Y204123D01*
X475257Y205716D02*
X476851Y207310D01*
X475257Y204043D02*
Y207390D01*
X470748Y203354D02*
Y208079D01*
X478524Y203354D02*
X481378D01*
Y208079D01*
X478524D02*
X481378D01*
X470748D02*
X473602D01*
X470748Y203354D02*
X473602D01*
X476851Y219142D02*
Y222291D01*
X475257Y220717D02*
X476851Y219123D01*
X475257Y220717D02*
X476851Y222310D01*
X475257Y219043D02*
Y222390D01*
X470748Y218354D02*
Y223079D01*
X478524Y218354D02*
X481378D01*
Y223079D01*
X478524D02*
X481378D01*
X470748D02*
X473602D01*
X470748Y218354D02*
X473602D01*
X476851Y234142D02*
Y237291D01*
X475257Y235717D02*
X476851Y234123D01*
X475257Y235717D02*
X476851Y237310D01*
X475257Y234043D02*
Y237390D01*
X470748Y233354D02*
Y238079D01*
X478524Y233354D02*
X481378D01*
Y238079D01*
X478524D02*
X481378D01*
X470748D02*
X473602D01*
X470748Y233354D02*
X473602D01*
X436851Y159142D02*
Y162291D01*
X435257Y160716D02*
X436851Y159123D01*
X435257Y160716D02*
X436851Y162310D01*
X435257Y159043D02*
Y162390D01*
X430748Y158354D02*
Y163079D01*
X438524Y158354D02*
X441378D01*
Y163079D01*
X438524D02*
X441378D01*
X430748D02*
X433603D01*
X430748Y158354D02*
X433603D01*
X436851Y174142D02*
Y177291D01*
X435257Y175716D02*
X436851Y174123D01*
X435257Y175716D02*
X436851Y177310D01*
X435257Y174043D02*
Y177390D01*
X430748Y173354D02*
Y178079D01*
X438524Y173354D02*
X441378D01*
Y178079D01*
X438524D02*
X441378D01*
X430748D02*
X433603D01*
X430748Y173354D02*
X433603D01*
X796851Y189142D02*
Y192291D01*
X795257Y190717D02*
X796851Y189123D01*
X795257Y190717D02*
X796851Y192310D01*
X795257Y189043D02*
Y192390D01*
X790748Y188354D02*
Y193079D01*
X798524Y188354D02*
X801378D01*
Y193079D01*
X798524D02*
X801378D01*
X790748D02*
X793603D01*
X790748Y188354D02*
X793603D01*
X836850Y189142D02*
Y192291D01*
X835257Y190717D02*
X836850Y189123D01*
X835257Y190717D02*
X836850Y192310D01*
X835257Y189043D02*
Y192390D01*
X830748Y188354D02*
Y193079D01*
X838524Y188354D02*
X841378D01*
Y193079D01*
X838524D02*
X841378D01*
X830748D02*
X833603D01*
X830748Y188354D02*
X833603D01*
X836850Y204142D02*
Y207291D01*
X835257Y205716D02*
X836850Y204123D01*
X835257Y205716D02*
X836850Y207310D01*
X835257Y204043D02*
Y207390D01*
X830748Y203354D02*
Y208079D01*
X838524Y203354D02*
X841378D01*
Y208079D01*
X838524D02*
X841378D01*
X830748D02*
X833603D01*
X830748Y203354D02*
X833603D01*
X796851Y204142D02*
Y207291D01*
X795257Y205716D02*
X796851Y204123D01*
X795257Y205716D02*
X796851Y207310D01*
X795257Y204043D02*
Y207390D01*
X790748Y203354D02*
Y208079D01*
X798524Y203354D02*
X801378D01*
Y208079D01*
X798524D02*
X801378D01*
X790748D02*
X793603D01*
X790748Y203354D02*
X793603D01*
X836850Y219142D02*
Y222291D01*
X835257Y220717D02*
X836850Y219123D01*
X835257Y220717D02*
X836850Y222310D01*
X835257Y219043D02*
Y222390D01*
X830748Y218354D02*
Y223079D01*
X838524Y218354D02*
X841378D01*
Y223079D01*
X838524D02*
X841378D01*
X830748D02*
X833603D01*
X830748Y218354D02*
X833603D01*
X796851Y219142D02*
Y222291D01*
X795257Y220717D02*
X796851Y219123D01*
X795257Y220717D02*
X796851Y222310D01*
X795257Y219043D02*
Y222390D01*
X790748Y218354D02*
Y223079D01*
X798524Y218354D02*
X801378D01*
Y223079D01*
X798524D02*
X801378D01*
X790748D02*
X793603D01*
X790748Y218354D02*
X793603D01*
X836850Y234142D02*
Y237291D01*
X835257Y235717D02*
X836850Y234123D01*
X835257Y235717D02*
X836850Y237310D01*
X835257Y234043D02*
Y237390D01*
X830748Y233354D02*
Y238079D01*
X838524Y233354D02*
X841378D01*
Y238079D01*
X838524D02*
X841378D01*
X830748D02*
X833603D01*
X830748Y233354D02*
X833603D01*
X796851Y234142D02*
Y237291D01*
X795257Y235717D02*
X796851Y234123D01*
X795257Y235717D02*
X796851Y237310D01*
X795257Y234043D02*
Y237390D01*
X790748Y233354D02*
Y238079D01*
X798524Y233354D02*
X801378D01*
Y238079D01*
X798524D02*
X801378D01*
X790748D02*
X793603D01*
X790748Y233354D02*
X793603D01*
X596851Y189142D02*
Y192291D01*
X595257Y190717D02*
X596851Y189123D01*
X595257Y190717D02*
X596851Y192310D01*
X595257Y189043D02*
Y192390D01*
X590748Y188354D02*
Y193079D01*
X598524Y188354D02*
X601378D01*
Y193079D01*
X598524D02*
X601378D01*
X590748D02*
X593603D01*
X590748Y188354D02*
X593603D01*
X636851Y189142D02*
Y192291D01*
X635257Y190717D02*
X636851Y189123D01*
X635257Y190717D02*
X636851Y192310D01*
X635257Y189043D02*
Y192390D01*
X630748Y188354D02*
Y193079D01*
X638524Y188354D02*
X641378D01*
Y193079D01*
X638524D02*
X641378D01*
X630748D02*
X633603D01*
X630748Y188354D02*
X633603D01*
X636851Y204142D02*
Y207291D01*
X635257Y205716D02*
X636851Y204123D01*
X635257Y205716D02*
X636851Y207310D01*
X635257Y204043D02*
Y207390D01*
X630748Y203354D02*
Y208079D01*
X638524Y203354D02*
X641378D01*
Y208079D01*
X638524D02*
X641378D01*
X630748D02*
X633603D01*
X630748Y203354D02*
X633603D01*
X596851Y204142D02*
Y207291D01*
X595257Y205716D02*
X596851Y204123D01*
X595257Y205716D02*
X596851Y207310D01*
X595257Y204043D02*
Y207390D01*
X590748Y203354D02*
Y208079D01*
X598524Y203354D02*
X601378D01*
Y208079D01*
X598524D02*
X601378D01*
X590748D02*
X593603D01*
X590748Y203354D02*
X593603D01*
X636851Y219142D02*
Y222291D01*
X635257Y220717D02*
X636851Y219123D01*
X635257Y220717D02*
X636851Y222310D01*
X635257Y219043D02*
Y222390D01*
X630748Y218354D02*
Y223079D01*
X638524Y218354D02*
X641378D01*
Y223079D01*
X638524D02*
X641378D01*
X630748D02*
X633603D01*
X630748Y218354D02*
X633603D01*
X596851Y219142D02*
Y222291D01*
X595257Y220717D02*
X596851Y219123D01*
X595257Y220717D02*
X596851Y222310D01*
X595257Y219043D02*
Y222390D01*
X590748Y218354D02*
Y223079D01*
X598524Y218354D02*
X601378D01*
Y223079D01*
X598524D02*
X601378D01*
X590748D02*
X593603D01*
X590748Y218354D02*
X593603D01*
X636851Y234142D02*
Y237291D01*
X635257Y235717D02*
X636851Y234123D01*
X635257Y235717D02*
X636851Y237310D01*
X635257Y234043D02*
Y237390D01*
X630748Y233354D02*
Y238079D01*
X638524Y233354D02*
X641378D01*
Y238079D01*
X638524D02*
X641378D01*
X630748D02*
X633603D01*
X630748Y233354D02*
X633603D01*
X596851Y234142D02*
Y237291D01*
X595257Y235717D02*
X596851Y234123D01*
X595257Y235717D02*
X596851Y237310D01*
X595257Y234043D02*
Y237390D01*
X590748Y233354D02*
Y238079D01*
X598524Y233354D02*
X601378D01*
Y238079D01*
X598524D02*
X601378D01*
X590748D02*
X593603D01*
X590748Y233354D02*
X593603D01*
X396851Y189142D02*
Y192291D01*
X395257Y190717D02*
X396851Y189123D01*
X395257Y190717D02*
X396851Y192310D01*
X395257Y189043D02*
Y192390D01*
X390748Y188354D02*
Y193079D01*
X398524Y188354D02*
X401378D01*
Y193079D01*
X398524D02*
X401378D01*
X390748D02*
X393602D01*
X390748Y188354D02*
X393602D01*
X436851Y189142D02*
Y192291D01*
X435257Y190717D02*
X436851Y189123D01*
X435257Y190717D02*
X436851Y192310D01*
X435257Y189043D02*
Y192390D01*
X430748Y188354D02*
Y193079D01*
X438524Y188354D02*
X441378D01*
Y193079D01*
X438524D02*
X441378D01*
X430748D02*
X433603D01*
X430748Y188354D02*
X433603D01*
X436851Y204142D02*
Y207291D01*
X435257Y205716D02*
X436851Y204123D01*
X435257Y205716D02*
X436851Y207310D01*
X435257Y204043D02*
Y207390D01*
X430748Y203354D02*
Y208079D01*
X438524Y203354D02*
X441378D01*
Y208079D01*
X438524D02*
X441378D01*
X430748D02*
X433603D01*
X430748Y203354D02*
X433603D01*
X396851Y204142D02*
Y207291D01*
X395257Y205716D02*
X396851Y204123D01*
X395257Y205716D02*
X396851Y207310D01*
X395257Y204043D02*
Y207390D01*
X390748Y203354D02*
Y208079D01*
X398524Y203354D02*
X401378D01*
Y208079D01*
X398524D02*
X401378D01*
X390748D02*
X393602D01*
X390748Y203354D02*
X393602D01*
X436851Y219142D02*
Y222291D01*
X435257Y220717D02*
X436851Y219123D01*
X435257Y220717D02*
X436851Y222310D01*
X435257Y219043D02*
Y222390D01*
X430748Y218354D02*
Y223079D01*
X438524Y218354D02*
X441378D01*
Y223079D01*
X438524D02*
X441378D01*
X430748D02*
X433603D01*
X430748Y218354D02*
X433603D01*
X396851Y219142D02*
Y222291D01*
X395257Y220717D02*
X396851Y219123D01*
X395257Y220717D02*
X396851Y222310D01*
X395257Y219043D02*
Y222390D01*
X390748Y218354D02*
Y223079D01*
X398524Y218354D02*
X401378D01*
Y223079D01*
X398524D02*
X401378D01*
X390748D02*
X393602D01*
X390748Y218354D02*
X393602D01*
X436851Y234142D02*
Y237291D01*
X435257Y235717D02*
X436851Y234123D01*
X435257Y235717D02*
X436851Y237310D01*
X435257Y234043D02*
Y237390D01*
X430748Y233354D02*
Y238079D01*
X438524Y233354D02*
X441378D01*
Y238079D01*
X438524D02*
X441378D01*
X430748D02*
X433603D01*
X430748Y233354D02*
X433603D01*
X396851Y234142D02*
Y237291D01*
X395257Y235717D02*
X396851Y234123D01*
X395257Y235717D02*
X396851Y237310D01*
X395257Y234043D02*
Y237390D01*
X390748Y233354D02*
Y238079D01*
X398524Y233354D02*
X401378D01*
Y238079D01*
X398524D02*
X401378D01*
X390748D02*
X393602D01*
X390748Y233354D02*
X393602D01*
X316851Y189142D02*
Y192291D01*
X315257Y190717D02*
X316851Y189123D01*
X315257Y190717D02*
X316851Y192310D01*
X315257Y189043D02*
Y192390D01*
X310748Y188354D02*
Y193079D01*
X318524Y188354D02*
X321378D01*
Y193079D01*
X318524D02*
X321378D01*
X310748D02*
X313602D01*
X310748Y188354D02*
X313602D01*
X316851Y204142D02*
Y207291D01*
X315257Y205716D02*
X316851Y204123D01*
X315257Y205716D02*
X316851Y207310D01*
X315257Y204043D02*
Y207390D01*
X310748Y203354D02*
Y208079D01*
X318524Y203354D02*
X321378D01*
Y208079D01*
X318524D02*
X321378D01*
X310748D02*
X313602D01*
X310748Y203354D02*
X313602D01*
X316850Y219142D02*
Y222291D01*
X315257Y220717D02*
X316850Y219123D01*
X315257Y220717D02*
X316850Y222310D01*
X315257Y219043D02*
Y222390D01*
X310748Y218354D02*
Y223079D01*
X318524Y218354D02*
X321378D01*
Y223079D01*
X318524D02*
X321378D01*
X310748D02*
X313602D01*
X310748Y218354D02*
X313602D01*
X316850Y234142D02*
Y237291D01*
X315257Y235717D02*
X316850Y234123D01*
X315257Y235717D02*
X316850Y237310D01*
X315257Y234043D02*
Y237390D01*
X310748Y233354D02*
Y238079D01*
X318524Y233354D02*
X321378D01*
Y238079D01*
X318524D02*
X321378D01*
X310748D02*
X313602D01*
X310748Y233354D02*
X313602D01*
X356851Y189142D02*
Y192291D01*
X355257Y190717D02*
X356851Y189123D01*
X355257Y190717D02*
X356851Y192310D01*
X355257Y189043D02*
Y192390D01*
X350748Y188354D02*
Y193079D01*
X358524Y188354D02*
X361378D01*
Y193079D01*
X358524D02*
X361378D01*
X350748D02*
X353603D01*
X350748Y188354D02*
X353603D01*
X356851Y204142D02*
Y207291D01*
X355257Y205716D02*
X356851Y204123D01*
X355257Y205716D02*
X356851Y207310D01*
X355257Y204043D02*
Y207390D01*
X350748Y203354D02*
Y208079D01*
X358524Y203354D02*
X361378D01*
Y208079D01*
X358524D02*
X361378D01*
X350748D02*
X353603D01*
X350748Y203354D02*
X353603D01*
X356850Y219142D02*
Y222291D01*
X355257Y220717D02*
X356850Y219123D01*
X355257Y220717D02*
X356850Y222310D01*
X355257Y219043D02*
Y222390D01*
X350748Y218354D02*
Y223079D01*
X358524Y218354D02*
X361378D01*
Y223079D01*
X358524D02*
X361378D01*
X350748D02*
X353602D01*
X350748Y218354D02*
X353602D01*
X356850Y234142D02*
Y237291D01*
X355257Y235717D02*
X356850Y234123D01*
X355257Y235717D02*
X356850Y237310D01*
X355257Y234043D02*
Y237390D01*
X350748Y233354D02*
Y238079D01*
X358524Y233354D02*
X361378D01*
Y238079D01*
X358524D02*
X361378D01*
X350748D02*
X353602D01*
X350748Y233354D02*
X353602D01*
X756851Y189142D02*
Y192291D01*
X755257Y190717D02*
X756851Y189123D01*
X755257Y190717D02*
X756851Y192310D01*
X755257Y189043D02*
Y192390D01*
X750748Y188354D02*
Y193079D01*
X758524Y188354D02*
X761378D01*
Y193079D01*
X758524D02*
X761378D01*
X750748D02*
X753603D01*
X750748Y188354D02*
X753603D01*
X756851Y204142D02*
Y207291D01*
X755257Y205716D02*
X756851Y204123D01*
X755257Y205716D02*
X756851Y207310D01*
X755257Y204043D02*
Y207390D01*
X750748Y203354D02*
Y208079D01*
X758524Y203354D02*
X761378D01*
Y208079D01*
X758524D02*
X761378D01*
X750748D02*
X753603D01*
X750748Y203354D02*
X753603D01*
X756851Y219142D02*
Y222291D01*
X755257Y220717D02*
X756851Y219123D01*
X755257Y220717D02*
X756851Y222310D01*
X755257Y219043D02*
Y222390D01*
X750748Y218354D02*
Y223079D01*
X758524Y218354D02*
X761378D01*
Y223079D01*
X758524D02*
X761378D01*
X750748D02*
X753603D01*
X750748Y218354D02*
X753603D01*
X756851Y234142D02*
Y237291D01*
X755257Y235717D02*
X756851Y234123D01*
X755257Y235717D02*
X756851Y237310D01*
X755257Y234043D02*
Y237390D01*
X750748Y233354D02*
Y238079D01*
X758524Y233354D02*
X761378D01*
Y238079D01*
X758524D02*
X761378D01*
X750748D02*
X753603D01*
X750748Y233354D02*
X753603D01*
X716851Y189142D02*
Y192291D01*
X715257Y190717D02*
X716851Y189123D01*
X715257Y190717D02*
X716851Y192310D01*
X715257Y189043D02*
Y192390D01*
X710748Y188354D02*
Y193079D01*
X718524Y188354D02*
X721378D01*
Y193079D01*
X718524D02*
X721378D01*
X710748D02*
X713602D01*
X710748Y188354D02*
X713602D01*
X716851Y204142D02*
Y207291D01*
X715257Y205716D02*
X716851Y204123D01*
X715257Y205716D02*
X716851Y207310D01*
X715257Y204043D02*
Y207390D01*
X710748Y203354D02*
Y208079D01*
X718524Y203354D02*
X721378D01*
Y208079D01*
X718524D02*
X721378D01*
X710748D02*
X713602D01*
X710748Y203354D02*
X713602D01*
X716851Y219142D02*
Y222291D01*
X715257Y220717D02*
X716851Y219123D01*
X715257Y220717D02*
X716851Y222310D01*
X715257Y219043D02*
Y222390D01*
X710748Y218354D02*
Y223079D01*
X718524Y218354D02*
X721378D01*
Y223079D01*
X718524D02*
X721378D01*
X710748D02*
X713602D01*
X710748Y218354D02*
X713602D01*
X716851Y234142D02*
Y237291D01*
X715257Y235717D02*
X716851Y234123D01*
X715257Y235717D02*
X716851Y237310D01*
X715257Y234043D02*
Y237390D01*
X710748Y233354D02*
Y238079D01*
X718524Y233354D02*
X721378D01*
Y238079D01*
X718524D02*
X721378D01*
X710748D02*
X713602D01*
X710748Y233354D02*
X713602D01*
X556851Y189142D02*
Y192291D01*
X555257Y190717D02*
X556851Y189123D01*
X555257Y190717D02*
X556851Y192310D01*
X555257Y189043D02*
Y192390D01*
X550748Y188354D02*
Y193079D01*
X558524Y188354D02*
X561378D01*
Y193079D01*
X558524D02*
X561378D01*
X550748D02*
X553603D01*
X550748Y188354D02*
X553603D01*
X556851Y204142D02*
Y207291D01*
X555257Y205716D02*
X556851Y204123D01*
X555257Y205716D02*
X556851Y207310D01*
X555257Y204043D02*
Y207390D01*
X550748Y203354D02*
Y208079D01*
X558524Y203354D02*
X561378D01*
Y208079D01*
X558524D02*
X561378D01*
X550748D02*
X553603D01*
X550748Y203354D02*
X553603D01*
X556851Y219142D02*
Y222291D01*
X555257Y220717D02*
X556851Y219123D01*
X555257Y220717D02*
X556851Y222310D01*
X555257Y219043D02*
Y222390D01*
X550748Y218354D02*
Y223079D01*
X558524Y218354D02*
X561378D01*
Y223079D01*
X558524D02*
X561378D01*
X550748D02*
X553603D01*
X550748Y218354D02*
X553603D01*
X556851Y234142D02*
Y237291D01*
X555257Y235717D02*
X556851Y234123D01*
X555257Y235717D02*
X556851Y237310D01*
X555257Y234043D02*
Y237390D01*
X550748Y233354D02*
Y238079D01*
X558524Y233354D02*
X561378D01*
Y238079D01*
X558524D02*
X561378D01*
X550748D02*
X553603D01*
X550748Y233354D02*
X553603D01*
X516851Y189142D02*
Y192291D01*
X515257Y190717D02*
X516851Y189123D01*
X515257Y190717D02*
X516851Y192310D01*
X515257Y189043D02*
Y192390D01*
X510748Y188354D02*
Y193079D01*
X518524Y188354D02*
X521378D01*
Y193079D01*
X518524D02*
X521378D01*
X510748D02*
X513602D01*
X510748Y188354D02*
X513602D01*
X516851Y204142D02*
Y207291D01*
X515257Y205716D02*
X516851Y204123D01*
X515257Y205716D02*
X516851Y207310D01*
X515257Y204043D02*
Y207390D01*
X510748Y203354D02*
Y208079D01*
X518524Y203354D02*
X521378D01*
Y208079D01*
X518524D02*
X521378D01*
X510748D02*
X513602D01*
X510748Y203354D02*
X513602D01*
X516851Y219142D02*
Y222291D01*
X515257Y220717D02*
X516851Y219123D01*
X515257Y220717D02*
X516851Y222310D01*
X515257Y219043D02*
Y222390D01*
X510748Y218354D02*
Y223079D01*
X518524Y218354D02*
X521378D01*
Y223079D01*
X518524D02*
X521378D01*
X510748D02*
X513602D01*
X510748Y218354D02*
X513602D01*
X516851Y234142D02*
Y237291D01*
X515257Y235717D02*
X516851Y234123D01*
X515257Y235717D02*
X516851Y237310D01*
X515257Y234043D02*
Y237390D01*
X510748Y233354D02*
Y238079D01*
X518524Y233354D02*
X521378D01*
Y238079D01*
X518524D02*
X521378D01*
X510748D02*
X513602D01*
X510748Y233354D02*
X513602D01*
X276851Y204142D02*
Y207291D01*
X275257Y205716D02*
X276851Y204123D01*
X275257Y205716D02*
X276851Y207310D01*
X275257Y204043D02*
Y207390D01*
X270748Y203354D02*
Y208079D01*
X278524Y203354D02*
X281378D01*
Y208079D01*
X278524D02*
X281378D01*
X270748D02*
X273603D01*
X270748Y203354D02*
X273603D01*
X236851Y234142D02*
Y237291D01*
X235257Y235717D02*
X236851Y234123D01*
X235257Y235717D02*
X236851Y237310D01*
X235257Y234043D02*
Y237390D01*
X230748Y233354D02*
Y238079D01*
X238524Y233354D02*
X241378D01*
Y238079D01*
X238524D02*
X241378D01*
X230748D02*
X233602D01*
X230748Y233354D02*
X233602D01*
X196851Y144142D02*
Y147291D01*
X195257Y145717D02*
X196851Y144123D01*
X195257Y145717D02*
X196851Y147310D01*
X195257Y144043D02*
Y147390D01*
X190748Y143354D02*
Y148079D01*
X198524Y143354D02*
X201378D01*
Y148079D01*
X198524D02*
X201378D01*
X190748D02*
X193603D01*
X190748Y143354D02*
X193603D01*
X116850Y234142D02*
Y237291D01*
X115257Y235717D02*
X116850Y234123D01*
X115257Y235717D02*
X116850Y237310D01*
X115257Y234043D02*
Y237390D01*
X110748Y233354D02*
Y238079D01*
X118524Y233354D02*
X121378D01*
Y238079D01*
X118524D02*
X121378D01*
X110748D02*
X113602D01*
X110748Y233354D02*
X113602D01*
X110748Y218354D02*
X113602D01*
X110748Y223079D02*
X113602D01*
X118524D02*
X121378D01*
Y218354D02*
Y223079D01*
X118524Y218354D02*
X121378D01*
X110748D02*
Y223079D01*
X115257Y219043D02*
Y222390D01*
Y220717D02*
X116850Y222310D01*
X115257Y220717D02*
X116850Y219123D01*
Y219142D02*
Y222291D01*
X150748Y113354D02*
X153603D01*
X150748Y118079D02*
X153603D01*
X158524D02*
X161378D01*
Y113354D02*
Y118079D01*
X158524Y113354D02*
X161378D01*
X150748D02*
Y118079D01*
X155257Y114043D02*
Y117390D01*
Y115717D02*
X156851Y117310D01*
X155257Y115717D02*
X156851Y114123D01*
Y114142D02*
Y117291D01*
X116850Y129142D02*
Y132291D01*
X115257Y130717D02*
X116850Y129123D01*
X115257Y130717D02*
X116850Y132310D01*
X115257Y129043D02*
Y132390D01*
X110748Y128354D02*
Y133079D01*
X118524Y128354D02*
X121378D01*
Y133079D01*
X118524D02*
X121378D01*
X110748D02*
X113602D01*
X110748Y128354D02*
X113602D01*
X236851Y174142D02*
Y177291D01*
X235257Y175716D02*
X236851Y174123D01*
X235257Y175716D02*
X236851Y177310D01*
X235257Y174043D02*
Y177390D01*
X230748Y173354D02*
Y178079D01*
X238524Y173354D02*
X241378D01*
Y178079D01*
X238524D02*
X241378D01*
X230748D02*
X233602D01*
X230748Y173354D02*
X233602D01*
X236851Y99142D02*
Y102291D01*
X235257Y100716D02*
X236851Y99123D01*
X235257Y100716D02*
X236851Y102310D01*
X235257Y99043D02*
Y102390D01*
X230748Y98354D02*
Y103079D01*
X238524Y98354D02*
X241378D01*
Y103079D01*
X238524D02*
X241378D01*
X230748D02*
X233602D01*
X230748Y98354D02*
X233602D01*
X116850Y144142D02*
Y147291D01*
X115257Y145717D02*
X116850Y144123D01*
X115257Y145717D02*
X116850Y147310D01*
X115257Y144043D02*
Y147390D01*
X110748Y143354D02*
Y148079D01*
X118524Y143354D02*
X121378D01*
Y148079D01*
X118524D02*
X121378D01*
X110748D02*
X113602D01*
X110748Y143354D02*
X113602D01*
X156851Y69142D02*
Y72291D01*
X155257Y70717D02*
X156851Y69123D01*
X155257Y70717D02*
X156851Y72310D01*
X155257Y69043D02*
Y72390D01*
X150748Y68354D02*
Y73079D01*
X158524Y68354D02*
X161378D01*
Y73079D01*
X158524D02*
X161378D01*
X150748D02*
X153603D01*
X150748Y68354D02*
X153603D01*
X196851Y234142D02*
Y237291D01*
X195257Y235717D02*
X196851Y234123D01*
X195257Y235717D02*
X196851Y237310D01*
X195257Y234043D02*
Y237390D01*
X190748Y233354D02*
Y238079D01*
X198524Y233354D02*
X201378D01*
Y238079D01*
X198524D02*
X201378D01*
X190748D02*
X193603D01*
X190748Y233354D02*
X193603D01*
X190748Y188354D02*
X193603D01*
X190748Y193079D02*
X193603D01*
X198524D02*
X201378D01*
Y188354D02*
Y193079D01*
X198524Y188354D02*
X201378D01*
X190748D02*
Y193079D01*
X195257Y189043D02*
Y192390D01*
Y190717D02*
X196851Y192310D01*
X195257Y190717D02*
X196851Y189123D01*
Y189142D02*
Y192291D01*
X110748Y173354D02*
X113602D01*
X110748Y178079D02*
X113602D01*
X118524D02*
X121378D01*
Y173354D02*
Y178079D01*
X118524Y173354D02*
X121378D01*
X110748D02*
Y178079D01*
X115257Y174043D02*
Y177390D01*
Y175716D02*
X116850Y177310D01*
X115257Y175716D02*
X116850Y174123D01*
Y174142D02*
Y177291D01*
X230748Y128354D02*
X233602D01*
X230748Y133079D02*
X233602D01*
X238524D02*
X241378D01*
Y128354D02*
Y133079D01*
X238524Y128354D02*
X241378D01*
X230748D02*
Y133079D01*
X235257Y129043D02*
Y132390D01*
Y130717D02*
X236851Y132310D01*
X235257Y130717D02*
X236851Y129123D01*
Y129142D02*
Y132291D01*
X110748Y98354D02*
X113602D01*
X110748Y103079D02*
X113602D01*
X118524D02*
X121378D01*
Y98354D02*
Y103079D01*
X118524Y98354D02*
X121378D01*
X110748D02*
Y103079D01*
X115257Y99043D02*
Y102390D01*
Y100716D02*
X116850Y102310D01*
X115257Y100716D02*
X116850Y99123D01*
Y99142D02*
Y102291D01*
X110748Y53354D02*
X113602D01*
X110748Y58079D02*
X113602D01*
X118524D02*
X121378D01*
Y53354D02*
Y58079D01*
X118524Y53354D02*
X121378D01*
X110748D02*
Y58079D01*
X115257Y54043D02*
Y57390D01*
Y55717D02*
X116850Y57310D01*
X115257Y55717D02*
X116850Y54123D01*
Y54142D02*
Y57291D01*
X190748Y23354D02*
X193603D01*
X190748Y28079D02*
X193603D01*
X198524D02*
X201378D01*
Y23354D02*
Y28079D01*
X198524Y23354D02*
X201378D01*
X190748D02*
Y28079D01*
X195257Y24043D02*
Y27390D01*
Y25717D02*
X196851Y27310D01*
X195257Y25717D02*
X196851Y24123D01*
Y24142D02*
Y27291D01*
X230748Y158354D02*
X233602D01*
X230748Y163079D02*
X233602D01*
X238524D02*
X241378D01*
Y158354D02*
Y163079D01*
X238524Y158354D02*
X241378D01*
X230748D02*
Y163079D01*
X235257Y159043D02*
Y162390D01*
Y160716D02*
X236851Y162310D01*
X235257Y160716D02*
X236851Y159123D01*
Y159142D02*
Y162291D01*
X150748Y173354D02*
X153603D01*
X150748Y178079D02*
X153603D01*
X158524D02*
X161378D01*
Y173354D02*
Y178079D01*
X158524Y173354D02*
X161378D01*
X150748D02*
Y178079D01*
X155257Y174043D02*
Y177390D01*
Y175716D02*
X156851Y177310D01*
X155257Y175716D02*
X156851Y174123D01*
Y174142D02*
Y177291D01*
X230748Y143354D02*
X233602D01*
X230748Y148079D02*
X233602D01*
X238524D02*
X241378D01*
Y143354D02*
Y148079D01*
X238524Y143354D02*
X241378D01*
X230748D02*
Y148079D01*
X235257Y144043D02*
Y147390D01*
Y145717D02*
X236851Y147310D01*
X235257Y145717D02*
X236851Y144123D01*
Y144142D02*
Y147291D01*
X150748Y98354D02*
X153603D01*
X150748Y103079D02*
X153603D01*
X158524D02*
X161378D01*
Y98354D02*
Y103079D01*
X158524Y98354D02*
X161378D01*
X150748D02*
Y103079D01*
X155257Y99043D02*
Y102390D01*
Y100716D02*
X156851Y102310D01*
X155257Y100716D02*
X156851Y99123D01*
Y99142D02*
Y102291D01*
X150748Y53354D02*
X153603D01*
X150748Y58079D02*
X153603D01*
X158524D02*
X161378D01*
Y53354D02*
Y58079D01*
X158524Y53354D02*
X161378D01*
X150748D02*
Y58079D01*
X155257Y54043D02*
Y57390D01*
Y55717D02*
X156851Y57310D01*
X155257Y55717D02*
X156851Y54123D01*
Y54142D02*
Y57291D01*
X230748Y83354D02*
X233602D01*
X230748Y88079D02*
X233602D01*
X238524D02*
X241378D01*
Y83354D02*
Y88079D01*
X238524Y83354D02*
X241378D01*
X230748D02*
Y88079D01*
X235257Y84043D02*
Y87390D01*
Y85716D02*
X236851Y87310D01*
X235257Y85716D02*
X236851Y84123D01*
Y84142D02*
Y87291D01*
X190748Y218354D02*
X193603D01*
X190748Y223079D02*
X193603D01*
X198524D02*
X201378D01*
Y218354D02*
Y223079D01*
X198524Y218354D02*
X201378D01*
X190748D02*
Y223079D01*
X195257Y219043D02*
Y222390D01*
Y220717D02*
X196851Y222310D01*
X195257Y220717D02*
X196851Y219123D01*
Y219142D02*
Y222291D01*
X270748Y233354D02*
X273603D01*
X270748Y238079D02*
X273603D01*
X278524D02*
X281378D01*
Y233354D02*
Y238079D01*
X278524Y233354D02*
X281378D01*
X270748D02*
Y238079D01*
X275257Y234043D02*
Y237390D01*
Y235717D02*
X276851Y237310D01*
X275257Y235717D02*
X276851Y234123D01*
Y234142D02*
Y237291D01*
X190748Y173354D02*
X193603D01*
X190748Y178079D02*
X193603D01*
X198524D02*
X201378D01*
Y173354D02*
Y178079D01*
X198524Y173354D02*
X201378D01*
X190748D02*
Y178079D01*
X195257Y174043D02*
Y177390D01*
Y175716D02*
X196851Y177310D01*
X195257Y175716D02*
X196851Y174123D01*
Y174142D02*
Y177291D01*
X150748Y128354D02*
X153603D01*
X150748Y133079D02*
X153603D01*
X158524D02*
X161378D01*
Y128354D02*
Y133079D01*
X158524Y128354D02*
X161378D01*
X150748D02*
Y133079D01*
X155257Y129043D02*
Y132390D01*
Y130717D02*
X156851Y132310D01*
X155257Y130717D02*
X156851Y129123D01*
Y129142D02*
Y132291D01*
X230748Y113354D02*
X233602D01*
X230748Y118079D02*
X233602D01*
X238524D02*
X241378D01*
Y113354D02*
Y118079D01*
X238524Y113354D02*
X241378D01*
X230748D02*
Y118079D01*
X235257Y114043D02*
Y117390D01*
Y115717D02*
X236851Y117310D01*
X235257Y115717D02*
X236851Y114123D01*
Y114142D02*
Y117291D01*
X110748Y83354D02*
X113602D01*
X110748Y88079D02*
X113602D01*
X118524D02*
X121378D01*
Y83354D02*
Y88079D01*
X118524Y83354D02*
X121378D01*
X110748D02*
Y88079D01*
X115257Y84043D02*
Y87390D01*
Y85716D02*
X116850Y87310D01*
X115257Y85716D02*
X116850Y84123D01*
Y84142D02*
Y87291D01*
X190748Y53354D02*
X193603D01*
X190748Y58079D02*
X193603D01*
X198524D02*
X201378D01*
Y53354D02*
Y58079D01*
X198524Y53354D02*
X201378D01*
X190748D02*
Y58079D01*
X195257Y54043D02*
Y57390D01*
Y55717D02*
X196851Y57310D01*
X195257Y55717D02*
X196851Y54123D01*
Y54142D02*
Y57291D01*
X230748Y68354D02*
X233602D01*
X230748Y73079D02*
X233602D01*
X238524D02*
X241378D01*
Y68354D02*
Y73079D01*
X238524Y68354D02*
X241378D01*
X230748D02*
Y73079D01*
X235257Y69043D02*
Y72390D01*
Y70717D02*
X236851Y72310D01*
X235257Y70717D02*
X236851Y69123D01*
Y69142D02*
Y72291D01*
X230748Y218354D02*
X233602D01*
X230748Y223079D02*
X233602D01*
X238524D02*
X241378D01*
Y218354D02*
Y223079D01*
X238524Y218354D02*
X241378D01*
X230748D02*
Y223079D01*
X235257Y219043D02*
Y222390D01*
Y220717D02*
X236851Y222310D01*
X235257Y220717D02*
X236851Y219123D01*
Y219142D02*
Y222291D01*
X270748Y218354D02*
X273603D01*
X270748Y223079D02*
X273603D01*
X278524D02*
X281378D01*
Y218354D02*
Y223079D01*
X278524Y218354D02*
X281378D01*
X270748D02*
Y223079D01*
X275257Y219043D02*
Y222390D01*
Y220717D02*
X276851Y222310D01*
X275257Y220717D02*
X276851Y219123D01*
Y219142D02*
Y222291D01*
X110748Y158354D02*
X113602D01*
X110748Y163079D02*
X113602D01*
X118524D02*
X121378D01*
Y158354D02*
Y163079D01*
X118524Y158354D02*
X121378D01*
X110748D02*
Y163079D01*
X115257Y159043D02*
Y162390D01*
Y160716D02*
X116850Y162310D01*
X115257Y160716D02*
X116850Y159123D01*
Y159142D02*
Y162291D01*
X190748Y128354D02*
X193603D01*
X190748Y133079D02*
X193603D01*
X198524D02*
X201378D01*
Y128354D02*
Y133079D01*
X198524Y128354D02*
X201378D01*
X190748D02*
Y133079D01*
X195257Y129043D02*
Y132390D01*
Y130717D02*
X196851Y132310D01*
X195257Y130717D02*
X196851Y129123D01*
Y129142D02*
Y132291D01*
X150748Y83354D02*
X153603D01*
X150748Y88079D02*
X153603D01*
X158524D02*
X161378D01*
Y83354D02*
Y88079D01*
X158524Y83354D02*
X161378D01*
X150748D02*
Y88079D01*
X155257Y84043D02*
Y87390D01*
Y85716D02*
X156851Y87310D01*
X155257Y85716D02*
X156851Y84123D01*
Y84142D02*
Y87291D01*
X110748Y38354D02*
X113602D01*
X110748Y43079D02*
X113602D01*
X118524D02*
X121378D01*
Y38354D02*
Y43079D01*
X118524Y38354D02*
X121378D01*
X110748D02*
Y43079D01*
X115257Y39043D02*
Y42390D01*
Y40716D02*
X116850Y42310D01*
X115257Y40716D02*
X116850Y39123D01*
Y39142D02*
Y42291D01*
X230748Y53354D02*
X233602D01*
X230748Y58079D02*
X233602D01*
X238524D02*
X241378D01*
Y53354D02*
Y58079D01*
X238524Y53354D02*
X241378D01*
X230748D02*
Y58079D01*
X235257Y54043D02*
Y57390D01*
Y55717D02*
X236851Y57310D01*
X235257Y55717D02*
X236851Y54123D01*
Y54142D02*
Y57291D01*
X190748Y203354D02*
X193603D01*
X190748Y208079D02*
X193603D01*
X198524D02*
X201378D01*
Y203354D02*
Y208079D01*
X198524Y203354D02*
X201378D01*
X190748D02*
Y208079D01*
X195257Y204043D02*
Y207390D01*
Y205716D02*
X196851Y207310D01*
X195257Y205716D02*
X196851Y204123D01*
Y204142D02*
Y207291D01*
X150748Y158354D02*
X153603D01*
X150748Y163079D02*
X153603D01*
X158524D02*
X161378D01*
Y158354D02*
Y163079D01*
X158524Y158354D02*
X161378D01*
X150748D02*
Y163079D01*
X155257Y159043D02*
Y162390D01*
Y160716D02*
X156851Y162310D01*
X155257Y160716D02*
X156851Y159123D01*
Y159142D02*
Y162291D01*
X110748Y113354D02*
X113602D01*
X110748Y118079D02*
X113602D01*
X118524D02*
X121378D01*
Y113354D02*
Y118079D01*
X118524Y113354D02*
X121378D01*
X110748D02*
Y118079D01*
X115257Y114043D02*
Y117390D01*
Y115717D02*
X116850Y117310D01*
X115257Y115717D02*
X116850Y114123D01*
Y114142D02*
Y117291D01*
X270748Y143354D02*
X273603D01*
X270748Y148079D02*
X273603D01*
X278524D02*
X281378D01*
Y143354D02*
Y148079D01*
X278524Y143354D02*
X281378D01*
X270748D02*
Y148079D01*
X275257Y144043D02*
Y147390D01*
Y145717D02*
X276851Y147310D01*
X275257Y145717D02*
X276851Y144123D01*
Y144142D02*
Y147291D01*
X190748Y83354D02*
X193603D01*
X190748Y88079D02*
X193603D01*
X198524D02*
X201378D01*
Y83354D02*
Y88079D01*
X198524Y83354D02*
X201378D01*
X190748D02*
Y88079D01*
X195257Y84043D02*
Y87390D01*
Y85716D02*
X196851Y87310D01*
X195257Y85716D02*
X196851Y84123D01*
Y84142D02*
Y87291D01*
X150748Y38354D02*
X153603D01*
X150748Y43079D02*
X153603D01*
X158524D02*
X161378D01*
Y38354D02*
Y43079D01*
X158524Y38354D02*
X161378D01*
X150748D02*
Y43079D01*
X155257Y39043D02*
Y42390D01*
Y40716D02*
X156851Y42310D01*
X155257Y40716D02*
X156851Y39123D01*
Y39142D02*
Y42291D01*
X230748Y38354D02*
X233602D01*
X230748Y43079D02*
X233602D01*
X238524D02*
X241378D01*
Y38354D02*
Y43079D01*
X238524Y38354D02*
X241378D01*
X230748D02*
Y43079D01*
X235257Y39043D02*
Y42390D01*
Y40716D02*
X236851Y42310D01*
X235257Y40716D02*
X236851Y39123D01*
Y39142D02*
Y42291D01*
X230748Y203354D02*
X233602D01*
X230748Y208079D02*
X233602D01*
X238524D02*
X241378D01*
Y203354D02*
Y208079D01*
X238524Y203354D02*
X241378D01*
X230748D02*
Y208079D01*
X235257Y204043D02*
Y207390D01*
Y205716D02*
X236851Y207310D01*
X235257Y205716D02*
X236851Y204123D01*
Y204142D02*
Y207291D01*
X270748Y188354D02*
X273603D01*
X270748Y193079D02*
X273603D01*
X278524D02*
X281378D01*
Y188354D02*
Y193079D01*
X278524Y188354D02*
X281378D01*
X270748D02*
Y193079D01*
X275257Y189043D02*
Y192390D01*
Y190717D02*
X276851Y192310D01*
X275257Y190717D02*
X276851Y189123D01*
Y189142D02*
Y192291D01*
X190748Y158354D02*
X193603D01*
X190748Y163079D02*
X193603D01*
X198524D02*
X201378D01*
Y158354D02*
Y163079D01*
X198524Y158354D02*
X201378D01*
X190748D02*
Y163079D01*
X195257Y159043D02*
Y162390D01*
Y160716D02*
X196851Y162310D01*
X195257Y160716D02*
X196851Y159123D01*
Y159142D02*
Y162291D01*
X270748Y128354D02*
X273603D01*
X270748Y133079D02*
X273603D01*
X278524D02*
X281378D01*
Y128354D02*
Y133079D01*
X278524Y128354D02*
X281378D01*
X270748D02*
Y133079D01*
X275257Y129043D02*
Y132390D01*
Y130717D02*
X276851Y132310D01*
X275257Y130717D02*
X276851Y129123D01*
Y129142D02*
Y132291D01*
X110748Y68354D02*
X113602D01*
X110748Y73079D02*
X113602D01*
X118524D02*
X121378D01*
Y68354D02*
Y73079D01*
X118524Y68354D02*
X121378D01*
X110748D02*
Y73079D01*
X115257Y69043D02*
Y72390D01*
Y70717D02*
X116850Y72310D01*
X115257Y70717D02*
X116850Y69123D01*
Y69142D02*
Y72291D01*
X190748Y38354D02*
X193603D01*
X190748Y43079D02*
X193603D01*
X198524D02*
X201378D01*
Y38354D02*
Y43079D01*
X198524Y38354D02*
X201378D01*
X190748D02*
Y43079D01*
X195257Y39043D02*
Y42390D01*
Y40716D02*
X196851Y42310D01*
X195257Y40716D02*
X196851Y39123D01*
Y39142D02*
Y42291D01*
X230748Y23354D02*
X233602D01*
X230748Y28079D02*
X233602D01*
X238524D02*
X241378D01*
Y23354D02*
Y28079D01*
X238524Y23354D02*
X241378D01*
X230748D02*
Y28079D01*
X235257Y24043D02*
Y27390D01*
Y25717D02*
X236851Y27310D01*
X235257Y25717D02*
X236851Y24123D01*
Y24142D02*
Y27291D01*
X270748Y23354D02*
X273603D01*
X270748Y28079D02*
X273603D01*
X278524D02*
X281378D01*
Y23354D02*
Y28079D01*
X278524Y23354D02*
X281378D01*
X270748D02*
Y28079D01*
X275257Y24043D02*
Y27390D01*
Y25717D02*
X276851Y27310D01*
X275257Y25717D02*
X276851Y24123D01*
Y24142D02*
Y27291D01*
X270748Y173354D02*
X273603D01*
X270748Y178079D02*
X273603D01*
X278524D02*
X281378D01*
Y173354D02*
Y178079D01*
X278524Y173354D02*
X281378D01*
X270748D02*
Y178079D01*
X275257Y174043D02*
Y177390D01*
Y175716D02*
X276851Y177310D01*
X275257Y175716D02*
X276851Y174123D01*
Y174142D02*
Y177291D01*
X150748Y143354D02*
X153603D01*
X150748Y148079D02*
X153603D01*
X158524D02*
X161378D01*
Y143354D02*
Y148079D01*
X158524Y143354D02*
X161378D01*
X150748D02*
Y148079D01*
X155257Y144043D02*
Y147390D01*
Y145717D02*
X156851Y147310D01*
X155257Y145717D02*
X156851Y144123D01*
Y144142D02*
Y147291D01*
X190748Y98354D02*
X193603D01*
X190748Y103079D02*
X193603D01*
X198524D02*
X201378D01*
Y98354D02*
Y103079D01*
X198524Y98354D02*
X201378D01*
X190748D02*
Y103079D01*
X195257Y99043D02*
Y102390D01*
Y100716D02*
X196851Y102310D01*
X195257Y100716D02*
X196851Y99123D01*
Y99142D02*
Y102291D01*
X270748Y98354D02*
X273603D01*
X270748Y103079D02*
X273603D01*
X278524D02*
X281378D01*
Y98354D02*
Y103079D01*
X278524Y98354D02*
X281378D01*
X270748D02*
Y103079D01*
X275257Y99043D02*
Y102390D01*
Y100716D02*
X276851Y102310D01*
X275257Y100716D02*
X276851Y99123D01*
Y99142D02*
Y102291D01*
X190748Y68354D02*
X193603D01*
X190748Y73079D02*
X193603D01*
X198524D02*
X201378D01*
Y68354D02*
Y73079D01*
X198524Y68354D02*
X201378D01*
X190748D02*
Y73079D01*
X195257Y69043D02*
Y72390D01*
Y70717D02*
X196851Y72310D01*
X195257Y70717D02*
X196851Y69123D01*
Y69142D02*
Y72291D01*
X150748Y23354D02*
X153603D01*
X150748Y28079D02*
X153603D01*
X158524D02*
X161378D01*
Y23354D02*
Y28079D01*
X158524Y23354D02*
X161378D01*
X150748D02*
Y28079D01*
X155257Y24043D02*
Y27390D01*
Y25717D02*
X156851Y27310D01*
X155257Y25717D02*
X156851Y24123D01*
Y24142D02*
Y27291D01*
X270748Y68354D02*
X273603D01*
X270748Y73079D02*
X273603D01*
X278524D02*
X281378D01*
Y68354D02*
Y73079D01*
X278524Y68354D02*
X281378D01*
X270748D02*
Y73079D01*
X275257Y69043D02*
Y72390D01*
Y70717D02*
X276851Y72310D01*
X275257Y70717D02*
X276851Y69123D01*
Y69142D02*
Y72291D01*
X270748Y53354D02*
X273603D01*
X270748Y58079D02*
X273603D01*
X278524D02*
X281378D01*
Y53354D02*
Y58079D01*
X278524Y53354D02*
X281378D01*
X270748D02*
Y58079D01*
X275257Y54043D02*
Y57390D01*
Y55717D02*
X276851Y57310D01*
X275257Y55717D02*
X276851Y54123D01*
Y54142D02*
Y57291D01*
X230748Y188354D02*
X233602D01*
X230748Y193079D02*
X233602D01*
X238524D02*
X241378D01*
Y188354D02*
Y193079D01*
X238524Y188354D02*
X241378D01*
X230748D02*
Y193079D01*
X235257Y189043D02*
Y192390D01*
Y190717D02*
X236851Y192310D01*
X235257Y190717D02*
X236851Y189123D01*
Y189142D02*
Y192291D01*
X270748Y158354D02*
X273603D01*
X270748Y163079D02*
X273603D01*
X278524D02*
X281378D01*
Y158354D02*
Y163079D01*
X278524Y158354D02*
X281378D01*
X270748D02*
Y163079D01*
X275257Y159043D02*
Y162390D01*
Y160716D02*
X276851Y162310D01*
X275257Y160716D02*
X276851Y159123D01*
Y159142D02*
Y162291D01*
X190748Y113354D02*
X193603D01*
X190748Y118079D02*
X193603D01*
X198524D02*
X201378D01*
Y113354D02*
Y118079D01*
X198524Y113354D02*
X201378D01*
X190748D02*
Y118079D01*
X195257Y114043D02*
Y117390D01*
Y115717D02*
X196851Y117310D01*
X195257Y115717D02*
X196851Y114123D01*
Y114142D02*
Y117291D01*
X270748Y113354D02*
X273603D01*
X270748Y118079D02*
X273603D01*
X278524D02*
X281378D01*
Y113354D02*
Y118079D01*
X278524Y113354D02*
X281378D01*
X270748D02*
Y118079D01*
X275257Y114043D02*
Y117390D01*
Y115717D02*
X276851Y117310D01*
X275257Y115717D02*
X276851Y114123D01*
Y114142D02*
Y117291D01*
X110748Y23354D02*
X113602D01*
X110748Y28079D02*
X113602D01*
X118524D02*
X121378D01*
Y23354D02*
Y28079D01*
X118524Y23354D02*
X121378D01*
X110748D02*
Y28079D01*
X115257Y24043D02*
Y27390D01*
Y25717D02*
X116850Y27310D01*
X115257Y25717D02*
X116850Y24123D01*
Y24142D02*
Y27291D01*
X270748Y83354D02*
X273603D01*
X270748Y88079D02*
X273603D01*
X278524D02*
X281378D01*
Y83354D02*
Y88079D01*
X278524Y83354D02*
X281378D01*
X270748D02*
Y88079D01*
X275257Y84043D02*
Y87390D01*
Y85716D02*
X276851Y87310D01*
X275257Y85716D02*
X276851Y84123D01*
Y84142D02*
Y87291D01*
X270748Y38354D02*
X273603D01*
X270748Y43079D02*
X273603D01*
X278524D02*
X281378D01*
Y38354D02*
Y43079D01*
X278524Y38354D02*
X281378D01*
X270748D02*
Y43079D01*
X275257Y39043D02*
Y42390D01*
Y40716D02*
X276851Y42310D01*
X275257Y40716D02*
X276851Y39123D01*
Y39142D02*
Y42291D01*
X110748Y203354D02*
X113602D01*
X110748Y208079D02*
X113602D01*
X118524D02*
X121378D01*
Y203354D02*
Y208079D01*
X118524Y203354D02*
X121378D01*
X110748D02*
Y208079D01*
X115257Y204043D02*
Y207390D01*
Y205716D02*
X116850Y207310D01*
X115257Y205716D02*
X116850Y204123D01*
Y204142D02*
Y207291D01*
X150748Y218354D02*
X153603D01*
X150748Y223079D02*
X153603D01*
X158524D02*
X161378D01*
Y218354D02*
Y223079D01*
X158524Y218354D02*
X161378D01*
X150748D02*
Y223079D01*
X155257Y219043D02*
Y222390D01*
Y220717D02*
X156851Y222310D01*
X155257Y220717D02*
X156851Y219123D01*
Y219142D02*
Y222291D01*
X150748Y233354D02*
X153603D01*
X150748Y238079D02*
X153603D01*
X158524D02*
X161378D01*
Y233354D02*
Y238079D01*
X158524Y233354D02*
X161378D01*
X150748D02*
Y238079D01*
X155257Y234043D02*
Y237390D01*
Y235717D02*
X156851Y237310D01*
X155257Y235717D02*
X156851Y234123D01*
Y234142D02*
Y237291D01*
X150748Y203354D02*
X153603D01*
X150748Y208079D02*
X153603D01*
X158524D02*
X161378D01*
Y203354D02*
Y208079D01*
X158524Y203354D02*
X161378D01*
X150748D02*
Y208079D01*
X155257Y204043D02*
Y207390D01*
Y205716D02*
X156851Y207310D01*
X155257Y205716D02*
X156851Y204123D01*
Y204142D02*
Y207291D01*
X110748Y188354D02*
X113602D01*
X110748Y193079D02*
X113602D01*
X118524D02*
X121378D01*
Y188354D02*
Y193079D01*
X118524Y188354D02*
X121378D01*
X110748D02*
Y193079D01*
X115257Y189043D02*
Y192390D01*
Y190717D02*
X116850Y192310D01*
X115257Y190717D02*
X116850Y189123D01*
Y189142D02*
Y192291D01*
X150748Y188354D02*
X153603D01*
X150748Y193079D02*
X153603D01*
X158524D02*
X161378D01*
Y188354D02*
Y193079D01*
X158524Y188354D02*
X161378D01*
X150748D02*
Y193079D01*
X155257Y189043D02*
Y192390D01*
Y190717D02*
X156851Y192310D01*
X155257Y190717D02*
X156851Y189123D01*
Y189142D02*
Y192291D01*
D14*
X38667Y44071D02*
Y47471D01*
X33667Y44071D02*
Y47471D01*
X38667D01*
Y37471D02*
Y40871D01*
X33667Y37471D02*
Y40871D01*
Y37471D02*
X38667D01*
X33677Y72003D02*
Y75403D01*
X38677Y72003D02*
Y75403D01*
X33677Y72003D02*
X38677D01*
X33677Y78603D02*
Y82003D01*
X38677Y78603D02*
Y82003D01*
X33677D02*
X38677D01*
X46637Y43827D02*
Y47227D01*
X41637Y43827D02*
Y47227D01*
X46637D01*
Y37227D02*
Y40627D01*
X41637Y37227D02*
Y40627D01*
Y37227D02*
X46637D01*
X41537Y72217D02*
Y75617D01*
X46537Y72217D02*
Y75617D01*
X41537Y72217D02*
X46537D01*
X41537Y78817D02*
Y82217D01*
X46537Y78817D02*
Y82217D01*
X41537D02*
X46537D01*
X62461Y414532D02*
X75461D01*
Y407531D02*
Y414532D01*
Y395532D02*
Y402531D01*
X62461Y395532D02*
X75461D01*
X62461D02*
Y402531D01*
Y407531D02*
Y414532D01*
X42174Y100743D02*
X49174D01*
X54174D02*
X61174D01*
Y113743D01*
X54174D02*
X61174D01*
X42174D02*
X49174D01*
X42174Y100743D02*
Y113743D01*
X17632Y122303D02*
X21032D01*
X17632Y127303D02*
X21032D01*
Y122303D02*
Y127303D01*
X11032Y122303D02*
X14432D01*
X11032Y127303D02*
X14432D01*
X11032Y122303D02*
Y127303D01*
X20982Y96733D02*
X27982D01*
X32982D02*
X39982D01*
Y109733D01*
X32982D02*
X39982D01*
X20982D02*
X27982D01*
X20982Y96733D02*
Y109733D01*
X10461Y386531D02*
X23461D01*
Y379532D02*
Y386531D01*
Y367531D02*
Y374532D01*
X10461Y367531D02*
X23461D01*
X10461D02*
Y374532D01*
Y379532D02*
Y386531D01*
X11002Y121713D02*
X14402D01*
X11002Y116713D02*
X14402D01*
X11002D02*
Y121713D01*
X17602D02*
X21002D01*
X17602Y116713D02*
X21002D01*
Y121713D01*
X31278Y255284D02*
X34678D01*
X31278Y250284D02*
X34678D01*
X31278D02*
Y255284D01*
X37878D02*
X41278D01*
X37878Y250284D02*
X41278D01*
Y255284D01*
X5298Y255227D02*
X8698D01*
X5298Y250227D02*
X8698D01*
X5298D02*
Y255227D01*
X11898D02*
X15298D01*
X11898Y250227D02*
X15298D01*
Y255227D01*
X70984Y309866D02*
Y313266D01*
X75984Y309866D02*
Y313266D01*
X70984Y309866D02*
X75984D01*
X70984Y316466D02*
Y319866D01*
X75984Y316466D02*
Y319866D01*
X70984D02*
X75984D01*
X60744Y309866D02*
Y313266D01*
X65744Y309866D02*
Y313266D01*
X60744Y309866D02*
X65744D01*
X60744Y316466D02*
Y319866D01*
X65744Y316466D02*
Y319866D01*
X60744D02*
X65744D01*
X11898Y261334D02*
X15298D01*
X11898Y266334D02*
X15298D01*
Y261334D02*
Y266334D01*
X5298Y261334D02*
X8698D01*
X5298Y266334D02*
X8698D01*
X5298Y261334D02*
Y266334D01*
Y260781D02*
X8698D01*
X5298Y255781D02*
X8698D01*
X5298D02*
Y260781D01*
X11898D02*
X15298D01*
X11898Y255781D02*
X15298D01*
Y260781D01*
X11898Y244674D02*
X15298D01*
X11898Y249674D02*
X15298D01*
Y244674D02*
Y249674D01*
X5298Y244674D02*
X8698D01*
X5298Y249674D02*
X8698D01*
X5298Y244674D02*
Y249674D01*
X464663Y23216D02*
X468063D01*
X464663Y28216D02*
X468063D01*
Y23216D02*
Y28216D01*
X458063Y23216D02*
X461463D01*
X458063Y28216D02*
X461463D01*
X458063Y23216D02*
Y28216D01*
X464663Y38217D02*
X468063D01*
X464663Y43216D02*
X468063D01*
Y38217D02*
Y43216D01*
X458063Y38217D02*
X461463D01*
X458063Y43216D02*
X461463D01*
X458063Y38217D02*
Y43216D01*
X464663Y53216D02*
X468063D01*
X464663Y58217D02*
X468063D01*
Y53216D02*
Y58217D01*
X458063Y53216D02*
X461463D01*
X458063Y58217D02*
X461463D01*
X458063Y53216D02*
Y58217D01*
X864663Y53216D02*
X868063D01*
X864663Y58217D02*
X868063D01*
Y53216D02*
Y58217D01*
X858063Y53216D02*
X861463D01*
X858063Y58217D02*
X861463D01*
X858063Y53216D02*
Y58217D01*
X864663Y38217D02*
X868063D01*
X864663Y43216D02*
X868063D01*
Y38217D02*
Y43216D01*
X858063Y38217D02*
X861463D01*
X858063Y43216D02*
X861463D01*
X858063Y38217D02*
Y43216D01*
X864663Y23216D02*
X868063D01*
X864663Y28216D02*
X868063D01*
Y23216D02*
Y28216D01*
X858063Y23216D02*
X861463D01*
X858063Y28216D02*
X861463D01*
X858063Y23216D02*
Y28216D01*
X664663Y53216D02*
X668063D01*
X664663Y58217D02*
X668063D01*
Y53216D02*
Y58217D01*
X658063Y53216D02*
X661463D01*
X658063Y58217D02*
X661463D01*
X658063Y53216D02*
Y58217D01*
X664663Y38217D02*
X668063D01*
X664663Y43216D02*
X668063D01*
Y38217D02*
Y43216D01*
X658063Y38217D02*
X661463D01*
X658063Y43216D02*
X661463D01*
X658063Y38217D02*
Y43216D01*
X664663Y23216D02*
X668063D01*
X664663Y28216D02*
X668063D01*
Y23216D02*
Y28216D01*
X658063Y23216D02*
X661463D01*
X658063Y28216D02*
X661463D01*
X658063Y23216D02*
Y28216D01*
X864663Y68217D02*
X868063D01*
X864663Y73216D02*
X868063D01*
Y68217D02*
Y73216D01*
X858063Y68217D02*
X861463D01*
X858063Y73216D02*
X861463D01*
X858063Y68217D02*
Y73216D01*
X864663Y83217D02*
X868063D01*
X864663Y88217D02*
X868063D01*
Y83217D02*
Y88217D01*
X858063Y83217D02*
X861463D01*
X858063Y88217D02*
X861463D01*
X858063Y83217D02*
Y88217D01*
X824663Y23216D02*
X828063D01*
X824663Y28216D02*
X828063D01*
Y23216D02*
Y28216D01*
X818063Y23216D02*
X821463D01*
X818063Y28216D02*
X821463D01*
X818063Y23216D02*
Y28216D01*
X824663Y38217D02*
X828063D01*
X824663Y43216D02*
X828063D01*
Y38217D02*
Y43216D01*
X818063Y38217D02*
X821463D01*
X818063Y43216D02*
X821463D01*
X818063Y38217D02*
Y43216D01*
X824663Y53216D02*
X828063D01*
X824663Y58217D02*
X828063D01*
Y53216D02*
Y58217D01*
X818063Y53216D02*
X821463D01*
X818063Y58217D02*
X821463D01*
X818063Y53216D02*
Y58217D01*
X824663Y68217D02*
X828063D01*
X824663Y73216D02*
X828063D01*
Y68217D02*
Y73216D01*
X818063Y68217D02*
X821463D01*
X818063Y73216D02*
X821463D01*
X818063Y68217D02*
Y73216D01*
X824663Y83217D02*
X828063D01*
X824663Y88217D02*
X828063D01*
Y83217D02*
Y88217D01*
X818063Y83217D02*
X821463D01*
X818063Y88217D02*
X821463D01*
X818063Y83217D02*
Y88217D01*
X784663Y23216D02*
X788063D01*
X784663Y28216D02*
X788063D01*
Y23216D02*
Y28216D01*
X778063Y23216D02*
X781463D01*
X778063Y28216D02*
X781463D01*
X778063Y23216D02*
Y28216D01*
X664663Y68217D02*
X668063D01*
X664663Y73216D02*
X668063D01*
Y68217D02*
Y73216D01*
X658063Y68217D02*
X661463D01*
X658063Y73216D02*
X661463D01*
X658063Y68217D02*
Y73216D01*
X664663Y83217D02*
X668063D01*
X664663Y88217D02*
X668063D01*
Y83217D02*
Y88217D01*
X658063Y83217D02*
X661463D01*
X658063Y88217D02*
X661463D01*
X658063Y83217D02*
Y88217D01*
X624663Y23216D02*
X628063D01*
X624663Y28216D02*
X628063D01*
Y23216D02*
Y28216D01*
X618063Y23216D02*
X621463D01*
X618063Y28216D02*
X621463D01*
X618063Y23216D02*
Y28216D01*
X624663Y38217D02*
X628063D01*
X624663Y43216D02*
X628063D01*
Y38217D02*
Y43216D01*
X618063Y38217D02*
X621463D01*
X618063Y43216D02*
X621463D01*
X618063Y38217D02*
Y43216D01*
X624663Y53216D02*
X628063D01*
X624663Y58217D02*
X628063D01*
Y53216D02*
Y58217D01*
X618063Y53216D02*
X621463D01*
X618063Y58217D02*
X621463D01*
X618063Y53216D02*
Y58217D01*
X624663Y68217D02*
X628063D01*
X624663Y73216D02*
X628063D01*
Y68217D02*
Y73216D01*
X618063Y68217D02*
X621463D01*
X618063Y73216D02*
X621463D01*
X618063Y68217D02*
Y73216D01*
X624663Y83217D02*
X628063D01*
X624663Y88217D02*
X628063D01*
Y83217D02*
Y88217D01*
X618063Y83217D02*
X621463D01*
X618063Y88217D02*
X621463D01*
X618063Y83217D02*
Y88217D01*
X584663Y23216D02*
X588063D01*
X584663Y28216D02*
X588063D01*
Y23216D02*
Y28216D01*
X578063Y23216D02*
X581463D01*
X578063Y28216D02*
X581463D01*
X578063Y23216D02*
Y28216D01*
X464663Y68217D02*
X468063D01*
X464663Y73216D02*
X468063D01*
Y68217D02*
Y73216D01*
X458063Y68217D02*
X461463D01*
X458063Y73216D02*
X461463D01*
X458063Y68217D02*
Y73216D01*
X464663Y83217D02*
X468063D01*
X464663Y88217D02*
X468063D01*
Y83217D02*
Y88217D01*
X458063Y83217D02*
X461463D01*
X458063Y88217D02*
X461463D01*
X458063Y83217D02*
Y88217D01*
X424663Y23216D02*
X428063D01*
X424663Y28216D02*
X428063D01*
Y23216D02*
Y28216D01*
X418063Y23216D02*
X421463D01*
X418063Y28216D02*
X421463D01*
X418063Y23216D02*
Y28216D01*
X424663Y38217D02*
X428063D01*
X424663Y43216D02*
X428063D01*
Y38217D02*
Y43216D01*
X418063Y38217D02*
X421463D01*
X418063Y43216D02*
X421463D01*
X418063Y38217D02*
Y43216D01*
X424663Y53216D02*
X428063D01*
X424663Y58217D02*
X428063D01*
Y53216D02*
Y58217D01*
X418063Y53216D02*
X421463D01*
X418063Y58217D02*
X421463D01*
X418063Y53216D02*
Y58217D01*
X424663Y68217D02*
X428063D01*
X424663Y73216D02*
X428063D01*
Y68217D02*
Y73216D01*
X418063Y68217D02*
X421463D01*
X418063Y73216D02*
X421463D01*
X418063Y68217D02*
Y73216D01*
X424663Y83217D02*
X428063D01*
X424663Y88217D02*
X428063D01*
Y83217D02*
Y88217D01*
X418063Y83217D02*
X421463D01*
X418063Y88217D02*
X421463D01*
X418063Y83217D02*
Y88217D01*
X384663Y23216D02*
X388063D01*
X384663Y28216D02*
X388063D01*
Y23216D02*
Y28216D01*
X378063Y23216D02*
X381463D01*
X378063Y28216D02*
X381463D01*
X378063Y23216D02*
Y28216D01*
X744663Y23216D02*
X748063D01*
X744663Y28216D02*
X748063D01*
Y23216D02*
Y28216D01*
X738063Y23216D02*
X741463D01*
X738063Y28216D02*
X741463D01*
X738063Y23216D02*
Y28216D01*
X704663Y23216D02*
X708063D01*
X704663Y28216D02*
X708063D01*
Y23216D02*
Y28216D01*
X698063Y23216D02*
X701463D01*
X698063Y28216D02*
X701463D01*
X698063Y23216D02*
Y28216D01*
X784663Y38217D02*
X788063D01*
X784663Y43216D02*
X788063D01*
Y38217D02*
Y43216D01*
X778063Y38217D02*
X781463D01*
X778063Y43216D02*
X781463D01*
X778063Y38217D02*
Y43216D01*
X744663Y38217D02*
X748063D01*
X744663Y43216D02*
X748063D01*
Y38217D02*
Y43216D01*
X738063Y38217D02*
X741463D01*
X738063Y43216D02*
X741463D01*
X738063Y38217D02*
Y43216D01*
X704663Y38217D02*
X708063D01*
X704663Y43216D02*
X708063D01*
Y38217D02*
Y43216D01*
X698063Y38217D02*
X701463D01*
X698063Y43216D02*
X701463D01*
X698063Y38217D02*
Y43216D01*
X784663Y53216D02*
X788063D01*
X784663Y58217D02*
X788063D01*
Y53216D02*
Y58217D01*
X778063Y53216D02*
X781463D01*
X778063Y58217D02*
X781463D01*
X778063Y53216D02*
Y58217D01*
X744663Y53216D02*
X748063D01*
X744663Y58217D02*
X748063D01*
Y53216D02*
Y58217D01*
X738063Y53216D02*
X741463D01*
X738063Y58217D02*
X741463D01*
X738063Y53216D02*
Y58217D01*
X704663Y53216D02*
X708063D01*
X704663Y58217D02*
X708063D01*
Y53216D02*
Y58217D01*
X698063Y53216D02*
X701463D01*
X698063Y58217D02*
X701463D01*
X698063Y53216D02*
Y58217D01*
X544663Y23216D02*
X548063D01*
X544663Y28216D02*
X548063D01*
Y23216D02*
Y28216D01*
X538063Y23216D02*
X541463D01*
X538063Y28216D02*
X541463D01*
X538063Y23216D02*
Y28216D01*
X504663Y23216D02*
X508063D01*
X504663Y28216D02*
X508063D01*
Y23216D02*
Y28216D01*
X498063Y23216D02*
X501463D01*
X498063Y28216D02*
X501463D01*
X498063Y23216D02*
Y28216D01*
X584663Y38217D02*
X588063D01*
X584663Y43216D02*
X588063D01*
Y38217D02*
Y43216D01*
X578063Y38217D02*
X581463D01*
X578063Y43216D02*
X581463D01*
X578063Y38217D02*
Y43216D01*
X544663Y38217D02*
X548063D01*
X544663Y43216D02*
X548063D01*
Y38217D02*
Y43216D01*
X538063Y38217D02*
X541463D01*
X538063Y43216D02*
X541463D01*
X538063Y38217D02*
Y43216D01*
X504663Y38217D02*
X508063D01*
X504663Y43216D02*
X508063D01*
Y38217D02*
Y43216D01*
X498063Y38217D02*
X501463D01*
X498063Y43216D02*
X501463D01*
X498063Y38217D02*
Y43216D01*
X584663Y53216D02*
X588063D01*
X584663Y58217D02*
X588063D01*
Y53216D02*
Y58217D01*
X578063Y53216D02*
X581463D01*
X578063Y58217D02*
X581463D01*
X578063Y53216D02*
Y58217D01*
X544663Y53216D02*
X548063D01*
X544663Y58217D02*
X548063D01*
Y53216D02*
Y58217D01*
X538063Y53216D02*
X541463D01*
X538063Y58217D02*
X541463D01*
X538063Y53216D02*
Y58217D01*
X504663Y53216D02*
X508063D01*
X504663Y58217D02*
X508063D01*
Y53216D02*
Y58217D01*
X498063Y53216D02*
X501463D01*
X498063Y58217D02*
X501463D01*
X498063Y53216D02*
Y58217D01*
X344663Y23216D02*
X348063D01*
X344663Y28216D02*
X348063D01*
Y23216D02*
Y28216D01*
X338063Y23216D02*
X341463D01*
X338063Y28216D02*
X341463D01*
X338063Y23216D02*
Y28216D01*
X304663Y23216D02*
X308063D01*
X304663Y28216D02*
X308063D01*
Y23216D02*
Y28216D01*
X298063Y23216D02*
X301463D01*
X298063Y28216D02*
X301463D01*
X298063Y23216D02*
Y28216D01*
X384663Y38217D02*
X388063D01*
X384663Y43216D02*
X388063D01*
Y38217D02*
Y43216D01*
X378063Y38217D02*
X381463D01*
X378063Y43216D02*
X381463D01*
X378063Y38217D02*
Y43216D01*
X344663Y38217D02*
X348063D01*
X344663Y43216D02*
X348063D01*
Y38217D02*
Y43216D01*
X338063Y38217D02*
X341463D01*
X338063Y43216D02*
X341463D01*
X338063Y38217D02*
Y43216D01*
X304663Y38217D02*
X308063D01*
X304663Y43216D02*
X308063D01*
Y38217D02*
Y43216D01*
X298063Y38217D02*
X301463D01*
X298063Y43216D02*
X301463D01*
X298063Y38217D02*
Y43216D01*
X384663Y53216D02*
X388063D01*
X384663Y58217D02*
X388063D01*
Y53216D02*
Y58217D01*
X378063Y53216D02*
X381463D01*
X378063Y58217D02*
X381463D01*
X378063Y53216D02*
Y58217D01*
X344663Y53216D02*
X348063D01*
X344663Y58217D02*
X348063D01*
Y53216D02*
Y58217D01*
X338063Y53216D02*
X341463D01*
X338063Y58217D02*
X341463D01*
X338063Y53216D02*
Y58217D01*
X304663Y53216D02*
X308063D01*
X304663Y58217D02*
X308063D01*
Y53216D02*
Y58217D01*
X298063Y53216D02*
X301463D01*
X298063Y58217D02*
X301463D01*
X298063Y53216D02*
Y58217D01*
X784663Y68217D02*
X788063D01*
X784663Y73216D02*
X788063D01*
Y68217D02*
Y73216D01*
X778063Y68217D02*
X781463D01*
X778063Y73216D02*
X781463D01*
X778063Y68217D02*
Y73216D01*
X744663Y68217D02*
X748063D01*
X744663Y73216D02*
X748063D01*
Y68217D02*
Y73216D01*
X738063Y68217D02*
X741463D01*
X738063Y73216D02*
X741463D01*
X738063Y68217D02*
Y73216D01*
X704663Y68217D02*
X708063D01*
X704663Y73216D02*
X708063D01*
Y68217D02*
Y73216D01*
X698063Y68217D02*
X701463D01*
X698063Y73216D02*
X701463D01*
X698063Y68217D02*
Y73216D01*
X784663Y83217D02*
X788063D01*
X784663Y88217D02*
X788063D01*
Y83217D02*
Y88217D01*
X778063Y83217D02*
X781463D01*
X778063Y88217D02*
X781463D01*
X778063Y83217D02*
Y88217D01*
X744663Y83217D02*
X748063D01*
X744663Y88217D02*
X748063D01*
Y83217D02*
Y88217D01*
X738063Y83217D02*
X741463D01*
X738063Y88217D02*
X741463D01*
X738063Y83217D02*
Y88217D01*
X704663Y83217D02*
X708063D01*
X704663Y88217D02*
X708063D01*
Y83217D02*
Y88217D01*
X698063Y83217D02*
X701463D01*
X698063Y88217D02*
X701463D01*
X698063Y83217D02*
Y88217D01*
X744663Y98216D02*
X748063D01*
X744663Y103217D02*
X748063D01*
Y98216D02*
Y103217D01*
X738063Y98216D02*
X741463D01*
X738063Y103217D02*
X741463D01*
X738063Y98216D02*
Y103217D01*
X704663Y98216D02*
X708063D01*
X704663Y103217D02*
X708063D01*
Y98216D02*
Y103217D01*
X698063Y98216D02*
X701463D01*
X698063Y103217D02*
X701463D01*
X698063Y98216D02*
Y103217D01*
X584663Y68217D02*
X588063D01*
X584663Y73216D02*
X588063D01*
Y68217D02*
Y73216D01*
X578063Y68217D02*
X581463D01*
X578063Y73216D02*
X581463D01*
X578063Y68217D02*
Y73216D01*
X544663Y68217D02*
X548063D01*
X544663Y73216D02*
X548063D01*
Y68217D02*
Y73216D01*
X538063Y68217D02*
X541463D01*
X538063Y73216D02*
X541463D01*
X538063Y68217D02*
Y73216D01*
X504663Y68217D02*
X508063D01*
X504663Y73216D02*
X508063D01*
Y68217D02*
Y73216D01*
X498063Y68217D02*
X501463D01*
X498063Y73216D02*
X501463D01*
X498063Y68217D02*
Y73216D01*
X584663Y83217D02*
X588063D01*
X584663Y88217D02*
X588063D01*
Y83217D02*
Y88217D01*
X578063Y83217D02*
X581463D01*
X578063Y88217D02*
X581463D01*
X578063Y83217D02*
Y88217D01*
X544663Y83217D02*
X548063D01*
X544663Y88217D02*
X548063D01*
Y83217D02*
Y88217D01*
X538063Y83217D02*
X541463D01*
X538063Y88217D02*
X541463D01*
X538063Y83217D02*
Y88217D01*
X504663Y83217D02*
X508063D01*
X504663Y88217D02*
X508063D01*
Y83217D02*
Y88217D01*
X498063Y83217D02*
X501463D01*
X498063Y88217D02*
X501463D01*
X498063Y83217D02*
Y88217D01*
X544663Y98216D02*
X548063D01*
X544663Y103217D02*
X548063D01*
Y98216D02*
Y103217D01*
X538063Y98216D02*
X541463D01*
X538063Y103217D02*
X541463D01*
X538063Y98216D02*
Y103217D01*
X504663Y98216D02*
X508063D01*
X504663Y103217D02*
X508063D01*
Y98216D02*
Y103217D01*
X498063Y98216D02*
X501463D01*
X498063Y103217D02*
X501463D01*
X498063Y98216D02*
Y103217D01*
X384663Y68217D02*
X388063D01*
X384663Y73216D02*
X388063D01*
Y68217D02*
Y73216D01*
X378063Y68217D02*
X381463D01*
X378063Y73216D02*
X381463D01*
X378063Y68217D02*
Y73216D01*
X344663Y68217D02*
X348063D01*
X344663Y73216D02*
X348063D01*
Y68217D02*
Y73216D01*
X338063Y68217D02*
X341463D01*
X338063Y73216D02*
X341463D01*
X338063Y68217D02*
Y73216D01*
X304663Y68217D02*
X308063D01*
X304663Y73216D02*
X308063D01*
Y68217D02*
Y73216D01*
X298063Y68217D02*
X301463D01*
X298063Y73216D02*
X301463D01*
X298063Y68217D02*
Y73216D01*
X384663Y83217D02*
X388063D01*
X384663Y88217D02*
X388063D01*
Y83217D02*
Y88217D01*
X378063Y83217D02*
X381463D01*
X378063Y88217D02*
X381463D01*
X378063Y83217D02*
Y88217D01*
X344663Y83217D02*
X348063D01*
X344663Y88217D02*
X348063D01*
Y83217D02*
Y88217D01*
X338063Y83217D02*
X341463D01*
X338063Y88217D02*
X341463D01*
X338063Y83217D02*
Y88217D01*
X304663Y83217D02*
X308063D01*
X304663Y88217D02*
X308063D01*
Y83217D02*
Y88217D01*
X298063Y83217D02*
X301463D01*
X298063Y88217D02*
X301463D01*
X298063Y83217D02*
Y88217D01*
X344663Y98216D02*
X348063D01*
X344663Y103217D02*
X348063D01*
Y98216D02*
Y103217D01*
X338063Y98216D02*
X341463D01*
X338063Y103217D02*
X341463D01*
X338063Y98216D02*
Y103217D01*
X304663Y98216D02*
X308063D01*
X304663Y103217D02*
X308063D01*
Y98216D02*
Y103217D01*
X298063Y98216D02*
X301463D01*
X298063Y103217D02*
X301463D01*
X298063Y98216D02*
Y103217D01*
X864663Y98216D02*
X868063D01*
X864663Y103217D02*
X868063D01*
Y98216D02*
Y103217D01*
X858063Y98216D02*
X861463D01*
X858063Y103217D02*
X861463D01*
X858063Y98216D02*
Y103217D01*
X864663Y113216D02*
X868063D01*
X864663Y118217D02*
X868063D01*
Y113216D02*
Y118217D01*
X858063Y113216D02*
X861463D01*
X858063Y118217D02*
X861463D01*
X858063Y113216D02*
Y118217D01*
X864663Y128217D02*
X868063D01*
X864663Y133217D02*
X868063D01*
Y128217D02*
Y133217D01*
X858063Y128217D02*
X861463D01*
X858063Y133217D02*
X861463D01*
X858063Y128217D02*
Y133217D01*
X864663Y143217D02*
X868063D01*
X864663Y148216D02*
X868063D01*
Y143217D02*
Y148216D01*
X858063Y143217D02*
X861463D01*
X858063Y148216D02*
X861463D01*
X858063Y143217D02*
Y148216D01*
X824663Y98216D02*
X828063D01*
X824663Y103217D02*
X828063D01*
Y98216D02*
Y103217D01*
X818063Y98216D02*
X821463D01*
X818063Y103217D02*
X821463D01*
X818063Y98216D02*
Y103217D01*
X824663Y113216D02*
X828063D01*
X824663Y118217D02*
X828063D01*
Y113216D02*
Y118217D01*
X818063Y113216D02*
X821463D01*
X818063Y118217D02*
X821463D01*
X818063Y113216D02*
Y118217D01*
X824663Y143217D02*
X828063D01*
X824663Y148216D02*
X828063D01*
Y143217D02*
Y148216D01*
X818063Y143217D02*
X821463D01*
X818063Y148216D02*
X821463D01*
X818063Y143217D02*
Y148216D01*
X824663Y128217D02*
X828063D01*
X824663Y133217D02*
X828063D01*
Y128217D02*
Y133217D01*
X818063Y128217D02*
X821463D01*
X818063Y133217D02*
X821463D01*
X818063Y128217D02*
Y133217D01*
X664663Y98216D02*
X668063D01*
X664663Y103217D02*
X668063D01*
Y98216D02*
Y103217D01*
X658063Y98216D02*
X661463D01*
X658063Y103217D02*
X661463D01*
X658063Y98216D02*
Y103217D01*
X664663Y113216D02*
X668063D01*
X664663Y118217D02*
X668063D01*
Y113216D02*
Y118217D01*
X658063Y113216D02*
X661463D01*
X658063Y118217D02*
X661463D01*
X658063Y113216D02*
Y118217D01*
X664663Y128217D02*
X668063D01*
X664663Y133217D02*
X668063D01*
Y128217D02*
Y133217D01*
X658063Y128217D02*
X661463D01*
X658063Y133217D02*
X661463D01*
X658063Y128217D02*
Y133217D01*
X664663Y143217D02*
X668063D01*
X664663Y148216D02*
X668063D01*
Y143217D02*
Y148216D01*
X658063Y143217D02*
X661463D01*
X658063Y148216D02*
X661463D01*
X658063Y143217D02*
Y148216D01*
X624663Y98216D02*
X628063D01*
X624663Y103217D02*
X628063D01*
Y98216D02*
Y103217D01*
X618063Y98216D02*
X621463D01*
X618063Y103217D02*
X621463D01*
X618063Y98216D02*
Y103217D01*
X624663Y113216D02*
X628063D01*
X624663Y118217D02*
X628063D01*
Y113216D02*
Y118217D01*
X618063Y113216D02*
X621463D01*
X618063Y118217D02*
X621463D01*
X618063Y113216D02*
Y118217D01*
X624663Y143217D02*
X628063D01*
X624663Y148216D02*
X628063D01*
Y143217D02*
Y148216D01*
X618063Y143217D02*
X621463D01*
X618063Y148216D02*
X621463D01*
X618063Y143217D02*
Y148216D01*
X624663Y128217D02*
X628063D01*
X624663Y133217D02*
X628063D01*
Y128217D02*
Y133217D01*
X618063Y128217D02*
X621463D01*
X618063Y133217D02*
X621463D01*
X618063Y128217D02*
Y133217D01*
X464663Y98216D02*
X468063D01*
X464663Y103217D02*
X468063D01*
Y98216D02*
Y103217D01*
X458063Y98216D02*
X461463D01*
X458063Y103217D02*
X461463D01*
X458063Y98216D02*
Y103217D01*
X464663Y113216D02*
X468063D01*
X464663Y118217D02*
X468063D01*
Y113216D02*
Y118217D01*
X458063Y113216D02*
X461463D01*
X458063Y118217D02*
X461463D01*
X458063Y113216D02*
Y118217D01*
X464663Y128217D02*
X468063D01*
X464663Y133217D02*
X468063D01*
Y128217D02*
Y133217D01*
X458063Y128217D02*
X461463D01*
X458063Y133217D02*
X461463D01*
X458063Y128217D02*
Y133217D01*
X464663Y143217D02*
X468063D01*
X464663Y148216D02*
X468063D01*
Y143217D02*
Y148216D01*
X458063Y143217D02*
X461463D01*
X458063Y148216D02*
X461463D01*
X458063Y143217D02*
Y148216D01*
X424663Y98216D02*
X428063D01*
X424663Y103217D02*
X428063D01*
Y98216D02*
Y103217D01*
X418063Y98216D02*
X421463D01*
X418063Y103217D02*
X421463D01*
X418063Y98216D02*
Y103217D01*
X424663Y113216D02*
X428063D01*
X424663Y118217D02*
X428063D01*
Y113216D02*
Y118217D01*
X418063Y113216D02*
X421463D01*
X418063Y118217D02*
X421463D01*
X418063Y113216D02*
Y118217D01*
X424663Y143217D02*
X428063D01*
X424663Y148216D02*
X428063D01*
Y143217D02*
Y148216D01*
X418063Y143217D02*
X421463D01*
X418063Y148216D02*
X421463D01*
X418063Y143217D02*
Y148216D01*
X424663Y128217D02*
X428063D01*
X424663Y133217D02*
X428063D01*
Y128217D02*
Y133217D01*
X418063Y128217D02*
X421463D01*
X418063Y133217D02*
X421463D01*
X418063Y128217D02*
Y133217D01*
X784663Y98216D02*
X788063D01*
X784663Y103217D02*
X788063D01*
Y98216D02*
Y103217D01*
X778063Y98216D02*
X781463D01*
X778063Y103217D02*
X781463D01*
X778063Y98216D02*
Y103217D01*
X784663Y113216D02*
X788063D01*
X784663Y118217D02*
X788063D01*
Y113216D02*
Y118217D01*
X778063Y113216D02*
X781463D01*
X778063Y118217D02*
X781463D01*
X778063Y113216D02*
Y118217D01*
X744663Y113216D02*
X748063D01*
X744663Y118217D02*
X748063D01*
Y113216D02*
Y118217D01*
X738063Y113216D02*
X741463D01*
X738063Y118217D02*
X741463D01*
X738063Y113216D02*
Y118217D01*
X704663Y113216D02*
X708063D01*
X704663Y118217D02*
X708063D01*
Y113216D02*
Y118217D01*
X698063Y113216D02*
X701463D01*
X698063Y118217D02*
X701463D01*
X698063Y113216D02*
Y118217D01*
X784663Y128217D02*
X788063D01*
X784663Y133217D02*
X788063D01*
Y128217D02*
Y133217D01*
X778063Y128217D02*
X781463D01*
X778063Y133217D02*
X781463D01*
X778063Y128217D02*
Y133217D01*
X744663Y128217D02*
X748063D01*
X744663Y133217D02*
X748063D01*
Y128217D02*
Y133217D01*
X738063Y128217D02*
X741463D01*
X738063Y133217D02*
X741463D01*
X738063Y128217D02*
Y133217D01*
X704663Y128217D02*
X708063D01*
X704663Y133217D02*
X708063D01*
Y128217D02*
Y133217D01*
X698063Y128217D02*
X701463D01*
X698063Y133217D02*
X701463D01*
X698063Y128217D02*
Y133217D01*
X704663Y143217D02*
X708063D01*
X704663Y148216D02*
X708063D01*
Y143217D02*
Y148216D01*
X698063Y143217D02*
X701463D01*
X698063Y148216D02*
X701463D01*
X698063Y143217D02*
Y148216D01*
X584663Y98216D02*
X588063D01*
X584663Y103217D02*
X588063D01*
Y98216D02*
Y103217D01*
X578063Y98216D02*
X581463D01*
X578063Y103217D02*
X581463D01*
X578063Y98216D02*
Y103217D01*
X584663Y113216D02*
X588063D01*
X584663Y118217D02*
X588063D01*
Y113216D02*
Y118217D01*
X578063Y113216D02*
X581463D01*
X578063Y118217D02*
X581463D01*
X578063Y113216D02*
Y118217D01*
X544663Y113216D02*
X548063D01*
X544663Y118217D02*
X548063D01*
Y113216D02*
Y118217D01*
X538063Y113216D02*
X541463D01*
X538063Y118217D02*
X541463D01*
X538063Y113216D02*
Y118217D01*
X504663Y113216D02*
X508063D01*
X504663Y118217D02*
X508063D01*
Y113216D02*
Y118217D01*
X498063Y113216D02*
X501463D01*
X498063Y118217D02*
X501463D01*
X498063Y113216D02*
Y118217D01*
X584663Y128217D02*
X588063D01*
X584663Y133217D02*
X588063D01*
Y128217D02*
Y133217D01*
X578063Y128217D02*
X581463D01*
X578063Y133217D02*
X581463D01*
X578063Y128217D02*
Y133217D01*
X544663Y128217D02*
X548063D01*
X544663Y133217D02*
X548063D01*
Y128217D02*
Y133217D01*
X538063Y128217D02*
X541463D01*
X538063Y133217D02*
X541463D01*
X538063Y128217D02*
Y133217D01*
X504663Y128217D02*
X508063D01*
X504663Y133217D02*
X508063D01*
Y128217D02*
Y133217D01*
X498063Y128217D02*
X501463D01*
X498063Y133217D02*
X501463D01*
X498063Y128217D02*
Y133217D01*
X504663Y143217D02*
X508063D01*
X504663Y148216D02*
X508063D01*
Y143217D02*
Y148216D01*
X498063Y143217D02*
X501463D01*
X498063Y148216D02*
X501463D01*
X498063Y143217D02*
Y148216D01*
X384663Y98216D02*
X388063D01*
X384663Y103217D02*
X388063D01*
Y98216D02*
Y103217D01*
X378063Y98216D02*
X381463D01*
X378063Y103217D02*
X381463D01*
X378063Y98216D02*
Y103217D01*
X384663Y113216D02*
X388063D01*
X384663Y118217D02*
X388063D01*
Y113216D02*
Y118217D01*
X378063Y113216D02*
X381463D01*
X378063Y118217D02*
X381463D01*
X378063Y113216D02*
Y118217D01*
X344663Y113216D02*
X348063D01*
X344663Y118217D02*
X348063D01*
Y113216D02*
Y118217D01*
X338063Y113216D02*
X341463D01*
X338063Y118217D02*
X341463D01*
X338063Y113216D02*
Y118217D01*
X304663Y113216D02*
X308063D01*
X304663Y118217D02*
X308063D01*
Y113216D02*
Y118217D01*
X298063Y113216D02*
X301463D01*
X298063Y118217D02*
X301463D01*
X298063Y113216D02*
Y118217D01*
X384663Y128217D02*
X388063D01*
X384663Y133217D02*
X388063D01*
Y128217D02*
Y133217D01*
X378063Y128217D02*
X381463D01*
X378063Y133217D02*
X381463D01*
X378063Y128217D02*
Y133217D01*
X344663Y128217D02*
X348063D01*
X344663Y133217D02*
X348063D01*
Y128217D02*
Y133217D01*
X338063Y128217D02*
X341463D01*
X338063Y133217D02*
X341463D01*
X338063Y128217D02*
Y133217D01*
X304663Y128217D02*
X308063D01*
X304663Y133217D02*
X308063D01*
Y128217D02*
Y133217D01*
X298063Y128217D02*
X301463D01*
X298063Y133217D02*
X301463D01*
X298063Y128217D02*
Y133217D01*
X304663Y143217D02*
X308063D01*
X304663Y148216D02*
X308063D01*
Y143217D02*
Y148216D01*
X298063Y143217D02*
X301463D01*
X298063Y148216D02*
X301463D01*
X298063Y143217D02*
Y148216D01*
X744663Y143217D02*
X748063D01*
X744663Y148216D02*
X748063D01*
Y143217D02*
Y148216D01*
X738063Y143217D02*
X741463D01*
X738063Y148216D02*
X741463D01*
X738063Y143217D02*
Y148216D01*
X784644Y143014D02*
X788044D01*
X784644Y148014D02*
X788044D01*
Y143014D02*
Y148014D01*
X778044Y143014D02*
X781444D01*
X778044Y148014D02*
X781444D01*
X778044Y143014D02*
Y148014D01*
X784663Y158217D02*
X788063D01*
X784663Y163216D02*
X788063D01*
Y158217D02*
Y163216D01*
X778063Y158217D02*
X781463D01*
X778063Y163216D02*
X781463D01*
X778063Y158217D02*
Y163216D01*
X744663Y158217D02*
X748063D01*
X744663Y163216D02*
X748063D01*
Y158217D02*
Y163216D01*
X738063Y158217D02*
X741463D01*
X738063Y163216D02*
X741463D01*
X738063Y158217D02*
Y163216D01*
X704663Y158217D02*
X708063D01*
X704663Y163216D02*
X708063D01*
Y158217D02*
Y163216D01*
X698063Y158217D02*
X701463D01*
X698063Y163216D02*
X701463D01*
X698063Y158217D02*
Y163216D01*
X784663Y173216D02*
X788063D01*
X784663Y178217D02*
X788063D01*
Y173216D02*
Y178217D01*
X778063Y173216D02*
X781463D01*
X778063Y178217D02*
X781463D01*
X778063Y173216D02*
Y178217D01*
X744663Y173216D02*
X748063D01*
X744663Y178217D02*
X748063D01*
Y173216D02*
Y178217D01*
X738063Y173216D02*
X741463D01*
X738063Y178217D02*
X741463D01*
X738063Y173216D02*
Y178217D01*
X704663Y173216D02*
X708063D01*
X704663Y178217D02*
X708063D01*
Y173216D02*
Y178217D01*
X698063Y173216D02*
X701463D01*
X698063Y178217D02*
X701463D01*
X698063Y173216D02*
Y178217D01*
X544663Y143217D02*
X548063D01*
X544663Y148216D02*
X548063D01*
Y143217D02*
Y148216D01*
X538063Y143217D02*
X541463D01*
X538063Y148216D02*
X541463D01*
X538063Y143217D02*
Y148216D01*
X584644Y143014D02*
X588044D01*
X584644Y148014D02*
X588044D01*
Y143014D02*
Y148014D01*
X578044Y143014D02*
X581444D01*
X578044Y148014D02*
X581444D01*
X578044Y143014D02*
Y148014D01*
X584663Y158217D02*
X588063D01*
X584663Y163216D02*
X588063D01*
Y158217D02*
Y163216D01*
X578063Y158217D02*
X581463D01*
X578063Y163216D02*
X581463D01*
X578063Y158217D02*
Y163216D01*
X544663Y158217D02*
X548063D01*
X544663Y163216D02*
X548063D01*
Y158217D02*
Y163216D01*
X538063Y158217D02*
X541463D01*
X538063Y163216D02*
X541463D01*
X538063Y158217D02*
Y163216D01*
X504663Y158217D02*
X508063D01*
X504663Y163216D02*
X508063D01*
Y158217D02*
Y163216D01*
X498063Y158217D02*
X501463D01*
X498063Y163216D02*
X501463D01*
X498063Y158217D02*
Y163216D01*
X584663Y173216D02*
X588063D01*
X584663Y178217D02*
X588063D01*
Y173216D02*
Y178217D01*
X578063Y173216D02*
X581463D01*
X578063Y178217D02*
X581463D01*
X578063Y173216D02*
Y178217D01*
X544663Y173216D02*
X548063D01*
X544663Y178217D02*
X548063D01*
Y173216D02*
Y178217D01*
X538063Y173216D02*
X541463D01*
X538063Y178217D02*
X541463D01*
X538063Y173216D02*
Y178217D01*
X504663Y173216D02*
X508063D01*
X504663Y178217D02*
X508063D01*
Y173216D02*
Y178217D01*
X498063Y173216D02*
X501463D01*
X498063Y178217D02*
X501463D01*
X498063Y173216D02*
Y178217D01*
X344663Y143217D02*
X348063D01*
X344663Y148216D02*
X348063D01*
Y143217D02*
Y148216D01*
X338063Y143217D02*
X341463D01*
X338063Y148216D02*
X341463D01*
X338063Y143217D02*
Y148216D01*
X384644Y143014D02*
X388044D01*
X384644Y148014D02*
X388044D01*
Y143014D02*
Y148014D01*
X378044Y143014D02*
X381444D01*
X378044Y148014D02*
X381444D01*
X378044Y143014D02*
Y148014D01*
X384663Y158217D02*
X388063D01*
X384663Y163216D02*
X388063D01*
Y158217D02*
Y163216D01*
X378063Y158217D02*
X381463D01*
X378063Y163216D02*
X381463D01*
X378063Y158217D02*
Y163216D01*
X344663Y158217D02*
X348063D01*
X344663Y163216D02*
X348063D01*
Y158217D02*
Y163216D01*
X338063Y158217D02*
X341463D01*
X338063Y163216D02*
X341463D01*
X338063Y158217D02*
Y163216D01*
X304663Y158217D02*
X308063D01*
X304663Y163216D02*
X308063D01*
Y158217D02*
Y163216D01*
X298063Y158217D02*
X301463D01*
X298063Y163216D02*
X301463D01*
X298063Y158217D02*
Y163216D01*
X384663Y173216D02*
X388063D01*
X384663Y178217D02*
X388063D01*
Y173216D02*
Y178217D01*
X378063Y173216D02*
X381463D01*
X378063Y178217D02*
X381463D01*
X378063Y173216D02*
Y178217D01*
X344663Y173216D02*
X348063D01*
X344663Y178217D02*
X348063D01*
Y173216D02*
Y178217D01*
X338063Y173216D02*
X341463D01*
X338063Y178217D02*
X341463D01*
X338063Y173216D02*
Y178217D01*
X304663Y173216D02*
X308063D01*
X304663Y178217D02*
X308063D01*
Y173216D02*
Y178217D01*
X298063Y173216D02*
X301463D01*
X298063Y178217D02*
X301463D01*
X298063Y173216D02*
Y178217D01*
X864663Y173216D02*
X868063D01*
X864663Y178217D02*
X868063D01*
Y173216D02*
Y178217D01*
X858063Y173216D02*
X861463D01*
X858063Y178217D02*
X861463D01*
X858063Y173216D02*
Y178217D01*
X864663Y158217D02*
X868063D01*
X864663Y163216D02*
X868063D01*
Y158217D02*
Y163216D01*
X858063Y158217D02*
X861463D01*
X858063Y163216D02*
X861463D01*
X858063Y158217D02*
Y163216D01*
X864663Y188216D02*
X868063D01*
X864663Y193217D02*
X868063D01*
Y188216D02*
Y193217D01*
X858063Y188216D02*
X861463D01*
X858063Y193217D02*
X861463D01*
X858063Y188216D02*
Y193217D01*
X864663Y203217D02*
X868063D01*
X864663Y208217D02*
X868063D01*
Y203217D02*
Y208217D01*
X858063Y203217D02*
X861463D01*
X858063Y208217D02*
X861463D01*
X858063Y203217D02*
Y208217D01*
X864663Y218216D02*
X868063D01*
X864663Y223217D02*
X868063D01*
Y218216D02*
Y223217D01*
X858063Y218216D02*
X861463D01*
X858063Y223217D02*
X861463D01*
X858063Y218216D02*
Y223217D01*
X864663Y233217D02*
X868063D01*
X864663Y238216D02*
X868063D01*
Y233217D02*
Y238216D01*
X858063Y233217D02*
X861463D01*
X858063Y238216D02*
X861463D01*
X858063Y233217D02*
Y238216D01*
X824663Y158217D02*
X828063D01*
X824663Y163216D02*
X828063D01*
Y158217D02*
Y163216D01*
X818063Y158217D02*
X821463D01*
X818063Y163216D02*
X821463D01*
X818063Y158217D02*
Y163216D01*
X824663Y173216D02*
X828063D01*
X824663Y178217D02*
X828063D01*
Y173216D02*
Y178217D01*
X818063Y173216D02*
X821463D01*
X818063Y178217D02*
X821463D01*
X818063Y173216D02*
Y178217D01*
X664663Y173216D02*
X668063D01*
X664663Y178217D02*
X668063D01*
Y173216D02*
Y178217D01*
X658063Y173216D02*
X661463D01*
X658063Y178217D02*
X661463D01*
X658063Y173216D02*
Y178217D01*
X664663Y158217D02*
X668063D01*
X664663Y163216D02*
X668063D01*
Y158217D02*
Y163216D01*
X658063Y158217D02*
X661463D01*
X658063Y163216D02*
X661463D01*
X658063Y158217D02*
Y163216D01*
X664663Y188216D02*
X668063D01*
X664663Y193217D02*
X668063D01*
Y188216D02*
Y193217D01*
X658063Y188216D02*
X661463D01*
X658063Y193217D02*
X661463D01*
X658063Y188216D02*
Y193217D01*
X664663Y203217D02*
X668063D01*
X664663Y208217D02*
X668063D01*
Y203217D02*
Y208217D01*
X658063Y203217D02*
X661463D01*
X658063Y208217D02*
X661463D01*
X658063Y203217D02*
Y208217D01*
X664663Y218216D02*
X668063D01*
X664663Y223217D02*
X668063D01*
Y218216D02*
Y223217D01*
X658063Y218216D02*
X661463D01*
X658063Y223217D02*
X661463D01*
X658063Y218216D02*
Y223217D01*
X664663Y233217D02*
X668063D01*
X664663Y238216D02*
X668063D01*
Y233217D02*
Y238216D01*
X658063Y233217D02*
X661463D01*
X658063Y238216D02*
X661463D01*
X658063Y233217D02*
Y238216D01*
X624663Y158217D02*
X628063D01*
X624663Y163216D02*
X628063D01*
Y158217D02*
Y163216D01*
X618063Y158217D02*
X621463D01*
X618063Y163216D02*
X621463D01*
X618063Y158217D02*
Y163216D01*
X624663Y173216D02*
X628063D01*
X624663Y178217D02*
X628063D01*
Y173216D02*
Y178217D01*
X618063Y173216D02*
X621463D01*
X618063Y178217D02*
X621463D01*
X618063Y173216D02*
Y178217D01*
X464663Y173216D02*
X468063D01*
X464663Y178217D02*
X468063D01*
Y173216D02*
Y178217D01*
X458063Y173216D02*
X461463D01*
X458063Y178217D02*
X461463D01*
X458063Y173216D02*
Y178217D01*
X464663Y158217D02*
X468063D01*
X464663Y163216D02*
X468063D01*
Y158217D02*
Y163216D01*
X458063Y158217D02*
X461463D01*
X458063Y163216D02*
X461463D01*
X458063Y158217D02*
Y163216D01*
X464663Y188216D02*
X468063D01*
X464663Y193217D02*
X468063D01*
Y188216D02*
Y193217D01*
X458063Y188216D02*
X461463D01*
X458063Y193217D02*
X461463D01*
X458063Y188216D02*
Y193217D01*
X464663Y203217D02*
X468063D01*
X464663Y208217D02*
X468063D01*
Y203217D02*
Y208217D01*
X458063Y203217D02*
X461463D01*
X458063Y208217D02*
X461463D01*
X458063Y203217D02*
Y208217D01*
X464663Y218216D02*
X468063D01*
X464663Y223217D02*
X468063D01*
Y218216D02*
Y223217D01*
X458063Y218216D02*
X461463D01*
X458063Y223217D02*
X461463D01*
X458063Y218216D02*
Y223217D01*
X464663Y233217D02*
X468063D01*
X464663Y238216D02*
X468063D01*
Y233217D02*
Y238216D01*
X458063Y233217D02*
X461463D01*
X458063Y238216D02*
X461463D01*
X458063Y233217D02*
Y238216D01*
X424663Y158217D02*
X428063D01*
X424663Y163216D02*
X428063D01*
Y158217D02*
Y163216D01*
X418063Y158217D02*
X421463D01*
X418063Y163216D02*
X421463D01*
X418063Y158217D02*
Y163216D01*
X424663Y173216D02*
X428063D01*
X424663Y178217D02*
X428063D01*
Y173216D02*
Y178217D01*
X418063Y173216D02*
X421463D01*
X418063Y178217D02*
X421463D01*
X418063Y173216D02*
Y178217D01*
X784663Y188216D02*
X788063D01*
X784663Y193217D02*
X788063D01*
Y188216D02*
Y193217D01*
X778063Y188216D02*
X781463D01*
X778063Y193217D02*
X781463D01*
X778063Y188216D02*
Y193217D01*
X824663Y188216D02*
X828063D01*
X824663Y193217D02*
X828063D01*
Y188216D02*
Y193217D01*
X818063Y188216D02*
X821463D01*
X818063Y193217D02*
X821463D01*
X818063Y188216D02*
Y193217D01*
X824663Y203217D02*
X828063D01*
X824663Y208217D02*
X828063D01*
Y203217D02*
Y208217D01*
X818063Y203217D02*
X821463D01*
X818063Y208217D02*
X821463D01*
X818063Y203217D02*
Y208217D01*
X784663Y203217D02*
X788063D01*
X784663Y208217D02*
X788063D01*
Y203217D02*
Y208217D01*
X778063Y203217D02*
X781463D01*
X778063Y208217D02*
X781463D01*
X778063Y203217D02*
Y208217D01*
X824663Y218216D02*
X828063D01*
X824663Y223217D02*
X828063D01*
Y218216D02*
Y223217D01*
X818063Y218216D02*
X821463D01*
X818063Y223217D02*
X821463D01*
X818063Y218216D02*
Y223217D01*
X784663Y218216D02*
X788063D01*
X784663Y223217D02*
X788063D01*
Y218216D02*
Y223217D01*
X778063Y218216D02*
X781463D01*
X778063Y223217D02*
X781463D01*
X778063Y218216D02*
Y223217D01*
X824663Y233217D02*
X828063D01*
X824663Y238216D02*
X828063D01*
Y233217D02*
Y238216D01*
X818063Y233217D02*
X821463D01*
X818063Y238216D02*
X821463D01*
X818063Y233217D02*
Y238216D01*
X784663Y233217D02*
X788063D01*
X784663Y238216D02*
X788063D01*
Y233217D02*
Y238216D01*
X778063Y233217D02*
X781463D01*
X778063Y238216D02*
X781463D01*
X778063Y233217D02*
Y238216D01*
X584663Y188216D02*
X588063D01*
X584663Y193217D02*
X588063D01*
Y188216D02*
Y193217D01*
X578063Y188216D02*
X581463D01*
X578063Y193217D02*
X581463D01*
X578063Y188216D02*
Y193217D01*
X624663Y188216D02*
X628063D01*
X624663Y193217D02*
X628063D01*
Y188216D02*
Y193217D01*
X618063Y188216D02*
X621463D01*
X618063Y193217D02*
X621463D01*
X618063Y188216D02*
Y193217D01*
X624663Y203217D02*
X628063D01*
X624663Y208217D02*
X628063D01*
Y203217D02*
Y208217D01*
X618063Y203217D02*
X621463D01*
X618063Y208217D02*
X621463D01*
X618063Y203217D02*
Y208217D01*
X584663Y203217D02*
X588063D01*
X584663Y208217D02*
X588063D01*
Y203217D02*
Y208217D01*
X578063Y203217D02*
X581463D01*
X578063Y208217D02*
X581463D01*
X578063Y203217D02*
Y208217D01*
X624663Y218216D02*
X628063D01*
X624663Y223217D02*
X628063D01*
Y218216D02*
Y223217D01*
X618063Y218216D02*
X621463D01*
X618063Y223217D02*
X621463D01*
X618063Y218216D02*
Y223217D01*
X584663Y218216D02*
X588063D01*
X584663Y223217D02*
X588063D01*
Y218216D02*
Y223217D01*
X578063Y218216D02*
X581463D01*
X578063Y223217D02*
X581463D01*
X578063Y218216D02*
Y223217D01*
X624663Y233217D02*
X628063D01*
X624663Y238216D02*
X628063D01*
Y233217D02*
Y238216D01*
X618063Y233217D02*
X621463D01*
X618063Y238216D02*
X621463D01*
X618063Y233217D02*
Y238216D01*
X584663Y233217D02*
X588063D01*
X584663Y238216D02*
X588063D01*
Y233217D02*
Y238216D01*
X578063Y233217D02*
X581463D01*
X578063Y238216D02*
X581463D01*
X578063Y233217D02*
Y238216D01*
X384663Y188216D02*
X388063D01*
X384663Y193217D02*
X388063D01*
Y188216D02*
Y193217D01*
X378063Y188216D02*
X381463D01*
X378063Y193217D02*
X381463D01*
X378063Y188216D02*
Y193217D01*
X424663Y188216D02*
X428063D01*
X424663Y193217D02*
X428063D01*
Y188216D02*
Y193217D01*
X418063Y188216D02*
X421463D01*
X418063Y193217D02*
X421463D01*
X418063Y188216D02*
Y193217D01*
X424663Y203217D02*
X428063D01*
X424663Y208217D02*
X428063D01*
Y203217D02*
Y208217D01*
X418063Y203217D02*
X421463D01*
X418063Y208217D02*
X421463D01*
X418063Y203217D02*
Y208217D01*
X384663Y203217D02*
X388063D01*
X384663Y208217D02*
X388063D01*
Y203217D02*
Y208217D01*
X378063Y203217D02*
X381463D01*
X378063Y208217D02*
X381463D01*
X378063Y203217D02*
Y208217D01*
X424663Y218216D02*
X428063D01*
X424663Y223217D02*
X428063D01*
Y218216D02*
Y223217D01*
X418063Y218216D02*
X421463D01*
X418063Y223217D02*
X421463D01*
X418063Y218216D02*
Y223217D01*
X384663Y218216D02*
X388063D01*
X384663Y223217D02*
X388063D01*
Y218216D02*
Y223217D01*
X378063Y218216D02*
X381463D01*
X378063Y223217D02*
X381463D01*
X378063Y218216D02*
Y223217D01*
X424663Y233217D02*
X428063D01*
X424663Y238216D02*
X428063D01*
Y233217D02*
Y238216D01*
X418063Y233217D02*
X421463D01*
X418063Y238216D02*
X421463D01*
X418063Y233217D02*
Y238216D01*
X384663Y233217D02*
X388063D01*
X384663Y238216D02*
X388063D01*
Y233217D02*
Y238216D01*
X378063Y233217D02*
X381463D01*
X378063Y238216D02*
X381463D01*
X378063Y233217D02*
Y238216D01*
X304933Y233298D02*
X308333D01*
X304933Y238299D02*
X308333D01*
Y233298D02*
Y238299D01*
X298333Y233298D02*
X301733D01*
X298333Y238299D02*
X301733D01*
X298333Y233298D02*
Y238299D01*
X304514Y203217D02*
X307913D01*
X304514Y208217D02*
X307913D01*
Y203217D02*
Y208217D01*
X297914Y203217D02*
X301313D01*
X297914Y208217D02*
X301313D01*
X297914Y203217D02*
Y208217D01*
X304663Y218216D02*
X308063D01*
X304663Y223217D02*
X308063D01*
Y218216D02*
Y223217D01*
X298063Y218216D02*
X301463D01*
X298063Y223217D02*
X301463D01*
X298063Y218216D02*
Y223217D01*
X344663Y188216D02*
X348063D01*
X344663Y193217D02*
X348063D01*
Y188216D02*
Y193217D01*
X338063Y188216D02*
X341463D01*
X338063Y193217D02*
X341463D01*
X338063Y188216D02*
Y193217D01*
X344663Y203217D02*
X348063D01*
X344663Y208217D02*
X348063D01*
Y203217D02*
Y208217D01*
X338063Y203217D02*
X341463D01*
X338063Y208217D02*
X341463D01*
X338063Y203217D02*
Y208217D01*
X344663Y218216D02*
X348063D01*
X344663Y223217D02*
X348063D01*
Y218216D02*
Y223217D01*
X338063Y218216D02*
X341463D01*
X338063Y223217D02*
X341463D01*
X338063Y218216D02*
Y223217D01*
X344663Y233217D02*
X348063D01*
X344663Y238216D02*
X348063D01*
Y233217D02*
Y238216D01*
X338063Y233217D02*
X341463D01*
X338063Y238216D02*
X341463D01*
X338063Y233217D02*
Y238216D01*
X304663Y188216D02*
X308063D01*
X304663Y193217D02*
X308063D01*
Y188216D02*
Y193217D01*
X298063Y188216D02*
X301463D01*
X298063Y193217D02*
X301463D01*
X298063Y188216D02*
Y193217D01*
X744663Y188216D02*
X748063D01*
X744663Y193217D02*
X748063D01*
Y188216D02*
Y193217D01*
X738063Y188216D02*
X741463D01*
X738063Y193217D02*
X741463D01*
X738063Y188216D02*
Y193217D01*
X744663Y203217D02*
X748063D01*
X744663Y208217D02*
X748063D01*
Y203217D02*
Y208217D01*
X738063Y203217D02*
X741463D01*
X738063Y208217D02*
X741463D01*
X738063Y203217D02*
Y208217D01*
X744663Y218216D02*
X748063D01*
X744663Y223217D02*
X748063D01*
Y218216D02*
Y223217D01*
X738063Y218216D02*
X741463D01*
X738063Y223217D02*
X741463D01*
X738063Y218216D02*
Y223217D01*
X744663Y233217D02*
X748063D01*
X744663Y238216D02*
X748063D01*
Y233217D02*
Y238216D01*
X738063Y233217D02*
X741463D01*
X738063Y238216D02*
X741463D01*
X738063Y233217D02*
Y238216D01*
X703533Y188172D02*
X706933D01*
X703533Y193172D02*
X706933D01*
Y188172D02*
Y193172D01*
X696933Y188172D02*
X700333D01*
X696933Y193172D02*
X700333D01*
X696933Y188172D02*
Y193172D01*
X704514Y203217D02*
X707913D01*
X704514Y208217D02*
X707913D01*
Y203217D02*
Y208217D01*
X697914Y203217D02*
X701313D01*
X697914Y208217D02*
X701313D01*
X697914Y203217D02*
Y208217D01*
X704663Y218216D02*
X708063D01*
X704663Y223217D02*
X708063D01*
Y218216D02*
Y223217D01*
X698063Y218216D02*
X701463D01*
X698063Y223217D02*
X701463D01*
X698063Y218216D02*
Y223217D01*
X704933Y233298D02*
X708333D01*
X704933Y238299D02*
X708333D01*
Y233298D02*
Y238299D01*
X698333Y233298D02*
X701733D01*
X698333Y238299D02*
X701733D01*
X698333Y233298D02*
Y238299D01*
X544663Y188216D02*
X548063D01*
X544663Y193217D02*
X548063D01*
Y188216D02*
Y193217D01*
X538063Y188216D02*
X541463D01*
X538063Y193217D02*
X541463D01*
X538063Y188216D02*
Y193217D01*
X544663Y203217D02*
X548063D01*
X544663Y208217D02*
X548063D01*
Y203217D02*
Y208217D01*
X538063Y203217D02*
X541463D01*
X538063Y208217D02*
X541463D01*
X538063Y203217D02*
Y208217D01*
X544663Y218216D02*
X548063D01*
X544663Y223217D02*
X548063D01*
Y218216D02*
Y223217D01*
X538063Y218216D02*
X541463D01*
X538063Y223217D02*
X541463D01*
X538063Y218216D02*
Y223217D01*
X544663Y233217D02*
X548063D01*
X544663Y238216D02*
X548063D01*
Y233217D02*
Y238216D01*
X538063Y233217D02*
X541463D01*
X538063Y238216D02*
X541463D01*
X538063Y233217D02*
Y238216D01*
X503533Y188172D02*
X506933D01*
X503533Y193172D02*
X506933D01*
Y188172D02*
Y193172D01*
X496933Y188172D02*
X500333D01*
X496933Y193172D02*
X500333D01*
X496933Y188172D02*
Y193172D01*
X504514Y203217D02*
X507913D01*
X504514Y208217D02*
X507913D01*
Y203217D02*
Y208217D01*
X497914Y203217D02*
X501313D01*
X497914Y208217D02*
X501313D01*
X497914Y203217D02*
Y208217D01*
X504663Y218216D02*
X508063D01*
X504663Y223217D02*
X508063D01*
Y218216D02*
Y223217D01*
X498063Y218216D02*
X501463D01*
X498063Y223217D02*
X501463D01*
X498063Y218216D02*
Y223217D01*
X504933Y233298D02*
X508333D01*
X504933Y238299D02*
X508333D01*
Y233298D02*
Y238299D01*
X498333Y233298D02*
X501733D01*
X498333Y238299D02*
X501733D01*
X498333Y233298D02*
Y238299D01*
X138063Y113216D02*
Y118217D01*
X141463D01*
X138063Y113216D02*
X141463D01*
X148063D02*
Y118217D01*
X144663D02*
X148063D01*
X144663Y113216D02*
X148063D01*
X104663Y128217D02*
X108063D01*
X104663Y133217D02*
X108063D01*
Y128217D02*
Y133217D01*
X98063Y128217D02*
X101463D01*
X98063Y133217D02*
X101463D01*
X98063Y128217D02*
Y133217D01*
X224663Y173216D02*
X228063D01*
X224663Y178217D02*
X228063D01*
Y173216D02*
Y178217D01*
X218063Y173216D02*
X221463D01*
X218063Y178217D02*
X221463D01*
X218063Y173216D02*
Y178217D01*
X224663Y98216D02*
X228063D01*
X224663Y103217D02*
X228063D01*
Y98216D02*
Y103217D01*
X218063Y98216D02*
X221463D01*
X218063Y103217D02*
X221463D01*
X218063Y98216D02*
Y103217D01*
X104663Y143217D02*
X108063D01*
X104663Y148216D02*
X108063D01*
Y143217D02*
Y148216D01*
X98063Y143217D02*
X101463D01*
X98063Y148216D02*
X101463D01*
X98063Y143217D02*
Y148216D01*
X144663Y68217D02*
X148063D01*
X144663Y73216D02*
X148063D01*
Y68217D02*
Y73216D01*
X138063Y68217D02*
X141463D01*
X138063Y73216D02*
X141463D01*
X138063Y68217D02*
Y73216D01*
Y173216D02*
Y178217D01*
X141463D01*
X138063Y173216D02*
X141463D01*
X148063D02*
Y178217D01*
X144663D02*
X148063D01*
X144663Y173216D02*
X148063D01*
X98063D02*
Y178217D01*
X101463D01*
X98063Y173216D02*
X101463D01*
X108063D02*
Y178217D01*
X104663D02*
X108063D01*
X104663Y173216D02*
X108063D01*
X258063Y143217D02*
Y148216D01*
X261463D01*
X258063Y143217D02*
X261463D01*
X268063D02*
Y148216D01*
X264663D02*
X268063D01*
X264663Y143217D02*
X268063D01*
X98063Y113216D02*
Y118217D01*
X101463D01*
X98063Y113216D02*
X101463D01*
X108063D02*
Y118217D01*
X104663D02*
X108063D01*
X104663Y113216D02*
X108063D01*
X138063Y158217D02*
Y163216D01*
X141463D01*
X138063Y158217D02*
X141463D01*
X148063D02*
Y163216D01*
X144663D02*
X148063D01*
X144663Y158217D02*
X148063D01*
X178063D02*
Y163216D01*
X181463D01*
X178063Y158217D02*
X181463D01*
X188063D02*
Y163216D01*
X184663D02*
X188063D01*
X184663Y158217D02*
X188063D01*
X98063D02*
Y163216D01*
X101463D01*
X98063Y158217D02*
X101463D01*
X108063D02*
Y163216D01*
X104663D02*
X108063D01*
X104663Y158217D02*
X108063D01*
X218063Y38217D02*
Y43216D01*
X221463D01*
X218063Y38217D02*
X221463D01*
X228063D02*
Y43216D01*
X224663D02*
X228063D01*
X224663Y38217D02*
X228063D01*
X138063D02*
Y43216D01*
X141463D01*
X138063Y38217D02*
X141463D01*
X148063D02*
Y43216D01*
X144663D02*
X148063D01*
X144663Y38217D02*
X148063D01*
X178063Y83217D02*
Y88217D01*
X181463D01*
X178063Y83217D02*
X181463D01*
X188063D02*
Y88217D01*
X184663D02*
X188063D01*
X184663Y83217D02*
X188063D01*
X258063Y23216D02*
Y28216D01*
X261463D01*
X258063Y23216D02*
X261463D01*
X268063D02*
Y28216D01*
X264663D02*
X268063D01*
X264663Y23216D02*
X268063D01*
X218063D02*
Y28216D01*
X221463D01*
X218063Y23216D02*
X221463D01*
X228063D02*
Y28216D01*
X224663D02*
X228063D01*
X224663Y23216D02*
X228063D01*
X178063Y38217D02*
Y43216D01*
X181463D01*
X178063Y38217D02*
X181463D01*
X188063D02*
Y43216D01*
X184663D02*
X188063D01*
X184663Y38217D02*
X188063D01*
X98063Y68217D02*
Y73216D01*
X101463D01*
X98063Y68217D02*
X101463D01*
X108063D02*
Y73216D01*
X104663D02*
X108063D01*
X104663Y68217D02*
X108063D01*
X258063Y128217D02*
Y133217D01*
X261463D01*
X258063Y128217D02*
X261463D01*
X268063D02*
Y133217D01*
X264663D02*
X268063D01*
X264663Y128217D02*
X268063D01*
X258063Y53216D02*
Y58217D01*
X261463D01*
X258063Y53216D02*
X261463D01*
X268063D02*
Y58217D01*
X264663D02*
X268063D01*
X264663Y53216D02*
X268063D01*
X258063Y68217D02*
Y73216D01*
X261463D01*
X258063Y68217D02*
X261463D01*
X268063D02*
Y73216D01*
X264663D02*
X268063D01*
X264663Y68217D02*
X268063D01*
X138063Y23216D02*
Y28216D01*
X141463D01*
X138063Y23216D02*
X141463D01*
X148063D02*
Y28216D01*
X144663D02*
X148063D01*
X144663Y23216D02*
X148063D01*
X178063Y68217D02*
Y73216D01*
X181463D01*
X178063Y68217D02*
X181463D01*
X188063D02*
Y73216D01*
X184663D02*
X188063D01*
X184663Y68217D02*
X188063D01*
X258063Y98216D02*
Y103217D01*
X261463D01*
X258063Y98216D02*
X261463D01*
X268063D02*
Y103217D01*
X264663D02*
X268063D01*
X264663Y98216D02*
X268063D01*
X178063D02*
Y103217D01*
X181463D01*
X178063Y98216D02*
X181463D01*
X188063D02*
Y103217D01*
X184663D02*
X188063D01*
X184663Y98216D02*
X188063D01*
X138063Y143217D02*
Y148216D01*
X141463D01*
X138063Y143217D02*
X141463D01*
X148063D02*
Y148216D01*
X144663D02*
X148063D01*
X144663Y143217D02*
X148063D01*
X218063Y53216D02*
Y58217D01*
X221463D01*
X218063Y53216D02*
X221463D01*
X228063D02*
Y58217D01*
X224663D02*
X228063D01*
X224663Y53216D02*
X228063D01*
X98063Y38217D02*
Y43216D01*
X101463D01*
X98063Y38217D02*
X101463D01*
X108063D02*
Y43216D01*
X104663D02*
X108063D01*
X104663Y38217D02*
X108063D01*
X138063Y83217D02*
Y88217D01*
X141463D01*
X138063Y83217D02*
X141463D01*
X148063D02*
Y88217D01*
X144663D02*
X148063D01*
X144663Y83217D02*
X148063D01*
X178063Y128217D02*
Y133217D01*
X181463D01*
X178063Y128217D02*
X181463D01*
X188063D02*
Y133217D01*
X184663D02*
X188063D01*
X184663Y128217D02*
X188063D01*
X258063Y38217D02*
Y43216D01*
X261463D01*
X258063Y38217D02*
X261463D01*
X268063D02*
Y43216D01*
X264663D02*
X268063D01*
X264663Y38217D02*
X268063D01*
X258063Y83217D02*
Y88217D01*
X261463D01*
X258063Y83217D02*
X261463D01*
X268063D02*
Y88217D01*
X264663D02*
X268063D01*
X264663Y83217D02*
X268063D01*
X98063D02*
Y88217D01*
X101463D01*
X98063Y83217D02*
X101463D01*
X108063D02*
Y88217D01*
X104663D02*
X108063D01*
X104663Y83217D02*
X108063D01*
X218063Y113216D02*
Y118217D01*
X221463D01*
X218063Y113216D02*
X221463D01*
X228063D02*
Y118217D01*
X224663D02*
X228063D01*
X224663Y113216D02*
X228063D01*
X138063Y128217D02*
Y133217D01*
X141463D01*
X138063Y128217D02*
X141463D01*
X148063D02*
Y133217D01*
X144663D02*
X148063D01*
X144663Y128217D02*
X148063D01*
X178063Y173216D02*
Y178217D01*
X181463D01*
X178063Y173216D02*
X181463D01*
X188063D02*
Y178217D01*
X184663D02*
X188063D01*
X184663Y173216D02*
X188063D01*
X98063Y23216D02*
Y28216D01*
X101463D01*
X98063Y23216D02*
X101463D01*
X108063D02*
Y28216D01*
X104663D02*
X108063D01*
X104663Y23216D02*
X108063D01*
X258063Y113216D02*
Y118217D01*
X261463D01*
X258063Y113216D02*
X261463D01*
X268063D02*
Y118217D01*
X264663D02*
X268063D01*
X264663Y113216D02*
X268063D01*
X178063D02*
Y118217D01*
X181463D01*
X178063Y113216D02*
X181463D01*
X188063D02*
Y118217D01*
X184663D02*
X188063D01*
X184663Y113216D02*
X188063D01*
X178044Y143014D02*
Y148014D01*
X181444D01*
X178044Y143014D02*
X181444D01*
X188044D02*
Y148014D01*
X184644D02*
X188044D01*
X184644Y143014D02*
X188044D01*
X218063Y68217D02*
Y73216D01*
X221463D01*
X218063Y68217D02*
X221463D01*
X228063D02*
Y73216D01*
X224663D02*
X228063D01*
X224663Y68217D02*
X228063D01*
X178063Y53216D02*
Y58217D01*
X181463D01*
X178063Y53216D02*
X181463D01*
X188063D02*
Y58217D01*
X184663D02*
X188063D01*
X184663Y53216D02*
X188063D01*
X218063Y83217D02*
Y88217D01*
X221463D01*
X218063Y83217D02*
X221463D01*
X228063D02*
Y88217D01*
X224663D02*
X228063D01*
X224663Y83217D02*
X228063D01*
X138063Y53216D02*
Y58217D01*
X141463D01*
X138063Y53216D02*
X141463D01*
X148063D02*
Y58217D01*
X144663D02*
X148063D01*
X144663Y53216D02*
X148063D01*
X138063Y98216D02*
Y103217D01*
X141463D01*
X138063Y98216D02*
X141463D01*
X148063D02*
Y103217D01*
X144663D02*
X148063D01*
X144663Y98216D02*
X148063D01*
X218063Y143217D02*
Y148216D01*
X221463D01*
X218063Y143217D02*
X221463D01*
X228063D02*
Y148216D01*
X224663D02*
X228063D01*
X224663Y143217D02*
X228063D01*
X178063Y23216D02*
Y28216D01*
X181463D01*
X178063Y23216D02*
X181463D01*
X188063D02*
Y28216D01*
X184663D02*
X188063D01*
X184663Y23216D02*
X188063D01*
X98063Y53216D02*
Y58217D01*
X101463D01*
X98063Y53216D02*
X101463D01*
X108063D02*
Y58217D01*
X104663D02*
X108063D01*
X104663Y53216D02*
X108063D01*
X98063Y98216D02*
Y103217D01*
X101463D01*
X98063Y98216D02*
X101463D01*
X108063D02*
Y103217D01*
X104663D02*
X108063D01*
X104663Y98216D02*
X108063D01*
X218063Y128217D02*
Y133217D01*
X221463D01*
X218063Y128217D02*
X221463D01*
X228063D02*
Y133217D01*
X224663D02*
X228063D01*
X224663Y128217D02*
X228063D01*
X258063Y203217D02*
Y208217D01*
X261463D01*
X258063Y203217D02*
X261463D01*
X268063D02*
Y208217D01*
X264663D02*
X268063D01*
X264663Y203217D02*
X268063D01*
X258063Y188216D02*
Y193217D01*
X261463D01*
X258063Y188216D02*
X261463D01*
X268063D02*
Y193217D01*
X264663D02*
X268063D01*
X264663Y188216D02*
X268063D01*
X258063Y218216D02*
Y223217D01*
X261463D01*
X258063Y218216D02*
X261463D01*
X268063D02*
Y223217D01*
X264663D02*
X268063D01*
X264663Y218216D02*
X268063D01*
X258063Y173216D02*
Y178217D01*
X261463D01*
X258063Y173216D02*
X261463D01*
X268063D02*
Y178217D01*
X264663D02*
X268063D01*
X264663Y173216D02*
X268063D01*
X258063Y233217D02*
Y238216D01*
X261463D01*
X258063Y233217D02*
X261463D01*
X268063D02*
Y238216D01*
X264663D02*
X268063D01*
X264663Y233217D02*
X268063D01*
X258063Y158217D02*
Y163216D01*
X261463D01*
X258063Y158217D02*
X261463D01*
X268063D02*
Y163216D01*
X264663D02*
X268063D01*
X264663Y158217D02*
X268063D01*
X218063D02*
Y163216D01*
X221463D01*
X218063Y158217D02*
X221463D01*
X228063D02*
Y163216D01*
X224663D02*
X228063D01*
X224663Y158217D02*
X228063D01*
X184663Y233217D02*
X188063D01*
X184663Y238216D02*
X188063D01*
Y233217D02*
Y238216D01*
X178063Y233217D02*
X181463D01*
X178063Y238216D02*
X181463D01*
X178063Y233217D02*
Y238216D01*
X224663Y233217D02*
X228063D01*
X224663Y238216D02*
X228063D01*
Y233217D02*
Y238216D01*
X218063Y233217D02*
X221463D01*
X218063Y238216D02*
X221463D01*
X218063Y233217D02*
Y238216D01*
X184663Y218216D02*
X188063D01*
X184663Y223217D02*
X188063D01*
Y218216D02*
Y223217D01*
X178063Y218216D02*
X181463D01*
X178063Y223217D02*
X181463D01*
X178063Y218216D02*
Y223217D01*
X224663Y218216D02*
X228063D01*
X224663Y223217D02*
X228063D01*
Y218216D02*
Y223217D01*
X218063Y218216D02*
X221463D01*
X218063Y223217D02*
X221463D01*
X218063Y218216D02*
Y223217D01*
X184663Y203217D02*
X188063D01*
X184663Y208217D02*
X188063D01*
Y203217D02*
Y208217D01*
X178063Y203217D02*
X181463D01*
X178063Y208217D02*
X181463D01*
X178063Y203217D02*
Y208217D01*
X224663Y203217D02*
X228063D01*
X224663Y208217D02*
X228063D01*
Y203217D02*
Y208217D01*
X218063Y203217D02*
X221463D01*
X218063Y208217D02*
X221463D01*
X218063Y203217D02*
Y208217D01*
X224663Y188216D02*
X228063D01*
X224663Y193217D02*
X228063D01*
Y188216D02*
Y193217D01*
X218063Y188216D02*
X221463D01*
X218063Y193217D02*
X221463D01*
X218063Y188216D02*
Y193217D01*
X184663Y188216D02*
X188063D01*
X184663Y193217D02*
X188063D01*
Y188216D02*
Y193217D01*
X178063Y188216D02*
X181463D01*
X178063Y193217D02*
X181463D01*
X178063Y188216D02*
Y193217D01*
X144663Y218216D02*
X148063D01*
X144663Y223217D02*
X148063D01*
Y218216D02*
Y223217D01*
X138063Y218216D02*
X141463D01*
X138063Y223217D02*
X141463D01*
X138063Y218216D02*
Y223217D01*
X103533Y188172D02*
X106933D01*
X103533Y193172D02*
X106933D01*
Y188172D02*
Y193172D01*
X96933Y188172D02*
X100333D01*
X96933Y193172D02*
X100333D01*
X96933Y188172D02*
Y193172D01*
X144663Y203217D02*
X148063D01*
X144663Y208217D02*
X148063D01*
Y203217D02*
Y208217D01*
X138063Y203217D02*
X141463D01*
X138063Y208217D02*
X141463D01*
X138063Y203217D02*
Y208217D01*
X104514Y203217D02*
X107913D01*
X104514Y208217D02*
X107913D01*
Y203217D02*
Y208217D01*
X97913Y203217D02*
X101313D01*
X97913Y208217D02*
X101313D01*
X97913Y203217D02*
Y208217D01*
X144663Y188216D02*
X148063D01*
X144663Y193217D02*
X148063D01*
Y188216D02*
Y193217D01*
X138063Y188216D02*
X141463D01*
X138063Y193217D02*
X141463D01*
X138063Y188216D02*
Y193217D01*
X144663Y233217D02*
X148063D01*
X144663Y238216D02*
X148063D01*
Y233217D02*
Y238216D01*
X138063Y233217D02*
X141463D01*
X138063Y238216D02*
X141463D01*
X138063Y233217D02*
Y238216D01*
X104663Y218216D02*
X108063D01*
X104663Y223217D02*
X108063D01*
Y218216D02*
Y223217D01*
X98063Y218216D02*
X101463D01*
X98063Y223217D02*
X101463D01*
X98063Y218216D02*
Y223217D01*
X104933Y233298D02*
X108333D01*
X104933Y238299D02*
X108333D01*
Y233298D02*
Y238299D01*
X98333Y233298D02*
X101733D01*
X98333Y238299D02*
X101733D01*
X98333Y233298D02*
Y238299D01*
X133983Y388087D02*
X137383D01*
X133983Y393087D02*
X137383D01*
Y388087D02*
Y393087D01*
X127383Y388087D02*
X130783D01*
X127383Y393087D02*
X130783D01*
X127383Y388087D02*
Y393087D01*
X327493Y387826D02*
Y392827D01*
X330893D01*
X327493Y387826D02*
X330893D01*
X337493D02*
Y392827D01*
X334093D02*
X337493D01*
X334093Y387826D02*
X337493D01*
X533783Y388172D02*
X537183D01*
X533783Y393172D02*
X537183D01*
Y388172D02*
Y393172D01*
X527183Y388172D02*
X530583D01*
X527183Y393172D02*
X530583D01*
X527183Y388172D02*
Y393172D01*
X727483Y388187D02*
Y393186D01*
X730883D01*
X727483Y388187D02*
X730883D01*
X737483D02*
Y393186D01*
X734083D02*
X737483D01*
X734083Y388187D02*
X737483D01*
X206883Y381242D02*
Y384643D01*
X211883Y381242D02*
Y384643D01*
X206883Y381242D02*
X211883D01*
X206883Y387842D02*
Y391243D01*
X211883Y387842D02*
Y391243D01*
X206883D02*
X211883D01*
X406993Y390983D02*
X411993D01*
Y387582D02*
Y390983D01*
X406993Y387582D02*
Y390983D01*
Y380982D02*
X411993D01*
Y384383D01*
X406993Y380982D02*
Y384383D01*
X606683Y381327D02*
Y384727D01*
X611683Y381327D02*
Y384727D01*
X606683Y381327D02*
X611683D01*
X606683Y387927D02*
Y391327D01*
X611683Y387927D02*
Y391327D01*
X606683D02*
X611683D01*
X806983Y381343D02*
Y384742D01*
X811983Y381343D02*
Y384742D01*
X806983Y381343D02*
X811983D01*
X806983Y387943D02*
Y391342D01*
X811983Y387943D02*
Y391342D01*
X806983D02*
X811983D01*
X236583Y396087D02*
X239983D01*
X236583Y401087D02*
X239983D01*
Y396087D02*
Y401087D01*
X229983Y396087D02*
X233383D01*
X229983Y401087D02*
X233383D01*
X229983Y396087D02*
Y401087D01*
X430093Y395827D02*
Y400827D01*
X433493D01*
X430093Y395827D02*
X433493D01*
X440093D02*
Y400827D01*
X436693D02*
X440093D01*
X436693Y395827D02*
X440093D01*
X636383Y396171D02*
X639783D01*
X636383Y401171D02*
X639783D01*
Y396171D02*
Y401171D01*
X629783Y396171D02*
X633183D01*
X629783Y401171D02*
X633183D01*
X629783Y396171D02*
Y401171D01*
X830083Y396186D02*
Y401187D01*
X833483D01*
X830083Y396186D02*
X833483D01*
X840083D02*
Y401187D01*
X836683D02*
X840083D01*
X836683Y396186D02*
X840083D01*
X133983Y393586D02*
X137383D01*
X133983Y398587D02*
X137383D01*
Y393586D02*
Y398587D01*
X127383Y393586D02*
X130783D01*
X127383Y398587D02*
X130783D01*
X127383Y393586D02*
Y398587D01*
X327493Y393326D02*
Y398326D01*
X330893D01*
X327493Y393326D02*
X330893D01*
X337493D02*
Y398326D01*
X334093D02*
X337493D01*
X334093Y393326D02*
X337493D01*
X533783Y393671D02*
X537183D01*
X533783Y398672D02*
X537183D01*
Y393671D02*
Y398672D01*
X527183Y393671D02*
X530583D01*
X527183Y398672D02*
X530583D01*
X527183Y393671D02*
Y398672D01*
X727483Y393687D02*
Y398687D01*
X730883D01*
X727483Y393687D02*
X730883D01*
X737483D02*
Y398687D01*
X734083D02*
X737483D01*
X734083Y393687D02*
X737483D01*
X140883Y396586D02*
X144283D01*
X140883Y391586D02*
X144283D01*
X140883D02*
Y396586D01*
X147483D02*
X150883D01*
X147483Y391586D02*
X150883D01*
Y396586D01*
X350993Y391326D02*
Y396326D01*
X347593Y391326D02*
X350993D01*
X347593Y396326D02*
X350993D01*
X340993Y391326D02*
Y396326D01*
Y391326D02*
X344393D01*
X340993Y396326D02*
X344393D01*
X540683Y396672D02*
X544083D01*
X540683Y391671D02*
X544083D01*
X540683D02*
Y396672D01*
X547283D02*
X550683D01*
X547283Y391671D02*
X550683D01*
Y396672D01*
X750983Y391687D02*
Y396687D01*
X747583Y391687D02*
X750983D01*
X747583Y396687D02*
X750983D01*
X740983Y391687D02*
Y396687D01*
Y391687D02*
X744383D01*
X740983Y396687D02*
X744383D01*
X231283Y314387D02*
X234683D01*
X231283Y309386D02*
X234683D01*
X231283D02*
Y314387D01*
X237883D02*
X241283D01*
X237883Y309386D02*
X241283D01*
Y314387D01*
X441393Y309126D02*
Y314126D01*
X437993Y309126D02*
X441393D01*
X437993Y314126D02*
X441393D01*
X431393Y309126D02*
Y314126D01*
Y309126D02*
X434793D01*
X431393Y314126D02*
X434793D01*
X631083Y314472D02*
X634483D01*
X631083Y309472D02*
X634483D01*
X631083D02*
Y314472D01*
X637683D02*
X641083D01*
X637683Y309472D02*
X641083D01*
Y314472D01*
X831383Y314487D02*
X834783D01*
X831383Y309487D02*
X834783D01*
X831383D02*
Y314487D01*
X837983D02*
X841383D01*
X837983Y309487D02*
X841383D01*
Y314487D01*
X156865Y392454D02*
Y395854D01*
X151865Y392454D02*
Y395854D01*
X156865D01*
Y385854D02*
Y389254D01*
X151865Y385854D02*
Y389254D01*
Y385854D02*
X156865D01*
X351975Y385594D02*
X356975D01*
X351975D02*
Y388994D01*
X356975Y385594D02*
Y388994D01*
X351975Y395594D02*
X356975D01*
X351975Y392194D02*
Y395594D01*
X356975Y392194D02*
Y395594D01*
X556665Y392539D02*
Y395939D01*
X551665Y392539D02*
Y395939D01*
X556665D01*
Y385939D02*
Y389339D01*
X551665Y385939D02*
Y389339D01*
Y385939D02*
X556665D01*
X751965Y385954D02*
X756965D01*
X751965D02*
Y389354D01*
X756965Y385954D02*
Y389354D01*
X751965Y395954D02*
X756965D01*
X751965Y392554D02*
Y395954D01*
X756965Y392554D02*
Y395954D01*
X240283Y308086D02*
X244283D01*
Y301086D02*
Y308086D01*
X240283Y301086D02*
X244283D01*
X231283Y308086D02*
X235283D01*
X231283Y301086D02*
Y308086D01*
Y301086D02*
X235283D01*
X431393Y300827D02*
X435393D01*
X431393D02*
Y307826D01*
X435393D01*
X440393Y300827D02*
X444393D01*
Y307826D01*
X440393D02*
X444393D01*
X640083Y308172D02*
X644083D01*
Y301171D02*
Y308172D01*
X640083Y301171D02*
X644083D01*
X631083Y308172D02*
X635083D01*
X631083Y301171D02*
Y308172D01*
Y301171D02*
X635083D01*
X840383Y308187D02*
X844383D01*
Y301186D02*
Y308187D01*
X840383Y301186D02*
X844383D01*
X831383Y308187D02*
X835383D01*
X831383Y301186D02*
Y308187D01*
Y301186D02*
X835383D01*
X229983Y395286D02*
X233383D01*
X229983Y390286D02*
X233383D01*
X229983D02*
Y395286D01*
X236583D02*
X239983D01*
X236583Y390286D02*
X239983D01*
Y395286D01*
X440093Y390026D02*
Y395026D01*
X436693Y390026D02*
X440093D01*
X436693Y395026D02*
X440093D01*
X430093Y390026D02*
Y395026D01*
Y390026D02*
X433493D01*
X430093Y395026D02*
X433493D01*
X629783Y395372D02*
X633183D01*
X629783Y390371D02*
X633183D01*
X629783D02*
Y395372D01*
X636383D02*
X639783D01*
X636383Y390371D02*
X639783D01*
Y395372D01*
X830083Y395387D02*
X833483D01*
X830083Y390387D02*
X833483D01*
X830083D02*
Y395387D01*
X836683D02*
X840083D01*
X836683Y390387D02*
X840083D01*
Y395387D01*
X147383Y385386D02*
X150783D01*
X147383Y390387D02*
X150783D01*
Y385386D02*
Y390387D01*
X140783Y385386D02*
X144183D01*
X140783Y390387D02*
X144183D01*
X140783Y385386D02*
Y390387D01*
X340893Y385126D02*
Y390126D01*
X344293D01*
X340893Y385126D02*
X344293D01*
X350893D02*
Y390126D01*
X347493D02*
X350893D01*
X347493Y385126D02*
X350893D01*
X547183Y385472D02*
X550583D01*
X547183Y390472D02*
X550583D01*
Y385472D02*
Y390472D01*
X540583Y385472D02*
X543983D01*
X540583Y390472D02*
X543983D01*
X540583Y385472D02*
Y390472D01*
X747483Y385487D02*
X750883D01*
X747483Y390487D02*
X750883D01*
Y385487D02*
Y390487D01*
X740883Y385487D02*
X744283D01*
X740883Y390487D02*
X744283D01*
X740883Y385487D02*
Y390487D01*
X140483Y306986D02*
Y310386D01*
X145483Y306986D02*
Y310386D01*
X140483Y306986D02*
X145483D01*
X140483Y313586D02*
Y316986D01*
X145483Y313586D02*
Y316986D01*
X140483D02*
X145483D01*
X340593Y316726D02*
X345593D01*
Y313327D02*
Y316726D01*
X340593Y313327D02*
Y316726D01*
Y306727D02*
X345593D01*
Y310126D01*
X340593Y306727D02*
Y310126D01*
X540283Y307071D02*
Y310472D01*
X545283Y307071D02*
Y310472D01*
X540283Y307071D02*
X545283D01*
X540283Y313671D02*
Y317072D01*
X545283Y313671D02*
Y317072D01*
X540283D02*
X545283D01*
X740583Y317087D02*
X745583D01*
Y313686D02*
Y317087D01*
X740583Y313686D02*
Y317087D01*
Y307086D02*
X745583D01*
Y310487D01*
X740583Y307086D02*
Y310487D01*
X220583Y366087D02*
Y369486D01*
X225583Y366087D02*
Y369486D01*
X220583Y366087D02*
X225583D01*
X220583Y372687D02*
Y376086D01*
X225583Y372687D02*
Y376086D01*
X220583D02*
X225583D01*
X420693Y375827D02*
X425693D01*
Y372427D02*
Y375827D01*
X420693Y372427D02*
Y375827D01*
Y365827D02*
X425693D01*
Y369227D01*
X420693Y365827D02*
Y369227D01*
X620383Y366172D02*
Y369571D01*
X625383Y366172D02*
Y369571D01*
X620383Y366172D02*
X625383D01*
X620383Y372772D02*
Y376171D01*
X625383Y372772D02*
Y376171D01*
X620383D02*
X625383D01*
X820683Y376186D02*
X825683D01*
Y372786D02*
Y376186D01*
X820683Y372786D02*
Y376186D01*
Y366186D02*
X825683D01*
Y369586D01*
X820683Y366186D02*
Y369586D01*
X153483Y331187D02*
X156883D01*
X153483Y336187D02*
X156883D01*
Y331187D02*
Y336187D01*
X146883Y331187D02*
X150283D01*
X146883Y336187D02*
X150283D01*
X146883Y331187D02*
Y336187D01*
X346993Y330926D02*
Y335927D01*
X350393D01*
X346993Y330926D02*
X350393D01*
X356993D02*
Y335927D01*
X353593D02*
X356993D01*
X353593Y330926D02*
X356993D01*
X553283Y331272D02*
X556683D01*
X553283Y336272D02*
X556683D01*
Y331272D02*
Y336272D01*
X546683Y331272D02*
X550083D01*
X546683Y336272D02*
X550083D01*
X546683Y331272D02*
Y336272D01*
X746983Y331287D02*
Y336286D01*
X750383D01*
X746983Y331287D02*
X750383D01*
X756983D02*
Y336286D01*
X753583D02*
X756983D01*
X753583Y331287D02*
X756983D01*
X152083Y313686D02*
Y317087D01*
X147083Y313686D02*
Y317087D01*
X152083D01*
Y307086D02*
Y310487D01*
X147083Y307086D02*
Y310487D01*
Y307086D02*
X152083D01*
X347193Y306826D02*
X352193D01*
X347193D02*
Y310226D01*
X352193Y306826D02*
Y310226D01*
X347193Y316827D02*
X352193D01*
X347193Y313426D02*
Y316827D01*
X352193Y313426D02*
Y316827D01*
X551883Y313772D02*
Y317172D01*
X546883Y313772D02*
Y317172D01*
X551883D01*
Y307172D02*
Y310572D01*
X546883Y307172D02*
Y310572D01*
Y307172D02*
X551883D01*
X747183Y307187D02*
X752183D01*
X747183D02*
Y310587D01*
X752183Y307187D02*
Y310587D01*
X747183Y317186D02*
X752183D01*
X747183Y313787D02*
Y317186D01*
X752183Y313787D02*
Y317186D01*
X181083Y320687D02*
Y324086D01*
X176083Y320687D02*
Y324086D01*
X181083D01*
Y314087D02*
Y317487D01*
X176083Y314087D02*
Y317487D01*
Y314087D02*
X181083D01*
X376193Y313826D02*
X381193D01*
X376193D02*
Y317227D01*
X381193Y313826D02*
Y317227D01*
X376193Y323827D02*
X381193D01*
X376193Y320427D02*
Y323827D01*
X381193Y320427D02*
Y323827D01*
X580883Y320772D02*
Y324171D01*
X575883Y320772D02*
Y324171D01*
X580883D01*
Y314172D02*
Y317571D01*
X575883Y314172D02*
Y317571D01*
Y314172D02*
X580883D01*
X781183Y320786D02*
Y324186D01*
X776183Y320786D02*
Y324186D01*
X781183D01*
Y314187D02*
Y317586D01*
X776183Y314187D02*
Y317586D01*
Y314187D02*
X781183D01*
X227283Y312431D02*
Y315831D01*
X222283Y312431D02*
Y315831D01*
X227283D01*
Y305831D02*
Y309231D01*
X222283Y305831D02*
Y309231D01*
Y305831D02*
X227283D01*
X422393Y305571D02*
X427393D01*
X422393D02*
Y308971D01*
X427393Y305571D02*
Y308971D01*
X422393Y315571D02*
X427393D01*
X422393Y312171D02*
Y315571D01*
X427393Y312171D02*
Y315571D01*
X627083Y312516D02*
Y315916D01*
X622083Y312516D02*
Y315916D01*
X627083D01*
Y305916D02*
Y309316D01*
X622083Y305916D02*
Y309316D01*
Y305916D02*
X627083D01*
X822383Y305931D02*
X827383D01*
X822383D02*
Y309331D01*
X827383Y305931D02*
Y309331D01*
X822383Y315931D02*
X827383D01*
X822383Y312531D02*
Y315931D01*
X827383Y312531D02*
Y315931D01*
X215283Y324786D02*
X218683D01*
X215283Y319787D02*
X218683D01*
X215283D02*
Y324786D01*
X221883D02*
X225283D01*
X221883Y319787D02*
X225283D01*
Y324786D01*
X425393Y319527D02*
Y324527D01*
X421993Y319527D02*
X425393D01*
X421993Y324527D02*
X425393D01*
X415393Y319527D02*
Y324527D01*
Y319527D02*
X418793D01*
X415393Y324527D02*
X418793D01*
X615083Y324871D02*
X618483D01*
X615083Y319871D02*
X618483D01*
X615083D02*
Y324871D01*
X621683D02*
X625083D01*
X621683Y319871D02*
X625083D01*
Y324871D01*
X825383Y319886D02*
Y324886D01*
X821983Y319886D02*
X825383D01*
X821983Y324886D02*
X825383D01*
X815383Y319886D02*
Y324886D01*
Y319886D02*
X818783D01*
X815383Y324886D02*
X818783D01*
X225783Y385787D02*
X229183D01*
X225783Y390787D02*
X229183D01*
Y385787D02*
Y390787D01*
X219183Y385787D02*
X222583D01*
X219183Y390787D02*
X222583D01*
X219183Y385787D02*
Y390787D01*
X419293Y385526D02*
Y390527D01*
X422693D01*
X419293Y385526D02*
X422693D01*
X429293D02*
Y390527D01*
X425893D02*
X429293D01*
X425893Y385526D02*
X429293D01*
X625583Y385872D02*
X628983D01*
X625583Y390872D02*
X628983D01*
Y385872D02*
Y390872D01*
X618983Y385872D02*
X622383D01*
X618983Y390872D02*
X622383D01*
X618983Y385872D02*
Y390872D01*
X819283Y385887D02*
Y390886D01*
X822683D01*
X819283Y385887D02*
X822683D01*
X829283D02*
Y390886D01*
X825883D02*
X829283D01*
X825883Y385887D02*
X829283D01*
X125183Y315886D02*
X128583D01*
X125183Y310887D02*
X128583D01*
X125183D02*
Y315886D01*
X131783D02*
X135183D01*
X131783Y310887D02*
X135183D01*
Y315886D01*
X335293Y310627D02*
Y315627D01*
X331893Y310627D02*
X335293D01*
X331893Y315627D02*
X335293D01*
X325293Y310627D02*
Y315627D01*
Y310627D02*
X328693D01*
X325293Y315627D02*
X328693D01*
X524983Y315971D02*
X528383D01*
X524983Y310971D02*
X528383D01*
X524983D02*
Y315971D01*
X531583D02*
X534983D01*
X531583Y310971D02*
X534983D01*
Y315971D01*
X735283Y310986D02*
Y315986D01*
X731883Y310986D02*
X735283D01*
X731883Y315986D02*
X735283D01*
X725283Y310986D02*
Y315986D01*
Y310986D02*
X728683D01*
X725283Y315986D02*
X728683D01*
X152283Y373687D02*
X155683D01*
X152283Y378686D02*
X155683D01*
Y373687D02*
Y378686D01*
X145683Y373687D02*
X149083D01*
X145683Y378686D02*
X149083D01*
X145683Y373687D02*
Y378686D01*
X345793Y373427D02*
Y378427D01*
X349193D01*
X345793Y373427D02*
X349193D01*
X355793D02*
Y378427D01*
X352393D02*
X355793D01*
X352393Y373427D02*
X355793D01*
X552083Y373772D02*
X555483D01*
X552083Y378771D02*
X555483D01*
Y373772D02*
Y378771D01*
X545483Y373772D02*
X548883D01*
X545483Y378771D02*
X548883D01*
X545483Y373772D02*
Y378771D01*
X745783Y373786D02*
Y378786D01*
X749183D01*
X745783Y373786D02*
X749183D01*
X755783D02*
Y378786D01*
X752383D02*
X755783D01*
X752383Y373786D02*
X755783D01*
X152383Y379386D02*
X155783D01*
X152383Y384386D02*
X155783D01*
Y379386D02*
Y384386D01*
X145783Y379386D02*
X149183D01*
X145783Y384386D02*
X149183D01*
X145783Y379386D02*
Y384386D01*
X345893Y379127D02*
Y384126D01*
X349293D01*
X345893Y379127D02*
X349293D01*
X355893D02*
Y384126D01*
X352493D02*
X355893D01*
X352493Y379127D02*
X355893D01*
X552183Y379471D02*
X555583D01*
X552183Y384472D02*
X555583D01*
Y379471D02*
Y384472D01*
X545583Y379471D02*
X548983D01*
X545583Y384472D02*
X548983D01*
X545583Y379471D02*
Y384472D01*
X745883Y379486D02*
Y384487D01*
X749283D01*
X745883Y379486D02*
X749283D01*
X755883D02*
Y384487D01*
X752483D02*
X755883D01*
X752483Y379486D02*
X755883D01*
X153383Y323987D02*
X156783D01*
X153383Y328987D02*
X156783D01*
Y323987D02*
Y328987D01*
X146783Y323987D02*
X150183D01*
X146783Y328987D02*
X150183D01*
X146783Y323987D02*
Y328987D01*
X346893Y323727D02*
Y328727D01*
X350293D01*
X346893Y323727D02*
X350293D01*
X356893D02*
Y328727D01*
X353493D02*
X356893D01*
X353493Y323727D02*
X356893D01*
X553183Y324072D02*
X556583D01*
X553183Y329071D02*
X556583D01*
Y324072D02*
Y329071D01*
X546583Y324072D02*
X549983D01*
X546583Y329071D02*
X549983D01*
X546583Y324072D02*
Y329071D01*
X746883Y324086D02*
Y329086D01*
X750283D01*
X746883Y324086D02*
X750283D01*
X756883D02*
Y329086D01*
X753483D02*
X756883D01*
X753483Y324086D02*
X756883D01*
X153283Y317886D02*
X156683D01*
X153283Y322886D02*
X156683D01*
Y317886D02*
Y322886D01*
X146683Y317886D02*
X150083D01*
X146683Y322886D02*
X150083D01*
X146683Y317886D02*
Y322886D01*
X346793Y317627D02*
Y322626D01*
X350193D01*
X346793Y317627D02*
X350193D01*
X356793D02*
Y322626D01*
X353393D02*
X356793D01*
X353393Y317627D02*
X356793D01*
X553083Y317971D02*
X556483D01*
X553083Y322972D02*
X556483D01*
Y317971D02*
Y322972D01*
X546483Y317971D02*
X549883D01*
X546483Y322972D02*
X549883D01*
X546483Y317971D02*
Y322972D01*
X746783Y317986D02*
Y322987D01*
X750183D01*
X746783Y317986D02*
X750183D01*
X756783D02*
Y322987D01*
X753383D02*
X756783D01*
X753383Y317986D02*
X756783D01*
X214283Y305331D02*
Y308731D01*
X219283Y305331D02*
Y308731D01*
X214283Y305331D02*
X219283D01*
X214283Y311931D02*
Y315331D01*
X219283Y311931D02*
Y315331D01*
X214283D02*
X219283D01*
X414393Y315071D02*
X419393D01*
Y311671D02*
Y315071D01*
X414393Y311671D02*
Y315071D01*
Y305071D02*
X419393D01*
Y308471D01*
X414393Y305071D02*
Y308471D01*
X614083Y305416D02*
Y308816D01*
X619083Y305416D02*
Y308816D01*
X614083Y305416D02*
X619083D01*
X614083Y312016D02*
Y315416D01*
X619083Y312016D02*
Y315416D01*
X614083D02*
X619083D01*
X814383Y315431D02*
X819383D01*
Y312031D02*
Y315431D01*
X814383Y312031D02*
Y315431D01*
Y305431D02*
X819383D01*
Y308831D01*
X814383Y305431D02*
Y308831D01*
X212483Y379686D02*
Y383686D01*
X219483D01*
Y379686D02*
Y383686D01*
X212483Y370687D02*
Y374687D01*
Y370687D02*
X219483D01*
Y374687D01*
X419593Y370427D02*
Y374427D01*
X412593Y370427D02*
X419593D01*
X412593D02*
Y374427D01*
X419593Y379427D02*
Y383426D01*
X412593D02*
X419593D01*
X412593Y379427D02*
Y383426D01*
X612283Y379771D02*
Y383771D01*
X619283D01*
Y379771D02*
Y383771D01*
X612283Y370772D02*
Y374771D01*
Y370772D02*
X619283D01*
Y374771D01*
X819583Y370786D02*
Y374786D01*
X812583Y370786D02*
X819583D01*
X812583D02*
Y374786D01*
X819583Y379786D02*
Y383787D01*
X812583D02*
X819583D01*
X812583Y379786D02*
Y383787D01*
X131827Y304786D02*
X135227D01*
X131827Y309787D02*
X135227D01*
Y304786D02*
Y309787D01*
X125227Y304786D02*
X128627D01*
X125227Y309787D02*
X128627D01*
X125227Y304786D02*
Y309787D01*
X325337Y304526D02*
Y309526D01*
X328737D01*
X325337Y304526D02*
X328737D01*
X335337D02*
Y309526D01*
X331937D02*
X335337D01*
X331937Y304526D02*
X335337D01*
X531627Y304872D02*
X535027D01*
X531627Y309872D02*
X535027D01*
Y304872D02*
Y309872D01*
X525027Y304872D02*
X528427D01*
X525027Y309872D02*
X528427D01*
X525027Y304872D02*
Y309872D01*
X725327Y304887D02*
Y309887D01*
X728727D01*
X725327Y304887D02*
X728727D01*
X735327D02*
Y309887D01*
X731927D02*
X735327D01*
X731927Y304887D02*
X735327D01*
X175683Y320586D02*
Y323987D01*
X170683Y320586D02*
Y323987D01*
X175683D01*
Y313986D02*
Y317387D01*
X170683Y313986D02*
Y317387D01*
Y313986D02*
X175683D01*
X370793Y313726D02*
X375793D01*
X370793D02*
Y317126D01*
X375793Y313726D02*
Y317126D01*
X370793Y323727D02*
X375793D01*
X370793Y320326D02*
Y323727D01*
X375793Y320326D02*
Y323727D01*
X575483Y320672D02*
Y324072D01*
X570483Y320672D02*
Y324072D01*
X575483D01*
Y314071D02*
Y317472D01*
X570483Y314071D02*
Y317472D01*
Y314071D02*
X575483D01*
X770783Y314087D02*
X775783D01*
X770783D02*
Y317487D01*
X775783Y314087D02*
Y317487D01*
X770783Y324086D02*
X775783D01*
X770783Y320687D02*
Y324086D01*
X775783Y320687D02*
Y324086D01*
X163383Y321886D02*
Y325287D01*
X158383Y321886D02*
Y325287D01*
X163383D01*
Y315286D02*
Y318687D01*
X158383Y315286D02*
Y318687D01*
Y315286D02*
X163383D01*
X358493Y315026D02*
X363493D01*
X358493D02*
Y318426D01*
X363493Y315026D02*
Y318426D01*
X358493Y325026D02*
X363493D01*
X358493Y321626D02*
Y325026D01*
X363493Y321626D02*
Y325026D01*
X563183Y321972D02*
Y325372D01*
X558183Y321972D02*
Y325372D01*
X563183D01*
Y315371D02*
Y318772D01*
X558183Y315371D02*
Y318772D01*
Y315371D02*
X563183D01*
X758483Y315387D02*
X763483D01*
X758483D02*
Y318787D01*
X763483Y315387D02*
Y318787D01*
X758483Y325387D02*
X763483D01*
X758483Y321987D02*
Y325387D01*
X763483Y321987D02*
Y325387D01*
X152583Y339187D02*
X155983D01*
X152583Y344186D02*
X155983D01*
Y339187D02*
Y344186D01*
X145983Y339187D02*
X149383D01*
X145983Y344186D02*
X149383D01*
X145983Y339187D02*
Y344186D01*
X346093Y338927D02*
Y343927D01*
X349493D01*
X346093Y338927D02*
X349493D01*
X356093D02*
Y343927D01*
X352693D02*
X356093D01*
X352693Y338927D02*
X356093D01*
X552383Y339271D02*
X555783D01*
X552383Y344271D02*
X555783D01*
Y339271D02*
Y344271D01*
X545783Y339271D02*
X549183D01*
X545783Y344271D02*
X549183D01*
X545783Y339271D02*
Y344271D01*
X746083Y339286D02*
Y344286D01*
X749483D01*
X746083Y339286D02*
X749483D01*
X756083D02*
Y344286D01*
X752683D02*
X756083D01*
X752683Y339286D02*
X756083D01*
X152583Y365686D02*
X155983D01*
X152583Y370687D02*
X155983D01*
Y365686D02*
Y370687D01*
X145983Y365686D02*
X149383D01*
X145983Y370687D02*
X149383D01*
X145983Y365686D02*
Y370687D01*
X346093Y365426D02*
Y370427D01*
X349493D01*
X346093Y365426D02*
X349493D01*
X356093D02*
Y370427D01*
X352693D02*
X356093D01*
X352693Y365426D02*
X356093D01*
X552383Y365772D02*
X555783D01*
X552383Y370772D02*
X555783D01*
Y365772D02*
Y370772D01*
X545783Y365772D02*
X549183D01*
X545783Y370772D02*
X549183D01*
X545783Y365772D02*
Y370772D01*
X746083Y365787D02*
Y370786D01*
X749483D01*
X746083Y365787D02*
X749483D01*
X756083D02*
Y370786D01*
X752683D02*
X756083D01*
X752683Y365787D02*
X756083D01*
X158283Y379187D02*
Y382587D01*
X163283Y379187D02*
Y382587D01*
X158283Y379187D02*
X163283D01*
X158283Y385787D02*
Y389187D01*
X163283Y385787D02*
Y389187D01*
X158283D02*
X163283D01*
X358393Y388927D02*
X363393D01*
Y385526D02*
Y388927D01*
X358393Y385526D02*
Y388927D01*
Y378926D02*
X363393D01*
Y382327D01*
X358393Y378926D02*
Y382327D01*
X558083Y379272D02*
Y382671D01*
X563083Y379272D02*
Y382671D01*
X558083Y379272D02*
X563083D01*
X558083Y385872D02*
Y389271D01*
X563083Y385872D02*
Y389271D01*
X558083D02*
X563083D01*
X758383Y389286D02*
X763383D01*
Y385887D02*
Y389286D01*
X758383Y385887D02*
Y389286D01*
Y379287D02*
X763383D01*
Y382686D01*
X758383Y379287D02*
Y382686D01*
X179683Y378887D02*
Y382287D01*
X184683Y378887D02*
Y382287D01*
X179683Y378887D02*
X184683D01*
X179683Y385487D02*
Y388886D01*
X184683Y385487D02*
Y388886D01*
X179683D02*
X184683D01*
X379793Y388627D02*
X384793D01*
Y385226D02*
Y388627D01*
X379793Y385226D02*
Y388627D01*
Y378626D02*
X384793D01*
Y382027D01*
X379793Y378626D02*
Y382027D01*
X579483Y378972D02*
Y382371D01*
X584483Y378972D02*
Y382371D01*
X579483Y378972D02*
X584483D01*
X579483Y385572D02*
Y388971D01*
X584483Y385572D02*
Y388971D01*
X579483D02*
X584483D01*
X779783Y388986D02*
X784783D01*
Y385587D02*
Y388986D01*
X779783Y385587D02*
Y388986D01*
Y378987D02*
X784783D01*
Y382386D01*
X779783Y378987D02*
Y382386D01*
X199083Y377386D02*
Y380786D01*
X204083Y377386D02*
Y380786D01*
X199083Y377386D02*
X204083D01*
X199083Y383986D02*
Y387386D01*
X204083Y383986D02*
Y387386D01*
X199083D02*
X204083D01*
X399193Y387126D02*
X404193D01*
Y383727D02*
Y387126D01*
X399193Y383727D02*
Y387126D01*
Y377127D02*
X404193D01*
Y380526D01*
X399193Y377127D02*
Y380526D01*
X598883Y377471D02*
Y380872D01*
X603883Y377471D02*
Y380872D01*
X598883Y377471D02*
X603883D01*
X598883Y384071D02*
Y387472D01*
X603883Y384071D02*
Y387472D01*
X598883D02*
X603883D01*
X799183Y387487D02*
X804183D01*
Y384086D02*
Y387487D01*
X799183Y384086D02*
Y387487D01*
Y377486D02*
X804183D01*
Y380887D01*
X799183Y377486D02*
Y380887D01*
X215533Y334278D02*
X218933D01*
X215533Y329278D02*
X218933D01*
X215533D02*
Y334278D01*
X222133D02*
X225533D01*
X222133Y329278D02*
X225533D01*
Y334278D01*
X425643Y329018D02*
Y334018D01*
X422243Y329018D02*
X425643D01*
X422243Y334018D02*
X425643D01*
X415643Y329018D02*
Y334018D01*
Y329018D02*
X419043D01*
X415643Y334018D02*
X419043D01*
X615333Y334363D02*
X618733D01*
X615333Y329363D02*
X618733D01*
X615333D02*
Y334363D01*
X621933D02*
X625333D01*
X621933Y329363D02*
X625333D01*
Y334363D01*
X825633Y329378D02*
Y334378D01*
X822233Y329378D02*
X825633D01*
X822233Y334378D02*
X825633D01*
X815633Y329378D02*
Y334378D01*
Y329378D02*
X819033D01*
X815633Y334378D02*
X819033D01*
X209283Y317931D02*
Y321331D01*
X204283Y317931D02*
Y321331D01*
X209283D01*
Y311331D02*
Y314731D01*
X204283Y311331D02*
Y314731D01*
Y311331D02*
X209283D01*
X404393Y311071D02*
X409393D01*
X404393D02*
Y314471D01*
X409393Y311071D02*
Y314471D01*
X404393Y321071D02*
X409393D01*
X404393Y317671D02*
Y321071D01*
X409393Y317671D02*
Y321071D01*
X609083Y318016D02*
Y321416D01*
X604083Y318016D02*
Y321416D01*
X609083D01*
Y311416D02*
Y314816D01*
X604083Y311416D02*
Y314816D01*
Y311416D02*
X609083D01*
X804383Y311431D02*
X809383D01*
X804383D02*
Y314831D01*
X809383Y311431D02*
Y314831D01*
X804383Y321431D02*
X809383D01*
X804383Y318031D02*
Y321431D01*
X809383Y318031D02*
Y321431D01*
X215083Y356986D02*
X218483D01*
X215083Y351987D02*
X218483D01*
X215083D02*
Y356986D01*
X221683D02*
X225083D01*
X221683Y351987D02*
X225083D01*
Y356986D01*
X425193Y351727D02*
Y356727D01*
X421793Y351727D02*
X425193D01*
X421793Y356727D02*
X425193D01*
X415193Y351727D02*
Y356727D01*
Y351727D02*
X418593D01*
X415193Y356727D02*
X418593D01*
X614883Y357071D02*
X618283D01*
X614883Y352071D02*
X618283D01*
X614883D02*
Y357071D01*
X621483D02*
X624883D01*
X621483Y352071D02*
X624883D01*
Y357071D01*
X825183Y352086D02*
Y357086D01*
X821783Y352086D02*
X825183D01*
X821783Y357086D02*
X825183D01*
X815183Y352086D02*
Y357086D01*
Y352086D02*
X818583D01*
X815183Y357086D02*
X818583D01*
X169083Y321931D02*
Y325331D01*
X164083Y321931D02*
Y325331D01*
X169083D01*
Y315331D02*
Y318731D01*
X164083Y315331D02*
Y318731D01*
Y315331D02*
X169083D01*
X364193Y315071D02*
X369193D01*
X364193D02*
Y318471D01*
X369193Y315071D02*
Y318471D01*
X364193Y325071D02*
X369193D01*
X364193Y321671D02*
Y325071D01*
X369193Y321671D02*
Y325071D01*
X568883Y322016D02*
Y325416D01*
X563883Y322016D02*
Y325416D01*
X568883D01*
Y315416D02*
Y318816D01*
X563883Y315416D02*
Y318816D01*
Y315416D02*
X568883D01*
X764183Y315431D02*
X769183D01*
X764183D02*
Y318831D01*
X769183Y315431D02*
Y318831D01*
X764183Y325431D02*
X769183D01*
X764183Y322031D02*
Y325431D01*
X769183Y322031D02*
Y325431D01*
X155683Y355786D02*
X159683D01*
Y348786D02*
Y355786D01*
X155683Y348786D02*
X159683D01*
X146683Y355786D02*
X150683D01*
X146683Y348786D02*
Y355786D01*
Y348786D02*
X150683D01*
X346793Y348527D02*
X350793D01*
X346793D02*
Y355526D01*
X350793D01*
X355793Y348527D02*
X359793D01*
Y355526D01*
X355793D02*
X359793D01*
X555483Y355872D02*
X559483D01*
Y348871D02*
Y355872D01*
X555483Y348871D02*
X559483D01*
X546483Y355872D02*
X550483D01*
X546483Y348871D02*
Y355872D01*
Y348871D02*
X550483D01*
X746783Y348886D02*
X750783D01*
X746783D02*
Y355887D01*
X750783D01*
X755783Y348886D02*
X759783D01*
Y355887D01*
X755783D02*
X759783D01*
X249420Y379486D02*
X253420D01*
Y372486D02*
Y379486D01*
X249420Y372486D02*
X253420D01*
X240420Y379486D02*
X244420D01*
X240420Y372486D02*
Y379486D01*
Y372486D02*
X244420D01*
X449530Y379226D02*
X453530D01*
Y372227D02*
Y379226D01*
X449530Y372227D02*
X453530D01*
X440530Y379226D02*
X444530D01*
X440530Y372227D02*
Y379226D01*
Y372227D02*
X444530D01*
X640220Y372571D02*
X644220D01*
X640220D02*
Y379572D01*
X644220D01*
X649220Y372571D02*
X653220D01*
Y379572D01*
X649220D02*
X653220D01*
X849520Y379587D02*
X853520D01*
Y372586D02*
Y379587D01*
X849520Y372586D02*
X853520D01*
X840520Y379587D02*
X844520D01*
X840520Y372586D02*
Y379587D01*
Y372586D02*
X844520D01*
X179649Y385345D02*
Y388745D01*
X174649Y385345D02*
Y388745D01*
X179649D01*
Y378745D02*
Y382145D01*
X174649Y378745D02*
Y382145D01*
Y378745D02*
X179649D01*
X374759Y378485D02*
X379759D01*
X374759D02*
Y381885D01*
X379759Y378485D02*
Y381885D01*
X374759Y388485D02*
X379759D01*
X374759Y385085D02*
Y388485D01*
X379759Y385085D02*
Y388485D01*
X579449Y385430D02*
Y388830D01*
X574449Y385430D02*
Y388830D01*
X579449D01*
Y378830D02*
Y382230D01*
X574449Y378830D02*
Y382230D01*
Y378830D02*
X579449D01*
X774749Y378845D02*
X779749D01*
X774749D02*
Y382245D01*
X779749Y378845D02*
Y382245D01*
X774749Y388845D02*
X779749D01*
X774749Y385445D02*
Y388845D01*
X779749Y385445D02*
Y388845D01*
X240420Y385686D02*
X243820D01*
X240420Y380686D02*
X243820D01*
X240420D02*
Y385686D01*
X247020D02*
X250420D01*
X247020Y380686D02*
X250420D01*
Y385686D01*
X450530Y380427D02*
Y385426D01*
X447130Y380427D02*
X450530D01*
X447130Y385426D02*
X450530D01*
X440530Y380427D02*
Y385426D01*
Y380427D02*
X443930D01*
X440530Y385426D02*
X443930D01*
X640220Y385771D02*
X643620D01*
X640220Y380771D02*
X643620D01*
X640220D02*
Y385771D01*
X646820D02*
X650220D01*
X646820Y380771D02*
X650220D01*
Y385771D01*
X850520Y380786D02*
Y385787D01*
X847120Y380786D02*
X850520D01*
X847120Y385787D02*
X850520D01*
X840520Y380786D02*
Y385787D01*
Y380786D02*
X843920D01*
X840520Y385787D02*
X843920D01*
X240420Y386277D02*
Y391277D01*
X243820D01*
X240420Y386277D02*
X243820D01*
X250420D02*
Y391277D01*
X247020D02*
X250420D01*
X247020Y386277D02*
X250420D01*
X440530Y386017D02*
Y391017D01*
X443930D01*
X440530Y386017D02*
X443930D01*
X450530D02*
Y391017D01*
X447130D02*
X450530D01*
X447130Y386017D02*
X450530D01*
X646820Y386362D02*
X650220D01*
X646820Y391361D02*
X650220D01*
Y386362D02*
Y391361D01*
X640220Y386362D02*
X643620D01*
X640220Y391361D02*
X643620D01*
X640220Y386362D02*
Y391361D01*
X847120Y386377D02*
X850520D01*
X847120Y391376D02*
X850520D01*
Y386377D02*
Y391376D01*
X840520Y386377D02*
X843920D01*
X840520Y391376D02*
X843920D01*
X840520Y386377D02*
Y391376D01*
X325493Y322626D02*
X328893D01*
X325493Y317627D02*
X328893D01*
X325493D02*
Y322626D01*
X332093D02*
X335493D01*
X332093Y317627D02*
X335493D01*
Y322626D01*
X325493Y328727D02*
X328893D01*
X325493Y323727D02*
X328893D01*
X325493D02*
Y328727D01*
X332093D02*
X335493D01*
X332093Y323727D02*
X335493D01*
Y328727D01*
X354393Y356727D02*
X357793D01*
X354393Y361726D02*
X357793D01*
Y356727D02*
Y361726D01*
X347793Y356727D02*
X351193D01*
X347793Y361726D02*
X351193D01*
X347793Y356727D02*
Y361726D01*
X321693Y339482D02*
Y342882D01*
X316693Y339482D02*
Y342882D01*
X321693D01*
Y332882D02*
Y336282D01*
X316693Y332882D02*
Y336282D01*
Y332882D02*
X321693D01*
X394983Y385226D02*
Y388627D01*
X389983Y385226D02*
Y388627D01*
X394983D01*
Y378626D02*
Y382027D01*
X389983Y378626D02*
Y382027D01*
Y378626D02*
X394983D01*
X400423Y375107D02*
X403823D01*
X400423Y370107D02*
X403823D01*
X400423D02*
Y375107D01*
X407023D02*
X410423D01*
X407023Y370107D02*
X410423D01*
Y375107D01*
X190113Y378887D02*
X195113D01*
X190113D02*
Y382287D01*
X195113Y378887D02*
Y382287D01*
X190113Y388886D02*
X195113D01*
X190113Y385487D02*
Y388886D01*
X195113Y385487D02*
Y388886D01*
X199963Y370497D02*
Y375497D01*
X203363D01*
X199963Y370497D02*
X203363D01*
X209963D02*
Y375497D01*
X206563D02*
X209963D01*
X206563Y370497D02*
X209963D01*
X589693Y388971D02*
X594693D01*
Y385572D02*
Y388971D01*
X589693Y385572D02*
Y388971D01*
Y378972D02*
X594693D01*
Y382371D01*
X589693Y378972D02*
Y382371D01*
X599723Y370556D02*
Y375556D01*
X603123D01*
X599723Y370556D02*
X603123D01*
X609723D02*
Y375556D01*
X606323D02*
X609723D01*
X606323Y370556D02*
X609723D01*
X116583Y333142D02*
X121583D01*
X116583D02*
Y336543D01*
X121583Y333142D02*
Y336543D01*
X116583Y343143D02*
X121583D01*
X116583Y339742D02*
Y343143D01*
X121583Y339742D02*
Y343143D01*
X147683Y356986D02*
Y361986D01*
X151083D01*
X147683Y356986D02*
X151083D01*
X157683D02*
Y361986D01*
X154283D02*
X157683D01*
X154283Y356986D02*
X157683D01*
X135383Y323987D02*
Y328987D01*
X131983Y323987D02*
X135383D01*
X131983Y328987D02*
X135383D01*
X125383Y323987D02*
Y328987D01*
Y323987D02*
X128783D01*
X125383Y328987D02*
X128783D01*
X135383Y317886D02*
Y322886D01*
X131983Y317886D02*
X135383D01*
X131983Y322886D02*
X135383D01*
X125383Y317886D02*
Y322886D01*
Y317886D02*
X128783D01*
X125383Y322886D02*
X128783D01*
X516383Y333227D02*
X521383D01*
X516383D02*
Y336627D01*
X521383Y333227D02*
Y336627D01*
X516383Y343227D02*
X521383D01*
X516383Y339827D02*
Y343227D01*
X521383Y339827D02*
Y343227D01*
X547483Y357071D02*
Y362071D01*
X550883D01*
X547483Y357071D02*
X550883D01*
X557483D02*
Y362071D01*
X554083D02*
X557483D01*
X554083Y357071D02*
X557483D01*
X535183Y324072D02*
Y329071D01*
X531783Y324072D02*
X535183D01*
X531783Y329071D02*
X535183D01*
X525183Y324072D02*
Y329071D01*
Y324072D02*
X528583D01*
X525183Y329071D02*
X528583D01*
X535183Y317971D02*
Y322972D01*
X531783Y317971D02*
X535183D01*
X531783Y322972D02*
X535183D01*
X525183Y317971D02*
Y322972D01*
Y317971D02*
X528583D01*
X525183Y322972D02*
X528583D01*
X810073Y370786D02*
Y375786D01*
X806673Y370786D02*
X810073D01*
X806673Y375786D02*
X810073D01*
X800073Y370786D02*
Y375786D01*
Y370786D02*
X803473D01*
X800073Y375786D02*
X803473D01*
X790843Y388986D02*
X795843D01*
Y385587D02*
Y388986D01*
X790843Y385587D02*
Y388986D01*
Y378987D02*
X795843D01*
Y382386D01*
X790843Y378987D02*
Y382386D01*
X725483Y329086D02*
X728883D01*
X725483Y324086D02*
X728883D01*
X725483D02*
Y329086D01*
X732083D02*
X735483D01*
X732083Y324086D02*
X735483D01*
Y329086D01*
X725483Y322987D02*
X728883D01*
X725483Y317986D02*
X728883D01*
X725483D02*
Y322987D01*
X732083D02*
X735483D01*
X732083Y317986D02*
X735483D01*
Y322987D01*
X747783Y357086D02*
Y362087D01*
X751183D01*
X747783Y357086D02*
X751183D01*
X757783D02*
Y362087D01*
X754383D02*
X757783D01*
X754383Y357086D02*
X757783D01*
X721683Y339843D02*
Y343243D01*
X716683Y339843D02*
Y343243D01*
X721683D01*
Y333243D02*
Y336643D01*
X716683Y333243D02*
Y336643D01*
Y333243D02*
X721683D01*
D16*
X41722Y117414D02*
X59222D01*
X41722Y134414D02*
X59222D01*
D18*
X0Y-100D02*
X919600D01*
X920300Y600D01*
Y435000D01*
X-100D02*
X920300D01*
X-100Y0D02*
Y435000D01*
M02*
