G04*
G04 #@! TF.GenerationSoftware,Altium Limited,Altium Designer,18.1.7 (191)*
G04*
G04 Layer_Color=65535*
%FSLAX25Y25*%
%MOIN*%
G70*
G01*
G75*
%ADD10C,0.00984*%
%ADD11C,0.00787*%
%ADD12C,0.01500*%
%ADD13C,0.00394*%
%ADD14C,0.00500*%
%ADD15C,0.00800*%
%ADD16C,0.01000*%
%ADD17C,0.00400*%
%ADD18C,0.04000*%
G36*
X83684Y388848D02*
X86684D01*
X83684Y391848D01*
Y388848D01*
D02*
G37*
G36*
X146910Y389111D02*
Y386111D01*
X149910Y389111D01*
X146910D01*
D02*
G37*
G36*
X347020Y388851D02*
Y385851D01*
X350020Y388851D01*
X347020D01*
D02*
G37*
G36*
X546710Y389196D02*
Y386196D01*
X549710Y389196D01*
X546710D01*
D02*
G37*
G36*
X747010Y389211D02*
Y386211D01*
X750010Y389211D01*
X747010D01*
D02*
G37*
G36*
X18073Y91906D02*
X18133Y91902D01*
X18203Y91895D01*
X18277Y91887D01*
X18358Y91880D01*
X18443Y91865D01*
X18532Y91847D01*
X18617Y91828D01*
X18702Y91802D01*
X18788Y91776D01*
X18865Y91739D01*
X18939Y91702D01*
X19002Y91658D01*
X19006Y91654D01*
X19013Y91647D01*
X19028Y91636D01*
X19043Y91621D01*
X19061Y91599D01*
X19083Y91573D01*
X19109Y91539D01*
X19132Y91506D01*
X19158Y91465D01*
X19183Y91425D01*
X19206Y91377D01*
X19224Y91325D01*
X19239Y91269D01*
X19254Y91206D01*
X19261Y91144D01*
X19265Y91077D01*
Y91062D01*
X19261Y91040D01*
Y91014D01*
X19257Y90984D01*
X19250Y90947D01*
X19243Y90907D01*
X19228Y90862D01*
X19213Y90814D01*
X19195Y90766D01*
X19172Y90714D01*
X19143Y90666D01*
X19113Y90614D01*
X19072Y90566D01*
X19032Y90518D01*
X18980Y90474D01*
X18976Y90470D01*
X18965Y90463D01*
X18947Y90452D01*
X18924Y90440D01*
X18891Y90422D01*
X18850Y90403D01*
X18799Y90381D01*
X18743Y90363D01*
X18677Y90341D01*
X18602Y90318D01*
X18517Y90300D01*
X18425Y90285D01*
X18321Y90270D01*
X18207Y90259D01*
X18085Y90252D01*
X17951Y90248D01*
X17948D01*
X17944D01*
X17933D01*
X17918D01*
X17881D01*
X17833Y90252D01*
X17774Y90255D01*
X17703Y90263D01*
X17629Y90270D01*
X17548Y90278D01*
X17463Y90293D01*
X17378Y90307D01*
X17289Y90329D01*
X17204Y90352D01*
X17122Y90381D01*
X17045Y90415D01*
X16971Y90452D01*
X16908Y90496D01*
X16904Y90500D01*
X16897Y90507D01*
X16882Y90518D01*
X16867Y90537D01*
X16845Y90555D01*
X16823Y90581D01*
X16801Y90614D01*
X16775Y90648D01*
X16749Y90688D01*
X16727Y90729D01*
X16704Y90777D01*
X16682Y90829D01*
X16667Y90885D01*
X16653Y90947D01*
X16645Y91010D01*
X16642Y91077D01*
Y91114D01*
X16645Y91140D01*
X16649Y91169D01*
X16656Y91206D01*
X16664Y91243D01*
X16675Y91288D01*
X16690Y91336D01*
X16708Y91380D01*
X16727Y91428D01*
X16752Y91477D01*
X16786Y91525D01*
X16819Y91573D01*
X16860Y91617D01*
X16908Y91658D01*
X16912Y91662D01*
X16923Y91669D01*
X16941Y91680D01*
X16967Y91698D01*
X17004Y91717D01*
X17049Y91739D01*
X17097Y91761D01*
X17160Y91784D01*
X17226Y91806D01*
X17304Y91832D01*
X17389Y91850D01*
X17485Y91869D01*
X17589Y91887D01*
X17700Y91898D01*
X17822Y91906D01*
X17955Y91909D01*
X17959D01*
X17962D01*
X17974D01*
X17988D01*
X18025D01*
X18073Y91906D01*
D02*
G37*
G36*
X19217Y89020D02*
X17363D01*
X17367Y89016D01*
X17374Y89009D01*
X17385Y88994D01*
X17404Y88972D01*
X17426Y88946D01*
X17448Y88916D01*
X17474Y88879D01*
X17504Y88838D01*
X17533Y88794D01*
X17563Y88746D01*
X17596Y88694D01*
X17626Y88639D01*
X17681Y88520D01*
X17733Y88387D01*
X17289D01*
Y88391D01*
X17285Y88394D01*
X17282Y88406D01*
X17278Y88420D01*
X17259Y88457D01*
X17237Y88509D01*
X17208Y88572D01*
X17167Y88642D01*
X17115Y88720D01*
X17056Y88801D01*
X17052Y88805D01*
X17049Y88813D01*
X17037Y88824D01*
X17023Y88838D01*
X16986Y88879D01*
X16938Y88924D01*
X16878Y88975D01*
X16804Y89027D01*
X16727Y89075D01*
X16642Y89112D01*
Y89512D01*
X19217D01*
Y89020D01*
D02*
G37*
G36*
X28055Y90093D02*
X28114Y90089D01*
X28181Y90082D01*
X28251Y90074D01*
X28329Y90063D01*
X28414Y90048D01*
X28495Y90034D01*
X28580Y90011D01*
X28665Y89985D01*
X28743Y89956D01*
X28821Y89919D01*
X28891Y89882D01*
X28954Y89834D01*
X28958Y89830D01*
X28969Y89823D01*
X28984Y89808D01*
X29002Y89786D01*
X29024Y89760D01*
X29054Y89730D01*
X29080Y89693D01*
X29109Y89652D01*
X29139Y89608D01*
X29165Y89556D01*
X29191Y89501D01*
X29217Y89442D01*
X29235Y89375D01*
X29250Y89308D01*
X29261Y89238D01*
X29265Y89160D01*
Y89131D01*
X29261Y89112D01*
Y89086D01*
X29257Y89057D01*
X29246Y88986D01*
X29224Y88909D01*
X29198Y88831D01*
X29158Y88750D01*
X29135Y88713D01*
X29106Y88676D01*
X29102Y88672D01*
X29098Y88668D01*
X29087Y88657D01*
X29076Y88646D01*
X29058Y88631D01*
X29039Y88613D01*
X29013Y88598D01*
X28987Y88576D01*
X28954Y88557D01*
X28921Y88535D01*
X28880Y88516D01*
X28836Y88498D01*
X28791Y88480D01*
X28739Y88465D01*
X28688Y88450D01*
X28628Y88439D01*
X28573Y88912D01*
X28580D01*
X28599Y88916D01*
X28625Y88920D01*
X28654Y88931D01*
X28691Y88942D01*
X28728Y88957D01*
X28762Y88975D01*
X28791Y89001D01*
X28795Y89005D01*
X28802Y89016D01*
X28813Y89031D01*
X28824Y89053D01*
X28836Y89083D01*
X28847Y89112D01*
X28854Y89153D01*
X28858Y89194D01*
Y89201D01*
X28854Y89219D01*
X28850Y89245D01*
X28839Y89282D01*
X28824Y89323D01*
X28799Y89364D01*
X28765Y89408D01*
X28721Y89449D01*
X28714Y89453D01*
X28706Y89460D01*
X28691Y89467D01*
X28677Y89475D01*
X28654Y89486D01*
X28628Y89493D01*
X28595Y89508D01*
X28558Y89519D01*
X28517Y89530D01*
X28469Y89541D01*
X28418Y89552D01*
X28358Y89564D01*
X28292Y89571D01*
X28218Y89578D01*
X28140Y89586D01*
X28144Y89582D01*
X28147Y89578D01*
X28159Y89567D01*
X28173Y89552D01*
X28188Y89534D01*
X28207Y89512D01*
X28247Y89460D01*
X28288Y89393D01*
X28321Y89312D01*
X28336Y89268D01*
X28343Y89223D01*
X28351Y89175D01*
X28355Y89123D01*
Y89094D01*
X28351Y89072D01*
X28347Y89046D01*
X28343Y89016D01*
X28325Y88946D01*
X28299Y88864D01*
X28277Y88824D01*
X28255Y88779D01*
X28229Y88735D01*
X28199Y88690D01*
X28162Y88646D01*
X28122Y88605D01*
X28118Y88602D01*
X28110Y88594D01*
X28096Y88587D01*
X28081Y88572D01*
X28055Y88554D01*
X28029Y88535D01*
X27996Y88516D01*
X27959Y88498D01*
X27918Y88476D01*
X27870Y88457D01*
X27822Y88439D01*
X27766Y88420D01*
X27711Y88406D01*
X27648Y88398D01*
X27581Y88391D01*
X27515Y88387D01*
X27511D01*
X27496D01*
X27478D01*
X27448Y88391D01*
X27415Y88394D01*
X27378Y88398D01*
X27333Y88406D01*
X27289Y88417D01*
X27189Y88442D01*
X27134Y88461D01*
X27082Y88483D01*
X27030Y88509D01*
X26978Y88542D01*
X26930Y88576D01*
X26882Y88616D01*
X26878Y88620D01*
X26871Y88627D01*
X26860Y88639D01*
X26845Y88657D01*
X26827Y88683D01*
X26804Y88709D01*
X26786Y88742D01*
X26760Y88779D01*
X26738Y88816D01*
X26719Y88864D01*
X26697Y88912D01*
X26678Y88964D01*
X26664Y89020D01*
X26653Y89079D01*
X26645Y89138D01*
X26641Y89205D01*
Y89223D01*
X26645Y89242D01*
Y89271D01*
X26649Y89305D01*
X26656Y89342D01*
X26667Y89386D01*
X26678Y89430D01*
X26697Y89482D01*
X26715Y89534D01*
X26741Y89586D01*
X26771Y89641D01*
X26804Y89693D01*
X26845Y89745D01*
X26893Y89797D01*
X26945Y89845D01*
X26949Y89849D01*
X26960Y89856D01*
X26978Y89867D01*
X27004Y89885D01*
X27037Y89904D01*
X27078Y89926D01*
X27126Y89948D01*
X27182Y89971D01*
X27248Y89993D01*
X27322Y90019D01*
X27404Y90037D01*
X27492Y90056D01*
X27592Y90074D01*
X27700Y90085D01*
X27814Y90093D01*
X27940Y90096D01*
X27944D01*
X27948D01*
X27959D01*
X27970D01*
X28007D01*
X28055Y90093D01*
D02*
G37*
G36*
X29217Y35020D02*
X27363D01*
X27367Y35016D01*
X27374Y35009D01*
X27385Y34994D01*
X27404Y34972D01*
X27426Y34946D01*
X27448Y34916D01*
X27474Y34879D01*
X27504Y34838D01*
X27533Y34794D01*
X27563Y34746D01*
X27596Y34694D01*
X27626Y34639D01*
X27681Y34520D01*
X27733Y34387D01*
X27289D01*
Y34391D01*
X27285Y34394D01*
X27282Y34405D01*
X27278Y34420D01*
X27259Y34457D01*
X27237Y34509D01*
X27208Y34572D01*
X27167Y34642D01*
X27115Y34720D01*
X27056Y34801D01*
X27052Y34805D01*
X27049Y34813D01*
X27037Y34824D01*
X27023Y34838D01*
X26986Y34879D01*
X26937Y34923D01*
X26878Y34975D01*
X26804Y35027D01*
X26727Y35075D01*
X26641Y35112D01*
Y35512D01*
X29217D01*
Y35020D01*
D02*
G37*
G36*
X19217Y32387D02*
X19213D01*
X19206D01*
X19191Y32391D01*
X19172Y32394D01*
X19150Y32398D01*
X19124Y32402D01*
X19058Y32417D01*
X18984Y32439D01*
X18902Y32468D01*
X18813Y32505D01*
X18728Y32553D01*
X18725D01*
X18717Y32561D01*
X18702Y32568D01*
X18688Y32583D01*
X18662Y32598D01*
X18636Y32620D01*
X18602Y32646D01*
X18565Y32676D01*
X18521Y32709D01*
X18477Y32750D01*
X18425Y32794D01*
X18369Y32846D01*
X18314Y32901D01*
X18251Y32964D01*
X18184Y33031D01*
X18114Y33105D01*
X18110Y33108D01*
X18099Y33120D01*
X18085Y33134D01*
X18062Y33157D01*
X18040Y33186D01*
X18011Y33216D01*
X17944Y33282D01*
X17874Y33349D01*
X17803Y33416D01*
X17774Y33445D01*
X17740Y33475D01*
X17715Y33497D01*
X17692Y33512D01*
X17685Y33516D01*
X17666Y33527D01*
X17637Y33545D01*
X17596Y33564D01*
X17552Y33582D01*
X17500Y33601D01*
X17448Y33612D01*
X17393Y33615D01*
X17389D01*
X17385D01*
X17367D01*
X17333Y33612D01*
X17296Y33604D01*
X17256Y33593D01*
X17215Y33578D01*
X17174Y33556D01*
X17137Y33527D01*
X17134Y33523D01*
X17122Y33512D01*
X17108Y33490D01*
X17093Y33464D01*
X17078Y33427D01*
X17063Y33386D01*
X17052Y33338D01*
X17049Y33282D01*
Y33257D01*
X17052Y33227D01*
X17060Y33194D01*
X17071Y33153D01*
X17089Y33112D01*
X17111Y33072D01*
X17141Y33035D01*
X17145Y33031D01*
X17160Y33020D01*
X17182Y33005D01*
X17215Y32990D01*
X17256Y32972D01*
X17311Y32957D01*
X17374Y32942D01*
X17448Y32935D01*
X17400Y32446D01*
X17396D01*
X17381Y32450D01*
X17363D01*
X17333Y32457D01*
X17300Y32461D01*
X17263Y32472D01*
X17222Y32483D01*
X17174Y32494D01*
X17082Y32531D01*
X16986Y32576D01*
X16938Y32605D01*
X16893Y32639D01*
X16856Y32676D01*
X16819Y32716D01*
X16815Y32720D01*
X16812Y32727D01*
X16804Y32739D01*
X16790Y32757D01*
X16778Y32779D01*
X16764Y32809D01*
X16745Y32838D01*
X16730Y32875D01*
X16712Y32916D01*
X16697Y32961D01*
X16667Y33057D01*
X16649Y33171D01*
X16645Y33231D01*
X16642Y33294D01*
Y33331D01*
X16645Y33356D01*
X16649Y33390D01*
X16653Y33427D01*
X16660Y33467D01*
X16667Y33512D01*
X16693Y33608D01*
X16730Y33704D01*
X16752Y33756D01*
X16778Y33800D01*
X16812Y33849D01*
X16849Y33889D01*
X16852Y33893D01*
X16856Y33900D01*
X16871Y33908D01*
X16886Y33922D01*
X16904Y33941D01*
X16930Y33959D01*
X16956Y33978D01*
X16989Y34000D01*
X17063Y34037D01*
X17148Y34074D01*
X17197Y34089D01*
X17248Y34096D01*
X17304Y34104D01*
X17359Y34108D01*
X17367D01*
X17389D01*
X17422Y34104D01*
X17463Y34100D01*
X17515Y34093D01*
X17570Y34082D01*
X17629Y34067D01*
X17689Y34045D01*
X17696Y34041D01*
X17715Y34034D01*
X17748Y34019D01*
X17788Y33996D01*
X17837Y33971D01*
X17892Y33937D01*
X17951Y33897D01*
X18014Y33849D01*
X18018Y33845D01*
X18036Y33830D01*
X18062Y33808D01*
X18099Y33775D01*
X18144Y33730D01*
X18203Y33675D01*
X18266Y33608D01*
X18343Y33527D01*
X18347Y33523D01*
X18351Y33516D01*
X18362Y33504D01*
X18377Y33490D01*
X18414Y33449D01*
X18458Y33401D01*
X18506Y33353D01*
X18554Y33305D01*
X18595Y33260D01*
X18614Y33245D01*
X18628Y33231D01*
X18632Y33227D01*
X18640Y33220D01*
X18654Y33208D01*
X18673Y33194D01*
X18713Y33160D01*
X18762Y33131D01*
Y34108D01*
X19217D01*
Y32387D01*
D02*
G37*
%LPC*%
G36*
X18036Y91391D02*
X17955D01*
X17951D01*
X17936D01*
X17911D01*
X17881D01*
X17844D01*
X17803Y91388D01*
X17755D01*
X17707Y91384D01*
X17604Y91380D01*
X17504Y91373D01*
X17456Y91365D01*
X17407Y91358D01*
X17367Y91351D01*
X17333Y91343D01*
X17330D01*
X17326Y91340D01*
X17308Y91336D01*
X17278Y91325D01*
X17241Y91314D01*
X17204Y91295D01*
X17167Y91277D01*
X17134Y91255D01*
X17108Y91232D01*
X17104Y91229D01*
X17097Y91221D01*
X17089Y91206D01*
X17078Y91188D01*
X17067Y91166D01*
X17056Y91140D01*
X17052Y91110D01*
X17049Y91077D01*
Y91062D01*
X17052Y91044D01*
X17056Y91025D01*
X17063Y90999D01*
X17074Y90973D01*
X17089Y90944D01*
X17108Y90918D01*
X17111Y90914D01*
X17119Y90907D01*
X17134Y90896D01*
X17152Y90881D01*
X17182Y90862D01*
X17215Y90847D01*
X17259Y90829D01*
X17311Y90814D01*
X17315D01*
X17319Y90811D01*
X17333D01*
X17348Y90807D01*
X17370Y90803D01*
X17396Y90799D01*
X17426Y90796D01*
X17463Y90792D01*
X17507Y90785D01*
X17552Y90781D01*
X17607Y90777D01*
X17663Y90773D01*
X17729Y90770D01*
X17796D01*
X17874Y90766D01*
X17955D01*
X17959D01*
X17974D01*
X17999D01*
X18029D01*
X18066D01*
X18107Y90770D01*
X18155D01*
X18203Y90773D01*
X18306Y90777D01*
X18410Y90785D01*
X18458Y90788D01*
X18503Y90796D01*
X18543Y90803D01*
X18580Y90811D01*
X18588Y90814D01*
X18606Y90818D01*
X18636Y90829D01*
X18669Y90840D01*
X18706Y90859D01*
X18743Y90877D01*
X18776Y90899D01*
X18802Y90921D01*
X18806Y90925D01*
X18810Y90933D01*
X18821Y90947D01*
X18828Y90966D01*
X18839Y90988D01*
X18850Y91014D01*
X18854Y91044D01*
X18858Y91077D01*
Y91092D01*
X18854Y91110D01*
X18850Y91129D01*
X18843Y91155D01*
X18836Y91180D01*
X18821Y91206D01*
X18802Y91232D01*
X18799Y91236D01*
X18791Y91243D01*
X18776Y91258D01*
X18754Y91273D01*
X18728Y91288D01*
X18691Y91306D01*
X18651Y91325D01*
X18599Y91340D01*
X18595D01*
X18591Y91343D01*
X18577D01*
X18562Y91347D01*
X18540Y91351D01*
X18514Y91354D01*
X18484Y91362D01*
X18447Y91365D01*
X18406Y91369D01*
X18358Y91377D01*
X18306Y91380D01*
X18247Y91384D01*
X18184Y91388D01*
X18114D01*
X18036Y91391D01*
D02*
G37*
G36*
X27555Y89545D02*
X27552D01*
X27544D01*
X27533D01*
X27515D01*
X27474Y89538D01*
X27419Y89530D01*
X27359Y89519D01*
X27296Y89497D01*
X27237Y89471D01*
X27182Y89434D01*
X27174Y89430D01*
X27160Y89416D01*
X27141Y89393D01*
X27115Y89364D01*
X27089Y89327D01*
X27071Y89282D01*
X27056Y89234D01*
X27049Y89183D01*
Y89160D01*
X27056Y89134D01*
X27063Y89105D01*
X27074Y89068D01*
X27097Y89031D01*
X27123Y88994D01*
X27160Y88957D01*
X27163Y88953D01*
X27182Y88942D01*
X27208Y88927D01*
X27245Y88912D01*
X27293Y88898D01*
X27356Y88883D01*
X27430Y88872D01*
X27515Y88868D01*
X27518D01*
X27526D01*
X27537D01*
X27555D01*
X27600Y88872D01*
X27652Y88879D01*
X27714Y88890D01*
X27774Y88909D01*
X27833Y88931D01*
X27881Y88964D01*
X27885Y88968D01*
X27900Y88983D01*
X27918Y89001D01*
X27937Y89031D01*
X27959Y89068D01*
X27977Y89109D01*
X27992Y89157D01*
X27996Y89208D01*
Y89216D01*
X27992Y89231D01*
X27988Y89257D01*
X27981Y89290D01*
X27970Y89327D01*
X27948Y89368D01*
X27922Y89408D01*
X27885Y89445D01*
X27881Y89449D01*
X27863Y89460D01*
X27837Y89478D01*
X27803Y89497D01*
X27755Y89512D01*
X27700Y89530D01*
X27633Y89541D01*
X27555Y89545D01*
D02*
G37*
%LPD*%
D10*
X46949Y66547D02*
G03*
X46949Y66547I-492J0D01*
G01*
X84676Y381348D02*
G03*
X84676Y381348I-492J0D01*
G01*
X34615Y110270D02*
G03*
X34615Y110270I-492J0D01*
G01*
X141709Y388013D02*
G03*
X141709Y388013I-492J0D01*
G01*
X341819Y387753D02*
G03*
X341819Y387753I-492J0D01*
G01*
X741809Y388112D02*
G03*
X741809Y388112I-492J0D01*
G01*
X541509Y388098D02*
G03*
X541509Y388098I-492J0D01*
G01*
D11*
X22160Y270306D02*
G03*
X21372Y270306I-394J0D01*
G01*
D02*
G03*
X22160Y270306I394J0D01*
G01*
X25231Y261542D02*
G03*
X25231Y261936I0J197D01*
G01*
D02*
G03*
X25231Y261542I0J-197D01*
G01*
X56947Y194961D02*
G03*
X57341Y194961I197J0D01*
G01*
D02*
G03*
X56947Y194961I-197J0D01*
G01*
X886858Y18433D02*
Y33000D01*
X861268Y18433D02*
X886858D01*
X861268D02*
Y33000D01*
X886858D01*
X887843Y34378D02*
Y40185D01*
X686858Y18433D02*
Y33000D01*
X661268Y18433D02*
X686858D01*
X661268D02*
Y33000D01*
X686858D01*
X687843Y34378D02*
Y40185D01*
X486858Y18433D02*
Y33000D01*
X461268Y18433D02*
X486858D01*
X461268D02*
Y33000D01*
X486858D01*
X487843Y34378D02*
Y40185D01*
X286858Y18433D02*
Y33000D01*
X261268Y18433D02*
X286858D01*
X261268D02*
Y33000D01*
X286858D01*
X287843Y34378D02*
Y40185D01*
X840858Y18433D02*
Y33000D01*
X815268Y18433D02*
X840858D01*
X815268D02*
Y33000D01*
X840858D01*
X841843Y34378D02*
Y40185D01*
X640858Y18433D02*
Y33000D01*
X615268Y18433D02*
X640858D01*
X615268D02*
Y33000D01*
X640858D01*
X641843Y34378D02*
Y40185D01*
X440858Y18433D02*
Y33000D01*
X415268Y18433D02*
X440858D01*
X415268D02*
Y33000D01*
X440858D01*
X441843Y34378D02*
Y40185D01*
X240858Y18433D02*
Y33000D01*
X215268Y18433D02*
X240858D01*
X215268D02*
Y33000D01*
X240858D01*
X241843Y34378D02*
Y40185D01*
X714780Y15921D02*
X729347D01*
X714780D02*
Y41512D01*
X729347D01*
Y15921D02*
Y41512D01*
X730725Y14937D02*
X736532D01*
X514780Y15921D02*
X529347D01*
X514780D02*
Y41512D01*
X529347D01*
Y15921D02*
Y41512D01*
X530725Y14937D02*
X536532D01*
X314780Y15921D02*
X329347D01*
X314780D02*
Y41512D01*
X329347D01*
Y15921D02*
Y41512D01*
X330725Y14937D02*
X336532D01*
X114780Y15921D02*
X129347D01*
X114780D02*
Y41512D01*
X129347D01*
Y15921D02*
Y41512D01*
X130725Y14937D02*
X136532D01*
X714780Y60921D02*
X729347D01*
X714780D02*
Y86512D01*
X729347D01*
Y60921D02*
Y86512D01*
X730725Y59937D02*
X736532D01*
X514780Y60921D02*
X529347D01*
X514780D02*
Y86512D01*
X529347D01*
Y60921D02*
Y86512D01*
X530725Y59937D02*
X536532D01*
X314780Y60921D02*
X329347D01*
X314780D02*
Y86512D01*
X329347D01*
Y60921D02*
Y86512D01*
X330725Y59937D02*
X336532D01*
X114780Y60921D02*
X129347D01*
X114780D02*
Y86512D01*
X129347D01*
Y60921D02*
Y86512D01*
X130725Y59937D02*
X136532D01*
X884858Y116433D02*
Y131000D01*
X859268Y116433D02*
X884858D01*
X859268D02*
Y131000D01*
X884858D01*
X885843Y132378D02*
Y138185D01*
X684858Y116433D02*
Y131000D01*
X659268Y116433D02*
X684858D01*
X659268D02*
Y131000D01*
X684858D01*
X685843Y132378D02*
Y138185D01*
X484858Y116433D02*
Y131000D01*
X459268Y116433D02*
X484858D01*
X459268D02*
Y131000D01*
X484858D01*
X485843Y132378D02*
Y138185D01*
X284858Y116433D02*
Y131000D01*
X259268Y116433D02*
X284858D01*
X259268D02*
Y131000D01*
X284858D01*
X285843Y132378D02*
Y138185D01*
X714780Y105921D02*
X729347D01*
X714780D02*
Y131512D01*
X729347D01*
Y105921D02*
Y131512D01*
X730725Y104937D02*
X736532D01*
X514780Y105921D02*
X529347D01*
X514780D02*
Y131512D01*
X529347D01*
Y105921D02*
Y131512D01*
X530725Y104937D02*
X536532D01*
X314780Y105921D02*
X329347D01*
X314780D02*
Y131512D01*
X329347D01*
Y105921D02*
Y131512D01*
X330725Y104937D02*
X336532D01*
X114780Y105921D02*
X129347D01*
X114780D02*
Y131512D01*
X129347D01*
Y105921D02*
Y131512D01*
X130725Y104937D02*
X136532D01*
X714780Y151921D02*
X729347D01*
X714780D02*
Y177512D01*
X729347D01*
Y151921D02*
Y177512D01*
X730725Y150937D02*
X736532D01*
X514780Y151921D02*
X529347D01*
X514780D02*
Y177512D01*
X529347D01*
Y151921D02*
Y177512D01*
X530725Y150937D02*
X536532D01*
X314780Y151921D02*
X329347D01*
X314780D02*
Y177512D01*
X329347D01*
Y151921D02*
Y177512D01*
X330725Y150937D02*
X336532D01*
X114780Y151921D02*
X129347D01*
X114780D02*
Y177512D01*
X129347D01*
Y151921D02*
Y177512D01*
X130725Y150937D02*
X136532D01*
X884858Y199433D02*
Y214000D01*
X859268Y199433D02*
X884858D01*
X859268D02*
Y214000D01*
X884858D01*
X885843Y215378D02*
Y221185D01*
X684858Y199433D02*
Y214000D01*
X659268Y199433D02*
X684858D01*
X659268D02*
Y214000D01*
X684858D01*
X685843Y215378D02*
Y221185D01*
X484858Y199433D02*
Y214000D01*
X459268Y199433D02*
X484858D01*
X459268D02*
Y214000D01*
X484858D01*
X485843Y215378D02*
Y221185D01*
X284858Y199433D02*
Y214000D01*
X259268Y199433D02*
X284858D01*
X259268D02*
Y214000D01*
X284858D01*
X285843Y215378D02*
Y221185D01*
X781918Y199767D02*
Y214334D01*
X756327Y199767D02*
X781918D01*
X756327D02*
Y214334D01*
X781918D01*
X782902Y215712D02*
Y221519D01*
X581918Y199767D02*
Y214334D01*
X556327Y199767D02*
X581918D01*
X556327D02*
Y214334D01*
X581918D01*
X582902Y215712D02*
Y221519D01*
X381918Y199767D02*
Y214334D01*
X356328Y199767D02*
X381918D01*
X356328D02*
Y214334D01*
X381918D01*
X382902Y215712D02*
Y221519D01*
X181918Y199767D02*
Y214334D01*
X156327Y199767D02*
X181918D01*
X156327D02*
Y214334D01*
X181918D01*
X182902Y215712D02*
Y221519D01*
X740864Y198464D02*
Y213031D01*
X715273Y198464D02*
X740864D01*
X715273D02*
Y213031D01*
X740864D01*
X741848Y214409D02*
Y220216D01*
X540864Y198464D02*
Y213031D01*
X515273Y198464D02*
X540864D01*
X515273D02*
Y213031D01*
X540864D01*
X541848Y214409D02*
Y220216D01*
X340864Y198464D02*
Y213031D01*
X315273Y198464D02*
X340864D01*
X315273D02*
Y213031D01*
X340864D01*
X341848Y214409D02*
Y220216D01*
X140864Y198464D02*
Y213031D01*
X115273Y198464D02*
X140864D01*
X115273D02*
Y213031D01*
X140864D01*
X141848Y214409D02*
Y220216D01*
X44562Y60064D02*
Y62230D01*
X45062Y60064D02*
Y62230D01*
X33851D02*
X45662D01*
X33851Y60064D02*
Y62230D01*
Y60064D02*
X45662D01*
Y62230D01*
X32217Y37387D02*
Y87387D01*
X12217Y37387D02*
Y87387D01*
Y37387D02*
X32217D01*
X12217Y87387D02*
X32217D01*
X25130Y397110D02*
X36941D01*
X25130Y356953D02*
Y397110D01*
Y356953D02*
X36941D01*
X83979Y388793D02*
Y406903D01*
X108388D01*
Y388793D02*
Y406903D01*
X83979Y388793D02*
X108388D01*
X59692Y309713D02*
Y324280D01*
X79377D01*
Y309713D02*
Y324280D01*
X59692Y309713D02*
X79377D01*
X28638Y112337D02*
X30607D01*
X28638Y111837D02*
X30607D01*
Y111237D02*
Y119504D01*
X28638D02*
X30607D01*
X28638Y111237D02*
Y119504D01*
Y111237D02*
X30607D01*
X486858Y51433D02*
Y66000D01*
X461268Y51433D02*
X486858D01*
X461268D02*
Y66000D01*
X486858D01*
X487834Y72557D02*
Y72608D01*
X781918Y232767D02*
Y247334D01*
X756327Y232767D02*
X781918D01*
X756327D02*
Y247334D01*
X781918D01*
X782893Y253890D02*
Y253942D01*
X581918Y232767D02*
Y247334D01*
X556327Y232767D02*
X581918D01*
X556327D02*
Y247334D01*
X581918D01*
X582893Y253890D02*
Y253942D01*
X540858Y232433D02*
Y247000D01*
X515268Y232433D02*
X540858D01*
X515268D02*
Y247000D01*
X540858D01*
X541834Y253556D02*
Y253608D01*
X340858Y232433D02*
Y247000D01*
X315268Y232433D02*
X340858D01*
X315268D02*
Y247000D01*
X340858D01*
X341834Y253556D02*
Y253608D01*
X740858Y232433D02*
Y247000D01*
X715268Y232433D02*
X740858D01*
X715268D02*
Y247000D01*
X740858D01*
X741834Y253556D02*
Y253608D01*
X886858Y51433D02*
Y66000D01*
X861268Y51433D02*
X886858D01*
X861268D02*
Y66000D01*
X886858D01*
X887834Y72557D02*
Y72608D01*
X840858Y51433D02*
Y66000D01*
X815268Y51433D02*
X840858D01*
X815268D02*
Y66000D01*
X840858D01*
X841834Y72557D02*
Y72608D01*
X747780Y15921D02*
X762347D01*
X747780D02*
Y41512D01*
X762347D01*
Y15921D02*
Y41512D01*
X768903Y14946D02*
X768955D01*
X747780Y60921D02*
X762347D01*
X747780D02*
Y86512D01*
X762347D01*
Y60921D02*
Y86512D01*
X768903Y59946D02*
X768955D01*
X884858Y149433D02*
Y164000D01*
X859268Y149433D02*
X884858D01*
X859268D02*
Y164000D01*
X884858D01*
X885834Y170556D02*
Y170608D01*
X747780Y105921D02*
X762347D01*
X747780D02*
Y131512D01*
X762347D01*
Y105921D02*
Y131512D01*
X768903Y104946D02*
X768955D01*
X747780Y151921D02*
X762347D01*
X747780D02*
Y177512D01*
X762347D01*
Y151921D02*
Y177512D01*
X768903Y150946D02*
X768955D01*
X884858Y232433D02*
Y247000D01*
X859268Y232433D02*
X884858D01*
X859268D02*
Y247000D01*
X884858D01*
X885834Y253556D02*
Y253608D01*
X686858Y51433D02*
Y66000D01*
X661268Y51433D02*
X686858D01*
X661268D02*
Y66000D01*
X686858D01*
X687834Y72557D02*
Y72608D01*
X640858Y51433D02*
Y66000D01*
X615268Y51433D02*
X640858D01*
X615268D02*
Y66000D01*
X640858D01*
X641834Y72557D02*
Y72608D01*
X547780Y15921D02*
X562347D01*
X547780D02*
Y41512D01*
X562347D01*
Y15921D02*
Y41512D01*
X568903Y14946D02*
X568955D01*
X547780Y60921D02*
X562347D01*
X547780D02*
Y86512D01*
X562347D01*
Y60921D02*
Y86512D01*
X568903Y59946D02*
X568955D01*
X684858Y149433D02*
Y164000D01*
X659268Y149433D02*
X684858D01*
X659268D02*
Y164000D01*
X684858D01*
X685834Y170556D02*
Y170608D01*
X547780Y105921D02*
X562347D01*
X547780D02*
Y131512D01*
X562347D01*
Y105921D02*
Y131512D01*
X568903Y104946D02*
X568955D01*
X547780Y151921D02*
X562347D01*
X547780D02*
Y177512D01*
X562347D01*
Y151921D02*
Y177512D01*
X568903Y150946D02*
X568955D01*
X684858Y232433D02*
Y247000D01*
X659268Y232433D02*
X684858D01*
X659268D02*
Y247000D01*
X684858D01*
X685834Y253556D02*
Y253608D01*
X440858Y51433D02*
Y66000D01*
X415268Y51433D02*
X440858D01*
X415268D02*
Y66000D01*
X440858D01*
X441834Y72557D02*
Y72608D01*
X347780Y15921D02*
X362347D01*
X347780D02*
Y41512D01*
X362347D01*
Y15921D02*
Y41512D01*
X368903Y14946D02*
X368955D01*
X347780Y60921D02*
X362347D01*
X347780D02*
Y86512D01*
X362347D01*
Y60921D02*
Y86512D01*
X368903Y59946D02*
X368955D01*
X484858Y149433D02*
Y164000D01*
X459268Y149433D02*
X484858D01*
X459268D02*
Y164000D01*
X484858D01*
X485834Y170556D02*
Y170608D01*
X347780Y105921D02*
X362347D01*
X347780D02*
Y131512D01*
X362347D01*
Y105921D02*
Y131512D01*
X368903Y104946D02*
X368955D01*
X347780Y151921D02*
X362347D01*
X347780D02*
Y177512D01*
X362347D01*
Y151921D02*
Y177512D01*
X368903Y150946D02*
X368955D01*
X484858Y232433D02*
Y247000D01*
X459268Y232433D02*
X484858D01*
X459268D02*
Y247000D01*
X484858D01*
X485834Y253556D02*
Y253608D01*
X381918Y232767D02*
Y247334D01*
X356328Y232767D02*
X381918D01*
X356328D02*
Y247334D01*
X381918D01*
X382893Y253890D02*
Y253942D01*
X284858Y149433D02*
Y164000D01*
X259268Y149433D02*
X284858D01*
X259268D02*
Y164000D01*
X284858D01*
X285834Y170556D02*
Y170608D01*
X182893Y253890D02*
Y253942D01*
X156327Y247334D02*
X181918D01*
X156327Y232767D02*
Y247334D01*
Y232767D02*
X181918D01*
Y247334D01*
X285834Y253556D02*
Y253608D01*
X259268Y247000D02*
X284858D01*
X259268Y232433D02*
Y247000D01*
Y232433D02*
X284858D01*
Y247000D01*
X147780Y151921D02*
X162347D01*
X147780D02*
Y177512D01*
X162347D01*
Y151921D02*
Y177512D01*
X168903Y150946D02*
X168955D01*
X240858Y51433D02*
Y66000D01*
X215268Y51433D02*
X240858D01*
X215268D02*
Y66000D01*
X240858D01*
X241834Y72557D02*
Y72608D01*
X286858Y51433D02*
Y66000D01*
X261268Y51433D02*
X286858D01*
X261268D02*
Y66000D01*
X286858D01*
X287834Y72557D02*
Y72608D01*
X147780Y15921D02*
X162347D01*
X147780D02*
Y41512D01*
X162347D01*
Y15921D02*
Y41512D01*
X168903Y14946D02*
X168955D01*
X147780Y60921D02*
X162347D01*
X147780D02*
Y86512D01*
X162347D01*
Y60921D02*
Y86512D01*
X168903Y59946D02*
X168955D01*
X147780Y105921D02*
X162347D01*
X147780D02*
Y131512D01*
X162347D01*
Y105921D02*
Y131512D01*
X168903Y104946D02*
X168955D01*
X141834Y253556D02*
Y253608D01*
X115268Y247000D02*
X140858D01*
X115268Y232433D02*
Y247000D01*
Y232433D02*
X140858D01*
Y247000D01*
D12*
X9124Y391907D02*
G03*
X8631Y391907I-246J0D01*
G01*
D02*
G03*
X9124Y391907I246J0D01*
G01*
X58144Y194961D02*
G03*
X58144Y194961I-1000J0D01*
G01*
D13*
X118384Y341424D02*
G03*
X118384Y341817I0J197D01*
G01*
D02*
G03*
X118384Y341424I0J-197D01*
G01*
X318494Y341163D02*
G03*
X318494Y341557I0J197D01*
G01*
D02*
G03*
X318494Y341163I0J-197D01*
G01*
X718484Y341524D02*
G03*
X718484Y341917I0J197D01*
G01*
D02*
G03*
X718484Y341524I0J-197D01*
G01*
X518184Y341902D02*
G03*
X518184Y341509I0J-197D01*
G01*
D02*
G03*
X518184Y341902I0J197D01*
G01*
X60054Y223816D02*
X70172D01*
X59936D02*
Y243683D01*
X61117D01*
X68991D02*
X70172D01*
Y223816D02*
Y243683D01*
X59594Y197834D02*
X69712D01*
X59476D02*
Y217700D01*
X60657D01*
X68531D02*
X69712D01*
Y197834D02*
Y217700D01*
X59526Y175006D02*
Y194873D01*
Y175006D02*
X60707D01*
X68581D02*
X69762D01*
Y194873D01*
X59526D02*
X69644D01*
X30701Y255280D02*
X33556D01*
X30701Y250556D02*
X33556D01*
X38477D02*
X41331D01*
Y255280D01*
X38477D02*
X41331D01*
X30701Y250556D02*
Y255280D01*
X35210Y251245D02*
Y254591D01*
Y252918D02*
X36804Y251325D01*
X35210Y252918D02*
X36804Y254512D01*
Y251343D02*
Y254493D01*
X124289Y343786D02*
X125077D01*
X129604Y336699D02*
Y338274D01*
X119762Y336699D02*
Y338274D01*
X124289Y331187D02*
X125077D01*
X320008Y320779D02*
X322862D01*
X320008Y316054D02*
X322862D01*
X327784D02*
X330638D01*
Y320779D01*
X327784D02*
X330638D01*
X320008Y316054D02*
Y320779D01*
X324517Y316743D02*
Y320090D01*
Y318417D02*
X326110Y316823D01*
X324517Y318417D02*
X326110Y320010D01*
Y316842D02*
Y319991D01*
X324399Y343526D02*
X325187D01*
X329714Y336439D02*
Y338014D01*
X319872Y336439D02*
Y338014D01*
X324399Y330927D02*
X325187D01*
X320008Y326709D02*
X322862D01*
X320008Y321984D02*
X322862D01*
X327784D02*
X330638D01*
Y326709D01*
X327784D02*
X330638D01*
X320008Y321984D02*
Y326709D01*
X324517Y322673D02*
Y326020D01*
Y324346D02*
X326110Y322753D01*
X324517Y324346D02*
X326110Y325940D01*
Y322772D02*
Y325921D01*
X726100Y317202D02*
Y320351D01*
X724507Y318776D02*
X726100Y320370D01*
X724507Y318776D02*
X726100Y317183D01*
X724507Y317103D02*
Y320450D01*
X719998Y316414D02*
Y321139D01*
X727774D02*
X730628D01*
Y316414D02*
Y321139D01*
X727774Y316414D02*
X730628D01*
X719998D02*
X722852D01*
X719998Y321139D02*
X722852D01*
X719998Y327069D02*
X722852D01*
X719998Y322344D02*
X722852D01*
X727774D02*
X730628D01*
Y327069D01*
X727774D02*
X730628D01*
X719998Y322344D02*
Y327069D01*
X724507Y323033D02*
Y326380D01*
Y324707D02*
X726100Y323113D01*
X724507Y324707D02*
X726100Y326300D01*
Y323132D02*
Y326281D01*
X724389Y343886D02*
X725177D01*
X729704Y336799D02*
Y338374D01*
X719862Y336799D02*
Y338374D01*
X724389Y331287D02*
X725177D01*
X524089Y331272D02*
X524877D01*
X519562Y336784D02*
Y338359D01*
X529404Y336784D02*
Y338359D01*
X524089Y343871D02*
X524877D01*
X525800Y317187D02*
Y320336D01*
X524207Y318761D02*
X525800Y320355D01*
X524207Y318761D02*
X525800Y317168D01*
X524207Y317088D02*
Y320435D01*
X519698Y316399D02*
Y321124D01*
X527474D02*
X530328D01*
Y316399D02*
Y321124D01*
X527474Y316399D02*
X530328D01*
X519698D02*
X522552D01*
X519698Y321124D02*
X522552D01*
X525800Y323117D02*
Y326266D01*
X524207Y324692D02*
X525800Y326285D01*
X524207Y324692D02*
X525800Y323098D01*
X524207Y323018D02*
Y326365D01*
X519698Y322329D02*
Y327054D01*
X527474D02*
X530328D01*
Y322329D02*
Y327054D01*
X527474Y322329D02*
X530328D01*
X519698D02*
X522552D01*
X519698Y327054D02*
X522552D01*
X126000Y317102D02*
Y320251D01*
X124407Y318676D02*
X126000Y320270D01*
X124407Y318676D02*
X126000Y317083D01*
X124407Y317003D02*
Y320350D01*
X119898Y316314D02*
Y321039D01*
X127674D02*
X130528D01*
Y316314D02*
Y321039D01*
X127674Y316314D02*
X130528D01*
X119898D02*
X122752D01*
X119898Y321039D02*
X122752D01*
X126000Y323032D02*
Y326181D01*
X124407Y324606D02*
X126000Y326200D01*
X124407Y324606D02*
X126000Y323013D01*
X124407Y322933D02*
Y326280D01*
X119898Y322244D02*
Y326969D01*
X127674D02*
X130528D01*
Y322244D02*
Y326969D01*
X127674Y322244D02*
X130528D01*
X119898D02*
X122752D01*
X119898Y326969D02*
X122752D01*
D14*
X33667Y47227D02*
X38667D01*
X33667Y43827D02*
Y47227D01*
X38667Y43827D02*
Y47227D01*
X33667Y37227D02*
X38667D01*
X33667D02*
Y40627D01*
X38667Y37227D02*
Y40627D01*
X33677Y72247D02*
X38677D01*
Y75647D01*
X33677Y72247D02*
Y75647D01*
Y82247D02*
X38677D01*
Y78847D02*
Y82247D01*
X33677Y78847D02*
Y82247D01*
X41617Y78987D02*
Y82387D01*
X46617Y78987D02*
Y82387D01*
X41617D02*
X46617D01*
X41617Y72387D02*
Y75787D01*
X46617Y72387D02*
Y75787D01*
X41617Y72387D02*
X46617D01*
X35782Y103039D02*
X40782D01*
Y106439D01*
X35782Y103039D02*
Y106439D01*
Y113039D02*
X40782D01*
Y109639D02*
Y113039D01*
X35782Y109639D02*
Y113039D01*
X42174Y113743D02*
X49174D01*
X54174D02*
X61174D01*
Y100743D02*
Y113743D01*
X54174Y100743D02*
X61174D01*
X42174D02*
X49174D01*
X42174D02*
Y113743D01*
X11032Y122303D02*
Y127303D01*
Y122303D02*
X14432D01*
X11032Y127303D02*
X14432D01*
X21032Y122303D02*
Y127303D01*
X17632Y122303D02*
X21032D01*
X17632Y127303D02*
X21032D01*
X11002Y105665D02*
Y110665D01*
Y105665D02*
X14402D01*
X11002Y110665D02*
X14402D01*
X21002Y105665D02*
Y110665D01*
X17602Y105665D02*
X21002D01*
X17602Y110665D02*
X21002D01*
X77070Y293146D02*
Y298147D01*
X73670D02*
X77070D01*
X73670Y293146D02*
X77070D01*
X67070D02*
Y298147D01*
X70470D01*
X67070Y293146D02*
X70470D01*
X11002Y116713D02*
Y121713D01*
Y116713D02*
X14402D01*
X11002Y121713D02*
X14402D01*
X21002Y116713D02*
Y121713D01*
X17602Y116713D02*
X21002D01*
X17602Y121713D02*
X21002D01*
X11002Y111202D02*
Y116202D01*
Y111202D02*
X14402D01*
X11002Y116202D02*
X14402D01*
X21002Y111202D02*
Y116202D01*
X17602Y111202D02*
X21002D01*
X17602Y116202D02*
X21002D01*
X47468Y148206D02*
X50868D01*
X47468Y153207D02*
X50868D01*
X47468Y148206D02*
Y153207D01*
X54068Y148206D02*
X57468D01*
X54068Y153207D02*
X57468D01*
Y148206D02*
Y153207D01*
X21577Y121055D02*
X24977D01*
X21577Y126055D02*
X24977D01*
X21577Y121055D02*
Y126055D01*
X28177Y121055D02*
X31577D01*
X28177Y126055D02*
X31577D01*
Y121055D02*
Y126055D01*
X15298Y250227D02*
Y255227D01*
X11898D02*
X15298D01*
X11898Y250227D02*
X15298D01*
X5298D02*
Y255227D01*
X8698D01*
X5298Y250227D02*
X8698D01*
X68474Y334207D02*
Y339207D01*
X65074D02*
X68474D01*
X65074Y334207D02*
X68474D01*
X58474D02*
Y339207D01*
X61874D01*
X58474Y334207D02*
X61874D01*
X66364Y293326D02*
Y298326D01*
X62964D02*
X66364D01*
X62964Y293326D02*
X66364D01*
X56364D02*
Y298326D01*
X59764D01*
X56364Y293326D02*
X59764D01*
X57734Y245656D02*
Y249057D01*
X52734Y245656D02*
Y249057D01*
Y245656D02*
X57734D01*
Y252256D02*
Y255657D01*
X52734Y252256D02*
Y255657D01*
X57734D01*
X44924Y229427D02*
Y232826D01*
X49924Y229427D02*
Y232826D01*
X44924D02*
X49924D01*
X44924Y222827D02*
Y226226D01*
X49924Y222827D02*
Y226226D01*
X44924Y222827D02*
X49924D01*
X41278Y261334D02*
Y266334D01*
X37878D02*
X41278D01*
X37878Y261334D02*
X41278D01*
X31278D02*
Y266334D01*
X34678D01*
X31278Y261334D02*
X34678D01*
X41278Y255781D02*
Y260781D01*
X37878D02*
X41278D01*
X37878Y255781D02*
X41278D01*
X31278D02*
Y260781D01*
X34678D01*
X31278Y255781D02*
X34678D01*
X24322Y103283D02*
Y108283D01*
Y103283D02*
X27722D01*
X24322Y108283D02*
X27722D01*
X34322Y103283D02*
Y108283D01*
X30922Y103283D02*
X34322D01*
X30922Y108283D02*
X34322D01*
X31577Y126173D02*
Y131173D01*
X28177D02*
X31577D01*
X28177Y126173D02*
X31577D01*
X21577D02*
Y131173D01*
X24977D01*
X21577Y126173D02*
X24977D01*
X5298Y261334D02*
Y266334D01*
Y261334D02*
X8698D01*
X5298Y266334D02*
X8698D01*
X15298Y261334D02*
Y266334D01*
X11898Y261334D02*
X15298D01*
X11898Y266334D02*
X15298D01*
Y255781D02*
Y260781D01*
X11898D02*
X15298D01*
X11898Y255781D02*
X15298D01*
X5298D02*
Y260781D01*
X8698D01*
X5298Y255781D02*
X8698D01*
X11898Y249674D02*
X15298D01*
X11898Y244674D02*
X15298D01*
Y249674D01*
X5298D02*
X8698D01*
X5298Y244674D02*
X8698D01*
X5298D02*
Y249674D01*
X454727Y18316D02*
Y21716D01*
X459727Y18316D02*
Y21716D01*
X454727D02*
X459727D01*
X454727Y11716D02*
Y15116D01*
X459727Y11716D02*
Y15116D01*
X454727Y11716D02*
X459727D01*
Y44717D02*
Y48116D01*
X454727Y44717D02*
Y48116D01*
Y44717D02*
X459727D01*
Y51316D02*
Y54716D01*
X454727Y51316D02*
Y54716D01*
X459727D01*
X457563Y75717D02*
Y79116D01*
X452563Y75717D02*
Y79116D01*
Y75717D02*
X457563D01*
Y82316D02*
Y85716D01*
X452563Y82316D02*
Y85716D01*
X457563D01*
X468230Y75717D02*
Y79116D01*
X463230Y75717D02*
Y79116D01*
Y75717D02*
X468230D01*
Y82316D02*
Y85716D01*
X463230Y82316D02*
Y85716D01*
X468230D01*
X473785Y75717D02*
Y79116D01*
X468785Y75717D02*
Y79116D01*
Y75717D02*
X473785D01*
Y82316D02*
Y85716D01*
X468785Y82316D02*
Y85716D01*
X473785D01*
X490860Y75800D02*
Y79200D01*
X485860Y75800D02*
Y79200D01*
Y75800D02*
X490860D01*
Y82400D02*
Y85800D01*
X485860Y82400D02*
Y85800D01*
X490860D01*
X459563Y63717D02*
Y67116D01*
X454563Y63717D02*
Y67116D01*
Y63717D02*
X459563D01*
Y70316D02*
Y73716D01*
X454563Y70316D02*
Y73716D01*
X459563D01*
X462674Y75717D02*
Y79116D01*
X457674Y75717D02*
Y79116D01*
Y75717D02*
X462674D01*
Y82316D02*
Y85716D01*
X457674Y82316D02*
Y85716D01*
X462674D01*
X488563Y17316D02*
Y20717D01*
X493563Y17316D02*
Y20717D01*
X488563D02*
X493563D01*
X488563Y10717D02*
Y14117D01*
X493563Y10717D02*
Y14117D01*
X488563Y10717D02*
X493563D01*
Y44717D02*
Y48116D01*
X488563Y44717D02*
Y48116D01*
Y44717D02*
X493563D01*
Y51316D02*
Y54716D01*
X488563Y51316D02*
Y54716D01*
X493563D01*
Y62717D02*
Y66116D01*
X488563Y62717D02*
Y66116D01*
Y62717D02*
X493563D01*
Y69317D02*
Y72716D01*
X488563Y69317D02*
Y72716D01*
X493563D01*
X479341Y75717D02*
Y79116D01*
X474341Y75717D02*
Y79116D01*
Y75717D02*
X479341D01*
Y82316D02*
Y85716D01*
X474341Y82316D02*
Y85716D01*
X479341D01*
X484897Y75717D02*
Y79116D01*
X479896Y75717D02*
Y79116D01*
Y75717D02*
X484897D01*
Y82316D02*
Y85716D01*
X479896Y82316D02*
Y85716D01*
X484897D01*
X496007Y75717D02*
Y79116D01*
X491008Y75717D02*
Y79116D01*
Y75717D02*
X496007D01*
Y82316D02*
Y85716D01*
X491008Y82316D02*
Y85716D01*
X496007D01*
X757734Y257050D02*
Y260450D01*
X752734Y257050D02*
Y260450D01*
Y257050D02*
X757734D01*
Y263650D02*
Y267050D01*
X752734Y263650D02*
Y267050D01*
X757734D01*
X774401Y257050D02*
Y260450D01*
X769401Y257050D02*
Y260450D01*
Y257050D02*
X774401D01*
Y263650D02*
Y267050D01*
X769401Y263650D02*
Y267050D01*
X774401D01*
X789563Y244717D02*
Y248116D01*
X784563Y244717D02*
Y248116D01*
Y244717D02*
X789563D01*
Y251316D02*
Y254716D01*
X784563Y251316D02*
Y254716D01*
X789563D01*
X790927Y256847D02*
Y260247D01*
X785927Y256847D02*
Y260247D01*
Y256847D02*
X790927D01*
Y263447D02*
Y266847D01*
X785927Y263447D02*
Y266847D01*
X790927D01*
X749787Y199650D02*
Y203050D01*
X754787Y199650D02*
Y203050D01*
X749787D02*
X754787D01*
X749787Y193050D02*
Y196450D01*
X754787Y193050D02*
Y196450D01*
X749787Y193050D02*
X754787D01*
Y244050D02*
Y247450D01*
X749787Y244050D02*
Y247450D01*
Y244050D02*
X754787D01*
Y250650D02*
Y254050D01*
X749787Y250650D02*
Y254050D01*
X754787D01*
X763289Y257050D02*
Y260450D01*
X758289Y257050D02*
Y260450D01*
Y257050D02*
X763289D01*
Y263650D02*
Y267050D01*
X758289Y263650D02*
Y267050D01*
X763289D01*
X752623Y257050D02*
Y260450D01*
X747623Y257050D02*
Y260450D01*
Y257050D02*
X752623D01*
Y263650D02*
Y267050D01*
X747623Y263650D02*
Y267050D01*
X752623D01*
X783623Y198650D02*
Y202050D01*
X788623Y198650D02*
Y202050D01*
X783623D02*
X788623D01*
X783623Y192050D02*
Y195450D01*
X788623Y192050D02*
Y195450D01*
X783623Y192050D02*
X788623D01*
X768845Y257050D02*
Y260450D01*
X763845Y257050D02*
Y260450D01*
Y257050D02*
X768845D01*
Y263650D02*
Y267050D01*
X763845Y263650D02*
Y267050D01*
X768845D01*
X779956Y257050D02*
Y260450D01*
X774956Y257050D02*
Y260450D01*
Y257050D02*
X779956D01*
Y263650D02*
Y267050D01*
X774956Y263650D02*
Y267050D01*
X779956D01*
X785512Y257050D02*
Y260450D01*
X780512Y257050D02*
Y260450D01*
Y257050D02*
X785512D01*
Y263650D02*
Y267050D01*
X780512Y263650D02*
Y267050D01*
X785512D01*
X754787Y226125D02*
Y229525D01*
X749787Y226125D02*
Y229525D01*
Y226125D02*
X754787D01*
Y232725D02*
Y236125D01*
X749787Y232725D02*
Y236125D01*
X754787D01*
X788623Y226050D02*
Y229450D01*
X783623Y226050D02*
Y229450D01*
Y226050D02*
X788623D01*
Y232650D02*
Y236050D01*
X783623Y232650D02*
Y236050D01*
X788623D01*
X557734Y257050D02*
Y260450D01*
X552734Y257050D02*
Y260450D01*
Y257050D02*
X557734D01*
Y263650D02*
Y267050D01*
X552734Y263650D02*
Y267050D01*
X557734D01*
X574401Y257050D02*
Y260450D01*
X569401Y257050D02*
Y260450D01*
Y257050D02*
X574401D01*
Y263650D02*
Y267050D01*
X569401Y263650D02*
Y267050D01*
X574401D01*
X579956Y257050D02*
Y260450D01*
X574956Y257050D02*
Y260450D01*
Y257050D02*
X579956D01*
Y263650D02*
Y267050D01*
X574956Y263650D02*
Y267050D01*
X579956D01*
X583623Y198650D02*
Y202050D01*
X588623Y198650D02*
Y202050D01*
X583623D02*
X588623D01*
X583623Y192050D02*
Y195450D01*
X588623Y192050D02*
Y195450D01*
X583623Y192050D02*
X588623D01*
Y226050D02*
Y229450D01*
X583623Y226050D02*
Y229450D01*
Y226050D02*
X588623D01*
Y232650D02*
Y236050D01*
X583623Y232650D02*
Y236050D01*
X588623D01*
X589563Y244717D02*
Y248116D01*
X584563Y244717D02*
Y248116D01*
Y244717D02*
X589563D01*
Y251316D02*
Y254716D01*
X584563Y251316D02*
Y254716D01*
X589563D01*
X590927Y256847D02*
Y260247D01*
X585927Y256847D02*
Y260247D01*
Y256847D02*
X590927D01*
Y263447D02*
Y266847D01*
X585927Y263447D02*
Y266847D01*
X590927D01*
X549787Y199650D02*
Y203050D01*
X554787Y199650D02*
Y203050D01*
X549787D02*
X554787D01*
X549787Y193050D02*
Y196450D01*
X554787Y193050D02*
Y196450D01*
X549787Y193050D02*
X554787D01*
Y226125D02*
Y229525D01*
X549787Y226125D02*
Y229525D01*
Y226125D02*
X554787D01*
Y232725D02*
Y236125D01*
X549787Y232725D02*
Y236125D01*
X554787D01*
X563289Y257050D02*
Y260450D01*
X558289Y257050D02*
Y260450D01*
Y257050D02*
X563289D01*
Y263650D02*
Y267050D01*
X558289Y263650D02*
Y267050D01*
X563289D01*
X568845Y257050D02*
Y260450D01*
X563845Y257050D02*
Y260450D01*
Y257050D02*
X568845D01*
Y263650D02*
Y267050D01*
X563845Y263650D02*
Y267050D01*
X568845D01*
X552623Y257050D02*
Y260450D01*
X547623Y257050D02*
Y260450D01*
Y257050D02*
X552623D01*
Y263650D02*
Y267050D01*
X547623Y263650D02*
Y267050D01*
X552623D01*
X585512Y257050D02*
Y260450D01*
X580512Y257050D02*
Y260450D01*
Y257050D02*
X585512D01*
Y263650D02*
Y267050D01*
X580512Y263650D02*
Y267050D01*
X585512D01*
X554787Y244050D02*
Y247450D01*
X549787Y244050D02*
Y247450D01*
Y244050D02*
X554787D01*
Y250650D02*
Y254050D01*
X549787Y250650D02*
Y254050D01*
X554787D01*
X508727Y199317D02*
Y202716D01*
X513727Y199317D02*
Y202716D01*
X508727D02*
X513727D01*
X508727Y192717D02*
Y196116D01*
X513727Y192717D02*
Y196116D01*
X508727Y192717D02*
X513727D01*
X513563Y219717D02*
Y223116D01*
X508563Y219717D02*
Y223116D01*
Y219717D02*
X513563D01*
Y226316D02*
Y229716D01*
X508563Y226316D02*
Y229716D01*
X513563D01*
X508563Y239317D02*
Y242717D01*
X513563Y239317D02*
Y242717D01*
X508563D02*
X513563D01*
X508563Y232716D02*
Y236117D01*
X513563Y232716D02*
Y236117D01*
X508563Y232716D02*
X513563D01*
X508563Y250317D02*
Y253716D01*
X513563Y250317D02*
Y253716D01*
X508563D02*
X513563D01*
X508563Y243717D02*
Y247116D01*
X513563Y243717D02*
Y247116D01*
X508563Y243717D02*
X513563D01*
X511960Y256997D02*
Y260397D01*
X506960Y256997D02*
Y260397D01*
Y256997D02*
X511960D01*
Y263597D02*
Y266997D01*
X506960Y263597D02*
Y266997D01*
X511960D01*
X528384Y256983D02*
Y260383D01*
X523384Y256983D02*
Y260383D01*
Y256983D02*
X528384D01*
Y263583D02*
Y266983D01*
X523384Y263583D02*
Y266983D01*
X528384D01*
X545051Y256983D02*
Y260383D01*
X540051Y256983D02*
Y260383D01*
Y256983D02*
X545051D01*
Y263583D02*
Y266983D01*
X540051Y263583D02*
Y266983D01*
X545051D01*
X517273Y256983D02*
Y260383D01*
X512273Y256983D02*
Y260383D01*
Y256983D02*
X517273D01*
Y263583D02*
Y266983D01*
X512273Y263583D02*
Y266983D01*
X517273D01*
X541956Y199340D02*
Y202740D01*
X546956Y199340D02*
Y202740D01*
X541956D02*
X546956D01*
X541956Y192740D02*
Y196140D01*
X546956Y192740D02*
Y196140D01*
X541956Y192740D02*
X546956D01*
X547563Y225716D02*
Y229117D01*
X542563Y225716D02*
Y229117D01*
Y225716D02*
X547563D01*
Y232316D02*
Y235717D01*
X542563Y232316D02*
Y235717D01*
X547563D01*
X522829Y256983D02*
Y260383D01*
X517829Y256983D02*
Y260383D01*
Y256983D02*
X522829D01*
Y263583D02*
Y266983D01*
X517829Y263583D02*
Y266983D01*
X522829D01*
X533940Y256983D02*
Y260383D01*
X528940Y256983D02*
Y260383D01*
Y256983D02*
X533940D01*
Y263583D02*
Y266983D01*
X528940Y263583D02*
Y266983D01*
X533940D01*
X539495Y256983D02*
Y260383D01*
X534495Y256983D02*
Y260383D01*
Y256983D02*
X539495D01*
Y263583D02*
Y266983D01*
X534495Y263583D02*
Y266983D01*
X539495D01*
X546890Y243534D02*
Y246934D01*
X541890Y243534D02*
Y246934D01*
Y243534D02*
X546890D01*
Y250134D02*
Y253534D01*
X541890Y250134D02*
Y253534D01*
X546890D01*
X328384Y256983D02*
Y260383D01*
X323384Y256983D02*
Y260383D01*
Y256983D02*
X328384D01*
Y263583D02*
Y266983D01*
X323384Y263583D02*
Y266983D01*
X328384D01*
X345051Y256983D02*
Y260383D01*
X340051Y256983D02*
Y260383D01*
Y256983D02*
X345051D01*
Y263583D02*
Y266983D01*
X340051Y263583D02*
Y266983D01*
X345051D01*
X322829Y256983D02*
Y260383D01*
X317829Y256983D02*
Y260383D01*
Y256983D02*
X322829D01*
Y263583D02*
Y266983D01*
X317829Y263583D02*
Y266983D01*
X322829D01*
X333940Y256983D02*
Y260383D01*
X328940Y256983D02*
Y260383D01*
Y256983D02*
X333940D01*
Y263583D02*
Y266983D01*
X328940Y263583D02*
Y266983D01*
X333940D01*
X339495Y256983D02*
Y260383D01*
X334495Y256983D02*
Y260383D01*
Y256983D02*
X339495D01*
Y263583D02*
Y266983D01*
X334495Y263583D02*
Y266983D01*
X339495D01*
X347563Y225716D02*
Y229117D01*
X342563Y225716D02*
Y229117D01*
Y225716D02*
X347563D01*
Y232316D02*
Y235717D01*
X342563Y232316D02*
Y235717D01*
X347563D01*
X341956Y199340D02*
Y202740D01*
X346956Y199340D02*
Y202740D01*
X341956D02*
X346956D01*
X341956Y192740D02*
Y196140D01*
X346956Y192740D02*
Y196140D01*
X341956Y192740D02*
X346956D01*
X346890Y243534D02*
Y246934D01*
X341891Y243534D02*
Y246934D01*
Y243534D02*
X346890D01*
Y250134D02*
Y253534D01*
X341891Y250134D02*
Y253534D01*
X346890D01*
X308727Y199317D02*
Y202716D01*
X313727Y199317D02*
Y202716D01*
X308727D02*
X313727D01*
X308727Y192717D02*
Y196116D01*
X313727Y192717D02*
Y196116D01*
X308727Y192717D02*
X313727D01*
X308563Y239317D02*
Y242717D01*
X313563Y239317D02*
Y242717D01*
X308563D02*
X313563D01*
X308563Y232716D02*
Y236117D01*
X313563Y232716D02*
Y236117D01*
X308563Y232716D02*
X313563D01*
X311960Y256997D02*
Y260397D01*
X306960Y256997D02*
Y260397D01*
Y256997D02*
X311960D01*
Y263597D02*
Y266997D01*
X306960Y263597D02*
Y266997D01*
X311960D01*
X308563Y250317D02*
Y253716D01*
X313563Y250317D02*
Y253716D01*
X308563D02*
X313563D01*
X308563Y243717D02*
Y247116D01*
X313563Y243717D02*
Y247116D01*
X308563Y243717D02*
X313563D01*
Y219717D02*
Y223116D01*
X308563Y219717D02*
Y223116D01*
Y219717D02*
X313563D01*
Y226316D02*
Y229716D01*
X308563Y226316D02*
Y229716D01*
X313563D01*
X317273Y256983D02*
Y260383D01*
X312273Y256983D02*
Y260383D01*
Y256983D02*
X317273D01*
Y263583D02*
Y266983D01*
X312273Y263583D02*
Y266983D01*
X317273D01*
X711960Y256997D02*
Y260397D01*
X706960Y256997D02*
Y260397D01*
Y256997D02*
X711960D01*
Y263597D02*
Y266997D01*
X706960Y263597D02*
Y266997D01*
X711960D01*
X717273Y256983D02*
Y260383D01*
X712273Y256983D02*
Y260383D01*
Y256983D02*
X717273D01*
Y263583D02*
Y266983D01*
X712273Y263583D02*
Y266983D01*
X717273D01*
X722829Y256983D02*
Y260383D01*
X717829Y256983D02*
Y260383D01*
Y256983D02*
X722829D01*
Y263583D02*
Y266983D01*
X717829Y263583D02*
Y266983D01*
X722829D01*
X728384Y256983D02*
Y260383D01*
X723384Y256983D02*
Y260383D01*
Y256983D02*
X728384D01*
Y263583D02*
Y266983D01*
X723384Y263583D02*
Y266983D01*
X728384D01*
X733940Y256983D02*
Y260383D01*
X728940Y256983D02*
Y260383D01*
Y256983D02*
X733940D01*
Y263583D02*
Y266983D01*
X728940Y263583D02*
Y266983D01*
X733940D01*
X739495Y256983D02*
Y260383D01*
X734495Y256983D02*
Y260383D01*
Y256983D02*
X739495D01*
Y263583D02*
Y266983D01*
X734495Y263583D02*
Y266983D01*
X739495D01*
X745051Y256983D02*
Y260383D01*
X740051Y256983D02*
Y260383D01*
Y256983D02*
X745051D01*
Y263583D02*
Y266983D01*
X740051Y263583D02*
Y266983D01*
X745051D01*
X746890Y243534D02*
Y246934D01*
X741890Y243534D02*
Y246934D01*
Y243534D02*
X746890D01*
Y250134D02*
Y253534D01*
X741890Y250134D02*
Y253534D01*
X746890D01*
X708727Y199317D02*
Y202716D01*
X713727Y199317D02*
Y202716D01*
X708727D02*
X713727D01*
X708727Y192717D02*
Y196116D01*
X713727Y192717D02*
Y196116D01*
X708727Y192717D02*
X713727D01*
X747563Y225716D02*
Y229117D01*
X742563Y225716D02*
Y229117D01*
Y225716D02*
X747563D01*
Y232316D02*
Y235717D01*
X742563Y232316D02*
Y235717D01*
X747563D01*
X708563Y250317D02*
Y253716D01*
X713563Y250317D02*
Y253716D01*
X708563D02*
X713563D01*
X708563Y243717D02*
Y247116D01*
X713563Y243717D02*
Y247116D01*
X708563Y243717D02*
X713563D01*
Y219717D02*
Y223116D01*
X708563Y219717D02*
Y223116D01*
Y219717D02*
X713563D01*
Y226316D02*
Y229716D01*
X708563Y226316D02*
Y229716D01*
X713563D01*
X708563Y239317D02*
Y242717D01*
X713563Y239317D02*
Y242717D01*
X708563D02*
X713563D01*
X708563Y232716D02*
Y236117D01*
X713563Y232716D02*
Y236117D01*
X708563Y232716D02*
X713563D01*
X741956Y199340D02*
Y202740D01*
X746956Y199340D02*
Y202740D01*
X741956D02*
X746956D01*
X741956Y192740D02*
Y196140D01*
X746956Y192740D02*
Y196140D01*
X741956Y192740D02*
X746956D01*
X859727Y44717D02*
Y48116D01*
X854727Y44717D02*
Y48116D01*
Y44717D02*
X859727D01*
Y51316D02*
Y54716D01*
X854727Y51316D02*
Y54716D01*
X859727D01*
X896008Y75717D02*
Y79116D01*
X891008Y75717D02*
Y79116D01*
Y75717D02*
X896008D01*
Y82316D02*
Y85716D01*
X891008Y82316D02*
Y85716D01*
X896008D01*
X888563Y17316D02*
Y20717D01*
X893563Y17316D02*
Y20717D01*
X888563D02*
X893563D01*
X888563Y10717D02*
Y14117D01*
X893563Y10717D02*
Y14117D01*
X888563Y10717D02*
X893563D01*
Y44717D02*
Y48116D01*
X888563Y44717D02*
Y48116D01*
Y44717D02*
X893563D01*
Y51316D02*
Y54716D01*
X888563Y51316D02*
Y54716D01*
X893563D01*
X859563Y63717D02*
Y67116D01*
X854563Y63717D02*
Y67116D01*
Y63717D02*
X859563D01*
Y70316D02*
Y73716D01*
X854563Y70316D02*
Y73716D01*
X859563D01*
X854727Y18316D02*
Y21716D01*
X859727Y18316D02*
Y21716D01*
X854727D02*
X859727D01*
X854727Y11716D02*
Y15116D01*
X859727Y11716D02*
Y15116D01*
X854727Y11716D02*
X859727D01*
X893563Y62717D02*
Y66116D01*
X888563Y62717D02*
Y66116D01*
Y62717D02*
X893563D01*
Y69317D02*
Y72716D01*
X888563Y69317D02*
Y72716D01*
X893563D01*
X890452Y75717D02*
Y79116D01*
X885452Y75717D02*
Y79116D01*
Y75717D02*
X890452D01*
Y82316D02*
Y85716D01*
X885452Y82316D02*
Y85716D01*
X890452D01*
X884896Y75717D02*
Y79116D01*
X879897Y75717D02*
Y79116D01*
Y75717D02*
X884896D01*
Y82316D02*
Y85716D01*
X879897Y82316D02*
Y85716D01*
X884896D01*
X879341Y75717D02*
Y79116D01*
X874341Y75717D02*
Y79116D01*
Y75717D02*
X879341D01*
Y82316D02*
Y85716D01*
X874341Y82316D02*
Y85716D01*
X879341D01*
X873785Y75717D02*
Y79116D01*
X868785Y75717D02*
Y79116D01*
Y75717D02*
X873785D01*
Y82316D02*
Y85716D01*
X868785Y82316D02*
Y85716D01*
X873785D01*
X868230Y75717D02*
Y79116D01*
X863230Y75717D02*
Y79116D01*
Y75717D02*
X868230D01*
Y82316D02*
Y85716D01*
X863230Y82316D02*
Y85716D01*
X868230D01*
X862674Y75717D02*
Y79116D01*
X857674Y75717D02*
Y79116D01*
Y75717D02*
X862674D01*
Y82316D02*
Y85716D01*
X857674Y82316D02*
Y85716D01*
X862674D01*
X857563Y75717D02*
Y79116D01*
X852563Y75717D02*
Y79116D01*
Y75717D02*
X857563D01*
Y82316D02*
Y85716D01*
X852563Y82316D02*
Y85716D01*
X857563D01*
X813727Y44717D02*
Y48116D01*
X808727Y44717D02*
Y48116D01*
Y44717D02*
X813727D01*
Y51316D02*
Y54716D01*
X808727Y51316D02*
Y54716D01*
X813727D01*
X847563Y61717D02*
Y65117D01*
X842563Y61717D02*
Y65117D01*
Y61717D02*
X847563D01*
Y68317D02*
Y71716D01*
X842563Y68317D02*
Y71716D01*
X847563D01*
X842563Y17316D02*
Y20717D01*
X847563Y17316D02*
Y20717D01*
X842563D02*
X847563D01*
X842563Y10717D02*
Y14117D01*
X847563Y10717D02*
Y14117D01*
X842563Y10717D02*
X847563D01*
Y44717D02*
Y48116D01*
X842563Y44717D02*
Y48116D01*
Y44717D02*
X847563D01*
Y51316D02*
Y54716D01*
X842563Y51316D02*
Y54716D01*
X847563D01*
X808563Y69317D02*
Y72716D01*
X813563Y69317D02*
Y72716D01*
X808563D02*
X813563D01*
X808563Y62717D02*
Y66116D01*
X813563Y62717D02*
Y66116D01*
X808563Y62717D02*
X813563D01*
X808727Y18316D02*
Y21716D01*
X813727Y18316D02*
Y21716D01*
X808727D02*
X813727D01*
X808727Y11716D02*
Y15116D01*
X813727Y11716D02*
Y15116D01*
X808727Y11716D02*
X813727D01*
X850563Y75717D02*
Y79116D01*
X845563Y75717D02*
Y79116D01*
Y75717D02*
X850563D01*
Y82316D02*
Y85716D01*
X845563Y82316D02*
Y85716D01*
X850563D01*
X844452Y75717D02*
Y79116D01*
X839452Y75717D02*
Y79116D01*
Y75717D02*
X844452D01*
Y82316D02*
Y85716D01*
X839452Y82316D02*
Y85716D01*
X844452D01*
X838896Y75717D02*
Y79116D01*
X833897Y75717D02*
Y79116D01*
Y75717D02*
X838896D01*
Y82316D02*
Y85716D01*
X833897Y82316D02*
Y85716D01*
X838896D01*
X833341Y75717D02*
Y79116D01*
X828341Y75717D02*
Y79116D01*
Y75717D02*
X833341D01*
Y82316D02*
Y85716D01*
X828341Y82316D02*
Y85716D01*
X833341D01*
X827785Y75717D02*
Y79116D01*
X822785Y75717D02*
Y79116D01*
Y75717D02*
X827785D01*
Y82316D02*
Y85716D01*
X822785Y82316D02*
Y85716D01*
X827785D01*
X822230Y75717D02*
Y79116D01*
X817230Y75717D02*
Y79116D01*
Y75717D02*
X822230D01*
Y82316D02*
Y85716D01*
X817230Y82316D02*
Y85716D01*
X822230D01*
X816674Y75717D02*
Y79116D01*
X811674Y75717D02*
Y79116D01*
Y75717D02*
X816674D01*
Y82316D02*
Y85716D01*
X811674Y82316D02*
Y85716D01*
X816674D01*
X811563Y75717D02*
Y79116D01*
X806563Y75717D02*
Y79116D01*
Y75717D02*
X811563D01*
Y82316D02*
Y85716D01*
X806563Y82316D02*
Y85716D01*
X811563D01*
X741063Y43053D02*
X744463D01*
X741063Y48053D02*
X744463D01*
X741063Y43053D02*
Y48053D01*
X747663Y43053D02*
X751063D01*
X747663Y48053D02*
X751063D01*
Y43053D02*
Y48053D01*
X759063Y9217D02*
X762463D01*
X759063Y14217D02*
X762463D01*
X759063Y9217D02*
Y14217D01*
X765663Y9217D02*
X769063D01*
X765663Y14217D02*
X769063D01*
Y9217D02*
Y14217D01*
X713663D02*
X717063D01*
X713663Y9217D02*
X717063D01*
Y14217D01*
X707063D02*
X710463D01*
X707063Y9217D02*
X710463D01*
X707063D02*
Y14217D01*
X741063Y9217D02*
X744463D01*
X741063Y14217D02*
X744463D01*
X741063Y9217D02*
Y14217D01*
X747663Y9217D02*
X751063D01*
X747663Y14217D02*
X751063D01*
Y9217D02*
Y14217D01*
X759173Y46319D02*
X762573D01*
X759173Y51319D02*
X762573D01*
X759173Y46319D02*
Y51319D01*
X765773Y46319D02*
X769173D01*
X765773Y51319D02*
X769173D01*
Y46319D02*
Y51319D01*
X714663Y48053D02*
X718063D01*
X714663Y43053D02*
X718063D01*
Y48053D01*
X708063D02*
X711463D01*
X708063Y43053D02*
X711463D01*
X708063D02*
Y48053D01*
X772063Y7216D02*
X775463D01*
X772063Y12217D02*
X775463D01*
X772063Y7216D02*
Y12217D01*
X778663Y7216D02*
X782063D01*
X778663Y12217D02*
X782063D01*
Y7216D02*
Y12217D01*
X772063Y12328D02*
X775463D01*
X772063Y17328D02*
X775463D01*
X772063Y12328D02*
Y17328D01*
X778663Y12328D02*
X782063D01*
X778663Y17328D02*
X782063D01*
Y12328D02*
Y17328D01*
X772063Y17883D02*
X775463D01*
X772063Y22883D02*
X775463D01*
X772063Y17883D02*
Y22883D01*
X778663Y17883D02*
X782063D01*
X778663Y22883D02*
X782063D01*
Y17883D02*
Y22883D01*
X772063Y23439D02*
X775463D01*
X772063Y28439D02*
X775463D01*
X772063Y23439D02*
Y28439D01*
X778663Y23439D02*
X782063D01*
X778663Y28439D02*
X782063D01*
Y23439D02*
Y28439D01*
X772063Y28994D02*
X775463D01*
X772063Y33994D02*
X775463D01*
X772063Y28994D02*
Y33994D01*
X778663Y28994D02*
X782063D01*
X778663Y33994D02*
X782063D01*
Y28994D02*
Y33994D01*
X772063Y34550D02*
X775463D01*
X772063Y39550D02*
X775463D01*
X772063Y34550D02*
Y39550D01*
X778663Y34550D02*
X782063D01*
X778663Y39550D02*
X782063D01*
Y34550D02*
Y39550D01*
X772063Y40105D02*
X775463D01*
X772063Y45105D02*
X775463D01*
X772063Y40105D02*
Y45105D01*
X778663Y40105D02*
X782063D01*
X778663Y45105D02*
X782063D01*
Y40105D02*
Y45105D01*
X772063Y45217D02*
X775463D01*
X772063Y50217D02*
X775463D01*
X772063Y45217D02*
Y50217D01*
X778663Y45217D02*
X782063D01*
X778663Y50217D02*
X782063D01*
Y45217D02*
Y50217D01*
X741063Y88053D02*
X744463D01*
X741063Y93053D02*
X744463D01*
X741063Y88053D02*
Y93053D01*
X747663Y88053D02*
X751063D01*
X747663Y93053D02*
X751063D01*
Y88053D02*
Y93053D01*
X760063Y54216D02*
X763463D01*
X760063Y59216D02*
X763463D01*
X760063Y54216D02*
Y59216D01*
X766663Y54216D02*
X770063D01*
X766663Y59216D02*
X770063D01*
Y54216D02*
Y59216D01*
X713663D02*
X717063D01*
X713663Y54216D02*
X717063D01*
Y59216D01*
X707063D02*
X710463D01*
X707063Y54216D02*
X710463D01*
X707063D02*
Y59216D01*
X741063Y54216D02*
X744463D01*
X741063Y59216D02*
X744463D01*
X741063Y54216D02*
Y59216D01*
X747663Y54216D02*
X751063D01*
X747663Y59216D02*
X751063D01*
Y54216D02*
Y59216D01*
X759173Y91201D02*
X762573D01*
X759173Y96201D02*
X762573D01*
X759173Y91201D02*
Y96201D01*
X765773Y91201D02*
X769173D01*
X765773Y96201D02*
X769173D01*
Y91201D02*
Y96201D01*
X714663Y93053D02*
X718063D01*
X714663Y88053D02*
X718063D01*
Y93053D01*
X708063D02*
X711463D01*
X708063Y88053D02*
X711463D01*
X708063D02*
Y93053D01*
X772115Y50739D02*
X775515D01*
X772115Y55739D02*
X775515D01*
X772115Y50739D02*
Y55739D01*
X778715Y50739D02*
X782115D01*
X778715Y55739D02*
X782115D01*
Y50739D02*
Y55739D01*
X772063Y57328D02*
X775463D01*
X772063Y62328D02*
X775463D01*
X772063Y57328D02*
Y62328D01*
X778663Y57328D02*
X782063D01*
X778663Y62328D02*
X782063D01*
Y57328D02*
Y62328D01*
X772063Y62883D02*
X775463D01*
X772063Y67883D02*
X775463D01*
X772063Y62883D02*
Y67883D01*
X778663Y62883D02*
X782063D01*
X778663Y67883D02*
X782063D01*
Y62883D02*
Y67883D01*
X772063Y68439D02*
X775463D01*
X772063Y73439D02*
X775463D01*
X772063Y68439D02*
Y73439D01*
X778663Y68439D02*
X782063D01*
X778663Y73439D02*
X782063D01*
Y68439D02*
Y73439D01*
X772063Y73994D02*
X775463D01*
X772063Y78994D02*
X775463D01*
X772063Y73994D02*
Y78994D01*
X778663Y73994D02*
X782063D01*
X778663Y78994D02*
X782063D01*
Y73994D02*
Y78994D01*
X772063Y79550D02*
X775463D01*
X772063Y84550D02*
X775463D01*
X772063Y79550D02*
Y84550D01*
X778663Y79550D02*
X782063D01*
X778663Y84550D02*
X782063D01*
Y79550D02*
Y84550D01*
X772063Y85105D02*
X775463D01*
X772063Y90105D02*
X775463D01*
X772063Y85105D02*
Y90105D01*
X778663Y85105D02*
X782063D01*
X778663Y90105D02*
X782063D01*
Y85105D02*
Y90105D01*
X772063Y90216D02*
X775463D01*
X772063Y95217D02*
X775463D01*
X772063Y90216D02*
Y95217D01*
X778663Y90216D02*
X782063D01*
X778663Y95217D02*
X782063D01*
Y90216D02*
Y95217D01*
X857727Y142717D02*
Y146116D01*
X852727Y142717D02*
Y146116D01*
Y142717D02*
X857727D01*
Y149317D02*
Y152717D01*
X852727Y149317D02*
Y152717D01*
X857727D01*
X892008Y160716D02*
Y164117D01*
X887008Y160716D02*
Y164117D01*
Y160716D02*
X892008D01*
Y167316D02*
Y170717D01*
X887008Y167316D02*
Y170717D01*
X892008D01*
X886563Y115316D02*
Y118717D01*
X891563Y115316D02*
Y118717D01*
X886563D02*
X891563D01*
X886563Y108716D02*
Y112117D01*
X891563Y108716D02*
Y112117D01*
X886563Y108716D02*
X891563D01*
Y142717D02*
Y146116D01*
X886563Y142717D02*
Y146116D01*
Y142717D02*
X891563D01*
Y149317D02*
Y152717D01*
X886563Y149317D02*
Y152717D01*
X891563D01*
X857406Y173605D02*
Y177005D01*
X852406Y173605D02*
Y177005D01*
Y173605D02*
X857406D01*
Y180205D02*
Y183605D01*
X852406Y180205D02*
Y183605D01*
X857406D01*
X852727Y116316D02*
Y119717D01*
X857727Y116316D02*
Y119717D01*
X852727D02*
X857727D01*
X852727Y109716D02*
Y113117D01*
X857727Y109716D02*
Y113117D01*
X852727Y109716D02*
X857727D01*
X895624Y173105D02*
Y176505D01*
X890624Y173105D02*
Y176505D01*
Y173105D02*
X895624D01*
Y179705D02*
Y183105D01*
X890624Y179705D02*
Y183105D01*
X895624D01*
X890164Y173605D02*
Y177005D01*
X885164Y173605D02*
Y177005D01*
Y173605D02*
X890164D01*
Y180205D02*
Y183605D01*
X885164Y180205D02*
Y183605D01*
X890164D01*
X884705Y173605D02*
Y177005D01*
X879705Y173605D02*
Y177005D01*
Y173605D02*
X884705D01*
Y180205D02*
Y183605D01*
X879705Y180205D02*
Y183605D01*
X884705D01*
X879340Y174626D02*
Y178026D01*
X874340Y174626D02*
Y178026D01*
Y174626D02*
X879340D01*
Y181226D02*
Y184626D01*
X874340Y181226D02*
Y184626D01*
X879340D01*
X873785Y173605D02*
Y177005D01*
X868785Y173605D02*
Y177005D01*
Y173605D02*
X873785D01*
Y180205D02*
Y183605D01*
X868785Y180205D02*
Y183605D01*
X873785D01*
X868326Y173605D02*
Y177005D01*
X863326Y173605D02*
Y177005D01*
Y173605D02*
X868326D01*
Y180205D02*
Y183605D01*
X863326Y180205D02*
Y183605D01*
X868326D01*
X862866Y173605D02*
Y177005D01*
X857866Y173605D02*
Y177005D01*
Y173605D02*
X862866D01*
Y180205D02*
Y183605D01*
X857866Y180205D02*
Y183605D01*
X862866D01*
X857727Y160716D02*
Y164117D01*
X852727Y160716D02*
Y164117D01*
Y160716D02*
X857727D01*
Y167316D02*
Y170717D01*
X852727Y167316D02*
Y170717D01*
X857727D01*
X741063Y133053D02*
X744463D01*
X741063Y138053D02*
X744463D01*
X741063Y133053D02*
Y138053D01*
X747663Y133053D02*
X751063D01*
X747663Y138053D02*
X751063D01*
Y133053D02*
Y138053D01*
X759756Y99035D02*
X763156D01*
X759756Y104035D02*
X763156D01*
X759756Y99035D02*
Y104035D01*
X766356Y99035D02*
X769756D01*
X766356Y104035D02*
X769756D01*
Y99035D02*
Y104035D01*
X713663Y104217D02*
X717063D01*
X713663Y99217D02*
X717063D01*
Y104217D01*
X707063D02*
X710463D01*
X707063Y99217D02*
X710463D01*
X707063D02*
Y104217D01*
X741063Y99217D02*
X744463D01*
X741063Y104217D02*
X744463D01*
X741063Y99217D02*
Y104217D01*
X747663Y99217D02*
X751063D01*
X747663Y104217D02*
X751063D01*
Y99217D02*
Y104217D01*
X759684Y133548D02*
X763084D01*
X759684Y138548D02*
X763084D01*
X759684Y133548D02*
Y138548D01*
X766284Y133548D02*
X769684D01*
X766284Y138548D02*
X769684D01*
Y133548D02*
Y138548D01*
X714663Y138053D02*
X718063D01*
X714663Y133053D02*
X718063D01*
Y138053D01*
X708063D02*
X711463D01*
X708063Y133053D02*
X711463D01*
X708063D02*
Y138053D01*
X771983Y96706D02*
X775383D01*
X771983Y101706D02*
X775383D01*
X771983Y96706D02*
Y101706D01*
X778583Y96706D02*
X781983D01*
X778583Y101706D02*
X781983D01*
Y96706D02*
Y101706D01*
X772063Y102328D02*
X775463D01*
X772063Y107328D02*
X775463D01*
X772063Y102328D02*
Y107328D01*
X778663Y102328D02*
X782063D01*
X778663Y107328D02*
X782063D01*
Y102328D02*
Y107328D01*
X772063Y107883D02*
X775463D01*
X772063Y112883D02*
X775463D01*
X772063Y107883D02*
Y112883D01*
X778663Y107883D02*
X782063D01*
X778663Y112883D02*
X782063D01*
Y107883D02*
Y112883D01*
X772063Y113439D02*
X775463D01*
X772063Y118439D02*
X775463D01*
X772063Y113439D02*
Y118439D01*
X778663Y113439D02*
X782063D01*
X778663Y118439D02*
X782063D01*
Y113439D02*
Y118439D01*
X772063Y118994D02*
X775463D01*
X772063Y123994D02*
X775463D01*
X772063Y118994D02*
Y123994D01*
X778663Y118994D02*
X782063D01*
X778663Y123994D02*
X782063D01*
Y118994D02*
Y123994D01*
X772063Y124550D02*
X775463D01*
X772063Y129550D02*
X775463D01*
X772063Y124550D02*
Y129550D01*
X778663Y124550D02*
X782063D01*
X778663Y129550D02*
X782063D01*
Y124550D02*
Y129550D01*
X772063Y130105D02*
X775463D01*
X772063Y135105D02*
X775463D01*
X772063Y130105D02*
Y135105D01*
X778663Y130105D02*
X782063D01*
X778663Y135105D02*
X782063D01*
Y130105D02*
Y135105D01*
X772337Y135575D02*
X775737D01*
X772337Y140575D02*
X775737D01*
X772337Y135575D02*
Y140575D01*
X778937Y135575D02*
X782337D01*
X778937Y140575D02*
X782337D01*
Y135575D02*
Y140575D01*
X741138Y179053D02*
X744538D01*
X741138Y184053D02*
X744538D01*
X741138Y179053D02*
Y184053D01*
X747738Y179053D02*
X751138D01*
X747738Y184053D02*
X751138D01*
Y179053D02*
Y184053D01*
X759063Y145217D02*
X762463D01*
X759063Y150216D02*
X762463D01*
X759063Y145217D02*
Y150216D01*
X765663Y145217D02*
X769063D01*
X765663Y150216D02*
X769063D01*
Y145217D02*
Y150216D01*
X713663D02*
X717063D01*
X713663Y145217D02*
X717063D01*
Y150216D01*
X707063D02*
X710463D01*
X707063Y145217D02*
X710463D01*
X707063D02*
Y150216D01*
X741063Y145217D02*
X744463D01*
X741063Y150216D02*
X744463D01*
X741063Y145217D02*
Y150216D01*
X747663Y145217D02*
X751063D01*
X747663Y150216D02*
X751063D01*
Y145217D02*
Y150216D01*
X760063Y179217D02*
X763463D01*
X760063Y184216D02*
X763463D01*
X760063Y179217D02*
Y184216D01*
X766663Y179217D02*
X770063D01*
X766663Y184216D02*
X770063D01*
Y179217D02*
Y184216D01*
X714663Y184053D02*
X718063D01*
X714663Y179053D02*
X718063D01*
Y184053D01*
X708063D02*
X711463D01*
X708063Y179053D02*
X711463D01*
X708063D02*
Y184053D01*
X772063Y142217D02*
X775463D01*
X772063Y147216D02*
X775463D01*
X772063Y142217D02*
Y147216D01*
X778663Y142217D02*
X782063D01*
X778663Y147216D02*
X782063D01*
Y142217D02*
Y147216D01*
X772063Y148328D02*
X775463D01*
X772063Y153328D02*
X775463D01*
X772063Y148328D02*
Y153328D01*
X778663Y148328D02*
X782063D01*
X778663Y153328D02*
X782063D01*
Y148328D02*
Y153328D01*
X772063Y153883D02*
X775463D01*
X772063Y158883D02*
X775463D01*
X772063Y153883D02*
Y158883D01*
X778663Y153883D02*
X782063D01*
X778663Y158883D02*
X782063D01*
Y153883D02*
Y158883D01*
X772063Y159439D02*
X775463D01*
X772063Y164439D02*
X775463D01*
X772063Y159439D02*
Y164439D01*
X778663Y159439D02*
X782063D01*
X778663Y164439D02*
X782063D01*
Y159439D02*
Y164439D01*
X772063Y164994D02*
X775463D01*
X772063Y169994D02*
X775463D01*
X772063Y164994D02*
Y169994D01*
X778663Y164994D02*
X782063D01*
X778663Y169994D02*
X782063D01*
Y164994D02*
Y169994D01*
X772063Y170550D02*
X775463D01*
X772063Y175550D02*
X775463D01*
X772063Y170550D02*
Y175550D01*
X778663Y170550D02*
X782063D01*
X778663Y175550D02*
X782063D01*
Y170550D02*
Y175550D01*
X772063Y176105D02*
X775463D01*
X772063Y181105D02*
X775463D01*
X772063Y176105D02*
Y181105D01*
X778663Y176105D02*
X782063D01*
X778663Y181105D02*
X782063D01*
Y176105D02*
Y181105D01*
X772063Y181217D02*
X775463D01*
X772063Y186216D02*
X775463D01*
X772063Y181217D02*
Y186216D01*
X778663Y181217D02*
X782063D01*
X778663Y186216D02*
X782063D01*
Y181217D02*
Y186216D01*
X857727Y224716D02*
Y228116D01*
X852727Y224716D02*
Y228116D01*
Y224716D02*
X857727D01*
Y231316D02*
Y234717D01*
X852727Y231316D02*
Y234717D01*
X857727D01*
X891867Y242688D02*
Y246088D01*
X886867Y242688D02*
Y246088D01*
Y242688D02*
X891867D01*
Y249288D02*
Y252688D01*
X886867Y249288D02*
Y252688D01*
X891867D01*
X886563Y198317D02*
Y201716D01*
X891563Y198317D02*
Y201716D01*
X886563D02*
X891563D01*
X886563Y191717D02*
Y195116D01*
X891563Y191717D02*
Y195116D01*
X886563Y191717D02*
X891563D01*
Y225716D02*
Y229117D01*
X886563Y225716D02*
Y229117D01*
Y225716D02*
X891563D01*
Y232316D02*
Y235717D01*
X886563Y232316D02*
Y235717D01*
X891563D01*
X858589Y244717D02*
Y248116D01*
X853589Y244717D02*
Y248116D01*
Y244717D02*
X858589D01*
Y251316D02*
Y254716D01*
X853589Y251316D02*
Y254716D01*
X858589D01*
X852727Y199317D02*
Y202716D01*
X857727Y199317D02*
Y202716D01*
X852727D02*
X857727D01*
X852727Y192717D02*
Y196116D01*
X857727Y192717D02*
Y196116D01*
X852727Y192717D02*
X857727D01*
X895420Y256579D02*
Y259979D01*
X890420Y256579D02*
Y259979D01*
Y256579D02*
X895420D01*
Y263179D02*
Y266579D01*
X890420Y263179D02*
Y266579D01*
X895420D01*
X889949Y256579D02*
Y259979D01*
X884949Y256579D02*
Y259979D01*
Y256579D02*
X889949D01*
Y263179D02*
Y266579D01*
X884949Y263179D02*
Y266579D01*
X889949D01*
X884477Y256579D02*
Y259979D01*
X879477Y256579D02*
Y259979D01*
Y256579D02*
X884477D01*
Y263179D02*
Y266579D01*
X879477Y263179D02*
Y266579D01*
X884477D01*
X879025Y257497D02*
Y260897D01*
X874025Y257497D02*
Y260897D01*
Y257497D02*
X879025D01*
Y264097D02*
Y267497D01*
X874025Y264097D02*
Y267497D01*
X879025D01*
X873534Y256579D02*
Y259979D01*
X868534Y256579D02*
Y259979D01*
Y256579D02*
X873534D01*
Y263179D02*
Y266579D01*
X868534Y263179D02*
Y266579D01*
X873534D01*
X868063Y256579D02*
Y259979D01*
X863063Y256579D02*
Y259979D01*
Y256579D02*
X868063D01*
Y263179D02*
Y266579D01*
X863063Y263179D02*
Y266579D01*
X868063D01*
X862592Y256579D02*
Y259979D01*
X857592Y256579D02*
Y259979D01*
Y256579D02*
X862592D01*
Y263179D02*
Y266579D01*
X857592Y263179D02*
Y266579D01*
X862592D01*
X857120Y256579D02*
Y259979D01*
X852120Y256579D02*
Y259979D01*
Y256579D02*
X857120D01*
Y263179D02*
Y266579D01*
X852120Y263179D02*
Y266579D01*
X857120D01*
X659727Y44717D02*
Y48116D01*
X654727Y44717D02*
Y48116D01*
Y44717D02*
X659727D01*
Y51316D02*
Y54716D01*
X654727Y51316D02*
Y54716D01*
X659727D01*
X696007Y75717D02*
Y79116D01*
X691008Y75717D02*
Y79116D01*
Y75717D02*
X696007D01*
Y82316D02*
Y85716D01*
X691008Y82316D02*
Y85716D01*
X696007D01*
X688563Y17316D02*
Y20717D01*
X693563Y17316D02*
Y20717D01*
X688563D02*
X693563D01*
X688563Y10717D02*
Y14117D01*
X693563Y10717D02*
Y14117D01*
X688563Y10717D02*
X693563D01*
Y44717D02*
Y48116D01*
X688563Y44717D02*
Y48116D01*
Y44717D02*
X693563D01*
Y51316D02*
Y54716D01*
X688563Y51316D02*
Y54716D01*
X693563D01*
X659563Y63717D02*
Y67116D01*
X654563Y63717D02*
Y67116D01*
Y63717D02*
X659563D01*
Y70316D02*
Y73716D01*
X654563Y70316D02*
Y73716D01*
X659563D01*
X654727Y18316D02*
Y21716D01*
X659727Y18316D02*
Y21716D01*
X654727D02*
X659727D01*
X654727Y11716D02*
Y15116D01*
X659727Y11716D02*
Y15116D01*
X654727Y11716D02*
X659727D01*
X693563Y62717D02*
Y66116D01*
X688563Y62717D02*
Y66116D01*
Y62717D02*
X693563D01*
Y69317D02*
Y72716D01*
X688563Y69317D02*
Y72716D01*
X693563D01*
X690452Y75717D02*
Y79116D01*
X685452Y75717D02*
Y79116D01*
Y75717D02*
X690452D01*
Y82316D02*
Y85716D01*
X685452Y82316D02*
Y85716D01*
X690452D01*
X684897Y75717D02*
Y79116D01*
X679896Y75717D02*
Y79116D01*
Y75717D02*
X684897D01*
Y82316D02*
Y85716D01*
X679896Y82316D02*
Y85716D01*
X684897D01*
X679341Y75717D02*
Y79116D01*
X674341Y75717D02*
Y79116D01*
Y75717D02*
X679341D01*
Y82316D02*
Y85716D01*
X674341Y82316D02*
Y85716D01*
X679341D01*
X673785Y75717D02*
Y79116D01*
X668785Y75717D02*
Y79116D01*
Y75717D02*
X673785D01*
Y82316D02*
Y85716D01*
X668785Y82316D02*
Y85716D01*
X673785D01*
X668230Y75717D02*
Y79116D01*
X663230Y75717D02*
Y79116D01*
Y75717D02*
X668230D01*
Y82316D02*
Y85716D01*
X663230Y82316D02*
Y85716D01*
X668230D01*
X662674Y75717D02*
Y79116D01*
X657674Y75717D02*
Y79116D01*
Y75717D02*
X662674D01*
Y82316D02*
Y85716D01*
X657674Y82316D02*
Y85716D01*
X662674D01*
X657563Y75717D02*
Y79116D01*
X652563Y75717D02*
Y79116D01*
Y75717D02*
X657563D01*
Y82316D02*
Y85716D01*
X652563Y82316D02*
Y85716D01*
X657563D01*
X613727Y44717D02*
Y48116D01*
X608727Y44717D02*
Y48116D01*
Y44717D02*
X613727D01*
Y51316D02*
Y54716D01*
X608727Y51316D02*
Y54716D01*
X613727D01*
X647563Y61717D02*
Y65117D01*
X642563Y61717D02*
Y65117D01*
Y61717D02*
X647563D01*
Y68317D02*
Y71716D01*
X642563Y68317D02*
Y71716D01*
X647563D01*
X642563Y17316D02*
Y20717D01*
X647563Y17316D02*
Y20717D01*
X642563D02*
X647563D01*
X642563Y10717D02*
Y14117D01*
X647563Y10717D02*
Y14117D01*
X642563Y10717D02*
X647563D01*
Y44717D02*
Y48116D01*
X642563Y44717D02*
Y48116D01*
Y44717D02*
X647563D01*
Y51316D02*
Y54716D01*
X642563Y51316D02*
Y54716D01*
X647563D01*
X608563Y69317D02*
Y72716D01*
X613563Y69317D02*
Y72716D01*
X608563D02*
X613563D01*
X608563Y62717D02*
Y66116D01*
X613563Y62717D02*
Y66116D01*
X608563Y62717D02*
X613563D01*
X608727Y18316D02*
Y21716D01*
X613727Y18316D02*
Y21716D01*
X608727D02*
X613727D01*
X608727Y11716D02*
Y15116D01*
X613727Y11716D02*
Y15116D01*
X608727Y11716D02*
X613727D01*
X650563Y75717D02*
Y79116D01*
X645563Y75717D02*
Y79116D01*
Y75717D02*
X650563D01*
Y82316D02*
Y85716D01*
X645563Y82316D02*
Y85716D01*
X650563D01*
X644452Y75717D02*
Y79116D01*
X639452Y75717D02*
Y79116D01*
Y75717D02*
X644452D01*
Y82316D02*
Y85716D01*
X639452Y82316D02*
Y85716D01*
X644452D01*
X638897Y75717D02*
Y79116D01*
X633896Y75717D02*
Y79116D01*
Y75717D02*
X638897D01*
Y82316D02*
Y85716D01*
X633896Y82316D02*
Y85716D01*
X638897D01*
X633341Y75717D02*
Y79116D01*
X628341Y75717D02*
Y79116D01*
Y75717D02*
X633341D01*
Y82316D02*
Y85716D01*
X628341Y82316D02*
Y85716D01*
X633341D01*
X627785Y75717D02*
Y79116D01*
X622785Y75717D02*
Y79116D01*
Y75717D02*
X627785D01*
Y82316D02*
Y85716D01*
X622785Y82316D02*
Y85716D01*
X627785D01*
X622230Y75717D02*
Y79116D01*
X617230Y75717D02*
Y79116D01*
Y75717D02*
X622230D01*
Y82316D02*
Y85716D01*
X617230Y82316D02*
Y85716D01*
X622230D01*
X616674Y75717D02*
Y79116D01*
X611674Y75717D02*
Y79116D01*
Y75717D02*
X616674D01*
Y82316D02*
Y85716D01*
X611674Y82316D02*
Y85716D01*
X616674D01*
X611563Y75717D02*
Y79116D01*
X606563Y75717D02*
Y79116D01*
Y75717D02*
X611563D01*
Y82316D02*
Y85716D01*
X606563Y82316D02*
Y85716D01*
X611563D01*
X541063Y43053D02*
X544463D01*
X541063Y48053D02*
X544463D01*
X541063Y43053D02*
Y48053D01*
X547663Y43053D02*
X551063D01*
X547663Y48053D02*
X551063D01*
Y43053D02*
Y48053D01*
X559063Y9217D02*
X562463D01*
X559063Y14217D02*
X562463D01*
X559063Y9217D02*
Y14217D01*
X565663Y9217D02*
X569063D01*
X565663Y14217D02*
X569063D01*
Y9217D02*
Y14217D01*
X513663D02*
X517063D01*
X513663Y9217D02*
X517063D01*
Y14217D01*
X507063D02*
X510463D01*
X507063Y9217D02*
X510463D01*
X507063D02*
Y14217D01*
X541063Y9217D02*
X544463D01*
X541063Y14217D02*
X544463D01*
X541063Y9217D02*
Y14217D01*
X547663Y9217D02*
X551063D01*
X547663Y14217D02*
X551063D01*
Y9217D02*
Y14217D01*
X559173Y46319D02*
X562573D01*
X559173Y51319D02*
X562573D01*
X559173Y46319D02*
Y51319D01*
X565773Y46319D02*
X569173D01*
X565773Y51319D02*
X569173D01*
Y46319D02*
Y51319D01*
X514663Y48053D02*
X518063D01*
X514663Y43053D02*
X518063D01*
Y48053D01*
X508063D02*
X511463D01*
X508063Y43053D02*
X511463D01*
X508063D02*
Y48053D01*
X572063Y7216D02*
X575463D01*
X572063Y12217D02*
X575463D01*
X572063Y7216D02*
Y12217D01*
X578663Y7216D02*
X582063D01*
X578663Y12217D02*
X582063D01*
Y7216D02*
Y12217D01*
X572063Y12328D02*
X575463D01*
X572063Y17328D02*
X575463D01*
X572063Y12328D02*
Y17328D01*
X578663Y12328D02*
X582063D01*
X578663Y17328D02*
X582063D01*
Y12328D02*
Y17328D01*
X572063Y17883D02*
X575463D01*
X572063Y22883D02*
X575463D01*
X572063Y17883D02*
Y22883D01*
X578663Y17883D02*
X582063D01*
X578663Y22883D02*
X582063D01*
Y17883D02*
Y22883D01*
X572063Y23439D02*
X575463D01*
X572063Y28439D02*
X575463D01*
X572063Y23439D02*
Y28439D01*
X578663Y23439D02*
X582063D01*
X578663Y28439D02*
X582063D01*
Y23439D02*
Y28439D01*
X572063Y28994D02*
X575463D01*
X572063Y33994D02*
X575463D01*
X572063Y28994D02*
Y33994D01*
X578663Y28994D02*
X582063D01*
X578663Y33994D02*
X582063D01*
Y28994D02*
Y33994D01*
X572063Y34550D02*
X575463D01*
X572063Y39550D02*
X575463D01*
X572063Y34550D02*
Y39550D01*
X578663Y34550D02*
X582063D01*
X578663Y39550D02*
X582063D01*
Y34550D02*
Y39550D01*
X572063Y40105D02*
X575463D01*
X572063Y45105D02*
X575463D01*
X572063Y40105D02*
Y45105D01*
X578663Y40105D02*
X582063D01*
X578663Y45105D02*
X582063D01*
Y40105D02*
Y45105D01*
X572063Y45217D02*
X575463D01*
X572063Y50217D02*
X575463D01*
X572063Y45217D02*
Y50217D01*
X578663Y45217D02*
X582063D01*
X578663Y50217D02*
X582063D01*
Y45217D02*
Y50217D01*
X541063Y88053D02*
X544463D01*
X541063Y93053D02*
X544463D01*
X541063Y88053D02*
Y93053D01*
X547663Y88053D02*
X551063D01*
X547663Y93053D02*
X551063D01*
Y88053D02*
Y93053D01*
X560063Y54216D02*
X563463D01*
X560063Y59216D02*
X563463D01*
X560063Y54216D02*
Y59216D01*
X566663Y54216D02*
X570063D01*
X566663Y59216D02*
X570063D01*
Y54216D02*
Y59216D01*
X513663D02*
X517063D01*
X513663Y54216D02*
X517063D01*
Y59216D01*
X507063D02*
X510463D01*
X507063Y54216D02*
X510463D01*
X507063D02*
Y59216D01*
X541063Y54216D02*
X544463D01*
X541063Y59216D02*
X544463D01*
X541063Y54216D02*
Y59216D01*
X547663Y54216D02*
X551063D01*
X547663Y59216D02*
X551063D01*
Y54216D02*
Y59216D01*
X559173Y91201D02*
X562573D01*
X559173Y96201D02*
X562573D01*
X559173Y91201D02*
Y96201D01*
X565773Y91201D02*
X569173D01*
X565773Y96201D02*
X569173D01*
Y91201D02*
Y96201D01*
X514663Y93053D02*
X518063D01*
X514663Y88053D02*
X518063D01*
Y93053D01*
X508063D02*
X511463D01*
X508063Y88053D02*
X511463D01*
X508063D02*
Y93053D01*
X572115Y50739D02*
X575515D01*
X572115Y55739D02*
X575515D01*
X572115Y50739D02*
Y55739D01*
X578715Y50739D02*
X582115D01*
X578715Y55739D02*
X582115D01*
Y50739D02*
Y55739D01*
X572063Y57328D02*
X575463D01*
X572063Y62328D02*
X575463D01*
X572063Y57328D02*
Y62328D01*
X578663Y57328D02*
X582063D01*
X578663Y62328D02*
X582063D01*
Y57328D02*
Y62328D01*
X572063Y62883D02*
X575463D01*
X572063Y67883D02*
X575463D01*
X572063Y62883D02*
Y67883D01*
X578663Y62883D02*
X582063D01*
X578663Y67883D02*
X582063D01*
Y62883D02*
Y67883D01*
X572063Y68439D02*
X575463D01*
X572063Y73439D02*
X575463D01*
X572063Y68439D02*
Y73439D01*
X578663Y68439D02*
X582063D01*
X578663Y73439D02*
X582063D01*
Y68439D02*
Y73439D01*
X572063Y73994D02*
X575463D01*
X572063Y78994D02*
X575463D01*
X572063Y73994D02*
Y78994D01*
X578663Y73994D02*
X582063D01*
X578663Y78994D02*
X582063D01*
Y73994D02*
Y78994D01*
X572063Y79550D02*
X575463D01*
X572063Y84550D02*
X575463D01*
X572063Y79550D02*
Y84550D01*
X578663Y79550D02*
X582063D01*
X578663Y84550D02*
X582063D01*
Y79550D02*
Y84550D01*
X572063Y85105D02*
X575463D01*
X572063Y90105D02*
X575463D01*
X572063Y85105D02*
Y90105D01*
X578663Y85105D02*
X582063D01*
X578663Y90105D02*
X582063D01*
Y85105D02*
Y90105D01*
X572063Y90216D02*
X575463D01*
X572063Y95217D02*
X575463D01*
X572063Y90216D02*
Y95217D01*
X578663Y90216D02*
X582063D01*
X578663Y95217D02*
X582063D01*
Y90216D02*
Y95217D01*
X657727Y142717D02*
Y146116D01*
X652727Y142717D02*
Y146116D01*
Y142717D02*
X657727D01*
Y149317D02*
Y152717D01*
X652727Y149317D02*
Y152717D01*
X657727D01*
X692007Y160716D02*
Y164117D01*
X687008Y160716D02*
Y164117D01*
Y160716D02*
X692007D01*
Y167316D02*
Y170717D01*
X687008Y167316D02*
Y170717D01*
X692007D01*
X686563Y115316D02*
Y118717D01*
X691563Y115316D02*
Y118717D01*
X686563D02*
X691563D01*
X686563Y108716D02*
Y112117D01*
X691563Y108716D02*
Y112117D01*
X686563Y108716D02*
X691563D01*
Y142717D02*
Y146116D01*
X686563Y142717D02*
Y146116D01*
Y142717D02*
X691563D01*
Y149317D02*
Y152717D01*
X686563Y149317D02*
Y152717D01*
X691563D01*
X657406Y173605D02*
Y177005D01*
X652406Y173605D02*
Y177005D01*
Y173605D02*
X657406D01*
Y180205D02*
Y183605D01*
X652406Y180205D02*
Y183605D01*
X657406D01*
X652727Y116316D02*
Y119717D01*
X657727Y116316D02*
Y119717D01*
X652727D02*
X657727D01*
X652727Y109716D02*
Y113117D01*
X657727Y109716D02*
Y113117D01*
X652727Y109716D02*
X657727D01*
X695624Y173105D02*
Y176505D01*
X690624Y173105D02*
Y176505D01*
Y173105D02*
X695624D01*
Y179705D02*
Y183105D01*
X690624Y179705D02*
Y183105D01*
X695624D01*
X690164Y173605D02*
Y177005D01*
X685164Y173605D02*
Y177005D01*
Y173605D02*
X690164D01*
Y180205D02*
Y183605D01*
X685164Y180205D02*
Y183605D01*
X690164D01*
X684705Y173605D02*
Y177005D01*
X679705Y173605D02*
Y177005D01*
Y173605D02*
X684705D01*
Y180205D02*
Y183605D01*
X679705Y180205D02*
Y183605D01*
X684705D01*
X679340Y174626D02*
Y178026D01*
X674340Y174626D02*
Y178026D01*
Y174626D02*
X679340D01*
Y181226D02*
Y184626D01*
X674340Y181226D02*
Y184626D01*
X679340D01*
X673785Y173605D02*
Y177005D01*
X668785Y173605D02*
Y177005D01*
Y173605D02*
X673785D01*
Y180205D02*
Y183605D01*
X668785Y180205D02*
Y183605D01*
X673785D01*
X668326Y173605D02*
Y177005D01*
X663326Y173605D02*
Y177005D01*
Y173605D02*
X668326D01*
Y180205D02*
Y183605D01*
X663326Y180205D02*
Y183605D01*
X668326D01*
X662866Y173605D02*
Y177005D01*
X657866Y173605D02*
Y177005D01*
Y173605D02*
X662866D01*
Y180205D02*
Y183605D01*
X657866Y180205D02*
Y183605D01*
X662866D01*
X657727Y160716D02*
Y164117D01*
X652727Y160716D02*
Y164117D01*
Y160716D02*
X657727D01*
Y167316D02*
Y170717D01*
X652727Y167316D02*
Y170717D01*
X657727D01*
X541063Y133053D02*
X544463D01*
X541063Y138053D02*
X544463D01*
X541063Y133053D02*
Y138053D01*
X547663Y133053D02*
X551063D01*
X547663Y138053D02*
X551063D01*
Y133053D02*
Y138053D01*
X559756Y99035D02*
X563156D01*
X559756Y104035D02*
X563156D01*
X559756Y99035D02*
Y104035D01*
X566356Y99035D02*
X569756D01*
X566356Y104035D02*
X569756D01*
Y99035D02*
Y104035D01*
X513663Y104217D02*
X517063D01*
X513663Y99217D02*
X517063D01*
Y104217D01*
X507063D02*
X510463D01*
X507063Y99217D02*
X510463D01*
X507063D02*
Y104217D01*
X541063Y99217D02*
X544463D01*
X541063Y104217D02*
X544463D01*
X541063Y99217D02*
Y104217D01*
X547663Y99217D02*
X551063D01*
X547663Y104217D02*
X551063D01*
Y99217D02*
Y104217D01*
X559684Y133548D02*
X563084D01*
X559684Y138548D02*
X563084D01*
X559684Y133548D02*
Y138548D01*
X566284Y133548D02*
X569684D01*
X566284Y138548D02*
X569684D01*
Y133548D02*
Y138548D01*
X514663Y138053D02*
X518063D01*
X514663Y133053D02*
X518063D01*
Y138053D01*
X508063D02*
X511463D01*
X508063Y133053D02*
X511463D01*
X508063D02*
Y138053D01*
X571983Y96706D02*
X575383D01*
X571983Y101706D02*
X575383D01*
X571983Y96706D02*
Y101706D01*
X578583Y96706D02*
X581983D01*
X578583Y101706D02*
X581983D01*
Y96706D02*
Y101706D01*
X572063Y102328D02*
X575463D01*
X572063Y107328D02*
X575463D01*
X572063Y102328D02*
Y107328D01*
X578663Y102328D02*
X582063D01*
X578663Y107328D02*
X582063D01*
Y102328D02*
Y107328D01*
X572063Y107883D02*
X575463D01*
X572063Y112883D02*
X575463D01*
X572063Y107883D02*
Y112883D01*
X578663Y107883D02*
X582063D01*
X578663Y112883D02*
X582063D01*
Y107883D02*
Y112883D01*
X572063Y113439D02*
X575463D01*
X572063Y118439D02*
X575463D01*
X572063Y113439D02*
Y118439D01*
X578663Y113439D02*
X582063D01*
X578663Y118439D02*
X582063D01*
Y113439D02*
Y118439D01*
X572063Y118994D02*
X575463D01*
X572063Y123994D02*
X575463D01*
X572063Y118994D02*
Y123994D01*
X578663Y118994D02*
X582063D01*
X578663Y123994D02*
X582063D01*
Y118994D02*
Y123994D01*
X572063Y124550D02*
X575463D01*
X572063Y129550D02*
X575463D01*
X572063Y124550D02*
Y129550D01*
X578663Y124550D02*
X582063D01*
X578663Y129550D02*
X582063D01*
Y124550D02*
Y129550D01*
X572063Y130105D02*
X575463D01*
X572063Y135105D02*
X575463D01*
X572063Y130105D02*
Y135105D01*
X578663Y130105D02*
X582063D01*
X578663Y135105D02*
X582063D01*
Y130105D02*
Y135105D01*
X572337Y135575D02*
X575737D01*
X572337Y140575D02*
X575737D01*
X572337Y135575D02*
Y140575D01*
X578937Y135575D02*
X582337D01*
X578937Y140575D02*
X582337D01*
Y135575D02*
Y140575D01*
X541138Y179053D02*
X544538D01*
X541138Y184053D02*
X544538D01*
X541138Y179053D02*
Y184053D01*
X547738Y179053D02*
X551138D01*
X547738Y184053D02*
X551138D01*
Y179053D02*
Y184053D01*
X559063Y145217D02*
X562463D01*
X559063Y150216D02*
X562463D01*
X559063Y145217D02*
Y150216D01*
X565663Y145217D02*
X569063D01*
X565663Y150216D02*
X569063D01*
Y145217D02*
Y150216D01*
X513663D02*
X517063D01*
X513663Y145217D02*
X517063D01*
Y150216D01*
X507063D02*
X510463D01*
X507063Y145217D02*
X510463D01*
X507063D02*
Y150216D01*
X541063Y145217D02*
X544463D01*
X541063Y150216D02*
X544463D01*
X541063Y145217D02*
Y150216D01*
X547663Y145217D02*
X551063D01*
X547663Y150216D02*
X551063D01*
Y145217D02*
Y150216D01*
X560063Y179217D02*
X563463D01*
X560063Y184216D02*
X563463D01*
X560063Y179217D02*
Y184216D01*
X566663Y179217D02*
X570063D01*
X566663Y184216D02*
X570063D01*
Y179217D02*
Y184216D01*
X514663Y184053D02*
X518063D01*
X514663Y179053D02*
X518063D01*
Y184053D01*
X508063D02*
X511463D01*
X508063Y179053D02*
X511463D01*
X508063D02*
Y184053D01*
X572063Y142217D02*
X575463D01*
X572063Y147216D02*
X575463D01*
X572063Y142217D02*
Y147216D01*
X578663Y142217D02*
X582063D01*
X578663Y147216D02*
X582063D01*
Y142217D02*
Y147216D01*
X572063Y148328D02*
X575463D01*
X572063Y153328D02*
X575463D01*
X572063Y148328D02*
Y153328D01*
X578663Y148328D02*
X582063D01*
X578663Y153328D02*
X582063D01*
Y148328D02*
Y153328D01*
X572063Y153883D02*
X575463D01*
X572063Y158883D02*
X575463D01*
X572063Y153883D02*
Y158883D01*
X578663Y153883D02*
X582063D01*
X578663Y158883D02*
X582063D01*
Y153883D02*
Y158883D01*
X572063Y159439D02*
X575463D01*
X572063Y164439D02*
X575463D01*
X572063Y159439D02*
Y164439D01*
X578663Y159439D02*
X582063D01*
X578663Y164439D02*
X582063D01*
Y159439D02*
Y164439D01*
X572063Y164994D02*
X575463D01*
X572063Y169994D02*
X575463D01*
X572063Y164994D02*
Y169994D01*
X578663Y164994D02*
X582063D01*
X578663Y169994D02*
X582063D01*
Y164994D02*
Y169994D01*
X572063Y170550D02*
X575463D01*
X572063Y175550D02*
X575463D01*
X572063Y170550D02*
Y175550D01*
X578663Y170550D02*
X582063D01*
X578663Y175550D02*
X582063D01*
Y170550D02*
Y175550D01*
X572063Y176105D02*
X575463D01*
X572063Y181105D02*
X575463D01*
X572063Y176105D02*
Y181105D01*
X578663Y176105D02*
X582063D01*
X578663Y181105D02*
X582063D01*
Y176105D02*
Y181105D01*
X572063Y181217D02*
X575463D01*
X572063Y186216D02*
X575463D01*
X572063Y181217D02*
Y186216D01*
X578663Y181217D02*
X582063D01*
X578663Y186216D02*
X582063D01*
Y181217D02*
Y186216D01*
X657727Y224716D02*
Y228116D01*
X652727Y224716D02*
Y228116D01*
Y224716D02*
X657727D01*
Y231316D02*
Y234717D01*
X652727Y231316D02*
Y234717D01*
X657727D01*
X691620Y244063D02*
Y247463D01*
X686620Y244063D02*
Y247463D01*
Y244063D02*
X691620D01*
Y250663D02*
Y254063D01*
X686620Y250663D02*
Y254063D01*
X691620D01*
X686563Y198317D02*
Y201716D01*
X691563Y198317D02*
Y201716D01*
X686563D02*
X691563D01*
X686563Y191717D02*
Y195116D01*
X691563Y191717D02*
Y195116D01*
X686563Y191717D02*
X691563D01*
Y225716D02*
Y229117D01*
X686563Y225716D02*
Y229117D01*
Y225716D02*
X691563D01*
Y232316D02*
Y235717D01*
X686563Y232316D02*
Y235717D01*
X691563D01*
X658589Y244717D02*
Y248116D01*
X653589Y244717D02*
Y248116D01*
Y244717D02*
X658589D01*
Y251316D02*
Y254716D01*
X653589Y251316D02*
Y254716D01*
X658589D01*
X652727Y199317D02*
Y202716D01*
X657727Y199317D02*
Y202716D01*
X652727D02*
X657727D01*
X652727Y192717D02*
Y196116D01*
X657727Y192717D02*
Y196116D01*
X652727Y192717D02*
X657727D01*
X695420Y256579D02*
Y259979D01*
X690420Y256579D02*
Y259979D01*
Y256579D02*
X695420D01*
Y263179D02*
Y266579D01*
X690420Y263179D02*
Y266579D01*
X695420D01*
X689949Y256579D02*
Y259979D01*
X684949Y256579D02*
Y259979D01*
Y256579D02*
X689949D01*
Y263179D02*
Y266579D01*
X684949Y263179D02*
Y266579D01*
X689949D01*
X684477Y256579D02*
Y259979D01*
X679477Y256579D02*
Y259979D01*
Y256579D02*
X684477D01*
Y263179D02*
Y266579D01*
X679477Y263179D02*
Y266579D01*
X684477D01*
X679025Y257497D02*
Y260897D01*
X674025Y257497D02*
Y260897D01*
Y257497D02*
X679025D01*
Y264097D02*
Y267497D01*
X674025Y264097D02*
Y267497D01*
X679025D01*
X673534Y256579D02*
Y259979D01*
X668535Y256579D02*
Y259979D01*
Y256579D02*
X673534D01*
Y263179D02*
Y266579D01*
X668535Y263179D02*
Y266579D01*
X673534D01*
X668063Y256579D02*
Y259979D01*
X663063Y256579D02*
Y259979D01*
Y256579D02*
X668063D01*
Y263179D02*
Y266579D01*
X663063Y263179D02*
Y266579D01*
X668063D01*
X662592Y256579D02*
Y259979D01*
X657592Y256579D02*
Y259979D01*
Y256579D02*
X662592D01*
Y263179D02*
Y266579D01*
X657592Y263179D02*
Y266579D01*
X662592D01*
X657120Y256579D02*
Y259979D01*
X652120Y256579D02*
Y259979D01*
Y256579D02*
X657120D01*
Y263179D02*
Y266579D01*
X652120Y263179D02*
Y266579D01*
X657120D01*
X413727Y44717D02*
Y48116D01*
X408727Y44717D02*
Y48116D01*
Y44717D02*
X413727D01*
Y51316D02*
Y54716D01*
X408727Y51316D02*
Y54716D01*
X413727D01*
X447563Y61717D02*
Y65117D01*
X442563Y61717D02*
Y65117D01*
Y61717D02*
X447563D01*
Y68317D02*
Y71716D01*
X442563Y68317D02*
Y71716D01*
X447563D01*
X442563Y17316D02*
Y20717D01*
X447563Y17316D02*
Y20717D01*
X442563D02*
X447563D01*
X442563Y10717D02*
Y14117D01*
X447563Y10717D02*
Y14117D01*
X442563Y10717D02*
X447563D01*
Y44717D02*
Y48116D01*
X442563Y44717D02*
Y48116D01*
Y44717D02*
X447563D01*
Y51316D02*
Y54716D01*
X442563Y51316D02*
Y54716D01*
X447563D01*
X408563Y69317D02*
Y72716D01*
X413563Y69317D02*
Y72716D01*
X408563D02*
X413563D01*
X408563Y62717D02*
Y66116D01*
X413563Y62717D02*
Y66116D01*
X408563Y62717D02*
X413563D01*
X408727Y18316D02*
Y21716D01*
X413727Y18316D02*
Y21716D01*
X408727D02*
X413727D01*
X408727Y11716D02*
Y15116D01*
X413727Y11716D02*
Y15116D01*
X408727Y11716D02*
X413727D01*
X450563Y75717D02*
Y79116D01*
X445563Y75717D02*
Y79116D01*
Y75717D02*
X450563D01*
Y82316D02*
Y85716D01*
X445563Y82316D02*
Y85716D01*
X450563D01*
X444452Y75717D02*
Y79116D01*
X439452Y75717D02*
Y79116D01*
Y75717D02*
X444452D01*
Y82316D02*
Y85716D01*
X439452Y82316D02*
Y85716D01*
X444452D01*
X438897Y75717D02*
Y79116D01*
X433896Y75717D02*
Y79116D01*
Y75717D02*
X438897D01*
Y82316D02*
Y85716D01*
X433896Y82316D02*
Y85716D01*
X438897D01*
X433341Y75717D02*
Y79116D01*
X428341Y75717D02*
Y79116D01*
Y75717D02*
X433341D01*
Y82316D02*
Y85716D01*
X428341Y82316D02*
Y85716D01*
X433341D01*
X427785Y75717D02*
Y79116D01*
X422785Y75717D02*
Y79116D01*
Y75717D02*
X427785D01*
Y82316D02*
Y85716D01*
X422785Y82316D02*
Y85716D01*
X427785D01*
X422230Y75717D02*
Y79116D01*
X417230Y75717D02*
Y79116D01*
Y75717D02*
X422230D01*
Y82316D02*
Y85716D01*
X417230Y82316D02*
Y85716D01*
X422230D01*
X416674Y75717D02*
Y79116D01*
X411674Y75717D02*
Y79116D01*
Y75717D02*
X416674D01*
Y82316D02*
Y85716D01*
X411674Y82316D02*
Y85716D01*
X416674D01*
X411563Y75717D02*
Y79116D01*
X406563Y75717D02*
Y79116D01*
Y75717D02*
X411563D01*
Y82316D02*
Y85716D01*
X406563Y82316D02*
Y85716D01*
X411563D01*
X341063Y43053D02*
X344463D01*
X341063Y48053D02*
X344463D01*
X341063Y43053D02*
Y48053D01*
X347663Y43053D02*
X351063D01*
X347663Y48053D02*
X351063D01*
Y43053D02*
Y48053D01*
X359063Y9217D02*
X362463D01*
X359063Y14217D02*
X362463D01*
X359063Y9217D02*
Y14217D01*
X365663Y9217D02*
X369063D01*
X365663Y14217D02*
X369063D01*
Y9217D02*
Y14217D01*
X313663D02*
X317063D01*
X313663Y9217D02*
X317063D01*
Y14217D01*
X307063D02*
X310463D01*
X307063Y9217D02*
X310463D01*
X307063D02*
Y14217D01*
X341063Y9217D02*
X344463D01*
X341063Y14217D02*
X344463D01*
X341063Y9217D02*
Y14217D01*
X347663Y9217D02*
X351063D01*
X347663Y14217D02*
X351063D01*
Y9217D02*
Y14217D01*
X359173Y46319D02*
X362573D01*
X359173Y51319D02*
X362573D01*
X359173Y46319D02*
Y51319D01*
X365773Y46319D02*
X369173D01*
X365773Y51319D02*
X369173D01*
Y46319D02*
Y51319D01*
X314663Y48053D02*
X318063D01*
X314663Y43053D02*
X318063D01*
Y48053D01*
X308063D02*
X311463D01*
X308063Y43053D02*
X311463D01*
X308063D02*
Y48053D01*
X372063Y7216D02*
X375463D01*
X372063Y12217D02*
X375463D01*
X372063Y7216D02*
Y12217D01*
X378663Y7216D02*
X382063D01*
X378663Y12217D02*
X382063D01*
Y7216D02*
Y12217D01*
X372063Y12328D02*
X375463D01*
X372063Y17328D02*
X375463D01*
X372063Y12328D02*
Y17328D01*
X378663Y12328D02*
X382063D01*
X378663Y17328D02*
X382063D01*
Y12328D02*
Y17328D01*
X372063Y17883D02*
X375463D01*
X372063Y22883D02*
X375463D01*
X372063Y17883D02*
Y22883D01*
X378663Y17883D02*
X382063D01*
X378663Y22883D02*
X382063D01*
Y17883D02*
Y22883D01*
X372063Y23439D02*
X375463D01*
X372063Y28439D02*
X375463D01*
X372063Y23439D02*
Y28439D01*
X378663Y23439D02*
X382063D01*
X378663Y28439D02*
X382063D01*
Y23439D02*
Y28439D01*
X372063Y28994D02*
X375463D01*
X372063Y33994D02*
X375463D01*
X372063Y28994D02*
Y33994D01*
X378663Y28994D02*
X382063D01*
X378663Y33994D02*
X382063D01*
Y28994D02*
Y33994D01*
X372063Y34550D02*
X375463D01*
X372063Y39550D02*
X375463D01*
X372063Y34550D02*
Y39550D01*
X378663Y34550D02*
X382063D01*
X378663Y39550D02*
X382063D01*
Y34550D02*
Y39550D01*
X372063Y40105D02*
X375463D01*
X372063Y45105D02*
X375463D01*
X372063Y40105D02*
Y45105D01*
X378663Y40105D02*
X382063D01*
X378663Y45105D02*
X382063D01*
Y40105D02*
Y45105D01*
X372063Y45217D02*
X375463D01*
X372063Y50217D02*
X375463D01*
X372063Y45217D02*
Y50217D01*
X378663Y45217D02*
X382063D01*
X378663Y50217D02*
X382063D01*
Y45217D02*
Y50217D01*
X341063Y88053D02*
X344463D01*
X341063Y93053D02*
X344463D01*
X341063Y88053D02*
Y93053D01*
X347663Y88053D02*
X351063D01*
X347663Y93053D02*
X351063D01*
Y88053D02*
Y93053D01*
X360063Y54216D02*
X363463D01*
X360063Y59216D02*
X363463D01*
X360063Y54216D02*
Y59216D01*
X366663Y54216D02*
X370063D01*
X366663Y59216D02*
X370063D01*
Y54216D02*
Y59216D01*
X313663D02*
X317063D01*
X313663Y54216D02*
X317063D01*
Y59216D01*
X307063D02*
X310463D01*
X307063Y54216D02*
X310463D01*
X307063D02*
Y59216D01*
X341063Y54216D02*
X344463D01*
X341063Y59216D02*
X344463D01*
X341063Y54216D02*
Y59216D01*
X347663Y54216D02*
X351063D01*
X347663Y59216D02*
X351063D01*
Y54216D02*
Y59216D01*
X359173Y91201D02*
X362573D01*
X359173Y96201D02*
X362573D01*
X359173Y91201D02*
Y96201D01*
X365773Y91201D02*
X369173D01*
X365773Y96201D02*
X369173D01*
Y91201D02*
Y96201D01*
X314663Y93053D02*
X318063D01*
X314663Y88053D02*
X318063D01*
Y93053D01*
X308063D02*
X311463D01*
X308063Y88053D02*
X311463D01*
X308063D02*
Y93053D01*
X372115Y50739D02*
X375515D01*
X372115Y55739D02*
X375515D01*
X372115Y50739D02*
Y55739D01*
X378715Y50739D02*
X382115D01*
X378715Y55739D02*
X382115D01*
Y50739D02*
Y55739D01*
X372063Y57328D02*
X375463D01*
X372063Y62328D02*
X375463D01*
X372063Y57328D02*
Y62328D01*
X378663Y57328D02*
X382063D01*
X378663Y62328D02*
X382063D01*
Y57328D02*
Y62328D01*
X372063Y62883D02*
X375463D01*
X372063Y67883D02*
X375463D01*
X372063Y62883D02*
Y67883D01*
X378663Y62883D02*
X382063D01*
X378663Y67883D02*
X382063D01*
Y62883D02*
Y67883D01*
X372063Y68439D02*
X375463D01*
X372063Y73439D02*
X375463D01*
X372063Y68439D02*
Y73439D01*
X378663Y68439D02*
X382063D01*
X378663Y73439D02*
X382063D01*
Y68439D02*
Y73439D01*
X372063Y73994D02*
X375463D01*
X372063Y78994D02*
X375463D01*
X372063Y73994D02*
Y78994D01*
X378663Y73994D02*
X382063D01*
X378663Y78994D02*
X382063D01*
Y73994D02*
Y78994D01*
X372063Y79550D02*
X375463D01*
X372063Y84550D02*
X375463D01*
X372063Y79550D02*
Y84550D01*
X378663Y79550D02*
X382063D01*
X378663Y84550D02*
X382063D01*
Y79550D02*
Y84550D01*
X372063Y85105D02*
X375463D01*
X372063Y90105D02*
X375463D01*
X372063Y85105D02*
Y90105D01*
X378663Y85105D02*
X382063D01*
X378663Y90105D02*
X382063D01*
Y85105D02*
Y90105D01*
X372063Y90216D02*
X375463D01*
X372063Y95217D02*
X375463D01*
X372063Y90216D02*
Y95217D01*
X378663Y90216D02*
X382063D01*
X378663Y95217D02*
X382063D01*
Y90216D02*
Y95217D01*
X457727Y142717D02*
Y146116D01*
X452727Y142717D02*
Y146116D01*
Y142717D02*
X457727D01*
Y149317D02*
Y152717D01*
X452727Y149317D02*
Y152717D01*
X457727D01*
X492007Y160716D02*
Y164117D01*
X487008Y160716D02*
Y164117D01*
Y160716D02*
X492007D01*
Y167316D02*
Y170717D01*
X487008Y167316D02*
Y170717D01*
X492007D01*
X486563Y115316D02*
Y118717D01*
X491563Y115316D02*
Y118717D01*
X486563D02*
X491563D01*
X486563Y108716D02*
Y112117D01*
X491563Y108716D02*
Y112117D01*
X486563Y108716D02*
X491563D01*
Y142717D02*
Y146116D01*
X486563Y142717D02*
Y146116D01*
Y142717D02*
X491563D01*
Y149317D02*
Y152717D01*
X486563Y149317D02*
Y152717D01*
X491563D01*
X457406Y173605D02*
Y177005D01*
X452406Y173605D02*
Y177005D01*
Y173605D02*
X457406D01*
Y180205D02*
Y183605D01*
X452406Y180205D02*
Y183605D01*
X457406D01*
X452727Y116316D02*
Y119717D01*
X457727Y116316D02*
Y119717D01*
X452727D02*
X457727D01*
X452727Y109716D02*
Y113117D01*
X457727Y109716D02*
Y113117D01*
X452727Y109716D02*
X457727D01*
X495624Y173105D02*
Y176505D01*
X490624Y173105D02*
Y176505D01*
Y173105D02*
X495624D01*
Y179705D02*
Y183105D01*
X490624Y179705D02*
Y183105D01*
X495624D01*
X490164Y173605D02*
Y177005D01*
X485164Y173605D02*
Y177005D01*
Y173605D02*
X490164D01*
Y180205D02*
Y183605D01*
X485164Y180205D02*
Y183605D01*
X490164D01*
X484705Y173605D02*
Y177005D01*
X479705Y173605D02*
Y177005D01*
Y173605D02*
X484705D01*
Y180205D02*
Y183605D01*
X479705Y180205D02*
Y183605D01*
X484705D01*
X479340Y174626D02*
Y178026D01*
X474340Y174626D02*
Y178026D01*
Y174626D02*
X479340D01*
Y181226D02*
Y184626D01*
X474340Y181226D02*
Y184626D01*
X479340D01*
X473785Y173605D02*
Y177005D01*
X468785Y173605D02*
Y177005D01*
Y173605D02*
X473785D01*
Y180205D02*
Y183605D01*
X468785Y180205D02*
Y183605D01*
X473785D01*
X468326Y173605D02*
Y177005D01*
X463326Y173605D02*
Y177005D01*
Y173605D02*
X468326D01*
Y180205D02*
Y183605D01*
X463326Y180205D02*
Y183605D01*
X468326D01*
X462866Y173605D02*
Y177005D01*
X457866Y173605D02*
Y177005D01*
Y173605D02*
X462866D01*
Y180205D02*
Y183605D01*
X457866Y180205D02*
Y183605D01*
X462866D01*
X457727Y160716D02*
Y164117D01*
X452727Y160716D02*
Y164117D01*
Y160716D02*
X457727D01*
Y167316D02*
Y170717D01*
X452727Y167316D02*
Y170717D01*
X457727D01*
X341063Y133053D02*
X344463D01*
X341063Y138053D02*
X344463D01*
X341063Y133053D02*
Y138053D01*
X347663Y133053D02*
X351063D01*
X347663Y138053D02*
X351063D01*
Y133053D02*
Y138053D01*
X359756Y99035D02*
X363156D01*
X359756Y104035D02*
X363156D01*
X359756Y99035D02*
Y104035D01*
X366356Y99035D02*
X369756D01*
X366356Y104035D02*
X369756D01*
Y99035D02*
Y104035D01*
X313663Y104217D02*
X317063D01*
X313663Y99217D02*
X317063D01*
Y104217D01*
X307063D02*
X310463D01*
X307063Y99217D02*
X310463D01*
X307063D02*
Y104217D01*
X341063Y99217D02*
X344463D01*
X341063Y104217D02*
X344463D01*
X341063Y99217D02*
Y104217D01*
X347663Y99217D02*
X351063D01*
X347663Y104217D02*
X351063D01*
Y99217D02*
Y104217D01*
X359684Y133548D02*
X363084D01*
X359684Y138548D02*
X363084D01*
X359684Y133548D02*
Y138548D01*
X366284Y133548D02*
X369684D01*
X366284Y138548D02*
X369684D01*
Y133548D02*
Y138548D01*
X314663Y138053D02*
X318063D01*
X314663Y133053D02*
X318063D01*
Y138053D01*
X308063D02*
X311463D01*
X308063Y133053D02*
X311463D01*
X308063D02*
Y138053D01*
X371983Y96706D02*
X375383D01*
X371983Y101706D02*
X375383D01*
X371983Y96706D02*
Y101706D01*
X378583Y96706D02*
X381983D01*
X378583Y101706D02*
X381983D01*
Y96706D02*
Y101706D01*
X372063Y102328D02*
X375463D01*
X372063Y107328D02*
X375463D01*
X372063Y102328D02*
Y107328D01*
X378663Y102328D02*
X382063D01*
X378663Y107328D02*
X382063D01*
Y102328D02*
Y107328D01*
X372063Y107883D02*
X375463D01*
X372063Y112883D02*
X375463D01*
X372063Y107883D02*
Y112883D01*
X378663Y107883D02*
X382063D01*
X378663Y112883D02*
X382063D01*
Y107883D02*
Y112883D01*
X372063Y113439D02*
X375463D01*
X372063Y118439D02*
X375463D01*
X372063Y113439D02*
Y118439D01*
X378663Y113439D02*
X382063D01*
X378663Y118439D02*
X382063D01*
Y113439D02*
Y118439D01*
X372063Y118994D02*
X375463D01*
X372063Y123994D02*
X375463D01*
X372063Y118994D02*
Y123994D01*
X378663Y118994D02*
X382063D01*
X378663Y123994D02*
X382063D01*
Y118994D02*
Y123994D01*
X372063Y124550D02*
X375463D01*
X372063Y129550D02*
X375463D01*
X372063Y124550D02*
Y129550D01*
X378663Y124550D02*
X382063D01*
X378663Y129550D02*
X382063D01*
Y124550D02*
Y129550D01*
X372063Y130105D02*
X375463D01*
X372063Y135105D02*
X375463D01*
X372063Y130105D02*
Y135105D01*
X378663Y130105D02*
X382063D01*
X378663Y135105D02*
X382063D01*
Y130105D02*
Y135105D01*
X372337Y135575D02*
X375737D01*
X372337Y140575D02*
X375737D01*
X372337Y135575D02*
Y140575D01*
X378937Y135575D02*
X382337D01*
X378937Y140575D02*
X382337D01*
Y135575D02*
Y140575D01*
X341138Y179053D02*
X344538D01*
X341138Y184053D02*
X344538D01*
X341138Y179053D02*
Y184053D01*
X347738Y179053D02*
X351138D01*
X347738Y184053D02*
X351138D01*
Y179053D02*
Y184053D01*
X359063Y145217D02*
X362463D01*
X359063Y150216D02*
X362463D01*
X359063Y145217D02*
Y150216D01*
X365663Y145217D02*
X369063D01*
X365663Y150216D02*
X369063D01*
Y145217D02*
Y150216D01*
X313663D02*
X317063D01*
X313663Y145217D02*
X317063D01*
Y150216D01*
X307063D02*
X310463D01*
X307063Y145217D02*
X310463D01*
X307063D02*
Y150216D01*
X341063Y145217D02*
X344463D01*
X341063Y150216D02*
X344463D01*
X341063Y145217D02*
Y150216D01*
X347663Y145217D02*
X351063D01*
X347663Y150216D02*
X351063D01*
Y145217D02*
Y150216D01*
X360063Y179217D02*
X363463D01*
X360063Y184216D02*
X363463D01*
X360063Y179217D02*
Y184216D01*
X366663Y179217D02*
X370063D01*
X366663Y184216D02*
X370063D01*
Y179217D02*
Y184216D01*
X314663Y184053D02*
X318063D01*
X314663Y179053D02*
X318063D01*
Y184053D01*
X308063D02*
X311463D01*
X308063Y179053D02*
X311463D01*
X308063D02*
Y184053D01*
X372063Y142217D02*
X375463D01*
X372063Y147216D02*
X375463D01*
X372063Y142217D02*
Y147216D01*
X378663Y142217D02*
X382063D01*
X378663Y147216D02*
X382063D01*
Y142217D02*
Y147216D01*
X372063Y148328D02*
X375463D01*
X372063Y153328D02*
X375463D01*
X372063Y148328D02*
Y153328D01*
X378663Y148328D02*
X382063D01*
X378663Y153328D02*
X382063D01*
Y148328D02*
Y153328D01*
X372063Y153883D02*
X375463D01*
X372063Y158883D02*
X375463D01*
X372063Y153883D02*
Y158883D01*
X378663Y153883D02*
X382063D01*
X378663Y158883D02*
X382063D01*
Y153883D02*
Y158883D01*
X372063Y159439D02*
X375463D01*
X372063Y164439D02*
X375463D01*
X372063Y159439D02*
Y164439D01*
X378663Y159439D02*
X382063D01*
X378663Y164439D02*
X382063D01*
Y159439D02*
Y164439D01*
X372063Y164994D02*
X375463D01*
X372063Y169994D02*
X375463D01*
X372063Y164994D02*
Y169994D01*
X378663Y164994D02*
X382063D01*
X378663Y169994D02*
X382063D01*
Y164994D02*
Y169994D01*
X372063Y170550D02*
X375463D01*
X372063Y175550D02*
X375463D01*
X372063Y170550D02*
Y175550D01*
X378663Y170550D02*
X382063D01*
X378663Y175550D02*
X382063D01*
Y170550D02*
Y175550D01*
X372063Y176105D02*
X375463D01*
X372063Y181105D02*
X375463D01*
X372063Y176105D02*
Y181105D01*
X378663Y176105D02*
X382063D01*
X378663Y181105D02*
X382063D01*
Y176105D02*
Y181105D01*
X372063Y181217D02*
X375463D01*
X372063Y186216D02*
X375463D01*
X372063Y181217D02*
Y186216D01*
X378663Y181217D02*
X382063D01*
X378663Y186216D02*
X382063D01*
Y181217D02*
Y186216D01*
X457727Y224716D02*
Y228116D01*
X452727Y224716D02*
Y228116D01*
Y224716D02*
X457727D01*
Y231316D02*
Y234717D01*
X452727Y231316D02*
Y234717D01*
X457727D01*
X491563Y242154D02*
Y245554D01*
X486563Y242154D02*
Y245554D01*
Y242154D02*
X491563D01*
Y248754D02*
Y252154D01*
X486563Y248754D02*
Y252154D01*
X491563D01*
X486563Y198317D02*
Y201716D01*
X491563Y198317D02*
Y201716D01*
X486563D02*
X491563D01*
X486563Y191717D02*
Y195116D01*
X491563Y191717D02*
Y195116D01*
X486563Y191717D02*
X491563D01*
Y225716D02*
Y229117D01*
X486563Y225716D02*
Y229117D01*
Y225716D02*
X491563D01*
Y232316D02*
Y235717D01*
X486563Y232316D02*
Y235717D01*
X491563D01*
X458589Y244717D02*
Y248116D01*
X453589Y244717D02*
Y248116D01*
Y244717D02*
X458589D01*
Y251316D02*
Y254716D01*
X453589Y251316D02*
Y254716D01*
X458589D01*
X452727Y199317D02*
Y202716D01*
X457727Y199317D02*
Y202716D01*
X452727D02*
X457727D01*
X452727Y192717D02*
Y196116D01*
X457727Y192717D02*
Y196116D01*
X452727Y192717D02*
X457727D01*
X495420Y256579D02*
Y259979D01*
X490420Y256579D02*
Y259979D01*
Y256579D02*
X495420D01*
Y263179D02*
Y266579D01*
X490420Y263179D02*
Y266579D01*
X495420D01*
X489949Y256579D02*
Y259979D01*
X484949Y256579D02*
Y259979D01*
Y256579D02*
X489949D01*
Y263179D02*
Y266579D01*
X484949Y263179D02*
Y266579D01*
X489949D01*
X484477Y256579D02*
Y259979D01*
X479477Y256579D02*
Y259979D01*
Y256579D02*
X484477D01*
Y263179D02*
Y266579D01*
X479477Y263179D02*
Y266579D01*
X484477D01*
X479025Y257497D02*
Y260897D01*
X474025Y257497D02*
Y260897D01*
Y257497D02*
X479025D01*
Y264097D02*
Y267497D01*
X474025Y264097D02*
Y267497D01*
X479025D01*
X473534Y256579D02*
Y259979D01*
X468535Y256579D02*
Y259979D01*
Y256579D02*
X473534D01*
Y263179D02*
Y266579D01*
X468535Y263179D02*
Y266579D01*
X473534D01*
X468063Y256579D02*
Y259979D01*
X463063Y256579D02*
Y259979D01*
Y256579D02*
X468063D01*
Y263179D02*
Y266579D01*
X463063Y263179D02*
Y266579D01*
X468063D01*
X462592Y256579D02*
Y259979D01*
X457592Y256579D02*
Y259979D01*
Y256579D02*
X462592D01*
Y263179D02*
Y266579D01*
X457592Y263179D02*
Y266579D01*
X462592D01*
X457120Y256579D02*
Y259979D01*
X452120Y256579D02*
Y259979D01*
Y256579D02*
X457120D01*
Y263179D02*
Y266579D01*
X452120Y263179D02*
Y266579D01*
X457120D01*
X354787Y226125D02*
Y229525D01*
X349787Y226125D02*
Y229525D01*
Y226125D02*
X354787D01*
Y232725D02*
Y236125D01*
X349787Y232725D02*
Y236125D01*
X354787D01*
X389563Y244717D02*
Y248116D01*
X384563Y244717D02*
Y248116D01*
Y244717D02*
X389563D01*
Y251316D02*
Y254716D01*
X384563Y251316D02*
Y254716D01*
X389563D01*
X383623Y198650D02*
Y202050D01*
X388623Y198650D02*
Y202050D01*
X383623D02*
X388623D01*
X383623Y192050D02*
Y195450D01*
X388623Y192050D02*
Y195450D01*
X383623Y192050D02*
X388623D01*
Y226050D02*
Y229450D01*
X383623Y226050D02*
Y229450D01*
Y226050D02*
X388623D01*
Y232650D02*
Y236050D01*
X383623Y232650D02*
Y236050D01*
X388623D01*
X352623Y257050D02*
Y260450D01*
X347623Y257050D02*
Y260450D01*
Y257050D02*
X352623D01*
Y263650D02*
Y267050D01*
X347623Y263650D02*
Y267050D01*
X352623D01*
X349787Y199650D02*
Y203050D01*
X354787Y199650D02*
Y203050D01*
X349787D02*
X354787D01*
X349787Y193050D02*
Y196450D01*
X354787Y193050D02*
Y196450D01*
X349787Y193050D02*
X354787D01*
X390927Y256847D02*
Y260247D01*
X385927Y256847D02*
Y260247D01*
Y256847D02*
X390927D01*
Y263447D02*
Y266847D01*
X385927Y263447D02*
Y266847D01*
X390927D01*
X385512Y257050D02*
Y260450D01*
X380512Y257050D02*
Y260450D01*
Y257050D02*
X385512D01*
Y263650D02*
Y267050D01*
X380512Y263650D02*
Y267050D01*
X385512D01*
X379956Y257050D02*
Y260450D01*
X374956Y257050D02*
Y260450D01*
Y257050D02*
X379956D01*
Y263650D02*
Y267050D01*
X374956Y263650D02*
Y267050D01*
X379956D01*
X374400Y257050D02*
Y260450D01*
X369401Y257050D02*
Y260450D01*
Y257050D02*
X374400D01*
Y263650D02*
Y267050D01*
X369401Y263650D02*
Y267050D01*
X374400D01*
X368845Y257050D02*
Y260450D01*
X363845Y257050D02*
Y260450D01*
Y257050D02*
X368845D01*
Y263650D02*
Y267050D01*
X363845Y263650D02*
Y267050D01*
X368845D01*
X363289Y257050D02*
Y260450D01*
X358289Y257050D02*
Y260450D01*
Y257050D02*
X363289D01*
Y263650D02*
Y267050D01*
X358289Y263650D02*
Y267050D01*
X363289D01*
X357734Y257050D02*
Y260450D01*
X352734Y257050D02*
Y260450D01*
Y257050D02*
X357734D01*
Y263650D02*
Y267050D01*
X352734Y263650D02*
Y267050D01*
X357734D01*
X354787Y244050D02*
Y247450D01*
X349787Y244050D02*
Y247450D01*
Y244050D02*
X354787D01*
Y250650D02*
Y254050D01*
X349787Y250650D02*
Y254050D01*
X354787D01*
X279025Y257497D02*
Y260897D01*
X274025Y257497D02*
Y260897D01*
Y257497D02*
X279025D01*
Y264097D02*
Y267497D01*
X274025Y264097D02*
Y267497D01*
X279025D01*
X182063Y90216D02*
Y95217D01*
X178663D02*
X182063D01*
X178663Y90216D02*
X182063D01*
X172063D02*
Y95217D01*
X175463D01*
X172063Y90216D02*
X175463D01*
X252406Y183605D02*
X257406D01*
X252406Y180205D02*
Y183605D01*
X257406Y180205D02*
Y183605D01*
X252406Y173605D02*
X257406D01*
X252406D02*
Y177005D01*
X257406Y173605D02*
Y177005D01*
X151063Y88053D02*
Y93053D01*
X147663D02*
X151063D01*
X147663Y88053D02*
X151063D01*
X141063D02*
Y93053D01*
X144463D01*
X141063Y88053D02*
X144463D01*
X151063Y54216D02*
Y59216D01*
X147663D02*
X151063D01*
X147663Y54216D02*
X151063D01*
X141063D02*
Y59216D01*
X144463D01*
X141063Y54216D02*
X144463D01*
X259727Y44717D02*
Y48116D01*
X254727Y44717D02*
Y48116D01*
Y44717D02*
X259727D01*
Y51316D02*
Y54716D01*
X254727Y51316D02*
Y54716D01*
X259727D01*
X213727Y44717D02*
Y48116D01*
X208727Y44717D02*
Y48116D01*
Y44717D02*
X213727D01*
Y51316D02*
Y54716D01*
X208727Y51316D02*
Y54716D01*
X213727D01*
X141063Y43053D02*
X144463D01*
X141063Y48053D02*
X144463D01*
X141063Y43053D02*
Y48053D01*
X147663Y43053D02*
X151063D01*
X147663Y48053D02*
X151063D01*
Y43053D02*
Y48053D01*
X257727Y142717D02*
Y146116D01*
X252727Y142717D02*
Y146116D01*
Y142717D02*
X257727D01*
Y149317D02*
Y152717D01*
X252727Y149317D02*
Y152717D01*
X257727D01*
X292007Y160716D02*
Y164117D01*
X287007Y160716D02*
Y164117D01*
Y160716D02*
X292007D01*
Y167316D02*
Y170717D01*
X287007Y167316D02*
Y170717D01*
X292007D01*
X286563Y115316D02*
Y118717D01*
X291563Y115316D02*
Y118717D01*
X286563D02*
X291563D01*
X286563Y108716D02*
Y112117D01*
X291563Y108716D02*
Y112117D01*
X286563Y108716D02*
X291563D01*
Y142717D02*
Y146116D01*
X286563Y142717D02*
Y146116D01*
Y142717D02*
X291563D01*
Y149317D02*
Y152717D01*
X286563Y149317D02*
Y152717D01*
X291563D01*
X252727Y116316D02*
Y119717D01*
X257727Y116316D02*
Y119717D01*
X252727D02*
X257727D01*
X252727Y109716D02*
Y113117D01*
X257727Y109716D02*
Y113117D01*
X252727Y109716D02*
X257727D01*
X295624Y173105D02*
Y176505D01*
X290624Y173105D02*
Y176505D01*
Y173105D02*
X295624D01*
Y179705D02*
Y183105D01*
X290624Y179705D02*
Y183105D01*
X295624D01*
X290164Y173605D02*
Y177005D01*
X285164Y173605D02*
Y177005D01*
Y173605D02*
X290164D01*
Y180205D02*
Y183605D01*
X285164Y180205D02*
Y183605D01*
X290164D01*
X284705Y173605D02*
Y177005D01*
X279705Y173605D02*
Y177005D01*
Y173605D02*
X284705D01*
Y180205D02*
Y183605D01*
X279705Y180205D02*
Y183605D01*
X284705D01*
X279340Y174626D02*
Y178026D01*
X274340Y174626D02*
Y178026D01*
Y174626D02*
X279340D01*
Y181226D02*
Y184626D01*
X274340Y181226D02*
Y184626D01*
X279340D01*
X273785Y173605D02*
Y177005D01*
X268785Y173605D02*
Y177005D01*
Y173605D02*
X273785D01*
Y180205D02*
Y183605D01*
X268785Y180205D02*
Y183605D01*
X273785D01*
X268326Y173605D02*
Y177005D01*
X263326Y173605D02*
Y177005D01*
Y173605D02*
X268326D01*
Y180205D02*
Y183605D01*
X263326Y180205D02*
Y183605D01*
X268326D01*
X262866Y173605D02*
Y177005D01*
X257866Y173605D02*
Y177005D01*
Y173605D02*
X262866D01*
Y180205D02*
Y183605D01*
X257866Y180205D02*
Y183605D01*
X262866D01*
X257727Y160716D02*
Y164117D01*
X252727Y160716D02*
Y164117D01*
Y160716D02*
X257727D01*
Y167316D02*
Y170717D01*
X252727Y167316D02*
Y170717D01*
X257727D01*
X141063Y133053D02*
X144463D01*
X141063Y138053D02*
X144463D01*
X141063Y133053D02*
Y138053D01*
X147663Y133053D02*
X151063D01*
X147663Y138053D02*
X151063D01*
Y133053D02*
Y138053D01*
X257727Y224716D02*
Y228116D01*
X252727Y224716D02*
Y228116D01*
Y224716D02*
X257727D01*
Y231316D02*
Y234717D01*
X252727Y231316D02*
Y234717D01*
X257727D01*
X183623Y198650D02*
Y202050D01*
X188623Y198650D02*
Y202050D01*
X183623D02*
X188623D01*
X183623Y192050D02*
Y195450D01*
X188623Y192050D02*
Y195450D01*
X183623Y192050D02*
X188623D01*
X286563Y198317D02*
Y201716D01*
X291563Y198317D02*
Y201716D01*
X286563D02*
X291563D01*
X286563Y191717D02*
Y195116D01*
X291563Y191717D02*
Y195116D01*
X286563Y191717D02*
X291563D01*
X107063Y145217D02*
Y150216D01*
Y145217D02*
X110463D01*
X107063Y150216D02*
X110463D01*
X117063Y145217D02*
Y150216D01*
X113663Y145217D02*
X117063D01*
X113663Y150216D02*
X117063D01*
X184563Y254716D02*
X189563D01*
X184563Y251316D02*
Y254716D01*
X189563Y251316D02*
Y254716D01*
X184563Y244717D02*
X189563D01*
X184563D02*
Y248116D01*
X189563Y244717D02*
Y248116D01*
X286563Y251969D02*
X291563D01*
X286563Y248569D02*
Y251969D01*
X291563Y248569D02*
Y251969D01*
X286563Y241969D02*
X291563D01*
X286563D02*
Y245369D01*
X291563Y241969D02*
Y245369D01*
X159063Y145217D02*
X162463D01*
X159063Y150216D02*
X162463D01*
X159063Y145217D02*
Y150216D01*
X165663Y145217D02*
X169063D01*
X165663Y150216D02*
X169063D01*
Y145217D02*
Y150216D01*
X149787Y236125D02*
X154787D01*
X149787Y232725D02*
Y236125D01*
X154787Y232725D02*
Y236125D01*
X149787Y226125D02*
X154787D01*
X149787D02*
Y229525D01*
X154787Y226125D02*
Y229525D01*
X141138Y179053D02*
X144538D01*
X141138Y184053D02*
X144538D01*
X141138Y179053D02*
Y184053D01*
X147738Y179053D02*
X151138D01*
X147738Y184053D02*
X151138D01*
Y179053D02*
Y184053D01*
X147623Y267050D02*
X152623D01*
X147623Y263650D02*
Y267050D01*
X152623Y263650D02*
Y267050D01*
X147623Y257050D02*
X152623D01*
X147623D02*
Y260450D01*
X152623Y257050D02*
Y260450D01*
X253589Y254716D02*
X258589D01*
X253589Y251316D02*
Y254716D01*
X258589Y251316D02*
Y254716D01*
X253589Y244717D02*
X258589D01*
X253589D02*
Y248116D01*
X258589Y244717D02*
Y248116D01*
X160063Y179217D02*
X163463D01*
X160063Y184216D02*
X163463D01*
X160063Y179217D02*
Y184216D01*
X166663Y179217D02*
X170063D01*
X166663Y184216D02*
X170063D01*
Y179217D02*
Y184216D01*
X183623Y236050D02*
X188623D01*
X183623Y232650D02*
Y236050D01*
X188623Y232650D02*
Y236050D01*
X183623Y226050D02*
X188623D01*
X183623D02*
Y229450D01*
X188623Y226050D02*
Y229450D01*
X286563Y235717D02*
X291563D01*
X286563Y232316D02*
Y235717D01*
X291563Y232316D02*
Y235717D01*
X286563Y225716D02*
X291563D01*
X286563D02*
Y229117D01*
X291563Y225716D02*
Y229117D01*
X141063Y145217D02*
X144463D01*
X141063Y150216D02*
X144463D01*
X141063Y145217D02*
Y150216D01*
X147663Y145217D02*
X151063D01*
X147663Y150216D02*
X151063D01*
Y145217D02*
Y150216D01*
X149787Y199650D02*
Y203050D01*
X154787Y199650D02*
Y203050D01*
X149787D02*
X154787D01*
X149787Y193050D02*
Y196450D01*
X154787Y193050D02*
Y196450D01*
X149787Y193050D02*
X154787D01*
X252727Y199317D02*
Y202716D01*
X257727Y199317D02*
Y202716D01*
X252727D02*
X257727D01*
X252727Y192717D02*
Y196116D01*
X257727Y192717D02*
Y196116D01*
X252727Y192717D02*
X257727D01*
X108063Y179053D02*
Y184053D01*
Y179053D02*
X111463D01*
X108063Y184053D02*
X111463D01*
X118063Y179053D02*
Y184053D01*
X114663Y179053D02*
X118063D01*
X114663Y184053D02*
X118063D01*
X185927Y266847D02*
X190927D01*
X185927Y263447D02*
Y266847D01*
X190927Y263447D02*
Y266847D01*
X185927Y256847D02*
X190927D01*
X185927D02*
Y260247D01*
X190927Y256847D02*
Y260247D01*
X290420Y266579D02*
X295420D01*
X290420Y263179D02*
Y266579D01*
X295420Y263179D02*
Y266579D01*
X290420Y256579D02*
X295420D01*
X290420D02*
Y259979D01*
X295420Y256579D02*
Y259979D01*
X172063Y142217D02*
X175463D01*
X172063Y147216D02*
X175463D01*
X172063Y142217D02*
Y147216D01*
X178663Y142217D02*
X182063D01*
X178663Y147216D02*
X182063D01*
Y142217D02*
Y147216D01*
X180512Y267050D02*
X185512D01*
X180512Y263650D02*
Y267050D01*
X185512Y263650D02*
Y267050D01*
X180512Y257050D02*
X185512D01*
X180512D02*
Y260450D01*
X185512Y257050D02*
Y260450D01*
X284949Y266579D02*
X289949D01*
X284949Y263179D02*
Y266579D01*
X289949Y263179D02*
Y266579D01*
X284949Y256579D02*
X289949D01*
X284949D02*
Y259979D01*
X289949Y256579D02*
Y259979D01*
X172063Y148328D02*
X175463D01*
X172063Y153328D02*
X175463D01*
X172063Y148328D02*
Y153328D01*
X178663Y148328D02*
X182063D01*
X178663Y153328D02*
X182063D01*
Y148328D02*
Y153328D01*
X174956Y267050D02*
X179956D01*
X174956Y263650D02*
Y267050D01*
X179956Y263650D02*
Y267050D01*
X174956Y257050D02*
X179956D01*
X174956D02*
Y260450D01*
X179956Y257050D02*
Y260450D01*
X279477Y266579D02*
X284477D01*
X279477Y263179D02*
Y266579D01*
X284477Y263179D02*
Y266579D01*
X279477Y256579D02*
X284477D01*
X279477D02*
Y259979D01*
X284477Y256579D02*
Y259979D01*
X172063Y153883D02*
X175463D01*
X172063Y158883D02*
X175463D01*
X172063Y153883D02*
Y158883D01*
X178663Y153883D02*
X182063D01*
X178663Y158883D02*
X182063D01*
Y153883D02*
Y158883D01*
X169401Y267050D02*
X174400D01*
X169401Y263650D02*
Y267050D01*
X174400Y263650D02*
Y267050D01*
X169401Y257050D02*
X174400D01*
X169401D02*
Y260450D01*
X174400Y257050D02*
Y260450D01*
X172063Y159439D02*
X175463D01*
X172063Y164439D02*
X175463D01*
X172063Y159439D02*
Y164439D01*
X178663Y159439D02*
X182063D01*
X178663Y164439D02*
X182063D01*
Y159439D02*
Y164439D01*
X163845Y267050D02*
X168845D01*
X163845Y263650D02*
Y267050D01*
X168845Y263650D02*
Y267050D01*
X163845Y257050D02*
X168845D01*
X163845D02*
Y260450D01*
X168845Y257050D02*
Y260450D01*
X268534Y266579D02*
X273534D01*
X268534Y263179D02*
Y266579D01*
X273534Y263179D02*
Y266579D01*
X268534Y256579D02*
X273534D01*
X268534D02*
Y259979D01*
X273534Y256579D02*
Y259979D01*
X172063Y164994D02*
X175463D01*
X172063Y169994D02*
X175463D01*
X172063Y164994D02*
Y169994D01*
X178663Y164994D02*
X182063D01*
X178663Y169994D02*
X182063D01*
Y164994D02*
Y169994D01*
X158289Y267050D02*
X163289D01*
X158289Y263650D02*
Y267050D01*
X163289Y263650D02*
Y267050D01*
X158289Y257050D02*
X163289D01*
X158289D02*
Y260450D01*
X163289Y257050D02*
Y260450D01*
X263063Y266579D02*
X268063D01*
X263063Y263179D02*
Y266579D01*
X268063Y263179D02*
Y266579D01*
X263063Y256579D02*
X268063D01*
X263063D02*
Y259979D01*
X268063Y256579D02*
Y259979D01*
X172063Y170550D02*
X175463D01*
X172063Y175550D02*
X175463D01*
X172063Y170550D02*
Y175550D01*
X178663Y170550D02*
X182063D01*
X178663Y175550D02*
X182063D01*
Y170550D02*
Y175550D01*
X152734Y267050D02*
X157734D01*
X152734Y263650D02*
Y267050D01*
X157734Y263650D02*
Y267050D01*
X152734Y257050D02*
X157734D01*
X152734D02*
Y260450D01*
X157734Y257050D02*
Y260450D01*
X257592Y266579D02*
X262592D01*
X257592Y263179D02*
Y266579D01*
X262592Y263179D02*
Y266579D01*
X257592Y256579D02*
X262592D01*
X257592D02*
Y259979D01*
X262592Y256579D02*
Y259979D01*
X172063Y176105D02*
X175463D01*
X172063Y181105D02*
X175463D01*
X172063Y176105D02*
Y181105D01*
X178663Y176105D02*
X182063D01*
X178663Y181105D02*
X182063D01*
Y176105D02*
Y181105D01*
X149787Y254050D02*
X154787D01*
X149787Y250650D02*
Y254050D01*
X154787Y250650D02*
Y254050D01*
X149787Y244050D02*
X154787D01*
X149787D02*
Y247450D01*
X154787Y244050D02*
Y247450D01*
X252120Y266579D02*
X257120D01*
X252120Y263179D02*
Y266579D01*
X257120Y263179D02*
Y266579D01*
X252120Y256579D02*
X257120D01*
X252120D02*
Y259979D01*
X257120Y256579D02*
Y259979D01*
X172063Y181217D02*
X175463D01*
X172063Y186216D02*
X175463D01*
X172063Y181217D02*
Y186216D01*
X178663Y181217D02*
X182063D01*
X178663Y186216D02*
X182063D01*
Y181217D02*
Y186216D01*
X208727Y11716D02*
X213727D01*
Y15116D01*
X208727Y11716D02*
Y15116D01*
Y21716D02*
X213727D01*
Y18316D02*
Y21716D01*
X208727Y18316D02*
Y21716D01*
X242563Y10717D02*
X247563D01*
Y14117D01*
X242563Y10717D02*
Y14117D01*
Y20717D02*
X247563D01*
Y17316D02*
Y20717D01*
X242563Y17316D02*
Y20717D01*
X247563Y61717D02*
Y65117D01*
X242563Y61717D02*
Y65117D01*
Y61717D02*
X247563D01*
Y68317D02*
Y71716D01*
X242563Y68317D02*
Y71716D01*
X247563D01*
X208563Y69317D02*
Y72716D01*
X213563Y69317D02*
Y72716D01*
X208563D02*
X213563D01*
X208563Y62717D02*
Y66116D01*
X213563Y62717D02*
Y66116D01*
X208563Y62717D02*
X213563D01*
X247563Y44717D02*
Y48116D01*
X242563Y44717D02*
Y48116D01*
Y44717D02*
X247563D01*
Y51316D02*
Y54716D01*
X242563Y51316D02*
Y54716D01*
X247563D01*
X250563Y75717D02*
Y79116D01*
X245563Y75717D02*
Y79116D01*
Y75717D02*
X250563D01*
Y82316D02*
Y85716D01*
X245563Y82316D02*
Y85716D01*
X250563D01*
X244452Y75717D02*
Y79116D01*
X239452Y75717D02*
Y79116D01*
Y75717D02*
X244452D01*
Y82316D02*
Y85716D01*
X239452Y82316D02*
Y85716D01*
X244452D01*
X238896Y75717D02*
Y79116D01*
X233896Y75717D02*
Y79116D01*
Y75717D02*
X238896D01*
Y82316D02*
Y85716D01*
X233896Y82316D02*
Y85716D01*
X238896D01*
X233341Y75717D02*
Y79116D01*
X228341Y75717D02*
Y79116D01*
Y75717D02*
X233341D01*
Y82316D02*
Y85716D01*
X228341Y82316D02*
Y85716D01*
X233341D01*
X227785Y75717D02*
Y79116D01*
X222785Y75717D02*
Y79116D01*
Y75717D02*
X227785D01*
Y82316D02*
Y85716D01*
X222785Y82316D02*
Y85716D01*
X227785D01*
X222230Y75717D02*
Y79116D01*
X217230Y75717D02*
Y79116D01*
Y75717D02*
X222230D01*
Y82316D02*
Y85716D01*
X217230Y82316D02*
Y85716D01*
X222230D01*
X216674Y75717D02*
Y79116D01*
X211674Y75717D02*
Y79116D01*
Y75717D02*
X216674D01*
Y82316D02*
Y85716D01*
X211674Y82316D02*
Y85716D01*
X216674D01*
X211563Y75717D02*
Y79116D01*
X206563Y75717D02*
Y79116D01*
Y75717D02*
X211563D01*
Y82316D02*
Y85716D01*
X206563Y82316D02*
Y85716D01*
X211563D01*
X254727Y11716D02*
X259727D01*
Y15116D01*
X254727Y11716D02*
Y15116D01*
Y21716D02*
X259727D01*
Y18316D02*
Y21716D01*
X254727Y18316D02*
Y21716D01*
X288563Y10717D02*
X293563D01*
Y14117D01*
X288563Y10717D02*
Y14117D01*
Y20717D02*
X293563D01*
Y17316D02*
Y20717D01*
X288563Y17316D02*
Y20717D01*
X296007Y75717D02*
Y79116D01*
X291007Y75717D02*
Y79116D01*
Y75717D02*
X296007D01*
Y82316D02*
Y85716D01*
X291007Y82316D02*
Y85716D01*
X296007D01*
X259563Y63717D02*
Y67116D01*
X254563Y63717D02*
Y67116D01*
Y63717D02*
X259563D01*
Y70316D02*
Y73716D01*
X254563Y70316D02*
Y73716D01*
X259563D01*
X293563Y44717D02*
Y48116D01*
X288563Y44717D02*
Y48116D01*
Y44717D02*
X293563D01*
Y51316D02*
Y54716D01*
X288563Y51316D02*
Y54716D01*
X293563D01*
Y62717D02*
Y66116D01*
X288563Y62717D02*
Y66116D01*
Y62717D02*
X293563D01*
Y69317D02*
Y72716D01*
X288563Y69317D02*
Y72716D01*
X293563D01*
X290452Y75717D02*
Y79116D01*
X285452Y75717D02*
Y79116D01*
Y75717D02*
X290452D01*
Y82316D02*
Y85716D01*
X285452Y82316D02*
Y85716D01*
X290452D01*
X284896Y75717D02*
Y79116D01*
X279896Y75717D02*
Y79116D01*
Y75717D02*
X284896D01*
Y82316D02*
Y85716D01*
X279896Y82316D02*
Y85716D01*
X284896D01*
X279341Y75717D02*
Y79116D01*
X274341Y75717D02*
Y79116D01*
Y75717D02*
X279341D01*
Y82316D02*
Y85716D01*
X274341Y82316D02*
Y85716D01*
X279341D01*
X273785Y75717D02*
Y79116D01*
X268785Y75717D02*
Y79116D01*
Y75717D02*
X273785D01*
Y82316D02*
Y85716D01*
X268785Y82316D02*
Y85716D01*
X273785D01*
X268230Y75717D02*
Y79116D01*
X263230Y75717D02*
Y79116D01*
Y75717D02*
X268230D01*
Y82316D02*
Y85716D01*
X263230Y82316D02*
Y85716D01*
X268230D01*
X262674Y75717D02*
Y79116D01*
X257674Y75717D02*
Y79116D01*
Y75717D02*
X262674D01*
Y82316D02*
Y85716D01*
X257674Y82316D02*
Y85716D01*
X262674D01*
X257563Y75717D02*
Y79116D01*
X252563Y75717D02*
Y79116D01*
Y75717D02*
X257563D01*
Y82316D02*
Y85716D01*
X252563Y82316D02*
Y85716D01*
X257563D01*
X172063Y45217D02*
X175463D01*
X172063Y50217D02*
X175463D01*
X172063Y45217D02*
Y50217D01*
X178663Y45217D02*
X182063D01*
X178663Y50217D02*
X182063D01*
Y45217D02*
Y50217D01*
X172063Y40105D02*
X175463D01*
X172063Y45105D02*
X175463D01*
X172063Y40105D02*
Y45105D01*
X178663Y40105D02*
X182063D01*
X178663Y45105D02*
X182063D01*
Y40105D02*
Y45105D01*
X172063Y34550D02*
X175463D01*
X172063Y39550D02*
X175463D01*
X172063Y34550D02*
Y39550D01*
X178663Y34550D02*
X182063D01*
X178663Y39550D02*
X182063D01*
Y34550D02*
Y39550D01*
X172063Y28994D02*
X175463D01*
X172063Y33994D02*
X175463D01*
X172063Y28994D02*
Y33994D01*
X178663Y28994D02*
X182063D01*
X178663Y33994D02*
X182063D01*
Y28994D02*
Y33994D01*
X172063Y23439D02*
X175463D01*
X172063Y28439D02*
X175463D01*
X172063Y23439D02*
Y28439D01*
X178663Y23439D02*
X182063D01*
X178663Y28439D02*
X182063D01*
Y23439D02*
Y28439D01*
X172063Y17883D02*
X175463D01*
X172063Y22883D02*
X175463D01*
X172063Y17883D02*
Y22883D01*
X178663Y17883D02*
X182063D01*
X178663Y22883D02*
X182063D01*
Y17883D02*
Y22883D01*
X172063Y12328D02*
X175463D01*
X172063Y17328D02*
X175463D01*
X172063Y12328D02*
Y17328D01*
X178663Y12328D02*
X182063D01*
X178663Y17328D02*
X182063D01*
Y12328D02*
Y17328D01*
X172063Y7216D02*
X175463D01*
X172063Y12217D02*
X175463D01*
X172063Y7216D02*
Y12217D01*
X178663Y7216D02*
X182063D01*
X178663Y12217D02*
X182063D01*
Y7216D02*
Y12217D01*
X141063Y9217D02*
X144463D01*
X141063Y14217D02*
X144463D01*
X141063Y9217D02*
Y14217D01*
X147663Y9217D02*
X151063D01*
X147663Y14217D02*
X151063D01*
Y9217D02*
Y14217D01*
X159173Y46319D02*
X162573D01*
X159173Y51319D02*
X162573D01*
X159173Y46319D02*
Y51319D01*
X165773Y46319D02*
X169173D01*
X165773Y51319D02*
X169173D01*
Y46319D02*
Y51319D01*
X159063Y9217D02*
X162463D01*
X159063Y14217D02*
X162463D01*
X159063Y9217D02*
Y14217D01*
X165663Y9217D02*
X169063D01*
X165663Y14217D02*
X169063D01*
Y9217D02*
Y14217D01*
X107063Y9217D02*
Y14217D01*
Y9217D02*
X110463D01*
X107063Y14217D02*
X110463D01*
X117063Y9217D02*
Y14217D01*
X113663Y9217D02*
X117063D01*
X113663Y14217D02*
X117063D01*
X108063Y43053D02*
Y48053D01*
Y43053D02*
X111463D01*
X108063Y48053D02*
X111463D01*
X118063Y43053D02*
Y48053D01*
X114663Y43053D02*
X118063D01*
X114663Y48053D02*
X118063D01*
X172063Y85105D02*
X175463D01*
X172063Y90105D02*
X175463D01*
X172063Y85105D02*
Y90105D01*
X178663Y85105D02*
X182063D01*
X178663Y90105D02*
X182063D01*
Y85105D02*
Y90105D01*
X172063Y79550D02*
X175463D01*
X172063Y84550D02*
X175463D01*
X172063Y79550D02*
Y84550D01*
X178663Y79550D02*
X182063D01*
X178663Y84550D02*
X182063D01*
Y79550D02*
Y84550D01*
X172063Y73994D02*
X175463D01*
X172063Y78994D02*
X175463D01*
X172063Y73994D02*
Y78994D01*
X178663Y73994D02*
X182063D01*
X178663Y78994D02*
X182063D01*
Y73994D02*
Y78994D01*
X172063Y68439D02*
X175463D01*
X172063Y73439D02*
X175463D01*
X172063Y68439D02*
Y73439D01*
X178663Y68439D02*
X182063D01*
X178663Y73439D02*
X182063D01*
Y68439D02*
Y73439D01*
X172063Y62883D02*
X175463D01*
X172063Y67883D02*
X175463D01*
X172063Y62883D02*
Y67883D01*
X178663Y62883D02*
X182063D01*
X178663Y67883D02*
X182063D01*
Y62883D02*
Y67883D01*
X172063Y57328D02*
X175463D01*
X172063Y62328D02*
X175463D01*
X172063Y57328D02*
Y62328D01*
X178663Y57328D02*
X182063D01*
X178663Y62328D02*
X182063D01*
Y57328D02*
Y62328D01*
X172115Y50739D02*
X175515D01*
X172115Y55739D02*
X175515D01*
X172115Y50739D02*
Y55739D01*
X178715Y50739D02*
X182115D01*
X178715Y55739D02*
X182115D01*
Y50739D02*
Y55739D01*
X159173Y91201D02*
X162573D01*
X159173Y96201D02*
X162573D01*
X159173Y91201D02*
Y96201D01*
X165773Y91201D02*
X169173D01*
X165773Y96201D02*
X169173D01*
Y91201D02*
Y96201D01*
X160063Y54216D02*
X163463D01*
X160063Y59216D02*
X163463D01*
X160063Y54216D02*
Y59216D01*
X166663Y54216D02*
X170063D01*
X166663Y59216D02*
X170063D01*
Y54216D02*
Y59216D01*
X107063Y54216D02*
Y59216D01*
Y54216D02*
X110463D01*
X107063Y59216D02*
X110463D01*
X117063Y54216D02*
Y59216D01*
X113663Y54216D02*
X117063D01*
X113663Y59216D02*
X117063D01*
X108063Y88053D02*
Y93053D01*
Y88053D02*
X111463D01*
X108063Y93053D02*
X111463D01*
X118063Y88053D02*
Y93053D01*
X114663Y88053D02*
X118063D01*
X114663Y93053D02*
X118063D01*
X172337Y135575D02*
X175737D01*
X172337Y140575D02*
X175737D01*
X172337Y135575D02*
Y140575D01*
X178937Y135575D02*
X182337D01*
X178937Y140575D02*
X182337D01*
Y135575D02*
Y140575D01*
X172063Y130105D02*
X175463D01*
X172063Y135105D02*
X175463D01*
X172063Y130105D02*
Y135105D01*
X178663Y130105D02*
X182063D01*
X178663Y135105D02*
X182063D01*
Y130105D02*
Y135105D01*
X172063Y124550D02*
X175463D01*
X172063Y129550D02*
X175463D01*
X172063Y124550D02*
Y129550D01*
X178663Y124550D02*
X182063D01*
X178663Y129550D02*
X182063D01*
Y124550D02*
Y129550D01*
X172063Y118994D02*
X175463D01*
X172063Y123994D02*
X175463D01*
X172063Y118994D02*
Y123994D01*
X178663Y118994D02*
X182063D01*
X178663Y123994D02*
X182063D01*
Y118994D02*
Y123994D01*
X172063Y113439D02*
X175463D01*
X172063Y118439D02*
X175463D01*
X172063Y113439D02*
Y118439D01*
X178663Y113439D02*
X182063D01*
X178663Y118439D02*
X182063D01*
Y113439D02*
Y118439D01*
X172063Y107883D02*
X175463D01*
X172063Y112883D02*
X175463D01*
X172063Y107883D02*
Y112883D01*
X178663Y107883D02*
X182063D01*
X178663Y112883D02*
X182063D01*
Y107883D02*
Y112883D01*
X172063Y102328D02*
X175463D01*
X172063Y107328D02*
X175463D01*
X172063Y102328D02*
Y107328D01*
X178663Y102328D02*
X182063D01*
X178663Y107328D02*
X182063D01*
Y102328D02*
Y107328D01*
X171983Y96706D02*
X175383D01*
X171983Y101706D02*
X175383D01*
X171983Y96706D02*
Y101706D01*
X178583Y96706D02*
X181983D01*
X178583Y101706D02*
X181983D01*
Y96706D02*
Y101706D01*
X141063Y99217D02*
X144463D01*
X141063Y104217D02*
X144463D01*
X141063Y99217D02*
Y104217D01*
X147663Y99217D02*
X151063D01*
X147663Y104217D02*
X151063D01*
Y99217D02*
Y104217D01*
X159684Y133548D02*
X163084D01*
X159684Y138548D02*
X163084D01*
X159684Y133548D02*
Y138548D01*
X166284Y133548D02*
X169684D01*
X166284Y138548D02*
X169684D01*
Y133548D02*
Y138548D01*
X159756Y99035D02*
X163156D01*
X159756Y104035D02*
X163156D01*
X159756Y99035D02*
Y104035D01*
X166356Y99035D02*
X169756D01*
X166356Y104035D02*
X169756D01*
Y99035D02*
Y104035D01*
X107063Y99217D02*
Y104217D01*
Y99217D02*
X110463D01*
X107063Y104217D02*
X110463D01*
X117063Y99217D02*
Y104217D01*
X113663Y99217D02*
X117063D01*
X113663Y104217D02*
X117063D01*
X108063Y133053D02*
Y138053D01*
Y133053D02*
X111463D01*
X108063Y138053D02*
X111463D01*
X118063Y133053D02*
Y138053D01*
X114663Y133053D02*
X118063D01*
X114663Y138053D02*
X118063D01*
X141956Y199340D02*
Y202740D01*
X146956Y199340D02*
Y202740D01*
X141956D02*
X146956D01*
X141956Y192740D02*
Y196140D01*
X146956Y192740D02*
Y196140D01*
X141956Y192740D02*
X146956D01*
X108727Y199317D02*
Y202716D01*
X113727Y199317D02*
Y202716D01*
X108727D02*
X113727D01*
X108727Y192717D02*
Y196116D01*
X113727Y192717D02*
Y196116D01*
X108727Y192717D02*
X113727D01*
X108563Y232716D02*
X113563D01*
Y236117D01*
X108563Y232716D02*
Y236117D01*
Y242717D02*
X113563D01*
Y239317D02*
Y242717D01*
X108563Y239317D02*
Y242717D01*
Y229716D02*
X113563D01*
X108563Y226316D02*
Y229716D01*
X113563Y226316D02*
Y229716D01*
X108563Y219717D02*
X113563D01*
X108563D02*
Y223116D01*
X113563Y219717D02*
Y223116D01*
X108563Y243717D02*
X113563D01*
Y247116D01*
X108563Y243717D02*
Y247116D01*
Y253716D02*
X113563D01*
Y250317D02*
Y253716D01*
X108563Y250317D02*
Y253716D01*
X142563Y235717D02*
X147563D01*
X142563Y232316D02*
Y235717D01*
X147563Y232316D02*
Y235717D01*
X142563Y225716D02*
X147563D01*
X142563D02*
Y229117D01*
X147563Y225716D02*
Y229117D01*
X141891Y253534D02*
X146890D01*
X141891Y250134D02*
Y253534D01*
X146890Y250134D02*
Y253534D01*
X141891Y243534D02*
X146890D01*
X141891D02*
Y246934D01*
X146890Y243534D02*
Y246934D01*
X140051Y266983D02*
X145051D01*
X140051Y263583D02*
Y266983D01*
X145051Y263583D02*
Y266983D01*
X140051Y256983D02*
X145051D01*
X140051D02*
Y260383D01*
X145051Y256983D02*
Y260383D01*
X134495Y266983D02*
X139495D01*
X134495Y263583D02*
Y266983D01*
X139495Y263583D02*
Y266983D01*
X134495Y256983D02*
X139495D01*
X134495D02*
Y260383D01*
X139495Y256983D02*
Y260383D01*
X128940Y266983D02*
X133940D01*
X128940Y263583D02*
Y266983D01*
X133940Y263583D02*
Y266983D01*
X128940Y256983D02*
X133940D01*
X128940D02*
Y260383D01*
X133940Y256983D02*
Y260383D01*
X123384Y266983D02*
X128384D01*
X123384Y263583D02*
Y266983D01*
X128384Y263583D02*
Y266983D01*
X123384Y256983D02*
X128384D01*
X123384D02*
Y260383D01*
X128384Y256983D02*
Y260383D01*
X117829Y266983D02*
X122829D01*
X117829Y263583D02*
Y266983D01*
X122829Y263583D02*
Y266983D01*
X117829Y256983D02*
X122829D01*
X117829D02*
Y260383D01*
X122829Y256983D02*
Y260383D01*
X112273Y266983D02*
X117273D01*
X112273Y263583D02*
Y266983D01*
X117273Y263583D02*
Y266983D01*
X112273Y256983D02*
X117273D01*
X112273D02*
Y260383D01*
X117273Y256983D02*
Y260383D01*
X106960Y266997D02*
X111960D01*
X106960Y263597D02*
Y266997D01*
X111960Y263597D02*
Y266997D01*
X106960Y256997D02*
X111960D01*
X106960D02*
Y260397D01*
X111960Y256997D02*
Y260397D01*
X133520Y382587D02*
X137520D01*
Y389586D01*
X133520D02*
X137520D01*
X124520Y382587D02*
X128520D01*
X124520D02*
Y389586D01*
X128520D01*
X324630Y389327D02*
X328630D01*
X324630Y382327D02*
Y389327D01*
Y382327D02*
X328630D01*
X333630Y389327D02*
X337630D01*
Y382327D02*
Y389327D01*
X333630Y382327D02*
X337630D01*
X533320Y382671D02*
X537320D01*
Y389671D01*
X533320D02*
X537320D01*
X524320Y382671D02*
X528320D01*
X524320D02*
Y389671D01*
X528320D01*
X733620Y382686D02*
X737620D01*
Y389686D01*
X733620D02*
X737620D01*
X724620Y382686D02*
X728620D01*
X724620D02*
Y389686D01*
X728620D01*
X122759Y390540D02*
X126160D01*
X122759Y395540D02*
X126160D01*
X122759Y390540D02*
Y395540D01*
X129359Y390540D02*
X132759D01*
X129359Y395540D02*
X132759D01*
Y390540D02*
Y395540D01*
X332063Y390216D02*
Y395216D01*
X328663D02*
X332063D01*
X328663Y390216D02*
X332063D01*
X322063D02*
Y395216D01*
X325463D01*
X322063Y390216D02*
X325463D01*
X521901Y390662D02*
X525301D01*
X521901Y395662D02*
X525301D01*
X521901Y390662D02*
Y395662D01*
X528501Y390662D02*
X531901D01*
X528501Y395662D02*
X531901D01*
Y390662D02*
Y395662D01*
X722063Y390216D02*
X725463D01*
X722063Y395216D02*
X725463D01*
X722063Y390216D02*
Y395216D01*
X728663Y390216D02*
X732063D01*
X728663Y395216D02*
X732063D01*
Y390216D02*
Y395216D01*
X355993Y411526D02*
Y414926D01*
X360993Y411526D02*
Y414926D01*
X355993D02*
X360993D01*
X355993Y404926D02*
Y408326D01*
X360993Y404926D02*
Y408326D01*
X355993Y404926D02*
X360993D01*
X361993Y411526D02*
Y414926D01*
X366993Y411526D02*
Y414926D01*
X361993D02*
X366993D01*
X361993Y404926D02*
Y408326D01*
X366993Y404926D02*
Y408326D01*
X361993Y404926D02*
X366993D01*
X370093Y411526D02*
Y414926D01*
X375093Y411526D02*
Y414926D01*
X370093D02*
X375093D01*
X370093Y404926D02*
Y408326D01*
X375093Y404926D02*
Y408326D01*
X370093Y404926D02*
X375093D01*
X379793Y411526D02*
Y414926D01*
X384793Y411526D02*
Y414926D01*
X379793D02*
X384793D01*
X379793Y404926D02*
Y408326D01*
X384793Y404926D02*
Y408326D01*
X379793Y404926D02*
X384793D01*
X387193Y411727D02*
Y415127D01*
X392193Y411727D02*
Y415127D01*
X387193D02*
X392193D01*
X387193Y405126D02*
Y408527D01*
X392193Y405126D02*
Y408527D01*
X387193Y405126D02*
X392193D01*
X395293Y411526D02*
Y414926D01*
X400293Y411526D02*
Y414926D01*
X395293D02*
X400293D01*
X395293Y404926D02*
Y408326D01*
X400293Y404926D02*
Y408326D01*
X395293Y404926D02*
X400293D01*
X436693Y358826D02*
X440093D01*
X436693Y363826D02*
X440093D01*
X436693Y358826D02*
Y363826D01*
X443293Y358826D02*
X446693D01*
X443293Y363826D02*
X446693D01*
Y358826D02*
Y363826D01*
X436593Y328526D02*
X439993D01*
X436593Y333526D02*
X439993D01*
X436593Y328526D02*
Y333526D01*
X443193Y328526D02*
X446593D01*
X443193Y333526D02*
X446593D01*
Y328526D02*
Y333526D01*
X400693Y411526D02*
Y414926D01*
X405693Y411526D02*
Y414926D01*
X400693D02*
X405693D01*
X400693Y404926D02*
Y408326D01*
X405693Y404926D02*
Y408326D01*
X400693Y404926D02*
X405693D01*
X187083Y405386D02*
X192083D01*
Y408786D01*
X187083Y405386D02*
Y408786D01*
Y415386D02*
X192083D01*
Y411986D02*
Y415386D01*
X187083Y411986D02*
Y415386D01*
X586883Y405472D02*
X591883D01*
Y408872D01*
X586883Y405472D02*
Y408872D01*
Y415472D02*
X591883D01*
Y412072D02*
Y415472D01*
X586883Y412072D02*
Y415472D01*
X755983Y405287D02*
X760983D01*
Y408686D01*
X755983Y405287D02*
Y408686D01*
Y415286D02*
X760983D01*
Y411887D02*
Y415286D01*
X755983Y411887D02*
Y415286D01*
X779783Y405287D02*
X784783D01*
Y408686D01*
X779783Y405287D02*
Y408686D01*
Y415286D02*
X784783D01*
Y411887D02*
Y415286D01*
X779783Y411887D02*
Y415286D01*
X787183Y412086D02*
Y415486D01*
X792183Y412086D02*
Y415486D01*
X787183D02*
X792183D01*
X787183Y405486D02*
Y408886D01*
X792183Y405486D02*
Y408886D01*
X787183Y405486D02*
X792183D01*
X795283Y411887D02*
Y415286D01*
X800283Y411887D02*
Y415286D01*
X795283D02*
X800283D01*
X795283Y405287D02*
Y408686D01*
X800283Y405287D02*
Y408686D01*
X795283Y405287D02*
X800283D01*
X836583Y328887D02*
X839983D01*
X836583Y333887D02*
X839983D01*
X836583Y328887D02*
Y333887D01*
X843183Y328887D02*
X846583D01*
X843183Y333887D02*
X846583D01*
Y328887D02*
Y333887D01*
X846683Y359187D02*
Y364187D01*
X843283D02*
X846683D01*
X843283Y359187D02*
X846683D01*
X836683D02*
Y364187D01*
X840083D01*
X836683Y359187D02*
X840083D01*
X761983Y405287D02*
X766983D01*
Y408686D01*
X761983Y405287D02*
Y408686D01*
Y415286D02*
X766983D01*
Y411887D02*
Y415286D01*
X761983Y411887D02*
Y415286D01*
X770083Y405287D02*
X775083D01*
Y408686D01*
X770083Y405287D02*
Y408686D01*
Y415286D02*
X775083D01*
Y411887D02*
Y415286D01*
X770083Y411887D02*
Y415286D01*
X800683Y411887D02*
Y415286D01*
X805683Y411887D02*
Y415286D01*
X800683D02*
X805683D01*
X800683Y405287D02*
Y408686D01*
X805683Y405287D02*
Y408686D01*
X800683Y405287D02*
X805683D01*
X646283Y328871D02*
Y333872D01*
X642883D02*
X646283D01*
X642883Y328871D02*
X646283D01*
X636283D02*
Y333872D01*
X639683D01*
X636283Y328871D02*
X639683D01*
X646383Y359172D02*
Y364172D01*
X642983D02*
X646383D01*
X642983Y359172D02*
X646383D01*
X636383D02*
Y364172D01*
X639783D01*
X636383Y359172D02*
X639783D01*
X600383Y405271D02*
X605383D01*
Y408672D01*
X600383Y405271D02*
Y408672D01*
Y415272D02*
X605383D01*
Y411871D02*
Y415272D01*
X600383Y411871D02*
Y415272D01*
X594983Y405271D02*
X599983D01*
Y408672D01*
X594983Y405271D02*
Y408672D01*
Y415272D02*
X599983D01*
Y411871D02*
Y415272D01*
X594983Y411871D02*
Y415272D01*
X579483Y405271D02*
X584483D01*
Y408672D01*
X579483Y405271D02*
Y408672D01*
Y415272D02*
X584483D01*
Y411871D02*
Y415272D01*
X579483Y411871D02*
Y415272D01*
X569783Y405271D02*
X574783D01*
Y408672D01*
X569783Y405271D02*
Y408672D01*
Y415272D02*
X574783D01*
Y411871D02*
Y415272D01*
X569783Y411871D02*
Y415272D01*
X561683Y405271D02*
X566683D01*
Y408672D01*
X561683Y405271D02*
Y408672D01*
Y415272D02*
X566683D01*
Y411871D02*
Y415272D01*
X561683Y411871D02*
Y415272D01*
X555683Y405271D02*
X560683D01*
Y408672D01*
X555683Y405271D02*
Y408672D01*
Y415272D02*
X560683D01*
Y411871D02*
Y415272D01*
X555683Y411871D02*
Y415272D01*
X246483Y328786D02*
Y333787D01*
X243083D02*
X246483D01*
X243083Y328786D02*
X246483D01*
X236483D02*
Y333787D01*
X239883D01*
X236483Y328786D02*
X239883D01*
X246583Y359086D02*
Y364087D01*
X243183D02*
X246583D01*
X243183Y359086D02*
X246583D01*
X236583D02*
Y364087D01*
X239983D01*
X236583Y359086D02*
X239983D01*
X200583Y405187D02*
X205583D01*
Y408587D01*
X200583Y405187D02*
Y408587D01*
Y415187D02*
X205583D01*
Y411787D02*
Y415187D01*
X200583Y411787D02*
Y415187D01*
X195183Y405187D02*
X200183D01*
Y408587D01*
X195183Y405187D02*
Y408587D01*
Y415187D02*
X200183D01*
Y411787D02*
Y415187D01*
X195183Y411787D02*
Y415187D01*
X179683Y405187D02*
X184683D01*
Y408587D01*
X179683Y405187D02*
Y408587D01*
Y415187D02*
X184683D01*
Y411787D02*
Y415187D01*
X179683Y411787D02*
Y415187D01*
X169983Y405187D02*
X174983D01*
Y408587D01*
X169983Y405187D02*
Y408587D01*
Y415187D02*
X174983D01*
Y411787D02*
Y415187D01*
X169983Y411787D02*
Y415187D01*
X161883Y405187D02*
X166883D01*
Y408587D01*
X161883Y405187D02*
Y408587D01*
Y415187D02*
X166883D01*
Y411787D02*
Y415187D01*
X161883Y411787D02*
Y415187D01*
X155883Y405187D02*
X160883D01*
Y408587D01*
X155883Y405187D02*
Y408587D01*
Y415187D02*
X160883D01*
Y411787D02*
Y415187D01*
X155883Y411787D02*
Y415187D01*
D15*
X29246Y272846D02*
X52317D01*
Y337846D01*
X29246Y337354D02*
X52317Y337846D01*
X-9691Y272846D02*
X21805D01*
X-9691D02*
Y337846D01*
X21372D01*
D16*
X38006Y144650D02*
Y146147D01*
Y156147D02*
Y157643D01*
X12022Y156147D02*
Y164139D01*
Y138154D02*
Y146147D01*
X31510Y138154D02*
X38006Y144650D01*
X31510Y164139D02*
X38006Y157643D01*
X12022Y164139D02*
X31510D01*
X12022Y138154D02*
X31510D01*
X55872Y262751D02*
Y282239D01*
X81856Y262751D02*
Y282239D01*
X75360Y256254D02*
X81856Y262751D01*
X55872D02*
X62368Y256254D01*
X55872Y282239D02*
X63864D01*
X73864D02*
X81856D01*
X73864Y256254D02*
X75360D01*
X62368D02*
X63864D01*
X35116Y223831D02*
Y225326D01*
Y235327D02*
Y236823D01*
X9132Y235327D02*
Y243319D01*
Y217334D02*
Y225326D01*
X28620Y217334D02*
X35116Y223831D01*
X28620Y243319D02*
X35116Y236823D01*
X9132Y243319D02*
X28620D01*
X9132Y217334D02*
X28620D01*
X-11754Y177244D02*
X18758D01*
X-11754D02*
Y212677D01*
X45136D01*
X45333Y208740D01*
X146910Y312111D02*
Y389111D01*
Y312111D02*
X223910D01*
Y389111D01*
X146910D02*
X223910D01*
X347020Y388851D02*
X424020D01*
Y311851D02*
Y388851D01*
X347020Y311851D02*
X424020D01*
X347020D02*
Y388851D01*
X747010Y389211D02*
X824010D01*
Y312211D02*
Y389211D01*
X747010Y312211D02*
X824010D01*
X747010D02*
Y389211D01*
X546710Y312196D02*
Y389196D01*
Y312196D02*
X623710D01*
Y389196D01*
X546710D02*
X623710D01*
D17*
X28656Y259636D02*
Y260636D01*
Y250637D02*
Y251637D01*
X26656Y250637D02*
X28656D01*
X18656D02*
X20656D01*
X18656D02*
Y251637D01*
Y260636D02*
X20656D01*
X18656Y259636D02*
Y260636D01*
X26656D02*
X28656D01*
D18*
X0Y-100D02*
X919600D01*
X920300Y600D01*
Y435000D01*
X-100D02*
X920300D01*
X-100Y0D02*
Y435000D01*
M02*
