G04*
G04 #@! TF.GenerationSoftware,Altium Limited,Altium Designer,18.1.7 (191)*
G04*
G04 Layer_Color=8421504*
%FSLAX25Y25*%
%MOIN*%
G70*
G01*
G75*
%ADD18C,0.04000*%
%ADD19R,0.01772X0.05807*%
%ADD20R,0.05807X0.01772*%
%ADD21R,0.03500X0.03000*%
%ADD22R,0.02362X0.04921*%
%ADD23R,0.13386X0.07087*%
%ADD24R,0.07087X0.13386*%
%ADD25R,0.38386X0.48031*%
%ADD26R,0.13780X0.06299*%
%ADD27R,0.03543X0.03000*%
%ADD28R,0.08661X0.12205*%
%ADD29R,0.05984X0.05906*%
%ADD30R,0.06299X0.11000*%
%ADD31R,0.03000X0.03500*%
%ADD32R,0.03000X0.03543*%
%ADD33R,0.01772X0.06594*%
%ADD34R,0.02756X0.03150*%
%ADD35R,0.01575X0.04134*%
%ADD36R,0.02362X0.00787*%
%ADD37R,0.01870X0.01181*%
%ADD38R,0.03937X0.04921*%
%ADD39R,0.05807X0.01181*%
%ADD40R,0.01181X0.05807*%
%ADD41R,0.04331X0.05118*%
%ADD42R,0.20276X0.20276*%
D18*
X0Y-100D02*
X919600D01*
X920300Y600D01*
Y435000D01*
X-100D02*
X920300D01*
X-100Y0D02*
Y435000D01*
D19*
X885579Y37283D02*
D03*
X883020D02*
D03*
X880461D02*
D03*
X877902D02*
D03*
X875343D02*
D03*
X872784D02*
D03*
X870225D02*
D03*
X867665D02*
D03*
X865106D02*
D03*
X862547D02*
D03*
Y14150D02*
D03*
X865106D02*
D03*
X867665D02*
D03*
X870225D02*
D03*
X872784D02*
D03*
X875343D02*
D03*
X877902D02*
D03*
X880461D02*
D03*
X883020D02*
D03*
X885579D02*
D03*
X685579Y37283D02*
D03*
X683020D02*
D03*
X680461D02*
D03*
X677902D02*
D03*
X675343D02*
D03*
X672784D02*
D03*
X670225D02*
D03*
X667665D02*
D03*
X665106D02*
D03*
X662547D02*
D03*
Y14150D02*
D03*
X665106D02*
D03*
X667665D02*
D03*
X670225D02*
D03*
X672784D02*
D03*
X675343D02*
D03*
X677902D02*
D03*
X680461D02*
D03*
X683020D02*
D03*
X685579D02*
D03*
X485579Y37283D02*
D03*
X483020D02*
D03*
X480461D02*
D03*
X477902D02*
D03*
X475343D02*
D03*
X472784D02*
D03*
X470225D02*
D03*
X467665D02*
D03*
X465106D02*
D03*
X462547D02*
D03*
Y14150D02*
D03*
X465106D02*
D03*
X467665D02*
D03*
X470225D02*
D03*
X472784D02*
D03*
X475343D02*
D03*
X477902D02*
D03*
X480461D02*
D03*
X483020D02*
D03*
X485579D02*
D03*
X285579Y37283D02*
D03*
X283020D02*
D03*
X280461D02*
D03*
X277902D02*
D03*
X275343D02*
D03*
X272784D02*
D03*
X270225D02*
D03*
X267666D02*
D03*
X265107D02*
D03*
X262547D02*
D03*
Y14150D02*
D03*
X265107D02*
D03*
X267666D02*
D03*
X270225D02*
D03*
X272784D02*
D03*
X275343D02*
D03*
X277902D02*
D03*
X280461D02*
D03*
X283020D02*
D03*
X285579D02*
D03*
X839579Y37283D02*
D03*
X837020D02*
D03*
X834461D02*
D03*
X831902D02*
D03*
X829343D02*
D03*
X826784D02*
D03*
X824225D02*
D03*
X821665D02*
D03*
X819106D02*
D03*
X816547D02*
D03*
Y14150D02*
D03*
X819106D02*
D03*
X821665D02*
D03*
X824225D02*
D03*
X826784D02*
D03*
X829343D02*
D03*
X831902D02*
D03*
X834461D02*
D03*
X837020D02*
D03*
X839579D02*
D03*
X639579Y37283D02*
D03*
X637020D02*
D03*
X634461D02*
D03*
X631902D02*
D03*
X629343D02*
D03*
X626784D02*
D03*
X624225D02*
D03*
X621665D02*
D03*
X619106D02*
D03*
X616547D02*
D03*
Y14150D02*
D03*
X619106D02*
D03*
X621665D02*
D03*
X624225D02*
D03*
X626784D02*
D03*
X629343D02*
D03*
X631902D02*
D03*
X634461D02*
D03*
X637020D02*
D03*
X639579D02*
D03*
X439579Y37283D02*
D03*
X437020D02*
D03*
X434461D02*
D03*
X431902D02*
D03*
X429343D02*
D03*
X426784D02*
D03*
X424225D02*
D03*
X421665D02*
D03*
X419106D02*
D03*
X416547D02*
D03*
Y14150D02*
D03*
X419106D02*
D03*
X421665D02*
D03*
X424225D02*
D03*
X426784D02*
D03*
X429343D02*
D03*
X431902D02*
D03*
X434461D02*
D03*
X437020D02*
D03*
X439579D02*
D03*
X239579Y37283D02*
D03*
X237020D02*
D03*
X234461D02*
D03*
X231902D02*
D03*
X229343D02*
D03*
X226784D02*
D03*
X224225D02*
D03*
X221666D02*
D03*
X219107D02*
D03*
X216547D02*
D03*
Y14150D02*
D03*
X219107D02*
D03*
X221666D02*
D03*
X224225D02*
D03*
X226784D02*
D03*
X229343D02*
D03*
X231902D02*
D03*
X234461D02*
D03*
X237020D02*
D03*
X239579D02*
D03*
X883579Y135283D02*
D03*
X881020D02*
D03*
X878461D02*
D03*
X875902D02*
D03*
X873343D02*
D03*
X870784D02*
D03*
X868225D02*
D03*
X865666D02*
D03*
X863107D02*
D03*
X860547D02*
D03*
Y112150D02*
D03*
X863107D02*
D03*
X865666D02*
D03*
X868225D02*
D03*
X870784D02*
D03*
X873343D02*
D03*
X875902D02*
D03*
X878461D02*
D03*
X881020D02*
D03*
X883579D02*
D03*
X683579Y135283D02*
D03*
X681020D02*
D03*
X678461D02*
D03*
X675902D02*
D03*
X673343D02*
D03*
X670784D02*
D03*
X668225D02*
D03*
X665665D02*
D03*
X663106D02*
D03*
X660547D02*
D03*
Y112150D02*
D03*
X663106D02*
D03*
X665665D02*
D03*
X668225D02*
D03*
X670784D02*
D03*
X673343D02*
D03*
X675902D02*
D03*
X678461D02*
D03*
X681020D02*
D03*
X683579D02*
D03*
X483579Y135283D02*
D03*
X481020D02*
D03*
X478461D02*
D03*
X475902D02*
D03*
X473343D02*
D03*
X470784D02*
D03*
X468225D02*
D03*
X465665D02*
D03*
X463106D02*
D03*
X460547D02*
D03*
Y112150D02*
D03*
X463106D02*
D03*
X465665D02*
D03*
X468225D02*
D03*
X470784D02*
D03*
X473343D02*
D03*
X475902D02*
D03*
X478461D02*
D03*
X481020D02*
D03*
X483579D02*
D03*
X283579Y135283D02*
D03*
X281020D02*
D03*
X278461D02*
D03*
X275902D02*
D03*
X273343D02*
D03*
X270784D02*
D03*
X268225D02*
D03*
X265666D02*
D03*
X263106D02*
D03*
X260547D02*
D03*
Y112150D02*
D03*
X263106D02*
D03*
X265666D02*
D03*
X268225D02*
D03*
X270784D02*
D03*
X273343D02*
D03*
X275902D02*
D03*
X278461D02*
D03*
X281020D02*
D03*
X283579D02*
D03*
X883579Y218283D02*
D03*
X881020D02*
D03*
X878461D02*
D03*
X875902D02*
D03*
X873343D02*
D03*
X870784D02*
D03*
X868225D02*
D03*
X865666D02*
D03*
X863107D02*
D03*
X860547D02*
D03*
Y195150D02*
D03*
X863107D02*
D03*
X865666D02*
D03*
X868225D02*
D03*
X870784D02*
D03*
X873343D02*
D03*
X875902D02*
D03*
X878461D02*
D03*
X881020D02*
D03*
X883579D02*
D03*
X683579Y218283D02*
D03*
X681020D02*
D03*
X678461D02*
D03*
X675902D02*
D03*
X673343D02*
D03*
X670784D02*
D03*
X668225D02*
D03*
X665665D02*
D03*
X663106D02*
D03*
X660547D02*
D03*
Y195150D02*
D03*
X663106D02*
D03*
X665665D02*
D03*
X668225D02*
D03*
X670784D02*
D03*
X673343D02*
D03*
X675902D02*
D03*
X678461D02*
D03*
X681020D02*
D03*
X683579D02*
D03*
X483579Y218283D02*
D03*
X481020D02*
D03*
X478461D02*
D03*
X475902D02*
D03*
X473343D02*
D03*
X470784D02*
D03*
X468225D02*
D03*
X465665D02*
D03*
X463106D02*
D03*
X460547D02*
D03*
Y195150D02*
D03*
X463106D02*
D03*
X465665D02*
D03*
X468225D02*
D03*
X470784D02*
D03*
X473343D02*
D03*
X475902D02*
D03*
X478461D02*
D03*
X481020D02*
D03*
X483579D02*
D03*
X283579Y218283D02*
D03*
X281020D02*
D03*
X278461D02*
D03*
X275902D02*
D03*
X273343D02*
D03*
X270784D02*
D03*
X268225D02*
D03*
X265666D02*
D03*
X263106D02*
D03*
X260547D02*
D03*
Y195150D02*
D03*
X263106D02*
D03*
X265666D02*
D03*
X268225D02*
D03*
X270784D02*
D03*
X273343D02*
D03*
X275902D02*
D03*
X278461D02*
D03*
X281020D02*
D03*
X283579D02*
D03*
X780639Y218617D02*
D03*
X778079D02*
D03*
X775520D02*
D03*
X772961D02*
D03*
X770402D02*
D03*
X767843D02*
D03*
X765284D02*
D03*
X762725D02*
D03*
X760166D02*
D03*
X757607D02*
D03*
Y195483D02*
D03*
X760166D02*
D03*
X762725D02*
D03*
X765284D02*
D03*
X767843D02*
D03*
X770402D02*
D03*
X772961D02*
D03*
X775520D02*
D03*
X778079D02*
D03*
X780639D02*
D03*
X580639Y218617D02*
D03*
X578079D02*
D03*
X575520D02*
D03*
X572961D02*
D03*
X570402D02*
D03*
X567843D02*
D03*
X565284D02*
D03*
X562725D02*
D03*
X560166D02*
D03*
X557607D02*
D03*
Y195483D02*
D03*
X560166D02*
D03*
X562725D02*
D03*
X565284D02*
D03*
X567843D02*
D03*
X570402D02*
D03*
X572961D02*
D03*
X575520D02*
D03*
X578079D02*
D03*
X580639D02*
D03*
X380639Y218617D02*
D03*
X378079D02*
D03*
X375520D02*
D03*
X372961D02*
D03*
X370402D02*
D03*
X367843D02*
D03*
X365284D02*
D03*
X362725D02*
D03*
X360166D02*
D03*
X357607D02*
D03*
Y195483D02*
D03*
X360166D02*
D03*
X362725D02*
D03*
X365284D02*
D03*
X367843D02*
D03*
X370402D02*
D03*
X372961D02*
D03*
X375520D02*
D03*
X378079D02*
D03*
X380639D02*
D03*
X180639Y218617D02*
D03*
X178079D02*
D03*
X175520D02*
D03*
X172961D02*
D03*
X170402D02*
D03*
X167843D02*
D03*
X165284D02*
D03*
X162725D02*
D03*
X160166D02*
D03*
X157607D02*
D03*
Y195483D02*
D03*
X160166D02*
D03*
X162725D02*
D03*
X165284D02*
D03*
X167843D02*
D03*
X170402D02*
D03*
X172961D02*
D03*
X175520D02*
D03*
X178079D02*
D03*
X180639D02*
D03*
X739584Y217315D02*
D03*
X737025D02*
D03*
X734466D02*
D03*
X731907D02*
D03*
X729348D02*
D03*
X726789D02*
D03*
X724230D02*
D03*
X721671D02*
D03*
X719112D02*
D03*
X716553D02*
D03*
Y194181D02*
D03*
X719112D02*
D03*
X721671D02*
D03*
X724230D02*
D03*
X726789D02*
D03*
X729348D02*
D03*
X731907D02*
D03*
X734466D02*
D03*
X737025D02*
D03*
X739584D02*
D03*
X539584Y217315D02*
D03*
X537025D02*
D03*
X534466D02*
D03*
X531907D02*
D03*
X529348D02*
D03*
X526789D02*
D03*
X524230D02*
D03*
X521671D02*
D03*
X519112D02*
D03*
X516553D02*
D03*
Y194181D02*
D03*
X519112D02*
D03*
X521671D02*
D03*
X524230D02*
D03*
X526789D02*
D03*
X529348D02*
D03*
X531907D02*
D03*
X534466D02*
D03*
X537025D02*
D03*
X539584D02*
D03*
X339584Y217315D02*
D03*
X337025D02*
D03*
X334466D02*
D03*
X331907D02*
D03*
X329348D02*
D03*
X326789D02*
D03*
X324230D02*
D03*
X321671D02*
D03*
X319112D02*
D03*
X316553D02*
D03*
Y194181D02*
D03*
X319112D02*
D03*
X321671D02*
D03*
X324230D02*
D03*
X326789D02*
D03*
X329348D02*
D03*
X331907D02*
D03*
X334466D02*
D03*
X337025D02*
D03*
X339584D02*
D03*
X139584Y217315D02*
D03*
X137025D02*
D03*
X134466D02*
D03*
X131907D02*
D03*
X129348D02*
D03*
X126789D02*
D03*
X124230D02*
D03*
X121671D02*
D03*
X119112D02*
D03*
X116553D02*
D03*
Y194181D02*
D03*
X119112D02*
D03*
X121671D02*
D03*
X124230D02*
D03*
X126789D02*
D03*
X129348D02*
D03*
X131907D02*
D03*
X134466D02*
D03*
X137025D02*
D03*
X139584D02*
D03*
X60577Y328563D02*
D03*
X63137D02*
D03*
X60577Y305430D02*
D03*
X63137D02*
D03*
X65696D02*
D03*
X68255D02*
D03*
X70814D02*
D03*
X73373D02*
D03*
X75932D02*
D03*
X78491D02*
D03*
Y328563D02*
D03*
X75932D02*
D03*
X73373D02*
D03*
X70814D02*
D03*
X68255D02*
D03*
X65696D02*
D03*
X485579Y70283D02*
D03*
X483020D02*
D03*
X480461D02*
D03*
X477902D02*
D03*
X475343D02*
D03*
X472784D02*
D03*
X470225D02*
D03*
X467665D02*
D03*
X465106D02*
D03*
X462547D02*
D03*
Y47150D02*
D03*
X465106D02*
D03*
X467665D02*
D03*
X470225D02*
D03*
X472784D02*
D03*
X475343D02*
D03*
X477902D02*
D03*
X480461D02*
D03*
X483020D02*
D03*
X485579D02*
D03*
X780639Y251617D02*
D03*
X778079D02*
D03*
X775520D02*
D03*
X772961D02*
D03*
X770402D02*
D03*
X767843D02*
D03*
X765284D02*
D03*
X762725D02*
D03*
X760166D02*
D03*
X757607D02*
D03*
Y228483D02*
D03*
X760166D02*
D03*
X762725D02*
D03*
X765284D02*
D03*
X767843D02*
D03*
X770402D02*
D03*
X772961D02*
D03*
X775520D02*
D03*
X778079D02*
D03*
X780639D02*
D03*
X580639Y251617D02*
D03*
X578079D02*
D03*
X575520D02*
D03*
X572961D02*
D03*
X570402D02*
D03*
X567843D02*
D03*
X565284D02*
D03*
X562725D02*
D03*
X560166D02*
D03*
X557607D02*
D03*
Y228483D02*
D03*
X560166D02*
D03*
X562725D02*
D03*
X565284D02*
D03*
X567843D02*
D03*
X570402D02*
D03*
X572961D02*
D03*
X575520D02*
D03*
X578079D02*
D03*
X580639D02*
D03*
X539579Y251283D02*
D03*
X537020D02*
D03*
X534461D02*
D03*
X531902D02*
D03*
X529343D02*
D03*
X526784D02*
D03*
X524225D02*
D03*
X521665D02*
D03*
X519106D02*
D03*
X516547D02*
D03*
Y228150D02*
D03*
X519106D02*
D03*
X521665D02*
D03*
X524225D02*
D03*
X526784D02*
D03*
X529343D02*
D03*
X531902D02*
D03*
X534461D02*
D03*
X537020D02*
D03*
X539579D02*
D03*
X339579Y251283D02*
D03*
X337020D02*
D03*
X334461D02*
D03*
X331902D02*
D03*
X329343D02*
D03*
X326784D02*
D03*
X324225D02*
D03*
X321666D02*
D03*
X319107D02*
D03*
X316547D02*
D03*
Y228150D02*
D03*
X319107D02*
D03*
X321666D02*
D03*
X324225D02*
D03*
X326784D02*
D03*
X329343D02*
D03*
X331902D02*
D03*
X334461D02*
D03*
X337020D02*
D03*
X339579D02*
D03*
X739579Y251283D02*
D03*
X737020D02*
D03*
X734461D02*
D03*
X731902D02*
D03*
X729343D02*
D03*
X726784D02*
D03*
X724225D02*
D03*
X721665D02*
D03*
X719106D02*
D03*
X716547D02*
D03*
Y228150D02*
D03*
X719106D02*
D03*
X721665D02*
D03*
X724225D02*
D03*
X726784D02*
D03*
X729343D02*
D03*
X731902D02*
D03*
X734461D02*
D03*
X737020D02*
D03*
X739579D02*
D03*
X885579Y70283D02*
D03*
X883020D02*
D03*
X880461D02*
D03*
X877902D02*
D03*
X875343D02*
D03*
X872784D02*
D03*
X870225D02*
D03*
X867665D02*
D03*
X865106D02*
D03*
X862547D02*
D03*
Y47150D02*
D03*
X865106D02*
D03*
X867665D02*
D03*
X870225D02*
D03*
X872784D02*
D03*
X875343D02*
D03*
X877902D02*
D03*
X880461D02*
D03*
X883020D02*
D03*
X885579D02*
D03*
X839579Y70283D02*
D03*
X837020D02*
D03*
X834461D02*
D03*
X831902D02*
D03*
X829343D02*
D03*
X826784D02*
D03*
X824225D02*
D03*
X821665D02*
D03*
X819106D02*
D03*
X816547D02*
D03*
Y47150D02*
D03*
X819106D02*
D03*
X821665D02*
D03*
X824225D02*
D03*
X826784D02*
D03*
X829343D02*
D03*
X831902D02*
D03*
X834461D02*
D03*
X837020D02*
D03*
X839579D02*
D03*
X883579Y168283D02*
D03*
X881020D02*
D03*
X878461D02*
D03*
X875902D02*
D03*
X873343D02*
D03*
X870784D02*
D03*
X868225D02*
D03*
X865666D02*
D03*
X863107D02*
D03*
X860547D02*
D03*
Y145150D02*
D03*
X863107D02*
D03*
X865666D02*
D03*
X868225D02*
D03*
X870784D02*
D03*
X873343D02*
D03*
X875902D02*
D03*
X878461D02*
D03*
X881020D02*
D03*
X883579D02*
D03*
Y251283D02*
D03*
X881020D02*
D03*
X878461D02*
D03*
X875902D02*
D03*
X873343D02*
D03*
X870784D02*
D03*
X868225D02*
D03*
X865666D02*
D03*
X863107D02*
D03*
X860547D02*
D03*
Y228150D02*
D03*
X863107D02*
D03*
X865666D02*
D03*
X868225D02*
D03*
X870784D02*
D03*
X873343D02*
D03*
X875902D02*
D03*
X878461D02*
D03*
X881020D02*
D03*
X883579D02*
D03*
X685579Y70283D02*
D03*
X683020D02*
D03*
X680461D02*
D03*
X677902D02*
D03*
X675343D02*
D03*
X672784D02*
D03*
X670225D02*
D03*
X667665D02*
D03*
X665106D02*
D03*
X662547D02*
D03*
Y47150D02*
D03*
X665106D02*
D03*
X667665D02*
D03*
X670225D02*
D03*
X672784D02*
D03*
X675343D02*
D03*
X677902D02*
D03*
X680461D02*
D03*
X683020D02*
D03*
X685579D02*
D03*
X639579Y70283D02*
D03*
X637020D02*
D03*
X634461D02*
D03*
X631902D02*
D03*
X629343D02*
D03*
X626784D02*
D03*
X624225D02*
D03*
X621665D02*
D03*
X619106D02*
D03*
X616547D02*
D03*
Y47150D02*
D03*
X619106D02*
D03*
X621665D02*
D03*
X624225D02*
D03*
X626784D02*
D03*
X629343D02*
D03*
X631902D02*
D03*
X634461D02*
D03*
X637020D02*
D03*
X639579D02*
D03*
X683579Y168283D02*
D03*
X681020D02*
D03*
X678461D02*
D03*
X675902D02*
D03*
X673343D02*
D03*
X670784D02*
D03*
X668225D02*
D03*
X665665D02*
D03*
X663106D02*
D03*
X660547D02*
D03*
Y145150D02*
D03*
X663106D02*
D03*
X665665D02*
D03*
X668225D02*
D03*
X670784D02*
D03*
X673343D02*
D03*
X675902D02*
D03*
X678461D02*
D03*
X681020D02*
D03*
X683579D02*
D03*
Y251283D02*
D03*
X681020D02*
D03*
X678461D02*
D03*
X675902D02*
D03*
X673343D02*
D03*
X670784D02*
D03*
X668225D02*
D03*
X665665D02*
D03*
X663106D02*
D03*
X660547D02*
D03*
Y228150D02*
D03*
X663106D02*
D03*
X665665D02*
D03*
X668225D02*
D03*
X670784D02*
D03*
X673343D02*
D03*
X675902D02*
D03*
X678461D02*
D03*
X681020D02*
D03*
X683579D02*
D03*
X439579Y70283D02*
D03*
X437020D02*
D03*
X434461D02*
D03*
X431902D02*
D03*
X429343D02*
D03*
X426784D02*
D03*
X424225D02*
D03*
X421665D02*
D03*
X419106D02*
D03*
X416547D02*
D03*
Y47150D02*
D03*
X419106D02*
D03*
X421665D02*
D03*
X424225D02*
D03*
X426784D02*
D03*
X429343D02*
D03*
X431902D02*
D03*
X434461D02*
D03*
X437020D02*
D03*
X439579D02*
D03*
X483579Y168283D02*
D03*
X481020D02*
D03*
X478461D02*
D03*
X475902D02*
D03*
X473343D02*
D03*
X470784D02*
D03*
X468225D02*
D03*
X465665D02*
D03*
X463106D02*
D03*
X460547D02*
D03*
Y145150D02*
D03*
X463106D02*
D03*
X465665D02*
D03*
X468225D02*
D03*
X470784D02*
D03*
X473343D02*
D03*
X475902D02*
D03*
X478461D02*
D03*
X481020D02*
D03*
X483579D02*
D03*
Y251283D02*
D03*
X481020D02*
D03*
X478461D02*
D03*
X475902D02*
D03*
X473343D02*
D03*
X470784D02*
D03*
X468225D02*
D03*
X465665D02*
D03*
X463106D02*
D03*
X460547D02*
D03*
Y228150D02*
D03*
X463106D02*
D03*
X465665D02*
D03*
X468225D02*
D03*
X470784D02*
D03*
X473343D02*
D03*
X475902D02*
D03*
X478461D02*
D03*
X481020D02*
D03*
X483579D02*
D03*
X380639Y251617D02*
D03*
X378079D02*
D03*
X375520D02*
D03*
X372961D02*
D03*
X370402D02*
D03*
X367843D02*
D03*
X365284D02*
D03*
X362725D02*
D03*
X360166D02*
D03*
X357607D02*
D03*
Y228483D02*
D03*
X360166D02*
D03*
X362725D02*
D03*
X365284D02*
D03*
X367843D02*
D03*
X370402D02*
D03*
X372961D02*
D03*
X375520D02*
D03*
X378079D02*
D03*
X380639D02*
D03*
X283579Y168283D02*
D03*
X281020D02*
D03*
X278461D02*
D03*
X275902D02*
D03*
X273343D02*
D03*
X270784D02*
D03*
X268225D02*
D03*
X265666D02*
D03*
X263106D02*
D03*
X260547D02*
D03*
Y145150D02*
D03*
X263106D02*
D03*
X265666D02*
D03*
X268225D02*
D03*
X270784D02*
D03*
X273343D02*
D03*
X275902D02*
D03*
X278461D02*
D03*
X281020D02*
D03*
X283579D02*
D03*
X180639Y228483D02*
D03*
X178079D02*
D03*
X175520D02*
D03*
X172961D02*
D03*
X170402D02*
D03*
X167843D02*
D03*
X165284D02*
D03*
X162725D02*
D03*
X160166D02*
D03*
X157607D02*
D03*
Y251617D02*
D03*
X160166D02*
D03*
X162725D02*
D03*
X165284D02*
D03*
X167843D02*
D03*
X170402D02*
D03*
X172961D02*
D03*
X175520D02*
D03*
X178079D02*
D03*
X180639D02*
D03*
X283579Y228150D02*
D03*
X281020D02*
D03*
X278461D02*
D03*
X275902D02*
D03*
X273343D02*
D03*
X270784D02*
D03*
X268225D02*
D03*
X265666D02*
D03*
X263106D02*
D03*
X260547D02*
D03*
Y251283D02*
D03*
X263106D02*
D03*
X265666D02*
D03*
X268225D02*
D03*
X270784D02*
D03*
X273343D02*
D03*
X275902D02*
D03*
X278461D02*
D03*
X281020D02*
D03*
X283579D02*
D03*
X239579Y70283D02*
D03*
X237020D02*
D03*
X234461D02*
D03*
X231902D02*
D03*
X229343D02*
D03*
X226784D02*
D03*
X224225D02*
D03*
X221666D02*
D03*
X219107D02*
D03*
X216547D02*
D03*
Y47150D02*
D03*
X219107D02*
D03*
X221666D02*
D03*
X224225D02*
D03*
X226784D02*
D03*
X229343D02*
D03*
X231902D02*
D03*
X234461D02*
D03*
X237020D02*
D03*
X239579D02*
D03*
X285579Y70283D02*
D03*
X283020D02*
D03*
X280461D02*
D03*
X277902D02*
D03*
X275343D02*
D03*
X272784D02*
D03*
X270225D02*
D03*
X267666D02*
D03*
X265107D02*
D03*
X262547D02*
D03*
Y47150D02*
D03*
X265107D02*
D03*
X267666D02*
D03*
X270225D02*
D03*
X272784D02*
D03*
X275343D02*
D03*
X277902D02*
D03*
X280461D02*
D03*
X283020D02*
D03*
X285579D02*
D03*
X139579Y228150D02*
D03*
X137020D02*
D03*
X134461D02*
D03*
X131902D02*
D03*
X129343D02*
D03*
X126784D02*
D03*
X124225D02*
D03*
X121666D02*
D03*
X119106D02*
D03*
X116547D02*
D03*
Y251283D02*
D03*
X119106D02*
D03*
X121666D02*
D03*
X124225D02*
D03*
X126784D02*
D03*
X129343D02*
D03*
X131902D02*
D03*
X134461D02*
D03*
X137020D02*
D03*
X139579D02*
D03*
D20*
X733630Y17201D02*
D03*
Y19760D02*
D03*
Y22319D02*
D03*
Y24878D02*
D03*
Y27437D02*
D03*
Y29996D02*
D03*
Y32555D02*
D03*
Y35114D02*
D03*
Y37673D02*
D03*
Y40232D02*
D03*
X710496D02*
D03*
Y37673D02*
D03*
Y35114D02*
D03*
Y32555D02*
D03*
Y29996D02*
D03*
Y27437D02*
D03*
Y24878D02*
D03*
Y22319D02*
D03*
Y19760D02*
D03*
Y17201D02*
D03*
X533630D02*
D03*
Y19760D02*
D03*
Y22319D02*
D03*
Y24878D02*
D03*
Y27437D02*
D03*
Y29996D02*
D03*
Y32555D02*
D03*
Y35114D02*
D03*
Y37673D02*
D03*
Y40232D02*
D03*
X510496D02*
D03*
Y37673D02*
D03*
Y35114D02*
D03*
Y32555D02*
D03*
Y29996D02*
D03*
Y27437D02*
D03*
Y24878D02*
D03*
Y22319D02*
D03*
Y19760D02*
D03*
Y17201D02*
D03*
X333630D02*
D03*
Y19760D02*
D03*
Y22319D02*
D03*
Y24878D02*
D03*
Y27437D02*
D03*
Y29996D02*
D03*
Y32555D02*
D03*
Y35114D02*
D03*
Y37673D02*
D03*
Y40232D02*
D03*
X310496D02*
D03*
Y37673D02*
D03*
Y35114D02*
D03*
Y32555D02*
D03*
Y29996D02*
D03*
Y27437D02*
D03*
Y24878D02*
D03*
Y22319D02*
D03*
Y19760D02*
D03*
Y17201D02*
D03*
X133630D02*
D03*
Y19760D02*
D03*
Y22319D02*
D03*
Y24878D02*
D03*
Y27437D02*
D03*
Y29996D02*
D03*
Y32555D02*
D03*
Y35114D02*
D03*
Y37673D02*
D03*
Y40232D02*
D03*
X110496D02*
D03*
Y37673D02*
D03*
Y35114D02*
D03*
Y32555D02*
D03*
Y29996D02*
D03*
Y27437D02*
D03*
Y24878D02*
D03*
Y22319D02*
D03*
Y19760D02*
D03*
Y17201D02*
D03*
X733630Y62201D02*
D03*
Y64760D02*
D03*
Y67319D02*
D03*
Y69878D02*
D03*
Y72437D02*
D03*
Y74996D02*
D03*
Y77555D02*
D03*
Y80114D02*
D03*
Y82673D02*
D03*
Y85232D02*
D03*
X710496D02*
D03*
Y82673D02*
D03*
Y80114D02*
D03*
Y77555D02*
D03*
Y74996D02*
D03*
Y72437D02*
D03*
Y69878D02*
D03*
Y67319D02*
D03*
Y64760D02*
D03*
Y62201D02*
D03*
X533630D02*
D03*
Y64760D02*
D03*
Y67319D02*
D03*
Y69878D02*
D03*
Y72437D02*
D03*
Y74996D02*
D03*
Y77555D02*
D03*
Y80114D02*
D03*
Y82673D02*
D03*
Y85232D02*
D03*
X510496D02*
D03*
Y82673D02*
D03*
Y80114D02*
D03*
Y77555D02*
D03*
Y74996D02*
D03*
Y72437D02*
D03*
Y69878D02*
D03*
Y67319D02*
D03*
Y64760D02*
D03*
Y62201D02*
D03*
X333630D02*
D03*
Y64760D02*
D03*
Y67319D02*
D03*
Y69878D02*
D03*
Y72437D02*
D03*
Y74996D02*
D03*
Y77555D02*
D03*
Y80114D02*
D03*
Y82673D02*
D03*
Y85232D02*
D03*
X310496D02*
D03*
Y82673D02*
D03*
Y80114D02*
D03*
Y77555D02*
D03*
Y74996D02*
D03*
Y72437D02*
D03*
Y69878D02*
D03*
Y67319D02*
D03*
Y64760D02*
D03*
Y62201D02*
D03*
X133630D02*
D03*
Y64760D02*
D03*
Y67319D02*
D03*
Y69878D02*
D03*
Y72437D02*
D03*
Y74996D02*
D03*
Y77555D02*
D03*
Y80114D02*
D03*
Y82673D02*
D03*
Y85232D02*
D03*
X110496D02*
D03*
Y82673D02*
D03*
Y80114D02*
D03*
Y77555D02*
D03*
Y74996D02*
D03*
Y72437D02*
D03*
Y69878D02*
D03*
Y67319D02*
D03*
Y64760D02*
D03*
Y62201D02*
D03*
X733630Y107201D02*
D03*
Y109760D02*
D03*
Y112319D02*
D03*
Y114878D02*
D03*
Y117437D02*
D03*
Y119996D02*
D03*
Y122555D02*
D03*
Y125114D02*
D03*
Y127673D02*
D03*
Y130232D02*
D03*
X710496D02*
D03*
Y127673D02*
D03*
Y125114D02*
D03*
Y122555D02*
D03*
Y119996D02*
D03*
Y117437D02*
D03*
Y114878D02*
D03*
Y112319D02*
D03*
Y109760D02*
D03*
Y107201D02*
D03*
X533630D02*
D03*
Y109760D02*
D03*
Y112319D02*
D03*
Y114878D02*
D03*
Y117437D02*
D03*
Y119996D02*
D03*
Y122555D02*
D03*
Y125114D02*
D03*
Y127673D02*
D03*
Y130232D02*
D03*
X510496D02*
D03*
Y127673D02*
D03*
Y125114D02*
D03*
Y122555D02*
D03*
Y119996D02*
D03*
Y117437D02*
D03*
Y114878D02*
D03*
Y112319D02*
D03*
Y109760D02*
D03*
Y107201D02*
D03*
X333630D02*
D03*
Y109760D02*
D03*
Y112319D02*
D03*
Y114878D02*
D03*
Y117437D02*
D03*
Y119996D02*
D03*
Y122555D02*
D03*
Y125114D02*
D03*
Y127673D02*
D03*
Y130232D02*
D03*
X310496D02*
D03*
Y127673D02*
D03*
Y125114D02*
D03*
Y122555D02*
D03*
Y119996D02*
D03*
Y117437D02*
D03*
Y114878D02*
D03*
Y112319D02*
D03*
Y109760D02*
D03*
Y107201D02*
D03*
X133630D02*
D03*
Y109760D02*
D03*
Y112319D02*
D03*
Y114878D02*
D03*
Y117437D02*
D03*
Y119996D02*
D03*
Y122555D02*
D03*
Y125114D02*
D03*
Y127673D02*
D03*
Y130232D02*
D03*
X110496D02*
D03*
Y127673D02*
D03*
Y125114D02*
D03*
Y122555D02*
D03*
Y119996D02*
D03*
Y117437D02*
D03*
Y114878D02*
D03*
Y112319D02*
D03*
Y109760D02*
D03*
Y107201D02*
D03*
X733630Y153201D02*
D03*
Y155760D02*
D03*
Y158319D02*
D03*
Y160878D02*
D03*
Y163437D02*
D03*
Y165996D02*
D03*
Y168555D02*
D03*
Y171114D02*
D03*
Y173673D02*
D03*
Y176232D02*
D03*
X710496D02*
D03*
Y173673D02*
D03*
Y171114D02*
D03*
Y168555D02*
D03*
Y165996D02*
D03*
Y163437D02*
D03*
Y160878D02*
D03*
Y158319D02*
D03*
Y155760D02*
D03*
Y153201D02*
D03*
X533630D02*
D03*
Y155760D02*
D03*
Y158319D02*
D03*
Y160878D02*
D03*
Y163437D02*
D03*
Y165996D02*
D03*
Y168555D02*
D03*
Y171114D02*
D03*
Y173673D02*
D03*
Y176232D02*
D03*
X510496D02*
D03*
Y173673D02*
D03*
Y171114D02*
D03*
Y168555D02*
D03*
Y165996D02*
D03*
Y163437D02*
D03*
Y160878D02*
D03*
Y158319D02*
D03*
Y155760D02*
D03*
Y153201D02*
D03*
X333630D02*
D03*
Y155760D02*
D03*
Y158319D02*
D03*
Y160878D02*
D03*
Y163437D02*
D03*
Y165996D02*
D03*
Y168555D02*
D03*
Y171114D02*
D03*
Y173673D02*
D03*
Y176232D02*
D03*
X310496D02*
D03*
Y173673D02*
D03*
Y171114D02*
D03*
Y168555D02*
D03*
Y165996D02*
D03*
Y163437D02*
D03*
Y160878D02*
D03*
Y158319D02*
D03*
Y155760D02*
D03*
Y153201D02*
D03*
X133630D02*
D03*
Y155760D02*
D03*
Y158319D02*
D03*
Y160878D02*
D03*
Y163437D02*
D03*
Y165996D02*
D03*
Y168555D02*
D03*
Y171114D02*
D03*
Y173673D02*
D03*
Y176232D02*
D03*
X110496D02*
D03*
Y173673D02*
D03*
Y171114D02*
D03*
Y168555D02*
D03*
Y165996D02*
D03*
Y163437D02*
D03*
Y160878D02*
D03*
Y158319D02*
D03*
Y155760D02*
D03*
Y153201D02*
D03*
X766630Y17201D02*
D03*
Y19760D02*
D03*
Y22319D02*
D03*
Y24878D02*
D03*
Y27437D02*
D03*
Y29996D02*
D03*
Y32555D02*
D03*
Y35114D02*
D03*
Y37673D02*
D03*
Y40232D02*
D03*
X743496D02*
D03*
Y37673D02*
D03*
Y35114D02*
D03*
Y32555D02*
D03*
Y29996D02*
D03*
Y27437D02*
D03*
Y24878D02*
D03*
Y22319D02*
D03*
Y19760D02*
D03*
Y17201D02*
D03*
X766630Y62201D02*
D03*
Y64760D02*
D03*
Y67319D02*
D03*
Y69878D02*
D03*
Y72437D02*
D03*
Y74996D02*
D03*
Y77555D02*
D03*
Y80114D02*
D03*
Y82673D02*
D03*
Y85232D02*
D03*
X743496D02*
D03*
Y82673D02*
D03*
Y80114D02*
D03*
Y77555D02*
D03*
Y74996D02*
D03*
Y72437D02*
D03*
Y69878D02*
D03*
Y67319D02*
D03*
Y64760D02*
D03*
Y62201D02*
D03*
X766630Y107201D02*
D03*
Y109760D02*
D03*
Y112319D02*
D03*
Y114878D02*
D03*
Y117437D02*
D03*
Y119996D02*
D03*
Y122555D02*
D03*
Y125114D02*
D03*
Y127673D02*
D03*
Y130232D02*
D03*
X743496D02*
D03*
Y127673D02*
D03*
Y125114D02*
D03*
Y122555D02*
D03*
Y119996D02*
D03*
Y117437D02*
D03*
Y114878D02*
D03*
Y112319D02*
D03*
Y109760D02*
D03*
Y107201D02*
D03*
X766630Y153201D02*
D03*
Y155760D02*
D03*
Y158319D02*
D03*
Y160878D02*
D03*
Y163437D02*
D03*
Y165996D02*
D03*
Y168555D02*
D03*
Y171114D02*
D03*
Y173673D02*
D03*
Y176232D02*
D03*
X743496D02*
D03*
Y173673D02*
D03*
Y171114D02*
D03*
Y168555D02*
D03*
Y165996D02*
D03*
Y163437D02*
D03*
Y160878D02*
D03*
Y158319D02*
D03*
Y155760D02*
D03*
Y153201D02*
D03*
X566630Y17201D02*
D03*
Y19760D02*
D03*
Y22319D02*
D03*
Y24878D02*
D03*
Y27437D02*
D03*
Y29996D02*
D03*
Y32555D02*
D03*
Y35114D02*
D03*
Y37673D02*
D03*
Y40232D02*
D03*
X543496D02*
D03*
Y37673D02*
D03*
Y35114D02*
D03*
Y32555D02*
D03*
Y29996D02*
D03*
Y27437D02*
D03*
Y24878D02*
D03*
Y22319D02*
D03*
Y19760D02*
D03*
Y17201D02*
D03*
X566630Y62201D02*
D03*
Y64760D02*
D03*
Y67319D02*
D03*
Y69878D02*
D03*
Y72437D02*
D03*
Y74996D02*
D03*
Y77555D02*
D03*
Y80114D02*
D03*
Y82673D02*
D03*
Y85232D02*
D03*
X543496D02*
D03*
Y82673D02*
D03*
Y80114D02*
D03*
Y77555D02*
D03*
Y74996D02*
D03*
Y72437D02*
D03*
Y69878D02*
D03*
Y67319D02*
D03*
Y64760D02*
D03*
Y62201D02*
D03*
X566630Y107201D02*
D03*
Y109760D02*
D03*
Y112319D02*
D03*
Y114878D02*
D03*
Y117437D02*
D03*
Y119996D02*
D03*
Y122555D02*
D03*
Y125114D02*
D03*
Y127673D02*
D03*
Y130232D02*
D03*
X543496D02*
D03*
Y127673D02*
D03*
Y125114D02*
D03*
Y122555D02*
D03*
Y119996D02*
D03*
Y117437D02*
D03*
Y114878D02*
D03*
Y112319D02*
D03*
Y109760D02*
D03*
Y107201D02*
D03*
X566630Y153201D02*
D03*
Y155760D02*
D03*
Y158319D02*
D03*
Y160878D02*
D03*
Y163437D02*
D03*
Y165996D02*
D03*
Y168555D02*
D03*
Y171114D02*
D03*
Y173673D02*
D03*
Y176232D02*
D03*
X543496D02*
D03*
Y173673D02*
D03*
Y171114D02*
D03*
Y168555D02*
D03*
Y165996D02*
D03*
Y163437D02*
D03*
Y160878D02*
D03*
Y158319D02*
D03*
Y155760D02*
D03*
Y153201D02*
D03*
X366630Y17201D02*
D03*
Y19760D02*
D03*
Y22319D02*
D03*
Y24878D02*
D03*
Y27437D02*
D03*
Y29996D02*
D03*
Y32555D02*
D03*
Y35114D02*
D03*
Y37673D02*
D03*
Y40232D02*
D03*
X343496D02*
D03*
Y37673D02*
D03*
Y35114D02*
D03*
Y32555D02*
D03*
Y29996D02*
D03*
Y27437D02*
D03*
Y24878D02*
D03*
Y22319D02*
D03*
Y19760D02*
D03*
Y17201D02*
D03*
X366630Y62201D02*
D03*
Y64760D02*
D03*
Y67319D02*
D03*
Y69878D02*
D03*
Y72437D02*
D03*
Y74996D02*
D03*
Y77555D02*
D03*
Y80114D02*
D03*
Y82673D02*
D03*
Y85232D02*
D03*
X343496D02*
D03*
Y82673D02*
D03*
Y80114D02*
D03*
Y77555D02*
D03*
Y74996D02*
D03*
Y72437D02*
D03*
Y69878D02*
D03*
Y67319D02*
D03*
Y64760D02*
D03*
Y62201D02*
D03*
X366630Y107201D02*
D03*
Y109760D02*
D03*
Y112319D02*
D03*
Y114878D02*
D03*
Y117437D02*
D03*
Y119996D02*
D03*
Y122555D02*
D03*
Y125114D02*
D03*
Y127673D02*
D03*
Y130232D02*
D03*
X343496D02*
D03*
Y127673D02*
D03*
Y125114D02*
D03*
Y122555D02*
D03*
Y119996D02*
D03*
Y117437D02*
D03*
Y114878D02*
D03*
Y112319D02*
D03*
Y109760D02*
D03*
Y107201D02*
D03*
X366630Y153201D02*
D03*
Y155760D02*
D03*
Y158319D02*
D03*
Y160878D02*
D03*
Y163437D02*
D03*
Y165996D02*
D03*
Y168555D02*
D03*
Y171114D02*
D03*
Y173673D02*
D03*
Y176232D02*
D03*
X343496D02*
D03*
Y173673D02*
D03*
Y171114D02*
D03*
Y168555D02*
D03*
Y165996D02*
D03*
Y163437D02*
D03*
Y160878D02*
D03*
Y158319D02*
D03*
Y155760D02*
D03*
Y153201D02*
D03*
X166630D02*
D03*
Y155760D02*
D03*
Y158319D02*
D03*
Y160878D02*
D03*
Y163437D02*
D03*
Y165996D02*
D03*
Y168555D02*
D03*
Y171114D02*
D03*
Y173673D02*
D03*
Y176232D02*
D03*
X143496D02*
D03*
Y173673D02*
D03*
Y171114D02*
D03*
Y168555D02*
D03*
Y165996D02*
D03*
Y163437D02*
D03*
Y160878D02*
D03*
Y158319D02*
D03*
Y155760D02*
D03*
Y153201D02*
D03*
X166630Y107201D02*
D03*
Y109760D02*
D03*
Y112319D02*
D03*
Y114878D02*
D03*
Y117437D02*
D03*
Y119996D02*
D03*
Y122555D02*
D03*
Y125114D02*
D03*
Y127673D02*
D03*
Y130232D02*
D03*
X143496D02*
D03*
Y127673D02*
D03*
Y125114D02*
D03*
Y122555D02*
D03*
Y119996D02*
D03*
Y117437D02*
D03*
Y114878D02*
D03*
Y112319D02*
D03*
Y109760D02*
D03*
Y107201D02*
D03*
X166630Y62201D02*
D03*
Y64760D02*
D03*
Y67319D02*
D03*
Y69878D02*
D03*
Y72437D02*
D03*
Y74996D02*
D03*
Y77555D02*
D03*
Y80114D02*
D03*
Y82673D02*
D03*
Y85232D02*
D03*
X143496D02*
D03*
Y82673D02*
D03*
Y80114D02*
D03*
Y77555D02*
D03*
Y74996D02*
D03*
Y72437D02*
D03*
Y69878D02*
D03*
Y67319D02*
D03*
Y64760D02*
D03*
Y62201D02*
D03*
X166630Y17201D02*
D03*
Y19760D02*
D03*
Y22319D02*
D03*
Y24878D02*
D03*
Y27437D02*
D03*
Y29996D02*
D03*
Y32555D02*
D03*
Y35114D02*
D03*
Y37673D02*
D03*
Y40232D02*
D03*
X143496D02*
D03*
Y37673D02*
D03*
Y35114D02*
D03*
Y32555D02*
D03*
Y29996D02*
D03*
Y27437D02*
D03*
Y24878D02*
D03*
Y22319D02*
D03*
Y19760D02*
D03*
Y17201D02*
D03*
D21*
X36167Y45227D02*
D03*
Y39227D02*
D03*
X36177Y74247D02*
D03*
Y80247D02*
D03*
X44117Y80387D02*
D03*
Y74387D02*
D03*
X455063Y83716D02*
D03*
Y77716D02*
D03*
X465730Y83716D02*
D03*
Y77716D02*
D03*
X471285Y83716D02*
D03*
Y77716D02*
D03*
X488360Y83800D02*
D03*
Y77800D02*
D03*
X460174Y83716D02*
D03*
Y77716D02*
D03*
X491063Y70717D02*
D03*
Y64717D02*
D03*
X476841Y83716D02*
D03*
Y77716D02*
D03*
X482397Y83716D02*
D03*
Y77716D02*
D03*
X755234Y265050D02*
D03*
Y259050D02*
D03*
X771901Y265050D02*
D03*
Y259050D02*
D03*
X788427Y264847D02*
D03*
Y258847D02*
D03*
X752287Y252050D02*
D03*
Y246050D02*
D03*
X760789Y265050D02*
D03*
Y259050D02*
D03*
X766345Y265050D02*
D03*
Y259050D02*
D03*
X777456Y265050D02*
D03*
Y259050D02*
D03*
X783012Y265050D02*
D03*
Y259050D02*
D03*
X555234Y265050D02*
D03*
Y259050D02*
D03*
X571901Y265050D02*
D03*
Y259050D02*
D03*
X577456Y265050D02*
D03*
Y259050D02*
D03*
X588427Y264847D02*
D03*
Y258847D02*
D03*
X560789Y265050D02*
D03*
Y259050D02*
D03*
X566345Y265050D02*
D03*
Y259050D02*
D03*
X583012Y265050D02*
D03*
Y259050D02*
D03*
X552287Y252050D02*
D03*
Y246050D02*
D03*
X509460Y264997D02*
D03*
Y258997D02*
D03*
X525884Y264983D02*
D03*
Y258983D02*
D03*
X542551Y264983D02*
D03*
Y258983D02*
D03*
X514773Y264983D02*
D03*
Y258983D02*
D03*
X520329Y264983D02*
D03*
Y258983D02*
D03*
X531440Y264983D02*
D03*
Y258983D02*
D03*
X536995Y264983D02*
D03*
Y258983D02*
D03*
X544390Y251534D02*
D03*
Y245534D02*
D03*
X325884Y264983D02*
D03*
Y258983D02*
D03*
X342551Y264983D02*
D03*
Y258983D02*
D03*
X320329Y264983D02*
D03*
Y258983D02*
D03*
X331440Y264983D02*
D03*
Y258983D02*
D03*
X336995Y264983D02*
D03*
Y258983D02*
D03*
X344391Y251534D02*
D03*
Y245534D02*
D03*
X309460Y264997D02*
D03*
Y258997D02*
D03*
X314773Y264983D02*
D03*
Y258983D02*
D03*
X709460Y264997D02*
D03*
Y258997D02*
D03*
X714773Y264983D02*
D03*
Y258983D02*
D03*
X720329Y264983D02*
D03*
Y258983D02*
D03*
X725884Y264983D02*
D03*
Y258983D02*
D03*
X731440Y264983D02*
D03*
Y258983D02*
D03*
X736995Y264983D02*
D03*
Y258983D02*
D03*
X742551Y264983D02*
D03*
Y258983D02*
D03*
X744390Y251534D02*
D03*
Y245534D02*
D03*
X891063Y70717D02*
D03*
Y64717D02*
D03*
X887952Y83716D02*
D03*
Y77716D02*
D03*
X882397Y83716D02*
D03*
Y77716D02*
D03*
X876841Y83716D02*
D03*
Y77716D02*
D03*
X871285Y83716D02*
D03*
Y77716D02*
D03*
X865730Y83716D02*
D03*
Y77716D02*
D03*
X860174Y83716D02*
D03*
Y77716D02*
D03*
X855063Y83716D02*
D03*
Y77716D02*
D03*
X848063Y83716D02*
D03*
Y77716D02*
D03*
X841952Y83716D02*
D03*
Y77716D02*
D03*
X836397Y83716D02*
D03*
Y77716D02*
D03*
X830841Y83716D02*
D03*
Y77716D02*
D03*
X825285Y83716D02*
D03*
Y77716D02*
D03*
X819730Y83716D02*
D03*
Y77716D02*
D03*
X814174Y83716D02*
D03*
Y77716D02*
D03*
X809063Y83716D02*
D03*
Y77716D02*
D03*
X893124Y181105D02*
D03*
Y175105D02*
D03*
X887664Y181605D02*
D03*
Y175605D02*
D03*
X882205Y181605D02*
D03*
Y175605D02*
D03*
X876840Y182626D02*
D03*
Y176626D02*
D03*
X871285Y181605D02*
D03*
Y175605D02*
D03*
X865826Y181605D02*
D03*
Y175605D02*
D03*
X860366Y181605D02*
D03*
Y175605D02*
D03*
X855227Y168717D02*
D03*
Y162716D02*
D03*
X892920Y264579D02*
D03*
Y258579D02*
D03*
X887449Y264579D02*
D03*
Y258579D02*
D03*
X881977Y264579D02*
D03*
Y258579D02*
D03*
X876525Y265497D02*
D03*
Y259497D02*
D03*
X871035Y264579D02*
D03*
Y258579D02*
D03*
X865563Y264579D02*
D03*
Y258579D02*
D03*
X860092Y264579D02*
D03*
Y258579D02*
D03*
X854620Y264579D02*
D03*
Y258579D02*
D03*
X691063Y70717D02*
D03*
Y64717D02*
D03*
X687952Y83716D02*
D03*
Y77716D02*
D03*
X682397Y83716D02*
D03*
Y77716D02*
D03*
X676841Y83716D02*
D03*
Y77716D02*
D03*
X671285Y83716D02*
D03*
Y77716D02*
D03*
X665730Y83716D02*
D03*
Y77716D02*
D03*
X660174Y83716D02*
D03*
Y77716D02*
D03*
X655063Y83716D02*
D03*
Y77716D02*
D03*
X648063Y83716D02*
D03*
Y77716D02*
D03*
X641952Y83716D02*
D03*
Y77716D02*
D03*
X636397Y83716D02*
D03*
Y77716D02*
D03*
X630841Y83716D02*
D03*
Y77716D02*
D03*
X625285Y83716D02*
D03*
Y77716D02*
D03*
X619730Y83716D02*
D03*
Y77716D02*
D03*
X614174Y83716D02*
D03*
Y77716D02*
D03*
X609063Y83716D02*
D03*
Y77716D02*
D03*
X693124Y181105D02*
D03*
Y175105D02*
D03*
X687664Y181605D02*
D03*
Y175605D02*
D03*
X682205Y181605D02*
D03*
Y175605D02*
D03*
X676840Y182626D02*
D03*
Y176626D02*
D03*
X671285Y181605D02*
D03*
Y175605D02*
D03*
X665826Y181605D02*
D03*
Y175605D02*
D03*
X660366Y181605D02*
D03*
Y175605D02*
D03*
X655227Y168717D02*
D03*
Y162716D02*
D03*
X692920Y264579D02*
D03*
Y258579D02*
D03*
X687449Y264579D02*
D03*
Y258579D02*
D03*
X681977Y264579D02*
D03*
Y258579D02*
D03*
X676525Y265497D02*
D03*
Y259497D02*
D03*
X671034Y264579D02*
D03*
Y258579D02*
D03*
X665563Y264579D02*
D03*
Y258579D02*
D03*
X660092Y264579D02*
D03*
Y258579D02*
D03*
X654620Y264579D02*
D03*
Y258579D02*
D03*
X448063Y83716D02*
D03*
Y77716D02*
D03*
X441952Y83716D02*
D03*
Y77716D02*
D03*
X436397Y83716D02*
D03*
Y77716D02*
D03*
X430841Y83716D02*
D03*
Y77716D02*
D03*
X425285Y83716D02*
D03*
Y77716D02*
D03*
X419730Y83716D02*
D03*
Y77716D02*
D03*
X414174Y83716D02*
D03*
Y77716D02*
D03*
X409063Y83716D02*
D03*
Y77716D02*
D03*
X493124Y181105D02*
D03*
Y175105D02*
D03*
X487664Y181605D02*
D03*
Y175605D02*
D03*
X482205Y181605D02*
D03*
Y175605D02*
D03*
X476840Y182626D02*
D03*
Y176626D02*
D03*
X471285Y181605D02*
D03*
Y175605D02*
D03*
X465826Y181605D02*
D03*
Y175605D02*
D03*
X460366Y181605D02*
D03*
Y175605D02*
D03*
X455227Y168717D02*
D03*
Y162716D02*
D03*
X492920Y264579D02*
D03*
Y258579D02*
D03*
X487449Y264579D02*
D03*
Y258579D02*
D03*
X481977Y264579D02*
D03*
Y258579D02*
D03*
X476525Y265497D02*
D03*
Y259497D02*
D03*
X471034Y264579D02*
D03*
Y258579D02*
D03*
X465563Y264579D02*
D03*
Y258579D02*
D03*
X460092Y264579D02*
D03*
Y258579D02*
D03*
X454620Y264579D02*
D03*
Y258579D02*
D03*
X388427Y264847D02*
D03*
Y258847D02*
D03*
X383012Y265050D02*
D03*
Y259050D02*
D03*
X377456Y265050D02*
D03*
Y259050D02*
D03*
X371901Y265050D02*
D03*
Y259050D02*
D03*
X366345Y265050D02*
D03*
Y259050D02*
D03*
X360789Y265050D02*
D03*
Y259050D02*
D03*
X355234Y265050D02*
D03*
Y259050D02*
D03*
X352287Y252050D02*
D03*
Y246050D02*
D03*
X276525Y265497D02*
D03*
Y259497D02*
D03*
X293124Y181105D02*
D03*
Y175105D02*
D03*
X287664Y181605D02*
D03*
Y175605D02*
D03*
X282205Y181605D02*
D03*
Y175605D02*
D03*
X276840Y182626D02*
D03*
Y176626D02*
D03*
X271285Y181605D02*
D03*
Y175605D02*
D03*
X265826Y181605D02*
D03*
Y175605D02*
D03*
X260366Y181605D02*
D03*
Y175605D02*
D03*
X255227Y168717D02*
D03*
Y162716D02*
D03*
X188427Y258847D02*
D03*
Y264847D02*
D03*
X292920Y258579D02*
D03*
Y264579D02*
D03*
X183012Y259050D02*
D03*
Y265050D02*
D03*
X287449Y258579D02*
D03*
Y264579D02*
D03*
X177456Y259050D02*
D03*
Y265050D02*
D03*
X281977Y258579D02*
D03*
Y264579D02*
D03*
X171900Y259050D02*
D03*
Y265050D02*
D03*
X166345Y259050D02*
D03*
Y265050D02*
D03*
X271035Y258579D02*
D03*
Y264579D02*
D03*
X160789Y259050D02*
D03*
Y265050D02*
D03*
X265563Y258579D02*
D03*
Y264579D02*
D03*
X155234Y259050D02*
D03*
Y265050D02*
D03*
X260092Y258579D02*
D03*
Y264579D02*
D03*
X152287Y246050D02*
D03*
Y252050D02*
D03*
X254620Y258579D02*
D03*
Y264579D02*
D03*
X248063Y77716D02*
D03*
Y83716D02*
D03*
X291063Y64717D02*
D03*
Y70717D02*
D03*
X241952Y77716D02*
D03*
Y83716D02*
D03*
X287952Y77716D02*
D03*
Y83716D02*
D03*
X236397Y77716D02*
D03*
Y83716D02*
D03*
X282397Y77716D02*
D03*
Y83716D02*
D03*
X230841Y77716D02*
D03*
Y83716D02*
D03*
X276841Y77716D02*
D03*
Y83716D02*
D03*
X225285Y77716D02*
D03*
Y83716D02*
D03*
X271285Y77716D02*
D03*
Y83716D02*
D03*
X219730Y77716D02*
D03*
Y83716D02*
D03*
X265730Y77716D02*
D03*
Y83716D02*
D03*
X214174Y77716D02*
D03*
Y83716D02*
D03*
X260174Y77716D02*
D03*
Y83716D02*
D03*
X209063Y77716D02*
D03*
Y83716D02*
D03*
X255063Y77716D02*
D03*
Y83716D02*
D03*
X144390Y245534D02*
D03*
Y251534D02*
D03*
X142551Y258983D02*
D03*
Y264983D02*
D03*
X136995Y258983D02*
D03*
Y264983D02*
D03*
X131440Y258983D02*
D03*
Y264983D02*
D03*
X125884Y258983D02*
D03*
Y264983D02*
D03*
X120329Y258983D02*
D03*
Y264983D02*
D03*
X114773Y258983D02*
D03*
Y264983D02*
D03*
X109460Y258997D02*
D03*
Y264997D02*
D03*
X158383Y413187D02*
D03*
X164383D02*
D03*
X172483D02*
D03*
X182183D02*
D03*
X197683D02*
D03*
X203083D02*
D03*
X358493Y412926D02*
D03*
X364493D02*
D03*
X372593D02*
D03*
X382293D02*
D03*
X397793D02*
D03*
X403193D02*
D03*
X758483Y413286D02*
D03*
X764483D02*
D03*
X772583D02*
D03*
X782283D02*
D03*
X797783D02*
D03*
X803183D02*
D03*
X558183Y413272D02*
D03*
X564183D02*
D03*
X572283D02*
D03*
X581983D02*
D03*
X597483D02*
D03*
X602883D02*
D03*
X358493Y406926D02*
D03*
X364493D02*
D03*
X372593D02*
D03*
X382293D02*
D03*
X389693Y413127D02*
D03*
Y407127D02*
D03*
X397793Y406926D02*
D03*
X403193D02*
D03*
X189583Y407386D02*
D03*
Y413386D02*
D03*
X589383Y407472D02*
D03*
Y413472D02*
D03*
X758483Y407287D02*
D03*
X782283D02*
D03*
X789683Y407486D02*
D03*
Y413486D02*
D03*
X797783Y407287D02*
D03*
X764483D02*
D03*
X772583D02*
D03*
X803183D02*
D03*
X602883Y407271D02*
D03*
X597483D02*
D03*
X581983D02*
D03*
X572283D02*
D03*
X564183D02*
D03*
X558183D02*
D03*
X203083Y407187D02*
D03*
X197683D02*
D03*
X182183D02*
D03*
X172483D02*
D03*
X164383D02*
D03*
X158383D02*
D03*
D22*
X39757Y56226D02*
D03*
Y66068D02*
D03*
X43497Y56226D02*
D03*
X36016D02*
D03*
Y66068D02*
D03*
X43497D02*
D03*
D23*
X36825Y151146D02*
D03*
X13203D02*
D03*
X10313Y230327D02*
D03*
X33935D02*
D03*
D24*
X68864Y257435D02*
D03*
Y281058D02*
D03*
D25*
X57413Y377031D02*
D03*
D26*
X16961Y367032D02*
D03*
Y387032D02*
D03*
D27*
X38282Y110795D02*
D03*
Y105283D02*
D03*
X55234Y253412D02*
D03*
Y247901D02*
D03*
X47424Y225071D02*
D03*
Y230582D02*
D03*
X457227Y13961D02*
D03*
Y19472D02*
D03*
Y52472D02*
D03*
Y46961D02*
D03*
X457063Y71472D02*
D03*
Y65961D02*
D03*
X491063Y12961D02*
D03*
Y18472D02*
D03*
Y52472D02*
D03*
Y46961D02*
D03*
X493507Y83472D02*
D03*
Y77961D02*
D03*
X787063Y252472D02*
D03*
Y246961D02*
D03*
X752287Y195294D02*
D03*
Y200806D02*
D03*
X750123Y264806D02*
D03*
Y259295D02*
D03*
X786123Y194295D02*
D03*
Y199806D02*
D03*
X752287Y233881D02*
D03*
Y228369D02*
D03*
X786123Y233806D02*
D03*
Y228294D02*
D03*
X586123Y194295D02*
D03*
Y199806D02*
D03*
Y233806D02*
D03*
Y228294D02*
D03*
X587063Y252472D02*
D03*
Y246961D02*
D03*
X552287Y195294D02*
D03*
Y200806D02*
D03*
Y233881D02*
D03*
Y228369D02*
D03*
X550123Y264806D02*
D03*
Y259295D02*
D03*
X511227Y194960D02*
D03*
Y200472D02*
D03*
X511063Y227472D02*
D03*
Y221961D02*
D03*
Y234961D02*
D03*
Y240472D02*
D03*
Y245961D02*
D03*
Y251472D02*
D03*
X544456Y194984D02*
D03*
Y200496D02*
D03*
X545063Y233472D02*
D03*
Y227961D02*
D03*
X345063Y233472D02*
D03*
Y227961D02*
D03*
X344456Y194984D02*
D03*
Y200496D02*
D03*
X311227Y194960D02*
D03*
Y200472D02*
D03*
X311063Y234961D02*
D03*
Y240472D02*
D03*
Y245961D02*
D03*
Y251472D02*
D03*
Y227472D02*
D03*
Y221961D02*
D03*
X711227Y194960D02*
D03*
Y200472D02*
D03*
X745063Y233472D02*
D03*
Y227961D02*
D03*
X711063Y245961D02*
D03*
Y251472D02*
D03*
Y227472D02*
D03*
Y221961D02*
D03*
Y234961D02*
D03*
Y240472D02*
D03*
X744456Y194984D02*
D03*
Y200496D02*
D03*
X857227Y52472D02*
D03*
Y46961D02*
D03*
X893508Y83472D02*
D03*
Y77961D02*
D03*
X891063Y12961D02*
D03*
Y18472D02*
D03*
Y52472D02*
D03*
Y46961D02*
D03*
X857063Y71472D02*
D03*
Y65961D02*
D03*
X857227Y13961D02*
D03*
Y19472D02*
D03*
X811227Y52472D02*
D03*
Y46961D02*
D03*
X845063Y69472D02*
D03*
Y63961D02*
D03*
Y12961D02*
D03*
Y18472D02*
D03*
Y52472D02*
D03*
Y46961D02*
D03*
X811063Y64961D02*
D03*
Y70472D02*
D03*
X811227Y13961D02*
D03*
Y19472D02*
D03*
X855227Y150472D02*
D03*
Y144960D02*
D03*
X889508Y168472D02*
D03*
Y162961D02*
D03*
X889063Y110960D02*
D03*
Y116472D02*
D03*
Y150472D02*
D03*
Y144960D02*
D03*
X854906Y181361D02*
D03*
Y175849D02*
D03*
X855227Y111960D02*
D03*
Y117472D02*
D03*
Y232472D02*
D03*
Y226961D02*
D03*
X889367Y250444D02*
D03*
Y244932D02*
D03*
X889063Y193960D02*
D03*
Y199472D02*
D03*
Y233472D02*
D03*
Y227961D02*
D03*
X856089Y252472D02*
D03*
Y246961D02*
D03*
X855227Y194960D02*
D03*
Y200472D02*
D03*
X657227Y52472D02*
D03*
Y46961D02*
D03*
X693507Y83472D02*
D03*
Y77961D02*
D03*
X691063Y12961D02*
D03*
Y18472D02*
D03*
Y52472D02*
D03*
Y46961D02*
D03*
X657063Y71472D02*
D03*
Y65961D02*
D03*
X657227Y13961D02*
D03*
Y19472D02*
D03*
X611227Y52472D02*
D03*
Y46961D02*
D03*
X645063Y69472D02*
D03*
Y63961D02*
D03*
Y12961D02*
D03*
Y18472D02*
D03*
Y52472D02*
D03*
Y46961D02*
D03*
X611063Y64961D02*
D03*
Y70472D02*
D03*
X611227Y13961D02*
D03*
Y19472D02*
D03*
X655227Y150472D02*
D03*
Y144960D02*
D03*
X689507Y168472D02*
D03*
Y162961D02*
D03*
X689063Y110960D02*
D03*
Y116472D02*
D03*
Y150472D02*
D03*
Y144960D02*
D03*
X654906Y181361D02*
D03*
Y175849D02*
D03*
X655227Y111960D02*
D03*
Y117472D02*
D03*
Y232472D02*
D03*
Y226961D02*
D03*
X689120Y251819D02*
D03*
Y246307D02*
D03*
X689063Y193960D02*
D03*
Y199472D02*
D03*
Y233472D02*
D03*
Y227961D02*
D03*
X656089Y252472D02*
D03*
Y246961D02*
D03*
X655227Y194960D02*
D03*
Y200472D02*
D03*
X411227Y52472D02*
D03*
Y46961D02*
D03*
X445063Y69472D02*
D03*
Y63961D02*
D03*
Y12961D02*
D03*
Y18472D02*
D03*
Y52472D02*
D03*
Y46961D02*
D03*
X411063Y64961D02*
D03*
Y70472D02*
D03*
X411227Y13961D02*
D03*
Y19472D02*
D03*
X455227Y150472D02*
D03*
Y144960D02*
D03*
X489507Y168472D02*
D03*
Y162961D02*
D03*
X489063Y110960D02*
D03*
Y116472D02*
D03*
Y150472D02*
D03*
Y144960D02*
D03*
X454906Y181361D02*
D03*
Y175849D02*
D03*
X455227Y111960D02*
D03*
Y117472D02*
D03*
Y232472D02*
D03*
Y226961D02*
D03*
X489063Y249910D02*
D03*
Y244398D02*
D03*
Y193960D02*
D03*
Y199472D02*
D03*
Y233472D02*
D03*
Y227961D02*
D03*
X456089Y252472D02*
D03*
Y246961D02*
D03*
X455227Y194960D02*
D03*
Y200472D02*
D03*
X352287Y233881D02*
D03*
Y228369D02*
D03*
X387063Y252472D02*
D03*
Y246961D02*
D03*
X386123Y194295D02*
D03*
Y199806D02*
D03*
Y233806D02*
D03*
Y228294D02*
D03*
X350123Y264806D02*
D03*
Y259295D02*
D03*
X352287Y195294D02*
D03*
Y200806D02*
D03*
X254906Y175849D02*
D03*
Y181361D02*
D03*
X257227Y52472D02*
D03*
Y46961D02*
D03*
X211227Y52472D02*
D03*
Y46961D02*
D03*
X255227Y150472D02*
D03*
Y144960D02*
D03*
X289508Y168472D02*
D03*
Y162961D02*
D03*
X289063Y110960D02*
D03*
Y116472D02*
D03*
Y150472D02*
D03*
Y144960D02*
D03*
X255227Y111960D02*
D03*
Y117472D02*
D03*
Y232472D02*
D03*
Y226961D02*
D03*
X186123Y194295D02*
D03*
Y199806D02*
D03*
X289063Y193960D02*
D03*
Y199472D02*
D03*
X187063Y246961D02*
D03*
Y252472D02*
D03*
X289063Y244213D02*
D03*
Y249725D02*
D03*
X152287Y228369D02*
D03*
Y233881D02*
D03*
X150123Y259295D02*
D03*
Y264806D02*
D03*
X256089Y246961D02*
D03*
Y252472D02*
D03*
X186123Y228294D02*
D03*
Y233806D02*
D03*
X289063Y227961D02*
D03*
Y233472D02*
D03*
X152287Y195294D02*
D03*
Y200806D02*
D03*
X255227Y194960D02*
D03*
Y200472D02*
D03*
X245063Y12961D02*
D03*
Y18472D02*
D03*
X291063Y12961D02*
D03*
Y18472D02*
D03*
X245063Y69472D02*
D03*
Y63961D02*
D03*
X293508Y83472D02*
D03*
Y77961D02*
D03*
X211063Y64961D02*
D03*
Y70472D02*
D03*
X257063Y71472D02*
D03*
Y65961D02*
D03*
X245063Y52472D02*
D03*
Y46961D02*
D03*
X291063Y52472D02*
D03*
Y46961D02*
D03*
X211227Y13961D02*
D03*
Y19472D02*
D03*
X257227Y13961D02*
D03*
Y19472D02*
D03*
X144456Y194984D02*
D03*
Y200496D02*
D03*
X111227Y194960D02*
D03*
Y200472D02*
D03*
X111063Y240472D02*
D03*
Y234961D02*
D03*
Y221961D02*
D03*
Y227472D02*
D03*
Y251472D02*
D03*
Y245961D02*
D03*
X145063Y227961D02*
D03*
Y233472D02*
D03*
D28*
X65054Y231006D02*
D03*
X64594Y205023D02*
D03*
X64644Y187684D02*
D03*
D29*
X65054Y243683D02*
D03*
X64594Y217700D02*
D03*
X64644Y175006D02*
D03*
D30*
X57186Y107243D02*
D03*
X46162D02*
D03*
D31*
X19032Y124803D02*
D03*
X13032D02*
D03*
X19002Y119213D02*
D03*
X13002D02*
D03*
X19002Y113702D02*
D03*
X13002D02*
D03*
X29577Y123555D02*
D03*
X23577D02*
D03*
X7298Y252727D02*
D03*
X13298D02*
D03*
X33278Y258281D02*
D03*
X39278D02*
D03*
X23577Y128673D02*
D03*
X29577D02*
D03*
X13298Y263834D02*
D03*
X7298D02*
D03*
Y258281D02*
D03*
X13298D02*
D03*
X7298Y247174D02*
D03*
X13298D02*
D03*
X780063Y9717D02*
D03*
X774063D02*
D03*
X780063Y14828D02*
D03*
X774063D02*
D03*
X780063Y20383D02*
D03*
X774063D02*
D03*
X780063Y25939D02*
D03*
X774063D02*
D03*
X780063Y31494D02*
D03*
X774063D02*
D03*
X780063Y37050D02*
D03*
X774063D02*
D03*
X780063Y42605D02*
D03*
X774063D02*
D03*
X780063Y47717D02*
D03*
X774063D02*
D03*
X780115Y53239D02*
D03*
X774115D02*
D03*
X780063Y59828D02*
D03*
X774063D02*
D03*
X780063Y65383D02*
D03*
X774063D02*
D03*
X780063Y70939D02*
D03*
X774063D02*
D03*
X780063Y76494D02*
D03*
X774063D02*
D03*
X780063Y82050D02*
D03*
X774063D02*
D03*
X780063Y87605D02*
D03*
X774063D02*
D03*
X780063Y92716D02*
D03*
X774063D02*
D03*
X779983Y99206D02*
D03*
X773983D02*
D03*
X780063Y104828D02*
D03*
X774063D02*
D03*
X780063Y110383D02*
D03*
X774063D02*
D03*
X780063Y115939D02*
D03*
X774063D02*
D03*
X780063Y121494D02*
D03*
X774063D02*
D03*
X780063Y127050D02*
D03*
X774063D02*
D03*
X780063Y132605D02*
D03*
X774063D02*
D03*
X780337Y138075D02*
D03*
X774337D02*
D03*
X780063Y144717D02*
D03*
X774063D02*
D03*
X780063Y150828D02*
D03*
X774063D02*
D03*
X780063Y156383D02*
D03*
X774063D02*
D03*
X780063Y161939D02*
D03*
X774063D02*
D03*
X780063Y167494D02*
D03*
X774063D02*
D03*
X780063Y173050D02*
D03*
X774063D02*
D03*
X780063Y178605D02*
D03*
X774063D02*
D03*
X780063Y183716D02*
D03*
X774063D02*
D03*
X580063Y9717D02*
D03*
X574063D02*
D03*
X580063Y14828D02*
D03*
X574063D02*
D03*
X580063Y20383D02*
D03*
X574063D02*
D03*
X580063Y25939D02*
D03*
X574063D02*
D03*
X580063Y31494D02*
D03*
X574063D02*
D03*
X580063Y37050D02*
D03*
X574063D02*
D03*
X580063Y42605D02*
D03*
X574063D02*
D03*
X580063Y47717D02*
D03*
X574063D02*
D03*
X580115Y53239D02*
D03*
X574115D02*
D03*
X580063Y59828D02*
D03*
X574063D02*
D03*
X580063Y65383D02*
D03*
X574063D02*
D03*
X580063Y70939D02*
D03*
X574063D02*
D03*
X580063Y76494D02*
D03*
X574063D02*
D03*
X580063Y82050D02*
D03*
X574063D02*
D03*
X580063Y87605D02*
D03*
X574063D02*
D03*
X580063Y92716D02*
D03*
X574063D02*
D03*
X579983Y99206D02*
D03*
X573983D02*
D03*
X580063Y104828D02*
D03*
X574063D02*
D03*
X580063Y110383D02*
D03*
X574063D02*
D03*
X580063Y115939D02*
D03*
X574063D02*
D03*
X580063Y121494D02*
D03*
X574063D02*
D03*
X580063Y127050D02*
D03*
X574063D02*
D03*
X580063Y132605D02*
D03*
X574063D02*
D03*
X580337Y138075D02*
D03*
X574337D02*
D03*
X580063Y144717D02*
D03*
X574063D02*
D03*
X580063Y150828D02*
D03*
X574063D02*
D03*
X580063Y156383D02*
D03*
X574063D02*
D03*
X580063Y161939D02*
D03*
X574063D02*
D03*
X580063Y167494D02*
D03*
X574063D02*
D03*
X580063Y173050D02*
D03*
X574063D02*
D03*
X580063Y178605D02*
D03*
X574063D02*
D03*
X580063Y183716D02*
D03*
X574063D02*
D03*
X380063Y9717D02*
D03*
X374063D02*
D03*
X380063Y14828D02*
D03*
X374063D02*
D03*
X380063Y20383D02*
D03*
X374063D02*
D03*
X380063Y25939D02*
D03*
X374063D02*
D03*
X380063Y31494D02*
D03*
X374063D02*
D03*
X380063Y37050D02*
D03*
X374063D02*
D03*
X380063Y42605D02*
D03*
X374063D02*
D03*
X380063Y47717D02*
D03*
X374063D02*
D03*
X380115Y53239D02*
D03*
X374115D02*
D03*
X380063Y59828D02*
D03*
X374063D02*
D03*
X380063Y65383D02*
D03*
X374063D02*
D03*
X380063Y70939D02*
D03*
X374063D02*
D03*
X380063Y76494D02*
D03*
X374063D02*
D03*
X380063Y82050D02*
D03*
X374063D02*
D03*
X380063Y87605D02*
D03*
X374063D02*
D03*
X380063Y92716D02*
D03*
X374063D02*
D03*
X379983Y99206D02*
D03*
X373983D02*
D03*
X380063Y104828D02*
D03*
X374063D02*
D03*
X380063Y110383D02*
D03*
X374063D02*
D03*
X380063Y115939D02*
D03*
X374063D02*
D03*
X380063Y121494D02*
D03*
X374063D02*
D03*
X380063Y127050D02*
D03*
X374063D02*
D03*
X380063Y132605D02*
D03*
X374063D02*
D03*
X380337Y138075D02*
D03*
X374337D02*
D03*
X380063Y144717D02*
D03*
X374063D02*
D03*
X380063Y150828D02*
D03*
X374063D02*
D03*
X380063Y156383D02*
D03*
X374063D02*
D03*
X380063Y161939D02*
D03*
X374063D02*
D03*
X380063Y167494D02*
D03*
X374063D02*
D03*
X380063Y173050D02*
D03*
X374063D02*
D03*
X380063Y178605D02*
D03*
X374063D02*
D03*
X380063Y183716D02*
D03*
X374063D02*
D03*
X180063Y92716D02*
D03*
X174063D02*
D03*
X180063Y144717D02*
D03*
X174063D02*
D03*
X180063Y150828D02*
D03*
X174063D02*
D03*
X180063Y156383D02*
D03*
X174063D02*
D03*
X180063Y161939D02*
D03*
X174063D02*
D03*
X180063Y167494D02*
D03*
X174063D02*
D03*
X180063Y173050D02*
D03*
X174063D02*
D03*
X180063Y178605D02*
D03*
X174063D02*
D03*
X180063Y183716D02*
D03*
X174063D02*
D03*
X173983Y99206D02*
D03*
X179983D02*
D03*
X174115Y53239D02*
D03*
X180115D02*
D03*
X174063Y9717D02*
D03*
X180063D02*
D03*
X174063Y104828D02*
D03*
X180063D02*
D03*
X174063Y59828D02*
D03*
X180063D02*
D03*
X174063Y14828D02*
D03*
X180063D02*
D03*
X174063Y110383D02*
D03*
X180063D02*
D03*
X174063Y65383D02*
D03*
X180063D02*
D03*
X174063Y20383D02*
D03*
X180063D02*
D03*
X174063Y115939D02*
D03*
X180063D02*
D03*
X174063Y70939D02*
D03*
X180063D02*
D03*
X174063Y25939D02*
D03*
X180063D02*
D03*
X174063Y121494D02*
D03*
X180063D02*
D03*
X174063Y76494D02*
D03*
X180063D02*
D03*
X174063Y31494D02*
D03*
X180063D02*
D03*
X174063Y127050D02*
D03*
X180063D02*
D03*
X174063Y82050D02*
D03*
X180063D02*
D03*
X174063Y37050D02*
D03*
X180063D02*
D03*
X174063Y132605D02*
D03*
X180063D02*
D03*
X174063Y87605D02*
D03*
X180063D02*
D03*
X174063Y42605D02*
D03*
X180063D02*
D03*
X174337Y138075D02*
D03*
X180337D02*
D03*
X174063Y47717D02*
D03*
X180063D02*
D03*
X124759Y393040D02*
D03*
X130760D02*
D03*
X324063Y392717D02*
D03*
X330063D02*
D03*
X523901Y393162D02*
D03*
X529901D02*
D03*
X724063Y392717D02*
D03*
X730063D02*
D03*
X244583Y361586D02*
D03*
X244483Y331287D02*
D03*
X444693Y361327D02*
D03*
X444593Y331027D02*
D03*
X844683Y361686D02*
D03*
X844583Y331386D02*
D03*
X644383Y361671D02*
D03*
X644283Y331371D02*
D03*
X438693Y361327D02*
D03*
X438593Y331027D02*
D03*
X838583Y331386D02*
D03*
X838683Y361686D02*
D03*
X638283Y331371D02*
D03*
X638383Y361671D02*
D03*
X238483Y331287D02*
D03*
X238583Y361586D02*
D03*
D32*
X18758Y108165D02*
D03*
X13246D02*
D03*
X69314Y295647D02*
D03*
X74826D02*
D03*
X49712Y150707D02*
D03*
X55224D02*
D03*
X66230Y336706D02*
D03*
X60718D02*
D03*
X58608Y295827D02*
D03*
X64120D02*
D03*
X33522Y263834D02*
D03*
X39034D02*
D03*
X32078Y105783D02*
D03*
X26566D02*
D03*
X748819Y45553D02*
D03*
X743307D02*
D03*
X766819Y11716D02*
D03*
X761307D02*
D03*
X709307D02*
D03*
X714819D02*
D03*
X748819D02*
D03*
X743307D02*
D03*
X766929Y48819D02*
D03*
X761417D02*
D03*
X710307Y45553D02*
D03*
X715819D02*
D03*
X748819Y90553D02*
D03*
X743307D02*
D03*
X767819Y56717D02*
D03*
X762307D02*
D03*
X709307D02*
D03*
X714819D02*
D03*
X748819D02*
D03*
X743307D02*
D03*
X766929Y93701D02*
D03*
X761417D02*
D03*
X710307Y90553D02*
D03*
X715819D02*
D03*
X748819Y135553D02*
D03*
X743307D02*
D03*
X767512Y101535D02*
D03*
X762000D02*
D03*
X709307Y101716D02*
D03*
X714819D02*
D03*
X748819D02*
D03*
X743307D02*
D03*
X767440Y136048D02*
D03*
X761928D02*
D03*
X710307Y135553D02*
D03*
X715819D02*
D03*
X748894Y181553D02*
D03*
X743382D02*
D03*
X766819Y147716D02*
D03*
X761307D02*
D03*
X709307D02*
D03*
X714819D02*
D03*
X748819D02*
D03*
X743307D02*
D03*
X767819Y181717D02*
D03*
X762307D02*
D03*
X710307Y181553D02*
D03*
X715819D02*
D03*
X548819Y45553D02*
D03*
X543307D02*
D03*
X566819Y11716D02*
D03*
X561307D02*
D03*
X509307D02*
D03*
X514819D02*
D03*
X548819D02*
D03*
X543307D02*
D03*
X566929Y48819D02*
D03*
X561417D02*
D03*
X510307Y45553D02*
D03*
X515819D02*
D03*
X548819Y90553D02*
D03*
X543307D02*
D03*
X567819Y56717D02*
D03*
X562307D02*
D03*
X509307D02*
D03*
X514819D02*
D03*
X548819D02*
D03*
X543307D02*
D03*
X566929Y93701D02*
D03*
X561417D02*
D03*
X510307Y90553D02*
D03*
X515819D02*
D03*
X548819Y135553D02*
D03*
X543307D02*
D03*
X567512Y101535D02*
D03*
X562000D02*
D03*
X509307Y101716D02*
D03*
X514819D02*
D03*
X548819D02*
D03*
X543307D02*
D03*
X567440Y136048D02*
D03*
X561928D02*
D03*
X510307Y135553D02*
D03*
X515819D02*
D03*
X548894Y181553D02*
D03*
X543382D02*
D03*
X566819Y147716D02*
D03*
X561307D02*
D03*
X509307D02*
D03*
X514819D02*
D03*
X548819D02*
D03*
X543307D02*
D03*
X567819Y181717D02*
D03*
X562307D02*
D03*
X510307Y181553D02*
D03*
X515819D02*
D03*
X348819Y45553D02*
D03*
X343307D02*
D03*
X366819Y11716D02*
D03*
X361307D02*
D03*
X309307D02*
D03*
X314819D02*
D03*
X348819D02*
D03*
X343307D02*
D03*
X366929Y48819D02*
D03*
X361417D02*
D03*
X310307Y45553D02*
D03*
X315819D02*
D03*
X348819Y90553D02*
D03*
X343307D02*
D03*
X367819Y56717D02*
D03*
X362307D02*
D03*
X309307D02*
D03*
X314819D02*
D03*
X348819D02*
D03*
X343307D02*
D03*
X366929Y93701D02*
D03*
X361417D02*
D03*
X310307Y90553D02*
D03*
X315819D02*
D03*
X348819Y135553D02*
D03*
X343307D02*
D03*
X367512Y101535D02*
D03*
X362000D02*
D03*
X309307Y101716D02*
D03*
X314819D02*
D03*
X348819D02*
D03*
X343307D02*
D03*
X367440Y136048D02*
D03*
X361928D02*
D03*
X310307Y135553D02*
D03*
X315819D02*
D03*
X348894Y181553D02*
D03*
X343382D02*
D03*
X366819Y147716D02*
D03*
X361307D02*
D03*
X309307D02*
D03*
X314819D02*
D03*
X348819D02*
D03*
X343307D02*
D03*
X367819Y181717D02*
D03*
X362307D02*
D03*
X310307Y181553D02*
D03*
X315819D02*
D03*
X143307Y90553D02*
D03*
X148819D02*
D03*
X143307Y56717D02*
D03*
X148819D02*
D03*
Y45553D02*
D03*
X143307D02*
D03*
X148819Y135553D02*
D03*
X143307D02*
D03*
X114819Y147716D02*
D03*
X109307D02*
D03*
X166819D02*
D03*
X161307D02*
D03*
X148894Y181553D02*
D03*
X143382D02*
D03*
X167819Y181717D02*
D03*
X162307D02*
D03*
X148819Y147716D02*
D03*
X143307D02*
D03*
X115819Y181553D02*
D03*
X110307D02*
D03*
X109307Y101716D02*
D03*
X114819D02*
D03*
X109307Y56717D02*
D03*
X114819D02*
D03*
X109307Y11716D02*
D03*
X114819D02*
D03*
X167512Y101535D02*
D03*
X162000D02*
D03*
X167819Y56717D02*
D03*
X162307D02*
D03*
X166819Y11716D02*
D03*
X161307D02*
D03*
X167439Y136048D02*
D03*
X161928D02*
D03*
X166929Y93701D02*
D03*
X161417D02*
D03*
X166929Y48819D02*
D03*
X161417D02*
D03*
X148819Y101716D02*
D03*
X143307D02*
D03*
X148819Y11716D02*
D03*
X143307D02*
D03*
X110307Y135553D02*
D03*
X115819D02*
D03*
X110307Y90553D02*
D03*
X115819D02*
D03*
X110307Y45553D02*
D03*
X115819D02*
D03*
D33*
X87227Y384116D02*
D03*
X89786D02*
D03*
X92345D02*
D03*
X94904D02*
D03*
X97463D02*
D03*
X100022D02*
D03*
X102581Y411581D02*
D03*
X100022D02*
D03*
X97463D02*
D03*
X94904D02*
D03*
X92345D02*
D03*
X89786D02*
D03*
X105140D02*
D03*
Y384116D02*
D03*
X87227Y411581D02*
D03*
X102581Y384116D02*
D03*
D34*
X39166Y252918D02*
D03*
X32867D02*
D03*
X322173Y318417D02*
D03*
X328473D02*
D03*
X322173Y324346D02*
D03*
X328473D02*
D03*
X728463Y318776D02*
D03*
X722163D02*
D03*
X728463Y324707D02*
D03*
X722163D02*
D03*
X528163Y318761D02*
D03*
X521863D02*
D03*
X528163Y324692D02*
D03*
X521863D02*
D03*
X128363Y318676D02*
D03*
X122063D02*
D03*
X128363Y324606D02*
D03*
X122063D02*
D03*
D35*
X25034Y258294D02*
D03*
X22278D02*
D03*
Y252979D02*
D03*
X25034D02*
D03*
D36*
X19129Y258589D02*
D03*
Y256621D02*
D03*
Y254652D02*
D03*
Y252684D02*
D03*
X28184D02*
D03*
Y254652D02*
D03*
Y256621D02*
D03*
Y258589D02*
D03*
D37*
X26324Y114386D02*
D03*
Y116355D02*
D03*
Y118323D02*
D03*
X32922D02*
D03*
Y116355D02*
D03*
Y114386D02*
D03*
Y112418D02*
D03*
X26324D02*
D03*
D38*
X127083Y386087D02*
D03*
X134957D02*
D03*
X327193Y385826D02*
D03*
X335067D02*
D03*
X526883Y386172D02*
D03*
X534757D02*
D03*
X727183Y386187D02*
D03*
X735057D02*
D03*
D39*
X542934Y383176D02*
D03*
Y377271D02*
D03*
Y320184D02*
D03*
Y318216D02*
D03*
X627485Y383176D02*
D03*
X143134Y383091D02*
D03*
Y377186D02*
D03*
Y320099D02*
D03*
Y318131D02*
D03*
X227685Y383091D02*
D03*
X343244Y382831D02*
D03*
Y376926D02*
D03*
Y319839D02*
D03*
Y317871D02*
D03*
X427795Y382831D02*
D03*
X743234Y383191D02*
D03*
Y377286D02*
D03*
Y320199D02*
D03*
Y318231D02*
D03*
X827785Y383191D02*
D03*
X542934Y385145D02*
D03*
Y316247D02*
D03*
X627485D02*
D03*
Y385145D02*
D03*
X143134Y369312D02*
D03*
Y341753D02*
D03*
Y326005D02*
D03*
X227685Y333879D02*
D03*
Y357501D02*
D03*
Y375217D02*
D03*
X343244Y369052D02*
D03*
Y341493D02*
D03*
Y325745D02*
D03*
X427795Y333619D02*
D03*
Y357241D02*
D03*
Y374957D02*
D03*
X743234Y369412D02*
D03*
Y341853D02*
D03*
Y326105D02*
D03*
X827785Y333979D02*
D03*
Y357601D02*
D03*
Y375317D02*
D03*
X542934Y369397D02*
D03*
Y341838D02*
D03*
Y326090D02*
D03*
X627485Y333964D02*
D03*
Y357586D02*
D03*
Y375302D02*
D03*
X143134Y385060D02*
D03*
Y316162D02*
D03*
X227685D02*
D03*
Y385060D02*
D03*
X343244Y384800D02*
D03*
Y315902D02*
D03*
X427795D02*
D03*
Y384800D02*
D03*
X743234Y385160D02*
D03*
Y316262D02*
D03*
X827785D02*
D03*
Y385160D02*
D03*
X227685Y381123D02*
D03*
Y379154D02*
D03*
Y373249D02*
D03*
Y371280D02*
D03*
Y369312D02*
D03*
Y367343D02*
D03*
Y365375D02*
D03*
Y361438D02*
D03*
Y355532D02*
D03*
Y353564D02*
D03*
Y351595D02*
D03*
Y349627D02*
D03*
Y347658D02*
D03*
Y345690D02*
D03*
Y343721D02*
D03*
Y341753D02*
D03*
Y339784D02*
D03*
Y337816D02*
D03*
Y331910D02*
D03*
Y327973D02*
D03*
Y326005D02*
D03*
Y324036D02*
D03*
Y322068D02*
D03*
Y320099D02*
D03*
Y318131D02*
D03*
X143134Y322068D02*
D03*
Y324036D02*
D03*
Y327973D02*
D03*
Y329942D02*
D03*
Y331910D02*
D03*
Y333879D02*
D03*
Y335847D02*
D03*
Y337816D02*
D03*
Y339784D02*
D03*
Y343721D02*
D03*
Y345690D02*
D03*
Y347658D02*
D03*
Y349627D02*
D03*
Y351595D02*
D03*
Y353564D02*
D03*
Y355532D02*
D03*
Y357501D02*
D03*
Y359469D02*
D03*
Y361438D02*
D03*
Y363406D02*
D03*
Y365375D02*
D03*
Y367343D02*
D03*
Y371280D02*
D03*
Y373249D02*
D03*
Y375217D02*
D03*
Y379154D02*
D03*
Y381123D02*
D03*
X227685Y359469D02*
D03*
Y377186D02*
D03*
Y335847D02*
D03*
Y363406D02*
D03*
Y329942D02*
D03*
X427795Y359209D02*
D03*
Y335587D02*
D03*
X343244Y378894D02*
D03*
Y380863D02*
D03*
X427795Y376926D02*
D03*
X343244Y374957D02*
D03*
Y372989D02*
D03*
Y371020D02*
D03*
Y367083D02*
D03*
Y365115D02*
D03*
Y363146D02*
D03*
Y361178D02*
D03*
Y359209D02*
D03*
Y357241D02*
D03*
Y355272D02*
D03*
Y353304D02*
D03*
Y351335D02*
D03*
Y349367D02*
D03*
Y347398D02*
D03*
Y345430D02*
D03*
Y343461D02*
D03*
Y339524D02*
D03*
Y337556D02*
D03*
Y335587D02*
D03*
Y333619D02*
D03*
Y331650D02*
D03*
Y329682D02*
D03*
Y327713D02*
D03*
Y323776D02*
D03*
Y321808D02*
D03*
X427795Y317871D02*
D03*
Y319839D02*
D03*
Y321808D02*
D03*
Y323776D02*
D03*
Y325745D02*
D03*
Y327713D02*
D03*
Y329682D02*
D03*
Y331650D02*
D03*
Y337556D02*
D03*
Y339524D02*
D03*
Y341493D02*
D03*
Y343461D02*
D03*
Y345430D02*
D03*
Y347398D02*
D03*
Y349367D02*
D03*
Y351335D02*
D03*
Y353304D02*
D03*
Y355272D02*
D03*
Y361178D02*
D03*
Y363146D02*
D03*
Y365115D02*
D03*
Y367083D02*
D03*
Y369052D02*
D03*
Y371020D02*
D03*
Y372989D02*
D03*
Y378894D02*
D03*
Y380863D02*
D03*
X743234Y375317D02*
D03*
Y373349D02*
D03*
Y371380D02*
D03*
Y367443D02*
D03*
Y365475D02*
D03*
Y363506D02*
D03*
Y361538D02*
D03*
Y359569D02*
D03*
Y357601D02*
D03*
Y355632D02*
D03*
Y353664D02*
D03*
Y351695D02*
D03*
Y349727D02*
D03*
Y347758D02*
D03*
Y345790D02*
D03*
Y343821D02*
D03*
Y339884D02*
D03*
Y337916D02*
D03*
Y335947D02*
D03*
Y333979D02*
D03*
Y332010D02*
D03*
Y330042D02*
D03*
Y328073D02*
D03*
Y324136D02*
D03*
Y322168D02*
D03*
X827785Y318231D02*
D03*
Y320199D02*
D03*
Y322168D02*
D03*
Y324136D02*
D03*
Y326105D02*
D03*
Y328073D02*
D03*
Y330042D02*
D03*
Y332010D02*
D03*
Y337916D02*
D03*
Y339884D02*
D03*
Y341853D02*
D03*
Y343821D02*
D03*
Y345790D02*
D03*
Y347758D02*
D03*
Y349727D02*
D03*
Y351695D02*
D03*
Y353664D02*
D03*
Y355632D02*
D03*
Y361538D02*
D03*
Y363506D02*
D03*
Y365475D02*
D03*
Y367443D02*
D03*
Y369412D02*
D03*
Y371380D02*
D03*
Y373349D02*
D03*
Y379254D02*
D03*
Y381223D02*
D03*
Y377286D02*
D03*
X743234Y381223D02*
D03*
Y379254D02*
D03*
X827785Y359569D02*
D03*
Y335947D02*
D03*
X627485Y381208D02*
D03*
Y379239D02*
D03*
Y373334D02*
D03*
Y371365D02*
D03*
Y369397D02*
D03*
Y367428D02*
D03*
Y365460D02*
D03*
Y363491D02*
D03*
Y361523D02*
D03*
Y355617D02*
D03*
Y353649D02*
D03*
Y351680D02*
D03*
Y349712D02*
D03*
Y347743D02*
D03*
Y345775D02*
D03*
Y343806D02*
D03*
Y341838D02*
D03*
Y339869D02*
D03*
Y337901D02*
D03*
Y331995D02*
D03*
Y330027D02*
D03*
Y328058D02*
D03*
Y326090D02*
D03*
Y324121D02*
D03*
Y322153D02*
D03*
Y320184D02*
D03*
Y318216D02*
D03*
X542934Y322153D02*
D03*
Y324121D02*
D03*
Y328058D02*
D03*
Y330027D02*
D03*
Y331995D02*
D03*
Y333964D02*
D03*
Y335932D02*
D03*
Y337901D02*
D03*
Y339869D02*
D03*
Y343806D02*
D03*
Y345775D02*
D03*
Y347743D02*
D03*
Y349712D02*
D03*
Y351680D02*
D03*
Y353649D02*
D03*
Y355617D02*
D03*
Y357586D02*
D03*
Y359554D02*
D03*
Y361523D02*
D03*
Y363491D02*
D03*
Y365460D02*
D03*
Y367428D02*
D03*
Y371365D02*
D03*
Y373334D02*
D03*
Y375302D02*
D03*
X627485Y377271D02*
D03*
Y359554D02*
D03*
Y335932D02*
D03*
X542934Y381208D02*
D03*
Y379239D02*
D03*
D40*
X617690Y308420D02*
D03*
X552729Y392971D02*
D03*
X217890Y308335D02*
D03*
X152929Y392886D02*
D03*
X418000Y308075D02*
D03*
X353039Y392627D02*
D03*
X817990Y308435D02*
D03*
X753029Y392986D02*
D03*
X550761Y308420D02*
D03*
X578320D02*
D03*
X619659D02*
D03*
Y392971D02*
D03*
X607848D02*
D03*
X550761D02*
D03*
X156867Y308335D02*
D03*
X174583D02*
D03*
X210016D02*
D03*
X204111Y392886D02*
D03*
X182457D02*
D03*
X160803D02*
D03*
X356977Y308075D02*
D03*
X374693D02*
D03*
X410126D02*
D03*
X404221Y392627D02*
D03*
X382567D02*
D03*
X360913D02*
D03*
X756966Y308435D02*
D03*
X774683D02*
D03*
X810116D02*
D03*
X804210Y392986D02*
D03*
X782557D02*
D03*
X760904D02*
D03*
X556666Y308420D02*
D03*
X574383D02*
D03*
X609816D02*
D03*
X603910Y392971D02*
D03*
X582257D02*
D03*
X560604D02*
D03*
X150961Y308335D02*
D03*
X178520D02*
D03*
X219859D02*
D03*
Y392886D02*
D03*
X208048D02*
D03*
X150961D02*
D03*
X351071Y308075D02*
D03*
X378630D02*
D03*
X419969D02*
D03*
Y392627D02*
D03*
X408158D02*
D03*
X351071D02*
D03*
X751061Y308435D02*
D03*
X778620D02*
D03*
X819959D02*
D03*
Y392986D02*
D03*
X808148D02*
D03*
X751061D02*
D03*
X156867Y392886D02*
D03*
X158835D02*
D03*
X162772D02*
D03*
X166709D02*
D03*
X168677D02*
D03*
X170646D02*
D03*
X174583D02*
D03*
X176551D02*
D03*
X178520D02*
D03*
X180489D02*
D03*
X184425D02*
D03*
X186394D02*
D03*
X190331D02*
D03*
X192299D02*
D03*
X194268D02*
D03*
X196237D02*
D03*
X198205D02*
D03*
X213953D02*
D03*
X215922D02*
D03*
X217890D02*
D03*
X215922Y308335D02*
D03*
X213953D02*
D03*
X208048D02*
D03*
X206079D02*
D03*
X204111D02*
D03*
X200173D02*
D03*
X198205D02*
D03*
X196237D02*
D03*
X194268D02*
D03*
X192299D02*
D03*
X190331D02*
D03*
X188363D02*
D03*
X186394D02*
D03*
X184425D02*
D03*
X180489D02*
D03*
X164741D02*
D03*
X162772D02*
D03*
X158835D02*
D03*
X154898D02*
D03*
X152929D02*
D03*
X206079Y392886D02*
D03*
X164741D02*
D03*
X154898D02*
D03*
X188363D02*
D03*
X172615D02*
D03*
X211985Y308335D02*
D03*
X160803D02*
D03*
X202142D02*
D03*
X182457D02*
D03*
X172615D02*
D03*
X200173Y392886D02*
D03*
X202142D02*
D03*
X210016D02*
D03*
X211985D02*
D03*
X176551Y308335D02*
D03*
X170646D02*
D03*
X168677D02*
D03*
X166709D02*
D03*
X360913Y308075D02*
D03*
X382567D02*
D03*
X402252D02*
D03*
X412095D02*
D03*
X372725Y392627D02*
D03*
X388473D02*
D03*
X355008D02*
D03*
X364850D02*
D03*
X406189D02*
D03*
X353039Y308075D02*
D03*
X355008D02*
D03*
X358945D02*
D03*
X362882D02*
D03*
X364850D02*
D03*
X372725D02*
D03*
X380598D02*
D03*
X384536D02*
D03*
X386504D02*
D03*
X388473D02*
D03*
X390441D02*
D03*
X392409D02*
D03*
X394378D02*
D03*
X396346D02*
D03*
X398315D02*
D03*
X400283D02*
D03*
X404221D02*
D03*
X406189D02*
D03*
X408158D02*
D03*
X414063D02*
D03*
X416032D02*
D03*
X418000Y392627D02*
D03*
X416032D02*
D03*
X414063D02*
D03*
X398315D02*
D03*
X396346D02*
D03*
X394378D02*
D03*
X392409D02*
D03*
X390441D02*
D03*
X386504D02*
D03*
X384536D02*
D03*
X380598D02*
D03*
X378630D02*
D03*
X376661D02*
D03*
X374693D02*
D03*
X370756D02*
D03*
X368788D02*
D03*
X366819D02*
D03*
X362882D02*
D03*
X358945D02*
D03*
X356977D02*
D03*
X400283D02*
D03*
X402252D02*
D03*
X410126D02*
D03*
X412095D02*
D03*
X376661Y308075D02*
D03*
X370756D02*
D03*
X368788D02*
D03*
X366819D02*
D03*
X566509Y308420D02*
D03*
X568477D02*
D03*
X570446D02*
D03*
X576351D02*
D03*
X611785Y392971D02*
D03*
X609816D02*
D03*
X601942D02*
D03*
X599973D02*
D03*
X766809Y308435D02*
D03*
X768778D02*
D03*
X770746D02*
D03*
X776651D02*
D03*
X812085Y392986D02*
D03*
X810116D02*
D03*
X802242D02*
D03*
X800274D02*
D03*
X753029Y308435D02*
D03*
X754998D02*
D03*
X758935D02*
D03*
X762872D02*
D03*
X764841D02*
D03*
X772715D02*
D03*
X780588D02*
D03*
X784525D02*
D03*
X786494D02*
D03*
X788462D02*
D03*
X790431D02*
D03*
X792400D02*
D03*
X794368D02*
D03*
X796337D02*
D03*
X798305D02*
D03*
X800274D02*
D03*
X804210D02*
D03*
X806179D02*
D03*
X808148D02*
D03*
X814053D02*
D03*
X816022D02*
D03*
X817990Y392986D02*
D03*
X816022D02*
D03*
X814053D02*
D03*
X798305D02*
D03*
X796337D02*
D03*
X794368D02*
D03*
X792400D02*
D03*
X790431D02*
D03*
X786494D02*
D03*
X784525D02*
D03*
X780588D02*
D03*
X778620D02*
D03*
X776651D02*
D03*
X774683D02*
D03*
X770746D02*
D03*
X768778D02*
D03*
X766809D02*
D03*
X762872D02*
D03*
X758935D02*
D03*
X756966D02*
D03*
X806179D02*
D03*
X788462D02*
D03*
X772715D02*
D03*
X764841D02*
D03*
X754998D02*
D03*
X812085Y308435D02*
D03*
X802242D02*
D03*
X782557D02*
D03*
X760904D02*
D03*
X556666Y392971D02*
D03*
X558635D02*
D03*
X562572D02*
D03*
X566509D02*
D03*
X568477D02*
D03*
X570446D02*
D03*
X574383D02*
D03*
X576351D02*
D03*
X578320D02*
D03*
X580289D02*
D03*
X584226D02*
D03*
X586194D02*
D03*
X590131D02*
D03*
X592100D02*
D03*
X594068D02*
D03*
X596036D02*
D03*
X598005D02*
D03*
X613753D02*
D03*
X615722D02*
D03*
X617690D02*
D03*
X615722Y308420D02*
D03*
X613753D02*
D03*
X607848D02*
D03*
X605879D02*
D03*
X603910D02*
D03*
X599973D02*
D03*
X598005D02*
D03*
X596036D02*
D03*
X594068D02*
D03*
X592100D02*
D03*
X590131D02*
D03*
X588163D02*
D03*
X586194D02*
D03*
X584226D02*
D03*
X580289D02*
D03*
X572414D02*
D03*
X564540D02*
D03*
X562572D02*
D03*
X558635D02*
D03*
X554698D02*
D03*
X552729D02*
D03*
X605879Y392971D02*
D03*
X588163D02*
D03*
X611785Y308420D02*
D03*
X601942D02*
D03*
X572414Y392971D02*
D03*
X564540D02*
D03*
X554698D02*
D03*
X582257Y308420D02*
D03*
X560604D02*
D03*
D41*
X121435Y341620D02*
D03*
X127931D02*
D03*
X121435Y333353D02*
D03*
X127931D02*
D03*
X328041Y341360D02*
D03*
X321545D02*
D03*
Y333093D02*
D03*
X328041D02*
D03*
X728031Y333453D02*
D03*
X721535D02*
D03*
X728031Y341720D02*
D03*
X721535D02*
D03*
X527731Y333438D02*
D03*
X521235D02*
D03*
X527731Y341705D02*
D03*
X521235D02*
D03*
D42*
X185410Y350611D02*
D03*
X385520Y350351D02*
D03*
X785510Y350711D02*
D03*
X585210Y350696D02*
D03*
M02*
