G04*
G04 #@! TF.GenerationSoftware,Altium Limited,Altium Designer,18.1.7 (191)*
G04*
G04 Layer_Color=128*
%FSLAX25Y25*%
%MOIN*%
G70*
G01*
G75*
%ADD18C,0.04000*%
%ADD21R,0.03500X0.03000*%
%ADD27R,0.03543X0.03000*%
%ADD30R,0.06299X0.11000*%
%ADD31R,0.03000X0.03500*%
%ADD32R,0.03000X0.03543*%
%ADD34R,0.02756X0.03150*%
%ADD38R,0.03937X0.04921*%
%ADD125R,0.11000X0.06299*%
%ADD126R,0.09000X0.12000*%
%ADD127R,0.04921X0.03937*%
D18*
X0Y-100D02*
X919600D01*
X920300Y600D01*
Y435000D01*
X-100D02*
X920300D01*
X-100Y0D02*
Y435000D01*
D21*
X592193Y380972D02*
D03*
X793343Y380986D02*
D03*
X392483Y380627D02*
D03*
Y386627D02*
D03*
X192613Y386887D02*
D03*
Y380887D02*
D03*
X592193Y386971D02*
D03*
X793343Y386986D02*
D03*
D27*
X36167Y39715D02*
D03*
Y45227D02*
D03*
X36177Y79759D02*
D03*
Y74247D02*
D03*
X44137Y39471D02*
D03*
Y44983D02*
D03*
X44037Y79973D02*
D03*
Y74461D02*
D03*
X73484Y317622D02*
D03*
Y312111D02*
D03*
X63244Y317622D02*
D03*
Y312111D02*
D03*
X209383Y388998D02*
D03*
Y383487D02*
D03*
X409493Y388738D02*
D03*
Y383226D02*
D03*
X609183Y389083D02*
D03*
Y383572D02*
D03*
X809483Y389098D02*
D03*
Y383587D02*
D03*
X154365Y388098D02*
D03*
Y393610D02*
D03*
X354475Y387838D02*
D03*
Y393350D02*
D03*
X554165Y388183D02*
D03*
Y393695D02*
D03*
X754465Y388198D02*
D03*
Y393710D02*
D03*
X142983Y314742D02*
D03*
Y309231D02*
D03*
X343093Y314482D02*
D03*
Y308971D02*
D03*
X542783Y314827D02*
D03*
Y309316D02*
D03*
X743083Y314843D02*
D03*
Y309331D02*
D03*
X223083Y373843D02*
D03*
Y368331D02*
D03*
X423193Y373583D02*
D03*
Y368071D02*
D03*
X622883Y373927D02*
D03*
Y368416D02*
D03*
X823183Y373942D02*
D03*
Y368431D02*
D03*
X149583Y309331D02*
D03*
Y314843D02*
D03*
X349693Y309071D02*
D03*
Y314582D02*
D03*
X549383Y309416D02*
D03*
Y314927D02*
D03*
X749683Y309431D02*
D03*
Y314943D02*
D03*
X178583Y316331D02*
D03*
Y321843D02*
D03*
X378693Y316071D02*
D03*
Y321583D02*
D03*
X578383Y316416D02*
D03*
Y321927D02*
D03*
X778683Y316431D02*
D03*
Y321942D02*
D03*
X224783Y308075D02*
D03*
Y313586D02*
D03*
X424893Y307815D02*
D03*
Y313327D02*
D03*
X624583Y308160D02*
D03*
Y313671D02*
D03*
X824883Y308175D02*
D03*
Y313686D02*
D03*
X216783Y313087D02*
D03*
Y307575D02*
D03*
X416893Y312826D02*
D03*
Y307315D02*
D03*
X616583Y313172D02*
D03*
Y307660D02*
D03*
X816883Y313187D02*
D03*
Y307675D02*
D03*
X173183Y316231D02*
D03*
Y321743D02*
D03*
X373293Y315971D02*
D03*
Y321482D02*
D03*
X572983Y316316D02*
D03*
Y321827D02*
D03*
X773283Y316331D02*
D03*
Y321843D02*
D03*
X160883Y317531D02*
D03*
Y323042D02*
D03*
X360993Y317271D02*
D03*
Y322782D02*
D03*
X560683Y317616D02*
D03*
Y323127D02*
D03*
X760983Y317631D02*
D03*
Y323143D02*
D03*
X160783Y386943D02*
D03*
Y381431D02*
D03*
X360893Y386683D02*
D03*
Y381171D02*
D03*
X560583Y387027D02*
D03*
Y381516D02*
D03*
X760883Y387042D02*
D03*
Y381531D02*
D03*
X182183Y386643D02*
D03*
Y381131D02*
D03*
X382293Y386383D02*
D03*
Y380871D02*
D03*
X581983Y386727D02*
D03*
Y381216D02*
D03*
X782283Y386742D02*
D03*
Y381231D02*
D03*
X201583Y385142D02*
D03*
Y379631D02*
D03*
X401693Y384882D02*
D03*
Y379371D02*
D03*
X601383Y385227D02*
D03*
Y379716D02*
D03*
X801683Y385243D02*
D03*
Y379731D02*
D03*
X206783Y313575D02*
D03*
Y319087D02*
D03*
X406893Y313315D02*
D03*
Y318827D02*
D03*
X606583Y313660D02*
D03*
Y319172D02*
D03*
X806883Y313675D02*
D03*
Y319186D02*
D03*
X166583Y317575D02*
D03*
Y323087D02*
D03*
X366693Y317315D02*
D03*
Y322827D02*
D03*
X566383Y317660D02*
D03*
Y323171D02*
D03*
X766683Y317675D02*
D03*
Y323186D02*
D03*
X177149Y380989D02*
D03*
Y386501D02*
D03*
X377259Y380729D02*
D03*
Y386241D02*
D03*
X576949Y381074D02*
D03*
Y386586D02*
D03*
X777249Y381089D02*
D03*
Y386601D02*
D03*
X319193Y340638D02*
D03*
Y335126D02*
D03*
X119083Y335386D02*
D03*
Y340898D02*
D03*
X518883Y335472D02*
D03*
Y340983D02*
D03*
X719183Y340998D02*
D03*
Y335487D02*
D03*
D30*
X57186Y107243D02*
D03*
X46162D02*
D03*
X35994Y103233D02*
D03*
X24970D02*
D03*
D31*
X39278Y252784D02*
D03*
X33278D02*
D03*
X13298Y252727D02*
D03*
X7298D02*
D03*
Y263834D02*
D03*
X13298D02*
D03*
Y258281D02*
D03*
X7298D02*
D03*
Y247174D02*
D03*
X13298D02*
D03*
X460063Y25717D02*
D03*
X466063D02*
D03*
X460063Y40716D02*
D03*
X466063D02*
D03*
X460063Y55717D02*
D03*
X466063D02*
D03*
X860063D02*
D03*
X866063D02*
D03*
X860063Y40716D02*
D03*
X866063D02*
D03*
X860063Y25717D02*
D03*
X866063D02*
D03*
X660063Y55717D02*
D03*
X666063D02*
D03*
X660063Y40716D02*
D03*
X666063D02*
D03*
X660063Y25717D02*
D03*
X666063D02*
D03*
X860063Y70717D02*
D03*
X866063D02*
D03*
X860063Y85716D02*
D03*
X866063D02*
D03*
X820063Y25717D02*
D03*
X826063D02*
D03*
X820063Y40716D02*
D03*
X826063D02*
D03*
X820063Y55717D02*
D03*
X826063D02*
D03*
X820063Y70717D02*
D03*
X826063D02*
D03*
X820063Y85716D02*
D03*
X826063D02*
D03*
X780063Y25717D02*
D03*
X786063D02*
D03*
X660063Y70717D02*
D03*
X666063D02*
D03*
X660063Y85716D02*
D03*
X666063D02*
D03*
X620063Y25717D02*
D03*
X626063D02*
D03*
X620063Y40716D02*
D03*
X626063D02*
D03*
X620063Y55717D02*
D03*
X626063D02*
D03*
X620063Y70717D02*
D03*
X626063D02*
D03*
X620063Y85716D02*
D03*
X626063D02*
D03*
X580063Y25717D02*
D03*
X586063D02*
D03*
X460063Y70717D02*
D03*
X466063D02*
D03*
X460063Y85716D02*
D03*
X466063D02*
D03*
X420063Y25717D02*
D03*
X426063D02*
D03*
X420063Y40716D02*
D03*
X426063D02*
D03*
X420063Y55717D02*
D03*
X426063D02*
D03*
X420063Y70717D02*
D03*
X426063D02*
D03*
X420063Y85716D02*
D03*
X426063D02*
D03*
X380063Y25717D02*
D03*
X386063D02*
D03*
X740063D02*
D03*
X746063D02*
D03*
X700063D02*
D03*
X706063D02*
D03*
X780063Y40716D02*
D03*
X786063D02*
D03*
X740063D02*
D03*
X746063D02*
D03*
X700063D02*
D03*
X706063D02*
D03*
X780063Y55717D02*
D03*
X786063D02*
D03*
X740063D02*
D03*
X746063D02*
D03*
X700063D02*
D03*
X706063D02*
D03*
X540063Y25717D02*
D03*
X546063D02*
D03*
X500063D02*
D03*
X506063D02*
D03*
X580063Y40716D02*
D03*
X586063D02*
D03*
X540063D02*
D03*
X546063D02*
D03*
X500063D02*
D03*
X506063D02*
D03*
X580063Y55717D02*
D03*
X586063D02*
D03*
X540063D02*
D03*
X546063D02*
D03*
X500063D02*
D03*
X506063D02*
D03*
X340063Y25717D02*
D03*
X346063D02*
D03*
X300063D02*
D03*
X306063D02*
D03*
X380063Y40716D02*
D03*
X386063D02*
D03*
X340063D02*
D03*
X346063D02*
D03*
X300063D02*
D03*
X306063D02*
D03*
X380063Y55717D02*
D03*
X386063D02*
D03*
X340063D02*
D03*
X346063D02*
D03*
X300063D02*
D03*
X306063D02*
D03*
X780063Y70717D02*
D03*
X786063D02*
D03*
X740063D02*
D03*
X746063D02*
D03*
X700063D02*
D03*
X706063D02*
D03*
X780063Y85716D02*
D03*
X786063D02*
D03*
X740063D02*
D03*
X746063D02*
D03*
X700063D02*
D03*
X706063D02*
D03*
X740063Y100716D02*
D03*
X746063D02*
D03*
X700063D02*
D03*
X706063D02*
D03*
X580063Y70717D02*
D03*
X586063D02*
D03*
X540063D02*
D03*
X546063D02*
D03*
X500063D02*
D03*
X506063D02*
D03*
X580063Y85716D02*
D03*
X586063D02*
D03*
X540063D02*
D03*
X546063D02*
D03*
X500063D02*
D03*
X506063D02*
D03*
X540063Y100716D02*
D03*
X546063D02*
D03*
X500063D02*
D03*
X506063D02*
D03*
X380063Y70717D02*
D03*
X386063D02*
D03*
X340063D02*
D03*
X346063D02*
D03*
X300063D02*
D03*
X306063D02*
D03*
X380063Y85716D02*
D03*
X386063D02*
D03*
X340063D02*
D03*
X346063D02*
D03*
X300063D02*
D03*
X306063D02*
D03*
X340063Y100716D02*
D03*
X346063D02*
D03*
X300063D02*
D03*
X306063D02*
D03*
X860063D02*
D03*
X866063D02*
D03*
X860063Y115717D02*
D03*
X866063D02*
D03*
X860063Y130717D02*
D03*
X866063D02*
D03*
X860063Y145717D02*
D03*
X866063D02*
D03*
X820063Y100716D02*
D03*
X826063D02*
D03*
X820063Y115717D02*
D03*
X826063D02*
D03*
X820063Y145717D02*
D03*
X826063D02*
D03*
X820063Y130717D02*
D03*
X826063D02*
D03*
X660063Y100716D02*
D03*
X666063D02*
D03*
X660063Y115717D02*
D03*
X666063D02*
D03*
X660063Y130717D02*
D03*
X666063D02*
D03*
X660063Y145717D02*
D03*
X666063D02*
D03*
X620063Y100716D02*
D03*
X626063D02*
D03*
X620063Y115717D02*
D03*
X626063D02*
D03*
X620063Y145717D02*
D03*
X626063D02*
D03*
X620063Y130717D02*
D03*
X626063D02*
D03*
X460063Y100716D02*
D03*
X466063D02*
D03*
X460063Y115717D02*
D03*
X466063D02*
D03*
X460063Y130717D02*
D03*
X466063D02*
D03*
X460063Y145717D02*
D03*
X466063D02*
D03*
X420063Y100716D02*
D03*
X426063D02*
D03*
X420063Y115717D02*
D03*
X426063D02*
D03*
X420063Y145717D02*
D03*
X426063D02*
D03*
X420063Y130717D02*
D03*
X426063D02*
D03*
X780063Y100716D02*
D03*
X786063D02*
D03*
X780063Y115717D02*
D03*
X786063D02*
D03*
X740063D02*
D03*
X746063D02*
D03*
X700063D02*
D03*
X706063D02*
D03*
X780063Y130717D02*
D03*
X786063D02*
D03*
X740063D02*
D03*
X746063D02*
D03*
X700063D02*
D03*
X706063D02*
D03*
X700063Y145717D02*
D03*
X706063D02*
D03*
X580063Y100716D02*
D03*
X586063D02*
D03*
X580063Y115717D02*
D03*
X586063D02*
D03*
X540063D02*
D03*
X546063D02*
D03*
X500063D02*
D03*
X506063D02*
D03*
X580063Y130717D02*
D03*
X586063D02*
D03*
X540063D02*
D03*
X546063D02*
D03*
X500063D02*
D03*
X506063D02*
D03*
X500063Y145717D02*
D03*
X506063D02*
D03*
X380063Y100716D02*
D03*
X386063D02*
D03*
X380063Y115717D02*
D03*
X386063D02*
D03*
X340063D02*
D03*
X346063D02*
D03*
X300063D02*
D03*
X306063D02*
D03*
X380063Y130717D02*
D03*
X386063D02*
D03*
X340063D02*
D03*
X346063D02*
D03*
X300063D02*
D03*
X306063D02*
D03*
X300063Y145717D02*
D03*
X306063D02*
D03*
X740063D02*
D03*
X746063D02*
D03*
X780044Y145514D02*
D03*
X786044D02*
D03*
X780063Y160716D02*
D03*
X786063D02*
D03*
X740063D02*
D03*
X746063D02*
D03*
X700063D02*
D03*
X706063D02*
D03*
X780063Y175716D02*
D03*
X786063D02*
D03*
X740063D02*
D03*
X746063D02*
D03*
X700063D02*
D03*
X706063D02*
D03*
X540063Y145717D02*
D03*
X546063D02*
D03*
X580044Y145514D02*
D03*
X586044D02*
D03*
X580063Y160716D02*
D03*
X586063D02*
D03*
X540063D02*
D03*
X546063D02*
D03*
X500063D02*
D03*
X506063D02*
D03*
X580063Y175716D02*
D03*
X586063D02*
D03*
X540063D02*
D03*
X546063D02*
D03*
X500063D02*
D03*
X506063D02*
D03*
X340063Y145717D02*
D03*
X346063D02*
D03*
X380044Y145514D02*
D03*
X386044D02*
D03*
X380063Y160716D02*
D03*
X386063D02*
D03*
X340063D02*
D03*
X346063D02*
D03*
X300063D02*
D03*
X306063D02*
D03*
X380063Y175716D02*
D03*
X386063D02*
D03*
X340063D02*
D03*
X346063D02*
D03*
X300063D02*
D03*
X306063D02*
D03*
X860063D02*
D03*
X866063D02*
D03*
X860063Y160716D02*
D03*
X866063D02*
D03*
X860063Y190717D02*
D03*
X866063D02*
D03*
X860063Y205716D02*
D03*
X866063D02*
D03*
X860063Y220717D02*
D03*
X866063D02*
D03*
X860063Y235717D02*
D03*
X866063D02*
D03*
X820063Y160716D02*
D03*
X826063D02*
D03*
X820063Y175716D02*
D03*
X826063D02*
D03*
X660063D02*
D03*
X666063D02*
D03*
X660063Y160716D02*
D03*
X666063D02*
D03*
X660063Y190717D02*
D03*
X666063D02*
D03*
X660063Y205716D02*
D03*
X666063D02*
D03*
X660063Y220717D02*
D03*
X666063D02*
D03*
X660063Y235717D02*
D03*
X666063D02*
D03*
X620063Y160716D02*
D03*
X626063D02*
D03*
X620063Y175716D02*
D03*
X626063D02*
D03*
X460063D02*
D03*
X466063D02*
D03*
X460063Y160716D02*
D03*
X466063D02*
D03*
X460063Y190717D02*
D03*
X466063D02*
D03*
X460063Y205716D02*
D03*
X466063D02*
D03*
X460063Y220717D02*
D03*
X466063D02*
D03*
X460063Y235717D02*
D03*
X466063D02*
D03*
X420063Y160716D02*
D03*
X426063D02*
D03*
X420063Y175716D02*
D03*
X426063D02*
D03*
X780063Y190717D02*
D03*
X786063D02*
D03*
X820063D02*
D03*
X826063D02*
D03*
X820063Y205716D02*
D03*
X826063D02*
D03*
X780063D02*
D03*
X786063D02*
D03*
X820063Y220717D02*
D03*
X826063D02*
D03*
X780063D02*
D03*
X786063D02*
D03*
X820063Y235717D02*
D03*
X826063D02*
D03*
X780063D02*
D03*
X786063D02*
D03*
X580063Y190717D02*
D03*
X586063D02*
D03*
X620063D02*
D03*
X626063D02*
D03*
X620063Y205716D02*
D03*
X626063D02*
D03*
X580063D02*
D03*
X586063D02*
D03*
X620063Y220717D02*
D03*
X626063D02*
D03*
X580063D02*
D03*
X586063D02*
D03*
X620063Y235717D02*
D03*
X626063D02*
D03*
X580063D02*
D03*
X586063D02*
D03*
X380063Y190717D02*
D03*
X386063D02*
D03*
X420063D02*
D03*
X426063D02*
D03*
X420063Y205716D02*
D03*
X426063D02*
D03*
X380063D02*
D03*
X386063D02*
D03*
X420063Y220717D02*
D03*
X426063D02*
D03*
X380063D02*
D03*
X386063D02*
D03*
X420063Y235717D02*
D03*
X426063D02*
D03*
X380063D02*
D03*
X386063D02*
D03*
X300333Y235799D02*
D03*
X306333D02*
D03*
X299914Y205716D02*
D03*
X305913D02*
D03*
X300063Y220717D02*
D03*
X306063D02*
D03*
X340063Y190717D02*
D03*
X346063D02*
D03*
X340063Y205716D02*
D03*
X346063D02*
D03*
X340063Y220717D02*
D03*
X346063D02*
D03*
X340063Y235717D02*
D03*
X346063D02*
D03*
X300063Y190717D02*
D03*
X306063D02*
D03*
X740063Y190717D02*
D03*
X746063D02*
D03*
X740063Y205716D02*
D03*
X746063D02*
D03*
X740063Y220717D02*
D03*
X746063D02*
D03*
X740063Y235717D02*
D03*
X746063D02*
D03*
X698933Y190672D02*
D03*
X704933D02*
D03*
X699914Y205716D02*
D03*
X705913D02*
D03*
X700063Y220717D02*
D03*
X706063D02*
D03*
X700333Y235799D02*
D03*
X706333D02*
D03*
X540063Y190717D02*
D03*
X546063D02*
D03*
X540063Y205716D02*
D03*
X546063D02*
D03*
X540063Y220717D02*
D03*
X546063D02*
D03*
X540063Y235717D02*
D03*
X546063D02*
D03*
X498933Y190672D02*
D03*
X504933D02*
D03*
X499914Y205716D02*
D03*
X505913D02*
D03*
X500063Y220717D02*
D03*
X506063D02*
D03*
X500333Y235799D02*
D03*
X506333D02*
D03*
X146063Y115717D02*
D03*
X140063D02*
D03*
X100063Y130717D02*
D03*
X106063D02*
D03*
X220063Y175716D02*
D03*
X226063D02*
D03*
X220063Y100716D02*
D03*
X226063D02*
D03*
X100063Y145717D02*
D03*
X106063D02*
D03*
X140063Y70717D02*
D03*
X146063D02*
D03*
Y175716D02*
D03*
X140063D02*
D03*
X106063D02*
D03*
X100063D02*
D03*
X266063Y145717D02*
D03*
X260063D02*
D03*
X106063Y115717D02*
D03*
X100063D02*
D03*
X146063Y160716D02*
D03*
X140063D02*
D03*
X186063D02*
D03*
X180063D02*
D03*
X106063D02*
D03*
X100063D02*
D03*
X226063Y40716D02*
D03*
X220063D02*
D03*
X146063D02*
D03*
X140063D02*
D03*
X186063Y85716D02*
D03*
X180063D02*
D03*
X266063Y25717D02*
D03*
X260063D02*
D03*
X226063D02*
D03*
X220063D02*
D03*
X186063Y40716D02*
D03*
X180063D02*
D03*
X106063Y70717D02*
D03*
X100063D02*
D03*
X266063Y130717D02*
D03*
X260063D02*
D03*
X266063Y55717D02*
D03*
X260063D02*
D03*
X266063Y70717D02*
D03*
X260063D02*
D03*
X146063Y25717D02*
D03*
X140063D02*
D03*
X186063Y70717D02*
D03*
X180063D02*
D03*
X266063Y100716D02*
D03*
X260063D02*
D03*
X186063D02*
D03*
X180063D02*
D03*
X146063Y145717D02*
D03*
X140063D02*
D03*
X226063Y55717D02*
D03*
X220063D02*
D03*
X106063Y40716D02*
D03*
X100063D02*
D03*
X146063Y85716D02*
D03*
X140063D02*
D03*
X186063Y130717D02*
D03*
X180063D02*
D03*
X266063Y40716D02*
D03*
X260063D02*
D03*
X266063Y85716D02*
D03*
X260063D02*
D03*
X106063D02*
D03*
X100063D02*
D03*
X226063Y115717D02*
D03*
X220063D02*
D03*
X146063Y130717D02*
D03*
X140063D02*
D03*
X186063Y175716D02*
D03*
X180063D02*
D03*
X106063Y25717D02*
D03*
X100063D02*
D03*
X266063Y115717D02*
D03*
X260063D02*
D03*
X186063D02*
D03*
X180063D02*
D03*
X186044Y145514D02*
D03*
X180044D02*
D03*
X226063Y70717D02*
D03*
X220063D02*
D03*
X186063Y55717D02*
D03*
X180063D02*
D03*
X226063Y85716D02*
D03*
X220063D02*
D03*
X146063Y55717D02*
D03*
X140063D02*
D03*
X146063Y100716D02*
D03*
X140063D02*
D03*
X226063Y145717D02*
D03*
X220063D02*
D03*
X186063Y25717D02*
D03*
X180063D02*
D03*
X106063Y55717D02*
D03*
X100063D02*
D03*
X106063Y100716D02*
D03*
X100063D02*
D03*
X226063Y130717D02*
D03*
X220063D02*
D03*
X266063Y205716D02*
D03*
X260063D02*
D03*
X266063Y190717D02*
D03*
X260063D02*
D03*
X266063Y220717D02*
D03*
X260063D02*
D03*
X266063Y175716D02*
D03*
X260063D02*
D03*
X266063Y235717D02*
D03*
X260063D02*
D03*
X266063Y160716D02*
D03*
X260063D02*
D03*
X226063D02*
D03*
X220063D02*
D03*
X180063Y235717D02*
D03*
X186063D02*
D03*
X220063D02*
D03*
X226063D02*
D03*
X180063Y220717D02*
D03*
X186063D02*
D03*
X220063D02*
D03*
X226063D02*
D03*
X180063Y205716D02*
D03*
X186063D02*
D03*
X220063D02*
D03*
X226063D02*
D03*
X220063Y190717D02*
D03*
X226063D02*
D03*
X180063D02*
D03*
X186063D02*
D03*
X140063Y220717D02*
D03*
X146063D02*
D03*
X98933Y190672D02*
D03*
X104933D02*
D03*
X140063Y205716D02*
D03*
X146063D02*
D03*
X99914D02*
D03*
X105913D02*
D03*
X140063Y190717D02*
D03*
X146063D02*
D03*
X140063Y235717D02*
D03*
X146063D02*
D03*
X100063Y220717D02*
D03*
X106063D02*
D03*
X100333Y235799D02*
D03*
X106333D02*
D03*
X248420Y388776D02*
D03*
X242420D02*
D03*
X448530Y388516D02*
D03*
X442530D02*
D03*
X648220Y388861D02*
D03*
X642220D02*
D03*
X848520Y388877D02*
D03*
X842520D02*
D03*
X155683Y359487D02*
D03*
X355793Y359226D02*
D03*
X755783Y359587D02*
D03*
X402423Y372606D02*
D03*
X802073Y373287D02*
D03*
X555483Y359572D02*
D03*
X333493Y320127D02*
D03*
X327493D02*
D03*
X333493Y326226D02*
D03*
X327493D02*
D03*
X349793Y359226D02*
D03*
X408423Y372606D02*
D03*
X207963Y372996D02*
D03*
X201963D02*
D03*
X607723Y373057D02*
D03*
X601723D02*
D03*
X149683Y359487D02*
D03*
X127383Y326486D02*
D03*
X133383D02*
D03*
X127383Y320387D02*
D03*
X133383D02*
D03*
X549483Y359572D02*
D03*
X527183Y326571D02*
D03*
X533183D02*
D03*
X527183Y320472D02*
D03*
X533183D02*
D03*
X808073Y373287D02*
D03*
X733483Y326587D02*
D03*
X727483D02*
D03*
X733483Y320486D02*
D03*
X727483D02*
D03*
X749783Y359587D02*
D03*
D32*
X13276Y124803D02*
D03*
X18788D02*
D03*
X18758Y119213D02*
D03*
X13246D02*
D03*
X129627Y390586D02*
D03*
X135139D02*
D03*
X329737Y390326D02*
D03*
X335249D02*
D03*
X529427Y390671D02*
D03*
X534939D02*
D03*
X729727Y390686D02*
D03*
X735239D02*
D03*
X232227Y398587D02*
D03*
X237739D02*
D03*
X432337Y398326D02*
D03*
X437849D02*
D03*
X632027Y398672D02*
D03*
X637539D02*
D03*
X832327Y398687D02*
D03*
X837839D02*
D03*
X129627Y396087D02*
D03*
X135139D02*
D03*
X329737Y395827D02*
D03*
X335249D02*
D03*
X529427Y396171D02*
D03*
X534939D02*
D03*
X729727Y396186D02*
D03*
X735239D02*
D03*
X148639Y394087D02*
D03*
X143127D02*
D03*
X348749Y393827D02*
D03*
X343237D02*
D03*
X548439Y394172D02*
D03*
X542927D02*
D03*
X748739Y394186D02*
D03*
X743227D02*
D03*
X239039Y311887D02*
D03*
X233527D02*
D03*
X439149Y311627D02*
D03*
X433637D02*
D03*
X638839Y311971D02*
D03*
X633327D02*
D03*
X839139Y311986D02*
D03*
X833627D02*
D03*
X237739Y392787D02*
D03*
X232227D02*
D03*
X437849Y392527D02*
D03*
X432337D02*
D03*
X637539Y392871D02*
D03*
X632027D02*
D03*
X837839Y392886D02*
D03*
X832327D02*
D03*
X143027Y387887D02*
D03*
X148539D02*
D03*
X343137Y387627D02*
D03*
X348649D02*
D03*
X542827Y387971D02*
D03*
X548339D02*
D03*
X743127Y387986D02*
D03*
X748639D02*
D03*
X149127Y333686D02*
D03*
X154639D02*
D03*
X349237Y333426D02*
D03*
X354749D02*
D03*
X548927Y333771D02*
D03*
X554439D02*
D03*
X749227Y333787D02*
D03*
X754739D02*
D03*
X223039Y322287D02*
D03*
X217527D02*
D03*
X423149Y322026D02*
D03*
X417637D02*
D03*
X622839Y322372D02*
D03*
X617327D02*
D03*
X823139Y322387D02*
D03*
X817627D02*
D03*
X221427Y388286D02*
D03*
X226939D02*
D03*
X421537Y388026D02*
D03*
X427049D02*
D03*
X621227Y388371D02*
D03*
X626739D02*
D03*
X821527Y388387D02*
D03*
X827039D02*
D03*
X132939Y313387D02*
D03*
X127427D02*
D03*
X333049Y313126D02*
D03*
X327537D02*
D03*
X532739Y313472D02*
D03*
X527227D02*
D03*
X733039Y313487D02*
D03*
X727527D02*
D03*
X147927Y376186D02*
D03*
X153439D02*
D03*
X348037Y375926D02*
D03*
X353549D02*
D03*
X547727Y376272D02*
D03*
X553239D02*
D03*
X748027Y376287D02*
D03*
X753539D02*
D03*
X148027Y381887D02*
D03*
X153539D02*
D03*
X348137Y381627D02*
D03*
X353649D02*
D03*
X547827Y381972D02*
D03*
X553339D02*
D03*
X748127Y381986D02*
D03*
X753639D02*
D03*
X149027Y326486D02*
D03*
X154539D02*
D03*
X349137Y326226D02*
D03*
X354649D02*
D03*
X548827Y326571D02*
D03*
X554339D02*
D03*
X749127Y326587D02*
D03*
X754639D02*
D03*
X148927Y320387D02*
D03*
X154439D02*
D03*
X349037Y320127D02*
D03*
X354549D02*
D03*
X548727Y320472D02*
D03*
X554239D02*
D03*
X749027Y320486D02*
D03*
X754539D02*
D03*
X127471Y307287D02*
D03*
X132983D02*
D03*
X327581Y307027D02*
D03*
X333093D02*
D03*
X527271Y307371D02*
D03*
X532783D02*
D03*
X727571Y307386D02*
D03*
X733083D02*
D03*
X148227Y341687D02*
D03*
X153739D02*
D03*
X348337Y341426D02*
D03*
X353849D02*
D03*
X548027Y341772D02*
D03*
X553539D02*
D03*
X748327Y341787D02*
D03*
X753839D02*
D03*
X148227Y368186D02*
D03*
X153739D02*
D03*
X348337Y367927D02*
D03*
X353849D02*
D03*
X548027Y368271D02*
D03*
X553539D02*
D03*
X748327Y368286D02*
D03*
X753839D02*
D03*
X223289Y331778D02*
D03*
X217777D02*
D03*
X423399Y331518D02*
D03*
X417887D02*
D03*
X623089Y331863D02*
D03*
X617577D02*
D03*
X823389Y331878D02*
D03*
X817877D02*
D03*
X222839Y354486D02*
D03*
X217327D02*
D03*
X422949Y354226D02*
D03*
X417437D02*
D03*
X622639Y354572D02*
D03*
X617127D02*
D03*
X822939Y354587D02*
D03*
X817427D02*
D03*
X248176Y383187D02*
D03*
X242664D02*
D03*
X448286Y382927D02*
D03*
X442774D02*
D03*
X647976Y383272D02*
D03*
X642464D02*
D03*
X848276Y383286D02*
D03*
X842764D02*
D03*
D34*
X472914Y25717D02*
D03*
X479213D02*
D03*
X472914Y40716D02*
D03*
X479213D02*
D03*
X472914Y55717D02*
D03*
X479213D02*
D03*
X872913D02*
D03*
X879213D02*
D03*
X872913Y40716D02*
D03*
X879213D02*
D03*
X872913Y25717D02*
D03*
X879213D02*
D03*
X672914Y55717D02*
D03*
X679213D02*
D03*
X672914Y40716D02*
D03*
X679213D02*
D03*
X672914Y25717D02*
D03*
X679213D02*
D03*
X872913Y70717D02*
D03*
X879213D02*
D03*
X872913Y85716D02*
D03*
X879213D02*
D03*
X832913Y25717D02*
D03*
X839213D02*
D03*
X832913Y40716D02*
D03*
X839213D02*
D03*
X832913Y55717D02*
D03*
X839213D02*
D03*
X832913Y70717D02*
D03*
X839213D02*
D03*
X832913Y85716D02*
D03*
X839213D02*
D03*
X792913Y25717D02*
D03*
X799213D02*
D03*
X672914Y70717D02*
D03*
X679213D02*
D03*
X672914Y85716D02*
D03*
X679213D02*
D03*
X632913Y25717D02*
D03*
X639213D02*
D03*
X632913Y40716D02*
D03*
X639213D02*
D03*
X632913Y55717D02*
D03*
X639213D02*
D03*
X632913Y70717D02*
D03*
X639213D02*
D03*
X632913Y85716D02*
D03*
X639213D02*
D03*
X592913Y25717D02*
D03*
X599213D02*
D03*
X472914Y70717D02*
D03*
X479213D02*
D03*
X472914Y85716D02*
D03*
X479213D02*
D03*
X432913Y25717D02*
D03*
X439213D02*
D03*
X432913Y40716D02*
D03*
X439213D02*
D03*
X432913Y55717D02*
D03*
X439213D02*
D03*
X432913Y70717D02*
D03*
X439213D02*
D03*
X432913Y85716D02*
D03*
X439213D02*
D03*
X392914Y25717D02*
D03*
X399213D02*
D03*
X752914D02*
D03*
X759213D02*
D03*
X712914D02*
D03*
X719213D02*
D03*
X792913Y40716D02*
D03*
X799213D02*
D03*
X752914D02*
D03*
X759213D02*
D03*
X712914D02*
D03*
X719213D02*
D03*
X792913Y55717D02*
D03*
X799213D02*
D03*
X752914D02*
D03*
X759213D02*
D03*
X712914D02*
D03*
X719213D02*
D03*
X552914Y25717D02*
D03*
X559213D02*
D03*
X512914D02*
D03*
X519213D02*
D03*
X592913Y40716D02*
D03*
X599213D02*
D03*
X552914D02*
D03*
X559213D02*
D03*
X512914D02*
D03*
X519213D02*
D03*
X592913Y55717D02*
D03*
X599213D02*
D03*
X552914D02*
D03*
X559213D02*
D03*
X512914D02*
D03*
X519213D02*
D03*
X352913Y25717D02*
D03*
X359213D02*
D03*
X312913D02*
D03*
X319213D02*
D03*
X392914Y40716D02*
D03*
X399213D02*
D03*
X352913D02*
D03*
X359213D02*
D03*
X312913D02*
D03*
X319213D02*
D03*
X392914Y55717D02*
D03*
X399213D02*
D03*
X352913D02*
D03*
X359213D02*
D03*
X312913D02*
D03*
X319213D02*
D03*
X792913Y70717D02*
D03*
X799213D02*
D03*
X752914D02*
D03*
X759213D02*
D03*
X712914D02*
D03*
X719213D02*
D03*
X792913Y85716D02*
D03*
X799213D02*
D03*
X752914D02*
D03*
X759213D02*
D03*
X712914D02*
D03*
X719213D02*
D03*
X752914Y100716D02*
D03*
X759213D02*
D03*
X712914D02*
D03*
X719213D02*
D03*
X592913Y70717D02*
D03*
X599213D02*
D03*
X552914D02*
D03*
X559213D02*
D03*
X512914D02*
D03*
X519213D02*
D03*
X592913Y85716D02*
D03*
X599213D02*
D03*
X552914D02*
D03*
X559213D02*
D03*
X512914D02*
D03*
X519213D02*
D03*
X552914Y100716D02*
D03*
X559213D02*
D03*
X512914D02*
D03*
X519213D02*
D03*
X392914Y70717D02*
D03*
X399213D02*
D03*
X352913D02*
D03*
X359213D02*
D03*
X312913D02*
D03*
X319213D02*
D03*
X392914Y85716D02*
D03*
X399213D02*
D03*
X352913D02*
D03*
X359213D02*
D03*
X312913D02*
D03*
X319213D02*
D03*
X352913Y100716D02*
D03*
X359213D02*
D03*
X312913D02*
D03*
X319213D02*
D03*
X872913D02*
D03*
X879213D02*
D03*
X872913Y115717D02*
D03*
X879213D02*
D03*
X872913Y130717D02*
D03*
X879213D02*
D03*
X872913Y145717D02*
D03*
X879213D02*
D03*
X832913Y100716D02*
D03*
X839213D02*
D03*
X832913Y115717D02*
D03*
X839213D02*
D03*
X832913Y145717D02*
D03*
X839213D02*
D03*
X832913Y130717D02*
D03*
X839213D02*
D03*
X672914Y100716D02*
D03*
X679213D02*
D03*
X672914Y115717D02*
D03*
X679213D02*
D03*
X672914Y130717D02*
D03*
X679213D02*
D03*
X672914Y145717D02*
D03*
X679213D02*
D03*
X632913Y100716D02*
D03*
X639213D02*
D03*
X632913Y115717D02*
D03*
X639213D02*
D03*
X632913Y145717D02*
D03*
X639213D02*
D03*
X632913Y130717D02*
D03*
X639213D02*
D03*
X472914Y100716D02*
D03*
X479213D02*
D03*
X472914Y115717D02*
D03*
X479213D02*
D03*
X472914Y130717D02*
D03*
X479213D02*
D03*
X472914Y145717D02*
D03*
X479213D02*
D03*
X432913Y100716D02*
D03*
X439213D02*
D03*
X432913Y115717D02*
D03*
X439213D02*
D03*
X432913Y145717D02*
D03*
X439213D02*
D03*
X432913Y130717D02*
D03*
X439213D02*
D03*
X792913Y100716D02*
D03*
X799213D02*
D03*
X792913Y115717D02*
D03*
X799213D02*
D03*
X752914D02*
D03*
X759213D02*
D03*
X712914D02*
D03*
X719213D02*
D03*
X792913Y130717D02*
D03*
X799213D02*
D03*
X752914D02*
D03*
X759213D02*
D03*
X712914D02*
D03*
X719213D02*
D03*
X712914Y145717D02*
D03*
X719213D02*
D03*
X592913Y100716D02*
D03*
X599213D02*
D03*
X592913Y115717D02*
D03*
X599213D02*
D03*
X552914D02*
D03*
X559213D02*
D03*
X512914D02*
D03*
X519213D02*
D03*
X592913Y130717D02*
D03*
X599213D02*
D03*
X552914D02*
D03*
X559213D02*
D03*
X512914D02*
D03*
X519213D02*
D03*
X512914Y145717D02*
D03*
X519213D02*
D03*
X392914Y100716D02*
D03*
X399213D02*
D03*
X392914Y115717D02*
D03*
X399213D02*
D03*
X352913D02*
D03*
X359213D02*
D03*
X312913D02*
D03*
X319213D02*
D03*
X392914Y130717D02*
D03*
X399213D02*
D03*
X352913D02*
D03*
X359213D02*
D03*
X312913D02*
D03*
X319213D02*
D03*
X312913Y145717D02*
D03*
X319213D02*
D03*
X752914D02*
D03*
X759213D02*
D03*
X792913D02*
D03*
X799213D02*
D03*
X792913Y160716D02*
D03*
X799213D02*
D03*
X752914D02*
D03*
X759213D02*
D03*
X712914D02*
D03*
X719213D02*
D03*
X792913Y175716D02*
D03*
X799213D02*
D03*
X752914D02*
D03*
X759213D02*
D03*
X712914D02*
D03*
X719213D02*
D03*
X552914Y145717D02*
D03*
X559213D02*
D03*
X592913D02*
D03*
X599213D02*
D03*
X592913Y160716D02*
D03*
X599213D02*
D03*
X552914D02*
D03*
X559213D02*
D03*
X512914D02*
D03*
X519213D02*
D03*
X592913Y175716D02*
D03*
X599213D02*
D03*
X552914D02*
D03*
X559213D02*
D03*
X512914D02*
D03*
X519213D02*
D03*
X352913Y145717D02*
D03*
X359213D02*
D03*
X392914D02*
D03*
X399213D02*
D03*
X392914Y160716D02*
D03*
X399213D02*
D03*
X352913D02*
D03*
X359213D02*
D03*
X312913D02*
D03*
X319213D02*
D03*
X392914Y175716D02*
D03*
X399213D02*
D03*
X352913D02*
D03*
X359213D02*
D03*
X312913D02*
D03*
X319213D02*
D03*
X872913D02*
D03*
X879213D02*
D03*
X872913Y160716D02*
D03*
X879213D02*
D03*
X872913Y190717D02*
D03*
X879213D02*
D03*
X872913Y205716D02*
D03*
X879213D02*
D03*
X872913Y220717D02*
D03*
X879213D02*
D03*
X872913Y235717D02*
D03*
X879213D02*
D03*
X832913Y160716D02*
D03*
X839213D02*
D03*
X832913Y175716D02*
D03*
X839213D02*
D03*
X672914D02*
D03*
X679213D02*
D03*
X672914Y160716D02*
D03*
X679213D02*
D03*
X672914Y190717D02*
D03*
X679213D02*
D03*
X672914Y205716D02*
D03*
X679213D02*
D03*
X672914Y220717D02*
D03*
X679213D02*
D03*
X672914Y235717D02*
D03*
X679213D02*
D03*
X632913Y160716D02*
D03*
X639213D02*
D03*
X632913Y175716D02*
D03*
X639213D02*
D03*
X472914D02*
D03*
X479213D02*
D03*
X472914Y160716D02*
D03*
X479213D02*
D03*
X472914Y190717D02*
D03*
X479213D02*
D03*
X472914Y205716D02*
D03*
X479213D02*
D03*
X472914Y220717D02*
D03*
X479213D02*
D03*
X472914Y235717D02*
D03*
X479213D02*
D03*
X432913Y160716D02*
D03*
X439213D02*
D03*
X432913Y175716D02*
D03*
X439213D02*
D03*
X792913Y190717D02*
D03*
X799213D02*
D03*
X832913D02*
D03*
X839213D02*
D03*
X832913Y205716D02*
D03*
X839213D02*
D03*
X792913D02*
D03*
X799213D02*
D03*
X832913Y220717D02*
D03*
X839213D02*
D03*
X792913D02*
D03*
X799213D02*
D03*
X832913Y235717D02*
D03*
X839213D02*
D03*
X792913D02*
D03*
X799213D02*
D03*
X592913Y190717D02*
D03*
X599213D02*
D03*
X632913D02*
D03*
X639213D02*
D03*
X632913Y205716D02*
D03*
X639213D02*
D03*
X592913D02*
D03*
X599213D02*
D03*
X632913Y220717D02*
D03*
X639213D02*
D03*
X592913D02*
D03*
X599213D02*
D03*
X632913Y235717D02*
D03*
X639213D02*
D03*
X592913D02*
D03*
X599213D02*
D03*
X392914Y190717D02*
D03*
X399213D02*
D03*
X432913D02*
D03*
X439213D02*
D03*
X432913Y205716D02*
D03*
X439213D02*
D03*
X392914D02*
D03*
X399213D02*
D03*
X432913Y220717D02*
D03*
X439213D02*
D03*
X392914D02*
D03*
X399213D02*
D03*
X432913Y235717D02*
D03*
X439213D02*
D03*
X392914D02*
D03*
X399213D02*
D03*
X312913Y190717D02*
D03*
X319213D02*
D03*
X312913Y205716D02*
D03*
X319213D02*
D03*
X312913Y220717D02*
D03*
X319212D02*
D03*
X312913Y235717D02*
D03*
X319212D02*
D03*
X352913Y190717D02*
D03*
X359213D02*
D03*
X352913Y205716D02*
D03*
X359213D02*
D03*
X352913Y220717D02*
D03*
X359212D02*
D03*
X352913Y235717D02*
D03*
X359212D02*
D03*
X752914Y190717D02*
D03*
X759213D02*
D03*
X752914Y205716D02*
D03*
X759213D02*
D03*
X752914Y220717D02*
D03*
X759213D02*
D03*
X752914Y235717D02*
D03*
X759213D02*
D03*
X712914Y190717D02*
D03*
X719213D02*
D03*
X712914Y205716D02*
D03*
X719213D02*
D03*
X712914Y220717D02*
D03*
X719213D02*
D03*
X712914Y235717D02*
D03*
X719213D02*
D03*
X552914Y190717D02*
D03*
X559213D02*
D03*
X552914Y205716D02*
D03*
X559213D02*
D03*
X552914Y220717D02*
D03*
X559213D02*
D03*
X552914Y235717D02*
D03*
X559213D02*
D03*
X512914Y190717D02*
D03*
X519213D02*
D03*
X512914Y205716D02*
D03*
X519213D02*
D03*
X512914Y220717D02*
D03*
X519213D02*
D03*
X512914Y235717D02*
D03*
X519213D02*
D03*
X272914Y205716D02*
D03*
X279213D02*
D03*
X232913Y235717D02*
D03*
X239213D02*
D03*
X192913Y145717D02*
D03*
X199213D02*
D03*
X112914Y235717D02*
D03*
X119213D02*
D03*
Y220717D02*
D03*
X112914D02*
D03*
X159213Y115717D02*
D03*
X152913D02*
D03*
X112914Y130717D02*
D03*
X119213D02*
D03*
X232913Y175716D02*
D03*
X239213D02*
D03*
X232913Y100716D02*
D03*
X239213D02*
D03*
X112914Y145717D02*
D03*
X119213D02*
D03*
X152913Y70717D02*
D03*
X159213D02*
D03*
X192913Y235717D02*
D03*
X199213D02*
D03*
Y190717D02*
D03*
X192913D02*
D03*
X119213Y175716D02*
D03*
X112914D02*
D03*
X239213Y130717D02*
D03*
X232913D02*
D03*
X119213Y100716D02*
D03*
X112914D02*
D03*
X119213Y55717D02*
D03*
X112914D02*
D03*
X199213Y25717D02*
D03*
X192913D02*
D03*
X239213Y160716D02*
D03*
X232913D02*
D03*
X159213Y175716D02*
D03*
X152913D02*
D03*
X239213Y145717D02*
D03*
X232913D02*
D03*
X159213Y100716D02*
D03*
X152913D02*
D03*
X159213Y55717D02*
D03*
X152913D02*
D03*
X239213Y85716D02*
D03*
X232913D02*
D03*
X199213Y220717D02*
D03*
X192913D02*
D03*
X279213Y235717D02*
D03*
X272914D02*
D03*
X199213Y175716D02*
D03*
X192913D02*
D03*
X159213Y130717D02*
D03*
X152913D02*
D03*
X239213Y115717D02*
D03*
X232913D02*
D03*
X119213Y85716D02*
D03*
X112914D02*
D03*
X199213Y55717D02*
D03*
X192913D02*
D03*
X239213Y70717D02*
D03*
X232913D02*
D03*
X239213Y220717D02*
D03*
X232913D02*
D03*
X279213D02*
D03*
X272914D02*
D03*
X119213Y160716D02*
D03*
X112914D02*
D03*
X199213Y130717D02*
D03*
X192913D02*
D03*
X159213Y85716D02*
D03*
X152913D02*
D03*
X119213Y40716D02*
D03*
X112914D02*
D03*
X239213Y55717D02*
D03*
X232913D02*
D03*
X199213Y205716D02*
D03*
X192913D02*
D03*
X159213Y160716D02*
D03*
X152913D02*
D03*
X119213Y115717D02*
D03*
X112914D02*
D03*
X279213Y145717D02*
D03*
X272914D02*
D03*
X199213Y85716D02*
D03*
X192913D02*
D03*
X159213Y40716D02*
D03*
X152913D02*
D03*
X239213D02*
D03*
X232913D02*
D03*
X239213Y205716D02*
D03*
X232913D02*
D03*
X279213Y190717D02*
D03*
X272914D02*
D03*
X199213Y160716D02*
D03*
X192913D02*
D03*
X279213Y130717D02*
D03*
X272914D02*
D03*
X119213Y70717D02*
D03*
X112914D02*
D03*
X199213Y40716D02*
D03*
X192913D02*
D03*
X239213Y25717D02*
D03*
X232913D02*
D03*
X279213D02*
D03*
X272914D02*
D03*
X279213Y175716D02*
D03*
X272914D02*
D03*
X159213Y145717D02*
D03*
X152913D02*
D03*
X199213Y100716D02*
D03*
X192913D02*
D03*
X279213D02*
D03*
X272914D02*
D03*
X199213Y70717D02*
D03*
X192913D02*
D03*
X159213Y25717D02*
D03*
X152913D02*
D03*
X279213Y70717D02*
D03*
X272914D02*
D03*
X279213Y55717D02*
D03*
X272914D02*
D03*
X239213Y190717D02*
D03*
X232913D02*
D03*
X279213Y160716D02*
D03*
X272914D02*
D03*
X199213Y115717D02*
D03*
X192913D02*
D03*
X279213D02*
D03*
X272914D02*
D03*
X119213Y25717D02*
D03*
X112914D02*
D03*
X279213Y85716D02*
D03*
X272914D02*
D03*
X279213Y40716D02*
D03*
X272914D02*
D03*
X119213Y205716D02*
D03*
X112914D02*
D03*
X159213Y220717D02*
D03*
X152913D02*
D03*
X159213Y235717D02*
D03*
X152913D02*
D03*
X159213Y205716D02*
D03*
X152913D02*
D03*
X119213Y190717D02*
D03*
X112914D02*
D03*
X159213D02*
D03*
X152913D02*
D03*
D38*
X233846Y304587D02*
D03*
X241720D02*
D03*
X433956Y304327D02*
D03*
X441830D02*
D03*
X633646Y304672D02*
D03*
X641520D02*
D03*
X833946Y304686D02*
D03*
X841820D02*
D03*
X149246Y352287D02*
D03*
X157120D02*
D03*
X349356Y352027D02*
D03*
X357230D02*
D03*
X549046Y352372D02*
D03*
X556920D02*
D03*
X749346Y352386D02*
D03*
X757220D02*
D03*
X250857Y375987D02*
D03*
X242983D02*
D03*
X450967Y375727D02*
D03*
X443093D02*
D03*
X650657Y376072D02*
D03*
X642783D02*
D03*
X850957Y376086D02*
D03*
X843083D02*
D03*
D125*
X68961Y410543D02*
D03*
Y399520D02*
D03*
X16961Y382543D02*
D03*
Y371520D02*
D03*
D126*
X42722Y125914D02*
D03*
X58470D02*
D03*
D127*
X215983Y373250D02*
D03*
Y381123D02*
D03*
X416093Y372990D02*
D03*
Y380863D02*
D03*
X615783Y373335D02*
D03*
Y381208D02*
D03*
X816083Y373349D02*
D03*
Y381224D02*
D03*
M02*
