G04*
G04 #@! TF.GenerationSoftware,Altium Limited,Altium Designer,18.1.7 (191)*
G04*
G04 Layer_Physical_Order=2*
G04 Layer_Color=32768*
%FSLAX25Y25*%
%MOIN*%
G70*
G01*
G75*
%ADD18C,0.04000*%
%ADD113C,0.05143*%
G04:AMPARAMS|DCode=114|XSize=75.433mil|YSize=75.433mil|CornerRadius=0mil|HoleSize=0mil|Usage=FLASHONLY|Rotation=0.000|XOffset=0mil|YOffset=0mil|HoleType=Round|Shape=Relief|Width=10mil|Gap=10mil|Entries=4|*
%AMTHD114*
7,0,0,0.07543,0.05543,0.01000,45*
%
%ADD114THD114*%
%ADD115C,0.14198*%
G04:AMPARAMS|DCode=116|XSize=77.008mil|YSize=77.008mil|CornerRadius=0mil|HoleSize=0mil|Usage=FLASHONLY|Rotation=0.000|XOffset=0mil|YOffset=0mil|HoleType=Round|Shape=Relief|Width=10mil|Gap=10mil|Entries=4|*
%AMTHD116*
7,0,0,0.07701,0.05701,0.01000,45*
%
%ADD116THD116*%
%ADD117C,0.14592*%
%ADD118C,0.05301*%
%ADD119C,0.14041*%
G04:AMPARAMS|DCode=120|XSize=164.409mil|YSize=164.409mil|CornerRadius=0mil|HoleSize=0mil|Usage=FLASHONLY|Rotation=0.000|XOffset=0mil|YOffset=0mil|HoleType=Round|Shape=Relief|Width=10mil|Gap=10mil|Entries=4|*
%AMTHD120*
7,0,0,0.16441,0.14441,0.01000,45*
%
%ADD120THD120*%
%ADD121C,0.15931*%
%ADD122C,0.02800*%
G04:AMPARAMS|DCode=123|XSize=52mil|YSize=52mil|CornerRadius=0mil|HoleSize=0mil|Usage=FLASHONLY|Rotation=0.000|XOffset=0mil|YOffset=0mil|HoleType=Round|Shape=Relief|Width=10mil|Gap=10mil|Entries=4|*
%AMTHD123*
7,0,0,0.05200,0.03200,0.01000,45*
%
%ADD123THD123*%
D18*
X-0Y-0D02*
X-0Y435039D01*
X920075Y435040D01*
X921027Y0D01*
X-0Y-0D02*
X921027Y0D01*
X0Y-100D02*
X919600D01*
X920300Y600D01*
Y435000D01*
X-100D02*
X920300D01*
X-100Y0D02*
Y435000D01*
D113*
X17217Y52387D02*
D03*
X27217Y82387D02*
D03*
X17217Y72387D02*
D03*
X27217D02*
D03*
X17217Y62387D02*
D03*
X27217D02*
D03*
Y52387D02*
D03*
Y42387D02*
D03*
D114*
X17217D02*
D03*
Y82387D02*
D03*
D115*
X907874Y12205D02*
D03*
Y422835D02*
D03*
X12205Y12205D02*
D03*
Y422835D02*
D03*
D116*
X28813Y311369D02*
D03*
X21805Y307354D02*
D03*
X28813Y303338D02*
D03*
X21805Y299322D02*
D03*
D117*
X11805Y280346D02*
D03*
Y330346D02*
D03*
D118*
X25309Y273338D02*
D03*
Y337354D02*
D03*
X47829Y332393D02*
D03*
Y323377D02*
D03*
Y287314D02*
D03*
Y278299D02*
D03*
X28813Y319401D02*
D03*
X21805Y315385D02*
D03*
X28813Y295306D02*
D03*
X21805Y291291D02*
D03*
D119*
X30569Y176457D02*
D03*
D120*
X18758Y194961D02*
D03*
D121*
X42380D02*
D03*
D122*
X889200Y92900D02*
D03*
X891063Y73037D02*
D03*
X490600Y73400D02*
D03*
X490500Y91900D02*
D03*
X691063Y92115D02*
D03*
Y72837D02*
D03*
X453063Y194717D02*
D03*
X453366Y174020D02*
D03*
X479063Y87717D02*
D03*
X291120Y73250D02*
D03*
X287570Y92200D02*
D03*
X837860Y55655D02*
D03*
X650338Y388238D02*
D03*
X640372Y306464D02*
D03*
X637880Y55786D02*
D03*
X437535Y55850D02*
D03*
X237624Y55662D02*
D03*
X688057Y223057D02*
D03*
X373000Y236000D02*
D03*
X288596Y223177D02*
D03*
X99786Y369337D02*
D03*
X888000Y222000D02*
D03*
X705073Y245889D02*
D03*
X689275Y248016D02*
D03*
X874028Y151690D02*
D03*
X675000Y152000D02*
D03*
X475663Y152196D02*
D03*
X487319Y222570D02*
D03*
X277000Y152000D02*
D03*
X889367Y245992D02*
D03*
X768611Y236359D02*
D03*
X568302Y235653D02*
D03*
X587152Y245276D02*
D03*
X577884Y245335D02*
D03*
X505270Y246086D02*
D03*
X489345Y246094D02*
D03*
X378076Y245721D02*
D03*
X305154Y246245D02*
D03*
X290000Y245000D02*
D03*
X104021Y249020D02*
D03*
X102446Y267467D02*
D03*
X106000Y271000D02*
D03*
X148519Y96851D02*
D03*
X167302Y235653D02*
D03*
X11302Y124653D02*
D03*
X9886Y362054D02*
D03*
X22886Y355054D02*
D03*
X18602Y362054D02*
D03*
X14269Y355054D02*
D03*
X36457Y46937D02*
D03*
X36108Y72748D02*
D03*
X47457Y55937D02*
D03*
X44185Y72588D02*
D03*
X36298Y35612D02*
D03*
X547300Y96694D02*
D03*
X549492Y120921D02*
D03*
X547664Y137583D02*
D03*
X545555Y141393D02*
D03*
X549098Y168165D02*
D03*
X749098Y165802D02*
D03*
X747917Y141393D02*
D03*
X748625Y137138D02*
D03*
X749022Y120387D02*
D03*
X748705Y96905D02*
D03*
X356026Y93801D02*
D03*
X345555Y96511D02*
D03*
X349098Y166983D02*
D03*
X347917Y140999D02*
D03*
X348785Y137278D02*
D03*
X348964Y120734D02*
D03*
X149065Y120225D02*
D03*
X149627Y166489D02*
D03*
X148705Y141787D02*
D03*
X789808Y64735D02*
D03*
X720667Y69511D02*
D03*
X721063Y85716D02*
D03*
X719651Y98575D02*
D03*
X710063Y92716D02*
D03*
X764182Y87256D02*
D03*
X756296Y94343D02*
D03*
X758980Y91732D02*
D03*
X709551Y60207D02*
D03*
X720063Y64717D02*
D03*
X724063Y73716D02*
D03*
X724056Y78840D02*
D03*
X719439Y79783D02*
D03*
X715142Y80195D02*
D03*
X724063Y88717D02*
D03*
X721063Y89717D02*
D03*
X748865Y92397D02*
D03*
X761063Y72716D02*
D03*
X724063Y68717D02*
D03*
X589808Y64735D02*
D03*
X520667Y69511D02*
D03*
X521063Y85716D02*
D03*
X519651Y98575D02*
D03*
X510063Y92716D02*
D03*
X564182Y87256D02*
D03*
X556296Y94343D02*
D03*
X558980Y91732D02*
D03*
X509551Y60207D02*
D03*
X520063Y64717D02*
D03*
X524063Y73716D02*
D03*
X524056Y78840D02*
D03*
X519439Y79783D02*
D03*
X515142Y80195D02*
D03*
X524063Y88717D02*
D03*
X521063Y89717D02*
D03*
X548865Y92397D02*
D03*
X561063Y72716D02*
D03*
X524063Y68717D02*
D03*
X389808Y64735D02*
D03*
X320667Y69511D02*
D03*
X321063Y85716D02*
D03*
X319651Y98575D02*
D03*
X310063Y92716D02*
D03*
X364182Y87256D02*
D03*
X358980Y91732D02*
D03*
X309551Y60207D02*
D03*
X320063Y64717D02*
D03*
X324063Y73716D02*
D03*
X324056Y78840D02*
D03*
X319439Y79783D02*
D03*
X315142Y80195D02*
D03*
X324063Y88717D02*
D03*
X321063Y89717D02*
D03*
X348865Y92397D02*
D03*
X361063Y72716D02*
D03*
X324063Y68717D02*
D03*
X759063Y23717D02*
D03*
X721063Y25717D02*
D03*
X799322Y38815D02*
D03*
X760751Y40522D02*
D03*
X720874Y40663D02*
D03*
X757087Y56916D02*
D03*
X721086Y55767D02*
D03*
X710063Y47717D02*
D03*
X762696Y48914D02*
D03*
X764182Y42256D02*
D03*
X709551Y15207D02*
D03*
X722063Y19716D02*
D03*
X724063Y22716D02*
D03*
X723079Y29726D02*
D03*
X719063Y32717D02*
D03*
X715019Y32597D02*
D03*
X727063Y37716D02*
D03*
X725950Y42210D02*
D03*
X722063Y47717D02*
D03*
X751063Y45717D02*
D03*
X559063Y23717D02*
D03*
X521063Y25717D02*
D03*
X599322Y38815D02*
D03*
X560751Y40522D02*
D03*
X520874Y40663D02*
D03*
X557087Y56916D02*
D03*
X521086Y55767D02*
D03*
X510063Y47717D02*
D03*
X562696Y48914D02*
D03*
X564182Y42256D02*
D03*
X509551Y15207D02*
D03*
X522063Y19716D02*
D03*
X524063Y22716D02*
D03*
X523079Y29726D02*
D03*
X519063Y32717D02*
D03*
X515019Y32597D02*
D03*
X527063Y37716D02*
D03*
X525950Y42210D02*
D03*
X522063Y47717D02*
D03*
X551063Y45717D02*
D03*
X359063Y23717D02*
D03*
X321063Y25717D02*
D03*
X399322Y38815D02*
D03*
X360751Y40522D02*
D03*
X320874Y40663D02*
D03*
X357087Y56916D02*
D03*
X321086Y55767D02*
D03*
X310063Y47717D02*
D03*
X362696Y48914D02*
D03*
X364182Y42256D02*
D03*
X309551Y15207D02*
D03*
X322063Y19716D02*
D03*
X324063Y22716D02*
D03*
X323079Y29726D02*
D03*
X319063Y32717D02*
D03*
X315019Y32597D02*
D03*
X327063Y37716D02*
D03*
X325950Y42210D02*
D03*
X322063Y47717D02*
D03*
X351063Y45717D02*
D03*
X158980Y91732D02*
D03*
X156296Y94343D02*
D03*
X148865Y92397D02*
D03*
X148740Y137634D02*
D03*
X53802Y108563D02*
D03*
X65748D02*
D03*
X59775D02*
D03*
X53802Y122539D02*
D03*
X65748D02*
D03*
X59775D02*
D03*
X53802Y129528D02*
D03*
X65748D02*
D03*
X59775D02*
D03*
X53802Y115551D02*
D03*
X65748D02*
D03*
X59775D02*
D03*
Y101575D02*
D03*
X65748D02*
D03*
X137008Y354331D02*
D03*
X88976Y350394D02*
D03*
X451214Y365496D02*
D03*
X453662Y219437D02*
D03*
X455512Y151575D02*
D03*
X316553Y198526D02*
D03*
X92126Y352843D02*
D03*
X120056Y356515D02*
D03*
X122834Y354330D02*
D03*
X116142Y351575D02*
D03*
X588833Y223883D02*
D03*
X94807Y390854D02*
D03*
X60555Y334254D02*
D03*
X58814Y317076D02*
D03*
X60624Y196307D02*
D03*
X68574D02*
D03*
X42722Y117673D02*
D03*
X53802Y101575D02*
D03*
X37228Y244734D02*
D03*
X21752Y124793D02*
D03*
X87234Y417628D02*
D03*
X87324Y377378D02*
D03*
X45247Y319266D02*
D03*
X45244Y295717D02*
D03*
X43168Y242174D02*
D03*
X70961Y397031D02*
D03*
Y389231D02*
D03*
Y381432D02*
D03*
Y373632D02*
D03*
Y365831D02*
D03*
Y358032D02*
D03*
X11092Y119013D02*
D03*
X11302Y113653D02*
D03*
X22961Y362054D02*
D03*
X14244D02*
D03*
X89689Y390854D02*
D03*
X49674Y157817D02*
D03*
X40868Y252764D02*
D03*
X31404Y157817D02*
D03*
X15258Y252814D02*
D03*
X73294Y310717D02*
D03*
X92442Y377378D02*
D03*
X63064Y310747D02*
D03*
X63961Y397031D02*
D03*
Y389231D02*
D03*
Y381432D02*
D03*
Y373632D02*
D03*
Y365831D02*
D03*
Y358032D02*
D03*
X56306Y313796D02*
D03*
X45854Y150537D02*
D03*
X49674Y143766D02*
D03*
X38194Y114716D02*
D03*
X38262Y99113D02*
D03*
X33218Y248924D02*
D03*
X32428Y242174D02*
D03*
X31404Y143766D02*
D03*
X34092Y105883D02*
D03*
X34042Y99113D02*
D03*
X15448Y263734D02*
D03*
X15238Y258334D02*
D03*
X15108Y247194D02*
D03*
X18577Y355054D02*
D03*
X9961D02*
D03*
X648990Y365751D02*
D03*
X716518Y198516D02*
D03*
X855063Y151716D02*
D03*
X516547Y198526D02*
D03*
X719063Y237717D02*
D03*
X716651Y246074D02*
D03*
X737063Y245717D02*
D03*
X744063Y231716D02*
D03*
X709063Y194717D02*
D03*
X750123Y195050D02*
D03*
X785123Y232050D02*
D03*
X787095Y244883D02*
D03*
X778123Y246050D02*
D03*
X750426Y257354D02*
D03*
X757711Y246408D02*
D03*
X749969Y232766D02*
D03*
X782632Y194538D02*
D03*
X885573Y194204D02*
D03*
X881063Y245717D02*
D03*
X858524Y248835D02*
D03*
X887130Y233943D02*
D03*
X747778Y183870D02*
D03*
X760366Y181413D02*
D03*
X759769Y149439D02*
D03*
X710063Y183716D02*
D03*
X742493Y194577D02*
D03*
X719451Y188624D02*
D03*
X721063Y205716D02*
D03*
X721666Y198526D02*
D03*
X724159Y201695D02*
D03*
X719063Y209717D02*
D03*
X734466Y188119D02*
D03*
X731907Y202873D02*
D03*
X729348Y207432D02*
D03*
X726789Y211442D02*
D03*
X809063Y13716D02*
D03*
X843130Y52943D02*
D03*
X814524Y67835D02*
D03*
X764182Y132256D02*
D03*
X855063Y13716D02*
D03*
X710063Y137716D02*
D03*
X893406Y76086D02*
D03*
X841573Y13204D02*
D03*
X837063Y64717D02*
D03*
X887573Y13204D02*
D03*
X761063Y109716D02*
D03*
X812063Y72716D02*
D03*
X709551Y105207D02*
D03*
X883063Y64717D02*
D03*
X855192Y234457D02*
D03*
X811063Y54716D02*
D03*
X855001Y52609D02*
D03*
X862181Y64617D02*
D03*
X853063Y111716D02*
D03*
X889406Y161086D02*
D03*
X887130Y150943D02*
D03*
X885573Y111204D02*
D03*
X859157Y171826D02*
D03*
X882622Y162283D02*
D03*
X759063Y207716D02*
D03*
Y188716D02*
D03*
Y237717D02*
D03*
X736654Y233045D02*
D03*
X778973Y190625D02*
D03*
X773130Y190164D02*
D03*
X772063Y201716D02*
D03*
X770063Y205716D02*
D03*
X767063Y211717D02*
D03*
X764612Y207487D02*
D03*
X760063Y211717D02*
D03*
X755673Y211764D02*
D03*
X776063Y236717D02*
D03*
X787063Y209717D02*
D03*
X789138Y224848D02*
D03*
X860532Y200186D02*
D03*
X870063Y211717D02*
D03*
X870693Y201696D02*
D03*
X865893Y212972D02*
D03*
X863273Y202570D02*
D03*
X873814Y200443D02*
D03*
X877063Y201716D02*
D03*
X879063Y207716D02*
D03*
X886063Y205716D02*
D03*
X881063Y235717D02*
D03*
X878387Y106834D02*
D03*
X876063Y120717D02*
D03*
X873181Y123773D02*
D03*
X870765Y126556D02*
D03*
X879312Y128943D02*
D03*
X879063Y98716D02*
D03*
X878256Y118038D02*
D03*
X868063Y104717D02*
D03*
X865229Y106799D02*
D03*
X857063Y121716D02*
D03*
X841063Y100716D02*
D03*
X720063Y179717D02*
D03*
X724063Y177717D02*
D03*
X720190Y176379D02*
D03*
X724063Y172716D02*
D03*
X762540Y176191D02*
D03*
X715063Y168717D02*
D03*
X719063D02*
D03*
X722063Y165717D02*
D03*
X761039Y155310D02*
D03*
X721305Y159818D02*
D03*
X726297Y162575D02*
D03*
X748048Y149752D02*
D03*
X720063Y156717D02*
D03*
X709063Y150716D02*
D03*
X721354Y130232D02*
D03*
X720063Y134716D02*
D03*
X724063Y127717D02*
D03*
X716131Y125076D02*
D03*
X721063Y122716D02*
D03*
X716299Y120157D02*
D03*
X721177Y115757D02*
D03*
X725063Y112716D02*
D03*
X720063Y109716D02*
D03*
X879063Y53716D02*
D03*
X839063Y87717D02*
D03*
X844063Y40716D02*
D03*
X841063Y25717D02*
D03*
X816309Y8993D02*
D03*
X806588Y24589D02*
D03*
X808903Y28155D02*
D03*
X811468Y30658D02*
D03*
X822063Y30716D02*
D03*
X830063Y20717D02*
D03*
X831868Y8698D02*
D03*
X836063Y5717D02*
D03*
X870063Y19716D02*
D03*
X878063Y29717D02*
D03*
X881063Y25717D02*
D03*
X884063Y28716D02*
D03*
X881268Y31892D02*
D03*
X879063Y87717D02*
D03*
X888063Y52716D02*
D03*
X853366Y174020D02*
D03*
X859063Y124716D02*
D03*
X761980Y137338D02*
D03*
X762997Y103682D02*
D03*
X724311Y119876D02*
D03*
X853063Y194717D02*
D03*
X799110Y23717D02*
D03*
X845110Y61717D02*
D03*
X859110Y64717D02*
D03*
X855208Y245835D02*
D03*
X748964Y60157D02*
D03*
Y105457D02*
D03*
Y15417D02*
D03*
X721044Y145482D02*
D03*
X802808Y47635D02*
D03*
X795208Y120835D02*
D03*
X797720Y130243D02*
D03*
X797908Y159235D02*
D03*
X795508Y171935D02*
D03*
X853808Y206035D02*
D03*
X853508Y188535D02*
D03*
X853008Y219835D02*
D03*
X853738Y126962D02*
D03*
X799714Y149313D02*
D03*
X708643Y227589D02*
D03*
X713063Y252716D02*
D03*
X519063Y237717D02*
D03*
X516651Y246074D02*
D03*
X537063Y245717D02*
D03*
X544063Y231716D02*
D03*
X509063Y194717D02*
D03*
X550123Y195050D02*
D03*
X585123Y232050D02*
D03*
X550426Y257354D02*
D03*
X557711Y246408D02*
D03*
X549969Y232766D02*
D03*
X582632Y194538D02*
D03*
X685573Y194204D02*
D03*
X681063Y245717D02*
D03*
X658524Y248835D02*
D03*
X687130Y233943D02*
D03*
X547778Y183870D02*
D03*
X560366Y181413D02*
D03*
X559769Y149439D02*
D03*
X510063Y183716D02*
D03*
X542493Y194577D02*
D03*
X519451Y188624D02*
D03*
X521063Y205716D02*
D03*
X521666Y198526D02*
D03*
X524159Y201695D02*
D03*
X519063Y209717D02*
D03*
X534466Y188119D02*
D03*
X531907Y202873D02*
D03*
X529348Y207432D02*
D03*
X526789Y211442D02*
D03*
X609063Y13716D02*
D03*
X643130Y52943D02*
D03*
X614524Y67835D02*
D03*
X564182Y132256D02*
D03*
X655063Y13716D02*
D03*
X510063Y137716D02*
D03*
X693406Y76086D02*
D03*
X641573Y13204D02*
D03*
X637063Y64717D02*
D03*
X687573Y13204D02*
D03*
X561063Y109716D02*
D03*
X612063Y72716D02*
D03*
X509551Y105207D02*
D03*
X683063Y64717D02*
D03*
X655192Y234457D02*
D03*
X611063Y54716D02*
D03*
X655001Y52609D02*
D03*
X662181Y64617D02*
D03*
X653001Y150610D02*
D03*
X653063Y111716D02*
D03*
X689406Y161086D02*
D03*
X687130Y150943D02*
D03*
X685573Y111204D02*
D03*
X659157Y171826D02*
D03*
X682622Y162283D02*
D03*
X559063Y207716D02*
D03*
Y188716D02*
D03*
Y237717D02*
D03*
X536654Y233045D02*
D03*
X578973Y190625D02*
D03*
X573130Y190164D02*
D03*
X572063Y201716D02*
D03*
X570063Y205716D02*
D03*
X567063Y211717D02*
D03*
X564612Y207487D02*
D03*
X560063Y211717D02*
D03*
X555673Y211764D02*
D03*
X587063Y209717D02*
D03*
X660532Y200186D02*
D03*
X670063Y211717D02*
D03*
X670693Y201696D02*
D03*
X665893Y212972D02*
D03*
X663273Y202570D02*
D03*
X673814Y200443D02*
D03*
X677063Y201716D02*
D03*
X679063Y207716D02*
D03*
X686063Y205716D02*
D03*
X681063Y235717D02*
D03*
X678387Y106834D02*
D03*
X676063Y120717D02*
D03*
X673181Y123773D02*
D03*
X670765Y126556D02*
D03*
X679312Y128943D02*
D03*
X679063Y98716D02*
D03*
X678256Y118038D02*
D03*
X668063Y104717D02*
D03*
X665229Y106799D02*
D03*
X657063Y121716D02*
D03*
X641063Y100716D02*
D03*
X520063Y179717D02*
D03*
X524063Y177717D02*
D03*
X520190Y176379D02*
D03*
X524063Y172716D02*
D03*
X562540Y176191D02*
D03*
X515063Y168717D02*
D03*
X519063D02*
D03*
X522063Y165717D02*
D03*
X561039Y155310D02*
D03*
X521305Y159818D02*
D03*
X526297Y162575D02*
D03*
X548048Y149752D02*
D03*
X520063Y156717D02*
D03*
X509063Y150716D02*
D03*
X521354Y130232D02*
D03*
X520063Y134716D02*
D03*
X524063Y127717D02*
D03*
X516131Y125076D02*
D03*
X521063Y122716D02*
D03*
X516299Y120157D02*
D03*
X521177Y115757D02*
D03*
X525063Y112716D02*
D03*
X520063Y109716D02*
D03*
X679063Y53716D02*
D03*
X639063Y87717D02*
D03*
X644063Y40716D02*
D03*
X641063Y25717D02*
D03*
X616309Y8993D02*
D03*
X606588Y24589D02*
D03*
X608903Y28155D02*
D03*
X611468Y30658D02*
D03*
X622063Y30716D02*
D03*
X630063Y20717D02*
D03*
X631868Y8698D02*
D03*
X636063Y5717D02*
D03*
X670063Y19716D02*
D03*
X678063Y29717D02*
D03*
X681063Y25717D02*
D03*
X684063Y28716D02*
D03*
X681268Y31892D02*
D03*
X679063Y87717D02*
D03*
X688063Y52716D02*
D03*
X653366Y174020D02*
D03*
X659063Y124716D02*
D03*
X561980Y137338D02*
D03*
X562997Y103682D02*
D03*
X524311Y119876D02*
D03*
X653063Y194717D02*
D03*
X599110Y23717D02*
D03*
X645110Y61717D02*
D03*
X659110Y64717D02*
D03*
X655208Y245835D02*
D03*
X548964Y60157D02*
D03*
Y105457D02*
D03*
Y15417D02*
D03*
X521044Y145482D02*
D03*
X602808Y47635D02*
D03*
X595208Y120835D02*
D03*
X597720Y130243D02*
D03*
X597908Y159235D02*
D03*
X595508Y171935D02*
D03*
X653808Y206035D02*
D03*
X653508Y188535D02*
D03*
X653008Y219835D02*
D03*
X653738Y126962D02*
D03*
X599714Y149313D02*
D03*
X508643Y227589D02*
D03*
X513063Y252716D02*
D03*
X319063Y237717D02*
D03*
X316652Y246074D02*
D03*
X337063Y245717D02*
D03*
X344063Y231716D02*
D03*
X309063Y194717D02*
D03*
X350123Y195050D02*
D03*
X385123Y232050D02*
D03*
X387095Y244883D02*
D03*
X350426Y257354D02*
D03*
X357711Y246408D02*
D03*
X349970Y232766D02*
D03*
X382632Y194538D02*
D03*
X485573Y194204D02*
D03*
X481063Y245717D02*
D03*
X458524Y248835D02*
D03*
X487130Y233943D02*
D03*
X347778Y183870D02*
D03*
X360367Y181413D02*
D03*
X359769Y149439D02*
D03*
X310063Y183716D02*
D03*
X342493Y194577D02*
D03*
X319450Y188624D02*
D03*
X321063Y205716D02*
D03*
X321666Y198526D02*
D03*
X324159Y201695D02*
D03*
X319063Y209717D02*
D03*
X334466Y188119D02*
D03*
X331907Y202873D02*
D03*
X329348Y207432D02*
D03*
X326789Y211442D02*
D03*
X409063Y13716D02*
D03*
X443130Y52943D02*
D03*
X414524Y67835D02*
D03*
X364182Y132256D02*
D03*
X455063Y13716D02*
D03*
X310063Y137716D02*
D03*
X493406Y76086D02*
D03*
X441573Y13204D02*
D03*
X437063Y64717D02*
D03*
X487573Y13204D02*
D03*
X361063Y109716D02*
D03*
X412063Y72716D02*
D03*
X309551Y105207D02*
D03*
X483063Y64717D02*
D03*
X455192Y234457D02*
D03*
X411063Y54716D02*
D03*
X455001Y52609D02*
D03*
X462181Y64617D02*
D03*
X453063Y111716D02*
D03*
X489406Y161086D02*
D03*
X487130Y150943D02*
D03*
X485573Y111204D02*
D03*
X459157Y171826D02*
D03*
X482622Y162283D02*
D03*
X359063Y207716D02*
D03*
Y188716D02*
D03*
Y237717D02*
D03*
X336654Y233045D02*
D03*
X378973Y190625D02*
D03*
X373130Y190164D02*
D03*
X372063Y201716D02*
D03*
X370063Y205716D02*
D03*
X367063Y211717D02*
D03*
X364612Y207487D02*
D03*
X360063Y211717D02*
D03*
X355673Y211764D02*
D03*
X387063Y209717D02*
D03*
X389138Y224848D02*
D03*
X460532Y200186D02*
D03*
X470063Y211717D02*
D03*
X470693Y201696D02*
D03*
X465893Y212972D02*
D03*
X463273Y202570D02*
D03*
X473814Y200443D02*
D03*
X477063Y201716D02*
D03*
X479063Y207716D02*
D03*
X486063Y205716D02*
D03*
X481063Y235717D02*
D03*
X478387Y106834D02*
D03*
X476063Y120717D02*
D03*
X473181Y123773D02*
D03*
X470765Y126556D02*
D03*
X479312Y128943D02*
D03*
X479063Y98716D02*
D03*
X478256Y118038D02*
D03*
X468063Y104717D02*
D03*
X465229Y106799D02*
D03*
X457063Y121716D02*
D03*
X441063Y100716D02*
D03*
X320063Y179717D02*
D03*
X324063Y177717D02*
D03*
X320190Y176379D02*
D03*
X324063Y172716D02*
D03*
X362540Y176191D02*
D03*
X315063Y168717D02*
D03*
X319063D02*
D03*
X322063Y165717D02*
D03*
X361039Y155310D02*
D03*
X321305Y159818D02*
D03*
X326297Y162575D02*
D03*
X348048Y149752D02*
D03*
X320063Y156717D02*
D03*
X309063Y150716D02*
D03*
X321354Y130232D02*
D03*
X320063Y134716D02*
D03*
X324063Y127717D02*
D03*
X316131Y125076D02*
D03*
X321063Y122716D02*
D03*
X316299Y120157D02*
D03*
X321177Y115757D02*
D03*
X325063Y112716D02*
D03*
X320063Y109716D02*
D03*
X479063Y53716D02*
D03*
X439063Y87717D02*
D03*
X444063Y40716D02*
D03*
X441063Y25717D02*
D03*
X416309Y8993D02*
D03*
X406588Y24589D02*
D03*
X408903Y28155D02*
D03*
X411468Y30658D02*
D03*
X422063Y30716D02*
D03*
X430063Y20717D02*
D03*
X431868Y8698D02*
D03*
X436063Y5717D02*
D03*
X470063Y19716D02*
D03*
X478063Y29717D02*
D03*
X481063Y25717D02*
D03*
X484063Y28716D02*
D03*
X481268Y31892D02*
D03*
X488063Y52716D02*
D03*
X459063Y124716D02*
D03*
X361980Y137338D02*
D03*
X362997Y103682D02*
D03*
X324311Y119876D02*
D03*
X399110Y23717D02*
D03*
X445110Y61717D02*
D03*
X459110Y64717D02*
D03*
X455208Y245835D02*
D03*
X348964Y60157D02*
D03*
Y105457D02*
D03*
Y15417D02*
D03*
X321044Y145482D02*
D03*
X402808Y47635D02*
D03*
X395208Y120835D02*
D03*
X397720Y130243D02*
D03*
X397908Y159235D02*
D03*
X395508Y171935D02*
D03*
X453808Y206035D02*
D03*
X453508Y188535D02*
D03*
X453738Y126962D02*
D03*
X399714Y149313D02*
D03*
X308643Y227589D02*
D03*
X313063Y252716D02*
D03*
X113063D02*
D03*
X108643Y227589D02*
D03*
X199714Y149313D02*
D03*
X253738Y126962D02*
D03*
X253008Y219835D02*
D03*
X253508Y188535D02*
D03*
X253808Y206035D02*
D03*
X195508Y171935D02*
D03*
X197908Y159235D02*
D03*
X197721Y130243D02*
D03*
X195208Y120835D02*
D03*
X189808Y64735D02*
D03*
X202808Y47635D02*
D03*
X121044Y145482D02*
D03*
X148964Y15417D02*
D03*
Y105457D02*
D03*
Y60157D02*
D03*
X255208Y245835D02*
D03*
X259110Y64717D02*
D03*
X245110Y61717D02*
D03*
X199322Y38815D02*
D03*
X199110Y23717D02*
D03*
X253063Y194717D02*
D03*
X124311Y119876D02*
D03*
X162696Y48914D02*
D03*
X162997Y103682D02*
D03*
X161980Y137338D02*
D03*
X259063Y124716D02*
D03*
X253366Y174020D02*
D03*
X288063Y52716D02*
D03*
X279063Y87717D02*
D03*
X281268Y31892D02*
D03*
X284063Y28716D02*
D03*
X281063Y25717D02*
D03*
X278063Y29717D02*
D03*
X270063Y19716D02*
D03*
X236063Y5717D02*
D03*
X231868Y8698D02*
D03*
X230063Y20717D02*
D03*
X222063Y30716D02*
D03*
X211468Y30658D02*
D03*
X208903Y28155D02*
D03*
X206588Y24589D02*
D03*
X216309Y8993D02*
D03*
X241063Y25717D02*
D03*
X244063Y40716D02*
D03*
X239063Y87717D02*
D03*
X122063Y19716D02*
D03*
X124063Y22716D02*
D03*
X123079Y29726D02*
D03*
X119063Y32717D02*
D03*
X115019Y32597D02*
D03*
X127063Y37716D02*
D03*
X125950Y42210D02*
D03*
X157087Y56916D02*
D03*
X122063Y47717D02*
D03*
X279063Y53716D02*
D03*
X160751Y40522D02*
D03*
X159063Y23717D02*
D03*
X121063Y25717D02*
D03*
X120874Y40663D02*
D03*
X121086Y55767D02*
D03*
X161063Y72716D02*
D03*
X124063Y68717D02*
D03*
X120063Y64717D02*
D03*
X120667Y69511D02*
D03*
X124063Y73716D02*
D03*
X124056Y78840D02*
D03*
X119439Y79783D02*
D03*
X115142Y80195D02*
D03*
X124063Y88717D02*
D03*
X121063Y89717D02*
D03*
Y85716D02*
D03*
X119651Y98575D02*
D03*
X120063Y109716D02*
D03*
X125063Y112716D02*
D03*
X121177Y115757D02*
D03*
X116299Y120157D02*
D03*
X121063Y122716D02*
D03*
X116131Y125076D02*
D03*
X124063Y127717D02*
D03*
X120063Y134716D02*
D03*
X121354Y130232D02*
D03*
X109063Y150716D02*
D03*
X120063Y156717D02*
D03*
X148048Y149752D02*
D03*
X126297Y162575D02*
D03*
X121305Y159818D02*
D03*
X161039Y155310D02*
D03*
X122063Y165717D02*
D03*
X119063Y168717D02*
D03*
X115063D02*
D03*
X162540Y176191D02*
D03*
X124063Y172716D02*
D03*
X120190Y176379D02*
D03*
X124063Y177717D02*
D03*
X120063Y179717D02*
D03*
X241063Y100716D02*
D03*
X257063Y121716D02*
D03*
X265229Y106799D02*
D03*
X268063Y104717D02*
D03*
X278256Y118038D02*
D03*
X279063Y98716D02*
D03*
X279312Y128943D02*
D03*
X270765Y126556D02*
D03*
X273181Y123773D02*
D03*
X276063Y120717D02*
D03*
X278387Y106834D02*
D03*
X281063Y235717D02*
D03*
X286063Y205716D02*
D03*
X279063Y207716D02*
D03*
X277063Y201716D02*
D03*
X273814Y200443D02*
D03*
X263273Y202570D02*
D03*
X265893Y212972D02*
D03*
X270694Y201696D02*
D03*
X270063Y211717D02*
D03*
X260532Y200186D02*
D03*
X189138Y224848D02*
D03*
X187063Y209717D02*
D03*
X176063Y236717D02*
D03*
X155673Y211764D02*
D03*
X160063Y211717D02*
D03*
X164612Y207487D02*
D03*
X167063Y211717D02*
D03*
X170063Y205716D02*
D03*
X172063Y201716D02*
D03*
X173130Y190164D02*
D03*
X178973Y190625D02*
D03*
X136654Y233045D02*
D03*
X159063Y237717D02*
D03*
Y188716D02*
D03*
Y207716D02*
D03*
X282622Y162283D02*
D03*
X259157Y171826D02*
D03*
X285573Y111204D02*
D03*
X287130Y150943D02*
D03*
X289406Y161086D02*
D03*
X253063Y111716D02*
D03*
X253001Y150610D02*
D03*
X262181Y64617D02*
D03*
X151063Y45717D02*
D03*
X255001Y52609D02*
D03*
X211063Y54716D02*
D03*
X255192Y234457D02*
D03*
X110063Y92716D02*
D03*
X164181Y87256D02*
D03*
X283063Y64717D02*
D03*
X109551Y105207D02*
D03*
X161063Y109716D02*
D03*
X287573Y13204D02*
D03*
X109551Y15207D02*
D03*
X110063Y47717D02*
D03*
X164181Y42256D02*
D03*
X237063Y64717D02*
D03*
X109551Y60207D02*
D03*
X241573Y13204D02*
D03*
X293406Y76086D02*
D03*
X110063Y137716D02*
D03*
X255063Y13716D02*
D03*
X164181Y132256D02*
D03*
X214524Y67835D02*
D03*
X243130Y52943D02*
D03*
X209063Y13716D02*
D03*
X126789Y211442D02*
D03*
X129348Y207432D02*
D03*
X131907Y202873D02*
D03*
X134466Y188119D02*
D03*
X116548Y198526D02*
D03*
X119063Y209717D02*
D03*
X124159Y201695D02*
D03*
X121666Y198526D02*
D03*
X121063Y205716D02*
D03*
X119450Y188624D02*
D03*
X142493Y194577D02*
D03*
X110063Y183716D02*
D03*
X159769Y149439D02*
D03*
X160366Y181413D02*
D03*
X147778Y183870D02*
D03*
X287130Y233943D02*
D03*
X258524Y248835D02*
D03*
X281063Y245717D02*
D03*
X285573Y194204D02*
D03*
X182632Y194538D02*
D03*
X149969Y232766D02*
D03*
X157711Y246408D02*
D03*
X150426Y257354D02*
D03*
X178123Y246050D02*
D03*
X187095Y244883D02*
D03*
X185123Y232050D02*
D03*
X150123Y195050D02*
D03*
X109063Y194717D02*
D03*
X144063Y231716D02*
D03*
X137063Y245717D02*
D03*
X116651Y246074D02*
D03*
X119063Y237717D02*
D03*
X640344Y312087D02*
D03*
X843948Y304403D02*
D03*
X840983Y312187D02*
D03*
X730580Y399038D02*
D03*
X730282Y395299D02*
D03*
X730522Y391441D02*
D03*
X733483Y311887D02*
D03*
X133093Y312047D02*
D03*
X830183Y398886D02*
D03*
X321656Y393974D02*
D03*
X321676Y389936D02*
D03*
X321546Y398310D02*
D03*
X452675Y388823D02*
D03*
X330446Y394929D02*
D03*
X330522Y391441D02*
D03*
X330580Y399038D02*
D03*
X253042Y388671D02*
D03*
X533023Y308686D02*
D03*
X640483Y388886D02*
D03*
X337613Y384817D02*
D03*
X333083Y308296D02*
D03*
X240693Y388487D02*
D03*
X840943Y388387D02*
D03*
X629933Y392827D02*
D03*
X640437Y383489D02*
D03*
X240753Y383257D02*
D03*
X841083Y383787D02*
D03*
X577143Y387887D02*
D03*
X176951Y384897D02*
D03*
X777683Y387986D02*
D03*
X530360Y391886D02*
D03*
X530233Y395506D02*
D03*
X530419Y399483D02*
D03*
X640693Y376116D02*
D03*
X440568Y388761D02*
D03*
X430483Y392667D02*
D03*
X537600Y385913D02*
D03*
X240863Y376136D02*
D03*
X841083Y375987D02*
D03*
X550303Y325867D02*
D03*
X556983Y349917D02*
D03*
X441113Y383137D02*
D03*
X443589Y303745D02*
D03*
X350673Y325377D02*
D03*
X157013Y349637D02*
D03*
X757583Y349587D02*
D03*
X131218Y391764D02*
D03*
X131337Y395324D02*
D03*
X131277Y399361D02*
D03*
X630493Y398687D02*
D03*
X566293Y315686D02*
D03*
X377577Y387674D02*
D03*
X521494Y394419D02*
D03*
X521536Y390362D02*
D03*
X521287Y398343D02*
D03*
X440723Y312647D02*
D03*
X137613Y385327D02*
D03*
X166703Y315606D02*
D03*
X766483Y315886D02*
D03*
X440883Y375867D02*
D03*
X230243Y392717D02*
D03*
X532843Y312406D02*
D03*
X356093Y349906D02*
D03*
X122353Y394298D02*
D03*
X122931Y390163D02*
D03*
X122464Y398092D02*
D03*
X430413Y398296D02*
D03*
X333123Y311607D02*
D03*
X243856Y304429D02*
D03*
X366473Y315297D02*
D03*
X853054Y388812D02*
D03*
X240533Y312837D02*
D03*
X133483Y308237D02*
D03*
X733683Y308686D02*
D03*
X721801Y390434D02*
D03*
X721656Y393974D02*
D03*
X721542Y397495D02*
D03*
X737283Y385386D02*
D03*
X230523Y398777D02*
D03*
X150448Y325799D02*
D03*
X830483Y393087D02*
D03*
X750583Y325387D02*
D03*
X793528Y378894D02*
D03*
X843490Y329451D02*
D03*
X842983Y359000D02*
D03*
X642005Y327940D02*
D03*
X642252Y358248D02*
D03*
X441011Y327239D02*
D03*
X441999Y358141D02*
D03*
X208315Y362537D02*
D03*
X849063Y367717D02*
D03*
X609858Y365052D02*
D03*
X408544Y364041D02*
D03*
X252063Y369717D02*
D03*
X242182Y359113D02*
D03*
X241733Y327915D02*
D03*
X133583Y318186D02*
D03*
X143002Y313557D02*
D03*
X149883Y321987D02*
D03*
X148029Y341753D02*
D03*
X151204Y358564D02*
D03*
X149483Y369486D02*
D03*
X149160Y377077D02*
D03*
X148813Y383140D02*
D03*
X148959Y392897D02*
D03*
X157370Y359331D02*
D03*
X163883Y338087D02*
D03*
X167063Y345717D02*
D03*
X165303Y357747D02*
D03*
X198205Y329509D02*
D03*
X208128Y313139D02*
D03*
X221471Y322090D02*
D03*
X221707Y374281D02*
D03*
X222021Y393054D02*
D03*
X133883Y324486D02*
D03*
X143073Y387450D02*
D03*
X148983Y308314D02*
D03*
X150983Y331587D02*
D03*
X152115Y387339D02*
D03*
X158989Y317106D02*
D03*
X174683Y314586D02*
D03*
X182457Y387992D02*
D03*
X192299D02*
D03*
X223025Y308340D02*
D03*
X222331Y332909D02*
D03*
X222088Y356568D02*
D03*
X221481Y386382D02*
D03*
X137448Y326866D02*
D03*
X163063Y352716D02*
D03*
X217883Y312787D02*
D03*
X216643Y383506D02*
D03*
X178407Y315125D02*
D03*
X160803Y387992D02*
D03*
X209863Y373127D02*
D03*
X201678Y386298D02*
D03*
X209229Y387090D02*
D03*
X219113Y380948D02*
D03*
X718686Y342348D02*
D03*
X349993Y321726D02*
D03*
X349270Y376817D02*
D03*
X348923Y382880D02*
D03*
X419223Y380688D02*
D03*
X417993Y312526D02*
D03*
X352225Y387079D02*
D03*
X616313Y383506D02*
D03*
X548613Y383225D02*
D03*
X548960Y377162D02*
D03*
X549683Y322072D02*
D03*
X617683Y312872D02*
D03*
X618913Y381033D02*
D03*
X551915Y387424D02*
D03*
X748913Y383240D02*
D03*
X752215Y387439D02*
D03*
X749983Y322087D02*
D03*
X749260Y377177D02*
D03*
X819213Y381048D02*
D03*
X817983Y312887D02*
D03*
X364293Y414326D02*
D03*
X197683Y415087D02*
D03*
X397793Y414826D02*
D03*
X802812Y415342D02*
D03*
X755825Y357415D02*
D03*
X400613Y372687D02*
D03*
X592103Y379187D02*
D03*
X164183Y414586D02*
D03*
X372293Y414326D02*
D03*
X182183Y414887D02*
D03*
X797783Y415187D02*
D03*
X355835Y357055D02*
D03*
X758383Y414686D02*
D03*
X764283D02*
D03*
X402822Y414982D02*
D03*
X800183Y373287D02*
D03*
X158283Y414586D02*
D03*
X172183D02*
D03*
X382293Y414627D02*
D03*
X772283Y414686D02*
D03*
X782283Y414987D02*
D03*
X358393Y414326D02*
D03*
X202712Y415242D02*
D03*
X801778Y386398D02*
D03*
X748129Y341853D02*
D03*
X808228Y313239D02*
D03*
X774783Y314686D02*
D03*
X749583Y369586D02*
D03*
X821807Y374381D02*
D03*
X822188Y356668D02*
D03*
X822431Y333009D02*
D03*
X782557Y388092D02*
D03*
X760904D02*
D03*
X759089Y317206D02*
D03*
X602512Y415327D02*
D03*
X597483Y415171D02*
D03*
X581983Y414971D02*
D03*
X571983Y414672D02*
D03*
X563983D02*
D03*
X558083D02*
D03*
X560604Y388077D02*
D03*
X582257D02*
D03*
X601478Y386383D02*
D03*
X621507Y374366D02*
D03*
X621888Y356652D02*
D03*
X622131Y332994D02*
D03*
X607928Y313224D02*
D03*
X574483Y314671D02*
D03*
X558789Y317191D02*
D03*
X547829Y341838D02*
D03*
X549283Y369571D02*
D03*
X557081Y359695D02*
D03*
X550584Y333536D02*
D03*
X751284Y333583D02*
D03*
X360913Y387732D02*
D03*
X401788Y386038D02*
D03*
X408238Y312879D02*
D03*
X422198Y356308D02*
D03*
X422441Y332649D02*
D03*
X382567Y387732D02*
D03*
X374793Y314327D02*
D03*
X359099Y316846D02*
D03*
X351093Y331327D02*
D03*
X421816Y374021D02*
D03*
X349593Y369227D02*
D03*
X348139Y341493D02*
D03*
X422131Y392794D02*
D03*
X621821Y393139D02*
D03*
X822121Y393154D02*
D03*
X809329Y387190D02*
D03*
X778507Y315225D02*
D03*
X821581Y386482D02*
D03*
X821571Y322189D02*
D03*
X749059Y392997D02*
D03*
X743102Y313657D02*
D03*
X823125Y308440D02*
D03*
X749083Y308414D02*
D03*
X743173Y387550D02*
D03*
X548759Y392982D02*
D03*
X609029Y387175D02*
D03*
X621281Y386467D02*
D03*
X621271Y322175D02*
D03*
X622825Y308425D02*
D03*
X578207Y315210D02*
D03*
X548782Y308399D02*
D03*
X542802Y313642D02*
D03*
X542873Y387535D02*
D03*
X409339Y386830D02*
D03*
X378517Y314865D02*
D03*
X421591Y386122D02*
D03*
X423135Y308080D02*
D03*
X349093Y308054D02*
D03*
X343183Y387190D02*
D03*
X421581Y321830D02*
D03*
X349069Y392637D02*
D03*
X343112Y313297D02*
D03*
X333693Y317927D02*
D03*
X349593Y357416D02*
D03*
X363993Y337826D02*
D03*
X367366Y345244D02*
D03*
X367063Y349716D02*
D03*
X398315Y329249D02*
D03*
X333993Y324226D02*
D03*
X363063Y355716D02*
D03*
X328343Y320107D02*
D03*
X319693Y342326D02*
D03*
X362063Y351716D02*
D03*
X328303Y324937D02*
D03*
X392409Y387732D02*
D03*
X409973Y372867D02*
D03*
X772063Y349716D02*
D03*
X768063Y346716D02*
D03*
X763699Y358595D02*
D03*
X768063Y353716D02*
D03*
X567063Y354716D02*
D03*
X572178Y345575D02*
D03*
X569063Y350716D02*
D03*
X566063Y358717D02*
D03*
X128233Y320367D02*
D03*
X128193Y325197D02*
D03*
X119583Y342586D02*
D03*
X563683Y338172D02*
D03*
X598005Y329594D02*
D03*
X609663Y373212D02*
D03*
X592100Y388077D02*
D03*
X549283Y357761D02*
D03*
X527993Y325282D02*
D03*
X533683Y324571D02*
D03*
X528033Y320451D02*
D03*
X533383Y318271D02*
D03*
X519383Y342671D02*
D03*
X728293Y325296D02*
D03*
X733683Y318286D02*
D03*
X733983Y324587D02*
D03*
X749583Y357775D02*
D03*
X792400Y388092D02*
D03*
X728333Y320466D02*
D03*
X798305Y329609D02*
D03*
X814282Y361538D02*
D03*
X809963Y373226D02*
D03*
X763983Y338187D02*
D03*
D123*
X453123Y183184D02*
D03*
X453063Y200716D02*
D03*
X367000Y100000D02*
D03*
X384468Y216811D02*
D03*
X378075Y201219D02*
D03*
X583495Y216658D02*
D03*
X690878Y253214D02*
D03*
X890481Y251467D02*
D03*
X783302Y216653D02*
D03*
X778244Y201484D02*
D03*
X578085Y201130D02*
D03*
X489875Y251763D02*
D03*
X290090Y251592D02*
D03*
X44050Y37677D02*
D03*
X39986Y70331D02*
D03*
X42457Y79937D02*
D03*
X368822Y92545D02*
D03*
X716063Y92716D02*
D03*
X715537Y58936D02*
D03*
X768739Y54892D02*
D03*
X768901Y94126D02*
D03*
X743271Y59044D02*
D03*
X750545Y82088D02*
D03*
X716063Y64717D02*
D03*
X731978Y88554D02*
D03*
X732489Y58406D02*
D03*
X741253Y90531D02*
D03*
X516063Y92716D02*
D03*
X515537Y58936D02*
D03*
X568739Y54892D02*
D03*
X568901Y94126D02*
D03*
X543271Y59044D02*
D03*
X550545Y82088D02*
D03*
X516063Y64717D02*
D03*
X531978Y88554D02*
D03*
X532489Y58406D02*
D03*
X541253Y90531D02*
D03*
X316063Y92716D02*
D03*
X315537Y58936D02*
D03*
X368739Y54892D02*
D03*
X343271Y59044D02*
D03*
X350545Y82088D02*
D03*
X316063Y64717D02*
D03*
X331978Y88554D02*
D03*
X332489Y58406D02*
D03*
X341252Y90531D02*
D03*
X716063Y47717D02*
D03*
X715537Y13936D02*
D03*
X766833Y9066D02*
D03*
X768155Y47521D02*
D03*
X743271Y14044D02*
D03*
X750545Y37088D02*
D03*
X716063Y19716D02*
D03*
X731925Y42464D02*
D03*
X732489Y13406D02*
D03*
X741175Y45874D02*
D03*
X516063Y47717D02*
D03*
X515537Y13936D02*
D03*
X566833Y9066D02*
D03*
X568155Y47521D02*
D03*
X543271Y14044D02*
D03*
X550545Y37088D02*
D03*
X516063Y19716D02*
D03*
X531925Y42464D02*
D03*
X532489Y13406D02*
D03*
X541175Y45874D02*
D03*
X316063Y47717D02*
D03*
X315537Y13936D02*
D03*
X366833Y9066D02*
D03*
X368155Y47521D02*
D03*
X343271Y14044D02*
D03*
X350545Y37088D02*
D03*
X316063Y19716D02*
D03*
X331925Y42464D02*
D03*
X332489Y13406D02*
D03*
X341175Y45874D02*
D03*
X168901Y94126D02*
D03*
X451554Y378490D02*
D03*
X65558Y415684D02*
D03*
X526880Y305125D02*
D03*
X71961Y416032D02*
D03*
X5715Y229901D02*
D03*
X5915Y211600D02*
D03*
X6215Y199301D02*
D03*
X6199Y272206D02*
D03*
X6115Y186100D02*
D03*
X105324Y406378D02*
D03*
X76494Y286216D02*
D03*
Y275996D02*
D03*
X65806Y334409D02*
D03*
X60704Y286216D02*
D03*
Y275996D02*
D03*
X28184Y261809D02*
D03*
X19134Y157686D02*
D03*
X26942Y107643D02*
D03*
X11272Y107953D02*
D03*
X22961Y399031D02*
D03*
X13961D02*
D03*
X105274Y377988D02*
D03*
X43922Y111563D02*
D03*
X26315Y202100D02*
D03*
X19324Y143447D02*
D03*
X35357Y122255D02*
D03*
X27092Y98973D02*
D03*
X57214Y150666D02*
D03*
X106592Y391057D02*
D03*
X47624Y223226D02*
D03*
X40868Y258194D02*
D03*
X16015Y219701D02*
D03*
X15715Y205201D02*
D03*
X17961Y392032D02*
D03*
X8204Y157817D02*
D03*
X10835Y391881D02*
D03*
X73344Y319586D02*
D03*
X63214Y319766D02*
D03*
X55229Y255461D02*
D03*
X40868Y263734D02*
D03*
X41242Y105283D02*
D03*
X30935Y128700D02*
D03*
X22772Y98973D02*
D03*
X7198Y240224D02*
D03*
X8144Y143447D02*
D03*
X745063Y225716D02*
D03*
X712068Y215748D02*
D03*
X743379Y216174D02*
D03*
X709063Y200716D02*
D03*
X786123Y202050D02*
D03*
X750123Y201050D02*
D03*
X786123Y226050D02*
D03*
X753123Y217050D02*
D03*
X853063Y200716D02*
D03*
X887373Y217142D02*
D03*
X886844Y200190D02*
D03*
X886736Y227925D02*
D03*
X858316Y216578D02*
D03*
X732489Y149406D02*
D03*
X716063Y155717D02*
D03*
X732063Y180717D02*
D03*
X745063Y179717D02*
D03*
X769530Y181657D02*
D03*
X716063Y183716D02*
D03*
X742929Y201231D02*
D03*
X814316Y35578D02*
D03*
X888736Y46925D02*
D03*
X843373Y36142D02*
D03*
X731925Y132464D02*
D03*
X883063Y19716D02*
D03*
X732489Y103406D02*
D03*
X860316Y35578D02*
D03*
X889373Y36142D02*
D03*
X716063Y109716D02*
D03*
X842844Y19190D02*
D03*
X842736Y46925D02*
D03*
X750545Y127088D02*
D03*
X809063Y19716D02*
D03*
X888844Y19190D02*
D03*
X743271Y104044D02*
D03*
X855063Y19716D02*
D03*
X716063Y137716D02*
D03*
X896157Y83486D02*
D03*
X837063Y19716D02*
D03*
X715537Y103936D02*
D03*
X855063Y224716D02*
D03*
X811063Y44717D02*
D03*
X859483Y47533D02*
D03*
X741295Y135479D02*
D03*
X853063Y117717D02*
D03*
X886844Y117190D02*
D03*
X886736Y144925D02*
D03*
X887373Y134142D02*
D03*
X881063Y119717D02*
D03*
X856118Y145442D02*
D03*
X855824Y133408D02*
D03*
X751857Y226289D02*
D03*
X889324Y170494D02*
D03*
X863063Y239717D02*
D03*
X883642Y201369D02*
D03*
X742065Y149671D02*
D03*
X716075Y149335D02*
D03*
X816548Y51712D02*
D03*
X749916Y263363D02*
D03*
X787063Y250716D02*
D03*
X853123Y183184D02*
D03*
X767063Y145717D02*
D03*
X769063Y136716D02*
D03*
Y101716D02*
D03*
X813110Y63717D02*
D03*
X845063Y70717D02*
D03*
X855432Y71230D02*
D03*
X857580Y252791D02*
D03*
X714063Y231716D02*
D03*
X713063Y247716D02*
D03*
X545063Y225716D02*
D03*
X512068Y215748D02*
D03*
X543379Y216174D02*
D03*
X509063Y200716D02*
D03*
X586123Y202050D02*
D03*
X550123Y201050D02*
D03*
X586123Y226050D02*
D03*
X553123Y217050D02*
D03*
X653063Y200716D02*
D03*
X687373Y217142D02*
D03*
X686844Y200190D02*
D03*
X686736Y227925D02*
D03*
X658316Y216578D02*
D03*
X532489Y149406D02*
D03*
X516063Y155717D02*
D03*
X532063Y180717D02*
D03*
X545063Y179717D02*
D03*
X569530Y181657D02*
D03*
X516063Y183716D02*
D03*
X542929Y201231D02*
D03*
X614316Y35578D02*
D03*
X688736Y46925D02*
D03*
X643373Y36142D02*
D03*
X531925Y132464D02*
D03*
X683063Y19716D02*
D03*
X532489Y103406D02*
D03*
X660316Y35578D02*
D03*
X689373Y36142D02*
D03*
X516063Y109716D02*
D03*
X642844Y19190D02*
D03*
X642736Y46925D02*
D03*
X550545Y127088D02*
D03*
X609063Y19716D02*
D03*
X688844Y19190D02*
D03*
X543271Y104044D02*
D03*
X655063Y19716D02*
D03*
X516063Y137716D02*
D03*
X696158Y83486D02*
D03*
X637063Y19716D02*
D03*
X515537Y103936D02*
D03*
X655063Y224716D02*
D03*
X611063Y44717D02*
D03*
X659483Y47533D02*
D03*
X541295Y135479D02*
D03*
X653063Y117717D02*
D03*
X686844Y117190D02*
D03*
X686736Y144925D02*
D03*
X687373Y134142D02*
D03*
X681063Y119717D02*
D03*
X656118Y145442D02*
D03*
X655825Y133408D02*
D03*
X551857Y226289D02*
D03*
X689324Y170494D02*
D03*
X663063Y239717D02*
D03*
X683642Y201369D02*
D03*
X542065Y149671D02*
D03*
X516075Y149335D02*
D03*
X616548Y51712D02*
D03*
X549916Y263363D02*
D03*
X587063Y250716D02*
D03*
X653123Y183184D02*
D03*
X567063Y145717D02*
D03*
X569063Y136716D02*
D03*
Y101716D02*
D03*
X613110Y63717D02*
D03*
X645063Y70717D02*
D03*
X655432Y71230D02*
D03*
X657580Y252791D02*
D03*
X514063Y231716D02*
D03*
X513063Y247716D02*
D03*
X345063Y225716D02*
D03*
X312068Y215748D02*
D03*
X343379Y216174D02*
D03*
X309063Y200716D02*
D03*
X386123Y202050D02*
D03*
X350123Y201050D02*
D03*
X386123Y226050D02*
D03*
X353123Y217050D02*
D03*
X487373Y217142D02*
D03*
X486844Y200190D02*
D03*
X486736Y227925D02*
D03*
X458316Y216578D02*
D03*
X332489Y149406D02*
D03*
X316063Y155717D02*
D03*
X332063Y180717D02*
D03*
X345063Y179717D02*
D03*
X369530Y181657D02*
D03*
X316063Y183716D02*
D03*
X342929Y201231D02*
D03*
X414316Y35578D02*
D03*
X488736Y46925D02*
D03*
X443373Y36142D02*
D03*
X331925Y132464D02*
D03*
X483063Y19716D02*
D03*
X332489Y103406D02*
D03*
X460316Y35578D02*
D03*
X489373Y36142D02*
D03*
X316063Y109716D02*
D03*
X442844Y19190D02*
D03*
X442736Y46925D02*
D03*
X350545Y127088D02*
D03*
X409063Y19716D02*
D03*
X488844Y19190D02*
D03*
X343271Y104044D02*
D03*
X455063Y19716D02*
D03*
X316063Y137716D02*
D03*
X496158Y83486D02*
D03*
X437063Y19716D02*
D03*
X315537Y103936D02*
D03*
X455063Y224716D02*
D03*
X411063Y44717D02*
D03*
X459483Y47533D02*
D03*
X341295Y135479D02*
D03*
X453063Y117717D02*
D03*
X486844Y117190D02*
D03*
X486736Y144925D02*
D03*
X487373Y134142D02*
D03*
X481063Y119717D02*
D03*
X456118Y145442D02*
D03*
X455825Y133408D02*
D03*
X351857Y226289D02*
D03*
X489324Y170494D02*
D03*
X463063Y239717D02*
D03*
X483642Y201369D02*
D03*
X342065Y149671D02*
D03*
X316075Y149335D02*
D03*
X416548Y51712D02*
D03*
X349916Y263363D02*
D03*
X387063Y250716D02*
D03*
X367063Y145717D02*
D03*
X369063Y136716D02*
D03*
X413110Y63717D02*
D03*
X445063Y70717D02*
D03*
X455432Y71230D02*
D03*
X457580Y252791D02*
D03*
X314063Y231716D02*
D03*
X313063Y247716D02*
D03*
X327205Y305156D02*
D03*
X113063Y247716D02*
D03*
X114063Y231716D02*
D03*
X257580Y252791D02*
D03*
X255432Y71230D02*
D03*
X245063Y70717D02*
D03*
X213110Y63717D02*
D03*
X168155Y47521D02*
D03*
X168739Y54892D02*
D03*
X169063Y101716D02*
D03*
Y136716D02*
D03*
X167063Y145717D02*
D03*
X253123Y183184D02*
D03*
X187063Y250716D02*
D03*
X149916Y263363D02*
D03*
X216548Y51712D02*
D03*
X131977Y88554D02*
D03*
X116075Y149335D02*
D03*
X142065Y149671D02*
D03*
X283642Y201369D02*
D03*
X263063Y239717D02*
D03*
X289324Y170494D02*
D03*
X184503Y216937D02*
D03*
X151857Y226289D02*
D03*
X255824Y133408D02*
D03*
X256118Y145442D02*
D03*
X281063Y119717D02*
D03*
X287373Y134142D02*
D03*
X286736Y144925D02*
D03*
X286844Y117190D02*
D03*
X253063Y117717D02*
D03*
X141295Y135479D02*
D03*
X141253Y90531D02*
D03*
X141174Y45874D02*
D03*
X259483Y47533D02*
D03*
X211063Y44717D02*
D03*
X255063Y224716D02*
D03*
X115537Y103936D02*
D03*
X150545Y37088D02*
D03*
X132489Y58406D02*
D03*
X237063Y19716D02*
D03*
X296158Y83486D02*
D03*
X116063Y137716D02*
D03*
X255063Y19716D02*
D03*
X132489Y13406D02*
D03*
X143272Y104044D02*
D03*
X131925Y42464D02*
D03*
X288844Y19190D02*
D03*
X209063Y19716D02*
D03*
X150545Y127088D02*
D03*
X116063Y19716D02*
D03*
X242736Y46925D02*
D03*
X115537Y58936D02*
D03*
X242844Y19190D02*
D03*
X116063Y92716D02*
D03*
Y109716D02*
D03*
X289373Y36142D02*
D03*
X143272Y59044D02*
D03*
X260316Y35578D02*
D03*
X166833Y9066D02*
D03*
X150545Y82088D02*
D03*
X132489Y103406D02*
D03*
X283063Y19716D02*
D03*
X131925Y132464D02*
D03*
X115537Y13936D02*
D03*
X116063Y47717D02*
D03*
Y64717D02*
D03*
X243373Y36142D02*
D03*
X143272Y14044D02*
D03*
X288736Y46925D02*
D03*
X214316Y35578D02*
D03*
X142929Y201231D02*
D03*
X116063Y183716D02*
D03*
X169530Y181657D02*
D03*
X145063Y179717D02*
D03*
X132063Y180717D02*
D03*
X116063Y155717D02*
D03*
X132489Y149406D02*
D03*
X258316Y216578D02*
D03*
X286736Y227925D02*
D03*
X286844Y200190D02*
D03*
X287373Y217142D02*
D03*
X253063Y200716D02*
D03*
X178123Y201050D02*
D03*
X153123Y217050D02*
D03*
X186123Y226050D02*
D03*
X150123Y201050D02*
D03*
X186123Y202050D02*
D03*
X109063Y200716D02*
D03*
X143379Y216174D02*
D03*
X112068Y215748D02*
D03*
X145063Y225716D02*
D03*
X651739Y378821D02*
D03*
X611236Y303273D02*
D03*
X831583Y311887D02*
D03*
X351693Y314667D02*
D03*
X128593Y304926D02*
D03*
X582023Y379217D02*
D03*
X850683Y383686D02*
D03*
X231403Y304458D02*
D03*
X421113Y368286D02*
D03*
X551413Y314947D02*
D03*
X756383Y320387D02*
D03*
X809483Y381786D02*
D03*
X347063Y387717D02*
D03*
X173423Y323477D02*
D03*
X601273Y378077D02*
D03*
X240197Y393102D02*
D03*
X578363Y323766D02*
D03*
X425063Y311717D02*
D03*
X820383Y303386D02*
D03*
X831683Y304686D02*
D03*
X160833Y324897D02*
D03*
X615813Y331996D02*
D03*
X147363Y389216D02*
D03*
X622343Y313557D02*
D03*
X422063Y302716D02*
D03*
X815883Y371186D02*
D03*
X440255Y398217D02*
D03*
X840183Y392787D02*
D03*
X415953Y370786D02*
D03*
X155753Y341717D02*
D03*
X606603Y320777D02*
D03*
X142933Y307456D02*
D03*
X615423Y322127D02*
D03*
X727483Y305386D02*
D03*
X406883Y320457D02*
D03*
X250823Y378806D02*
D03*
X440173Y392437D02*
D03*
X747003Y388196D02*
D03*
X155643Y368046D02*
D03*
X615303Y354626D02*
D03*
X220843Y368437D02*
D03*
X378703Y323376D02*
D03*
X626753Y390306D02*
D03*
X772752Y323720D02*
D03*
X538937Y389979D02*
D03*
X431583Y311627D02*
D03*
X742883Y307487D02*
D03*
X160833Y379567D02*
D03*
X416420Y331554D02*
D03*
X566253Y324917D02*
D03*
X156613Y333566D02*
D03*
X525663Y314726D02*
D03*
X760883Y324987D02*
D03*
X609073Y381657D02*
D03*
X820783Y368387D02*
D03*
X373353Y323206D02*
D03*
X182313Y379307D02*
D03*
X550763Y350217D02*
D03*
X377031Y378992D02*
D03*
X339253Y389207D02*
D03*
X151703Y314866D02*
D03*
X555043Y376477D02*
D03*
X756083Y342186D02*
D03*
X639932Y398585D02*
D03*
X756383Y333587D02*
D03*
X526823Y383336D02*
D03*
X355073Y375786D02*
D03*
X201573Y377687D02*
D03*
X178213Y323877D02*
D03*
X755783Y368486D02*
D03*
X535033Y398436D02*
D03*
X751883Y314787D02*
D03*
X355223Y368127D02*
D03*
X215713Y331686D02*
D03*
X576973Y379167D02*
D03*
X222473Y313557D02*
D03*
X556243Y326506D02*
D03*
X760983Y379587D02*
D03*
X542863Y396446D02*
D03*
X778883Y323987D02*
D03*
X127013Y383436D02*
D03*
X360623Y379696D02*
D03*
X206853Y321037D02*
D03*
X650146Y383241D02*
D03*
X215703Y322357D02*
D03*
X556243Y320427D02*
D03*
X782283Y379287D02*
D03*
X631113Y312157D02*
D03*
X340683Y308977D02*
D03*
X827283Y313686D02*
D03*
X215473Y354467D02*
D03*
X351023Y349906D02*
D03*
X228963Y388316D02*
D03*
X426893Y389936D02*
D03*
X801583Y377786D02*
D03*
X139253Y389067D02*
D03*
X356403Y326307D02*
D03*
X361204Y324737D02*
D03*
X166473Y324676D02*
D03*
X125913Y314857D02*
D03*
X615843Y371066D02*
D03*
X815883Y332187D02*
D03*
X415403Y354066D02*
D03*
X209303Y381607D02*
D03*
X335303Y397746D02*
D03*
X631513Y304987D02*
D03*
X815683Y322287D02*
D03*
X356233Y320197D02*
D03*
X150913Y350097D02*
D03*
X415793Y322096D02*
D03*
X326913Y382997D02*
D03*
X155303Y376147D02*
D03*
X807083Y321186D02*
D03*
X240143Y398606D02*
D03*
X640033Y393031D02*
D03*
X829183Y388387D02*
D03*
X177213Y379307D02*
D03*
X450493Y383056D02*
D03*
X572933Y323716D02*
D03*
X382193Y378996D02*
D03*
X815483Y354587D02*
D03*
X135003Y398317D02*
D03*
X546903Y389557D02*
D03*
X250433Y383147D02*
D03*
X738983Y389286D02*
D03*
X727183Y383887D02*
D03*
X156273Y326606D02*
D03*
X560723Y324917D02*
D03*
X366723Y324527D02*
D03*
X766683Y325186D02*
D03*
X143098Y396046D02*
D03*
X431423Y304666D02*
D03*
X542783Y307747D02*
D03*
X755583Y376287D02*
D03*
X840270Y398591D02*
D03*
X343193Y396006D02*
D03*
X156213Y320457D02*
D03*
X555543Y341597D02*
D03*
X749383Y349786D02*
D03*
X410948Y381493D02*
D03*
X231573Y311787D02*
D03*
X620613Y368356D02*
D03*
X735283Y398087D02*
D03*
X356233Y333447D02*
D03*
X222485Y302862D02*
D03*
X555443Y368203D02*
D03*
X556593Y333476D02*
D03*
X325813Y315096D02*
D03*
X756283Y326786D02*
D03*
X401573Y377747D02*
D03*
X743283Y396087D02*
D03*
X216143Y370956D02*
D03*
X355753Y341487D02*
D03*
X560463Y379767D02*
D03*
X777283Y379187D02*
D03*
X407693Y377926D02*
D03*
X214283Y335787D02*
D03*
X164741Y387992D02*
D03*
X182457Y313230D02*
D03*
X152983Y398987D02*
D03*
X219583Y359187D02*
D03*
X219429Y377024D02*
D03*
X160803Y313230D02*
D03*
X172615Y387992D02*
D03*
X202142Y313230D02*
D03*
X200403Y372867D02*
D03*
X207583Y378186D02*
D03*
X192522Y378744D02*
D03*
X188363Y387992D02*
D03*
X137583Y381587D02*
D03*
X155483Y382187D02*
D03*
X212083Y315087D02*
D03*
X319393Y333627D02*
D03*
X323893Y318527D02*
D03*
X355593Y381926D02*
D03*
X382567Y312970D02*
D03*
X388393Y414527D02*
D03*
X414393Y335526D02*
D03*
X419693Y358927D02*
D03*
X419539Y376764D02*
D03*
X323853Y324567D02*
D03*
X364850Y387732D02*
D03*
X372725D02*
D03*
X388473D02*
D03*
X412193Y314826D02*
D03*
X360913Y312970D02*
D03*
X337693Y381327D02*
D03*
X353093Y398727D02*
D03*
X402252Y312970D02*
D03*
X392562Y378826D02*
D03*
X600003Y373096D02*
D03*
X123743Y324827D02*
D03*
X123783Y318787D02*
D03*
X188283Y414786D02*
D03*
X119283Y333887D02*
D03*
X523543Y324911D02*
D03*
X523583Y318871D02*
D03*
X619229Y377109D02*
D03*
X607383Y378272D02*
D03*
X588163Y388077D02*
D03*
X572414D02*
D03*
X564540D02*
D03*
X552783Y399072D02*
D03*
X555283Y382272D02*
D03*
X537383Y381672D02*
D03*
X619383Y359272D02*
D03*
X614083Y335872D02*
D03*
X611883Y315172D02*
D03*
X601942Y313315D02*
D03*
X582257D02*
D03*
X560604D02*
D03*
X588083Y414872D02*
D03*
X519083Y333972D02*
D03*
X719383Y333986D02*
D03*
X764841Y388092D02*
D03*
X772715D02*
D03*
X788462D02*
D03*
X788383Y414887D02*
D03*
X814383Y335887D02*
D03*
X760904Y313330D02*
D03*
X782557D02*
D03*
X807683Y378287D02*
D03*
X853283Y376386D02*
D03*
X723883Y318886D02*
D03*
X723843Y324926D02*
D03*
X737683Y381686D02*
D03*
X755583Y382287D02*
D03*
X753083Y399086D02*
D03*
X812183Y315187D02*
D03*
X819683Y359286D02*
D03*
X802242Y313330D02*
D03*
X819529Y377124D02*
D03*
M02*
